<svg width="36" height="92" viewBox="0 0 36 92" fill="none" xmlns="http://www.w3.org/2000/svg">
<path d="M8.8125 77.9375H11.595V89H10.05V79.0775L10.095 79.0925L7.4925 89H5.2575L2.6325 79.085L2.6775 79.0625V89H1.125V77.9375H3.9075L6.39 87.95H6.315L8.8125 77.9375ZM16.5545 89.1575C15.9545 89.1575 15.427 89.0625 14.972 88.8725C14.522 88.6825 14.172 88.41 13.922 88.055C13.672 87.7 13.547 87.2725 13.547 86.7725C13.547 86.2375 13.687 85.795 13.967 85.445C14.252 85.095 14.642 84.825 15.137 84.635C15.637 84.44 16.2045 84.3125 16.8395 84.2525C17.7845 84.1575 18.4495 84.065 18.8345 83.975C19.2245 83.885 19.4195 83.7375 19.4195 83.5325C19.4195 83.5275 19.4195 83.5225 19.4195 83.5175C19.4195 83.1125 19.247 82.805 18.902 82.595C18.557 82.385 18.0645 82.28 17.4245 82.28C16.7495 82.28 16.227 82.4 15.857 82.64C15.492 82.875 15.3095 83.25 15.3095 83.765H13.712C13.712 83.155 13.8695 82.6375 14.1845 82.2125C14.5045 81.7875 14.9445 81.465 15.5045 81.245C16.0645 81.02 16.707 80.9075 17.432 80.9075C18.097 80.9075 18.702 81.01 19.247 81.215C19.797 81.415 20.2345 81.715 20.5595 82.115C20.8845 82.515 21.047 83.0125 21.047 83.6075C21.047 83.7125 21.047 83.8175 21.047 83.9225C21.047 84.0225 21.047 84.125 21.047 84.23V87.41C21.047 87.595 21.0545 87.775 21.0695 87.95C21.0845 88.12 21.112 88.2725 21.152 88.4075C21.197 88.5625 21.2495 88.69 21.3095 88.79C21.3745 88.89 21.427 88.96 21.467 89H19.847C19.817 88.97 19.772 88.9075 19.712 88.8125C19.657 88.7125 19.607 88.5975 19.562 88.4675C19.517 88.3425 19.482 88.2 19.457 88.04C19.437 87.875 19.427 87.6975 19.427 87.5075L19.727 87.7175C19.577 88.0075 19.3495 88.26 19.0445 88.475C18.7445 88.69 18.382 88.8575 17.957 88.9775C17.537 89.0975 17.0695 89.1575 16.5545 89.1575ZM16.892 87.8075C17.357 87.8075 17.7795 87.735 18.1595 87.59C18.5445 87.44 18.852 87.215 19.082 86.915C19.312 86.61 19.427 86.2275 19.427 85.7675V84.4475L19.8095 84.95C19.4895 85.075 19.097 85.1775 18.632 85.2575C18.172 85.3325 17.697 85.395 17.207 85.445C16.532 85.505 16.0245 85.6225 15.6845 85.7975C15.3445 85.9675 15.1745 86.2525 15.1745 86.6525C15.1745 87.0375 15.3145 87.3275 15.5945 87.5225C15.8795 87.7125 16.312 87.8075 16.892 87.8075ZM24.7405 77.2775V89H23.1355V77.2775H24.7405ZM27.497 85.5875V84.32H33.362L33.137 84.695C33.137 84.665 33.137 84.635 33.137 84.605C33.137 84.57 33.137 84.54 33.137 84.515C33.137 84.11 33.0495 83.7375 32.8745 83.3975C32.6995 83.0525 32.437 82.7775 32.087 82.5725C31.742 82.3625 31.3095 82.2575 30.7895 82.2575C30.2695 82.2575 29.812 82.37 29.417 82.595C29.027 82.815 28.722 83.13 28.502 83.54C28.287 83.945 28.1795 84.4325 28.1795 85.0025C28.1795 85.5825 28.2845 86.0825 28.4945 86.5025C28.7045 86.9175 29.007 87.2375 29.402 87.4625C29.797 87.6875 30.2695 87.8 30.8195 87.8C31.2045 87.8 31.537 87.7625 31.817 87.6875C32.102 87.6075 32.3345 87.5025 32.5145 87.3725C32.6995 87.2425 32.8395 87.1025 32.9345 86.9525C33.0295 86.7975 33.0845 86.645 33.0995 86.495H34.7195C34.6895 86.82 34.582 87.1425 34.397 87.4625C34.217 87.7775 33.9595 88.065 33.6245 88.325C33.2945 88.58 32.8895 88.785 32.4095 88.94C31.9345 89.09 31.387 89.165 30.767 89.165C29.937 89.165 29.2095 88.99 28.5845 88.64C27.9595 88.29 27.472 87.805 27.122 87.185C26.772 86.56 26.597 85.845 26.597 85.04C26.597 84.22 26.7745 83.5 27.1295 82.88C27.4845 82.26 27.977 81.7775 28.607 81.4325C29.237 81.0825 29.9595 80.9075 30.7745 80.9075C31.6045 80.9075 32.322 81.0825 32.927 81.4325C33.537 81.7825 34.007 82.265 34.337 82.88C34.667 83.495 34.832 84.2025 34.832 85.0025C34.832 85.0975 34.8295 85.2075 34.8245 85.3325C34.8195 85.4575 34.812 85.5425 34.802 85.5875H27.497Z" fill="black"/>
<path d="M26.4157 44.0982V53.7957C26.4157 54.6829 26.4456 55.5701 26.4157 56.4573C26.3314 58.4357 25.4105 59.9069 23.5556 60.6444C21.7008 61.3819 20.0256 60.9514 18.6012 59.5476C18.5633 59.5131 18.5305 59.4734 18.5038 59.4296C17.6297 59.9144 16.8586 60.5265 15.9826 60.7904C13.175 61.6364 10.3468 59.5082 10.3187 56.5603C10.2813 52.6146 10.3075 48.669 10.3056 44.7234V43.8867C9.24808 44.3547 8.2336 44.6111 7.13489 44.3341C5.3661 43.883 4.03342 42.3276 4.02594 40.4933C4.00347 35.054 3.98101 29.6128 4.02594 24.1736C4.05776 20.9598 6.83354 18.169 10.0492 18.1353C15.5596 18.0792 21.0694 18.0792 26.5785 18.1353C29.7249 18.1634 32.4558 20.782 32.6036 23.9377C32.7253 26.5469 32.6598 29.1655 32.6673 31.7803C32.6673 34.558 32.6841 37.3356 32.6673 40.1152C32.6485 42.4155 31.299 44.1076 29.1334 44.3696C28.2762 44.4726 27.3703 44.2049 26.4157 44.0982ZM24.4728 42.4754H24.4634C24.4634 39.2997 24.4634 36.1246 24.4634 32.9501C24.4634 31.3629 24.4503 29.7682 24.4747 28.1866C24.4859 27.4135 25.1466 26.9662 25.8167 27.2507C26.3408 27.4791 26.4419 27.9376 26.4419 28.4673C26.4319 32.3655 26.4319 36.2644 26.4419 40.1638C26.4419 41.5508 27.3122 42.496 28.5813 42.4998C29.8503 42.5035 30.7675 41.5396 30.7675 40.19C30.7675 34.9847 30.7843 29.7776 30.7675 24.5723C30.7581 21.9967 28.877 20.0801 26.3108 20.067C21.0126 20.037 15.7131 20.037 10.4123 20.067C7.82556 20.0801 5.97254 21.9593 5.95944 24.5592C5.93698 29.7645 5.95008 34.9716 5.95944 40.1769C5.95356 40.5023 6.00552 40.8262 6.11292 41.1334C6.29387 41.6092 6.63761 42.0055 7.08309 42.2519C7.52857 42.4983 8.04695 42.5788 8.54618 42.4792C9.57002 42.292 10.285 41.4123 10.2963 40.2518C10.315 37.9889 10.2963 35.7241 10.2963 33.4593C10.2963 31.7073 10.2963 29.9572 10.2963 28.2072C10.2963 27.6026 10.6014 27.2357 11.2209 27.1964C11.7936 27.159 12.2129 27.5595 12.2691 28.1791C12.2878 28.3887 12.2691 28.6002 12.2691 28.8099C12.2603 37.9614 12.2522 47.1123 12.2447 56.2626C12.2447 57.9154 13.3266 59.0347 14.8371 59.0347C16.0462 59.0347 17.3808 57.9603 17.3546 56.2552C17.2853 51.7742 17.3321 47.2914 17.3321 42.8086C17.3224 42.5989 17.3268 42.3888 17.3452 42.1797C17.4201 41.6182 17.9067 41.1914 18.3953 41.2625C18.9362 41.3412 19.2825 41.6519 19.3031 42.2377C19.3031 42.4249 19.3031 42.6121 19.3031 42.7992C19.3031 47.3763 19.3031 51.952 19.3031 56.5266C19.3031 58.1269 20.4916 59.2724 22.0714 59.1844C23.4471 59.1058 24.4503 57.9865 24.4522 56.4854C24.4709 51.8148 24.4778 47.1448 24.4728 42.4754Z" fill="#7950B7"/>
<path d="M18.3878 7.39914e-05C19.9187 0.00860715 21.4128 0.470873 22.681 1.32843C23.9492 2.18598 24.9347 3.40032 25.5129 4.81791C26.0911 6.2355 26.2359 7.79268 25.9292 9.29259C25.6224 10.7925 24.8778 12.1678 23.7895 13.2446C22.7013 14.3213 21.3181 15.0513 19.815 15.342C18.312 15.6328 16.7564 15.4714 15.345 14.8782C13.9337 14.285 12.7299 13.2866 11.8859 12.0094C11.0418 10.7321 10.5955 9.23321 10.6032 7.70228C10.6161 5.64921 11.443 3.68513 12.9025 2.24111C14.362 0.797087 16.3347 -0.00889073 18.3878 7.39914e-05ZM12.548 7.69292C12.5518 8.8451 12.8979 9.97018 13.5423 10.9253C14.1867 11.8804 15.1004 12.6225 16.1674 13.0574C17.2344 13.4922 18.4065 13.6002 19.535 13.3677C20.6635 13.1351 21.6974 12.5725 22.5055 11.7512C23.3136 10.9299 23.8595 9.88701 24.0738 8.75491C24.288 7.62282 24.1611 6.45258 23.709 5.39277C23.257 4.33296 22.5002 3.43138 21.5348 2.80249C20.5694 2.17359 19.4388 1.84575 18.2867 1.86058C16.7537 1.87738 15.2896 2.50021 14.2143 3.59303C13.1391 4.68585 12.54 6.15981 12.548 7.69292Z" fill="#7950B7"/>
</svg>
