<svg width="54" height="92" viewBox="0 0 54 92" fill="none" xmlns="http://www.w3.org/2000/svg">
<path d="M1.8975 78.9131L2.6325 78.0581V82.9781L2.1225 82.5131H6.615V83.8631H2.1225L2.6325 83.3681V88.6256H1.0125V77.5631H7.2825V78.9131H1.8975ZM8.98137 85.2131V83.9456H14.8464L14.6214 84.3206C14.6214 84.2906 14.6214 84.2606 14.6214 84.2306C14.6214 84.1956 14.6214 84.1656 14.6214 84.1406C14.6214 83.7356 14.5339 83.3631 14.3589 83.0231C14.1839 82.6781 13.9214 82.4031 13.5714 82.1981C13.2264 81.9881 12.7939 81.8831 12.2739 81.8831C11.7539 81.8831 11.2964 81.9956 10.9014 82.2206C10.5114 82.4406 10.2064 82.7556 9.98637 83.1656C9.77137 83.5706 9.66387 84.0581 9.66387 84.6281C9.66387 85.2081 9.76887 85.7081 9.97887 86.1281C10.1889 86.5431 10.4914 86.8631 10.8864 87.0881C11.2814 87.3131 11.7539 87.4256 12.3039 87.4256C12.6889 87.4256 13.0214 87.3881 13.3014 87.3131C13.5864 87.2331 13.8189 87.1281 13.9989 86.9981C14.1839 86.8681 14.3239 86.7281 14.4189 86.5781C14.5139 86.4231 14.5689 86.2706 14.5839 86.1206H16.2039C16.1739 86.4456 16.0664 86.7681 15.8814 87.0881C15.7014 87.4031 15.4439 87.6906 15.1089 87.9506C14.7789 88.2056 14.3739 88.4106 13.8939 88.5656C13.4189 88.7156 12.8714 88.7906 12.2514 88.7906C11.4214 88.7906 10.6939 88.6156 10.0689 88.2656C9.44387 87.9156 8.95637 87.4306 8.60637 86.8106C8.25637 86.1856 8.08137 85.4706 8.08137 84.6656C8.08137 83.8456 8.25887 83.1256 8.61387 82.5056C8.96887 81.8856 9.46137 81.4031 10.0914 81.0581C10.7214 80.7081 11.4439 80.5331 12.2589 80.5331C13.0889 80.5331 13.8064 80.7081 14.4114 81.0581C15.0214 81.4081 15.4914 81.8906 15.8214 82.5056C16.1514 83.1206 16.3164 83.8281 16.3164 84.6281C16.3164 84.7231 16.3139 84.8331 16.3089 84.9581C16.3039 85.0831 16.2964 85.1681 16.2864 85.2131H8.98137ZM23.0579 88.6256V85.2506C23.0579 84.9456 23.0579 84.6831 23.0579 84.4631C23.0579 84.2381 23.0579 84.0481 23.0579 83.8931C23.0579 83.6981 23.0429 83.4906 23.0129 83.2706C22.9879 83.0506 22.9279 82.8456 22.8329 82.6556C22.7429 82.4606 22.6004 82.3031 22.4054 82.1831C22.2104 82.0631 21.9429 82.0031 21.6029 82.0031C21.2629 82.0031 20.9754 82.0706 20.7404 82.2056C20.5054 82.3406 20.3154 82.5206 20.1704 82.7456C20.0254 82.9656 19.9204 83.2131 19.8554 83.4881C19.7904 83.7581 19.7579 84.0306 19.7579 84.3056L19.0679 83.9306C19.0679 83.3056 19.1904 82.7381 19.4354 82.2281C19.6854 81.7131 20.0354 81.3031 20.4854 80.9981C20.9404 80.6881 21.4754 80.5331 22.0904 80.5331C22.7154 80.5331 23.2154 80.6631 23.5904 80.9231C23.9704 81.1781 24.2454 81.5281 24.4154 81.9731C24.5854 82.4131 24.6704 82.9131 24.6704 83.4731C24.6704 83.6781 24.6704 83.9456 24.6704 84.2756C24.6704 84.6056 24.6704 84.9881 24.6704 85.4231V88.6256H23.0579ZM18.1304 88.6256V80.6606H19.7579V88.6256H18.1304ZM27.9629 88.6256V85.2581C27.9629 84.9281 27.9629 84.6531 27.9629 84.4331C27.9629 84.2081 27.9629 84.0206 27.9629 83.8706C27.9629 83.6656 27.9504 83.4556 27.9254 83.2406C27.9004 83.0206 27.8404 82.8181 27.7454 82.6331C27.6504 82.4481 27.5029 82.2981 27.3029 82.1831C27.1079 82.0631 26.8354 82.0031 26.4854 82.0031C26.1404 82.0031 25.8504 82.0706 25.6154 82.2056C25.3854 82.3356 25.2004 82.5106 25.0604 82.7306C24.9204 82.9456 24.8204 83.1831 24.7604 83.4431C24.7004 83.7031 24.6704 83.9606 24.6704 84.2156L23.9804 83.8556C23.9804 83.2556 24.1004 82.7031 24.3404 82.1981C24.5854 81.6931 24.9304 81.2906 25.3754 80.9906C25.8254 80.6856 26.3579 80.5331 26.9729 80.5331C27.5729 80.5331 28.0654 80.6531 28.4504 80.8931C28.8354 81.1331 29.1204 81.4656 29.3054 81.8906C29.4904 82.3156 29.5829 82.8081 29.5829 83.3681C29.5829 83.5831 29.5829 83.8531 29.5829 84.1781C29.5829 84.5031 29.5829 84.8806 29.5829 85.3106V88.6256H27.9629ZM34.4109 88.7831C33.8109 88.7831 33.2834 88.6881 32.8284 88.4981C32.3784 88.3081 32.0284 88.0356 31.7784 87.6806C31.5284 87.3256 31.4034 86.8981 31.4034 86.3981C31.4034 85.8631 31.5434 85.4206 31.8234 85.0706C32.1084 84.7206 32.4984 84.4506 32.9934 84.2606C33.4934 84.0656 34.0609 83.9381 34.6959 83.8781C35.6409 83.7831 36.3059 83.6906 36.6909 83.6006C37.0809 83.5106 37.2759 83.3631 37.2759 83.1581C37.2759 83.1531 37.2759 83.1481 37.2759 83.1431C37.2759 82.7381 37.1034 82.4306 36.7584 82.2206C36.4134 82.0106 35.9209 81.9056 35.2809 81.9056C34.6059 81.9056 34.0834 82.0256 33.7134 82.2656C33.3484 82.5006 33.1659 82.8756 33.1659 83.3906H31.5684C31.5684 82.7806 31.7259 82.2631 32.0409 81.8381C32.3609 81.4131 32.8009 81.0906 33.3609 80.8706C33.9209 80.6456 34.5634 80.5331 35.2884 80.5331C35.9534 80.5331 36.5584 80.6356 37.1034 80.8406C37.6534 81.0406 38.0909 81.3406 38.4159 81.7406C38.7409 82.1406 38.9034 82.6381 38.9034 83.2331C38.9034 83.3381 38.9034 83.4431 38.9034 83.5481C38.9034 83.6481 38.9034 83.7506 38.9034 83.8556V87.0356C38.9034 87.2206 38.9109 87.4006 38.9259 87.5756C38.9409 87.7456 38.9684 87.8981 39.0084 88.0331C39.0534 88.1881 39.1059 88.3156 39.1659 88.4156C39.2309 88.5156 39.2834 88.5856 39.3234 88.6256H37.7034C37.6734 88.5956 37.6284 88.5331 37.5684 88.4381C37.5134 88.3381 37.4634 88.2231 37.4184 88.0931C37.3734 87.9681 37.3384 87.8256 37.3134 87.6656C37.2934 87.5006 37.2834 87.3231 37.2834 87.1331L37.5834 87.3431C37.4334 87.6331 37.2059 87.8856 36.9009 88.1006C36.6009 88.3156 36.2384 88.4831 35.8134 88.6031C35.3934 88.7231 34.9259 88.7831 34.4109 88.7831ZM34.7484 87.4331C35.2134 87.4331 35.6359 87.3606 36.0159 87.2156C36.4009 87.0656 36.7084 86.8406 36.9384 86.5406C37.1684 86.2356 37.2834 85.8531 37.2834 85.3931V84.0731L37.6659 84.5756C37.3459 84.7006 36.9534 84.8031 36.4884 84.8831C36.0284 84.9581 35.5534 85.0206 35.0634 85.0706C34.3884 85.1306 33.8809 85.2481 33.5409 85.4231C33.2009 85.5931 33.0309 85.8781 33.0309 86.2781C33.0309 86.6631 33.1709 86.9531 33.4509 87.1481C33.7359 87.3381 34.1684 87.4331 34.7484 87.4331ZM42.597 76.9031V88.6256H40.992V76.9031H42.597ZM45.3534 85.2131V83.9456H51.2184L50.9934 84.3206C50.9934 84.2906 50.9934 84.2606 50.9934 84.2306C50.9934 84.1956 50.9934 84.1656 50.9934 84.1406C50.9934 83.7356 50.9059 83.3631 50.7309 83.0231C50.5559 82.6781 50.2934 82.4031 49.9434 82.1981C49.5984 81.9881 49.1659 81.8831 48.6459 81.8831C48.1259 81.8831 47.6684 81.9956 47.2734 82.2206C46.8834 82.4406 46.5784 82.7556 46.3584 83.1656C46.1434 83.5706 46.0359 84.0581 46.0359 84.6281C46.0359 85.2081 46.1409 85.7081 46.3509 86.1281C46.5609 86.5431 46.8634 86.8631 47.2584 87.0881C47.6534 87.3131 48.1259 87.4256 48.6759 87.4256C49.0609 87.4256 49.3934 87.3881 49.6734 87.3131C49.9584 87.2331 50.1909 87.1281 50.3709 86.9981C50.5559 86.8681 50.6959 86.7281 50.7909 86.5781C50.8859 86.4231 50.9409 86.2706 50.9559 86.1206H52.5759C52.5459 86.4456 52.4384 86.7681 52.2534 87.0881C52.0734 87.4031 51.8159 87.6906 51.4809 87.9506C51.1509 88.2056 50.7459 88.4106 50.2659 88.5656C49.7909 88.7156 49.2434 88.7906 48.6234 88.7906C47.7934 88.7906 47.0659 88.6156 46.4409 88.2656C45.8159 87.9156 45.3284 87.4306 44.9784 86.8106C44.6284 86.1856 44.4534 85.4706 44.4534 84.6656C44.4534 83.8456 44.6309 83.1256 44.9859 82.5056C45.3409 81.8856 45.8334 81.4031 46.4634 81.0581C47.0934 80.7081 47.8159 80.5331 48.6309 80.5331C49.4609 80.5331 50.1784 80.7081 50.7834 81.0581C51.3934 81.4081 51.8634 81.8906 52.1934 82.5056C52.5234 83.1206 52.6884 83.8281 52.6884 84.6281C52.6884 84.7231 52.6859 84.8331 52.6809 84.9581C52.6759 85.0831 52.6684 85.1681 52.6584 85.2131H45.3534Z" fill="black"/>
<path d="M39.5005 34.0737L40.7321 36.3479C41.4302 37.6413 42.1583 38.9197 42.8228 40.228C43.9309 42.4086 42.688 44.8194 40.2548 45.0571C38.6582 45.2143 37.0372 45.1245 35.4276 45.1432C35.1299 45.1432 34.8323 45.1432 34.4561 45.1432V45.9649C34.4561 49.1468 34.4262 52.3176 34.4655 55.492C34.4898 57.4031 33.8122 58.9023 32.0435 59.6978C30.2747 60.4933 28.6257 60.0853 27.3641 58.8312C26.4507 59.2467 25.6346 59.8214 24.7437 59.9861C22.1101 60.4727 19.9352 58.5355 19.9165 55.7878C19.894 52.544 19.9165 49.2985 19.9165 46.0547V45.1451H17.3522C16.3714 45.1451 15.3906 45.1769 14.4117 45.1338C11.8175 45.0215 10.3538 42.5134 11.5498 40.2187C12.5175 38.3469 13.5413 36.5238 14.5446 34.6764C14.6531 34.4762 14.743 34.2665 14.7935 34.1617C14.0448 33.8529 13.2512 33.6657 12.6167 33.2446C10.9471 32.1365 10.496 29.823 11.6153 28.0879C13.7092 24.8124 15.8448 21.5587 18.0223 18.3268C19.1453 16.6628 20.697 15.4799 22.5144 14.6357L23.076 14.3699C20.624 12.6405 19.3325 10.3644 19.4336 7.39398C19.4601 6.38683 19.6912 5.39559 20.1127 4.48049C20.5342 3.5654 21.1374 2.74555 21.8855 2.07076C22.6397 1.37162 23.5252 0.829231 24.4907 0.475068C25.4561 0.120905 26.4823 -0.0379757 27.5097 0.00764601C28.537 0.0532677 29.5451 0.302483 30.4754 0.740829C31.4056 1.17918 32.2396 1.79792 32.9288 2.56116C35.7046 5.62519 35.8524 11.1599 31.3172 14.3531C31.4329 14.4265 31.5522 14.4939 31.6747 14.5553C33.7845 15.4794 35.5698 17.0131 36.8014 18.9595C38.6451 21.797 40.3989 24.6982 42.3811 27.4366C44.4755 30.3097 42.8958 33.7874 39.5005 34.0737ZM27.147 43.1966H39.5454C41.1438 43.1966 41.6997 42.2776 40.9436 40.8756C39.2278 37.6937 37.5089 34.5148 35.7869 31.3391C34.5048 28.9601 33.2152 26.5849 31.9779 24.1835C31.9019 24.0001 31.8628 23.8036 31.8628 23.6051C31.8628 23.4066 31.9019 23.2101 31.9779 23.0267C32.0771 22.804 32.5919 22.5869 32.8464 22.6524C33.2072 22.7805 33.5092 23.0352 33.6962 23.3693C35.0869 25.8474 36.4364 28.3481 37.8028 30.8394C38.4448 32.0111 39.609 32.4098 40.5992 31.8052C41.5893 31.2006 41.7821 30.0046 41.0708 28.9208C39.0606 25.8587 37.0691 22.7834 35.0102 19.7493C31.1562 14.0742 23.1302 14.1117 19.3044 19.8148C17.3035 22.7984 15.3476 25.8138 13.3804 28.8198C12.6522 29.9297 12.875 31.1407 13.8932 31.7359C14.9114 32.3311 15.9521 31.9774 16.6091 30.7739C17.9605 28.3013 19.3044 25.8231 20.6614 23.3524C20.9983 22.7385 21.543 22.5438 22.0521 22.8134C22.5612 23.0829 22.6923 23.6351 22.3647 24.2696C21.893 25.1811 21.4176 26.0889 20.9291 26.9911C18.4259 31.5993 15.9209 36.2069 13.414 40.8139C12.641 42.2364 13.2082 43.1891 14.8253 43.191L27.147 43.1966ZM27.1882 13.5333C28.338 13.5332 29.4619 13.1916 30.4172 12.5516C31.3725 11.9117 32.1161 11.0024 32.5537 9.9391C32.9913 8.87579 33.1031 7.70645 32.8749 6.57949C32.6468 5.45253 32.0889 4.41877 31.2722 3.60942C30.4554 2.80006 29.4167 2.25162 28.2877 2.03368C27.1587 1.81575 25.9904 1.93816 24.9311 2.38538C23.8718 2.83259 22.9693 3.58445 22.3381 4.54552C21.7068 5.50658 21.3754 6.63353 21.3858 7.7833C21.3996 9.31115 22.0154 10.7719 23.0997 11.8484C24.1839 12.925 25.649 13.5304 27.1769 13.5333H27.1882ZM28.2682 45.1862C28.2365 45.2512 28.2127 45.3197 28.197 45.3903C28.197 48.9803 28.1764 52.5702 28.197 56.1602C28.197 57.0381 28.8559 57.798 29.7057 58.0582C31.1282 58.4906 32.5133 57.4742 32.5133 55.9263C32.5357 52.4748 32.5226 49.0252 32.5133 45.5756C32.5015 45.4437 32.477 45.3134 32.4403 45.1862H28.2682ZM21.8631 45.1862C21.8481 45.3416 21.8294 45.4314 21.8294 45.5213C21.8294 48.9466 21.8181 52.3737 21.8294 55.799C21.8251 56.0912 21.8793 56.3814 21.9887 56.6525C22.098 56.9235 22.2604 57.17 22.4663 57.3774C22.6722 57.5849 22.9175 57.7492 23.1877 57.8606C23.4579 57.972 23.7476 58.0284 24.0399 58.0264C25.2621 58.0039 26.1774 57.0343 26.1793 55.741C26.1793 52.4068 26.1793 49.0738 26.1793 45.7421C26.1793 45.555 26.1512 45.3865 26.1362 45.1806L21.8631 45.1862Z" fill="black"/>
</svg>
