<svg width="84" height="112" viewBox="0 0 84 112" fill="none" xmlns="http://www.w3.org/2000/svg">
<path d="M34.2734 9.6612C34.2293 9.65951 34.1869 9.6438 34.1524 9.61635C34.1179 9.58891 34.0931 9.55116 34.0815 9.50861C34.07 9.46605 34.0723 9.42093 34.0882 9.3798C34.1041 9.33867 34.1327 9.3037 34.1699 9.27997L37.236 7.51544C37.3133 7.45357 37.4093 7.41986 37.5083 7.41986C37.6073 7.41986 37.7034 7.45357 37.7806 7.51544C37.8102 7.53965 37.8335 7.57057 37.8486 7.60563C37.8638 7.64068 37.8704 7.67884 37.8678 7.71694C37.8678 7.91845 37.8678 7.94023 34.3823 9.65575C34.3473 9.66813 34.3094 9.67003 34.2734 9.6612Z" fill="black" fill-opacity="0.1"/>
<path d="M14.7709 3.81207C14.7317 3.81226 14.6934 3.80102 14.6605 3.77974C14.6276 3.75846 14.6016 3.72806 14.5858 3.69225L13.0881 0.288454C13.0674 0.238428 13.0665 0.182381 13.0858 0.131768C13.105 0.081156 13.1429 0.0397992 13.1916 0.0161502C13.2416 -0.00455878 13.2976 -0.00538095 13.3482 0.0138518C13.3989 0.0330845 13.4402 0.0709201 13.4639 0.119626L14.9561 3.50709C14.9782 3.55695 14.9797 3.61353 14.9604 3.66453C14.941 3.71552 14.9023 3.7568 14.8526 3.77939C14.8279 3.79573 14.8001 3.80685 14.7709 3.81207Z" fill="black" fill-opacity="0.1"/>
<path d="M4.70655 11.3549H4.66299L1.29731 10.6469C1.20995 10.6404 1.12639 10.6086 1.05677 10.5554C0.987159 10.5022 0.934497 10.43 0.905191 10.3474C0.893985 10.3074 0.893628 10.2651 0.904156 10.2249C0.914683 10.1847 0.935717 10.1481 0.965098 10.1187C1.0958 9.99341 1.18294 9.90628 4.77735 10.9356C4.82767 10.9508 4.8703 10.9846 4.8966 11.0301C4.9229 11.0756 4.93089 11.1295 4.91895 11.1807C4.91216 11.2312 4.88647 11.2773 4.84706 11.3096C4.80764 11.3419 4.75744 11.3581 4.70655 11.3549Z" fill="black" fill-opacity="0.1"/>
<path d="M0.224454 24.5072C0.181801 24.5111 0.138988 24.5017 0.101921 24.4802C0.0648545 24.4588 0.0353589 24.4263 0.0175027 24.3874C0.00665501 24.3631 0.000727675 24.3369 6.28926e-05 24.3103C-0.00060189 24.2837 0.00400905 24.2572 0.0136295 24.2324C0.02325 24.2076 0.0376895 24.1849 0.0561145 24.1657C0.0745394 24.1465 0.0965849 24.1312 0.120978 24.1205L3.61736 22.5847C3.64154 22.5731 3.66785 22.5666 3.69466 22.5655C3.72147 22.5645 3.74821 22.5689 3.77322 22.5786C3.79824 22.5883 3.821 22.6031 3.84009 22.6219C3.85918 22.6408 3.8742 22.6633 3.88422 22.6882C3.89507 22.7125 3.901 22.7387 3.90166 22.7653C3.90232 22.7919 3.89771 22.8184 3.88809 22.8432C3.87847 22.868 3.86403 22.8907 3.84561 22.9099C3.82718 22.9291 3.80514 22.9444 3.78074 22.9551L0.306145 24.5072C0.279158 24.5124 0.251441 24.5124 0.224454 24.5072Z" fill="black" fill-opacity="0.1"/>
<path d="M25.0695 3.73038C25.0443 3.73551 25.0184 3.73551 24.9932 3.73038C24.9685 3.72075 24.946 3.70635 24.9268 3.68799C24.9077 3.66963 24.8924 3.64769 24.8818 3.6234C24.8712 3.59912 24.8654 3.57298 24.8649 3.54648C24.8644 3.51998 24.8692 3.49364 24.8788 3.46897L26.0933 0.244888C26.1024 0.219707 26.1164 0.196591 26.1346 0.176889C26.1527 0.157187 26.1746 0.141295 26.1989 0.13014C26.2232 0.118986 26.2495 0.112793 26.2763 0.111923C26.3031 0.111053 26.3297 0.115524 26.3547 0.125074C26.4051 0.145729 26.4456 0.184932 26.4679 0.23459C26.4902 0.284248 26.4926 0.340571 26.4746 0.391932L25.2437 3.59967C25.2297 3.63551 25.206 3.66672 25.1752 3.68981C25.1444 3.7129 25.1078 3.72695 25.0695 3.73038Z" fill="black" fill-opacity="0.1"/>
<path d="M38.6847 22.0292C38.6596 22.0348 38.6335 22.0348 38.6084 22.0292L35.2155 20.6731C35.1902 20.6635 35.167 20.6489 35.1474 20.6302C35.1279 20.6114 35.1123 20.5889 35.1016 20.564C35.0909 20.5391 35.0854 20.5123 35.0853 20.4852C35.0852 20.4581 35.0906 20.4312 35.1012 20.4063C35.1217 20.356 35.1612 20.3158 35.2112 20.2944C35.2611 20.273 35.3174 20.2721 35.368 20.2919L38.7555 21.648C38.7808 21.6576 38.804 21.6722 38.8236 21.6909C38.8432 21.7097 38.8587 21.7322 38.8694 21.7571C38.8801 21.782 38.8856 21.8088 38.8857 21.8359C38.8858 21.863 38.8804 21.8899 38.8698 21.9148C38.8543 21.9505 38.8283 21.9806 38.7952 22.001C38.7621 22.0215 38.7235 22.0313 38.6847 22.0292Z" fill="black" fill-opacity="0.1"/>
<path d="M65.011 91.75C64.9585 91.7515 64.9074 91.7324 64.8688 91.6967C64.8301 91.6611 64.8069 91.6118 64.8041 91.5593C64.734 90.3795 64.2158 89.2709 63.3554 88.4605C62.9133 88.0199 62.3398 87.735 61.7216 87.6491C61.128 87.6361 60.5394 87.7591 60.0006 88.0085C59.0882 88.2783 58.2877 88.8362 57.7187 89.5988C57.6855 89.6434 57.637 89.6744 57.5826 89.6859C57.555 89.6905 57.5269 89.6895 57.4997 89.683C57.4726 89.6764 57.447 89.6644 57.4246 89.6478C55.9291 88.5429 54.5867 87.2445 53.4327 85.7865C53.4164 85.7662 53.4042 85.7429 53.3971 85.7178C53.3899 85.6928 53.3877 85.6666 53.3908 85.6408C53.3938 85.6149 53.402 85.5899 53.4148 85.5673C53.4276 85.5446 53.4448 85.5247 53.4653 85.5087C54.4896 84.6444 55.1857 83.4542 55.4368 82.1376C55.5403 81.7265 55.5403 81.2961 55.4368 80.885C55.2848 80.5304 55.0612 80.211 54.7801 79.9467C54.4989 79.6825 54.1663 79.4791 53.803 79.3492C52.9829 78.9565 52.1094 78.6868 51.2107 78.5487C51.1566 78.5406 51.1079 78.5114 51.0752 78.4675C51.0425 78.4236 51.0286 78.3686 51.0364 78.3145C51.3725 76.2966 51.9201 74.3196 52.6702 72.4164C52.6898 72.3664 52.7279 72.326 52.7767 72.3036C52.8255 72.2813 52.881 72.2788 52.9316 72.2966C53.9827 72.6723 56.6186 72.705 57.6915 71.4252C59.4724 69.3067 58.6282 66.8832 58.3287 66.1915C58.3081 66.1437 58.3068 66.0898 58.3251 66.0411C58.3434 65.9923 58.3798 65.9526 58.4267 65.9301C59.8753 65.3301 61.3639 64.8315 62.8816 64.4379L64.5536 63.9477C64.5885 63.938 64.6254 63.9374 64.6607 63.946C64.696 63.9545 64.7285 63.972 64.7551 63.9967C64.7795 64.0236 64.7971 64.0559 64.8066 64.0909C64.8161 64.1259 64.8171 64.1627 64.8095 64.1982C64.6843 64.6448 65.719 66.4801 67.2112 67.2426C70.7131 69.0398 72.9351 66.796 73.5341 66.0662C73.5504 66.0423 73.5724 66.0228 73.598 66.0095C73.6237 65.9962 73.6523 65.9895 73.6812 65.99C73.7095 65.9876 73.738 65.9918 73.7644 66.0022C73.7909 66.0126 73.8146 66.0289 73.8337 66.0499C75.4479 67.6661 76.9235 69.415 78.245 71.2781C78.2757 71.3219 78.2883 71.3757 78.2802 71.4285C78.272 71.4813 78.2438 71.5289 78.2014 71.5613C77.4633 72.1109 76.8961 72.8585 76.5654 73.7173C76.2348 74.5762 76.1544 75.5111 76.3334 76.4138C76.5633 77.3226 77.0343 78.1524 77.6967 78.8157C78.3591 79.4791 79.1882 79.9513 80.0967 80.1825C80.1513 80.197 80.1982 80.2321 80.2274 80.2805C80.238 80.3055 80.2435 80.3323 80.2435 80.3595C80.2435 80.3866 80.238 80.4135 80.2274 80.4384C79.664 82.4003 78.859 84.2845 77.8311 86.0479C77.8051 86.0898 77.7651 86.121 77.7182 86.1359C77.6713 86.1509 77.6205 86.1487 77.5751 86.1296C76.2408 85.5523 74.9392 85.0676 73.7629 85.4815C73.2862 85.673 72.8578 85.9676 72.5085 86.3443C72.1591 86.7209 71.8975 87.1702 71.7424 87.66C71.4659 88.5107 71.2957 89.3924 71.2359 90.285C71.2359 90.481 71.1923 90.6771 71.1651 90.8786C71.1603 90.9205 71.1425 90.9599 71.1142 90.9912C71.0859 91.0224 71.0484 91.044 71.0072 91.0529C69.0359 91.47 67.0307 91.707 65.0165 91.7608L65.011 91.75ZM61.5582 87.2352C61.638 87.2298 61.7181 87.2298 61.7978 87.2352C62.4966 87.3291 63.1442 87.6529 63.6386 88.1555C64.5257 88.9884 65.081 90.1144 65.2016 91.3252C67.069 91.2639 68.9275 91.0416 70.7566 90.6607L70.8057 90.2196C70.8722 89.2927 71.0552 88.3778 71.3503 87.4966C71.5292 86.9542 71.8248 86.4577 72.2162 86.0418C72.6076 85.6259 73.0853 85.3009 73.6158 85.0894C74.9066 84.6483 76.279 85.1221 77.5915 85.6776C78.5354 84.046 79.2901 82.312 79.8407 80.5092C78.9032 80.234 78.054 79.7183 77.3775 79.0132C76.7011 78.3081 76.221 77.4382 75.9849 76.49C75.7964 75.5439 75.8702 74.5642 76.1985 73.6571C76.5268 72.7499 77.0971 71.9498 77.8474 71.3435C76.6101 69.6191 75.2389 67.9948 73.7465 66.4856C72.9347 67.4147 71.8245 68.0317 70.6068 68.2305C69.3891 68.4293 68.1402 68.1975 67.0751 67.5748C65.6863 66.8668 64.5862 65.2548 64.4555 64.3834L63.045 64.7973C61.6146 65.1775 60.2072 65.6393 58.8297 66.1806C59.2033 67.0739 59.3286 68.0515 59.1925 69.0101C59.0563 69.9687 58.6638 70.8727 58.0564 71.6267C56.9073 72.9991 54.2986 73.0427 53.0296 72.6832C52.3413 74.4437 51.8287 76.268 51.4993 78.1293C52.3671 78.293 53.2082 78.5752 53.9991 78.968C54.4109 79.1217 54.7862 79.3594 55.1013 79.666C55.4163 79.9726 55.6641 80.3414 55.8289 80.7489C55.9616 81.2211 55.9747 81.719 55.8671 82.1975C55.6128 83.5439 54.9218 84.769 53.901 85.683C54.9632 86.9918 56.1812 88.166 57.5281 89.1794C58.1464 88.4438 58.963 87.9013 59.8808 87.6164C60.4117 87.3872 60.9804 87.258 61.5582 87.2352Z" fill="black" fill-opacity="0.1"/>
<g opacity="0.13">
<path d="M73.142 77.6065C73.0712 77.3941 73.0004 77.1817 72.9241 76.9693C72.788 76.5771 72.6246 76.1905 72.4994 75.7929H72.4286C71.9929 75.9835 72.227 76.2994 72.2434 76.6915C72.2597 77.0836 72.3741 77.4649 72.4231 77.8515C72.4749 78.2396 72.4858 78.6321 72.4558 79.0224V79.0551C72.4013 79.273 72.3033 79.4745 72.2434 79.6923C72.0927 80.3777 71.7954 81.0224 71.372 81.5821C71.3313 81.629 71.2931 81.6781 71.2576 81.7291C71.2195 81.7999 71.0725 82.0014 71.0289 82.0668L71.0017 82.0995L70.9363 82.1866C70.871 82.2792 70.5497 82.6005 70.5497 82.6114C70.1085 82.9491 70.1521 82.9436 69.6728 83.2922C69.3148 83.5266 68.9398 83.7341 68.5509 83.913C67.987 84.189 67.3784 84.3623 66.7537 84.4249C66.1829 84.4414 65.6116 84.4195 65.0437 84.3596C64.3871 84.2458 63.7618 83.9953 63.2083 83.6244C62.9796 83.4937 62.7672 83.2159 62.484 83.2704C62.6855 83.4937 62.887 83.7115 63.0994 83.9294C63.3118 84.1472 63.644 84.474 63.9109 84.7408C64.7761 85.0867 65.7024 85.2534 66.6339 85.231C67.1654 85.2289 67.695 85.1687 68.2133 85.0512C69.1266 84.8021 69.9767 84.3622 70.7076 83.7605C71.27 83.3043 71.7912 82.7995 72.2652 82.252C72.8364 81.2981 73.1568 80.2152 73.1964 79.1041C73.2224 78.6043 73.2041 78.1031 73.142 77.6065Z" fill="black" fill-opacity="0.1"/>
</g>
<g opacity="0.13">
<path d="M80.113 80.471C80.0944 80.4088 80.0582 80.3533 80.0087 80.3111C79.9593 80.269 79.8988 80.242 79.8344 80.2333C79.77 80.2247 79.7045 80.2348 79.6457 80.2625C79.587 80.2902 79.5374 80.3342 79.5031 80.3894C78.904 81.4404 78.2995 82.497 77.6677 83.5317C77.3662 83.9231 77.1001 84.3404 76.8726 84.7789C76.7985 84.8895 76.7467 85.0134 76.7201 85.1438C76.7094 85.2346 76.724 85.3267 76.7623 85.4098C76.8007 85.4928 76.8612 85.5636 76.9374 85.6144C77.0135 85.6651 77.1022 85.6938 77.1936 85.6973C77.285 85.7007 77.3756 85.6788 77.4553 85.6339C77.57 85.5577 77.6577 85.4471 77.7058 85.3181C77.761 85.2639 77.812 85.2057 77.8583 85.1438C78.4737 84.2452 78.7787 83.1723 79.3016 82.2192L80.0803 80.727C80.1231 80.6488 80.1347 80.5574 80.113 80.471Z" fill="black" fill-opacity="0.1"/>
</g>
<g opacity="0.13">
<path d="M70.2992 89.7621C70.0596 89.739 69.818 89.7764 69.5966 89.871C68.1774 90.2497 66.7038 90.3823 65.2398 90.2631C65.078 90.2631 64.9229 90.3274 64.8085 90.4417C64.6941 90.5561 64.6298 90.7113 64.6298 90.8731C64.6298 91.0348 64.6941 91.19 64.8085 91.3044C64.9229 91.4188 65.078 91.483 65.2398 91.483C66.5952 91.5799 67.9575 91.4845 69.2862 91.1998C69.5966 91.129 69.9071 91.0582 70.2121 90.9711C70.3076 90.9553 70.3987 90.9195 70.4795 90.866C70.5602 90.8125 70.6287 90.7425 70.6804 90.6607C70.7269 90.5785 70.7538 90.4868 70.7591 90.3926C70.7645 90.2984 70.7481 90.2043 70.7112 90.1174C70.6744 90.0306 70.6181 89.9533 70.5466 89.8917C70.4752 89.8301 70.3905 89.7857 70.2992 89.7621Z" fill="black" fill-opacity="0.1"/>
</g>
<path d="M66.2473 82.3119C65.544 82.314 64.8498 82.1528 64.2195 81.8409C63.5891 81.529 63.0398 81.0751 62.6148 80.5147C62.2751 80.0693 62.0439 79.551 61.9394 79.0007C61.8675 78.4542 61.9045 77.8989 62.0484 77.3669C62.3463 76.0461 63.1222 74.8822 64.2268 74.0992C64.7895 73.715 65.443 73.4846 66.1223 73.4311C66.8016 73.3776 67.483 73.5028 68.099 73.7942C68.8212 74.1912 69.4282 74.7686 69.8606 75.4702C70.293 76.1718 70.5361 76.9735 70.566 77.7971C70.5831 78.7338 70.3065 79.6523 69.7752 80.4238C69.2439 81.1954 68.4845 81.7813 67.6034 82.0995C67.1658 82.2432 66.7078 82.3149 66.2473 82.3119ZM66.4815 73.8215C65.7589 73.8246 65.0529 74.0385 64.4501 74.4369C63.4314 75.1573 62.7171 76.2307 62.4459 77.4486C62.3103 77.93 62.275 78.4342 62.3425 78.9299C62.4353 79.4186 62.6404 79.8791 62.9415 80.2751C63.4572 80.9516 64.1693 81.4522 64.9803 81.7086C65.7914 81.965 66.6619 81.9646 67.4727 81.7074C68.272 81.4203 68.9611 80.8895 69.4428 80.1899C69.9245 79.4903 70.1745 78.6572 70.1576 77.808C70.1299 77.0566 69.9082 76.3251 69.514 75.6847C69.1199 75.0444 68.5667 74.5169 67.9084 74.1537C67.4592 73.9281 66.9623 73.8141 66.4597 73.8215H66.4815Z" fill="black" fill-opacity="0.1"/>
<path d="M66.2581 84.7027C65.0285 84.6985 63.8268 84.3356 62.8004 83.6584C61.7739 82.9813 60.9675 82.0192 60.4799 80.8904C60.0414 79.8865 59.8512 78.7918 59.9251 77.6988C59.999 76.6059 60.335 75.5468 60.9047 74.6111C61.404 73.7226 62.1103 72.9676 62.9635 72.4102C63.8168 71.8527 64.7919 71.5092 65.8061 71.4088C67.2844 71.2885 68.7618 71.6517 70.0159 72.4435C72.5375 74.0774 72.7826 77.5193 72.739 78.2763C72.5266 80.4166 71.8349 81.9796 70.615 83.0416C69.4085 84.0992 67.8625 84.6886 66.2581 84.7027ZM66.4052 71.8009C66.2231 71.8003 66.0413 71.8112 65.8606 71.8336C64.9038 71.9194 63.9827 72.2383 63.1776 72.7624C62.3725 73.2864 61.7081 73.9997 61.2423 74.8398C60.7053 75.72 60.3887 76.7168 60.3195 77.7456C60.2503 78.7743 60.4305 79.8046 60.8447 80.7488C61.2736 81.6831 61.931 82.4943 62.7563 83.1073C63.5816 83.7203 64.5481 84.1154 65.5665 84.2561C66.4215 84.3473 67.2861 84.2609 68.1061 84.0022C68.9262 83.7436 69.6839 83.3182 70.3318 82.753C71.4646 81.7563 72.1181 80.2859 72.3142 78.2545C72.4068 77.3014 71.9874 74.2353 69.8035 72.8084C68.7869 72.1622 67.6098 71.8133 66.4052 71.8009Z" fill="black" fill-opacity="0.1"/>
<path d="M52.0548 110.337C51.5661 110.338 51.078 110.3 50.5953 110.223C50.5508 110.217 50.5098 110.196 50.4791 110.163C50.4484 110.13 50.4298 110.088 50.4265 110.043V109.934C50.3841 109.342 50.2763 108.755 50.1051 108.186C49.3347 108.029 48.5827 107.792 47.8614 107.478L47.7361 107.429C47.2351 107.941 46.8811 108.311 46.3691 108.851C46.332 108.885 46.2834 108.904 46.233 108.904C46.1826 108.904 46.134 108.885 46.0968 108.851C45.1244 108.127 44.3599 107.159 43.8803 106.046C43.8636 106.006 43.8604 105.961 43.8712 105.919C43.882 105.877 43.9062 105.839 43.9402 105.812C44.2299 105.557 44.5028 105.285 44.7571 104.995C44.9586 104.766 45.1655 104.537 45.4215 104.287C45.0722 103.506 44.8216 102.684 44.6754 101.842C44.4412 101.842 44.2234 101.842 44.0164 101.814C43.5862 101.814 43.1777 101.814 42.6222 101.716C42.5731 101.71 42.528 101.686 42.495 101.649C42.462 101.612 42.4434 101.564 42.4425 101.515C42.4965 100.019 42.9973 98.5735 43.8803 97.3649C43.9083 97.3208 43.9524 97.2894 44.0032 97.2772C44.054 97.265 44.1076 97.273 44.1526 97.2995C44.5154 97.4997 44.888 97.6814 45.269 97.8441C45.5903 97.9912 45.9225 98.1437 46.282 98.3343C46.7929 97.757 47.3385 97.2113 47.9158 96.7004L48.0901 96.5425C47.8286 95.9294 47.6191 95.2954 47.4638 94.6473C47.4526 94.6031 47.4568 94.5564 47.4756 94.5148C47.4943 94.4733 47.5267 94.4393 47.5673 94.4185C48.7044 93.8635 49.9237 93.4957 51.178 93.3293C51.2284 93.3211 51.28 93.3322 51.3224 93.3605C51.3649 93.3888 51.395 93.4322 51.4068 93.4818C51.6017 94.2731 51.7508 95.075 51.8533 95.8835C52.6824 95.9637 53.4983 96.1466 54.2823 96.4281C54.8269 95.84 55.3715 95.2355 56.0577 94.62C56.0958 94.5856 56.1453 94.5665 56.1966 94.5665C56.2479 94.5665 56.2974 94.5856 56.3355 94.62C57.1054 95.3353 57.794 96.1335 58.3886 97C58.552 97.2342 58.7045 97.4792 58.857 97.7134C58.95 97.8324 59.0051 97.9766 59.0149 98.1273C59.014 98.1554 59.0073 98.183 58.9951 98.2083C58.9829 98.2337 58.9655 98.2561 58.9441 98.2744C58.6975 98.488 58.4393 98.688 58.1708 98.8734C57.8768 99.0746 57.595 99.2928 57.3266 99.527C57.3593 99.772 57.3974 100.072 57.4356 100.366C57.5118 100.954 57.5989 101.618 57.6371 102.098C57.87 102.245 58.1161 102.371 58.3723 102.473C58.7823 102.635 59.1688 102.851 59.5214 103.116C59.5523 103.14 59.5759 103.172 59.5894 103.208C59.6029 103.245 59.6058 103.285 59.5977 103.323C59.3738 104.448 58.9114 105.512 58.2416 106.443C58.2168 106.479 58.1811 106.506 58.1399 106.52C58.0987 106.533 58.0541 106.533 58.0128 106.52L57.4682 106.34C57.0809 106.194 56.6819 106.081 56.2755 106.002C55.7616 106.675 55.1567 107.272 54.4783 107.778C54.5564 108.15 54.5965 108.53 54.5982 108.911C54.5982 109.183 54.6254 109.455 54.669 109.815C54.6745 109.865 54.6616 109.916 54.6326 109.958C54.6036 110 54.5604 110.031 54.511 110.043C53.7064 110.236 52.8822 110.335 52.0548 110.337ZM50.8131 109.842C51.9551 109.997 53.1158 109.943 54.2387 109.684C54.206 109.401 54.1951 109.139 54.1897 108.927C54.184 108.529 54.1366 108.133 54.0481 107.745C54.0377 107.705 54.0395 107.663 54.053 107.625C54.0666 107.586 54.0914 107.552 54.1243 107.527C54.8485 107.006 55.4893 106.378 56.025 105.665C56.0481 105.634 56.0791 105.61 56.1145 105.596C56.15 105.582 56.1887 105.577 56.2265 105.583C56.6977 105.668 57.1606 105.793 57.6098 105.959L58.002 106.089C58.5656 105.267 58.9634 104.342 59.1729 103.366C58.8753 103.156 58.5535 102.982 58.2144 102.849C57.9014 102.725 57.6036 102.566 57.3266 102.375C57.3037 102.358 57.2847 102.335 57.2706 102.31C57.2566 102.285 57.2478 102.257 57.245 102.228C57.2123 101.754 57.1197 101.041 57.038 100.42C56.989 100.066 56.9454 99.7339 56.9182 99.4671C56.9133 99.4348 56.9167 99.4019 56.9281 99.3714C56.9396 99.3409 56.9587 99.3138 56.9835 99.2928C57.2851 99.0202 57.6054 98.7691 57.942 98.5412C58.149 98.3887 58.3505 98.2471 58.5847 98.0456C58.565 98.0064 58.5431 97.9682 58.5193 97.9313C58.3668 97.7025 58.2144 97.4629 58.0564 97.2342C57.5167 96.444 56.8941 95.7137 56.1993 95.0557C55.5676 95.6493 55.0229 96.2375 54.4947 96.8094C54.4679 96.8408 54.4319 96.863 54.3918 96.8727C54.3518 96.8825 54.3096 96.8794 54.2714 96.8638C53.433 96.5387 52.553 96.3334 51.6573 96.2539C51.6103 96.2503 51.566 96.2304 51.5321 96.1975C51.4983 96.1647 51.4771 96.121 51.4721 96.0741C51.3805 95.2878 51.2423 94.5077 51.0582 93.7378C49.9658 93.9037 48.9034 94.2285 47.9049 94.7017C48.0556 95.2892 48.2504 95.8645 48.4877 96.4227L48.5258 96.5207C48.5414 96.5589 48.5445 96.6011 48.5347 96.6412C48.5249 96.6813 48.5027 96.7173 48.4713 96.744L48.199 97C47.5942 97.5248 47.0281 98.0927 46.5053 98.6992C46.4753 98.7363 46.4332 98.7616 46.3863 98.7706C46.3394 98.7796 46.2909 98.7716 46.2493 98.7482C45.8517 98.5249 45.476 98.3615 45.1165 98.2036C44.7571 98.0456 44.4739 97.9149 44.1308 97.7298C43.3981 98.784 42.9635 100.016 42.8727 101.297C43.3193 101.346 43.6733 101.357 44.0491 101.368C44.3051 101.368 44.5937 101.368 44.8878 101.406C44.9352 101.408 44.9801 101.428 45.0141 101.461C45.0482 101.494 45.0691 101.538 45.073 101.586C45.203 102.508 45.4596 103.408 45.8354 104.26C45.8532 104.298 45.8585 104.342 45.8507 104.384C45.8429 104.426 45.8223 104.464 45.7918 104.494C45.4978 104.766 45.2472 105.038 45.0403 105.273C44.8088 105.54 44.5614 105.792 44.2996 106.03C44.7308 106.964 45.3764 107.783 46.184 108.42C46.6578 107.914 47.0172 107.549 47.5237 107.032C47.5524 107.003 47.5886 106.983 47.6282 106.975C47.6677 106.966 47.709 106.969 47.747 106.983L47.9921 107.081C48.7226 107.403 49.4884 107.639 50.274 107.783C50.3126 107.789 50.3489 107.805 50.3788 107.83C50.4087 107.855 50.4308 107.888 50.4428 107.925C50.6394 108.548 50.7636 109.191 50.8131 109.842ZM51.4176 104.761C50.7156 104.704 50.0446 104.447 49.4843 104.02C48.9111 103.608 48.5206 102.989 48.3951 102.294C48.3386 101.862 48.376 101.424 48.5048 101.008C48.6335 100.593 48.8506 100.21 49.1412 99.8864C49.4048 99.5468 49.7524 99.2817 50.1497 99.1175C50.547 98.9532 50.9803 98.8954 51.4068 98.9497C52.1048 99.0104 52.7705 99.2713 53.3238 99.7012C53.7021 100.042 53.9816 100.478 54.1331 100.964C54.2845 101.45 54.3022 101.967 54.1843 102.462C54.058 102.952 53.8137 103.403 53.4729 103.776C53.1321 104.149 52.705 104.433 52.2291 104.603C51.9696 104.701 51.6952 104.755 51.4176 104.761ZM51.08 99.3255C50.7654 99.3299 50.4558 99.404 50.1733 99.5425C49.8908 99.6809 49.6424 99.8802 49.4462 100.126C49.1933 100.407 49.0036 100.739 48.8899 101.1C48.7763 101.461 48.7412 101.842 48.7872 102.217C48.887 102.797 49.207 103.316 49.6803 103.666C51.0745 104.565 51.5647 104.39 52.0766 104.211C52.4878 104.061 52.8568 103.815 53.1526 103.493C53.4484 103.17 53.6621 102.781 53.7758 102.359C53.8773 101.937 53.8631 101.496 53.7346 101.082C53.6062 100.668 53.3683 100.296 53.046 100.006C52.5483 99.6283 51.9533 99.3998 51.3305 99.3472C51.2511 99.3353 51.1711 99.328 51.0909 99.3255H51.08Z" fill="black" fill-opacity="0.1"/>
<g opacity="0.13">
<path d="M53.2094 108.377H53.1495C53.0623 108.377 52.9044 108.431 52.8173 108.448H52.7138C52.2759 108.483 51.8353 108.467 51.4013 108.399C51.2211 108.35 51.0298 108.361 50.8567 108.431C50.7038 108.499 50.5753 108.612 50.4886 108.755C50.4018 108.898 50.3611 109.064 50.3718 109.231C50.3824 109.398 50.4441 109.557 50.5483 109.688C50.6526 109.819 50.7944 109.914 50.9547 109.962C51.7017 110.117 52.4695 110.144 53.2257 110.043L53.4926 110C53.6877 110.025 53.8858 109.986 54.0562 109.888C54.2266 109.789 54.3597 109.637 54.4348 109.455C54.4918 109.29 54.4984 109.111 54.4536 108.942C54.4089 108.773 54.3149 108.621 54.1835 108.505C54.0522 108.39 53.8895 108.316 53.716 108.293C53.5425 108.27 53.3662 108.299 53.2094 108.377Z" fill="black" fill-opacity="0.1"/>
</g>
<g opacity="0.13">
<path d="M59.4343 103.323C59.4023 103.132 59.3003 102.959 59.1482 102.84C58.996 102.72 58.8046 102.661 58.6114 102.674C58.4182 102.688 58.2369 102.773 58.1031 102.913C57.9692 103.053 57.8924 103.238 57.8876 103.432C57.8876 103.486 57.8494 103.546 57.8277 103.601C57.8059 103.655 57.7569 103.753 57.7242 103.808C57.5512 104.123 57.3527 104.423 57.1306 104.706C56.925 104.921 56.7425 105.156 56.586 105.409C56.5362 105.559 56.5368 105.722 56.5878 105.872C56.6387 106.022 56.7371 106.152 56.8682 106.241C56.9993 106.33 57.1558 106.374 57.3142 106.367C57.4726 106.359 57.6241 106.3 57.746 106.198C58.2931 105.617 58.7651 104.969 59.1511 104.27C59.3274 103.985 59.4251 103.658 59.4343 103.323Z" fill="black" fill-opacity="0.1"/>
</g>
<path d="M19.0788 36.2326C18.7961 36.2327 18.5139 36.2109 18.2346 36.1672C17.6066 36.0461 16.9957 35.8486 16.4156 35.5791C16.2595 35.5084 16.0995 35.4466 15.9364 35.3939C15.8959 35.4071 15.8526 35.4089 15.8111 35.3993C15.7741 35.384 15.7421 35.3584 15.719 35.3256C15.6959 35.2929 15.6825 35.2542 15.6804 35.2142C15.6128 33.317 15.1294 31.4579 14.2644 29.7681C13.5192 28.4256 12.6591 27.1501 11.6939 25.9558C10.6508 24.6624 9.73861 23.2687 8.97086 21.795C8.21251 20.1631 7.8854 18.3639 8.02079 16.5694C8.15619 14.7749 8.74956 13.0452 9.7442 11.5455C12.4237 7.76048 17.1236 6.2628 20.5928 6.45886C23.8604 6.63858 29.6224 7.83128 31.5176 13.7675C33.2549 19.2136 30.0526 23.4071 27.9341 26.1846C27.5311 26.7292 27.1499 27.2084 26.8449 27.6441L26.1587 28.6135C25.1239 30.0949 24.0565 31.6252 23.8931 33.3843C23.8931 33.4551 23.8931 33.5313 23.8931 33.6076C23.9011 34.0783 23.7786 34.542 23.5391 34.9473C23.0814 35.4633 22.4449 35.7864 21.7583 35.8514C20.8814 36.0742 19.983 36.202 19.0788 36.2326ZM16.0725 35.0072C16.2432 35.0629 16.4105 35.1284 16.5736 35.2033C17.1233 35.4533 17.7011 35.6362 18.2945 35.7479C19.4224 35.8486 20.5591 35.7434 21.6493 35.4375C22.2345 35.3862 22.7807 35.1228 23.1851 34.6968C23.3761 34.3482 23.4737 33.9561 23.4683 33.5586V33.3298C23.6426 31.4618 24.7427 29.8879 25.8101 28.363C26.028 28.0417 26.2567 27.7149 26.4746 27.3882C26.7686 26.947 27.1553 26.4405 27.5638 25.9068C29.6333 23.1838 32.7593 19.0992 31.0874 13.8655C29.2684 8.16893 23.6916 7.0307 20.5329 6.85643C17.2652 6.67126 12.6143 8.13626 10.0383 11.7579C9.07964 13.1979 8.50619 14.8597 8.3727 16.5845C8.23922 18.3093 8.55016 20.0395 9.27584 21.6099C10.0526 23.056 10.9643 24.4254 11.9989 25.6999C12.9845 26.9174 13.8594 28.2205 14.613 29.5938C15.4755 31.275 15.9712 33.1201 16.0671 35.0072H16.0725Z" fill="black" fill-opacity="0.1"/>
<path d="M19.7977 42.2342H19.3511C15.4626 42.0054 14.9943 39.5111 14.7546 38.4219C14.3512 36.3989 14.2211 34.3309 14.368 32.2733C14.368 32.05 14.368 32.05 16.1706 32.0446H19.6888L24.7918 32.099C24.8457 32.1004 24.8969 32.1229 24.9346 32.1615C24.9722 32.2002 24.9933 32.252 24.9933 32.306C25.0205 34.5463 24.7829 36.782 24.2853 38.9665C24.0347 39.9795 23.1089 42.2342 19.7977 42.2342ZM14.7601 32.4639C14.6399 34.4314 14.7717 36.4062 15.1522 38.3402C15.3591 39.3968 15.7948 41.6079 19.3675 41.8039C22.7386 41.9945 23.6481 39.8161 23.8823 38.8685C24.3591 36.782 24.5948 34.6477 24.5848 32.5075C20.9523 32.4693 15.724 32.4258 14.7601 32.4639Z" fill="black" fill-opacity="0.1"/>
<path d="M21.4097 34.0269C19.4437 34.0269 17.4722 33.9779 15.5225 33.8744C15.5135 33.8744 15.5045 33.8726 15.4962 33.869C15.4879 33.8654 15.4804 33.86 15.4743 33.8534C15.4681 33.8467 15.4634 33.8389 15.4605 33.8303C15.4575 33.8217 15.4564 33.8126 15.4572 33.8036C15.4571 33.7946 15.459 33.7856 15.4626 33.7773C15.4662 33.769 15.4715 33.7615 15.4782 33.7554C15.4848 33.7492 15.4927 33.7445 15.5013 33.7416C15.5098 33.7386 15.5189 33.7375 15.528 33.7383C18.251 33.8799 21.0448 33.9234 23.7842 33.869C23.7933 33.8682 23.8023 33.8693 23.8109 33.8723C23.8195 33.8752 23.8273 33.8799 23.834 33.8861C23.8407 33.8922 23.846 33.8997 23.8496 33.908C23.8532 33.9163 23.8551 33.9253 23.855 33.9343C23.8551 33.9522 23.8484 33.9694 23.8362 33.9826C23.8241 33.9957 23.8075 34.0037 23.7897 34.0051C23 34.0215 22.2049 34.0269 21.4097 34.0269Z" fill="black" fill-opacity="0.1"/>
<path d="M18.4797 35.541C17.5375 35.541 16.5899 35.541 15.6477 35.4919C15.6372 35.4949 15.6261 35.4955 15.6153 35.4935C15.6046 35.4915 15.5944 35.487 15.5857 35.4804C15.5769 35.4738 15.5698 35.4652 15.5649 35.4554C15.56 35.4456 15.5575 35.4348 15.5575 35.4239C15.5575 35.4129 15.56 35.4021 15.5649 35.3923C15.5698 35.3825 15.5769 35.3739 15.5857 35.3673C15.5944 35.3607 15.6046 35.3563 15.6153 35.3543C15.6261 35.3523 15.6372 35.3528 15.6477 35.3558C18.3054 35.4484 20.9958 35.4102 23.6426 35.2414C23.6516 35.2399 23.6608 35.2402 23.6697 35.2425C23.6785 35.2447 23.6868 35.2488 23.694 35.2544C23.7012 35.2601 23.7071 35.2672 23.7114 35.2753C23.7157 35.2833 23.7182 35.2922 23.7188 35.3013C23.719 35.3198 23.7125 35.3377 23.7005 35.3517C23.6885 35.3657 23.6718 35.3749 23.6535 35.3776C21.9434 35.4865 20.2116 35.541 18.4797 35.541Z" fill="black" fill-opacity="0.1"/>
<path d="M15.8384 37.0767C15.8293 37.0775 15.8203 37.0763 15.8117 37.0734C15.8031 37.0705 15.7953 37.0658 15.7886 37.0596C15.7819 37.0535 15.7766 37.046 15.773 37.0377C15.7694 37.0294 15.7675 37.0204 15.7676 37.0114C15.7687 36.9938 15.7757 36.9772 15.7877 36.9643C15.7996 36.9514 15.8156 36.943 15.8329 36.9406L23.4574 36.7663C23.4748 36.7663 23.4914 36.7732 23.5037 36.7854C23.5159 36.7977 23.5228 36.8143 23.5228 36.8316C23.5236 36.8407 23.5224 36.8498 23.5195 36.8583C23.5165 36.8669 23.5118 36.8748 23.5057 36.8814C23.4995 36.8881 23.4921 36.8934 23.4838 36.897C23.4755 36.9006 23.4665 36.9025 23.4574 36.9024L15.8329 37.0767H15.8384Z" fill="black" fill-opacity="0.1"/>
<path d="M18.5778 38.5199C17.7772 38.5199 16.9766 38.5199 16.176 38.5199C16.1587 38.5199 16.1421 38.513 16.1298 38.5008C16.1176 38.4885 16.1107 38.4719 16.1107 38.4546C16.1106 38.4367 16.1173 38.4195 16.1295 38.4063C16.1416 38.3932 16.1582 38.3851 16.176 38.3838C18.4852 38.3838 20.8215 38.3838 23.1252 38.3838C23.1343 38.383 23.1434 38.3841 23.1519 38.3871C23.1605 38.39 23.1684 38.3947 23.175 38.4009C23.1817 38.407 23.187 38.4145 23.1906 38.4228C23.1942 38.4311 23.1961 38.4401 23.196 38.4491C23.1961 38.467 23.1894 38.4842 23.1773 38.4974C23.1651 38.5105 23.1485 38.5185 23.1307 38.5199C21.6221 38.509 20.0972 38.5199 18.5778 38.5199Z" fill="black" fill-opacity="0.1"/>
<path d="M19.0788 39.8324C18.2673 39.8324 17.4449 39.8324 16.6607 39.7943C16.6516 39.7943 16.6427 39.7925 16.6344 39.7889C16.6261 39.7852 16.6186 39.7799 16.6125 39.7733C16.6063 39.7666 16.6016 39.7588 16.5987 39.7502C16.5957 39.7416 16.5946 39.7325 16.5954 39.7235C16.5954 39.7062 16.6022 39.6895 16.6145 39.6773C16.6267 39.665 16.6434 39.6581 16.6607 39.6581C18.6812 39.7235 20.7235 39.7072 22.744 39.6091C22.7618 39.6091 22.7791 39.6158 22.7922 39.6279C22.8053 39.64 22.8134 39.6567 22.8148 39.6745C22.8155 39.6835 22.8144 39.6926 22.8115 39.7012C22.8085 39.7097 22.8038 39.7176 22.7977 39.7243C22.7915 39.7309 22.7841 39.7362 22.7758 39.7398C22.7675 39.7435 22.7585 39.7453 22.7494 39.7453C21.5113 39.807 20.2878 39.836 19.0788 39.8324Z" fill="black" fill-opacity="0.1"/>
<path d="M19.7105 40.9924C19.0134 40.9924 18.3163 40.9924 17.6247 40.938C17.6156 40.938 17.6067 40.9361 17.5984 40.9325C17.5901 40.9289 17.5826 40.9236 17.5764 40.9169C17.5703 40.9103 17.5656 40.9024 17.5627 40.8938C17.5597 40.8853 17.5586 40.8762 17.5593 40.8672C17.5593 40.8581 17.5612 40.8491 17.5648 40.8408C17.5684 40.8325 17.5737 40.8251 17.5804 40.8189C17.587 40.8128 17.5949 40.8081 17.6035 40.8051C17.612 40.8022 17.6211 40.801 17.6301 40.8018C18.9146 40.8672 20.2015 40.8672 21.486 40.8018C21.495 40.801 21.5041 40.8022 21.5126 40.8051C21.5212 40.8081 21.5291 40.8128 21.5357 40.8189C21.5424 40.8251 21.5477 40.8325 21.5513 40.8408C21.5549 40.8491 21.5568 40.8581 21.5568 40.8672C21.5568 40.885 21.5501 40.9023 21.538 40.9154C21.5259 40.9285 21.5092 40.9366 21.4914 40.938C20.9032 40.9815 20.3042 40.9924 19.7105 40.9924Z" fill="black" fill-opacity="0.1"/>
<g opacity="0.13">
<path d="M24.6338 32.4095C24.5802 32.2864 24.4862 32.1854 24.3673 32.1232C24.2484 32.0609 24.1119 32.0412 23.9802 32.0673C23.8486 32.0934 23.7299 32.1637 23.6437 32.2665C23.5575 32.3694 23.5091 32.4986 23.5065 32.6328C23.354 34.2393 23.3376 35.4048 23.2069 36.5158C23.0693 37.1402 22.8704 37.7494 22.6133 38.3348C22.1134 39.2401 21.3549 39.9758 20.4349 40.4479C19.7505 40.7527 18.9842 40.8217 18.2564 40.6439C17.6863 40.4394 17.1388 40.1766 16.6226 39.8597C16.5513 39.8033 16.4687 39.7627 16.3805 39.7406C16.2923 39.7185 16.2004 39.7153 16.1109 39.7313C16.0214 39.7473 15.9363 39.7822 15.8612 39.8335C15.7862 39.8849 15.7229 39.9516 15.6755 40.0292C15.6282 40.1069 15.5978 40.1937 15.5865 40.2839C15.5752 40.3742 15.5832 40.4658 15.6099 40.5527C15.6366 40.6396 15.6814 40.7199 15.7415 40.7882C15.8015 40.8565 15.8754 40.9113 15.9582 40.9489C16.3666 41.194 16.7751 41.45 17.1727 41.7223C17.1182 41.6896 17.0637 41.6351 17.0256 41.6133C17.384 41.8891 17.7957 42.0876 18.2346 42.1961C20.6745 42.6808 22.5915 41.3955 23.7352 39.3587C24.081 38.597 24.3176 37.7902 24.4377 36.9624C24.5272 36.4608 24.5728 35.9524 24.5739 35.4429C24.5956 35.2949 24.5956 35.1444 24.5739 34.9964C24.5739 34.6532 24.5739 34.321 24.6229 33.9888C24.6719 33.6566 24.6501 33.1991 24.6665 32.8016C24.6909 32.6703 24.6796 32.5349 24.6338 32.4095Z" fill="black" fill-opacity="0.1"/>
</g>
<g opacity="0.13">
<path d="M27.9014 24.4472C27.5692 24.7522 27.2588 25.0681 26.932 25.373C26.4676 25.7672 26.0275 26.1892 25.6141 26.6365C25.2328 27.0232 24.8734 27.4317 24.5249 27.8456C24.4378 27.9354 24.3431 28.0174 24.2417 28.0906C24.1709 28.156 23.8223 28.4446 23.757 28.4991L23.4901 28.7006C22.7643 29.3115 21.9315 29.7823 21.0339 30.0894C20.0153 30.3362 18.9491 30.3061 17.946 30.0022C17.3652 29.8368 16.7943 29.6386 16.2359 29.4086C15.1691 28.8788 14.1568 28.2459 13.2133 27.5188C14.0684 28.7496 14.5367 29.9804 15.3319 31.7885L15.6151 32.2787C15.6311 32.3143 15.6493 32.3488 15.6695 32.3822H15.7948C16.1379 32.3822 16.4756 32.453 16.8187 32.4584C17.3633 32.4911 17.9079 32.4584 18.4525 32.4584C19.3293 32.4312 20.1952 32.2623 21.0775 32.2514C21.725 32.1942 22.3772 32.2253 23.0163 32.344C23.5609 32.344 23.452 32.2732 23.7842 32.2841C23.8415 32.2835 23.8984 32.2743 23.953 32.2569C23.992 32.1038 24.0393 31.9529 24.0946 31.8049C24.0514 31.759 24.0235 31.7008 24.0148 31.6384C24.006 31.576 24.0168 31.5124 24.0456 31.4563C24.536 30.4027 25.1424 29.4072 25.8537 28.4882C27.0954 26.8108 28.5767 25.2914 29.715 23.5541L29.9219 23.1456L30.8042 21.3702C30.0036 22.2688 28.8164 23.4996 27.9014 24.4472Z" fill="black" fill-opacity="0.1"/>
</g>
<path d="M20.8051 32.1317C20.7517 32.1276 20.7018 32.1034 20.6654 32.064C20.629 32.0246 20.6089 31.9729 20.6091 31.9193L20.6418 31.0316C20.7293 28.6074 21.0005 26.1933 21.4532 23.8101C21.5694 23.1271 21.7221 22.4508 21.9107 21.7842C21.4737 21.5853 21.0867 21.2913 20.7779 20.9237C20.625 20.7499 20.4814 20.5681 20.3477 20.3791C20.1779 20.6152 19.9961 20.8424 19.8031 21.0598C19.5104 21.4372 19.1386 21.7457 18.7139 21.9639C18.3246 22.1171 17.9053 22.1786 17.4885 22.1436C17.3059 22.1387 17.1238 22.1205 16.9439 22.0891C17.7336 25.2751 17.9568 28.5863 18.1801 31.805C18.1824 31.8319 18.1792 31.8589 18.1707 31.8846C18.1623 31.9102 18.1487 31.9339 18.131 31.9542C18.1132 31.9746 18.0915 31.9911 18.0672 32.0029C18.0429 32.0147 18.0165 32.0214 17.9895 32.0228C17.9364 32.0259 17.8841 32.0084 17.8435 31.9739C17.8029 31.9394 17.7772 31.8906 17.7717 31.8376C17.5484 28.57 17.3197 25.2097 16.5027 21.9966C15.4464 21.7314 14.5033 21.1338 13.8124 20.2919C13.5151 19.9606 13.3153 19.5535 13.2351 19.1156C13.199 18.8744 13.2308 18.6278 13.327 18.4037C13.4232 18.1796 13.58 17.9867 13.7797 17.8466C14.0343 17.7095 14.3263 17.6577 14.6125 17.6989C14.8988 17.74 15.1643 17.872 15.37 18.0754C15.7344 18.4509 16.0034 18.9085 16.1542 19.4097C16.4265 20.1503 16.6552 20.8965 16.8567 21.6535C17.079 21.7012 17.3049 21.7303 17.5321 21.7406C17.87 21.7757 18.2116 21.7386 18.5341 21.6317C18.9135 21.4438 19.2451 21.1719 19.5035 20.8365C19.7158 20.5915 19.9123 20.3332 20.0917 20.0632C19.1629 18.6401 18.7603 16.9373 18.9535 15.2489C18.9672 14.9617 19.0657 14.685 19.2367 14.4537C19.4223 14.2657 19.6699 14.1516 19.9334 14.1325C20.1969 14.1135 20.4583 14.1909 20.669 14.3503C21.0451 14.642 21.3072 15.0563 21.4097 15.5212C21.5945 16.2948 21.6169 17.0984 21.4753 17.8811C21.3338 18.6639 21.0314 19.4087 20.5873 20.0686C20.74 20.2804 20.9036 20.484 21.0774 20.6786C21.3413 20.9902 21.6679 21.2425 22.036 21.4193C22.34 20.4539 22.8407 19.562 23.5064 18.7997C23.9911 18.2551 24.7481 17.8085 25.418 18.1462C25.7067 18.3288 25.9165 18.6129 26.0063 18.9425C26.096 19.2721 26.059 19.6233 25.9027 19.9271C25.6002 20.4657 25.1532 20.909 24.612 21.2069C23.9594 21.7272 23.1354 21.9837 22.3028 21.9258C22.1122 22.563 21.9706 23.2219 21.8453 23.87C21.3936 26.2367 21.1242 28.6346 21.0393 31.0425L21.0067 31.9357C21.0052 31.9882 20.9834 32.038 20.9457 32.0746C20.9081 32.1113 20.8577 32.1317 20.8051 32.1317ZM14.3352 18.1298C14.2044 18.128 14.0758 18.164 13.9649 18.2333C13.8326 18.3324 13.7309 18.4666 13.6712 18.6206C13.6115 18.7747 13.5963 18.9424 13.6272 19.1047C13.6973 19.4676 13.8649 19.8046 14.1119 20.0795C14.6962 20.7898 15.4765 21.3125 16.3557 21.5827C16.1705 20.9128 15.9636 20.2484 15.7185 19.5948C15.5922 19.1565 15.3625 18.755 15.0486 18.4239C14.8531 18.2446 14.6003 18.1404 14.3352 18.1298ZM22.4335 21.5228C23.1434 21.5343 23.835 21.2973 24.3887 20.8529C24.8609 20.5993 25.2561 20.223 25.5323 19.7637C25.6434 19.5556 25.6749 19.3142 25.6207 19.0846C25.5666 18.855 25.4306 18.653 25.2383 18.5165C24.7699 18.2823 24.149 18.6745 23.8059 19.0611C23.1846 19.779 22.7175 20.6168 22.4335 21.5228ZM19.9773 14.5354C19.8972 14.531 19.8171 14.5443 19.7427 14.5744C19.6683 14.6046 19.6015 14.6508 19.5471 14.7097C19.4316 14.8809 19.3657 15.0807 19.3565 15.287C19.1834 16.8186 19.5285 18.3641 20.3368 19.6765C20.7169 19.0816 20.973 18.4162 21.09 17.72C21.207 17.0237 21.1823 16.3111 21.0175 15.6246C20.9368 15.2592 20.7307 14.9335 20.4348 14.7043C20.3041 14.6008 20.1439 14.5417 19.9773 14.5354Z" fill="black" fill-opacity="0.1"/>
<path d="M69.2971 111.22C69.2436 111.22 69.1924 111.198 69.1546 111.161C69.1168 111.123 69.0955 111.072 69.0955 111.018C69.0955 110.964 69.1166 110.912 69.1542 110.874C69.1919 110.835 69.2431 110.813 69.2971 110.811C69.8429 110.809 70.3882 110.778 70.9309 110.719C70.9814 110.719 71.0298 110.739 71.0671 110.773C71.1043 110.807 71.1278 110.853 71.1332 110.904C71.1385 110.954 71.1254 111.004 71.0961 111.045C71.0669 111.087 71.0236 111.116 70.9744 111.127C70.4298 111.187 69.8852 111.214 69.3406 111.22H69.2971ZM67.6632 111.165C67.1186 111.122 66.574 111.051 66.0294 110.958C66.0029 110.954 65.9776 110.945 65.9548 110.931C65.9321 110.917 65.9124 110.898 65.8971 110.876C65.8818 110.855 65.8712 110.83 65.8658 110.803C65.8605 110.777 65.8605 110.75 65.866 110.724C65.8754 110.671 65.9051 110.624 65.9488 110.592C65.9926 110.561 66.0469 110.547 66.1002 110.555C66.6448 110.648 67.1894 110.713 67.7014 110.757C67.7498 110.765 67.7938 110.79 67.8256 110.827C67.8574 110.864 67.8748 110.912 67.8748 110.961C67.8748 111.01 67.8574 111.058 67.8256 111.095C67.7938 111.132 67.7498 111.157 67.7014 111.165H67.6632ZM72.5647 110.877C72.5113 110.882 72.4577 110.867 72.4158 110.833C72.374 110.799 72.3472 110.75 72.3414 110.697C72.3356 110.643 72.3513 110.59 72.385 110.548C72.4187 110.506 72.4677 110.479 72.5211 110.474C73.0476 110.365 73.5676 110.226 74.0787 110.06C74.1314 110.044 74.1881 110.05 74.2369 110.075C74.2856 110.1 74.3226 110.144 74.3401 110.196C74.3555 110.248 74.3498 110.304 74.3244 110.352C74.2989 110.399 74.2557 110.435 74.204 110.452C73.6594 110.615 73.1474 110.757 72.6083 110.871L72.5647 110.877ZM64.4664 110.621H64.4174C63.8728 110.484 63.3554 110.327 62.838 110.141C62.8125 110.133 62.789 110.12 62.7687 110.103C62.7485 110.086 62.732 110.064 62.7202 110.04C62.7085 110.016 62.7018 109.99 62.7005 109.964C62.6992 109.937 62.7034 109.91 62.7127 109.885C62.7213 109.86 62.7349 109.836 62.7528 109.816C62.7707 109.795 62.7925 109.779 62.8169 109.767C62.8413 109.756 62.8678 109.749 62.8948 109.748C62.9218 109.746 62.9488 109.751 62.9742 109.76C63.4806 109.934 63.998 110.092 64.5208 110.228C64.5466 110.235 64.5709 110.246 64.5923 110.262C64.6136 110.278 64.6317 110.298 64.6453 110.32C64.659 110.343 64.668 110.368 64.6719 110.395C64.6758 110.421 64.6744 110.448 64.6679 110.474C64.6541 110.521 64.6241 110.561 64.5832 110.588C64.5423 110.615 64.4932 110.626 64.4446 110.621H64.4664ZM75.669 109.88C75.6294 109.879 75.5908 109.867 75.558 109.844C75.5252 109.822 75.4994 109.791 75.4838 109.755C75.4722 109.73 75.4656 109.704 75.4646 109.677C75.4635 109.651 75.468 109.624 75.4777 109.599C75.4874 109.574 75.5021 109.551 75.521 109.532C75.5398 109.513 75.5624 109.498 75.5873 109.488C75.8487 109.368 76.1319 109.243 76.3661 109.107C76.6003 108.97 76.8018 108.872 77.0142 108.747C77.0604 108.72 77.1156 108.712 77.1677 108.725C77.2198 108.738 77.2645 108.772 77.2919 108.818C77.3193 108.864 77.3273 108.919 77.314 108.971C77.3007 109.024 77.2673 109.068 77.2211 109.096C77.0033 109.226 76.78 109.352 76.5567 109.466C76.3334 109.58 76.0121 109.738 75.7507 109.858C75.7183 109.873 75.6829 109.881 75.6472 109.88H75.669ZM61.3839 109.548H61.3022C60.8012 109.324 60.3001 109.074 59.8263 108.812C59.7867 108.783 59.7591 108.739 59.7487 108.691C59.7382 108.642 59.7455 108.592 59.7693 108.548C59.7931 108.505 59.8317 108.471 59.8782 108.454C59.9246 108.436 59.9758 108.436 60.0224 108.453C60.4907 108.714 60.9754 108.954 61.471 109.172C61.5124 109.193 61.5457 109.226 61.5655 109.268C61.5854 109.31 61.5908 109.357 61.5808 109.402C61.5707 109.447 61.5459 109.488 61.5102 109.517C61.4746 109.546 61.4301 109.563 61.3839 109.564V109.548ZM78.441 108.197C78.41 108.196 78.3794 108.189 78.3513 108.176C78.3232 108.163 78.2981 108.144 78.2776 108.121C78.2447 108.077 78.2302 108.023 78.2374 107.969C78.2445 107.915 78.2727 107.866 78.3158 107.832C78.7379 107.493 79.1398 107.129 79.5193 106.743C79.5586 106.707 79.6101 106.686 79.6637 106.686C79.7172 106.686 79.7687 106.707 79.808 106.743C79.8274 106.762 79.8428 106.785 79.8534 106.81C79.8639 106.836 79.8693 106.863 79.8693 106.89C79.8693 106.917 79.8639 106.944 79.8534 106.97C79.8428 106.995 79.8274 107.018 79.808 107.037C79.4148 107.423 79.0002 107.787 78.5663 108.126C78.5338 108.163 78.4896 108.188 78.441 108.197ZM80.7502 105.899C80.7049 105.898 80.6611 105.882 80.6249 105.855C80.5826 105.821 80.5555 105.772 80.5494 105.718C80.5433 105.664 80.5587 105.609 80.5922 105.567C80.9264 105.146 81.2373 104.708 81.5235 104.254C81.5517 104.209 81.5968 104.176 81.6488 104.164C81.7009 104.152 81.7558 104.161 81.8013 104.189C81.8468 104.217 81.8792 104.262 81.8915 104.314C81.9037 104.366 81.8948 104.421 81.8666 104.467C81.5764 104.937 81.2581 105.39 80.9135 105.823C80.8931 105.846 80.868 105.865 80.8399 105.878C80.8118 105.891 80.7812 105.898 80.7502 105.899ZM82.4766 103.132C82.448 103.14 82.418 103.14 82.3894 103.132C82.3648 103.121 82.3427 103.105 82.3244 103.085C82.3061 103.066 82.2919 103.042 82.2828 103.017C82.2736 102.991 82.2697 102.964 82.2712 102.938C82.2726 102.911 82.2795 102.884 82.2914 102.86C82.5205 102.375 82.7205 101.877 82.8905 101.368C82.8991 101.342 82.9126 101.319 82.9302 101.299C82.9478 101.279 82.9693 101.262 82.9933 101.25C83.0173 101.238 83.0435 101.231 83.0702 101.229C83.0969 101.228 83.1238 101.231 83.1492 101.24C83.1746 101.248 83.198 101.262 83.2182 101.279C83.2383 101.297 83.2548 101.319 83.2667 101.343C83.2786 101.367 83.2856 101.393 83.2874 101.419C83.2892 101.446 83.2857 101.473 83.2771 101.498C83.1056 102.023 82.9 102.536 82.6617 103.034C82.6428 103.066 82.6156 103.092 82.5829 103.109C82.5502 103.126 82.5135 103.134 82.4766 103.132ZM83.5004 100.033H83.4623C83.4356 100.029 83.4101 100.019 83.3874 100.004C83.3646 99.9897 83.345 99.9707 83.3297 99.9483C83.3145 99.9259 83.3039 99.9007 83.2986 99.8742C83.2933 99.8476 83.2934 99.8203 83.2989 99.7938C83.4014 99.2671 83.4669 98.7339 83.495 98.1981C83.4992 98.1441 83.5243 98.094 83.565 98.0584C83.6058 98.0227 83.6588 98.0045 83.7128 98.0075C83.7393 98.0089 83.7652 98.0155 83.7892 98.0269C83.8131 98.0383 83.8345 98.0544 83.8522 98.0741C83.8699 98.0938 83.8836 98.1169 83.8924 98.1419C83.9011 98.1669 83.9049 98.1934 83.9034 98.2199C83.874 98.7688 83.8048 99.3148 83.6965 99.8537C83.6924 99.9028 83.6699 99.9486 83.6336 99.9819C83.5973 100.015 83.5497 100.034 83.5004 100.033ZM83.6747 96.7658C83.623 96.7673 83.5728 96.749 83.5342 96.7145C83.4957 96.6801 83.4719 96.6321 83.4678 96.5806C83.4223 96.0481 83.3349 95.52 83.2063 95.0012C83.1944 94.9515 83.2018 94.899 83.227 94.8545C83.2523 94.81 83.2936 94.7768 83.3425 94.7616C83.3952 94.7483 83.451 94.7563 83.4979 94.7838C83.5448 94.8113 83.5789 94.8562 83.593 94.9087C83.7249 95.4456 83.8159 95.9918 83.8653 96.5425C83.8683 96.5694 83.8659 96.5966 83.8581 96.6226C83.8504 96.6485 83.8374 96.6726 83.8202 96.6935C83.8029 96.7143 83.7816 96.7314 83.7575 96.7439C83.7335 96.7563 83.7071 96.7637 83.6801 96.7658H83.6747ZM82.9014 93.6016C82.8608 93.6017 82.8211 93.5899 82.7872 93.5676C82.7534 93.5453 82.7268 93.5136 82.7107 93.4763C82.512 92.9851 82.2866 92.5051 82.0354 92.0386C82.0222 92.0155 82.0139 91.99 82.0108 91.9635C82.0078 91.9371 82.0102 91.9104 82.0178 91.8849C82.0255 91.8594 82.0382 91.8358 82.0553 91.8154C82.0724 91.795 82.0934 91.7783 82.1171 91.7663C82.1649 91.7409 82.2207 91.7352 82.2727 91.7505C82.3246 91.7657 82.3685 91.8007 82.3949 91.848C82.6531 92.3366 82.8858 92.8383 83.092 93.3511C83.1117 93.4017 83.1108 93.458 83.0894 93.5079C83.068 93.5578 83.0279 93.5974 82.9776 93.6179L82.9014 93.6016ZM81.3874 90.7152C81.3528 90.716 81.3186 90.7079 81.2881 90.6917C81.2576 90.6755 81.2317 90.6517 81.2131 90.6226C80.9353 90.1923 80.6303 89.7567 80.2872 89.2937C80.2549 89.2496 80.2413 89.1945 80.2495 89.1404C80.2576 89.0863 80.2869 89.0377 80.3308 89.0051C80.3522 88.9892 80.3766 88.9778 80.4024 88.9713C80.4283 88.9649 80.4552 88.9637 80.4815 88.9678C80.5078 88.9718 80.5331 88.9811 80.5559 88.995C80.5786 89.0088 80.5984 89.0271 80.614 89.0487C80.9626 89.517 81.273 89.9636 81.5562 90.3993C81.5852 90.445 81.5952 90.5002 81.584 90.5531C81.5728 90.606 81.5413 90.6525 81.4963 90.6825C81.4659 90.7098 81.4279 90.7269 81.3874 90.7315V90.7152ZM79.4486 88.0847C79.4182 88.0847 79.3882 88.0779 79.3608 88.0647C79.3335 88.0515 79.3095 88.0323 79.2906 88.0085L79.149 87.8342C79.1151 87.7923 79.0992 87.7386 79.1048 87.685C79.1104 87.6314 79.1371 87.5822 79.179 87.5483C79.2209 87.5143 79.2745 87.4984 79.3281 87.504C79.3818 87.5097 79.4309 87.5363 79.4649 87.5782L79.6065 87.7525C79.6441 87.7911 79.6651 87.8429 79.6651 87.8968C79.6651 87.9507 79.6441 88.0025 79.6065 88.0411C79.5631 88.0801 79.5068 88.1014 79.4486 88.1011V88.0847Z" fill="black" fill-opacity="0.1"/>
<path d="M56.5206 69.116H56.4661C55.9596 68.9744 55.4314 68.8383 54.8922 68.713C54.8661 68.7069 54.8414 68.6958 54.8197 68.6802C54.7979 68.6646 54.7794 68.6448 54.7652 68.6221C54.7366 68.5761 54.7274 68.5207 54.7397 68.4679C54.752 68.4152 54.7847 68.3695 54.8307 68.3409C54.8766 68.3123 54.9321 68.3032 54.9848 68.3155C55.5294 68.4407 56.074 68.5769 56.575 68.7239C56.6009 68.7308 56.6252 68.7428 56.6464 68.7592C56.6676 68.7756 56.6853 68.7961 56.6984 68.8194C56.7116 68.8428 56.72 68.8685 56.7232 68.8951C56.7263 68.9217 56.7241 68.9487 56.7166 68.9744C56.7037 69.0161 56.6776 69.0524 56.6422 69.0779C56.6069 69.1034 56.5642 69.1168 56.5206 69.116ZM53.3401 68.3754H53.3019C52.79 68.2828 52.2508 68.1902 51.6681 68.1031C51.6156 68.0925 51.5691 68.0625 51.5378 68.0191C51.5065 67.9756 51.4927 67.922 51.4993 67.8689C51.5032 67.8423 51.5125 67.8167 51.5265 67.7937C51.5405 67.7707 51.5589 67.7508 51.5808 67.7351C51.6026 67.7193 51.6273 67.7081 51.6536 67.7021C51.6798 67.6961 51.707 67.6954 51.7335 67.7C52.2962 67.7872 52.8408 67.8798 53.3673 67.9778C53.4207 67.9828 53.47 68.0089 53.5042 68.0503C53.5384 68.0917 53.5548 68.1449 53.5497 68.1984C53.5447 68.2518 53.5186 68.301 53.4772 68.3353C53.4359 68.3695 53.3826 68.3859 53.3292 68.3808L53.3401 68.3754ZM50.1214 67.8689C49.6149 67.8035 49.0867 67.7436 48.4876 67.6783C48.4342 67.6702 48.3858 67.642 48.3524 67.5995C48.3191 67.557 48.3031 67.5034 48.3079 67.4495C48.3147 67.3955 48.3425 67.3463 48.3854 67.3127C48.4282 67.2791 48.4825 67.2636 48.5366 67.2698L50.1704 67.4659C50.2189 67.4738 50.2629 67.4987 50.2947 67.5361C50.3265 67.5735 50.3439 67.621 50.3439 67.6701C50.3439 67.7192 50.3265 67.7667 50.2947 67.8041C50.2629 67.8415 50.2189 67.8664 50.1704 67.8743L50.1214 67.8689ZM46.8538 67.4985L45.22 67.3406C45.193 67.3386 45.1666 67.3311 45.1426 67.3187C45.1185 67.3063 45.0972 67.2891 45.0799 67.2683C45.0627 67.2475 45.0498 67.2233 45.042 67.1974C45.0342 67.1715 45.0318 67.1442 45.0348 67.1173C45.0403 67.0633 45.0668 67.0137 45.1086 66.9791C45.1503 66.9444 45.204 66.9276 45.2581 66.9321L46.8919 67.0955C46.9453 67.0955 46.9966 67.1168 47.0344 67.1545C47.0722 67.1923 47.0934 67.2436 47.0934 67.297C47.0934 67.3505 47.0722 67.4017 47.0344 67.4395C46.9966 67.4773 46.9453 67.4985 46.8919 67.4985H46.8538ZM43.5861 67.1827L41.9523 67.0138C41.8993 67.007 41.851 66.98 41.8175 66.9383C41.784 66.8967 41.7679 66.8438 41.7726 66.7905C41.7746 66.7637 41.782 66.7376 41.7945 66.7138C41.807 66.69 41.8242 66.669 41.8452 66.6522C41.8661 66.6353 41.8903 66.623 41.9162 66.6158C41.9422 66.6087 41.9693 66.607 41.9959 66.6108C42.5405 66.6653 43.0851 66.7252 43.6297 66.7742C43.6831 66.7823 43.7315 66.8105 43.7649 66.853C43.7983 66.8955 43.8142 66.9491 43.8094 67.0029C43.8041 67.0516 43.7813 67.0967 43.7453 67.1297C43.7092 67.1628 43.6623 67.1816 43.6134 67.1827H43.5861ZM40.3185 66.8232L39.7739 66.7579L38.6847 66.5999C38.6306 66.5919 38.5819 66.5627 38.5492 66.5188C38.5165 66.4749 38.5026 66.4199 38.5104 66.3658C38.5143 66.3391 38.5236 66.3136 38.5376 66.2906C38.5516 66.2676 38.57 66.2477 38.5919 66.2319C38.6137 66.2162 38.6384 66.205 38.6647 66.199C38.6909 66.193 38.7181 66.1923 38.7446 66.1969L39.8338 66.3494L40.3512 66.4202C40.4046 66.4202 40.4559 66.4414 40.4936 66.4792C40.5314 66.517 40.5527 66.5683 40.5527 66.6217C40.5527 66.6752 40.5314 66.7264 40.4936 66.7642C40.4559 66.802 40.4046 66.8232 40.3512 66.8232H40.3185ZM37.089 66.3276H37.0563C36.5117 66.2296 35.9671 66.1152 35.4225 66.0009C35.3964 65.9948 35.3717 65.9836 35.3499 65.968C35.3281 65.9524 35.3096 65.9327 35.2955 65.9099C35.2813 65.8872 35.2718 65.8618 35.2674 65.8354C35.263 65.8089 35.2639 65.7819 35.27 65.7558C35.2761 65.7297 35.2872 65.705 35.3028 65.6832C35.3184 65.6615 35.3382 65.643 35.3609 65.6288C35.3837 65.6146 35.409 65.6051 35.4354 65.6007C35.4619 65.5963 35.4889 65.5972 35.515 65.6033C36.027 65.7177 36.5607 65.8266 37.1053 65.9301C37.1587 65.9351 37.208 65.9612 37.2422 66.0026C37.2764 66.0439 37.2928 66.0972 37.2877 66.1506C37.2827 66.2041 37.2566 66.2533 37.2152 66.2875C37.1739 66.3218 37.1206 66.3381 37.0672 66.3331L37.089 66.3276ZM33.903 65.6033H33.8485C33.3039 65.4563 32.7593 65.2929 32.2746 65.1295C32.2247 65.111 32.1836 65.0744 32.1594 65.027C32.1352 64.9796 32.1297 64.9248 32.1439 64.8735C32.1613 64.8216 32.1986 64.7786 32.2476 64.7541C32.2966 64.7296 32.3533 64.7256 32.4053 64.7428C32.9009 64.9062 33.4237 65.0641 33.9575 65.2057C33.9834 65.2127 34.0076 65.2247 34.0288 65.2411C34.05 65.2575 34.0677 65.2779 34.0809 65.3013C34.0941 65.3246 34.1025 65.3503 34.1056 65.3769C34.1087 65.4035 34.1065 65.4305 34.0991 65.4563C34.0904 65.4928 34.0714 65.5261 34.0444 65.5521C34.0174 65.5782 33.9834 65.596 33.9466 65.6033H33.903ZM30.8042 64.5794C30.7791 64.5851 30.753 64.5851 30.7279 64.5794C30.2106 64.3779 29.6986 64.1546 29.2139 63.9259C29.1662 63.9013 29.1295 63.8596 29.1114 63.809C29.0932 63.7585 29.0948 63.703 29.1159 63.6536C29.1395 63.6049 29.1812 63.5674 29.2321 63.5491C29.283 63.5308 29.339 63.5331 29.3882 63.5556C29.8675 63.7843 30.3685 63.9967 30.875 64.2037C30.9002 64.2128 30.9233 64.2268 30.943 64.2449C30.9627 64.263 30.9786 64.2849 30.9897 64.3092C31.0009 64.3336 31.0071 64.3599 31.0079 64.3866C31.0088 64.4134 31.0043 64.4401 30.9948 64.4651C30.9809 64.4943 30.9604 64.5199 30.9349 64.5397C30.9093 64.5596 30.8795 64.5732 30.8478 64.5794H30.8042ZM27.896 63.1744C27.8638 63.1824 27.8301 63.1824 27.7979 63.1744C27.3132 62.8966 26.8394 62.6297 26.3929 62.2975C26.3709 62.2823 26.3521 62.2628 26.3377 62.2403C26.3233 62.2178 26.3135 62.1926 26.309 62.1662C26.3044 62.1398 26.3052 62.1128 26.3111 62.0868C26.3171 62.0607 26.3282 62.0361 26.3438 62.0143C26.3747 61.9702 26.4215 61.9398 26.4744 61.9297C26.5273 61.9195 26.582 61.9303 26.627 61.9599C27.0627 62.2594 27.5256 62.548 27.9995 62.8149C28.0461 62.8433 28.0801 62.8885 28.0943 62.9412C28.1085 62.994 28.1018 63.0502 28.0757 63.0981C28.0543 63.1246 28.0267 63.1455 27.9954 63.1588C27.964 63.1721 27.9299 63.1774 27.896 63.1744ZM25.2056 61.3336C25.1585 61.3332 25.1128 61.3179 25.0749 61.29C24.8026 61.0613 24.5303 60.8271 24.2798 60.5929C24.1327 60.4568 23.9911 60.3152 23.8495 60.1736C23.8309 60.1542 23.8163 60.1315 23.8065 60.1065C23.7968 60.0816 23.792 60.0549 23.7925 60.0281C23.793 60.0013 23.7988 59.9749 23.8095 59.9503C23.8202 59.9257 23.8357 59.9035 23.855 59.8849C23.8743 59.8663 23.8971 59.8517 23.922 59.8419C23.947 59.8321 23.9736 59.8274 24.0004 59.8279C24.0272 59.8284 24.0537 59.8341 24.0782 59.8449C24.1028 59.8556 24.125 59.8711 24.1436 59.8904C24.2798 60.0265 24.4159 60.1627 24.5575 60.2934C24.8081 60.5221 25.0695 60.7508 25.3363 60.9741C25.3736 61.0118 25.3945 61.0627 25.3945 61.1157C25.3945 61.1687 25.3736 61.2196 25.3363 61.2573C25.3039 61.2983 25.2572 61.3256 25.2056 61.3336ZM22.9346 58.9918C22.9029 58.9916 22.8717 58.9841 22.8434 58.9699C22.8151 58.9558 22.7904 58.9353 22.7712 58.9101C22.4424 58.4675 22.1405 58.0056 21.8672 57.5268C21.8536 57.5036 21.8449 57.478 21.8414 57.4514C21.8379 57.4248 21.8398 57.3977 21.8469 57.3719C21.854 57.346 21.8662 57.3218 21.8828 57.3007C21.8993 57.2796 21.92 57.262 21.9434 57.249C21.9663 57.2353 21.9916 57.2262 22.018 57.2223C22.0444 57.2184 22.0712 57.2198 22.0971 57.2264C22.1229 57.233 22.1472 57.2446 22.1685 57.2607C22.1898 57.2767 22.2077 57.2968 22.2212 57.3198C22.4854 57.7859 22.7782 58.2351 23.098 58.665C23.1309 58.7084 23.1454 58.7631 23.1383 58.8172C23.1311 58.8712 23.1029 58.9202 23.0599 58.9536C23.0232 58.9792 22.9793 58.9926 22.9346 58.9918ZM21.3008 56.1707C21.2612 56.1697 21.2226 56.1574 21.1898 56.1352C21.157 56.113 21.1312 56.0818 21.1156 56.0454C20.8934 55.542 20.6971 55.0276 20.5274 54.5042C20.5101 54.4529 20.5138 54.3969 20.5378 54.3483C20.5618 54.2998 20.6041 54.2628 20.6554 54.2455C20.7067 54.2282 20.7628 54.2319 20.8113 54.2559C20.8598 54.2799 20.8968 54.3222 20.9141 54.3735C21.0884 54.9181 21.279 55.4028 21.4587 55.882C21.4808 55.9319 21.4824 55.9885 21.463 56.0395C21.4436 56.0905 21.4049 56.1318 21.3552 56.1544C21.3413 56.1613 21.3267 56.1668 21.3117 56.1707H21.3008ZM20.2715 53.0719C20.2257 53.0717 20.1814 53.056 20.1457 53.0273C20.1101 52.9986 20.0853 52.9586 20.0754 52.9139C19.9501 52.402 19.8358 51.8574 19.7377 51.2801C19.7312 51.227 19.745 51.1733 19.7763 51.1299C19.8076 51.0865 19.8541 51.0565 19.9066 51.0459C19.9331 51.0413 19.9602 51.042 19.9865 51.048C20.0127 51.054 20.0375 51.0652 20.0593 51.0809C20.0811 51.0967 20.0996 51.1166 20.1136 51.1396C20.1276 51.1626 20.1368 51.1881 20.1408 51.2148C20.2388 51.7594 20.3477 52.304 20.473 52.7996C20.4845 52.8522 20.475 52.9073 20.4465 52.9531C20.418 52.9988 20.3728 53.0317 20.3205 53.0446L20.2715 53.0719ZM19.7269 49.8587C19.6765 49.8576 19.6282 49.8383 19.5911 49.8042C19.554 49.7701 19.5306 49.7236 19.5254 49.6735C19.4654 49.1289 19.411 48.5843 19.3674 48.0397C19.3705 47.99 19.3914 47.943 19.4263 47.9075C19.4612 47.8719 19.5078 47.8501 19.5575 47.8462C19.6071 47.8422 19.6566 47.8563 19.6967 47.8858C19.7368 47.9154 19.7649 47.9584 19.7759 48.007C19.8194 48.5516 19.8685 49.0962 19.9284 49.6408C19.9322 49.667 19.9306 49.6937 19.9239 49.7193C19.9171 49.7449 19.9052 49.7688 19.8889 49.7897C19.8726 49.8106 19.8523 49.8279 19.8291 49.8407C19.8059 49.8535 19.7804 49.8615 19.7541 49.8641L19.7269 49.8587ZM19.4872 46.591C19.4342 46.5911 19.3831 46.5708 19.3446 46.5343C19.3061 46.4978 19.2831 46.448 19.2803 46.395C19.2803 45.8504 19.253 45.3058 19.2476 44.7612C19.2469 44.7342 19.2515 44.7074 19.2613 44.6824C19.2711 44.6573 19.2859 44.6344 19.3047 44.6151C19.3234 44.5958 19.3459 44.5805 19.3707 44.57C19.3955 44.5596 19.4222 44.5542 19.4491 44.5542C19.5031 44.5542 19.5549 44.5752 19.5935 44.6129C19.6322 44.6505 19.6546 44.7018 19.6561 44.7557C19.6561 45.333 19.6561 45.8449 19.6887 46.3895C19.6902 46.4164 19.6863 46.4434 19.6771 46.4687C19.668 46.4941 19.6539 46.5174 19.6356 46.5372C19.6173 46.557 19.5952 46.5729 19.5707 46.584C19.5461 46.5952 19.5196 46.6012 19.4927 46.6019L19.4872 46.591Z" fill="black" fill-opacity="0.1"/>
</svg>
