<svg width="27" height="27" viewBox="0 0 27 27" fill="none" xmlns="http://www.w3.org/2000/svg">
<path d="M13.7099 0C14.1653 0.209818 14.3065 0.570785 14.2975 1.06102C14.2727 2.03454 14.2975 3.00905 14.2866 3.98257C14.2806 4.56927 13.7387 4.94813 13.2166 4.7403C13.0689 4.69123 12.9406 4.59651 12.8501 4.4698C12.7597 4.34309 12.7118 4.19093 12.7135 4.03527C12.7035 2.9474 12.7065 1.85953 12.7135 0.771654C12.7135 0.378866 12.976 0.166065 13.2902 0L13.7099 0Z" fill="#9F5138"/>
<path d="M27 13.7097C26.7892 14.1652 26.4282 14.3064 25.938 14.2964C24.9655 14.2716 23.9899 14.2964 23.0164 14.2865C22.4297 14.2805 22.0509 13.7386 22.2587 13.2165C22.3076 13.0687 22.4023 12.9403 22.5291 12.8498C22.6558 12.7594 22.808 12.7116 22.9637 12.7134C24.0516 12.7034 25.1405 12.7064 26.2283 12.7134C26.6211 12.7134 26.8329 12.9759 27 13.2891V13.7097Z" fill="#9F5138"/>
<path d="M13.4881 22.2516C12.4778 22.2516 11.4672 22.2516 10.4562 22.2516C9.8486 22.2516 9.54829 21.9533 9.54432 21.3487C9.55035 20.7991 9.44699 20.2538 9.24025 19.7446C9.0335 19.2353 8.72752 18.7723 8.3401 18.3824C4.5932 14.4854 6.46367 7.91935 11.7002 6.61867C14.2757 5.98027 16.6026 6.57691 18.5019 8.44638C20.1983 10.115 20.8536 12.1913 20.5265 14.558C20.3422 15.9807 19.7036 17.306 18.7057 18.3367C17.8645 19.2147 17.4408 20.234 17.4498 21.4462C17.4498 21.9434 17.1147 22.2417 16.5996 22.2486C15.5624 22.2546 14.5253 22.2516 13.4881 22.2516ZM13.3658 9.54619C11.6902 9.58198 10.2742 10.652 9.72728 12.2947C9.55923 12.7989 9.74817 13.2434 10.1927 13.3885C10.6372 13.5337 11.0528 13.311 11.2149 12.8148C11.5679 11.7299 12.3356 11.2029 13.4473 11.1243C13.9654 11.0885 14.3035 10.7594 14.2876 10.3029C14.2717 9.8465 13.9018 9.53525 13.3658 9.54619Z" fill="#9F5138"/>
<path d="M10.3418 23.8447H16.6284C16.8442 25.2726 16.2923 26.5067 14.8952 26.9074C14.7866 26.9419 14.6739 26.9619 14.5601 26.9671C13.864 26.975 13.1679 27.0287 12.4818 26.9671C11.2368 26.8487 10.4134 25.9319 10.3418 24.6889C10.3249 24.4184 10.3418 24.146 10.3418 23.8447Z" fill="#9F5138"/>
<path d="M2.38067 14.2895C1.87054 14.2895 1.36141 14.2895 0.85128 14.2895C0.341153 14.2895 0.00604027 13.9584 7.38777e-05 13.5079C-0.00589252 13.0575 0.350102 12.7124 0.859235 12.7124C1.88744 12.7124 2.91499 12.7124 3.94187 12.7124C4.43907 12.7124 4.78811 13.0415 4.79308 13.492C4.79805 13.9425 4.44404 14.2875 3.93392 14.2875C3.42379 14.2875 2.89875 14.2895 2.38067 14.2895Z" fill="#9F5138"/>
<path d="M4.66579 3.75879C4.76523 3.81249 4.983 3.8811 5.13117 4.02429C5.86703 4.73827 6.59393 5.46916 7.31388 6.20103C7.66391 6.55603 7.66291 7.03235 7.33476 7.35155C7.00661 7.67076 6.54918 7.65783 6.20214 7.31675C5.46927 6.59581 4.74435 5.86692 4.01943 5.13802C3.89548 5.02934 3.80937 4.884 3.77361 4.72307C3.73785 4.56214 3.75429 4.39401 3.82055 4.24306C3.94187 3.95369 4.2372 3.75978 4.66579 3.75879Z" fill="#9F5138"/>
<path d="M23.2481 4.65772C23.1845 4.77009 23.1139 4.98886 22.9707 5.13702C22.2557 5.87487 21.5258 6.59879 20.793 7.3247C20.4459 7.66478 19.9795 7.66677 19.6603 7.35354C19.5832 7.28069 19.522 7.19275 19.4803 7.0952C19.4387 6.99764 19.4176 6.89256 19.4184 6.78649C19.4191 6.68042 19.4417 6.57565 19.4847 6.47869C19.5277 6.38173 19.5902 6.29466 19.6683 6.22291C20.3975 5.47644 21.1367 4.73694 21.8858 4.0044C21.9968 3.88327 22.1447 3.80212 22.3065 3.77354C22.4683 3.74495 22.635 3.77052 22.7808 3.84629C23.0841 3.97755 23.2193 4.23311 23.2481 4.65772Z" fill="#9F5138"/>
</svg>
