<svg width="66" height="70" viewBox="0 0 66 70" fill="none" xmlns="http://www.w3.org/2000/svg">
<path d="M20.428 57.8463C15.9423 55.3027 12.4415 51.3257 10.4876 46.5536C8.53363 41.7815 8.23996 36.4912 9.6537 31.5322C11.0674 26.5731 14.1066 22.233 18.2832 19.2086C22.4597 16.1842 27.5315 14.651 32.684 14.8552L32.5188 14.7627C32.2369 14.4372 32.0898 14.0166 32.1074 13.5864C32.1114 13.1912 32.2711 12.8136 32.5517 12.5353C32.8323 12.257 33.2114 12.1006 33.6066 12.0999L35.0114 12.1111C35.3649 12.154 35.6873 12.3345 35.9086 12.6135C36.1904 12.9389 36.3375 13.3596 36.3199 13.7897C36.3048 14.0834 36.2102 14.3675 36.0462 14.6116C35.8822 14.8557 35.655 15.0507 35.3888 15.1757C37.368 15.4657 39.2983 16.0249 41.1261 16.8375L41.4236 16.3063C40.6867 15.9317 40.1274 15.2816 39.867 14.497C39.6066 13.7125 39.6661 12.8569 40.0327 12.1161C40.4805 11.4165 41.1863 10.9218 41.9968 10.7398C42.8072 10.5577 43.6568 10.7028 44.3609 11.1436L47.749 13.0407C48.4927 13.4106 49.0605 14.059 49.3288 14.8452C49.5971 15.6313 49.5443 16.4915 49.1819 17.239C48.9622 17.5886 48.6758 17.8915 48.3389 18.1303C48.0021 18.3691 47.6214 18.5391 47.2187 18.6306C46.8161 18.722 46.3993 18.7331 45.9923 18.6632C45.5854 18.5933 45.1962 18.4438 44.8471 18.2232L44.543 18.7663C46.1921 19.8987 47.6778 21.2523 48.9583 22.7892C48.9253 22.4966 48.9738 22.2005 49.0985 21.9337C49.2233 21.667 49.4194 21.4399 49.6651 21.2777C49.8392 21.1499 50.0379 21.0595 50.2485 21.012C50.4592 20.9646 50.6774 20.9611 50.8895 21.0018C51.243 21.0447 51.5654 21.2252 51.7867 21.5042L52.5569 22.6488C52.6652 22.8192 52.738 23.0098 52.771 23.209C52.804 23.4083 52.7964 23.6121 52.7487 23.8084C52.7011 24.0047 52.6144 24.1893 52.4937 24.3513C52.3731 24.5132 52.221 24.6492 52.0466 24.751C51.6891 24.9908 51.2536 25.0852 50.8288 25.015L50.6635 24.9225C53.5299 29.2077 54.8734 34.3317 54.4786 39.472C54.0837 44.6124 51.9734 49.471 48.4862 53.2682C44.999 57.0654 40.3373 59.581 35.2491 60.4112C30.1609 61.2414 24.9413 60.3381 20.428 57.8463ZM33.788 14.4344L33.9061 14.5005C33.9718 14.5794 34.0041 14.681 33.9958 14.7834L33.9746 15.2367C33.9786 15.2931 33.9709 15.3497 33.9518 15.4029C33.9327 15.4561 33.9027 15.5047 33.8637 15.5457C33.8247 15.5866 33.7776 15.619 33.7254 15.6407C33.6732 15.6624 33.617 15.6729 33.5605 15.6716C29.5856 15.3103 25.587 16.0284 21.9862 17.7503C18.3855 19.4722 15.3163 22.1339 13.1022 25.4547C10.8882 28.7756 9.61141 32.6324 9.40662 36.6184C9.20184 40.6043 10.0766 44.5717 11.9387 48.1019C13.8007 51.6322 16.581 54.5944 19.9863 56.6763C23.3916 58.7581 27.2957 59.8822 31.2866 59.9302C35.2775 59.9781 39.2075 58.9481 42.6618 56.9487C46.1161 54.9493 48.9668 52.0547 50.9132 48.5702C52.9867 44.8582 53.9556 40.6307 53.7058 36.3861C53.4559 32.1415 51.9976 28.0569 49.5029 24.6137C49.4703 24.5704 49.4467 24.5209 49.4336 24.4683C49.4204 24.4156 49.418 24.3609 49.4263 24.3073C49.4418 24.1963 49.4984 24.0952 49.585 24.024L49.9169 23.7912C49.9718 23.7567 50.0344 23.7363 50.0991 23.732C50.1638 23.7276 50.2286 23.7393 50.2876 23.7661C50.3923 23.7857 50.4877 23.8391 50.5591 23.9181L50.63 23.9578C50.675 24.0204 50.7332 24.0724 50.8005 24.1101C50.8679 24.1478 50.9426 24.1703 51.0195 24.1759C51.2386 24.2037 51.4603 24.1517 51.6443 24.0295C51.7878 23.9315 51.8917 23.7855 51.9373 23.6178C51.9829 23.4501 51.9672 23.2716 51.8931 23.1144L51.128 21.9882C51.083 21.9289 51.0262 21.8794 50.9612 21.843C50.8962 21.8067 50.8244 21.7841 50.7503 21.7767C50.6402 21.7564 50.5272 21.7583 50.4179 21.7823C50.3086 21.8063 50.2051 21.8519 50.1137 21.9165C49.9515 22.0094 49.8319 22.162 49.7804 22.3417C49.729 22.5215 49.7499 22.7142 49.8385 22.8789L49.9448 22.9384C49.9769 22.9783 49.9999 23.0247 50.0123 23.0745C50.0246 23.1242 50.0259 23.1761 50.0161 23.2264C50.0098 23.2794 49.9932 23.3307 49.9671 23.3773C49.941 23.4239 49.906 23.4649 49.864 23.4979L49.4886 23.7529C49.3965 23.8266 49.285 23.8718 49.1676 23.8833C49.0566 23.8678 48.9554 23.8112 48.8842 23.7246C47.4394 21.9713 45.7331 20.451 43.8253 19.2173C43.7414 19.1663 43.6806 19.0847 43.6557 18.9898C43.6307 18.8948 43.6437 18.7939 43.6917 18.7083L44.3527 17.5277C44.4035 17.4369 44.4884 17.37 44.5885 17.3418C44.6887 17.3135 44.7959 17.3262 44.8867 17.3771L45.2173 17.5621C45.7416 17.9027 46.3794 18.022 46.9914 17.894C47.6034 17.7661 48.1399 17.4012 48.4839 16.8792C48.7534 16.3126 48.787 15.6622 48.5773 15.0709C48.3676 14.4796 47.9318 13.9957 47.3656 13.7254L43.9775 11.8283C43.4551 11.4887 42.8199 11.3688 42.2096 11.4944C41.5994 11.6201 41.0632 11.9812 40.7174 12.4995C40.4521 13.0656 40.4215 13.7137 40.6323 14.3023C40.843 14.8909 41.278 15.3723 41.8424 15.6414L42.1493 15.8133C42.2401 15.8641 42.307 15.9489 42.3352 16.0491C42.3635 16.1493 42.3508 16.2565 42.3 16.3473L41.639 17.5279C41.5883 17.6126 41.5086 17.6759 41.4146 17.7061C41.3207 17.7362 41.219 17.7311 41.1285 17.6917C39.0775 16.7166 36.8858 16.0702 34.6338 15.7764C34.578 15.7717 34.5238 15.7551 34.4749 15.7277C34.4261 15.7004 34.3836 15.6629 34.3505 15.6177C34.3204 15.5723 34.2997 15.5213 34.2897 15.4678C34.2798 15.4143 34.2806 15.3593 34.2924 15.3061L34.6918 15.3127L34.3202 15.2286L34.3386 14.8358C34.339 14.7835 34.3502 14.7319 34.3715 14.6843C34.3928 14.6366 34.4238 14.5938 34.4624 14.5586C34.501 14.5235 34.5465 14.4967 34.596 14.4799C34.6454 14.4632 34.6978 14.4568 34.7499 14.4613L34.8561 14.5208C35.0428 14.5103 35.218 14.4273 35.3444 14.2896C35.4708 14.1518 35.5384 13.9701 35.5328 13.7832C35.552 13.6573 35.5432 13.5287 35.507 13.4066C35.4709 13.2845 35.4082 13.1719 35.3235 13.0768C35.2785 13.0174 35.2217 12.968 35.1567 12.9316C35.0917 12.8952 35.0199 12.8726 34.9458 12.8652L33.583 12.862C33.3943 12.8742 33.2176 12.9591 33.0902 13.0989C32.9628 13.2386 32.8945 13.4224 32.8998 13.6114C32.9159 13.824 33.0075 14.0238 33.1581 14.1747C33.2012 14.236 33.2575 14.2869 33.3229 14.3235C33.3883 14.3601 33.4611 14.3815 33.5359 14.3863L33.6185 14.4325L33.788 14.4344Z" fill="#7950B7"/>
<path d="M21.6376 55.6859C18.0817 53.7225 15.1888 50.7475 13.3257 47.1381C11.4626 43.5286 10.7131 39.4472 11.1722 35.4113C11.6314 31.3754 13.2785 27.5667 15.9048 24.468C18.5311 21.3693 22.0183 19.1201 25.9244 18.0056C29.8305 16.8911 33.9795 16.9615 37.8455 18.2078C41.7115 19.454 45.1205 21.8201 47.6402 25.0061C50.16 28.1921 51.677 32.0544 51.9991 36.1036C52.3211 40.1528 51.4337 44.2064 49.4493 47.7506C46.8096 52.4869 42.3987 55.9825 37.1846 57.4702C31.9705 58.9579 26.3791 58.3162 21.6376 55.6859ZM41.2963 20.5769C37.8994 18.6472 34.006 17.7696 30.1097 18.0554C26.2134 18.3411 22.4897 19.7774 19.4107 22.182C16.3317 24.5866 14.036 27.8513 12.8146 31.5623C11.5933 35.2732 11.5013 39.2632 12.5504 43.0264C13.5995 46.7897 15.7423 50.1567 18.7073 52.7006C21.6723 55.2445 25.3259 56.8508 29.2049 57.3157C33.0838 57.7807 37.0135 57.0834 40.4957 55.3123C43.9779 53.5411 46.8558 50.7759 48.7645 47.3672C51.3213 42.823 51.9709 37.4501 50.5708 32.4276C49.1707 27.405 45.8352 23.143 41.2963 20.5769Z" fill="#7950B7"/>
<path d="M47.8398 43.7016C47.8139 43.7757 47.7736 43.8439 47.7212 43.9024C47.6688 43.9608 47.6053 44.0083 47.5345 44.0422C47.4637 44.076 47.3868 44.0955 47.3084 44.0995C47.23 44.1036 47.1516 44.0921 47.0777 44.0657L44.9499 43.324C44.8557 43.2668 44.7784 43.1858 44.7258 43.089C44.6732 42.9922 44.6472 42.8832 44.6505 42.7731C44.6539 42.663 44.6863 42.5557 44.7446 42.4623C44.8029 42.3689 44.885 42.2926 44.9824 42.2412C45.1282 42.1767 45.2928 42.1693 45.4438 42.2204L47.5649 42.9739C47.6904 43.0421 47.7872 43.1531 47.8376 43.2866C47.8881 43.4202 47.8889 43.5675 47.8398 43.7016Z" fill="#7950B7"/>
<path d="M46.1504 37.2197L48.2965 37.1809C48.4551 37.1828 48.607 37.2451 48.7212 37.3551C48.8353 37.4652 48.9032 37.6146 48.9109 37.773C48.9124 37.9326 48.8512 38.0864 48.7405 38.2013C48.6297 38.3162 48.4783 38.383 48.3188 38.3874L46.1608 38.4196C46.0559 38.4243 45.9519 38.3984 45.8615 38.345C45.7701 38.2917 45.6934 38.2165 45.6384 38.1262C45.5834 38.0358 45.5518 37.9331 45.5465 37.8275C45.5468 37.6671 45.6104 37.5132 45.7235 37.3994C45.8365 37.2856 45.99 37.221 46.1504 37.2197Z" fill="#7950B7"/>
<path d="M39.5285 23.014C39.6178 22.8988 39.7455 22.8194 39.8884 22.7904C40.0313 22.7614 40.1798 22.7846 40.307 22.8559C40.4342 22.9271 40.5317 23.0416 40.5816 23.1786C40.6315 23.3155 40.6307 23.4659 40.5791 23.6023L39.5215 25.4911C39.4905 25.5731 39.4423 25.6474 39.3799 25.709C39.3176 25.7706 39.2428 25.818 39.1605 25.848C39.0782 25.878 38.9903 25.8899 38.903 25.8828C38.8157 25.8758 38.7309 25.85 38.6545 25.8072C38.578 25.7644 38.5117 25.7056 38.4601 25.6348C38.4085 25.5641 38.3727 25.483 38.3553 25.3971C38.3378 25.3113 38.3391 25.2227 38.3591 25.1374C38.379 25.052 38.4171 24.972 38.4708 24.9028L39.5285 23.014Z" fill="#7950B7"/>
<path d="M19.2289 26.5339L19.3233 26.5867L20.9916 27.9551C21.1163 28.0553 21.1965 28.2004 21.215 28.3593C21.2226 28.5207 21.1722 28.6795 21.0729 28.8069C20.9829 28.9153 20.8575 28.9882 20.7188 29.0128C20.5801 29.0373 20.4372 29.0119 20.3155 28.9411L20.2565 28.908L18.5999 27.5463C18.4775 27.4443 18.3977 27.3001 18.3766 27.1421C18.3661 27.0616 18.3734 26.9798 18.3979 26.9025C18.4225 26.8251 18.4637 26.7541 18.5187 26.6945C18.6026 26.5929 18.7178 26.522 18.8463 26.4929C18.9749 26.4639 19.1094 26.4783 19.2289 26.5339Z" fill="#7950B7"/>
<path d="M15.4893 31.8831C15.5451 31.7341 15.6559 31.612 15.7989 31.5421C15.9418 31.4722 16.1062 31.4597 16.2581 31.5072L18.3792 32.2607C18.4509 32.2927 18.5156 32.3385 18.5696 32.3955C18.6236 32.4525 18.6658 32.5196 18.6939 32.5929C18.7219 32.6662 18.7353 32.7443 18.7332 32.8228C18.731 32.9013 18.7135 32.9785 18.6815 33.0502C18.6495 33.1219 18.6037 33.1866 18.5467 33.2406C18.4897 33.2946 18.4226 33.3368 18.3493 33.3649C18.276 33.3929 18.1979 33.4063 18.1194 33.4042C18.0409 33.402 17.9637 33.3845 17.892 33.3525L15.7642 32.6108C15.6407 32.5406 15.5456 32.4294 15.4954 32.2966C15.4452 32.1637 15.4431 32.0174 15.4893 31.8831Z" fill="#7950B7"/>
<path d="M17.5815 38.1717C17.5265 38.2293 17.4603 38.275 17.387 38.3059C17.3136 38.3369 17.2347 38.3524 17.1551 38.3517L15.009 38.3905C14.8474 38.3926 14.6917 38.3304 14.576 38.2176C14.4603 38.1048 14.3941 37.9507 14.392 37.7892C14.3899 37.6276 14.4521 37.4719 14.5649 37.3562C14.6777 37.2405 14.8318 37.1743 14.9933 37.1722L17.1801 37.1716C17.3396 37.1701 17.4934 37.2313 17.6083 37.3421C17.7232 37.4528 17.7901 37.6042 17.7944 37.7637C17.7878 37.8425 17.7655 37.9191 17.729 37.9891C17.6924 38.0592 17.6423 38.1213 17.5815 38.1717Z" fill="#7950B7"/>
<path d="M24.805 25.6864C24.7135 25.7409 24.6089 25.7699 24.5024 25.7702C24.3958 25.7705 24.2911 25.7423 24.1992 25.6883C24.1089 25.6358 24.0332 25.5615 23.9791 25.4721L22.8722 23.6272C22.8313 23.5585 22.8043 23.4824 22.7928 23.4032C22.7813 23.324 22.7855 23.2434 22.8051 23.1658C22.8248 23.0883 22.8595 23.0154 22.9074 22.9513C22.9552 22.8871 23.0152 22.8331 23.0839 22.7921C23.1527 22.7512 23.2288 22.7242 23.308 22.7127C23.3871 22.7012 23.4678 22.7054 23.5453 22.7251C23.6229 22.7447 23.6958 22.7795 23.7599 22.8273C23.824 22.8751 23.8781 22.9351 23.919 23.0039L25.0194 24.8605C25.099 24.9988 25.1211 25.1628 25.0811 25.3173C25.041 25.4717 24.9419 25.6043 24.805 25.6864Z" fill="#7950B7"/>
<path d="M18.2084 43.2833L16.2148 44.0743C16.1325 44.1044 16.0448 44.1167 15.9574 44.1106C15.87 44.1044 15.7849 44.0798 15.7076 44.0385C15.5841 43.9682 15.4871 43.8594 15.4314 43.7287C15.3778 43.5787 15.3838 43.4139 15.4481 43.2682C15.5124 43.1224 15.6301 43.0069 15.777 42.9453L17.7706 42.1543C17.9212 42.1034 18.0856 42.112 18.2301 42.1785C18.3745 42.245 18.488 42.3642 18.5474 42.5117C18.5758 42.5846 18.5897 42.6624 18.5881 42.7407C18.5864 42.819 18.5694 42.8961 18.5379 42.9678C18.5064 43.0395 18.4611 43.1042 18.4045 43.1584C18.348 43.2125 18.2813 43.255 18.2084 43.2833Z" fill="#7950B7"/>
<path d="M29.3522 24.0457C29.1943 24.0736 29.0318 24.038 28.9 23.9468C28.7682 23.8555 28.6777 23.716 28.6481 23.5585L28.274 21.4572C28.2593 21.3797 28.2601 21.3002 28.2762 21.223C28.2922 21.1458 28.3234 21.0726 28.3678 21.0074C28.4122 20.9423 28.4689 20.8866 28.5349 20.8434C28.6008 20.8002 28.6746 20.7704 28.7521 20.7557C28.8295 20.7411 28.9091 20.7418 28.9863 20.7579C29.0634 20.774 29.1367 20.8051 29.2018 20.8495C29.267 20.8939 29.3227 20.9507 29.3659 21.0166C29.4091 21.0825 29.4389 21.1563 29.4536 21.2338L29.8276 23.3351C29.8542 23.4918 29.8197 23.6528 29.7313 23.785C29.6429 23.9171 29.5072 24.0104 29.3522 24.0457Z" fill="#7950B7"/>
<path d="M20.8472 47.5986L19.2182 49.0124C19.1253 49.0967 19.0082 49.1494 18.8835 49.1632C18.7589 49.1769 18.6331 49.1509 18.5241 49.089L18.347 48.9898C18.2431 48.8686 18.191 48.7115 18.2019 48.5522C18.2127 48.393 18.2857 48.2444 18.405 48.1384L20.0406 46.7128C20.1658 46.6128 20.3247 46.565 20.4843 46.5793C20.6438 46.5935 20.7917 46.6687 20.8972 46.7892C20.9927 46.9055 21.0406 47.0536 21.0313 47.2037C21.022 47.3539 20.9563 47.495 20.8472 47.5986Z" fill="#7950B7"/>
<path d="M34.1856 24.054L34.0085 23.9549C33.901 23.8945 33.8144 23.8029 33.7601 23.6922C33.7058 23.5815 33.6863 23.4569 33.7044 23.3349L34.0466 21.2005C34.0636 21.1194 34.0963 21.0424 34.143 20.9739C34.1897 20.9054 34.2494 20.8468 34.3187 20.8014C34.3881 20.756 34.4657 20.7247 34.5471 20.7093C34.6286 20.6938 34.7122 20.6946 34.7934 20.7115C34.8745 20.7285 34.9515 20.7612 35.02 20.8079C35.0885 20.8546 35.1471 20.9143 35.1925 20.9836C35.238 21.053 35.2693 21.1306 35.2847 21.212C35.3001 21.2935 35.2993 21.3772 35.2824 21.4583L34.9283 23.5861C34.9118 23.6663 34.8792 23.7425 34.8325 23.8098C34.7858 23.8772 34.726 23.9345 34.6566 23.9782C34.5873 24.0219 34.5098 24.0511 34.4288 24.0642C34.3479 24.0772 34.2652 24.0738 34.1856 24.054Z" fill="#7950B7"/>
<path d="M23.7836 52.5457C23.7526 52.6276 23.7043 52.7019 23.642 52.7635C23.5797 52.8251 23.5048 52.8725 23.4225 52.9025C23.3402 52.9325 23.2524 52.9444 23.1651 52.9374C23.0778 52.9303 22.993 52.9045 22.9165 52.8617C22.8401 52.8189 22.7738 52.7601 22.7222 52.6894C22.6705 52.6186 22.6348 52.5375 22.6173 52.4516C22.5999 52.3658 22.6012 52.2772 22.6211 52.1919C22.6411 52.1066 22.6792 52.0266 22.7329 51.9574L23.7905 50.0685C23.8799 49.9533 24.0076 49.874 24.1504 49.845C24.2933 49.8159 24.4419 49.8392 24.5691 49.9104C24.6963 49.9816 24.7937 50.0961 24.8436 50.2331C24.8936 50.3701 24.8927 50.5204 24.8412 50.6568L23.7836 52.5457Z" fill="#7950B7"/>
<path d="M30.4556 39.9376C30.059 39.7248 29.7518 39.3769 29.5899 38.957C29.4279 38.5371 29.4219 38.073 29.573 37.649C29.7241 37.2251 30.0222 36.8693 30.4132 36.6464C30.8042 36.4235 31.2621 36.3483 31.7039 36.4343L35.8617 29.0087C35.9529 28.8906 36.0836 28.8093 36.2298 28.7795C36.376 28.7497 36.528 28.7734 36.6582 28.8463C36.7884 28.9192 36.8881 29.0364 36.939 29.1766C36.99 29.3169 36.9889 29.4707 36.936 29.6102L32.7782 37.0358C33.0814 37.3666 33.2563 37.795 33.2713 38.2436C33.2863 38.6921 33.1404 39.1312 32.86 39.4816C32.5795 39.832 32.183 40.0705 31.7421 40.1542C31.3011 40.2378 30.8448 40.161 30.4556 39.9376Z" fill="#7950B7"/>
<path d="M29.054 54.7369C28.9905 54.784 28.9182 54.8177 28.8413 54.836C28.7644 54.8543 28.6846 54.8567 28.6068 54.8431C28.542 54.8215 28.482 54.7879 28.4297 54.744C28.3199 54.6834 28.232 54.5897 28.1786 54.4763C28.1252 54.3628 28.1089 54.2354 28.1322 54.1122L28.4862 51.9844C28.4977 51.9064 28.5246 51.8314 28.5653 51.7639C28.606 51.6963 28.6597 51.6376 28.7233 51.5909C28.7869 51.5443 28.8592 51.5108 28.9358 51.4923C29.0125 51.4739 29.0921 51.4708 29.1699 51.4834C29.3271 51.5114 29.4669 51.6 29.5594 51.73C29.6519 51.8601 29.6896 52.0213 29.6644 52.1789L29.2787 54.3355C29.2592 54.4935 29.1785 54.6376 29.054 54.7369Z" fill="#7950B7"/>
<path d="M44.8608 27.5038L43.2318 28.9177C43.137 28.9984 43.0202 29.0488 42.8965 29.0625C42.7727 29.0761 42.6477 29.0523 42.5377 28.9942C42.4684 28.9717 42.4042 28.9358 42.3488 28.8884C42.2515 28.7649 42.2047 28.609 42.2177 28.4523C42.2306 28.2956 42.3024 28.1496 42.4186 28.0437L44.0476 26.6298C44.1706 26.5486 44.319 26.5148 44.465 26.5346C44.6111 26.5544 44.745 26.6266 44.8419 26.7377C44.9388 26.8487 44.9922 26.9912 44.992 27.1386C44.9918 27.286 44.9381 27.4284 44.841 27.5392L44.8608 27.5038Z" fill="#7950B7"/>
<path d="M34.5863 54.8263C34.445 54.8567 34.2975 54.8348 34.1712 54.7645C34.0944 54.7216 34.0281 54.6623 33.977 54.5908C33.9259 54.5193 33.8913 54.4373 33.8756 54.3508L33.5015 52.2496C33.479 52.1734 33.4719 52.0935 33.4808 52.0145C33.4896 51.9356 33.5141 51.8592 33.5529 51.7899C33.5918 51.7206 33.644 51.6598 33.7067 51.611C33.7694 51.5622 33.8412 51.5264 33.9179 51.5058C34.0747 51.4793 34.2357 51.5138 34.3679 51.6022C34.5 51.6906 34.5933 51.8263 34.6286 51.9813L34.9961 54.0944C35.0189 54.1693 35.0262 54.2481 35.0178 54.326C35.0094 54.4039 34.9853 54.4792 34.947 54.5476C34.9088 54.6159 34.8571 54.6759 34.7951 54.7237C34.7331 54.7716 34.6621 54.8065 34.5863 54.8263Z" fill="#7950B7"/>
<path d="M47.6112 32.6723L45.6242 33.4516C45.5422 33.4834 45.4543 33.4967 45.3666 33.4905C45.2789 33.4843 45.1937 33.4588 45.117 33.4157C44.9953 33.3433 44.8989 33.2351 44.8408 33.106C44.799 32.9522 44.8193 32.7881 44.8971 32.6491C44.975 32.51 45.1043 32.407 45.2572 32.3622L47.2442 31.583C47.3201 31.5439 47.4034 31.5212 47.4886 31.5164C47.5738 31.5116 47.6591 31.5248 47.7389 31.5551C47.8188 31.5853 47.8913 31.6321 47.9519 31.6922C48.0125 31.7524 48.0597 31.8246 48.0906 31.9042C48.1215 31.9838 48.1352 32.069 48.131 32.1542C48.1268 32.2395 48.1048 32.3229 48.0662 32.3991C48.0277 32.4753 47.9736 32.5425 47.9074 32.5964C47.8412 32.6503 47.7644 32.6897 47.682 32.712L47.6112 32.6723Z" fill="#7950B7"/>
<path d="M40.219 52.7701C40.1275 52.8246 40.0229 52.8535 39.9164 52.8538C39.8098 52.8542 39.7051 52.8259 39.6132 52.772C39.5229 52.7195 39.4472 52.6451 39.3931 52.5557L38.2862 50.7109C38.2095 50.5737 38.1888 50.4121 38.2286 50.2599C38.2496 50.0976 38.3325 49.9496 38.4599 49.8468C38.599 49.7705 38.7619 49.7503 38.9154 49.7901C39.0689 49.83 39.2014 49.9269 39.2858 50.0611L40.3861 51.9177C40.4318 51.9844 40.4638 52.0596 40.4801 52.1388C40.4965 52.2179 40.4969 52.2996 40.4813 52.3789C40.4657 52.4583 40.4345 52.5337 40.3895 52.6009C40.3445 52.668 40.2865 52.7255 40.219 52.7701Z" fill="#7950B7"/>
<path d="M44.0701 49.0494L43.9756 48.9965L42.3309 47.6414C42.2119 47.5368 42.1384 47.3899 42.1259 47.232C42.1146 47.1537 42.1198 47.0739 42.1411 46.9977C42.1624 46.9215 42.1993 46.8506 42.2496 46.7895C42.3399 46.6799 42.4657 46.6053 42.6053 46.5787C42.7448 46.552 42.8893 46.575 43.0136 46.6436L43.1081 46.6965L44.7646 48.0582C44.8275 48.1068 44.8797 48.1677 44.9181 48.2372C44.9565 48.3067 44.9803 48.3833 44.988 48.4624C45.0014 48.5722 44.984 48.6835 44.9378 48.7839C44.8915 48.8843 44.8181 48.9699 44.726 49.031C44.6338 49.092 44.5265 49.1263 44.416 49.1298C44.3054 49.1333 44.1961 49.1059 44.1003 49.0508L44.0701 49.0494Z" fill="#7950B7"/>
</svg>
