<svg width="288" height="131" viewBox="0 0 288 131" fill="none" xmlns="http://www.w3.org/2000/svg">
<path d="M285.839 130L238.705 128.361C236.766 128.291 234.825 128.291 232.883 128.361L189 130L190.944 68.3542C191.02 66.0205 191.02 63.6822 190.944 61.3393L189 3.17593H285.839V130Z" fill="black" stroke="black" stroke-width="0.455219" stroke-linecap="round" stroke-linejoin="round"/>
<path d="M287.396 1H190.534V127.824H287.396V1Z" fill="white" stroke="black" stroke-width="0.455219" stroke-linecap="round" stroke-linejoin="round"/>
<path d="M280.954 35.5602H196.971V120.577H280.954V35.5602Z" fill="white" stroke="black" stroke-width="0.455219" stroke-linecap="round" stroke-linejoin="round"/>
<path d="M197.758 22.8551V7.31389H202.311C203.102 7.28016 203.887 7.45771 204.587 7.82829C205.169 8.1752 205.62 8.70496 205.87 9.33507C206.173 10.1025 206.319 10.923 206.298 11.7477C206.335 12.5949 206.157 13.4376 205.779 14.1968C205.46 14.7985 204.951 15.2784 204.332 15.5625C203.638 15.8597 202.888 16.0041 202.133 15.9858H200.599V22.8551H197.758ZM200.599 13.951H201.673C202.085 13.9698 202.496 13.8951 202.875 13.7325C203.016 13.6592 203.141 13.5587 203.242 13.4368C203.344 13.3149 203.42 13.174 203.467 13.0223C203.59 12.595 203.645 12.1511 203.631 11.7068C203.64 11.2484 203.599 10.7904 203.508 10.3411C203.477 10.1814 203.413 10.0298 203.32 9.8959C203.228 9.76197 203.109 9.64853 202.971 9.56268C202.567 9.36807 202.12 9.28178 201.673 9.31231H200.599V13.951Z" fill="#3B2063"/>
<path d="M201.214 30.3571L204.341 22.104L201.309 14.8204H203.959L205.971 19.6367L207.737 14.8204H210.195L207.209 22.6411L210.432 30.3571H207.782L205.57 25.1357L203.649 30.3571H201.214Z" fill="#3B2063"/>
<path d="M244.773 12.1073H280.677" stroke="black" stroke-width="0.455219" stroke-linecap="round" stroke-linejoin="round"/>
<path d="M244.773 19.8552H280.677" stroke="black" stroke-width="0.455219" stroke-linecap="round" stroke-linejoin="round"/>
<path d="M252.521 16.4957H280.677" stroke="black" stroke-width="0.455219" stroke-linecap="round" stroke-linejoin="round"/>
<path d="M252.521 23.4696H280.677" stroke="black" stroke-width="0.455219" stroke-linecap="round" stroke-linejoin="round"/>
<path d="M199.83 44.9104H227.985" stroke="black" stroke-width="0.455219" stroke-linecap="round" stroke-linejoin="round"/>
<path d="M199.83 52.2622H227.985" stroke="black" stroke-width="0.455219" stroke-linecap="round" stroke-linejoin="round"/>
<path d="M199.83 48.7115H242.452" stroke="black" stroke-width="0.455219" stroke-linecap="round" stroke-linejoin="round"/>
<path d="M199.83 61.2209H227.985" stroke="black" stroke-width="0.455219" stroke-linecap="round" stroke-linejoin="round"/>
<path d="M199.83 68.5728H227.985" stroke="black" stroke-width="0.455219" stroke-linecap="round" stroke-linejoin="round"/>
<path d="M199.83 65.0175H242.452" stroke="black" stroke-width="0.455219" stroke-linecap="round" stroke-linejoin="round"/>
<path d="M199.229 115.997H225.918" stroke="black" stroke-width="0.455219" stroke-linecap="round" stroke-linejoin="round"/>
<path d="M249.84 115.997H276.53" stroke="black" stroke-width="0.455219" stroke-linecap="round" stroke-linejoin="round"/>
<path d="M202.993 86.6905C201.397 87.7026 200.137 89.1651 199.372 90.8933C198.606 92.6214 198.371 94.5377 198.694 96.3998C199.018 98.2619 199.886 99.9864 201.189 101.355C202.492 102.724 204.172 103.676 206.016 104.091C207.86 104.505 209.785 104.364 211.549 103.685C213.313 103.005 214.835 101.818 215.925 100.274C217.014 98.7292 217.621 96.8965 217.669 95.007C217.717 93.1176 217.204 91.2564 216.195 89.6585C214.834 87.5183 212.681 86.0044 210.207 85.4481C207.733 84.8918 205.139 85.3385 202.993 86.6905ZM212.166 101.166C210.904 101.967 209.433 102.376 207.938 102.34C206.444 102.305 204.994 101.827 203.771 100.967C202.548 100.107 201.608 98.9039 201.069 97.5095C200.53 96.1152 200.417 94.5925 200.744 93.1338C201.071 91.6752 201.823 90.3462 202.905 89.315C203.987 88.2839 205.351 87.5968 206.823 87.3407C208.296 87.0847 209.812 87.2712 211.178 87.8766C212.545 88.482 213.701 89.4792 214.501 90.7419C215.573 92.4342 215.93 94.4828 215.492 96.4376C215.054 98.3923 213.858 100.093 212.166 101.166Z" fill="#3B2063"/>
<path d="M211.669 91.6588L203.529 96.8169L204.36 98.1282L212.5 92.9701L211.669 91.6588Z" fill="#3B2063"/>
<path d="M203.503 112.966C203.503 112.966 203.635 116.002 207.6 110.594C211.565 105.186 211.033 105.587 209.977 108.614C209.169 110.713 208.098 112.702 206.79 114.532C206.79 114.532 211.538 107.011 211.538 109.124C211.538 111.236 207.054 120.204 207.978 119.412C208.902 118.62 211.802 114.664 211.802 114.664C211.802 114.664 211.406 117.304 212.462 116.116C213.518 114.928 214.706 112.556 214.574 113.872C214.442 115.187 212.726 116.776 214.442 115.192C216.158 113.608 217.479 111.632 217.082 113.08C216.686 114.527 215.63 115.06 216.686 114.532C217.743 114.004 223.679 104.112 221.83 105.3C219.982 106.488 216.564 116.794 218.134 115.993C219.705 115.192 221.566 111.245 221.434 113.221C221.302 115.196 221.83 115.201 222.345 114.541" stroke="black" stroke-width="0.455219" stroke-linecap="round" stroke-linejoin="round"/>
<path d="M179 124.339H1" stroke="black" stroke-width="0.389889" stroke-linecap="round" stroke-linejoin="round"/>
<path d="M179 128.067H1" stroke="black" stroke-width="0.389889" stroke-linecap="round" stroke-linejoin="round"/>
<path d="M169.237 83.2255H131.496C130.9 83.2257 130.324 83.44 129.873 83.8294C129.422 84.2187 129.127 84.7572 129.04 85.3465L123.398 123.946H168.29L171.717 85.9158C171.747 85.5727 171.705 85.2273 171.593 84.9014C171.482 84.5756 171.304 84.2765 171.071 84.0233C170.837 83.7701 170.554 83.5684 170.238 83.4311C169.922 83.2937 169.581 83.2237 169.237 83.2255Z" fill="black" stroke="black" stroke-width="0.389889" stroke-linecap="round" stroke-linejoin="round"/>
<path d="M118.162 76.9249C118.162 76.9249 107.95 81.9935 104.445 83.3932C100.94 84.7929 100.079 85.4206 99.7667 86.2784C99.4548 87.1361 85.8009 108.568 84.2413 110.514C82.6818 112.459 79.3404 116.674 79.8083 119.555C80.2762 122.437 84.0191 124.932 87.6061 124.854C91.193 124.776 93.4544 124.074 93.8443 123.064C94.2342 122.055 104.133 104.35 104.133 104.35L107.245 124.082H147.068C147.068 124.082 150.187 97.1173 150.187 93.1443C150.187 89.1714 150.967 84.4927 149.329 83.479C147.692 82.4653 140.916 80.1298 135.925 78.4923C130.934 76.8548 129.379 76.5428 128.209 76.5428C127.039 76.5428 118.162 76.9249 118.162 76.9249Z" fill="white" stroke="black" stroke-width="0.389889" stroke-linecap="round" stroke-linejoin="round"/>
<path d="M117.062 77.0809C117.062 77.0809 115.737 79.5762 115.659 81.5997C115.581 83.6232 115.269 87.3701 114.099 89.6275C112.929 91.885 112.076 93.1365 112.699 92.9026C113.323 92.6687 116.906 88.6918 117.296 87.834C117.686 86.9763 118.31 88.6138 118.31 88.6138C118.31 88.6138 117.14 91.9669 116.984 92.4347C116.828 92.9026 121.893 99.3709 121.893 99.3709C121.893 99.3709 126.26 95.9398 127.273 95.1601C128.287 94.3803 127.971 93.7604 128.053 92.7466C128.135 91.7329 128.443 90.2513 128.989 89.3936C129.535 88.5358 131.094 91.8889 132.186 93.4484C133.278 95.008 134.369 95.5499 134.213 94.3842C134.057 93.2184 133.512 90.9531 133.122 86.9763C132.732 82.9994 132.81 78.2467 131.796 76.7651C130.782 75.2835 125.464 74.9911 121.975 74.7377C118.485 74.4842 117.062 77.0809 117.062 77.0809Z" fill="white" stroke="black" stroke-width="0.389889" stroke-linecap="round" stroke-linejoin="round"/>
<path d="M101.318 90.3371L104.126 104.358L100.5 95.0353" stroke="black" stroke-width="0.389889" stroke-linecap="round" stroke-linejoin="round"/>
<path d="M117.452 80.8043C117.452 80.8043 118.544 86.8866 119.557 91.5614C120.113 94.2226 120.896 96.8314 121.897 99.3591C121.897 99.3591 127.043 90.7075 128.525 86.1887C129.367 83.6956 130.018 81.1423 130.474 78.5508H117.452V80.8043Z" stroke="black" stroke-width="0.389889" stroke-linecap="round" stroke-linejoin="round"/>
<path d="M123.141 82.9253L120.333 86.4343L122.283 90.1734L120.365 94.8403C120.788 96.3847 121.298 97.9038 121.893 99.3903C121.893 99.3903 123.499 96.6923 125.172 93.5225L123.764 90.2708L125.48 86.3719L123.141 82.9253Z" fill="#2DC7BD" stroke="black" stroke-width="0.389889" stroke-linecap="round" stroke-linejoin="round"/>
<path d="M117.452 78.5625V80.8043C117.452 80.8043 118.205 84.9995 119.039 89.1012L122.985 84.9371L127.129 89.5612C127.65 88.4679 128.108 87.3458 128.502 86.2004C129.343 83.7073 129.995 81.154 130.451 78.5625H117.452Z" fill="white" stroke="black" stroke-width="0.389889" stroke-linecap="round" stroke-linejoin="round"/>
<path d="M83.4615 112.822C83.4615 112.822 90.7408 110.167 94.6669 116.635" stroke="black" stroke-width="0.389889" stroke-linecap="round" stroke-linejoin="round"/>
<path d="M94.8034 114.639C94.8034 114.639 90.7408 115.559 88.5652 119.025C86.3896 122.491 90.811 122.873 92.0313 122.873C93.2517 122.873 94.4057 122.059 94.4681 121.634C94.5305 121.209 96.1368 117.099 96.0745 116.136C96.0663 115.779 95.9356 115.435 95.7042 115.162C95.4728 114.89 95.1548 114.705 94.8034 114.639Z" fill="white" stroke="black" stroke-width="0.389889" stroke-linecap="round" stroke-linejoin="round"/>
<path d="M92.9319 116.074C92.9319 116.074 90.6862 118.023 90.8382 118.803C90.9903 119.583 94.3472 122.589 94.9711 122.156C95.0871 122.097 95.1904 122.016 95.275 121.917C95.3596 121.818 95.4238 121.703 95.464 121.579C95.5042 121.455 95.5196 121.325 95.5092 121.195C95.4989 121.065 95.4631 120.939 95.4038 120.823C95.2206 120.526 92.9319 116.074 92.9319 116.074Z" fill="white" stroke="black" stroke-width="0.389889" stroke-linecap="round" stroke-linejoin="round"/>
<path d="M90.8382 118.791C90.8382 118.791 89.5126 120.203 89.9493 120.846C90.386 121.489 93.4037 123.127 94.1874 122.636C94.9711 122.144 94.4603 121.634 94.4603 121.634L90.8382 118.791Z" fill="white" stroke="black" stroke-width="0.389889" stroke-linecap="round" stroke-linejoin="round"/>
<path d="M98.5931 115.996L95.8873 115.528L96.5228 119.423L99.2871 119.509L98.5931 115.996Z" fill="white" stroke="black" stroke-width="0.389889" stroke-linecap="round" stroke-linejoin="round"/>
<path d="M93.7234 109.874L96.8932 120.963L98.4528 122.367V120.39L95.0998 109.473C95.0719 109.382 95.0262 109.298 94.9653 109.226C94.9045 109.153 94.8297 109.093 94.7454 109.05C94.661 109.007 94.5689 108.981 94.4744 108.974C94.38 108.967 94.285 108.979 94.1952 109.009C94.0192 109.063 93.8713 109.184 93.7831 109.346C93.695 109.507 93.6736 109.697 93.7234 109.874Z" fill="black" stroke="black" stroke-width="0.389889" stroke-linecap="round" stroke-linejoin="round"/>
<path d="M94.8034 114.639C94.8034 114.639 92.9358 115.735 93.123 116.561C93.3101 117.388 95.3298 121.279 96.0588 121.329C96.7879 121.38 97.2285 120.92 97.1232 120.097C97.018 119.275 96.3435 116.198 95.8873 115.528C95.4311 114.857 95.3804 114.596 94.8034 114.639Z" fill="white" stroke="black" stroke-width="0.389889" stroke-linecap="round" stroke-linejoin="round"/>
<path d="M98.5931 115.996C98.5931 115.996 100.585 116.249 100.932 116.857C101.279 117.466 99.8837 119.887 99.4431 120.444C99.0025 121.002 98.2032 120.971 98.1799 119.571C98.2174 118.37 98.3556 117.174 98.5931 115.996Z" fill="white" stroke="black" stroke-width="0.389889" stroke-linecap="round" stroke-linejoin="round"/>
<path d="M87.8166 120.686H109.678C110.289 120.687 110.875 120.931 111.307 121.364C111.739 121.796 111.982 122.383 111.982 122.994C111.982 123.511 111.777 124.007 111.411 124.373C111.045 124.738 110.55 124.944 110.032 124.944H88.1402C87.6646 124.944 87.2084 124.755 86.872 124.418C86.5357 124.082 86.3467 123.626 86.3467 123.15V122.172C86.3477 121.781 86.5024 121.406 86.7774 121.128C87.0524 120.85 87.4257 120.691 87.8166 120.686Z" fill="white" stroke="black" stroke-width="0.389889" stroke-linecap="round" stroke-linejoin="round"/>
<path d="M126.739 115.66C126.739 115.66 121.047 115.037 119.647 114.569C118.247 114.101 115.982 113.711 115.202 114.335C114.423 114.959 110.606 119.403 110.524 119.945C110.442 120.487 109.666 122.285 110.056 122.753C110.383 123.078 110.784 123.319 111.226 123.454C111.226 123.454 116.294 124.854 116.836 124.932C117.378 125.01 122.603 124.776 122.603 124.776L125.332 123.762L129.149 123.684C129.149 123.684 129.227 124.932 129.305 121.895C129.383 118.858 126.739 115.66 126.739 115.66Z" fill="white" stroke="black" stroke-width="0.389889" stroke-linecap="round" stroke-linejoin="round"/>
<path d="M111.218 123.454C111.218 123.454 111.296 121.661 111.686 120.881C112.076 120.101 116.516 116.128 116.516 116.128" stroke="black" stroke-width="0.389889" stroke-linecap="round" stroke-linejoin="round"/>
<path d="M112.703 123.918C112.703 123.918 113.483 121.969 113.791 121.817C114.099 121.665 117.768 119.321 117.768 119.321" stroke="black" stroke-width="0.389889" stroke-linecap="round" stroke-linejoin="round"/>
<path d="M115.347 124.472C115.347 124.472 115.503 123.692 115.893 123.54C116.282 123.388 119.557 121.903 119.557 121.903" stroke="black" stroke-width="0.389889" stroke-linecap="round" stroke-linejoin="round"/>
<path d="M118.856 124.854L120.333 124.464L120.181 123.766L118.622 124.152" stroke="black" stroke-width="0.389889" stroke-linecap="round" stroke-linejoin="round"/>
<path d="M144.573 90.5516C144.573 90.5516 140.444 99.2032 140.674 102.248C140.904 105.293 141.918 110.354 141.918 110.354C141.918 110.354 135.371 112.927 133.114 113.863C130.856 114.799 126.739 115.66 126.739 115.66L128.841 123.918L128.529 124.776H151.209C151.209 124.776 152.924 124.464 153.236 124.074C153.548 123.684 153.86 123.532 154.016 122.285C154.172 121.037 155.186 110.124 154.952 107.079C154.718 104.034 151.521 88.2161 151.131 86.5825C150.741 84.9489 150.039 83.8533 149.337 83.4634C148.635 83.0735 145.598 82.7616 145.598 82.7616" fill="white"/>
<path d="M144.573 90.5516C144.573 90.5516 140.444 99.2032 140.674 102.248C140.904 105.293 141.918 110.354 141.918 110.354C141.918 110.354 135.371 112.927 133.114 113.863C130.856 114.799 126.739 115.66 126.739 115.66L128.841 123.918L128.529 124.776H151.209C151.209 124.776 152.924 124.464 153.236 124.074C153.548 123.684 153.86 123.532 154.016 122.285C154.172 121.037 155.186 110.124 154.952 107.079C154.718 104.034 151.521 88.2161 151.131 86.5825C150.741 84.9489 150.039 83.8533 149.337 83.4634C148.635 83.0735 145.598 82.7616 145.598 82.7616" stroke="black" stroke-width="0.389889" stroke-linecap="round" stroke-linejoin="round"/>
<path d="M142.467 110.514C142.467 110.514 148.472 110.826 151.435 112.697" stroke="black" stroke-width="0.389889" stroke-linecap="round" stroke-linejoin="round"/>
<path d="M143.559 109.734C143.559 109.734 147.77 109.5 150.027 110.202" stroke="black" stroke-width="0.389889" stroke-linecap="round" stroke-linejoin="round"/>
<path d="M142.389 90.3293C142.389 90.3293 140.288 95.238 140.21 97.1095C140.132 98.981 139.976 100.073 139.976 100.073" stroke="black" stroke-width="0.389889" stroke-linecap="round" stroke-linejoin="round"/>
<path d="M132.806 77.3148C132.806 77.3148 137.559 84.095 133.742 102.954" stroke="black" stroke-width="0.779778" stroke-linecap="round" stroke-linejoin="round"/>
<path d="M135.999 103.5C135.999 103.037 135.862 102.585 135.605 102.2C135.348 101.815 134.982 101.516 134.555 101.339C134.128 101.161 133.657 101.115 133.203 101.205C132.75 101.296 132.333 101.518 132.006 101.846C131.678 102.173 131.456 102.59 131.365 103.043C131.275 103.497 131.321 103.968 131.499 104.395C131.676 104.822 131.975 105.188 132.36 105.445C132.745 105.702 133.197 105.839 133.66 105.839C134.28 105.839 134.875 105.593 135.314 105.154C135.753 104.715 135.999 104.12 135.999 103.5Z" fill="white" stroke="black" stroke-width="0.389889" stroke-linecap="round" stroke-linejoin="round"/>
<path d="M116.602 78.0166C116.602 78.0166 114.185 79.5762 113.795 85.8885" stroke="black" stroke-width="0.779778" stroke-linecap="round" stroke-linejoin="round"/>
<path d="M117.132 95.4525C116.544 99.7101 115.74 104.283 115.573 105.285C115.183 107.426 112.637 108.178 110.999 107.477" stroke="black" stroke-width="0.779778" stroke-linecap="round" stroke-linejoin="round"/>
<path d="M111.027 95.7332C110.493 93.3432 110.165 91.2729 110.282 90.3293C110.828 85.9665 113.791 85.8885 113.791 85.8885C113.791 85.8885 117.3 86.3563 117.534 90.0954C117.558 91.889 117.428 93.6813 117.144 95.4525" stroke="black" stroke-width="0.779778" stroke-linecap="round" stroke-linejoin="round"/>
<path d="M117.608 107.165C117.608 107.165 115.971 108.1 114.879 107.477C114.142 107.056 112.15 100.704 111.027 95.7332" stroke="black" stroke-width="0.779778" stroke-linecap="round" stroke-linejoin="round"/>
<path d="M118.181 106.318L117.537 106.596C117.226 106.73 117.083 107.09 117.217 107.4L117.225 107.418C117.358 107.729 117.719 107.872 118.029 107.738L118.674 107.46C118.984 107.326 119.127 106.966 118.993 106.656L118.986 106.638C118.852 106.327 118.492 106.184 118.181 106.318Z" stroke="black" stroke-width="0.389889" stroke-linecap="round" stroke-linejoin="round"/>
<path d="M111.202 106.74L110.6 106.379C110.31 106.205 109.934 106.299 109.76 106.588L109.75 106.605C109.576 106.895 109.67 107.271 109.96 107.445L110.561 107.806C110.851 107.98 111.227 107.887 111.401 107.597L111.411 107.58C111.585 107.29 111.492 106.914 111.202 106.74Z" stroke="black" stroke-width="0.389889" stroke-linecap="round" stroke-linejoin="round"/>
<path d="M113.787 59.1538C113.787 59.1538 112.543 62.117 112.777 63.9884C113.011 65.8599 115.507 67.8873 115.507 67.8873C115.507 67.8873 116.364 59.5476 116.364 59.2357C116.364 58.9238 114.801 58.222 113.787 59.1538Z" fill="black" stroke="black" stroke-width="0.389889" stroke-linecap="round" stroke-linejoin="round"/>
<path d="M112.894 69.7588L114.551 68.6008" stroke="black" stroke-width="0.779778" stroke-linecap="round" stroke-linejoin="round"/>
<path d="M114.723 59.6996C114.723 59.6996 114.411 67.9614 114.567 69.5209C114.723 71.0805 115.347 76.0672 115.893 77.6267C116.438 79.1863 118.232 84.173 119.635 84.7188C121.039 85.2647 123.842 85.6545 124.778 85.0307C125.714 84.4069 129.141 82.0676 130.077 79.8101C130.632 78.4902 130.999 77.0991 131.168 75.6773C131.946 75.2626 132.618 74.6744 133.132 73.9584C133.645 73.2424 133.988 72.4178 134.132 71.5484C134.599 68.5852 133.352 67.7274 133.352 67.7274L133.43 62.5848C133.43 62.5848 132.572 58.9978 130.311 57.0523C128.049 55.1067 125.402 54.9469 122.673 56.4285C119.943 57.91 114.723 59.6996 114.723 59.6996Z" fill="white" stroke="black" stroke-width="0.389889" stroke-linecap="round" stroke-linejoin="round"/>
<path d="M129.375 59.2318C129.375 59.2318 129.453 57.2082 127.503 57.91C125.554 58.6118 125.09 59.9336 122.205 61.1032C119.32 62.2729 115.503 60.9473 114.177 60.1675C112.851 59.3877 111.92 58.2999 113.709 56.2686C115.499 54.2373 119.713 52.2138 124.236 52.2138C128.759 52.2138 132.264 55.9567 133.746 57.5162C135.227 59.0758 135.457 61.0252 134.915 62.4249C134.373 63.8246 133.356 67.7236 133.356 67.7236C133.356 67.7236 132.732 67.6456 132.498 68.5813C132.264 69.517 132.342 70.5308 131.328 70.6087C130.315 70.6867 130.393 67.9575 130.393 67.9575C130.393 67.9575 127.897 67.1777 127.585 65.3881C127.273 63.5985 129.375 60.9473 129.375 59.2318Z" fill="black" stroke="black" stroke-width="0.389889" stroke-linecap="round" stroke-linejoin="round"/>
<path d="M120.111 71.0259L112.902 69.7588L113.319 72.9909C113.346 73.1915 113.436 73.3782 113.576 73.5241C113.717 73.6699 113.9 73.7672 114.099 73.8019L118.477 74.492C118.719 74.53 118.965 74.4734 119.166 74.3339C119.366 74.1944 119.505 73.9829 119.554 73.7434L120.111 71.0259Z" stroke="black" stroke-width="0.779778" stroke-linecap="round" stroke-linejoin="round"/>
<path d="M121.406 71.1663L129.765 70.9245L128.946 73.9501C128.875 74.1535 128.741 74.3284 128.562 74.4486C128.383 74.5689 128.171 74.6279 127.956 74.6168L122.887 74.687C122.624 74.7054 122.364 74.629 122.153 74.4716C121.942 74.3142 121.794 74.0862 121.737 73.8292L121.406 71.1663Z" stroke="black" stroke-width="0.779778" stroke-linecap="round" stroke-linejoin="round"/>
<path d="M120.103 71.0259L121.406 71.1663" stroke="black" stroke-width="0.779778" stroke-linecap="round" stroke-linejoin="round"/>
<path d="M129.765 70.9245L132.494 68.5852" stroke="black" stroke-width="0.779778" stroke-linecap="round" stroke-linejoin="round"/>
<path d="M122.517 70.2227C122.517 70.2227 124.856 68.4293 127.039 69.521" stroke="black" stroke-width="0.779778" stroke-linecap="round" stroke-linejoin="round"/>
<path d="M119.012 69.8328C119.012 69.8328 117.218 67.8834 115.191 69.209" stroke="black" stroke-width="0.779778" stroke-linecap="round" stroke-linejoin="round"/>
<path d="M119.479 76.613C119.479 76.613 119.09 78.2506 119.479 78.5625C120.143 78.9291 120.909 79.0662 121.659 78.9524" stroke="black" stroke-width="0.389889" stroke-linecap="round" stroke-linejoin="round"/>
<path d="M118.31 79.8101C118.31 79.8101 119.869 80.9798 121.347 81.0539C122.825 81.1279 124.544 80.044 124.544 80.044" stroke="black" stroke-width="0.389889" stroke-linecap="round" stroke-linejoin="round"/>
<path d="M124.076 71.8603C124.076 71.8603 125.012 72.952 126.572 71.7823" stroke="black" stroke-width="0.389889" stroke-linecap="round" stroke-linejoin="round"/>
<path d="M116.399 71.3768C116.399 71.3768 117.179 72.5855 118.879 71.6419" stroke="black" stroke-width="0.389889" stroke-linecap="round" stroke-linejoin="round"/>
<path d="M68.0375 59.224C68.0375 59.224 68.5327 66.6553 68.1623 67.2713L67.0472 69.1311C67.0472 69.1311 67.5424 74.453 66.5521 75.073C65.7849 75.4835 64.9429 75.7355 64.0763 75.8138C64.0763 75.8138 63.0859 79.7789 62.7155 80.2741C62.3451 80.7693 60.115 82.3756 59.3742 82.6134C58.6334 82.8513 56.2785 82.9838 50.707 79.6425C45.1354 76.3011 43.03 75.186 43.1548 73.3263C43.2796 71.4665 43.5252 69.365 43.5252 69.365C43.5252 69.365 44.1451 60.4521 45.2602 57.7268C46.3753 55.0015 60.4893 53.5199 63.585 54.2607C66.6807 55.0015 68.0375 59.224 68.0375 59.224Z" fill="white" stroke="black" stroke-width="0.389889" stroke-linecap="round" stroke-linejoin="round"/>
<path d="M53.6779 71.4821L54.5435 72.102C54.5435 72.102 53.8027 75.073 54.1536 76.4337" stroke="black" stroke-width="0.389889" stroke-linecap="round" stroke-linejoin="round"/>
<path d="M66.0569 68.9946C65.9321 69.5599 65.6319 69.9771 65.3902 69.9225C65.1485 69.8679 65.051 69.365 65.1797 68.7996C65.3083 68.2343 65.6046 67.8171 65.8464 67.8717C66.0881 67.9263 66.1817 68.4292 66.0569 68.9946Z" fill="black"/>
<path d="M64.7937 66.7215C64.7937 66.7215 66.1427 65.3686 67.2695 66.6475" stroke="black" stroke-width="0.389889" stroke-linecap="round" stroke-linejoin="round"/>
<path d="M63.0859 58.2336C63.0859 58.2336 64.6962 61.2085 64.5714 61.8245C64.4466 62.4406 59.3742 63.9299 59.3742 63.9299C59.3742 63.9299 58.879 66.9009 58.1343 67.2713L57.3935 67.6612C56.8008 66.8538 56.3024 65.9813 55.9081 65.0606C55.0386 63.2047 53.8027 62.7213 52.442 64.5655C51.0812 66.4096 52.1924 70.7569 52.9371 71.1273L53.6779 71.4977C53.6779 71.4977 53.058 72.1176 50.7069 72.488C48.3559 72.8584 46.6209 73.3535 44.8898 72.8584C43.1587 72.3632 40.679 67.6612 39.8212 61.5945C38.9635 55.5278 41.6771 50.3267 45.2797 48.7282C48.8823 47.1296 57.0388 48.6073 57.6587 48.9777C58.2786 49.3481 62.4894 47.3674 64.9652 48.5878C67.441 49.8081 67.3045 51.1884 67.9361 52.0539C68.5678 52.9195 71.7727 51.8044 72.0222 54.9001C72.2717 57.9958 71.0319 59.8517 69.4216 60.1012C67.8114 60.3507 63.0859 58.2336 63.0859 58.2336Z" fill="black" stroke="black" stroke-width="0.389889" stroke-linecap="round" stroke-linejoin="round"/>
<path d="M33.7702 77.6852C33.7702 77.6852 21.9058 84.0131 19.6484 85.2569C17.3909 86.5006 17.0478 87.6313 16.9192 88.7659C16.7905 89.9004 16.9192 128.09 16.9192 128.09H81.0052C81.0052 128.09 71.2853 98.9147 70.9461 95.6201C70.6069 92.3256 69.9285 86.5825 69.0278 85.9041C68.1272 85.2257 55.3544 79.5762 55.3544 79.5762C55.3544 79.5762 52.3016 76.2972 45.0731 76.2972C37.8445 76.2972 33.7702 77.6852 33.7702 77.6852Z" fill="#7950B7" stroke="white" stroke-width="0.389889" stroke-linecap="round" stroke-linejoin="round"/>
<path d="M41.1196 100.923C41.4549 101.055 41.7902 101.176 42.1333 101.285" stroke="white" stroke-width="0.389889" stroke-linecap="round" stroke-linejoin="round"/>
<path d="M28.4599 90.4385C28.4599 90.4385 33.1386 96.9691 39.5288 100.186" stroke="white" stroke-width="0.389889" stroke-linecap="round" stroke-linejoin="round"/>
<path d="M32.5303 98.0101C32.5303 98.0101 35.127 100.607 40.5504 102.077" stroke="white" stroke-width="0.389889" stroke-linecap="round" stroke-linejoin="round"/>
<path d="M64.7235 88.645C62.9183 90.6958 60.3762 93.9748 59.534 96.9925" stroke="white" stroke-width="0.389889" stroke-linecap="round" stroke-linejoin="round"/>
<path d="M66.6534 86.5981C66.6534 86.5981 66.2947 86.9451 65.7333 87.5377" stroke="white" stroke-width="0.389889" stroke-linecap="round" stroke-linejoin="round"/>
<path d="M60.2125 93.3783C60.2125 93.3783 58.5164 96.6533 58.1772 98.6885" stroke="white" stroke-width="0.389889" stroke-linecap="round" stroke-linejoin="round"/>
<path d="M33.0918 78.235C33.0918 78.235 39.6458 78.0088 45.8606 78.1219C52.0755 78.235 56.1459 80.1571 56.1459 80.1571C56.1459 80.1571 52.4147 75.6383 50.7226 74.6207C49.0304 73.6031 43.8293 71.8915 39.5327 73.2639C36.8906 74.1546 34.623 75.9048 33.0918 78.235Z" fill="#34175F" stroke="white" stroke-width="0.389889" stroke-linecap="round" stroke-linejoin="round"/>
<path d="M14.6072 128.257L8.61395 105.338C8.55643 105.06 8.56183 104.772 8.62979 104.495C8.69774 104.219 8.82653 103.962 9.00681 103.741C9.18709 103.521 9.41434 103.343 9.67207 103.221C9.9298 103.099 10.2115 103.036 10.4969 103.036H58.2115C58.6496 103.036 59.0746 103.185 59.4157 103.459C59.7568 103.733 59.9936 104.115 60.0866 104.542L65.383 128.284" fill="black"/>
<path d="M14.6072 128.257L8.61395 105.338C8.55643 105.06 8.56183 104.772 8.62979 104.495C8.69774 104.219 8.82653 103.962 9.00681 103.741C9.18709 103.521 9.41434 103.343 9.67207 103.221C9.9298 103.099 10.2115 103.036 10.4969 103.036H58.2115C58.6496 103.036 59.0746 103.185 59.4157 103.459C59.7568 103.733 59.9936 104.115 60.0866 104.542L65.383 128.284" stroke="black" stroke-width="0.389889" stroke-linecap="round" stroke-linejoin="round"/>
</svg>
