<svg width="50" height="41" viewBox="0 0 50 41" fill="none" xmlns="http://www.w3.org/2000/svg">
<path d="M40.6029 40.6957C40.3225 40.6919 40.0466 40.6243 39.7961 40.4981C39.5457 40.3719 39.3272 40.1904 39.1572 39.9672C38.7763 39.4988 38.5703 38.9124 38.5745 38.3086V25.006C38.537 24.4239 38.7279 23.8501 39.1066 23.4065C39.4854 22.9628 40.0221 22.6843 40.6029 22.6301H43.2926C43.5734 22.6342 43.8498 22.7006 44.1018 22.8247C44.3538 22.9487 44.575 23.1273 44.7495 23.3474C45.1256 23.8178 45.3275 24.4038 45.3211 25.006V38.2862C45.3679 38.8721 45.1827 39.453 44.8054 39.9037C44.4281 40.3544 43.8888 40.6388 43.3038 40.6957H40.6029ZM43.2926 23.325H40.6029C40.2017 23.3755 39.8351 23.578 39.5787 23.8908C39.3223 24.2035 39.1955 24.6026 39.2245 25.006V38.2862C39.2085 38.7528 39.3595 39.2098 39.6503 39.575C39.7639 39.7213 39.9079 39.8412 40.0724 39.9264C40.2369 40.0115 40.4179 40.0599 40.6029 40.0681H43.3038C43.7144 40.0148 44.088 39.8035 44.3454 39.4792C44.6028 39.1549 44.7236 38.743 44.6823 38.331V25.006C44.6905 24.5542 44.5398 24.114 44.2564 23.762C44.141 23.6175 43.9943 23.501 43.8274 23.4214C43.6604 23.3418 43.4776 23.3012 43.2926 23.3025V23.325Z" fill="#7950B7"/>
<path d="M19.0072 40.6957C18.7267 40.6901 18.4508 40.623 18.199 40.499C17.9473 40.3751 17.7258 40.1974 17.5503 39.9785C17.1742 39.508 16.9723 38.9221 16.9788 38.3198V25.006C16.9412 24.4239 17.1321 23.8501 17.5109 23.4065C17.8896 22.9628 18.4264 22.6843 19.0072 22.6301H21.7081C21.9873 22.6343 22.262 22.7008 22.5122 22.8249C22.7624 22.949 22.9816 23.1275 23.1538 23.3474C23.5307 23.8173 23.7327 24.4036 23.7253 25.006V38.2974C23.7689 38.8832 23.5808 39.4628 23.2015 39.9113C22.8221 40.3598 22.2818 40.6415 21.6969 40.6957H19.0072ZM21.6969 23.3362H18.996C18.5928 23.3814 18.2224 23.58 17.9616 23.8909C17.7008 24.2018 17.5696 24.601 17.5951 25.006V38.2974C17.5883 38.7649 17.7516 39.219 18.0546 39.575C18.1666 39.7222 18.3105 39.842 18.4755 39.9255C18.6405 40.009 18.8223 40.0539 19.0072 40.0569H21.6969C22.1065 40.0063 22.4801 39.7973 22.7377 39.4748C22.9953 39.1523 23.1165 38.7418 23.0753 38.331V25.006C23.0807 24.5547 22.9303 24.1153 22.6495 23.762C22.5326 23.6228 22.3869 23.5106 22.2224 23.4332C22.058 23.3558 21.8786 23.315 21.6969 23.3138V23.3362Z" fill="#7950B7"/>
<path d="M19.0072 40.6957C18.7267 40.6901 18.4508 40.623 18.199 40.499C17.9473 40.3751 17.7258 40.1974 17.5503 39.9785C17.1742 39.508 16.9723 38.9221 16.9788 38.3198V25.006C16.9412 24.4239 17.1321 23.8501 17.5109 23.4065C17.8896 22.9628 18.4264 22.6843 19.0072 22.6301H21.7081C21.9873 22.6343 22.262 22.7008 22.5122 22.8249C22.7624 22.949 22.9816 23.1275 23.1538 23.3474C23.5307 23.8173 23.7327 24.4036 23.7253 25.006V28.85H38.5745V25.006C38.537 24.4239 38.7279 23.8501 39.1066 23.4065C39.4854 22.9628 40.0222 22.6843 40.603 22.6301H43.2926C43.5735 22.6342 43.8499 22.7006 44.1018 22.8247C44.3538 22.9487 44.5751 23.1273 44.7495 23.3474C45.1256 23.8178 45.3275 24.4038 45.3211 25.006V38.2862C45.3679 38.8721 45.1827 39.453 44.8054 39.9037C44.4281 40.3544 43.8888 40.6388 43.3038 40.6957H40.603C40.0201 40.6415 39.4816 40.3614 39.1025 39.9153C38.7234 39.4693 38.5339 38.8926 38.5745 38.3086V34.4422H23.7253V38.2862C23.772 38.8739 23.5853 39.4563 23.2057 39.9073C22.826 40.3583 22.2839 40.6415 21.6969 40.6957H19.0072ZM21.6969 23.3362H18.996C18.5928 23.3814 18.2224 23.58 17.9616 23.8909C17.7008 24.2018 17.5696 24.601 17.5951 25.006V38.2974C17.5883 38.7649 17.7516 39.219 18.0546 39.575C18.1666 39.7222 18.3105 39.842 18.4755 39.9255C18.6405 40.009 18.8223 40.0539 19.0072 40.0569H21.6969C22.1065 40.0063 22.4801 39.7973 22.7377 39.4748C22.9953 39.1523 23.1165 38.7418 23.0753 38.331V33.8483H39.2245V38.331C39.186 38.7424 39.3079 39.1528 39.5648 39.4765C39.8216 39.8002 40.1936 40.0121 40.603 40.0681H43.3038C43.7144 40.0148 44.0881 39.8035 44.3454 39.4792C44.6028 39.1549 44.7236 38.743 44.6823 38.331V25.006C44.6905 24.5542 44.5398 24.114 44.2564 23.762C44.1445 23.6148 44.0006 23.495 43.8356 23.4115C43.6705 23.328 43.4887 23.2831 43.3038 23.2801H40.6142C40.2025 23.3281 39.8261 23.5358 39.5661 23.8587C39.3062 24.1815 39.1835 24.5936 39.2245 25.006V29.4888H23.0753V25.006C23.0807 24.5547 22.9303 24.1153 22.6495 23.762C22.5326 23.6228 22.3869 23.5106 22.2224 23.4332C22.058 23.3558 21.8786 23.315 21.6969 23.3138V23.3362Z" fill="#7950B7"/>
<path d="M46.3073 38.5776C46.0901 38.5698 45.8773 38.5146 45.6837 38.4158C45.4901 38.3171 45.3204 38.1772 45.1866 38.006C44.8821 37.6377 44.7192 37.1727 44.7271 36.6948V26.6086C44.6931 26.1453 44.8436 25.6873 45.146 25.3346C45.4483 24.9819 45.8778 24.763 46.3409 24.7258H48.3918C48.6089 24.7336 48.8218 24.7888 49.0154 24.8876C49.209 24.9863 49.3786 25.1262 49.5125 25.2974C49.8178 25.6653 49.9809 26.1306 49.9719 26.6086V36.6948C50.003 37.1575 49.8514 37.6138 49.5496 37.9659C49.2479 38.3179 48.8201 38.5376 48.3581 38.5776H46.3073ZM45.3435 36.6948C45.3426 37.0189 45.449 37.3341 45.6461 37.5914C45.7254 37.6919 45.8256 37.774 45.9398 37.8321C46.0539 37.8901 46.1793 37.9227 46.3073 37.9276H48.3581C48.6478 37.8884 48.9108 37.7376 49.0908 37.5073C49.2709 37.277 49.3538 36.9854 49.3219 36.6948V26.6086C49.3263 26.284 49.2195 25.9676 49.0194 25.712C48.9422 25.6083 48.8427 25.5232 48.7283 25.4631C48.6138 25.403 48.4873 25.3693 48.3581 25.3646H46.3073C46.0154 25.4038 45.7507 25.5562 45.5703 25.789C45.39 26.0218 45.3085 26.3162 45.3435 26.6086V36.6948Z" fill="#7950B7"/>
<path d="M13.9417 38.5888C13.7245 38.581 13.5117 38.5258 13.3181 38.4271C13.1245 38.3283 12.9548 38.1885 12.821 38.0172C12.5165 37.6489 12.3536 37.1839 12.3615 36.706V26.6198C12.3273 26.1553 12.4776 25.6961 12.7796 25.3416C13.0817 24.9871 13.5113 24.7658 13.9753 24.7258H16.0262C16.4842 24.7768 16.9043 25.0043 17.1973 25.36C17.4902 25.7158 17.633 26.1717 17.5951 26.631V36.7172C17.6262 37.1799 17.4746 37.6362 17.1728 37.9883C16.8711 38.3403 16.4433 38.56 15.9813 38.6L13.9417 38.5888ZM12.9779 36.706C12.9752 37.027 13.0819 37.3392 13.2805 37.5914C13.3587 37.694 13.4584 37.7782 13.5726 37.8382C13.6868 37.8982 13.8128 37.9326 13.9417 37.9388H15.9925C16.2822 37.8996 16.5452 37.7488 16.7252 37.5185C16.9053 37.2882 16.9882 36.9966 16.9563 36.706V26.6198C16.9882 26.3292 16.9053 26.0377 16.7252 25.8074C16.5452 25.5771 16.2822 25.4262 15.9925 25.387H13.9417C13.6498 25.4262 13.3851 25.5786 13.2047 25.8114C13.0244 26.0442 12.9429 26.3386 12.9779 26.631V36.706Z" fill="#7950B7"/>
<path d="M29.6538 25.1741C29.471 25.1717 29.2896 25.1414 29.1158 25.0845L26.5607 24.2551C26.0251 24.0228 25.6013 23.5907 25.3795 23.0507C25.1576 22.5107 25.1552 21.9055 25.3727 21.3638L29.4633 8.75596C29.6437 8.17902 30.0204 7.68343 30.5279 7.35509C30.7607 7.18568 31.0295 7.07227 31.3133 7.02368C31.597 6.97508 31.8882 6.99262 32.1641 7.07492L34.7193 7.91544C35.2542 8.1457 35.6784 8.57507 35.9022 9.11266C36.126 9.65024 36.1319 10.2538 35.9184 10.7956L31.7831 23.4482C31.6499 23.9206 31.3737 24.3401 30.9924 24.6492C30.6111 24.9582 30.1435 25.1416 29.6538 25.1741ZM31.5814 7.68009C31.3261 7.68694 31.0778 7.76454 30.8641 7.90423C30.4906 8.15611 30.2139 8.52764 30.0796 8.95768L25.9779 21.5655C25.8126 21.9439 25.8009 22.3717 25.9452 22.7585C26.0895 23.1454 26.3785 23.461 26.7512 23.6388L29.3176 24.4681C29.7227 24.5445 30.1417 24.4595 30.4851 24.2313C30.8285 24.0031 31.0691 23.6497 31.1555 23.2465L35.2684 10.6387C35.4324 10.2606 35.4422 9.83334 35.2956 9.44811C35.1491 9.06288 34.8578 8.75016 34.484 8.57665L31.9288 7.73613C31.8164 7.70031 31.6993 7.68142 31.5814 7.68009Z" fill="#7950B7"/>
<path d="M9.11148 18.4836C8.94702 18.4803 8.78422 18.45 8.62958 18.3939L6.06319 17.5646C5.51751 17.3428 5.08107 16.9151 4.84828 16.374C4.61548 15.8329 4.60505 15.2219 4.81923 14.6732L8.92096 2.06542C9.10167 1.49474 9.47376 1.0039 9.97441 0.675758C10.2092 0.519527 10.4758 0.417376 10.7549 0.376677C11.0339 0.335978 11.3186 0.357747 11.5882 0.440412L14.1434 1.26973C14.683 1.49789 15.1118 1.92825 15.338 2.46866C15.5643 3.00908 15.5699 3.61659 15.3537 4.16111L11.2296 16.7689C11.098 17.2391 10.8235 17.6568 10.444 17.964C10.0645 18.2712 9.59878 18.4528 9.11148 18.4836ZM11.0391 1.00076C10.7838 1.00761 10.5355 1.0852 10.3218 1.2249C9.9465 1.46988 9.66891 1.83868 9.53734 2.26714L5.43561 14.9198C5.27036 15.2981 5.25864 15.7259 5.40293 16.1128C5.54721 16.4997 5.83621 16.8153 6.20888 16.993L8.77527 17.8224C9.17916 17.9021 9.5982 17.8199 9.94202 17.5934C10.2858 17.367 10.5269 17.0145 10.6132 16.612L14.7149 3.95939C14.8831 3.58137 14.8964 3.15246 14.7518 2.7648C14.6072 2.37714 14.3163 2.06165 13.9417 1.88611L11.3865 1.05679C11.2741 1.02097 11.157 1.00209 11.0391 1.00076Z" fill="#7950B7"/>
<path d="M29.6538 25.1741C29.471 25.1716 29.2896 25.1414 29.1158 25.0844L26.5607 24.2551C26.0251 24.0228 25.6013 23.5907 25.3795 23.0507C25.1576 22.5107 25.1552 21.9055 25.3727 21.3637L26.5607 17.7103L12.4399 13.1042L11.2296 16.7689C11.0531 17.3418 10.68 17.8339 10.1761 18.1586C9.95154 18.3091 9.69648 18.4083 9.42915 18.449C9.16182 18.4897 8.88881 18.4709 8.62958 18.3939L6.06319 17.5646C5.51751 17.3428 5.08107 16.9151 4.84828 16.374C4.61548 15.8329 4.60505 15.2219 4.81923 14.6732L8.92096 2.06542C9.10167 1.49474 9.47376 1.0039 9.97441 0.675758C10.2092 0.519527 10.4758 0.417376 10.7549 0.376677C11.0339 0.335978 11.3186 0.357747 11.5882 0.440412L14.1434 1.26973C14.683 1.49789 15.1118 1.92825 15.338 2.46866C15.5643 3.00908 15.5699 3.61659 15.3537 4.16111L14.1434 7.81457L28.2753 12.4094L29.4633 8.75595C29.6437 8.17902 30.0204 7.68342 30.5279 7.35509C30.7607 7.18568 31.0295 7.07226 31.3133 7.02367C31.5971 6.97507 31.8882 6.99261 32.1641 7.07491L34.7193 7.91543C35.2542 8.14569 35.6784 8.57507 35.9022 9.11265C36.1261 9.65023 36.1319 10.2538 35.9185 10.7956L31.7831 23.4482C31.6499 23.9206 31.3737 24.3401 30.9924 24.6492C30.6111 24.9582 30.1435 25.1416 29.6538 25.1741ZM11.9917 12.2861L27.3564 17.2844L25.9667 21.5655C25.8014 21.9439 25.7897 22.3716 25.934 22.7585C26.0783 23.1454 26.3673 23.461 26.74 23.6388L29.3064 24.4681C29.7115 24.5445 30.1305 24.4595 30.4739 24.2313C30.8173 24.0031 31.0579 23.6497 31.1443 23.2465L35.2685 10.6387C35.4324 10.2606 35.4422 9.83334 35.2957 9.44811C35.1491 9.06288 34.8578 8.75016 34.484 8.57664L31.9288 7.73612C31.7499 7.6841 31.5617 7.67219 31.3777 7.70125C31.1936 7.73031 31.0183 7.79962 30.8641 7.90423C30.4906 8.1561 30.2139 8.52763 30.0796 8.95768L28.69 13.2275L13.3253 8.19561L14.7149 3.92577C14.8831 3.54775 14.8964 3.11884 14.7518 2.73118C14.6072 2.34352 14.3163 2.02803 13.9417 1.85249L11.3865 1.05679C11.1999 0.993142 11.0007 0.975187 10.8057 1.00444C10.6107 1.03369 10.4255 1.10929 10.2658 1.2249C9.89046 1.46988 9.61288 1.83868 9.48131 2.26714L5.43561 14.9198C5.27036 15.2981 5.25864 15.7259 5.40293 16.1128C5.54721 16.4997 5.83621 16.8153 6.20888 16.993L8.77527 17.8224C8.95153 17.8758 9.13746 17.8895 9.31964 17.8624C9.50182 17.8352 9.6757 17.768 9.82872 17.6655C10.2023 17.4136 10.4789 17.0421 10.6132 16.612L11.9917 12.2861Z" fill="#7950B7"/>
<path d="M34.9995 24.7258C34.8513 24.7254 34.7039 24.7028 34.5624 24.6586L32.6236 24.031C32.1948 23.8501 31.8544 23.5076 31.6761 23.0777C31.4978 22.6477 31.496 22.1649 31.671 21.7336L34.7866 12.1629C34.9006 11.7135 35.1864 11.3268 35.5824 11.0859C35.9784 10.8449 36.4532 10.7688 36.9047 10.8741L38.8883 11.5577C39.3075 11.7342 39.6421 12.0663 39.8218 12.4842C40.0015 12.9021 40.0123 13.3733 39.8521 13.7991L36.6469 23.3698C36.5432 23.7367 36.3298 24.0632 36.0354 24.3056C35.741 24.5479 35.3795 24.6945 34.9995 24.7258ZM32.2874 21.9353C32.1647 22.2031 32.1523 22.5084 32.2529 22.7853C32.3536 23.0621 32.5592 23.2882 32.8253 23.4146L34.7641 24.0422C35.0538 24.0984 35.3539 24.0382 35.5993 23.8745C35.8448 23.7109 36.0159 23.457 36.0754 23.1681L39.1909 13.5973C39.3102 13.3308 39.3207 13.0282 39.2202 12.754C39.1198 12.4798 38.9162 12.2556 38.6529 12.1292L36.7029 11.4904C36.415 11.4375 36.1178 11.4993 35.8748 11.6626C35.6319 11.826 35.4625 12.0779 35.4029 12.3646L32.2874 21.9353Z" fill="#7950B7"/>
<path d="M4.22526 14.718C4.07702 14.7177 3.92969 14.695 3.78819 14.6508L1.90543 14.012C1.6919 13.9408 1.49728 13.8221 1.33618 13.6648C1.17509 13.5076 1.05169 13.316 0.975252 13.1042C0.812428 12.6592 0.812428 12.1708 0.975252 11.7258L4.00112 2.15507C4.14608 1.69699 4.44247 1.3018 4.84164 1.03438C5.02991 0.911226 5.24312 0.831279 5.46594 0.800277C5.68877 0.769275 5.9157 0.787986 6.13044 0.855068L8.06924 1.47145C8.28276 1.5427 8.47738 1.66139 8.63848 1.8186C8.79958 1.97582 8.92298 2.16748 8.99941 2.37921C9.15663 2.82525 9.15663 3.31163 8.99941 3.75766L5.91751 13.362C5.77585 13.8218 5.4787 14.218 5.07699 14.4827C4.82074 14.6394 4.52561 14.721 4.22526 14.718ZM1.51318 11.9275C1.40077 12.2312 1.40077 12.5652 1.51318 12.8689C1.55676 12.9901 1.62658 13.1001 1.71763 13.1912C1.80869 13.2822 1.91874 13.352 2.03991 13.3956L3.97871 14.0344C4.10359 14.0685 4.23436 14.0751 4.36204 14.0538C4.48973 14.0325 4.61128 13.9839 4.71837 13.9111C4.97683 13.7258 5.16925 13.4627 5.26751 13.1603L8.41665 3.57835C8.52907 3.27463 8.52907 2.9407 8.41665 2.63697C8.37449 2.51501 8.30517 2.40422 8.21392 2.31297C8.12268 2.22172 8.01189 2.1524 7.88993 2.11024L5.92871 1.47145C5.80383 1.43738 5.67306 1.43076 5.54538 1.45204C5.4177 1.47333 5.29614 1.522 5.18906 1.59473C4.92227 1.77395 4.7246 2.03883 4.62871 2.34559L1.51318 11.9275Z" fill="#7950B7"/>
</svg>
