<svg width="50" height="50" viewBox="0 0 50 50" fill="none" xmlns="http://www.w3.org/2000/svg">
<rect width="50" height="50" rx="14" fill="#FFF7AC"/>
<path d="M23.9604 7H26.1425C26.2314 7.02425 26.3215 7.04377 26.4124 7.05849C29.0852 7.23586 31.6789 8.03879 33.9845 9.40254C36.2813 10.7039 38.2589 12.501 39.7735 14.6631C41.2881 16.8253 42.3014 19.2979 42.7398 21.9011C42.8613 22.5535 42.9242 23.2149 43.0187 23.8762V26.0538C43.0187 26.1663 42.9737 26.2788 42.9557 26.3958C42.8118 27.2956 42.7308 28.2584 42.5058 29.1627C41.7597 32.3036 40.1825 35.186 37.9394 37.5077C35.6964 39.8295 32.8701 41.5051 29.7568 42.359C26.6434 43.2129 23.3578 43.2137 20.2441 42.3612C17.1304 41.5086 14.3033 39.8343 12.0592 37.5135C9.81513 35.1928 8.2366 32.3111 7.48909 29.1706C6.74158 26.03 6.85262 22.7462 7.81056 19.6633C8.7685 16.5804 10.5381 13.812 12.9338 11.6481C15.3295 9.48426 18.2632 8.00467 21.4274 7.36443C22.2642 7.19796 23.1146 7.12148 23.9604 7ZM17.3737 34.5707C19.6952 34.5707 21.3284 32.1996 20.5231 30.1615C19.8845 28.6638 19.0705 27.2472 18.098 25.9413C18.0145 25.827 17.9052 25.734 17.7789 25.6698C17.6527 25.6057 17.513 25.5723 17.3714 25.5723C17.2298 25.5723 17.0902 25.6057 16.9639 25.6698C16.8377 25.734 16.7284 25.827 16.6448 25.9413C15.6907 27.2318 14.8862 28.6265 14.2468 30.0985C13.3829 32.1501 14.9981 34.5887 17.3737 34.5707ZM24.6578 28.8838C23.7355 28.8523 23.1731 29.3337 23.1416 30.0175C23.1369 30.185 23.1671 30.3515 23.2302 30.5066C23.2932 30.6618 23.3878 30.8022 23.5079 30.9189C23.628 31.0356 23.771 31.1261 23.9279 31.1847C24.0848 31.2433 24.2521 31.2687 24.4193 31.2593H24.5633C25.9413 31.331 27.3033 31.5883 28.6125 32.0242C29.9294 32.4715 31.1615 33.1377 32.2568 33.9948C32.4143 34.1326 32.6056 34.2263 32.8111 34.2661C33.0166 34.3059 33.229 34.2905 33.4265 34.2214C33.6241 34.1523 33.7999 34.0321 33.9359 33.8729C34.0718 33.7138 34.1631 33.5214 34.2004 33.3154C34.2428 33.0656 34.2082 32.8087 34.1014 32.579C33.9945 32.3492 33.8204 32.1573 33.602 32.0287C31.0098 30.0952 27.8896 28.9981 24.6578 28.8838ZM20.7525 20.3354C20.749 19.8803 20.6109 19.4364 20.3558 19.0595C20.1006 18.6826 19.7397 18.3896 19.3184 18.2172C18.8972 18.0449 18.4344 18.001 17.9882 18.091C17.542 18.181 17.1325 18.4009 16.8109 18.723C16.4894 19.0451 16.2703 19.4552 16.1812 19.9015C16.0921 20.3478 16.1369 20.8105 16.31 21.2315C16.4832 21.6524 16.7769 22.0127 17.1543 22.2672C17.5317 22.5216 17.9758 22.6588 18.431 22.6615C19.0416 22.6567 19.6257 22.4111 20.0562 21.9781C20.4867 21.545 20.7289 20.9596 20.73 20.3489L20.7525 20.3354ZM29.3234 20.3354C29.3225 20.7923 29.4572 21.2392 29.7105 21.6194C29.9638 21.9996 30.3242 22.2962 30.7461 22.4714C31.168 22.6467 31.6325 22.6928 32.0806 22.6038C32.5287 22.5149 32.9404 22.295 33.2635 21.972C33.5865 21.6489 33.8064 21.2372 33.8954 20.7891C33.9843 20.341 33.9382 19.8765 33.7629 19.4546C33.5877 19.0327 33.2911 18.6722 32.9109 18.419C32.5306 18.1657 32.0838 18.031 31.6269 18.0319C31.3208 18.0295 31.0173 18.088 30.734 18.204C30.4507 18.3201 30.1933 18.4913 29.9768 18.7078C29.7603 18.9243 29.5891 19.1817 29.4731 19.4649C29.357 19.7482 29.2985 20.0518 29.3009 20.3579L29.3234 20.3354Z" fill="#FFF9C6"/>
<path d="M17.3737 34.5707C14.9981 34.5707 13.3829 32.1501 14.2243 30.112C14.8637 28.64 15.6682 27.2453 16.6223 25.9548C16.7059 25.8405 16.8152 25.7474 16.9414 25.6833C17.0677 25.6192 17.2073 25.5858 17.3489 25.5858C17.4905 25.5858 17.6302 25.6192 17.7564 25.6833C17.8827 25.7474 17.992 25.8405 18.0755 25.9548C19.048 27.2607 19.862 28.6773 20.5006 30.175C21.3284 32.1951 19.7087 34.5796 17.3737 34.5707Z" fill="#ADA33F"/>
<path d="M24.6578 28.8837C27.8979 28.9948 31.0266 30.0937 33.6245 32.0331C33.8429 32.1617 34.017 32.3537 34.1239 32.5834C34.2307 32.8132 34.2653 33.07 34.2229 33.3199C34.1874 33.5297 34.096 33.726 33.9583 33.8882C33.8205 34.0504 33.6417 34.1725 33.4404 34.2416C33.2391 34.3106 33.023 34.3242 32.8147 34.2807C32.6064 34.2373 32.4137 34.1385 32.2568 33.9948C31.1557 33.1375 29.9174 32.4727 28.5945 32.0286C27.2853 31.5928 25.9233 31.3355 24.5453 31.2638H24.4013C24.2341 31.2732 24.0668 31.2478 23.9099 31.1892C23.753 31.1306 23.61 31.0401 23.4899 30.9234C23.3698 30.8066 23.2752 30.6663 23.2122 30.5111C23.1491 30.356 23.1189 30.1894 23.1236 30.022C23.1506 29.3157 23.7129 28.8523 24.6578 28.8837Z" fill="#ADA33F"/>
<path d="M20.73 20.3489C20.7318 20.8056 20.5981 21.2525 20.3457 21.6332C20.0934 22.0138 19.7338 22.311 19.3125 22.4872C18.8912 22.6635 18.427 22.7107 17.9789 22.623C17.5307 22.5354 17.1186 22.3167 16.7947 21.9947C16.4708 21.6727 16.2498 21.2619 16.1595 20.8143C16.0692 20.3666 16.1137 19.9022 16.2875 19.4799C16.4612 19.0575 16.7563 18.6962 17.1355 18.4417C17.5146 18.1871 17.9608 18.0508 18.4175 18.0499C19.0285 18.0499 19.6146 18.2916 20.0479 18.7224C20.4812 19.1532 20.7265 19.7379 20.73 20.3489Z" fill="#ADA33F"/>
<path d="M29.3008 20.3579C29.3026 19.9009 29.4401 19.4546 29.6958 19.0758C29.9515 18.6969 30.3139 18.4026 30.7371 18.2299C31.1603 18.0573 31.6253 18.0142 32.073 18.1061C32.5207 18.198 32.9311 18.4208 33.2521 18.7462C33.573 19.0716 33.7902 19.4849 33.8759 19.9339C33.9617 20.3828 33.9123 20.8471 33.7339 21.2679C33.5554 21.6887 33.2561 22.0471 32.8738 22.2976C32.4915 22.5481 32.0434 22.6794 31.5864 22.675C30.9766 22.669 30.394 22.422 29.9657 21.9879C29.5375 21.5537 29.2984 20.9677 29.3008 20.3579Z" fill="#ADA33F"/>
</svg>
