<svg width="50" height="50" viewBox="0 0 50 50" fill="none" xmlns="http://www.w3.org/2000/svg">
<rect width="50" height="50" rx="14" fill="#FFC1AD"/>
<path d="M23.9195 7H26.0934L26.4347 7.06288C27.4004 7.22008 28.3885 7.30542 29.3317 7.54796C33.579 8.59232 37.2961 11.1576 39.7792 14.7582C42.2624 18.3588 43.3393 22.7448 42.8062 27.086C42.3699 31.5486 40.1891 35.6583 36.7382 38.5213C31.555 42.8916 25.6083 44.1357 19.1899 41.9349C12.6054 39.6756 8.68431 34.9191 7.28296 28.11C7.14822 27.4408 7.09432 26.7626 7 26.0934V23.8476C7.08983 23.1918 7.16169 22.5271 7.27398 21.8758C7.89868 18.3076 9.58747 15.0115 12.1187 12.4201C14.65 9.82876 17.9055 8.0631 21.4581 7.35483C22.2711 7.19763 23.0975 7.11678 23.9195 7ZM25.2085 36.855C25.6128 36.819 26.2685 36.7876 26.9108 36.6888C29.1564 36.4023 31.2458 35.386 32.8575 33.7963C33.9742 32.6964 34.7387 31.2893 35.0539 29.7539C35.0964 29.6257 35.1094 29.4896 35.092 29.3557C35.0746 29.2218 35.0272 29.0936 34.9534 28.9805C34.8796 28.8674 34.7813 28.7724 34.6657 28.7026C34.5501 28.6328 34.4203 28.5899 34.2858 28.5772C34.0794 28.5455 33.8683 28.564 33.6705 28.6311C31.7236 29.2757 29.7056 29.6814 27.6609 29.8393C24.7481 30.1051 21.8121 29.9401 18.9474 29.3497C18.0132 29.1476 17.1014 28.8511 16.1761 28.6086C16.0067 28.54 15.8211 28.5211 15.6413 28.5542C15.4615 28.5873 15.2949 28.671 15.161 28.7955C15.0271 28.92 14.9314 29.0801 14.8853 29.257C14.8392 29.4339 14.8445 29.6203 14.9005 29.7943C15.2479 31.4681 16.1308 32.9833 17.4158 34.1107C19.5762 36.033 22.1274 36.7966 25.2085 36.855ZM29.2509 20.8203C29.2518 21.2751 29.3872 21.7194 29.6402 22.0973C29.8931 22.4753 30.2522 22.7699 30.6723 22.9441C31.0923 23.1183 31.5545 23.1644 32.0007 23.0764C32.4469 22.9884 32.857 22.7704 33.1795 22.4498C33.502 22.1292 33.7224 21.7203 33.813 21.2746C33.9036 20.829 33.8602 20.3665 33.6884 19.9454C33.5167 19.5244 33.2241 19.1635 32.8477 18.9084C32.4712 18.6533 32.0277 18.5153 31.573 18.5117C31.2687 18.5099 30.967 18.5683 30.6854 18.6836C30.4037 18.7988 30.1476 18.9686 29.9318 19.1831C29.716 19.3977 29.5448 19.6528 29.4279 19.9337C29.311 20.2147 29.2509 20.516 29.2509 20.8203ZM20.717 20.8473C20.7215 20.3912 20.5905 19.9441 20.3406 19.5625C20.0907 19.181 19.7332 18.8822 19.3134 18.7039C18.8936 18.5257 18.4303 18.4761 17.9822 18.5614C17.5342 18.6466 17.1215 18.8629 16.7965 19.1829C16.4715 19.5029 16.2488 19.9121 16.1565 20.3588C16.0642 20.8055 16.1066 21.2695 16.2783 21.692C16.4499 22.1146 16.7431 22.4767 17.1207 22.7325C17.4983 22.9883 17.9433 23.1263 18.3994 23.129C19.0051 23.1266 19.5855 22.8859 20.015 22.4589C20.4445 22.0319 20.6887 21.4529 20.6946 20.8473H20.717Z" fill="#FFCEBE"/>
<path d="M25.2085 36.855C22.1274 36.7966 19.5582 36.033 17.4158 34.1107C16.1308 32.9833 15.2479 31.4681 14.9006 29.7943C14.8445 29.6203 14.8392 29.4339 14.8853 29.257C14.9314 29.0801 15.0271 28.92 15.161 28.7955C15.2949 28.671 15.4615 28.5873 15.6413 28.5542C15.8211 28.5211 16.0067 28.54 16.1761 28.6086C17.1014 28.8511 18.0132 29.1476 18.9474 29.3497C21.8121 29.9401 24.7481 30.1051 27.6609 29.8393C29.7024 29.6822 31.7174 29.278 33.6615 28.6355C33.8594 28.5685 34.0704 28.55 34.2769 28.5816C34.4113 28.5944 34.5411 28.6372 34.6567 28.7071C34.7723 28.7769 34.8706 28.8719 34.9444 28.985C35.0182 29.098 35.0656 29.2263 35.083 29.3602C35.1004 29.4941 35.0874 29.6302 35.0449 29.7584C34.7298 31.2938 33.9653 32.7009 32.8486 33.8008C31.2386 35.3871 29.1527 36.4016 26.9108 36.6888C26.2685 36.7876 25.6128 36.819 25.2085 36.855Z" fill="#B95E41"/>
<path d="M29.2509 20.8203C29.2518 20.3644 29.3879 19.919 29.642 19.5405C29.8961 19.162 30.2568 18.8674 30.6785 18.6939C31.1001 18.5205 31.5637 18.476 32.0106 18.5662C32.4575 18.6563 32.8676 18.877 33.189 19.2003C33.5105 19.5237 33.7288 19.9351 33.8163 20.3825C33.9038 20.8299 33.8566 21.2932 33.6807 21.7139C33.5048 22.1345 33.2081 22.4934 32.8281 22.7453C32.4481 22.9972 32.0019 23.1307 31.546 23.129C31.2437 23.1284 30.9444 23.0682 30.6653 22.9518C30.3862 22.8354 30.1328 22.6651 29.9197 22.4506C29.7065 22.2362 29.5377 21.9818 29.4229 21.7021C29.3082 21.4223 29.2497 21.1227 29.2509 20.8203Z" fill="#B95E41"/>
<path d="M20.6946 20.8473C20.6882 21.3041 20.5462 21.7486 20.2866 22.1245C20.027 22.5004 19.6615 22.7906 19.2366 22.9584C18.8116 23.1261 18.3464 23.1637 17.9001 23.0664C17.4538 22.9692 17.0464 22.7414 16.7298 22.4121C16.4131 22.0828 16.2015 21.6669 16.1218 21.217C16.0422 20.7672 16.098 20.3039 16.2822 19.8858C16.4665 19.4678 16.7708 19.114 17.1566 18.8693C17.5423 18.6247 17.9921 18.5002 18.4488 18.5117C19.0548 18.5282 19.6301 18.7824 20.0502 19.2194C20.4704 19.6563 20.7019 20.2411 20.6946 20.8473Z" fill="#B95E41"/>
</svg>
