<svg width="50" height="50" viewBox="0 0 50 50" fill="none" xmlns="http://www.w3.org/2000/svg">
<rect width="50" height="50" rx="14" fill="#ADFFFF"/>
<path d="M23.9518 7H26.1294C26.2193 7 26.3093 7.04949 26.3993 7.05849C29.0734 7.23633 31.6685 8.0392 33.9758 9.40253C36.2722 10.7044 38.2495 12.5016 39.764 14.6637C41.2786 16.8257 42.2921 19.2981 42.7311 21.9011C42.8526 22.5534 42.9155 23.2148 43.0055 23.8762V26.0537C43.0055 26.1707 42.965 26.2787 42.947 26.3957C42.7986 27.3315 42.7176 28.2808 42.4971 29.1986C41.7447 32.3374 40.162 35.2161 37.9148 37.533C35.6676 39.85 32.8387 41.5199 29.7244 42.3679C26.61 43.2158 23.325 43.2106 20.2133 42.3527C17.1017 41.4949 14.2781 39.8159 12.0383 37.4919C9.79847 35.1678 8.22494 32.2841 7.48253 29.1429C6.74012 26.0018 6.85616 22.7188 7.81851 19.6379C8.78086 16.5569 10.5541 13.7916 12.9524 11.6314C15.3507 9.47131 18.2859 7.99594 21.4503 7.35993C22.2781 7.19796 23.115 7.11698 23.9518 7ZM25.4635 36.3972C25.7964 36.3567 26.4533 36.3207 27.0967 36.2038C30.1921 35.6369 32.6261 33.9272 34.7452 31.7046C34.9097 31.5273 35.025 31.3099 35.0795 31.0741C35.1339 30.8384 35.1257 30.5925 35.0557 30.3609C34.9856 30.1293 34.8561 29.92 34.6801 29.754C34.504 29.588 34.2876 29.471 34.0523 29.4146C33.7933 29.3552 33.5232 29.3655 33.2695 29.4446C33.0157 29.5236 32.7875 29.6685 32.6081 29.8645C31.7897 30.6334 30.9225 31.3487 30.0121 32.0061C27.5286 33.6708 24.8516 34.0577 22.0217 32.9554C20.292 32.2499 18.722 31.2033 17.4056 29.878C17.2758 29.7264 17.1159 29.6036 16.9361 29.5173C16.7562 29.431 16.5603 29.3831 16.3609 29.3768C16.1615 29.3704 15.963 29.4057 15.778 29.4804C15.593 29.5551 15.4256 29.6675 15.2865 29.8105C15.1463 29.9499 15.0375 30.1178 14.9676 30.3027C14.8976 30.4876 14.868 30.6854 14.8808 30.8827C14.8936 31.08 14.9484 31.2723 15.0417 31.4467C15.1349 31.6211 15.2644 31.7734 15.4215 31.8936C16.3767 32.7552 17.385 33.5561 18.4404 34.2916C20.5164 35.6839 22.964 36.4177 25.4635 36.3972ZM15.1605 20.3489C15.157 20.8068 15.2894 21.2555 15.5412 21.638C15.7929 22.0206 16.1525 22.3198 16.5745 22.4977C16.9965 22.6757 17.4618 22.7243 17.9114 22.6375C18.3611 22.5506 18.7748 22.3323 19.1002 22.01C19.4256 21.6878 19.648 21.2762 19.7392 20.8274C19.8304 20.3787 19.7863 19.9129 19.6125 19.4892C19.4387 19.0655 19.1431 18.703 18.763 18.4475C18.3829 18.1921 17.9355 18.0552 17.4776 18.0543C16.8666 18.0531 16.2799 18.2938 15.8458 18.7237C15.4116 19.1536 15.1653 19.7379 15.1605 20.3489ZM34.8486 20.3804C34.8522 19.9222 34.7196 19.4734 34.4677 19.0907C34.2158 18.7081 33.8559 18.4089 33.4336 18.2311C33.0114 18.0533 32.5458 18.0049 32.0961 18.0921C31.6463 18.1793 31.2326 18.3981 30.9074 18.7208C30.5821 19.0435 30.3601 19.4555 30.2694 19.9046C30.1787 20.3536 30.2234 20.8195 30.3979 21.2431C30.5724 21.6667 30.8688 22.029 31.2495 22.2839C31.6301 22.5388 32.078 22.6749 32.5361 22.6749C33.146 22.6738 33.7308 22.4322 34.1637 22.0027C34.5966 21.5731 34.8427 20.9902 34.8486 20.3804Z" fill="#C2FFFF"/>
<path d="M25.4635 36.3972C22.9621 36.4124 20.5144 35.6722 18.4404 34.2736C17.385 33.5381 16.3768 32.7372 15.4215 31.8756C15.2645 31.7554 15.135 31.603 15.0417 31.4287C14.9484 31.2543 14.8936 31.062 14.8808 30.8647C14.868 30.6674 14.8976 30.4696 14.9676 30.2847C15.0376 30.0997 15.1463 29.9319 15.2865 29.7925C15.4256 29.6495 15.593 29.5371 15.778 29.4624C15.963 29.3877 16.1616 29.3524 16.361 29.3588C16.5604 29.3651 16.7562 29.413 16.9361 29.4993C17.116 29.5856 17.2759 29.7084 17.4056 29.86C18.7221 31.1853 20.292 32.2319 22.0217 32.9374C24.8516 34.0397 27.5286 33.6527 30.0121 31.9881C30.9226 31.3307 31.7897 30.6154 32.6081 29.8465C32.7876 29.6505 33.0158 29.5056 33.2695 29.4266C33.5232 29.3475 33.7933 29.3372 34.0523 29.3966C34.2876 29.453 34.5041 29.57 34.6801 29.736C34.8561 29.902 34.9856 30.1112 35.0557 30.3428C35.1258 30.5744 35.134 30.8204 35.0795 31.0561C35.025 31.2919 34.9098 31.5092 34.7452 31.6866C32.6261 33.9047 30.1921 35.6144 27.0967 36.1857C26.4488 36.3207 25.792 36.3567 25.4635 36.3972Z" fill="#3DB1B1"/>
<path d="M15.1605 20.3489C15.1633 19.8908 15.302 19.4438 15.5591 19.0646C15.8163 18.6854 16.1802 18.3912 16.6049 18.2192C17.0295 18.0472 17.4956 18.0052 17.9441 18.0985C18.3927 18.1919 18.8034 18.4163 19.1241 18.7434C19.4449 19.0705 19.6613 19.4855 19.7459 19.9358C19.8304 20.386 19.7793 20.8513 19.5991 21.2725C19.4188 21.6936 19.1175 22.0518 18.7334 22.3015C18.3493 22.5512 17.8997 22.6811 17.4416 22.6749C16.8318 22.6654 16.2503 22.4159 15.8232 21.9805C15.3962 21.545 15.1581 20.9588 15.1605 20.3489Z" fill="#3DB1B1"/>
<path d="M34.8486 20.3804C34.8459 20.8383 34.7073 21.2851 34.4504 21.6642C34.1935 22.0433 33.8298 22.3375 33.4054 22.5097C32.981 22.6818 32.5151 22.7241 32.0667 22.6311C31.6183 22.5382 31.2076 22.3142 30.8866 21.9875C30.5657 21.6609 30.3489 21.2463 30.2639 20.7963C30.1788 20.3463 30.2292 19.8812 30.4088 19.46C30.5884 19.0387 30.8889 18.6802 31.2725 18.43C31.656 18.1797 32.1052 18.049 32.5631 18.0543C33.1741 18.0614 33.7574 18.3101 34.1857 18.7459C34.6139 19.1817 34.8523 19.7694 34.8486 20.3804Z" fill="#3DB1B1"/>
</svg>
