<svg width="50" height="50" viewBox="0 0 50 50" fill="none" xmlns="http://www.w3.org/2000/svg">
<rect width="50" height="50" rx="14" fill="#ADC4FE"/>
<path d="M23.9513 7H26.1333C26.2233 7 26.3133 7.04949 26.4032 7.05849C29.0772 7.23632 31.6721 8.03914 33.9794 9.4024C36.275 10.7044 38.2515 12.5018 39.7652 14.6637C41.2788 16.8256 42.2916 19.2978 42.7297 21.9003C42.8556 22.5526 42.9186 23.214 43.0086 23.8753V26.0528C43.0086 26.1697 42.9636 26.2822 42.9456 26.3947C42.8017 27.3304 42.7207 28.2797 42.4957 29.1975C41.7438 32.3357 40.1619 35.214 37.9156 37.5309C35.6693 39.8478 32.8412 41.518 29.7278 42.3666C26.6143 43.2152 23.3299 43.211 20.2186 42.3544C17.1073 41.4978 14.2836 39.8203 12.0433 37.4976C9.80297 35.175 8.22842 32.2926 7.48458 29.1525C6.74074 26.0123 6.85499 22.7299 7.81535 19.6491C8.77572 16.5682 10.5469 13.8023 12.9433 11.641C15.3397 9.47975 18.2732 8.00264 21.4365 7.36441C22.2733 7.19795 23.1281 7.12147 23.9513 7ZM24.9726 35.4014H30.1373C30.328 35.4122 30.5189 35.384 30.6984 35.3185C30.8778 35.2529 31.0419 35.1515 31.1808 35.0203C31.3196 34.8891 31.4302 34.7309 31.5058 34.5555C31.5814 34.3801 31.6204 34.191 31.6204 34C31.6204 33.809 31.5814 33.62 31.5058 33.4446C31.4302 33.2691 31.3196 33.111 31.1808 32.9798C31.0419 32.8486 30.8778 32.7471 30.6984 32.6816C30.5189 32.616 30.328 32.5878 30.1373 32.5986C28.2028 32.5986 26.2728 32.5986 24.3382 32.5986H19.8394C19.5456 32.5877 19.2557 32.6685 19.0098 32.8297C18.764 32.9909 18.5743 33.2246 18.4672 33.4984C18.3867 33.7132 18.3603 33.9445 18.3902 34.1719C18.4202 34.3993 18.5055 34.6159 18.6389 34.8026C18.7722 34.9892 18.9494 35.1403 19.1548 35.2423C19.3602 35.3444 19.5876 35.3944 19.8169 35.3879C21.5669 35.4104 23.281 35.4014 24.9906 35.4014H24.9726Z" fill="#B6CBFF"/>
<path d="M24.9906 35.4014C23.281 35.4014 21.567 35.4014 19.8574 35.4014C19.6281 35.4079 19.4007 35.3579 19.1953 35.2558C18.9899 35.1537 18.8127 35.0027 18.6794 34.8161C18.5461 34.6294 18.4607 34.4128 18.4307 34.1854C18.4008 33.958 18.4272 33.7267 18.5077 33.5119C18.6149 33.2381 18.8045 33.0044 19.0503 32.8432C19.2962 32.682 19.5861 32.6012 19.8799 32.6121H24.3788C26.3133 32.6121 28.2433 32.6121 30.1778 32.6121C30.3685 32.6013 30.5595 32.6295 30.7389 32.6951C30.9183 32.7606 31.0824 32.8621 31.2213 32.9933C31.3601 33.1245 31.4707 33.2826 31.5463 33.4581C31.6219 33.6335 31.6609 33.8225 31.6609 34.0135C31.6609 34.2045 31.6219 34.3936 31.5463 34.569C31.4707 34.7444 31.3601 34.9026 31.2213 35.0338C31.0824 35.1649 30.9183 35.2664 30.7389 35.332C30.5595 35.3975 30.3685 35.4257 30.1778 35.4149L24.9906 35.4014Z" fill="#3E5FB4"/>
<path d="M20.7482 21.7878C20.7464 22.2493 20.6079 22.6998 20.3503 23.0826C20.0926 23.4654 19.7274 23.7632 19.3006 23.9386C18.8738 24.1139 18.4046 24.1589 17.9522 24.0678C17.4999 23.9767 17.0847 23.7536 16.759 23.4267C16.4334 23.0998 16.2119 22.6837 16.1225 22.2311C16.0332 21.7784 16.0799 21.3094 16.2569 20.8832C16.4339 20.4571 16.7332 20.093 17.117 19.8368C17.5007 19.5806 17.9518 19.4439 18.4132 19.4439C19.0333 19.4463 19.6272 19.6943 20.0648 20.1336C20.5024 20.5729 20.7482 21.1677 20.7482 21.7878Z" fill="#3E5FB4"/>
<path d="M29.305 21.7833C29.305 21.1653 29.5505 20.5725 29.9876 20.1355C30.4246 19.6984 31.0174 19.4529 31.6354 19.4529C32.2535 19.4529 32.8463 19.6984 33.2833 20.1355C33.7203 20.5725 33.9659 21.1653 33.9659 21.7833C33.9659 22.4014 33.7203 22.9941 33.2833 23.4312C32.8463 23.8682 32.2535 24.1137 31.6354 24.1137C31.0174 24.1137 30.4246 23.8682 29.9876 23.4312C29.5505 22.9941 29.305 22.4014 29.305 21.7833Z" fill="#3E5FB4"/>
</svg>
