<svg width="50" height="50" viewBox="0 0 50 50" fill="none" xmlns="http://www.w3.org/2000/svg">
<rect width="50" height="50" rx="14" fill="#FFADDE"/>
<path d="M23.9476 7H26.1253C26.2157 7.02424 26.3074 7.04377 26.3998 7.05849C29.0728 7.23588 31.6667 8.03887 33.9724 9.40273C36.2715 10.7032 38.2517 12.4999 39.7687 14.6622C41.2857 16.8245 42.3015 19.2979 42.7419 21.9023C42.8634 22.5547 42.9264 23.2162 43.0164 23.8776V26.0553C43.0164 26.1723 42.9759 26.2803 42.9579 26.3973C42.8139 27.2972 42.7329 28.2601 42.508 29.1645C41.7615 32.3048 40.1842 35.1865 37.9414 37.5078C35.6985 39.8291 32.8727 41.5046 29.7599 42.3586C26.6472 43.2126 23.362 43.2138 20.2486 42.3621C17.1352 41.5103 14.3082 39.8369 12.0636 37.5172C9.81913 35.1976 8.23975 32.3169 7.49097 29.1772C6.74219 26.0374 6.85156 22.7541 7.80762 19.6711C8.76368 16.5882 10.5313 13.819 12.9252 11.6539C15.3191 9.48869 18.2512 8.00715 21.4144 7.36446C22.2513 7.19798 23.1017 7.12149 23.9476 7ZM25.1219 29.016H24.384L24.1411 29.043C21.4774 29.385 19.3311 30.7123 17.4593 32.5526C17.3074 32.707 17.196 32.8966 17.1351 33.1045C17.0742 33.3124 17.0656 33.5321 17.1102 33.7441C17.1547 33.9561 17.251 34.1538 17.3904 34.3196C17.5298 34.4854 17.7081 34.6141 17.9093 34.6944C18.1354 34.7841 18.3824 34.8076 18.6214 34.7622C18.8604 34.7168 19.0816 34.6043 19.2591 34.4379C19.8617 33.9068 20.4909 33.4067 21.1444 32.9396C23.9251 31.0678 26.7238 31.1803 29.3605 33.241C29.8104 33.601 30.2334 34.0194 30.6653 34.4154C30.7892 34.5363 30.9357 34.6316 31.0965 34.6958C31.2573 34.7599 31.4292 34.7916 31.6023 34.7891C31.7754 34.7866 31.9463 34.7499 32.1052 34.6812C32.2641 34.6124 32.4078 34.5129 32.5281 34.3884C32.6483 34.2676 32.743 34.124 32.8066 33.9659C32.8702 33.8079 32.9015 33.6387 32.8986 33.4683C32.8956 33.298 32.8586 33.13 32.7895 32.9742C32.7205 32.8185 32.6209 32.6782 32.4966 32.5616C32.0682 32.1206 31.6177 31.7016 31.1468 31.3062C29.374 29.8934 27.4167 29.0025 25.1219 29.016ZM33.221 20.6649C34.0669 20.467 34.9083 20.278 35.7452 20.0755C35.9337 20.0439 36.1138 19.9744 36.2746 19.8712C36.4355 19.768 36.5737 19.6333 36.6809 19.4751C36.7882 19.317 36.8623 19.1387 36.8986 18.9511C36.935 18.7635 36.933 18.5705 36.8926 18.3837C36.853 18.2 36.7761 18.0263 36.6668 17.8734C36.5575 17.7205 36.418 17.5916 36.257 17.4947C36.0959 17.3977 35.9168 17.3347 35.7305 17.3097C35.5442 17.2846 35.3547 17.2979 35.1738 17.3488C33.008 17.8348 30.8438 18.3402 28.681 18.8652C28.3562 18.9364 28.0692 19.1251 27.8749 19.3949C27.6806 19.6648 27.5927 19.9969 27.6282 20.3275C27.6593 20.6761 27.8188 21.0007 28.0757 21.2385C28.3326 21.4762 28.6685 21.6102 29.0185 21.6143H29.284C29.0725 22.8652 29.5134 23.8371 30.4853 24.314C30.924 24.5389 31.4234 24.6166 31.9096 24.5356C32.3958 24.4546 32.843 24.2191 33.185 23.8641C33.9814 23.0227 34.0084 22.0553 33.2435 20.6649H33.221ZM16.7394 20.6649C15.9925 21.9698 15.997 22.8787 16.7394 23.7201C17.0825 24.1087 17.5467 24.3703 18.0569 24.4624C18.5671 24.5546 19.0934 24.4719 19.5508 24.2279C20.0082 23.9838 20.3699 23.5926 20.5775 23.1175C20.785 22.6425 20.8262 22.1113 20.6944 21.6098H20.8924C21.2479 21.6234 21.5953 21.502 21.8648 21.2699C22.1344 21.0379 22.3062 20.7125 22.3458 20.359C22.3858 20.0172 22.2968 19.6728 22.0963 19.3931C21.8957 19.1135 21.598 18.9188 21.2614 18.8472C19.1406 18.3342 17.0019 17.8348 14.8451 17.3488C14.6636 17.2985 14.4738 17.2856 14.2871 17.3109C14.1005 17.3362 13.921 17.3991 13.7594 17.4959C13.5978 17.5927 13.4576 17.7213 13.3472 17.8739C13.2368 18.0265 13.1586 18.2 13.1173 18.3837C13.0762 18.5705 13.0735 18.7637 13.1093 18.9515C13.1451 19.1394 13.2186 19.318 13.3255 19.4766C13.4323 19.6352 13.5703 19.7705 13.7309 19.8742C13.8916 19.9779 14.0716 20.0479 14.2602 20.08C15.0926 20.278 15.9115 20.467 16.7619 20.6649H16.7394Z" fill="#FFB9E3"/>
<path d="M25.1219 29.016C27.4167 29.016 29.374 29.9159 31.1243 31.3062C31.5952 31.7016 32.0457 32.1206 32.4741 32.5616C32.5984 32.6782 32.698 32.8185 32.767 32.9742C32.8361 33.13 32.8731 33.298 32.8761 33.4683C32.879 33.6387 32.8477 33.8079 32.7841 33.9659C32.7205 34.124 32.6258 34.2676 32.5056 34.3884C32.3853 34.5129 32.2416 34.6124 32.0827 34.6812C31.9238 34.7499 31.7529 34.7866 31.5798 34.7891C31.4067 34.7916 31.2348 34.7599 31.074 34.6958C30.9132 34.6316 30.7667 34.5363 30.6428 34.4154C30.1929 34.0194 29.7969 33.601 29.338 33.241C26.7013 31.1803 23.9026 31.0678 21.1219 32.9396C20.4866 33.4111 19.8754 33.9141 19.2906 34.4469C19.1131 34.6133 18.8919 34.7257 18.6529 34.7712C18.4139 34.8166 18.1669 34.7931 17.9408 34.7034C17.7395 34.6231 17.5613 34.4944 17.4219 34.3286C17.2825 34.1628 17.1862 33.9651 17.1417 33.7531C17.0971 33.5411 17.1057 33.3214 17.1666 33.1135C17.2275 32.9056 17.3389 32.716 17.4908 32.5616C19.3626 30.7213 21.5088 29.412 24.1725 29.052L24.4155 29.025L25.1219 29.016Z" fill="#BF3989"/>
<path d="M33.2435 20.6649C34.0084 22.0553 33.9814 23.0227 33.167 23.8641C32.825 24.2191 32.3778 24.4545 31.8916 24.5356C31.4054 24.6166 30.906 24.5389 30.4673 24.314C29.4954 23.8281 29.0545 22.8562 29.266 21.6143H29.0005C28.6505 21.6102 28.3146 21.4762 28.0577 21.2385C27.8008 21.0007 27.6413 20.6761 27.6102 20.3275C27.5747 19.9968 27.6626 19.6648 27.8569 19.3949C28.0512 19.1251 28.3382 18.9364 28.663 18.8651C30.8498 18.3402 33.02 17.8348 35.1738 17.3488C35.3547 17.2979 35.5442 17.2846 35.7305 17.3097C35.9168 17.3347 36.0959 17.3977 36.257 17.4946C36.418 17.5916 36.5575 17.7205 36.6668 17.8734C36.7761 18.0263 36.853 18.2 36.8926 18.3837C36.9334 18.5673 36.9371 18.7572 36.9035 18.9422C36.87 19.1273 36.7998 19.3038 36.6971 19.4614C36.5944 19.6189 36.4613 19.7544 36.3056 19.8599C36.1499 19.9653 35.9747 20.0387 35.7902 20.0755C34.9308 20.278 34.0894 20.467 33.2435 20.6649Z" fill="#BF3989"/>
<path d="M16.7619 20.6649C15.9115 20.467 15.0926 20.278 14.2737 20.08C14.0851 20.0479 13.9051 19.9779 13.7444 19.8742C13.5837 19.7705 13.4458 19.6352 13.339 19.4766C13.2321 19.318 13.1585 19.1394 13.1228 18.9515C13.087 18.7637 13.0897 18.5705 13.1308 18.3837C13.1723 18.2014 13.2501 18.0294 13.3595 17.8779C13.469 17.7263 13.6079 17.5985 13.768 17.5018C13.928 17.4052 14.1059 17.3419 14.2909 17.3156C14.476 17.2893 14.6645 17.3006 14.8451 17.3488C16.9929 17.8348 19.1346 18.3342 21.2704 18.8472C21.607 18.9188 21.9047 19.1135 22.1053 19.3931C22.3058 19.6728 22.3948 20.0172 22.3548 20.359C22.3152 20.7125 22.1434 21.0379 21.8738 21.2699C21.6043 21.502 21.2569 21.6234 20.9014 21.6098H20.7034C20.8352 22.1113 20.794 22.6425 20.5865 23.1175C20.3789 23.5926 20.0172 23.9838 19.5598 24.2279C19.1024 24.4719 18.5761 24.5546 18.0659 24.4624C17.5557 24.3703 17.0915 24.1087 16.7484 23.7201C16.0195 22.8787 16.015 21.9698 16.7619 20.6649Z" fill="#BF3989"/>
</svg>
