<svg width="16" height="18" viewBox="0 0 16 18" fill="none" xmlns="http://www.w3.org/2000/svg">
<path d="M5.81686 15.5051C6.26678 15.4099 9.00835 15.4099 9.45827 15.5051C9.8429 15.594 10.2588 15.8015 10.2588 16.2548C10.2365 16.6862 9.98333 17.0687 9.63359 17.3117C9.18009 17.6652 8.64788 17.8891 8.09151 17.9697C7.78381 18.0096 7.48148 18.0105 7.18452 17.9697C6.62726 17.8891 6.09505 17.6652 5.64244 17.3108C5.29181 17.0687 5.03867 16.6862 5.01631 16.2548C5.01631 15.8015 5.43224 15.594 5.81686 15.5051ZM7.6907 0C9.56284 0 11.4752 0.888317 12.6112 2.3622C13.3483 3.31125 13.6864 4.25939 13.6864 5.73327V6.1167C13.6864 7.24704 13.9851 7.91327 14.6426 8.68103C15.1408 9.24665 15.3 9.97272 15.3 10.7604C15.3 11.5472 15.0415 12.2941 14.5236 12.9005C13.8456 13.6275 12.8894 14.0916 11.9135 14.1723C10.4994 14.2928 9.08429 14.3944 7.65045 14.3944C6.21571 14.3944 4.80154 14.3336 3.38738 14.1723C2.41061 14.0916 1.45442 13.6275 0.777299 12.9005C0.259398 12.2941 0 11.5472 0 10.7604C0 9.97272 0.160111 9.24665 0.657439 8.68103C1.33545 7.91327 1.61453 7.24704 1.61453 6.1167V5.73327C1.61453 4.21951 1.992 3.22967 2.7693 2.26068C3.92496 0.847527 5.77742 0 7.6102 0H7.6907Z" fill="black"/>
</svg>
