<svg width="59" height="58" viewBox="0 0 59 58" fill="none" xmlns="http://www.w3.org/2000/svg">
<path d="M54.0017 38.2108L23.7697 54.0561C23.4428 54.233 23.0842 54.3437 22.7144 54.3818C22.3446 54.4199 21.971 54.3847 21.6148 54.2782C21.2587 54.1716 20.9271 53.9958 20.639 53.7609C20.351 53.5259 20.1121 53.2364 19.9361 52.909L3.33927 23.5631C3.16905 23.2309 3.06633 22.8683 3.03703 22.4962C3.00774 22.1242 3.05246 21.75 3.16861 21.3953C3.28476 21.0406 3.47004 20.7124 3.71374 20.4297C3.95744 20.147 4.25474 19.9154 4.58846 19.7482L11.3253 16.2045C11.3889 16.1747 11.4592 16.1622 11.5292 16.1682C11.5992 16.1742 11.6663 16.1984 11.724 16.2385C11.7731 16.2869 11.8077 16.348 11.8239 16.4151C11.84 16.4821 11.8371 16.5523 11.8154 16.6177C11.6483 17.3931 11.7478 18.2021 12.0978 18.9138C13.5753 21.7134 19.1755 21.6862 24.5972 18.85C30.0189 16.0137 33.2258 11.4124 31.7585 8.61035C31.358 7.90416 30.7244 7.35919 29.9662 7.06875C29.9017 7.04168 29.8465 6.99634 29.8075 6.93831C29.7685 6.88028 29.7472 6.81209 29.7465 6.74215C29.7423 6.67349 29.7579 6.60508 29.7915 6.54506C29.8251 6.48504 29.8753 6.43595 29.936 6.40366L36.6753 2.87016C37.0023 2.69322 37.3609 2.58252 37.7306 2.54441C38.1004 2.50631 38.4741 2.54155 38.8302 2.6481C39.1863 2.75466 39.5179 2.93045 39.806 3.16539C40.0941 3.40033 40.333 3.68981 40.5089 4.01723L55.2152 34.3829C55.3888 34.7135 55.4951 35.0753 55.528 35.4472C55.5609 35.8192 55.5197 36.194 55.4069 36.55C55.294 36.9059 55.1117 37.236 54.8705 37.5211C54.6294 37.8061 54.3341 38.0406 54.0017 38.2108ZM4.918 20.3954C4.41963 20.647 4.04142 21.0861 3.86632 21.6162C3.69122 22.1464 3.73351 22.7243 3.98394 23.2233L20.5783 52.559C20.7105 52.8052 20.8904 53.0227 21.1075 53.1988C21.3245 53.3748 21.5744 53.506 21.8426 53.5847C22.1108 53.6633 22.392 53.6878 22.6698 53.6568C22.9475 53.6258 23.2164 53.5398 23.4606 53.404L53.6824 37.5612C54.1786 37.31 54.5553 36.8729 54.7307 36.3452C54.9062 35.8174 54.866 35.2418 54.6189 34.7435L39.9127 4.37788C39.6433 3.89232 39.1933 3.53261 38.6603 3.37685C38.1274 3.22109 37.5545 3.28185 37.066 3.54594L30.9172 6.78523C31.5337 7.16503 32.0376 7.70242 32.377 8.34194C34.0304 11.5112 30.6768 16.5383 24.9108 19.566C19.1448 22.5937 13.0881 22.4815 11.427 19.325C11.1091 18.6837 10.9668 17.9696 11.0148 17.2554L4.918 20.3954Z" fill="#7950B7"/>
<path d="M48.8209 36.4234L25.2511 48.7755C24.7097 49.0645 24.0757 49.1271 23.4882 48.9497C22.9006 48.7722 22.4074 48.3691 22.1165 47.8286L8.74833 24.6774C8.60865 24.4096 8.52335 24.1169 8.49735 23.8161C8.47135 23.5152 8.50516 23.2122 8.59684 22.9245C8.61407 22.8686 8.64434 22.8176 8.68515 22.7757C8.72596 22.7338 8.77614 22.7022 8.83156 22.6836C8.88857 22.6641 8.94957 22.6593 9.00892 22.6696C9.06828 22.6799 9.12407 22.7051 9.17115 22.7427C12.4644 25.2021 19.3073 24.5717 25.7974 21.1742C32.2876 17.7767 36.7223 12.5106 36.5524 8.38723C36.5493 8.32845 36.5607 8.26981 36.5857 8.2165C36.6107 8.16319 36.6484 8.11686 36.6956 8.08159C36.7371 8.04206 36.7884 8.01417 36.8441 8.00072C36.8999 7.98728 36.9582 7.98875 37.0133 8.00499C37.3017 8.0881 37.5701 8.22898 37.8024 8.41907C38.0347 8.60916 38.2258 8.84449 38.3643 9.11075L49.8214 33.2866C50.1042 33.8354 50.1577 34.4739 49.9701 35.062C49.7825 35.6501 49.3692 36.1398 48.8209 36.4234ZM9.2172 23.6534C9.21431 23.8889 9.27038 24.1214 9.38028 24.3298L22.7279 47.486C22.9321 47.8581 23.2748 48.1347 23.6816 48.2559C24.0884 48.3771 24.5266 48.333 24.9011 48.1332L48.4888 35.766C48.8659 35.577 49.1525 35.2461 49.2858 34.8459C49.4191 34.4458 49.3881 34.0091 49.1997 33.6317L37.7271 9.48128C37.6216 9.27357 37.4669 9.09491 37.2763 8.96097C37.0433 13.2574 32.5733 18.4669 26.1422 21.8394C19.711 25.2118 12.883 25.9037 9.2172 23.6534Z" fill="#7950B7"/>
<path d="M24.3705 18.4491C19.1516 21.1822 13.9 21.1254 12.4073 18.3077C10.9146 15.4901 13.8638 11.1245 19.0929 8.38886C24.322 5.65327 29.5634 5.71263 31.0561 8.53024C32.5488 11.3479 29.5562 15.7132 24.3705 18.4491ZM19.4327 9.03353C14.6171 11.5501 11.7963 15.5487 13.0622 17.9655C14.3281 20.3823 19.2561 20.3112 24.0307 17.8044C28.8053 15.2977 31.6773 11.2868 30.4114 8.87002C29.1455 6.45321 24.2175 6.52434 19.4327 9.03353Z" fill="#7950B7"/>
<path d="M23.3454 15.367C23.4108 15.495 23.4226 15.6438 23.3783 15.7806C23.334 15.9173 23.2372 16.0309 23.1091 16.0963C22.9811 16.1617 22.8323 16.1735 22.6955 16.1292C22.5588 16.0849 22.4452 15.9881 22.3798 15.86C22.33 15.7645 22.3114 15.6557 22.3265 15.549C22.3416 15.4423 22.3897 15.343 22.4641 15.265L21.3794 13.1949C21.3681 13.1748 21.361 13.1526 21.3586 13.1297C21.3562 13.1068 21.3585 13.0836 21.3654 13.0616C21.3723 13.0397 21.3836 13.0193 21.3987 13.0019C21.4137 12.9844 21.4322 12.9703 21.4529 12.9602C21.4928 12.9409 21.5387 12.938 21.5807 12.9522C21.6227 12.9665 21.6574 12.9967 21.6773 13.0363L22.7723 15.1039C22.8834 15.0783 23 15.0903 23.1036 15.1378C23.2073 15.1854 23.2923 15.266 23.3454 15.367Z" fill="#7950B7"/>
<path d="M20.7486 10.6683L21.2416 11.6339C21.287 11.7208 21.2961 11.8221 21.2667 11.9156C21.2374 12.0091 21.1722 12.0871 21.0853 12.1325C20.9985 12.1779 20.8971 12.1869 20.8036 12.1576C20.7101 12.1283 20.6321 12.063 20.5867 11.9762L20.0937 11.0106C20.0703 10.9678 20.0556 10.9208 20.0505 10.8723C20.0454 10.8238 20.0499 10.7748 20.0638 10.7281C20.0778 10.6813 20.1009 10.6378 20.1317 10.6001C20.1626 10.5623 20.2006 10.5311 20.2436 10.5081C20.3321 10.4637 20.4344 10.4556 20.5287 10.4855C20.623 10.5155 20.7019 10.5811 20.7486 10.6683Z" fill="#7950B7"/>
<path d="M23.207 9.62015C23.2791 9.68553 23.327 9.77332 23.343 9.86932L23.4773 10.9214C23.4863 10.9971 23.4717 11.0736 23.4354 11.1406C23.3991 11.2076 23.343 11.2618 23.2747 11.2956C23.2404 11.315 23.2014 11.3244 23.162 11.3228C23.1131 11.3325 23.0626 11.3309 23.0144 11.318C22.9662 11.3052 22.9215 11.2816 22.8839 11.2488C22.845 11.2213 22.8122 11.1862 22.7875 11.1455C22.7628 11.1048 22.7466 11.0595 22.7401 11.0124L22.6058 9.9603C22.5959 9.864 22.6223 9.76749 22.6796 9.68953C22.737 9.61156 22.8213 9.55771 22.9162 9.53844C23.02 9.52668 23.1244 9.55601 23.207 9.62015Z" fill="#7950B7"/>
<path d="M25.6426 9.46671C25.6708 9.50446 25.691 9.54754 25.7021 9.59335C25.7131 9.63915 25.7147 9.68672 25.7068 9.73317L25.4323 10.7537C25.42 10.8037 25.3975 10.8507 25.3664 10.8917C25.3353 10.9328 25.2961 10.9671 25.2513 10.9925C25.1797 11.0425 25.0919 11.0636 25.0054 11.0518C24.9562 11.0415 24.9097 11.021 24.869 10.9916C24.8283 10.9622 24.7942 10.9245 24.769 10.8811C24.7408 10.8433 24.7206 10.8002 24.7095 10.7544C24.6985 10.7086 24.6969 10.6611 24.7047 10.6146L24.9792 9.5941C25.0051 9.50096 25.0654 9.42117 25.1481 9.37102C25.2307 9.32087 25.3293 9.30414 25.4239 9.32423C25.5113 9.34437 25.5888 9.39485 25.6426 9.46671Z" fill="#7950B7"/>
<path d="M19.1754 12.8695C19.2144 12.8989 19.246 12.937 19.2678 12.9806C19.2896 13.0243 19.301 13.0724 19.3012 13.1212C19.3031 13.1694 19.2953 13.2175 19.2783 13.2626C19.2612 13.3077 19.2352 13.3489 19.2018 13.3837C19.1665 13.4004 19.1281 13.4097 19.0891 13.4109C19.022 13.4476 18.9451 13.4626 18.8691 13.4537C18.7932 13.4448 18.7218 13.4125 18.665 13.3613L17.8909 12.6695C17.8557 12.6371 17.8273 12.5978 17.8074 12.5542C17.7876 12.5105 17.7767 12.4633 17.7754 12.4154C17.7693 12.3176 17.8003 12.2211 17.8621 12.1451C17.8952 12.1088 17.9352 12.0795 17.9798 12.0589C18.0243 12.0383 18.0726 12.0268 18.1216 12.0251C18.1707 12.0233 18.2196 12.0314 18.2655 12.0488C18.3114 12.0663 18.3534 12.0927 18.389 12.1265L19.1754 12.8695Z" fill="#7950B7"/>
<path d="M17.7166 14.2406C17.7622 14.2564 17.8041 14.2812 17.8399 14.3136C17.8756 14.346 17.9045 14.3853 17.9247 14.429C17.9473 14.4742 17.9595 14.5238 17.9604 14.5742C17.9613 14.6247 17.9509 14.6747 17.9299 14.7206C17.8981 14.8033 17.8377 14.8717 17.7595 14.9135C17.7194 14.9447 17.673 14.9671 17.6235 14.979C17.574 14.9909 17.5226 14.9922 17.4726 14.9827L16.4758 14.6265C16.4315 14.6098 16.3912 14.5843 16.3572 14.5515C16.3232 14.5187 16.2962 14.4793 16.2779 14.4357C16.2348 14.3451 16.2292 14.2412 16.2624 14.1466C16.3015 14.0577 16.3724 13.9865 16.4611 13.9471C16.5499 13.9076 16.6502 13.9027 16.7424 13.9333L17.7166 14.2406Z" fill="#7950B7"/>
</svg>
