<svg width="52" height="36" viewBox="0 0 52 36" fill="none" xmlns="http://www.w3.org/2000/svg">
<path d="M19.0593 33.8421C19.0593 33.8421 17.6055 34.2752 16.4978 34.6052L15.8286 34.8046C15.5859 34.8557 15.3337 34.837 15.1012 34.7506C14.8687 34.6642 14.6654 34.5137 14.515 34.3165C14.5093 34.5652 14.4218 34.805 14.2662 34.999C14.1105 35.1929 13.8953 35.3302 13.6538 35.3896L9.93605 35.9821C9.68744 36.0051 9.43732 35.9586 9.21357 35.8478C8.98982 35.737 8.80122 35.5663 8.66879 35.3546C8.62316 35.2809 8.56912 35.2127 8.50774 35.1514C8.49353 35.2663 8.45578 35.377 8.39686 35.4767C8.33794 35.5764 8.25912 35.6629 8.16529 35.7308C8.03369 35.7999 7.8865 35.8341 7.73788 35.83C7.58925 35.8259 7.44418 35.7836 7.31662 35.7072C6.0845 35.4393 4.88927 35.0235 3.75692 34.4688C3.26666 34.2232 2.82972 33.8832 2.47116 33.4683C2.1126 33.0535 1.83947 32.5719 1.66746 32.0512C1.63388 31.8387 1.64903 31.6213 1.71175 31.4154C1.77447 31.2096 1.88313 31.0207 2.02953 30.863C2.07931 30.7846 2.15578 30.7267 2.24483 30.7002C2.33389 30.6737 2.42953 30.6802 2.51413 30.7186C4.07107 31.5905 5.83673 32.0202 7.6202 31.9612C15.9513 31.5898 23.0946 27.6529 28.3802 24.2693C31.778 22.3307 35.3795 20.7733 39.1192 19.6255C42.1995 18.6569 45.2004 17.4521 48.0954 16.0219C48.5887 15.7984 49.0053 15.4345 49.2931 14.9757C49.5808 14.5168 49.7271 13.9834 49.7136 13.442C49.7158 13.3554 49.7471 13.272 49.8024 13.2054C49.8578 13.1387 49.934 13.0927 50.0188 13.0747C50.0999 13.0523 50.1863 13.0588 50.2631 13.0933C50.3398 13.1278 50.4022 13.188 50.4393 13.2635C51.4177 15.5249 51.5812 18.0558 50.9017 20.4243C50.359 22.0181 47.5992 23.3804 47.2933 23.5343C47.06 23.6444 46.7954 23.6687 46.5459 23.6028C46.2965 23.5369 46.0783 23.3852 45.9298 23.1742L45.9058 23.0934C45.8938 23.1406 45.8871 23.1889 45.8859 23.2376C45.8849 23.4884 45.8056 23.7326 45.659 23.9362C45.5125 24.1398 45.306 24.2925 45.0684 24.373L43.8108 24.7476C42.4467 25.161 41.0406 25.4198 39.6187 25.5191C39.3198 25.4906 39.0346 25.3799 38.7948 25.1992C38.4808 24.9719 38.1249 24.8089 37.7475 24.7198C36.6823 24.5292 35.5842 24.6679 34.5998 25.1174C32.3231 25.9086 31.8425 26.4036 31.3476 27.1037C31.1626 27.4247 31.0245 27.7704 30.9374 28.1304C30.8294 28.5269 30.7469 28.8404 30.4641 28.9874L27.0739 30.7637C26.8454 30.8817 26.5817 30.9127 26.3321 30.8506C26.0825 30.7886 25.8639 30.6379 25.7173 30.4266C25.7173 30.4266 25.7173 30.4266 25.7173 30.4266C25.7032 30.4954 25.6946 30.5652 25.6915 30.6353C25.6959 30.8843 25.6267 31.1291 25.4926 31.3389C25.3584 31.5487 25.1653 31.7143 24.9374 31.8147L21.27 33.2087C21.0272 33.2979 20.7622 33.3065 20.5141 33.2334C20.2661 33.1602 20.0482 33.0091 19.8927 32.8024C19.8605 33.0348 19.766 33.2541 19.6193 33.4372C19.4726 33.6202 19.2791 33.7601 19.0593 33.8421V33.8421ZM14.2272 33.435C14.3929 33.3961 14.5665 33.4091 14.7245 33.4721C14.8826 33.5351 15.0175 33.6451 15.111 33.7872C15.1719 33.8556 15.2489 33.9079 15.335 33.9392C15.421 33.9706 15.5136 33.9801 15.6042 33.9669L16.2734 33.7676C17.3867 33.4987 18.8324 33.0806 18.8324 33.0806C18.9112 33.0463 18.98 32.9924 19.0322 32.9241C19.0843 32.8558 19.1183 32.7753 19.1307 32.6903C19.137 32.5225 19.1925 32.3603 19.2904 32.2239C19.3883 32.0875 19.5242 31.983 19.6811 31.9233C19.842 31.883 20.0115 31.8934 20.1663 31.9529C20.3212 32.0124 20.4539 32.1182 20.5465 32.256C20.6044 32.316 20.6767 32.3605 20.7565 32.385C20.8364 32.4096 20.9211 32.4135 21.0028 32.3964L24.6587 31.0058C24.736 30.9632 24.8008 30.9011 24.8466 30.8258C24.8925 30.7504 24.9178 30.6644 24.9201 30.5762C24.9025 30.1794 25.0407 29.6735 25.4676 29.5463C25.6444 29.5088 25.8285 29.5274 25.9942 29.5997C26.1599 29.672 26.2989 29.7942 26.3916 29.9494C26.4305 30.004 26.4872 30.0433 26.552 30.0607C26.6168 30.0781 26.6856 30.0724 26.7466 30.0446L30.1253 28.2718C30.1253 28.2718 30.1822 28.0413 30.2252 27.8903C30.3266 27.4448 30.5012 27.0192 30.7419 26.6309C31.3849 25.7108 32.0501 25.1609 34.373 24.3558C35.4778 23.8594 36.7067 23.7079 37.899 23.921C38.3771 24.0235 38.8295 24.2221 39.2286 24.5047C39.3532 24.59 39.4879 24.6595 39.6295 24.7119V24.7119C40.9559 24.6037 42.2667 24.3522 43.539 23.9618L44.7966 23.5872C44.8723 23.5532 44.9376 23.4999 44.9859 23.4325C45.0343 23.3652 45.0639 23.2862 45.0718 23.2037C45.0473 23.0053 45.0884 22.8042 45.1889 22.6314C45.2894 22.4585 45.4437 22.3233 45.6283 22.2465C45.8105 22.2077 46.0003 22.2295 46.169 22.3085C46.3377 22.3875 46.4759 22.5194 46.5627 22.6842C46.6055 22.7373 46.6644 22.7751 46.7306 22.7916C46.7967 22.8082 46.8665 22.8027 46.9292 22.776C47.6991 22.4085 49.7678 21.2143 50.1343 20.1253C50.6313 18.3869 50.6683 16.5492 50.2415 14.7922C49.8942 15.5952 49.2758 16.2508 48.4943 16.6442V16.6442C45.5643 18.1165 42.5223 19.3545 39.3969 20.3468C35.7363 21.4759 32.2102 23.0023 28.8818 24.8988C23.4749 28.3812 16.2046 32.356 7.68331 32.7213C5.89222 32.7997 4.11005 32.4279 2.49967 31.64C2.46795 31.7394 2.46063 31.845 2.47832 31.9478C2.58144 32.294 2.8812 32.9207 4.29208 33.8194C5.34779 34.3202 6.45589 34.7022 7.59597 34.9582C7.6291 34.9609 7.66205 34.9511 7.68828 34.9307C7.70234 34.9216 7.71338 34.9085 7.71998 34.8931C7.72659 34.8778 7.72845 34.8607 7.72535 34.8443C7.73982 34.6922 7.79919 34.5478 7.89593 34.4295C7.99266 34.3112 8.12239 34.2243 8.26861 34.18C8.84551 34.0081 9.25477 34.665 9.33063 34.7932C9.38472 34.8716 9.45775 34.9352 9.54294 34.9779C9.62813 35.0206 9.72272 35.041 9.81794 35.0374L13.4895 34.4587C13.5619 34.4309 13.6255 34.3842 13.6737 34.3234C13.7219 34.2627 13.7529 34.1901 13.7635 34.1133C13.7742 33.9694 13.8227 33.8309 13.9041 33.7117C13.9855 33.5926 14.097 33.4971 14.2272 33.435V33.435ZM15.4701 29.9745C13.0326 30.7137 10.5137 31.1519 7.96976 31.2792C5.74632 31.3637 2.77362 30.7042 1.49799 29.0365C1.16138 28.5909 0.944333 28.0666 0.867491 27.5134C0.790649 26.9602 0.856562 26.3966 1.05896 25.8761C1.55169 24.5088 2.48753 23.3457 3.71758 22.5716C3.78066 22.5342 3.852 22.513 3.92526 22.5098C5.93301 22.2972 7.9156 21.8917 9.84557 21.2988L11.6627 20.8203C15.936 19.7734 19.8521 17.4009 23.6434 15.1157C26.2669 13.502 28.6999 11.5972 30.8961 9.43773C32.0303 8.48714 32.9326 7.29032 33.5344 5.93839C33.5563 5.87617 33.5906 5.81899 33.635 5.77022C33.7713 5.65257 33.8967 5.52274 34.0094 5.38233C34.0409 5.34191 34.0801 5.30817 34.1248 5.2831C34.1695 5.25803 34.2187 5.24212 34.2697 5.23631C34.3206 5.2305 34.3721 5.23491 34.4213 5.24927C34.4705 5.26364 34.5163 5.28767 34.5561 5.31996C37.4898 7.6619 39.4693 8.52943 41.4913 6.4196C41.7491 6.07637 41.9271 5.68002 42.0125 5.25938C42.1924 4.64048 42.3886 3.99163 42.9611 3.72059C43.1721 3.62369 43.4009 3.57145 43.633 3.56713C43.8652 3.56282 44.0958 3.60653 44.3103 3.69552C45.691 4.11331 46.9799 6.66887 47.4967 7.77113C48.6611 10.2884 50.4239 14.0972 47.0705 15.9127C44.2682 17.3256 41.3591 18.5157 38.37 19.4719C34.8812 20.5412 31.5227 21.9968 28.3569 23.8115C24.3722 26.4612 20.0339 28.5359 15.4701 29.9745V29.9745ZM4.05883 23.2111C3.00418 23.9001 2.20775 24.9193 1.79422 26.1093C1.63909 26.5063 1.58589 26.9359 1.63946 27.3588C1.69303 27.7817 1.85167 28.1845 2.10091 28.5303C3.30289 30.1194 6.24024 30.5759 7.93783 30.4973C15.9252 30.1529 22.7661 26.3815 27.8266 23.1278C31.0621 21.2711 34.4945 19.7809 38.0601 18.6848C41.0121 17.7477 43.886 16.5808 46.6555 15.1946C49.1524 13.8353 48.1797 11.1604 46.7442 8.07065C45.9714 6.40401 44.8332 4.60752 44.015 4.34879C43.7734 4.24543 43.5017 4.23667 43.2539 4.32425C42.9655 4.41019 42.8457 4.93579 42.7041 5.43022C42.5858 5.96732 42.344 6.46946 41.9978 6.89682C39.4199 9.58677 36.788 8.04686 34.2986 6.10015L34.1808 6.21062C33.5365 7.64409 32.5807 8.91587 31.383 9.93337C29.137 12.1193 26.6509 14.0441 23.9721 15.671C20.1621 18.0622 16.2021 20.4981 11.7928 21.5102L9.98724 21.9852C8.05371 22.5781 6.06891 22.9885 4.05883 23.2111V23.2111ZM11.9826 19.9964L10.9211 20.3127C10.3672 20.4777 9.76724 20.6564 9.14418 20.842C7.18263 21.4422 5.16807 21.853 3.12813 22.0689C3.04265 22.0722 2.9585 22.047 2.88894 21.9972C2.81938 21.9474 2.76836 21.8759 2.74394 21.7939C2.71952 21.7119 2.72307 21.6242 2.75405 21.5444C2.78503 21.4647 2.84166 21.3975 2.91502 21.3535C3.47621 20.9602 4.07423 20.6062 4.64917 20.2591C5.2241 19.9119 5.64659 19.6856 6.10615 19.3728C9.91638 16.5446 13.3836 13.2815 16.4375 9.64972L18.8099 7.07124C19.2756 6.56821 19.7506 6.01215 20.2315 5.39153C21.7526 3.58171 23.4908 1.53129 25.6627 0.683301C28.1081 -0.258725 30.4914 1.66932 32.8067 3.57995L33.319 3.9926C33.3672 4.03977 33.4025 4.0984 33.4218 4.16299C33.441 4.22758 33.4435 4.29601 33.429 4.36183C33.2209 5.85591 32.1344 7.18455 30.4429 8.84414C28.2179 11.0423 25.7462 12.9758 23.077 14.6061V14.6061C19.6224 16.8661 15.8943 18.6774 11.9826 19.9964V19.9964ZM4.74689 21.0088C6.14154 20.7566 7.58602 20.3766 8.91978 20.0044L10.7254 19.5293C14.979 18.5008 18.872 16.1351 22.6403 13.8568C25.2545 12.2549 27.6784 10.3612 29.8653 8.21225C31.1081 7.21003 32.0477 5.88191 32.5791 4.37633L32.2452 4.09893C30.0117 2.25189 27.9323 0.585045 25.8955 1.38025C23.8586 2.17546 22.2416 4.12694 20.7726 5.85845C20.2733 6.45943 19.7983 7.01549 19.3279 7.54503C18.5237 8.38759 17.7448 9.27286 16.9521 10.112C13.8606 13.7926 10.3455 17.0956 6.47981 19.9524C6.00061 20.2836 5.48459 20.5755 4.98355 20.8755L4.74689 21.0088Z" fill="#7950B7"/>
</svg>
