<svg width="154" height="145" viewBox="0 0 154 145" fill="none" xmlns="http://www.w3.org/2000/svg">
<path d="M148.437 136.698L145.344 133.636C147.922 129.9 146.811 127.149 144.596 124.616C143.262 123.089 139.772 123.322 135.462 123.868L111.794 100.492L108.149 101.859C108.149 101.859 118.008 113.859 127.243 124.903C123.402 125.244 119.543 125.249 116.35 124.183C106.782 120.994 99.0371 114.16 99.0371 114.16C88.1029 115.071 104.504 132.839 110.883 137.851C123.639 147.874 130.418 146.051 139.471 139.299C141.102 141.158 142.277 142.438 142.774 142.862L142.87 142.944C146.947 146.306 152.209 140.429 148.437 136.698Z" fill="#4A00B7" fill-opacity="0.1"/>
<path d="M124.204 99.7492L56.5075 118.802C55.777 118.983 55.008 118.925 54.3123 118.638C53.6166 118.352 53.0306 117.85 52.6395 117.208L1.31238 24.8634C1.13833 24.5889 1.03347 24.2763 1.00678 23.9524C0.9801 23.6285 1.03239 23.303 1.15917 23.0037C1.28595 22.7045 1.48344 22.4404 1.73469 22.2343C1.98594 22.0281 2.28345 21.886 2.60171 21.8201L70.2801 2.74893C71.0125 2.5702 71.7829 2.63029 72.4788 2.92044C73.1746 3.21059 73.7595 3.7156 74.148 4.36173L125.475 96.7059C125.649 96.9791 125.755 97.2904 125.782 97.6131C125.81 97.9359 125.759 98.2606 125.634 98.5595C125.51 98.8585 125.314 99.1228 125.065 99.3299C124.816 99.5371 124.521 99.6809 124.204 99.7492V99.7492Z" fill="#263238" stroke="white" stroke-width="0.455593" stroke-miterlimit="10"/>
<path d="M55.5553 114.747C55.5553 114.747 94.6634 105.449 120.988 96.3323L55.5553 114.747Z" fill="#884849"/>
<path d="M120.988 96.3323L55.5553 114.752L4.94344 23.6698L70.3757 5.25468L120.988 96.3323Z" fill="white" stroke="#263238" stroke-width="0.455593" stroke-miterlimit="10"/>
<path d="M50.9948 24.54L56.0747 23.114" stroke="#263238" stroke-width="0.455593" stroke-miterlimit="10"/>
<path d="M15.7547 34.4582L47.063 25.647" stroke="#263238" stroke-width="0.455593" stroke-miterlimit="10"/>
<path d="M45.4229 30.203L58.0428 26.6494" stroke="#263238" stroke-width="0.455593" stroke-miterlimit="10"/>
<path d="M26.083 35.6473L41.9786 31.1688" stroke="#263238" stroke-width="0.455593" stroke-miterlimit="10"/>
<path d="M17.7229 37.9982L23.1307 36.4765" stroke="#263238" stroke-width="0.455593" stroke-miterlimit="10"/>
<path d="M35.4226 37.1098L60.0064 30.1893" stroke="#263238" stroke-width="0.455593" stroke-miterlimit="10"/>
<path d="M19.691 41.5381L30.0147 38.6314" stroke="#263238" stroke-width="0.455593" stroke-miterlimit="10"/>
<path d="M73.7744 21.8793C73.1278 20.8208 72.1614 19.9953 71.0149 19.522C69.8684 19.0487 68.6012 18.952 67.3961 19.246C65.0453 19.9111 64.0885 22.1618 65.2685 24.2575C65.9147 25.3165 66.881 26.1424 68.0276 26.6158C69.1743 27.0892 70.4418 27.1855 71.6468 26.8908C73.9977 26.2302 74.9499 23.9978 73.7744 21.8793Z" fill="white" stroke="#263238" stroke-width="0.455593" stroke-miterlimit="10"/>
<path d="M29.6047 48.8049L24.5203 50.2354" stroke="#263238" stroke-width="0.455593" stroke-miterlimit="10"/>
<path d="M64.8403 38.8866L33.5365 47.6977" stroke="#263238" stroke-width="0.455593" stroke-miterlimit="10"/>
<path d="M39.1084 50.2217L26.4885 53.7708" stroke="#263238" stroke-width="0.455593" stroke-miterlimit="10"/>
<path d="M58.4483 44.7774L42.5481 49.2514" stroke="#263238" stroke-width="0.455593" stroke-miterlimit="10"/>
<path d="M66.8084 42.422L61.4005 43.9482" stroke="#263238" stroke-width="0.455593" stroke-miterlimit="10"/>
<path d="M53.0404 50.3903L28.4566 57.3107" stroke="#263238" stroke-width="0.455593" stroke-miterlimit="10"/>
<path d="M68.7721 45.9619L58.4483 48.8686" stroke="#263238" stroke-width="0.455593" stroke-miterlimit="10"/>
<path d="M82.5401 37.6565C81.8949 36.5965 80.9288 35.7697 79.7818 35.2962C78.6348 34.8226 77.3668 34.727 76.1618 35.0231C73.8109 35.6838 72.8542 37.9344 74.0341 40.0347C74.6787 41.0952 75.6449 41.9224 76.792 42.396C77.9391 42.8696 79.2074 42.9649 80.4124 42.668C82.7451 42.0256 83.7155 39.7704 82.5401 37.6565Z" fill="white" stroke="#263238" stroke-width="0.455593" stroke-miterlimit="10"/>
<path d="M68.526 56.0898L73.6059 54.6592" stroke="#263238" stroke-width="0.455593" stroke-miterlimit="10"/>
<path d="M33.2859 66.008L64.5897 57.1969" stroke="#263238" stroke-width="0.455593" stroke-miterlimit="10"/>
<path d="M62.9541 61.7528L75.5741 58.1992" stroke="#263238" stroke-width="0.455593" stroke-miterlimit="10"/>
<path d="M43.6142 67.1926L59.5098 62.7186" stroke="#263238" stroke-width="0.455593" stroke-miterlimit="10"/>
<path d="M35.2541 69.548L40.6619 68.0263" stroke="#263238" stroke-width="0.455593" stroke-miterlimit="10"/>
<path d="M52.9538 68.655L77.5376 61.7346" stroke="#263238" stroke-width="0.455593" stroke-miterlimit="10"/>
<path d="M37.2177 73.0834L47.546 70.1767" stroke="#263238" stroke-width="0.455593" stroke-miterlimit="10"/>
<path d="M91.3057 53.4291C90.6605 52.3691 89.6944 51.5423 88.5474 51.0688C87.4004 50.5952 86.1324 50.4996 84.9274 50.7958C82.5765 51.4564 81.6198 53.7116 82.7997 55.8073C83.4444 56.8678 84.4105 57.695 85.5576 58.1686C86.7047 58.6422 87.973 58.7375 89.1781 58.4406C91.5289 57.7982 92.4811 55.5476 91.3057 53.4291Z" fill="white" stroke="#263238" stroke-width="0.455593" stroke-miterlimit="10"/>
<path d="M47.1359 80.3546L42.0515 81.7806" stroke="#263238" stroke-width="0.455593" stroke-miterlimit="10"/>
<path d="M82.3715 70.4364L51.0677 79.2476" stroke="#263238" stroke-width="0.455593" stroke-miterlimit="10"/>
<path d="M56.6396 81.767L44.0197 85.3206" stroke="#263238" stroke-width="0.455593" stroke-miterlimit="10"/>
<path d="M75.9795 76.3272L60.0793 80.8011" stroke="#263238" stroke-width="0.455593" stroke-miterlimit="10"/>
<path d="M84.3397 73.9718L78.9272 75.4935" stroke="#263238" stroke-width="0.455593" stroke-miterlimit="10"/>
<path d="M70.5716 81.9401L45.9833 88.8606" stroke="#263238" stroke-width="0.455593" stroke-miterlimit="10"/>
<path d="M86.3033 77.5118L75.9795 80.4185" stroke="#263238" stroke-width="0.455593" stroke-miterlimit="10"/>
<path d="M100.058 69.2018C99.4109 68.1433 98.4446 67.3178 97.2981 66.8445C96.1516 66.3711 94.8843 66.2744 93.6793 66.5684C91.3284 67.2336 90.3717 69.4842 91.5517 71.6027C92.1978 72.6617 93.1641 73.4876 94.3108 73.961C95.4574 74.4344 96.725 74.5307 97.93 74.236C100.295 73.5709 101.247 71.3339 100.058 69.2018Z" fill="white" stroke="#263238" stroke-width="0.455593" stroke-miterlimit="10"/>
<path d="M86.0573 87.6395L91.1371 86.209" stroke="#263238" stroke-width="0.455593" stroke-miterlimit="10"/>
<path d="M50.8172 97.5579L82.121 88.7467" stroke="#263238" stroke-width="0.455593" stroke-miterlimit="10"/>
<path d="M80.4854 93.2981L93.1053 89.749" stroke="#263238" stroke-width="0.455593" stroke-miterlimit="10"/>
<path d="M61.1454 98.7424L77.041 94.2685" stroke="#263238" stroke-width="0.455593" stroke-miterlimit="10"/>
<path d="M52.7853 101.093L58.1932 99.5716" stroke="#263238" stroke-width="0.455593" stroke-miterlimit="10"/>
<path d="M70.4851 100.205L95.0689 93.2844" stroke="#263238" stroke-width="0.455593" stroke-miterlimit="10"/>
<path d="M54.7489 104.633L65.0772 101.727" stroke="#263238" stroke-width="0.455593" stroke-miterlimit="10"/>
<path d="M109.122 87.9593C109.902 85.9735 108.498 83.563 105.985 82.5752C103.473 81.5875 100.803 82.3965 100.022 84.3823C99.2417 86.3681 100.646 88.7786 103.158 89.7664C105.671 90.7541 108.341 89.9451 109.122 87.9593Z" fill="white" stroke="#263238" stroke-width="0.455593" stroke-miterlimit="10"/>
<path d="M48.2202 6.7946L39.6232 9.21835C38.9717 9.24113 38.2564 9.19102 38.0559 8.85843C37.6003 8.00648 38.179 7.20463 38.3612 6.44835C38.5718 5.57558 38.4328 4.65505 37.9739 3.88336C37.3113 2.79326 36.3184 1.94273 35.1395 1.45527C33.9606 0.967813 32.657 0.868791 31.418 1.17258C29.0033 1.85141 28.0238 4.16583 29.2311 6.33445C29.8196 7.33748 30.7046 8.13335 31.7642 8.61242C31.7642 8.61242 33.5091 9.39604 33.8599 10.0248C34.0422 10.3573 33.5592 10.7491 33.0581 11.0453L23.7913 13.6741C23.4412 13.7466 23.1138 13.903 22.8375 14.1299C22.5611 14.3568 22.3439 14.6474 22.2045 14.9767C22.0652 15.306 22.0078 15.6642 22.0374 16.0206C22.067 16.377 22.1827 16.7208 22.3744 17.0227L23.6273 19.2733L53.7238 10.8038L52.4709 8.52585C52.0375 7.8239 51.3921 7.27789 50.628 6.9667C49.864 6.65551 49.0208 6.59524 48.2202 6.7946V6.7946ZM32.9032 3.85602C33.2992 3.75736 33.7163 3.78818 34.0935 3.94396C34.4707 4.09975 34.788 4.37231 34.9989 4.72165C35.0932 4.87029 35.1501 5.03957 35.1646 5.21499C35.1792 5.39041 35.151 5.56675 35.0824 5.72889C35.0139 5.89102 34.9071 6.03413 34.7711 6.14594C34.6352 6.25776 34.4742 6.33495 34.3019 6.3709C33.9057 6.46885 33.4887 6.4382 33.1111 6.2834C32.7335 6.1286 32.415 5.85767 32.2016 5.50983C32.1074 5.36052 32.0507 5.19062 32.0365 5.01466C32.0223 4.8387 32.0508 4.66191 32.1198 4.49939C32.1887 4.33688 32.296 4.19347 32.4324 4.08143C32.5688 3.9694 32.7304 3.89205 32.9032 3.85602V3.85602Z" fill="#2DC7BD" stroke="white" stroke-width="0.455593" stroke-miterlimit="10"/>
<path d="M66.7811 22.1435L70.4987 24.7359L74.3211 16.1571" stroke="#5EC76E" stroke-width="2.73356" stroke-linecap="round" stroke-linejoin="round"/>
<path d="M75.41 37.6701L79.1277 40.2625L82.9501 31.6837" stroke="#5EC76E" stroke-width="2.73356" stroke-linecap="round" stroke-linejoin="round"/>
<path d="M136.309 35.5517C136.309 35.5517 137.302 33.4468 136.683 31.834C136.063 30.2212 124.66 27.6198 124.66 27.6198C124.66 27.6198 122.058 27.6198 122.181 29.1096C122.304 30.5994 131.726 36.2943 132.469 36.7909C133.211 37.2875 136.049 38.4037 136.309 35.5517Z" fill="white" stroke="#263238" stroke-width="0.455593" stroke-linecap="round" stroke-linejoin="round"/>
<path d="M125.603 25.5377C124.899 25.2782 124.208 24.9832 123.534 24.6538C122.55 24.1618 123.635 26.4261 124.026 26.5218C124.418 26.6175 125.393 26.8179 125.393 26.8179L125.603 25.5377Z" fill="white" stroke="#263238" stroke-width="0.455593" stroke-linecap="round" stroke-linejoin="round"/>
<path d="M91.5699 47.5747L85.8659 54.5134L86.3625 55.5066L94.4174 53.5248L151.143 20.4988C151.71 20.1682 152.206 19.7273 152.599 19.202C152.993 18.6768 153.278 18.0779 153.436 17.4408C153.595 16.8037 153.624 16.1413 153.522 15.4927C153.42 14.8442 153.189 14.2227 152.843 13.6649V13.6649C152.497 13.1127 152.045 12.6347 151.513 12.2587C150.981 11.8826 150.38 11.6161 149.744 11.4745C149.108 11.3329 148.45 11.3191 147.809 11.4339C147.168 11.5487 146.556 11.7898 146.009 12.1433L91.5699 47.5747Z" fill="#EABB17" stroke="#263238" stroke-width="0.455593" stroke-linecap="round" stroke-linejoin="round"/>
<path d="M120.072 34.7133L118.222 35.9024" stroke="white" stroke-width="0.455593" stroke-linecap="round" stroke-linejoin="round"/>
<path d="M135.995 24.4671L122.332 33.26" stroke="white" stroke-width="0.455593" stroke-linecap="round" stroke-linejoin="round"/>
<path d="M86.3898 54.3676C86.3898 54.3676 84.9729 54.9599 85.1871 55.5522C85.4012 56.1445 87.465 54.7093 87.465 54.7093L86.3898 54.3676Z" fill="#4A00B7" stroke="#263238" stroke-width="0.455593" stroke-linecap="round" stroke-linejoin="round"/>
<path d="M85.8659 54.5134L86.3625 55.5066L94.4174 53.5248C89.9571 51.789 91.5699 47.5747 91.5699 47.5747L85.8659 54.5134Z" fill="white" stroke="#263238" stroke-width="0.455593" stroke-linecap="round" stroke-linejoin="round"/>
<path d="M152.843 13.6559C152.497 13.1036 152.045 12.6256 151.513 12.2496C150.981 11.8736 150.38 11.607 149.744 11.4654C149.108 11.3238 148.451 11.3101 147.809 11.4249C147.168 11.5397 146.556 11.7808 146.009 12.1342L136.095 18.5808C135.827 19.2596 135.689 19.983 135.69 20.713C135.663 22.1762 136.216 23.5906 137.228 24.6473C138.241 25.7041 139.63 26.3174 141.093 26.3532L151.143 20.4989C151.712 20.1683 152.208 19.7269 152.603 19.201C152.997 18.675 153.282 18.0751 153.441 17.4369C153.599 16.7987 153.628 16.1352 153.525 15.4857C153.423 14.8362 153.19 14.2139 152.843 13.6559V13.6559Z" fill="white" stroke="#263238" stroke-width="0.455593" stroke-linecap="round" stroke-linejoin="round"/>
<path d="M152.843 13.6559C152.497 13.1036 152.045 12.6256 151.513 12.2496C150.981 11.8736 150.38 11.607 149.744 11.4654C149.108 11.3238 148.45 11.3101 147.809 11.4249C147.168 11.5397 146.556 11.7808 146.009 12.1342L138.469 17.0318C138.109 17.7844 137.922 18.6078 137.922 19.4419C137.912 20.151 138.043 20.8551 138.305 21.5139C138.568 22.1726 138.958 22.7731 139.453 23.2809C139.949 23.7887 140.539 24.1938 141.191 24.4732C141.843 24.7526 142.543 24.9007 143.252 24.909C143.374 24.909 143.497 24.909 143.621 24.909L151.143 20.5262C151.715 20.1957 152.215 19.7531 152.612 19.225C153.009 18.6969 153.296 18.094 153.455 17.4525C153.613 16.8111 153.641 16.1442 153.536 15.4918C153.43 14.8394 153.195 14.215 152.843 13.6559V13.6559Z" fill="#263238" stroke="#263238" stroke-width="0.455593" stroke-linecap="round" stroke-linejoin="round"/>
<path d="M119.306 27.802C119.306 27.802 118.208 27.802 118.208 28.3032C118.208 28.8043 117.917 30.5811 118.555 30.531C119.193 30.4809 119.133 29.3601 119.193 28.9729C119.252 28.5856 119.306 27.802 119.306 27.802Z" fill="white" stroke="#263238" stroke-width="0.455593" stroke-linecap="round" stroke-linejoin="round"/>
<path d="M120.514 25.9887C120.514 25.9887 119.53 25.6835 119.302 26.2894C119.074 26.8953 118.846 29.7747 119.53 29.6972C120.213 29.6198 120.363 27.0457 120.514 25.9887Z" fill="white" stroke="#263238" stroke-width="0.455593" stroke-linecap="round" stroke-linejoin="round"/>
<path d="M122.026 26.1391C122.026 26.1391 120.892 25.155 120.514 25.9887C120.136 26.8225 120.058 29.1779 120.514 29.1779C120.969 29.1779 121.648 28.1938 121.803 27.6608C121.916 27.1599 121.991 26.6512 122.026 26.1391Z" fill="white" stroke="#263238" stroke-width="0.455593" stroke-linecap="round" stroke-linejoin="round"/>
<path d="M123.621 26.5947C123.621 26.5947 122.181 25.3828 121.953 25.6106C121.726 25.8384 120.814 28.171 121.498 28.6403C122.181 29.1096 123.042 27.0138 123.042 27.0138L123.621 26.5947Z" fill="white" stroke="#263238" stroke-width="0.455593" stroke-linecap="round" stroke-linejoin="round"/>
<path d="M102.828 33.784C102.828 33.784 102.992 36.2123 103.639 36.7772C104.027 37.1187 104.38 37.4988 104.691 37.9116C104.78 38.5292 104.835 39.1513 104.855 39.775C104.855 40.504 105.338 40.4265 105.766 40.4265C106.194 40.4265 106.901 41.7933 107.306 42.4494C108.088 43.4032 109.019 44.2247 110.062 44.8822C110.791 45.2877 112.008 43.7478 112.008 43.7478L112.573 45.3651L118.327 41.6384L115.489 36.1303C115.322 34.2199 114.742 32.3685 113.789 30.7042C112.167 27.7884 109.98 26.1482 106.336 27.2189C102.691 28.2895 102.828 33.784 102.828 33.784Z" fill="white" stroke="#263238" stroke-width="0.455593" stroke-linecap="round" stroke-linejoin="round"/>
<path d="M109.488 22.9864C108.134 23.0472 106.797 23.3161 105.525 23.7837C103.397 24.5354 102.873 27.4968 101.014 28.5583C99.1555 29.6198 99.9573 27.6471 99.0279 28.1574C98.0985 28.6676 97.1691 33.3283 99.1601 34.6541C101.151 35.9799 104.067 34.2578 104.067 34.2578C104.067 34.2578 103.803 35.1689 104.595 35.4514C105.074 35.6102 105.56 35.7425 106.053 35.8478C106.053 35.8478 105.921 37.4378 107.115 37.3057C108.308 37.1735 107.247 35.3193 107.247 35.3193C107.247 35.3193 109.502 39.693 111.224 40.226C112.946 40.7591 115.47 38.3672 116.131 37.3057C116.792 36.2441 116.263 28.6904 114.805 25.7701C113.347 22.8497 109.488 22.9864 109.488 22.9864Z" fill="#263238" stroke="#263238" stroke-width="0.455593" stroke-linecap="round" stroke-linejoin="round"/>
<path d="M107.283 38.1576C107.283 38.1576 106.472 35.0778 107.771 35.4833C109.069 35.8888 109.794 38.6406 109.716 38.9686C109.639 39.2966 108.987 39.4515 108.664 39.3695" fill="white"/>
<path d="M107.283 38.1576C107.283 38.1576 106.472 35.0778 107.771 35.4833C109.069 35.8888 109.794 38.6406 109.716 38.9686C109.639 39.2966 108.987 39.4515 108.664 39.3695" stroke="#263238" stroke-width="0.455593" stroke-linecap="round" stroke-linejoin="round"/>
<path d="M116.65 39.2738C115.139 40.1209 113.695 41.0836 112.331 42.1532C110.964 43.3696 109.739 47.0144 109.739 47.0144C109.739 47.0144 118.081 41.3422 119.539 40.5313C120.997 39.7203 121.325 39.3194 121.325 39.3194C121.325 39.3194 118.281 38.8684 116.65 39.2738Z" fill="white" stroke="#263238" stroke-width="0.455593" stroke-linecap="round" stroke-linejoin="round"/>
<path d="M127.881 34.3124C128.234 33.6881 128.715 33.1449 129.292 32.718C129.869 32.2911 130.529 31.9899 131.229 31.834C133.585 31.3374 136.696 32.9502 137.056 35.5517C137.416 38.1531 135.444 39.3923 134.204 39.3923C132.965 39.3923 131.849 37.661 131.849 37.661C131.849 37.661 127.881 36.1713 127.881 34.3124Z" fill="white" stroke="#263238" stroke-width="0.455593" stroke-linecap="round" stroke-linejoin="round"/>
<path d="M94.668 61.9487L98.6316 51.4154C98.1893 51.8116 97.6172 52.032 97.0234 52.035C96.0302 52.035 93.6748 51.6659 94.2898 51.2924C94.9049 50.9188 97.2648 49.3105 97.2648 49.3105C97.2648 49.3105 95.529 49.6796 95.0324 49.3105C94.5358 48.9415 94.2898 48.4403 94.6634 48.3173C95.037 48.1943 95.7796 48.3173 97.1418 47.8207C98.504 47.3241 99.1236 46.8321 100.24 46.8321C101.356 46.8321 102.345 48.8139 102.345 49.4335C102.345 50.0531 101.479 61.8257 101.479 62.3223C101.479 62.8189 101.479 63.3155 98.258 63.689C95.037 64.0626 94.5449 63.3155 94.668 61.9487Z" fill="white" stroke="#263238" stroke-width="0.455593" stroke-linecap="round" stroke-linejoin="round"/>
<path d="M98.6316 51.4154L99.2193 49.101" stroke="#263238" stroke-width="0.455593" stroke-linecap="round" stroke-linejoin="round"/>
<path d="M98.5086 59.3473C98.5086 59.3473 94.5449 60.4635 93.7978 62.1993C93.0506 63.9351 93.1782 66.5365 94.6679 68.0218C96.1577 69.507 96.7728 69.8851 98.3856 69.2655C99.9984 68.6459 100.367 67.6527 100.49 66.6595C100.613 65.6664 101.484 62.3223 98.5086 59.3473Z" fill="white" stroke="#263238" stroke-width="0.455593" stroke-linecap="round" stroke-linejoin="round"/>
<path d="M96.9004 111.882C96.9004 111.882 93.4287 110.269 92.0665 110.888C90.7043 111.508 90.6997 112.128 92.4355 114.852C94.1714 117.577 99.0052 120.925 100.636 120.183C102.267 119.44 100.759 114.483 100.759 114.483L96.9004 111.882Z" fill="white" stroke="#263238" stroke-width="0.455593" stroke-linecap="round" stroke-linejoin="round"/>
<path d="M94.4174 115.741C93.2152 114.406 92.2047 112.911 91.415 111.299C90.7726 111.859 91.0505 112.693 92.4355 114.87C94.1713 117.604 99.0052 120.943 100.636 120.201C100.847 120.07 101.022 119.888 101.144 119.673C101.267 119.457 101.333 119.214 101.338 118.966C99.0507 119.927 96.6771 118.26 94.4174 115.741Z" fill="white" stroke="#263238" stroke-width="0.455593" stroke-linecap="round" stroke-linejoin="round"/>
<path d="M114.746 73.9718L114.869 77.6895C114.869 77.6895 107.311 80.5415 103.593 83.1566C99.8754 85.7717 97.3924 87.7353 97.0233 90.2091C96.6543 92.683 96.9003 111.9 96.9003 111.9C96.9003 111.9 95.7841 112.146 96.1531 112.889C96.5222 113.631 97.2694 116.36 98.2625 116.606C99.2557 116.852 100.49 117.353 100.741 116.729C100.992 116.105 101.73 112.392 102.226 111.153C102.723 109.914 103.593 104.091 104.336 99.9998C104.768 97.7106 105.013 95.3901 105.069 93.0612C107.686 92.696 110.26 92.0734 112.755 91.2023C117.092 89.7126 123.411 86.9881 123.411 86.9881C123.411 86.9881 128.491 99.7447 129.607 102.232C130.724 104.72 135.074 110.287 135.931 111.9C136.787 113.513 142.25 120.451 142.25 120.451C142.25 120.451 144.359 118.593 145.722 118.593H147.58C147.58 118.593 145.348 112.392 143.48 108.674C141.612 104.957 137.781 98.8836 137.781 98.8836C137.781 98.8836 134.309 77.202 134.186 75.7076C133.945 72.8465 132.113 68.5275 132.113 68.5275C132.113 68.5275 126.149 67.2792 114.746 73.9718Z" fill="#263238" stroke="#263238" stroke-width="0.455593" stroke-linecap="round" stroke-linejoin="round"/>
<path d="M142.259 120.451C141.941 120.971 141.652 121.508 141.394 122.06C141.266 122.433 138.542 122.802 138.915 124.046C139.289 125.29 142.136 126.274 143.498 126.397C144.861 126.52 147.599 124.666 148.086 124.169C148.378 123.873 148.815 121.95 148.578 120.451C148.43 119.751 148.087 119.107 147.59 118.593C147.59 118.593 145.234 114.998 142.259 120.451Z" fill="white" stroke="#263238" stroke-width="0.455593" stroke-linecap="round" stroke-linejoin="round"/>
<path d="M148.578 120.451C148.451 119.823 148.162 119.239 147.74 118.757C147.227 118.759 146.719 118.867 146.249 119.073C145.779 119.279 145.356 119.579 145.006 119.955C143.767 121.44 144.387 124.789 142.897 125.285C141.79 125.654 139.854 124.301 138.938 123.586C138.891 123.734 138.891 123.893 138.938 124.041C139.307 125.281 142.159 126.269 143.521 126.392C144.883 126.515 147.622 124.661 148.109 124.164C148.378 123.873 148.806 121.95 148.578 120.451Z" fill="white" stroke="#263238" stroke-width="0.455593" stroke-linecap="round" stroke-linejoin="round"/>
<path d="M145.357 121.317C144.861 123.549 145.48 125.035 143.498 126.397C144.865 126.524 147.599 124.666 148.086 124.169C148.378 123.873 148.815 121.95 148.578 120.451C148.525 120.141 148.424 119.842 148.278 119.563H148.086C148.086 119.563 145.854 119.085 145.357 121.317Z" fill="#263238" stroke="#263238" stroke-width="0.455593" stroke-linecap="round" stroke-linejoin="round"/>
<path d="M124.66 86.7375L131.972 83.1429" stroke="white" stroke-width="0.455593" stroke-linecap="round" stroke-linejoin="round"/>
<path d="M128.008 85.1293L134.327 84.2591" stroke="white" stroke-width="0.455593" stroke-linecap="round" stroke-linejoin="round"/>
<path d="M130.487 33.4468C128.377 33.6928 122.924 37.4104 122.555 37.784C122.186 38.1576 120.696 39.0232 120.076 39.5198C120.076 39.5198 107.32 47.4517 106.194 48.1761C105.069 48.9005 102.846 50.4085 102.973 50.9097C103.101 51.4108 96.4038 62.2995 96.4038 62.2995C96.4038 62.2995 94.4174 64.9009 96.2808 67.2563C98.1441 69.6118 99.8708 67.999 100.741 67.5069C101.611 67.0149 108.422 60.5637 108.422 60.5637L114.714 75.5983C114.714 75.5983 123.42 69.7576 132.715 70.1311L126.518 45.8207C126.518 45.8207 135.07 39.3741 135.321 37.1644C135.571 34.9548 132.592 33.1962 130.487 33.4468Z" fill="white"/>
<path d="M130.487 33.4468C129.639 33.5425 128.259 34.2031 126.883 34.9776C127.197 34.9176 127.523 34.9512 127.818 35.0743C128.114 35.1974 128.367 35.4045 128.546 35.6701C129.566 36.9867 127.375 41.2283 127.375 41.2283C127.375 41.2283 126.464 35.3648 126.5 37.128C126.537 38.8911 126.045 44.2899 126.045 44.2899C126.045 44.2899 123.12 40.7818 123.27 41.6611C123.42 42.5404 125.316 50.7229 126.487 53.7936C127.657 56.8643 125.607 65.4932 124.436 67.9762C123.266 70.4592 123.981 57.452 122.682 60.6867C121.384 63.9214 116.983 72.8191 115.958 73.6984C114.933 74.5777 116.281 61.7756 116.65 60.1081C116.195 61.5022 113.179 70.3362 113.179 70.3362L109.078 59.8074C109.078 59.8074 102.058 54.1079 102.791 55.1285C103.525 56.149 105.274 59.37 105.274 59.37C105.274 59.37 101.037 58.4907 101.766 58.7823C102.495 59.0739 105.716 60.6867 105.716 60.6867C105.716 60.6867 99.1464 65.3474 97.2557 65.9351C96.7463 66.0852 96.2226 66.1814 95.6931 66.2221C95.8283 66.605 96.0269 66.9623 96.2808 67.2791C98.1396 69.6345 99.8708 68.0217 100.741 67.5297C101.611 67.0377 108.422 60.5865 108.422 60.5865L114.714 75.621C114.714 75.621 123.42 69.7803 132.715 70.1539L126.518 45.8207C126.518 45.8207 135.07 39.3741 135.321 37.1644C135.571 34.9548 132.592 33.1962 130.487 33.4468Z" fill="#4A00B7"/>
<path opacity="0.9" d="M130.487 33.4468C129.639 33.5425 128.259 34.2031 126.883 34.9776C127.197 34.9176 127.523 34.9512 127.818 35.0743C128.114 35.1974 128.367 35.4045 128.546 35.6701C129.566 36.9867 127.375 41.2283 127.375 41.2283C127.375 41.2283 126.464 35.3648 126.5 37.128C126.537 38.8911 126.045 44.2899 126.045 44.2899C126.045 44.2899 123.12 40.7818 123.27 41.6611C123.42 42.5404 125.316 50.7229 126.487 53.7936C127.657 56.8643 125.607 65.4932 124.436 67.9762C123.266 70.4592 123.981 57.452 122.682 60.6867C121.384 63.9214 116.983 72.8191 115.958 73.6984C114.933 74.5777 116.281 61.7756 116.65 60.1081C116.195 61.5022 113.179 70.3362 113.179 70.3362L109.078 59.8074C109.078 59.8074 102.058 54.1079 102.791 55.1285C103.525 56.149 105.274 59.37 105.274 59.37C105.274 59.37 101.037 58.4907 101.766 58.7823C102.495 59.0739 105.716 60.6867 105.716 60.6867C105.716 60.6867 99.1464 65.3474 97.2557 65.9351C96.7463 66.0852 96.2226 66.1814 95.6931 66.2221C95.8283 66.605 96.0269 66.9623 96.2808 67.2791C98.1396 69.6345 99.8708 68.0217 100.741 67.5297C101.611 67.0377 108.422 60.5865 108.422 60.5865L114.714 75.621C114.714 75.621 123.42 69.7803 132.715 70.1539L126.518 45.8207C126.518 45.8207 135.07 39.3741 135.321 37.1644C135.571 34.9548 132.592 33.1962 130.487 33.4468Z" fill="white"/>
<path d="M130.487 33.4468C128.377 33.6928 122.924 37.4104 122.555 37.784C122.186 38.1576 120.696 39.0232 120.076 39.5198C120.076 39.5198 107.32 47.4517 106.194 48.1761C105.069 48.9005 102.846 50.4085 102.973 50.9097C103.101 51.4108 96.4038 62.2995 96.4038 62.2995C96.4038 62.2995 94.4174 64.9009 96.2808 67.2563C98.1441 69.6118 99.8708 67.999 100.741 67.5069C101.611 67.0149 108.422 60.5637 108.422 60.5637L114.714 75.5983C114.714 75.5983 123.42 69.7576 132.715 70.1311L126.518 45.8207C126.518 45.8207 135.07 39.3741 135.321 37.1644C135.571 34.9548 132.592 33.1962 130.487 33.4468Z" stroke="#263238" stroke-width="0.455593" stroke-linecap="round" stroke-linejoin="round"/>
<path d="M114.714 75.5983C114.348 72.1872 114.525 68.7396 115.238 65.3839Z" fill="white"/>
<path d="M114.714 75.5983C114.348 72.1872 114.525 68.7396 115.238 65.3839" stroke="#263238" stroke-width="0.455593" stroke-linecap="round" stroke-linejoin="round"/>
<path d="M113.534 68.0035C113.534 68.0035 113.534 65.9078 115.894 59.3473Z" fill="white"/>
<path d="M113.534 68.0035C113.534 68.0035 113.534 65.9078 115.894 59.3473" stroke="#263238" stroke-width="0.455593" stroke-linecap="round" stroke-linejoin="round"/>
<path d="M103.588 55.133L108.427 60.5865L103.465 56.9918" fill="white"/>
<path d="M103.588 55.133L108.427 60.5865L103.465 56.9918" stroke="#263238" stroke-width="0.455593" stroke-linecap="round" stroke-linejoin="round"/>
<path d="M126.518 38.9003V45.839L128.131 36.9139" fill="white"/>
<path d="M126.518 38.9003V45.839L128.131 36.9139" stroke="#263238" stroke-width="0.455593" stroke-linecap="round" stroke-linejoin="round"/>
<path d="M116.705 59.9441C116.687 59.9944 116.673 60.0463 116.664 60.099C116.714 59.9441 116.732 59.8621 116.705 59.9441Z" fill="#263238"/>
</svg>
