<svg width="276" height="234" viewBox="0 0 276 234" fill="none" xmlns="http://www.w3.org/2000/svg">
<path fill-rule="evenodd" clip-rule="evenodd" d="M273.042 95.9009L273.46 97.5246L273.837 99.1583L274.174 100.801L274.471 102.451L274.729 104.108L274.948 105.77L275.129 107.437L275.272 109.107L275.378 110.78L275.447 112.455L275.48 114.13L275.479 115.805L275.443 117.479L275.376 119.151L275.277 120.82L275.149 122.486L274.992 124.148L274.808 125.806L274.596 127.459L274.356 129.107L274.088 130.749L273.79 132.384L273.462 134.012L273.101 135.631L272.707 137.242L272.276 138.842L271.808 140.432L271.3 142.009L270.749 143.572L270.154 145.119L269.513 146.65L268.824 148.162L268.086 149.653L267.298 151.122L266.458 152.567L265.566 153.986L264.621 155.378L263.623 156.74L262.573 158.07L261.471 159.367L260.318 160.63L259.116 161.857L257.864 163.046L256.567 164.197L255.225 165.308L253.84 166.379L252.416 167.409L250.956 168.397L249.462 169.344L247.937 170.249L246.385 171.112L244.81 171.934L243.216 172.716L241.605 173.458L239.983 174.163L238.353 174.83L236.719 175.463L235.084 176.063L233.454 176.632L231.832 177.172L230.222 177.687L228.628 178.178L227.053 178.65L225.501 179.105L222.479 179.978L221.015 180.404L219.586 180.826L218.195 181.251L216.843 181.68L215.534 182.118L214.267 182.568L213.046 183.035L211.87 183.523L210.74 184.034L209.657 184.572L208.62 185.141L207.629 185.743L206.683 186.381L205.781 187.059L204.921 187.777L204.102 188.539L203.321 189.344L202.576 190.196L201.863 191.093L201.181 192.037L200.525 193.028L199.893 194.064L199.28 195.144L198.682 196.268L198.096 197.433L197.517 198.637L196.943 199.878L196.368 201.151L195.79 202.455L194.607 205.14L193.996 206.513L193.367 207.901L192.717 209.299L192.044 210.702L191.343 212.104L190.613 213.501L189.85 214.885L189.054 216.253L188.222 217.598L187.352 218.914L186.445 220.197L185.498 221.441L184.513 222.642L183.488 223.794L182.425 224.894L181.324 225.936L180.186 226.918L179.012 227.836L177.803 228.687L176.562 229.468L175.291 230.176L173.99 230.811L172.663 231.37L171.313 231.851L169.941 232.255L168.549 232.58L167.142 232.826L165.722 232.994L164.29 233.085L162.851 233.099L161.406 233.038L159.959 232.905L158.512 232.701L157.068 232.43L155.629 232.094L154.197 231.698L152.774 231.245L151.363 230.739L149.965 230.186L148.581 229.59L147.214 228.956L145.863 228.289L144.529 227.596L143.213 226.882L141.916 226.153L140.636 225.415L139.374 224.673L136.899 223.203L135.684 222.486L134.482 221.789L133.291 221.117L132.108 220.475L130.933 219.869L129.761 219.302L128.591 218.778L127.42 218.303L126.244 217.877L125.06 217.506L123.867 217.19L122.659 216.932L121.435 216.733L120.191 216.594L118.924 216.514L117.631 216.495L116.309 216.533L114.957 216.629L113.571 216.78L112.149 216.984L110.69 217.237L109.192 217.536L107.654 217.876L106.075 218.255L104.454 218.667L102.792 219.106L101.087 219.569L97.5559 220.541L95.7304 221.04L93.8668 221.54L91.9666 222.036L90.032 222.523L88.0647 222.995L86.0669 223.447L84.0406 223.876L81.9879 224.279L79.9108 224.65L77.8113 224.988L75.6917 225.289L73.5539 225.551L71.4002 225.772L69.2326 225.948L67.0534 226.079L64.865 226.162L62.6695 226.196L60.4694 226.178L58.2669 226.108L56.0642 225.985L53.8638 225.806L51.6679 225.572L49.479 225.281L47.2998 224.932L45.1327 224.525L42.9807 224.059L40.8465 223.532L38.7332 222.945L36.644 222.295L34.582 221.584L32.5505 220.81L30.5529 219.973L28.5927 219.073L26.6732 218.109L24.7979 217.081L22.9704 215.99L21.1939 214.836L19.472 213.62L17.8077 212.341L16.2044 211.002L14.6649 209.604L13.1923 208.147L11.789 206.633L10.4576 205.064L9.20047 203.442L8.01949 201.769L6.91648 200.047L5.89296 198.279L4.95019 196.467L4.08916 194.615L3.31057 192.724L2.61486 190.798L2.00221 188.839L1.47251 186.852L1.0254 184.838L0.660293 182.802L0.376353 180.745L0.172525 178.672L0.047553 176.585L0 174.487L0.0282601 172.381L0.130582 170.271L0.30509 168.159L0.54981 166.047L0.862679 163.938L1.24157 161.835L1.68432 159.74L2.18874 157.655L2.75263 155.583L3.3738 153.525L4.05008 151.483L4.77933 149.459L5.55945 147.455L6.38837 145.472L7.26407 143.511L8.18458 141.575L9.14793 139.663L10.1522 137.778L11.1954 135.92L12.2757 134.09L13.3909 132.29L14.539 130.519L15.7178 128.779L16.925 127.071L18.1582 125.394L19.415 123.749L20.6924 122.138L21.9871 120.559L23.2958 119.012L24.6146 117.499L25.9395 116.017L27.266 114.568L28.5896 113.149L29.9054 111.761L31.2082 110.401L33.7535 107.76L34.9858 106.476L36.1851 105.212L37.3475 103.967L38.4695 102.738L39.548 101.523L40.5805 100.319L41.5649 99.1225L42.4996 97.932L43.3833 96.7444L44.2152 95.5571L44.9949 94.3674L45.7224 93.1729L46.3981 91.9711L47.0228 90.7597L47.5978 89.5365L48.1244 88.2996L48.6046 87.047L49.0406 85.7772L49.4349 84.4887L49.7902 83.1803L50.1097 81.8511L50.3967 80.5001L50.6545 79.1271L50.887 77.7317L51.0979 76.3139L51.2912 74.874L51.471 73.4126L51.6412 71.9303L51.806 70.4282L52.1357 67.3694L52.3086 65.8159L52.492 64.2485L52.6897 62.6693L52.9052 61.0803L53.1418 59.4836L53.4027 57.8817L53.6908 56.2768L54.0088 54.6714L54.3591 53.0677L54.7438 51.4682L55.1648 49.8752L55.6235 48.291L56.1214 46.7178L56.6593 45.1578L57.238 43.6128L57.8579 42.0847L58.5191 40.5751L59.2217 39.0857L59.9651 37.6177L60.749 36.1723L61.5726 34.7504L62.435 33.3529L63.335 31.9802L64.2716 30.6329L65.2433 29.311L66.2489 28.0148L67.2869 26.7441L68.3558 25.4987L69.4541 24.2782L70.5803 23.0822L71.733 21.9102L72.9108 20.7615L74.1122 19.6356L75.3361 18.5318L76.5811 17.4494L77.8463 16.3878L79.1305 15.3464L80.4329 14.3246L81.7527 13.3222L83.0894 12.3391L84.443 11.3761L85.8134 10.4341L87.2008 9.51459L88.6058 8.61952L90.0285 7.75115L91.4697 6.91207L92.9296 6.10522L94.4087 5.33378L95.9074 4.60119L97.426 3.91098L98.9644 3.26674L100.522 2.67192L102.1 2.12977L103.696 1.64329L105.309 1.21526L106.94 0.848206L108.585 0.544438L110.245 0.306026L111.916 0.134808L113.599 0.0323573L115.29 0L116.988 0.0387895L118.69 0.149489L120.395 0.332574L122.1 0.588218L123.803 0.916266L125.502 1.31625L127.195 1.78736L128.878 2.32844L130.55 2.93802L132.209 3.61425L133.852 4.35494L135.477 5.15757L137.082 6.0193L138.666 6.93693L140.225 7.90696L141.76 8.92561L143.268 9.9888L144.748 11.0922L146.2 12.2313L147.621 13.4012L149.013 14.5971L150.373 15.8138L151.703 17.0461L153.002 18.2889L154.271 19.5367L155.511 20.7842L156.722 22.0263L157.905 23.2576L159.062 24.4731L161.305 26.8374L162.395 27.977L163.466 29.0825L164.521 30.1502L165.563 31.1765L166.594 32.1582L167.617 33.0927L168.634 33.9776L169.649 34.8112L170.663 35.592L171.681 36.3194L172.704 36.9928L173.735 37.6125L174.776 38.1791L175.83 38.6939L176.899 39.1584L177.983 39.5747L179.086 39.9455L180.207 40.2737L181.348 40.5627L182.51 40.8161L183.694 41.0378L184.898 41.232L186.123 41.403L187.368 41.5552L188.634 41.6929L189.918 41.8204L191.22 41.9421L193.871 42.1845L195.218 42.3128L196.577 42.45L197.947 42.5992L199.326 42.7626L200.713 42.9423L202.107 43.1401L203.508 43.3571L204.914 43.5944L206.326 43.8525L207.741 44.1316L209.162 44.4319L210.586 44.7535L212.015 45.0962L213.447 45.4601L214.884 45.8449L216.325 46.2505L217.77 46.6766L219.22 47.1233L220.673 47.5905L222.132 48.0782L223.594 48.5867L225.06 49.1163L226.529 49.6673L228.001 50.2402L229.475 50.8356L230.951 51.4541L232.427 52.0964L233.902 52.7633L235.375 53.4555L236.845 54.174L238.311 54.9194L239.769 55.6927L241.22 56.4945L242.661 57.3257L244.09 58.1868L245.506 59.0786L246.906 60.0014L248.289 60.9559L249.652 61.9423L250.994 62.9609L252.312 64.0118L253.605 65.095L254.872 66.2105L256.109 67.3581L257.316 68.5374L258.491 69.748L259.632 70.9894L260.739 72.2609L261.809 73.5619L262.842 74.8914L263.836 76.2486L264.792 77.6324L265.707 79.0419L266.582 80.476L267.416 81.9334L268.208 83.4131L268.959 84.9137L269.668 86.434L270.335 87.9729L270.959 89.529L271.542 91.1011L272.084 92.6879L272.583 94.2882L273.042 95.9009Z" fill="#F3EBFF"/>
<path d="M24.5343 207.551L29.8937 207.55L32.4421 186.877L24.5324 186.878L24.5343 207.551Z" fill="#FFB8B8"/>
<path d="M33.7225 206.018H23.3863V212.526H40.2305C40.2305 211.672 40.0621 210.825 39.7351 210.036C39.408 209.246 38.9287 208.529 38.3243 207.925C37.72 207.32 37.0026 206.841 36.213 206.514C35.4234 206.187 34.5771 206.018 33.7225 206.018Z" fill="#2F2E41"/>
<path d="M45.8651 207.551L51.2245 207.55L53.7729 186.877L45.8632 186.878L45.8651 207.551Z" fill="#FFB8B8"/>
<path d="M55.0532 206.018H44.7169V212.526H61.5612C61.5612 211.672 61.3928 210.825 61.0658 210.036C60.7387 209.246 60.2593 208.529 59.655 207.925C59.0507 207.32 58.3333 206.841 57.5437 206.514C56.7541 206.187 55.9078 206.018 55.0532 206.018Z" fill="#2F2E41"/>
<path d="M20.4062 136.08C20.8375 135.604 21.1592 135.039 21.3485 134.424C21.5377 133.81 21.5901 133.162 21.5017 132.525C21.4134 131.889 21.1866 131.279 20.8372 130.74C20.4879 130.201 20.0245 129.744 19.4798 129.403L21.1397 119.496L15.365 117.019L13.2173 131.043C12.7051 131.996 12.5604 133.104 12.8105 134.157C13.0607 135.209 13.6882 136.134 14.5744 136.755C15.4605 137.375 16.5436 137.65 17.6184 137.525C18.6933 137.401 19.6852 136.887 20.4062 136.08Z" fill="#FFB8B8"/>
<path d="M65.6168 131.399C65.1127 131 64.7021 130.496 64.4139 129.921C64.1258 129.347 63.9671 128.716 63.949 128.074C63.931 127.432 64.054 126.793 64.3094 126.203C64.5649 125.613 64.9465 125.087 65.4274 124.661L62.1535 115.163L67.4396 111.766L71.8747 125.243C72.5373 126.098 72.863 127.167 72.7903 128.247C72.7175 129.326 72.2513 130.342 71.4799 131.1C70.7085 131.859 69.6856 132.309 68.605 132.364C67.5244 132.419 66.4612 132.075 65.6168 131.399Z" fill="#FFB8B8"/>
<path d="M38.1677 65.9586C31.8084 65.9586 26.6532 60.8034 26.6532 54.4442C26.6532 48.0849 31.8084 42.9297 38.1677 42.9297C44.5269 42.9297 49.6821 48.0849 49.6821 54.4442C49.6821 60.8034 44.5269 65.9586 38.1677 65.9586Z" fill="#FFB8B8"/>
<path d="M65.9732 124.294C66.1707 124.293 66.3672 124.266 66.557 124.211L69.9131 123.247C70.449 123.093 70.902 122.732 71.1731 122.244C71.4443 121.757 71.5117 121.182 71.3606 120.645L64.4345 96.1908L54.7761 72.4807C53.8157 70.1236 51.8092 68.5777 49.5395 68.4466C48.503 68.3959 47.4739 68.6469 46.5771 69.1692C45.6803 69.6915 44.9541 70.4626 44.4867 71.3892C43.9672 72.3809 43.682 73.4785 43.653 74.5976C43.624 75.7168 43.8519 76.8277 44.3193 77.845L55.2974 101.853L64.0249 122.988C64.184 123.374 64.4541 123.704 64.8009 123.937C65.1477 124.169 65.5557 124.293 65.9732 124.294Z" fill="#3F3D56"/>
<path d="M31.6705 64.1004L38.0682 64.2141C38.7345 64.2272 39.3947 64.0836 39.9954 63.7947C40.5961 63.5059 41.1204 63.0799 41.5263 62.5512C41.9321 62.0225 42.208 61.4058 42.3318 60.7509C42.4555 60.0959 42.4236 59.4211 42.2386 58.7808C42.1019 58.3181 41.9992 57.846 41.9313 57.3684C41.8594 56.8475 41.8453 56.3202 41.8892 55.7962C41.9298 55.2715 42.1474 54.7761 42.5065 54.3913C42.8655 54.0065 43.3447 53.7551 43.8653 53.6784C44.386 53.6016 44.9173 53.7041 45.3721 53.9689C45.8269 54.2337 46.1782 54.6452 46.3684 55.1359C47.4442 55.1513 49.7359 54.8006 50.8116 54.8159C53.0957 48.9605 48.1183 41.2986 42.7604 38.4208C37.2981 35.487 30.2079 38.4717 28.1141 44.5864C25.2082 44.6386 22.8472 47.5046 22.4727 50.7308C22.0982 53.9569 23.4255 57.3257 25.4559 59.7984C27.4863 62.271 30.1522 64.0734 31.6705 64.1004Z" fill="#2F2E41"/>
<path d="M52.6998 205.62C53.2181 205.617 53.7174 205.424 54.1029 205.078C54.4885 204.731 54.7334 204.256 54.7914 203.74L57.1652 123.932L27.261 126.061L27.238 126.253C20.4802 182.821 22.7903 202.403 22.8144 202.594C22.831 202.883 22.9071 203.166 23.038 203.425C23.1688 203.684 23.3516 203.913 23.5749 204.098C23.7982 204.282 24.0572 204.419 24.3357 204.5C24.6143 204.58 24.9064 204.602 25.1939 204.564L31.8025 204.723C32.3035 204.666 32.7677 204.432 33.1107 204.062C33.4538 203.693 33.6532 203.213 33.6726 202.709L39.8475 144.905C39.8856 144.754 39.9754 144.623 40.1011 144.532C40.2268 144.441 40.3803 144.398 40.5348 144.409C40.6938 144.409 40.848 144.464 40.9711 144.564C41.0942 144.665 41.1785 144.805 41.2095 144.961L43.5951 202.955C43.5697 203.493 43.7522 204.021 44.1049 204.428C44.4575 204.836 44.9533 205.092 45.4897 205.144L52.4901 205.61C52.5598 205.617 52.6298 205.62 52.6998 205.62Z" fill="#2F2E41"/>
<path d="M40.2914 133.468C40.4703 133.468 40.6489 133.466 40.8282 133.46C49.427 133.201 56.1544 126.696 58.0113 124.708C58.2478 124.454 58.4178 124.146 58.5063 123.811C58.5948 123.476 58.5989 123.124 58.5182 122.787L53.5576 101.801L54.8737 83.5564C55.0804 81.0243 54.7483 78.4771 53.8994 76.0826C53.0505 73.6881 51.704 71.5006 49.9486 69.6641C48.4858 68.1188 46.7079 66.906 44.7353 66.108C42.7628 65.31 40.6418 64.9454 38.516 65.0389C30.1454 65.4384 23.5415 72.9203 23.4819 82.0719C23.3893 96.2463 23.8066 97.2201 23.9436 97.5401C28.1211 107.29 25.8396 120.976 25.0408 124.938C24.9694 125.292 24.9896 125.657 25.0993 126.001C25.209 126.345 25.4046 126.654 25.6677 126.901C30.2621 131.261 35.1798 133.468 40.2914 133.468Z" fill="#3F3D56"/>
<path d="M18.6954 128.134C19.1726 128.134 19.6355 127.971 20.0085 127.674C20.3815 127.376 20.6426 126.961 20.749 126.496L25.8669 104.201L32.7258 78.7173C33.0188 77.6368 33.06 76.5035 32.8465 75.4045C32.633 74.3055 32.1704 73.2701 31.4942 72.3779C30.8797 71.5417 30.0362 70.9014 29.0655 70.5345C28.0949 70.1676 27.0388 70.0897 26.0248 70.3103C23.8079 70.8148 22.0843 72.6709 21.5266 75.1543L15.922 100.109L13.1268 125.397C13.0666 125.951 13.2282 126.507 13.5762 126.943C13.9242 127.379 14.4304 127.66 14.9845 127.724L18.4537 128.12C18.5339 128.129 18.6146 128.134 18.6954 128.134Z" fill="#3F3D56"/>
<path d="M180.1 167.955H87.2303C83.6692 167.951 80.2552 166.535 77.7372 164.017C75.2191 161.498 73.8027 158.084 73.7987 154.523V18.6728C73.8027 15.1117 75.2191 11.6977 77.7372 9.17969C80.2552 6.66166 83.6692 5.24525 87.2303 5.24121H180.1C183.661 5.24525 187.075 6.66166 189.593 9.17969C192.111 11.6977 193.527 15.1117 193.531 18.6728V154.523C193.527 158.084 192.111 161.498 189.593 164.017C187.075 166.535 183.661 167.951 180.1 167.955Z" fill="white"/>
<path d="M165.517 113.089H101.813C95.3056 113.057 95.2786 103.145 101.813 103.111L165.517 103.111C172.02 103.141 172.055 113.055 165.517 113.089Z" fill="#F3EBFF"/>
<path d="M165.517 33.2443H101.813C95.3056 33.2129 95.2786 23.3005 101.813 23.2665L165.517 23.2665C172.02 23.297 172.055 33.2102 165.517 33.2443Z" fill="#F3EBFF"/>
<path d="M165.517 131.509H101.813C95.3056 131.478 95.2786 121.565 101.813 121.532L165.517 121.531C172.02 121.562 172.055 131.475 165.517 131.509Z" fill="#F3EBFF"/>
<path d="M165.517 149.93H101.813C95.3056 149.898 95.2786 139.986 101.813 139.952L165.517 139.952C172.02 139.982 172.055 149.896 165.517 149.93Z" fill="#F3EBFF"/>
<path d="M164.366 91.1377H102.964C101.285 91.1358 99.6759 90.4681 98.4888 89.281C97.3017 88.0939 96.634 86.4844 96.6321 84.8057V50.421C96.634 48.7423 97.3017 47.1328 98.4888 45.9457C99.6759 44.7586 101.285 44.0909 102.964 44.089H164.366C166.044 44.0909 167.654 44.7586 168.841 45.9457C170.028 47.1328 170.696 48.7423 170.698 50.421V84.8057C170.696 86.4844 170.028 88.0939 168.841 89.281C167.654 90.4681 166.044 91.1358 164.366 91.1377Z" fill="#7950B7"/>
<path d="M180.1 167.955H87.2303C83.6692 167.951 80.2552 166.535 77.7372 164.017C75.2191 161.498 73.8027 158.084 73.7987 154.523V18.6728C73.8027 15.1117 75.2191 11.6977 77.7372 9.17969C80.2552 6.66166 83.6692 5.24525 87.2303 5.24121H180.1C183.661 5.24525 187.075 6.66166 189.593 9.17969C192.111 11.6977 193.527 15.1117 193.531 18.6728V154.523C193.527 158.084 192.111 161.498 189.593 164.017C187.075 166.535 183.661 167.951 180.1 167.955ZM87.2303 7.54376C84.2797 7.5471 81.4509 8.72069 79.3646 10.8071C77.2782 12.8934 76.1046 15.7222 76.1013 18.6728V154.523C76.1046 157.474 77.2782 160.303 79.3646 162.389C81.4509 164.476 84.2797 165.649 87.2303 165.652H180.1C183.05 165.649 185.879 164.476 187.966 162.389C190.052 160.303 191.226 157.474 191.229 154.523V18.6728C191.226 15.7222 190.052 12.8934 187.966 10.8071C185.879 8.72068 183.05 7.54709 180.1 7.54376H87.2303Z" fill="#DCC5FF"/>
<path opacity="0.1" d="M229.184 61.8493H237.971V70.6368H229.184V61.8493Z" fill="#7950B7"/>
<path opacity="0.1" d="M229.184 83.5247H237.971V92.3122H229.184V83.5247Z" fill="#7950B7"/>
<path opacity="0.1" d="M229.184 105.197H237.971V113.984H229.184V105.197Z" fill="#7950B7"/>
<path opacity="0.1" d="M229.184 126.872H237.971V135.66H229.184V126.872Z" fill="#7950B7"/>
<path opacity="0.1" d="M229.184 148.548H237.971V157.335H229.184V148.548Z" fill="#7950B7"/>
<path opacity="0.1" d="M237.971 175.887V170.22H229.187V175.08L237.971 175.887Z" fill="#7950B7"/>
<path d="M204.842 120.399L205.509 123.242C205.509 123.242 210.855 120.507 211.816 117.047C212.777 113.586 210.206 112.267 210.206 112.267L205.222 114.374L204.842 120.399Z" fill="white"/>
<path opacity="0.1" d="M204.842 120.399L205.509 123.242C205.509 123.242 210.855 120.507 211.816 117.047C212.777 113.586 210.206 112.267 210.206 112.267L205.222 114.374L204.842 120.399Z" fill="black"/>
<path d="M234.841 217.146C234.841 217.146 239.785 218.963 243.184 219.191C244.988 219.312 245.937 218.206 246.425 217.14C246.69 216.552 246.863 215.926 246.938 215.286L246.49 210.388L246.255 207.783L239.034 205.905L238.012 209.035L237.916 209.27C237.508 210.317 235.858 214.563 235.907 215.449C235.911 215.679 235.869 215.907 235.782 216.119C235.696 216.331 235.567 216.524 235.404 216.685C235.236 216.862 235.048 217.017 234.841 217.146Z" fill="#383838"/>
<path d="M201.088 214.655C201.075 214.805 201.089 214.956 201.131 215.1C201.131 215.1 211.704 216.861 213.867 215.1C214.475 214.586 215.184 214.204 215.948 213.979C216.712 213.754 217.514 213.69 218.304 213.793C218.304 213.793 222.395 213.904 223.078 212.557C223.362 211.992 223.288 210.895 223.112 209.817C222.932 208.802 222.693 207.799 222.395 206.813L222.231 206.683L221.258 205.902L209.863 205.565H209.776C209.832 207.895 205.911 210.567 205.911 210.567C201.736 212.112 201.122 213.858 201.088 214.655Z" fill="#383838"/>
<path opacity="0.1" d="M201.084 214.655C201.073 214.805 201.089 214.956 201.131 215.1C201.131 215.1 211.704 216.861 213.864 215.1C214.472 214.585 215.181 214.203 215.946 213.978C216.711 213.753 217.514 213.69 218.304 213.793C218.304 213.793 222.398 213.904 223.081 212.557C223.362 211.992 223.291 210.895 223.115 209.813C221.539 209.971 219.052 210.363 218.075 211.303C216.598 212.724 214.096 214.145 212.563 214.26C211.352 214.334 204.149 214.563 201.084 214.655Z" fill="white"/>
<path opacity="0.1" d="M234.841 217.146C234.841 217.146 239.785 218.962 243.184 219.191C244.988 219.312 245.937 218.205 246.425 217.139C245.165 217.563 243.419 218.005 242.501 217.6C241.413 217.115 237.557 216.806 235.394 216.673C235.231 216.854 235.045 217.013 234.841 217.146Z" fill="white"/>
<path d="M227.506 70.7203C231.585 69.1352 236.831 63.8978 235.521 61.4507C235.232 60.8326 235.059 60.1664 235.012 59.4855C234.927 58.5609 234.915 57.6312 234.974 56.7046C235.066 55.1862 235.249 53.6746 235.521 52.178C235.521 52.178 222.788 52.4654 223.53 54.3409C223.746 54.894 223.783 55.8488 223.721 56.9148C223.659 57.9808 223.508 59.1951 223.347 60.2178C223.128 61.6175 222.902 62.6897 222.902 62.6897C222.902 62.6897 223.684 63.7804 224.138 63.8391C224.593 63.8978 221.654 72.9913 227.506 70.7203Z" fill="#FFB8B8"/>
<path opacity="0.1" d="M237.928 209.254L238.024 209.359C241.831 204.755 246.434 210.496 246.434 210.496L246.502 210.373L246.268 207.768L239.047 205.889L238.024 209.019L237.928 209.254Z" fill="black"/>
<path opacity="0.1" d="M209.77 205.889C209.77 205.889 212.551 205.834 214.034 207.144C215.517 208.454 222.686 207.425 222.377 207.144C222.287 207.001 222.232 206.839 222.216 206.671L221.243 205.889L209.848 205.553C209.804 205.769 209.77 205.889 209.77 205.889Z" fill="black"/>
<path d="M233.192 169.735C233.398 170.247 233.556 170.778 233.661 171.32C233.919 172.805 233.991 174.316 233.875 175.819C233.76 177.982 233.875 192.476 233.875 192.476C233.875 192.476 236.319 196.342 237.684 197.704C239.05 199.067 234.903 201.514 234.903 201.514C234.285 205.04 238.03 209.019 238.03 209.019C241.837 204.415 246.441 210.153 246.441 210.153C246.441 210.153 248.944 205.828 249.568 204.283C250.192 202.738 247.124 201.672 246.046 201.041C244.967 200.411 246.101 196.716 246.101 196.716C246.101 196.716 247.01 193.474 248.091 190.517C249.172 187.56 246.898 172.843 246.898 172.843C246.898 172.843 246.781 170.226 246.5 169.315C246.359 168.657 246.331 167.98 246.416 167.312C246.435 167.087 246.456 166.901 246.472 166.772C246.487 166.642 246.5 166.586 246.5 166.586L246.456 166.512L244.912 163.632C244.912 163.632 232.45 167.921 233.192 169.735Z" fill="#7950B7"/>
<path d="M209.77 205.549C209.77 205.549 212.551 205.491 214.034 206.785C215.517 208.08 222.686 207.07 222.377 206.785C222.068 206.501 222.096 204.4 222.096 204.4C226.301 198.656 222.714 196.326 222.714 196.326C222.714 196.326 224.589 187.288 224.929 183.936C225.167 181.597 225.461 175.284 225.618 171.709C225.686 170.164 225.726 169.098 225.726 169.098L222.321 168.422L221.879 168.335L213.592 166.67C213.592 166.67 213.364 168.215 213.209 169.478C213.131 170.018 213.089 170.562 213.083 171.107C213.135 171.725 213.083 173.662 213.083 173.662L212.798 179.459C212.982 180.067 213.077 180.699 213.083 181.334C213.024 182.076 211.946 192.646 211.946 192.646C211.946 192.646 210.07 198.956 210.71 199.41C211.349 199.864 209.77 205.549 209.77 205.549Z" fill="#7950B7"/>
<path opacity="0.1" d="M223.529 54.3502C223.745 54.9033 223.782 55.858 223.721 56.924C225.426 57.9511 227.387 58.4762 229.377 58.4391C231.368 58.4019 233.308 57.804 234.974 56.7139C235.066 55.1955 235.248 53.6839 235.521 52.1873C235.521 52.1873 222.787 52.4746 223.529 54.3502Z" fill="black"/>
<path d="M218.613 47.5278C218.58 50.3313 219.661 53.0332 221.62 55.0393C223.578 57.0454 226.254 58.1913 229.057 58.2249C231.86 58.2585 234.562 57.1771 236.569 55.2185C238.575 53.2599 239.721 50.5846 239.754 47.7812C239.754 47.6947 239.754 47.6143 239.754 47.5278C239.754 44.7235 238.64 42.0341 236.657 40.0512C234.674 38.0683 231.985 36.9543 229.181 36.9543C226.376 36.9543 223.687 38.0683 221.704 40.0512C219.721 42.0341 218.607 44.7235 218.607 47.5278H218.613Z" fill="#FFB8B8"/>
<path opacity="0.1" d="M227.506 70.7202C231.585 69.1351 236.831 63.8978 235.521 61.4506C235.232 60.8326 235.059 60.1663 235.012 59.4855L229.428 64.077L225.974 66.9104L223.347 60.227C223.128 61.6267 222.902 62.6989 222.902 62.6989C222.902 62.6989 223.684 63.7896 224.138 63.8484C224.593 63.9071 221.654 72.9913 227.506 70.7202Z" fill="black"/>
<path d="M213.067 91.0114L217.729 169.339L223.81 169.738L239.559 124.32L236.976 70.3989L236.429 59.0066L229.428 64.7568L225.973 67.5902L223.27 60.7091L218.242 65.0905L213.067 91.0114Z" fill="#7950B7"/>
<path opacity="0.1" d="M233.191 169.735C233.398 170.247 233.555 170.778 233.661 171.32C238.09 170.638 242.391 169.295 246.422 167.337L246.505 167.294L246.478 166.796V166.537L244.933 163.657C244.933 163.657 232.45 167.921 233.191 169.735Z" fill="black"/>
<path opacity="0.1" d="M222.22 171.332C223.351 171.526 224.491 171.657 225.637 171.725C225.705 170.18 225.745 169.114 225.745 169.114L222.322 168.422L222.22 171.332Z" fill="black"/>
<path opacity="0.1" d="M213.197 169.478C215.394 170.05 218.79 170.693 221.824 170.291L221.867 168.335L213.58 166.67C213.58 166.67 213.361 168.202 213.197 169.478Z" fill="black"/>
<path opacity="0.1" d="M221.879 170.649C234.548 172.812 246.15 166.611 246.15 166.611L246.039 164.51C246.039 164.51 245.751 140.69 246.549 138.864C247.346 137.038 247.967 127.79 247.516 126.378C247.065 124.966 249.163 103.646 249.163 103.646L249.502 94.9942L261.952 89.9361L256.39 78.3398C255.639 76.7143 254.993 75.0424 254.456 73.3342C253.488 70.3216 248.999 67.3646 248.999 67.3646C248.999 67.3646 244.395 64.4107 242.575 64.522C240.755 64.6332 238.37 61.9079 238.37 61.9079C236.608 57.4184 235.014 59.436 235.014 59.436C235.014 59.6523 235.014 59.436 235.101 60.1004C235.719 65.0287 225.108 80.6016 224.957 80.8797L223.934 105.494L222.911 136.642L221.879 170.649Z" fill="black"/>
<path d="M222.219 170.649C234.888 172.812 246.493 166.611 246.493 166.611L246.379 164.51C246.379 164.51 246.095 140.69 246.892 138.864C247.689 137.038 248.31 127.781 247.856 126.356C247.402 124.932 249.512 103.633 249.512 103.633L249.855 94.9818L262.301 89.9237L256.739 78.3275C255.99 76.7023 255.344 75.0315 254.805 73.325C253.838 70.3216 249.333 67.3615 249.333 67.3615C249.333 67.3615 244.729 64.4076 242.912 64.5189C241.095 64.6301 238.698 61.9079 238.698 61.9079C236.933 57.4184 234.99 59.436 234.99 59.436C234.99 59.6523 235.175 59.745 235.076 60.1004C233.717 64.8804 225.424 80.6016 225.272 80.8797L224.249 105.494L223.248 136.658L222.219 170.649Z" fill="white"/>
<path opacity="0.1" d="M225.634 81.5748C226.996 81.0063 234.214 72.7656 234.214 72.7656V70.8901C234.477 70.2721 236.04 70.6491 237.304 71.0817L236.76 59.6894L236.142 60.2023C234.792 64.9792 225.782 81.2999 225.634 81.5748Z" fill="black"/>
<path d="M225.291 80.8952C226.656 80.3235 233.874 72.086 233.874 72.086V70.2073C234.137 69.5894 235.697 69.9663 236.964 70.3989L236.43 59.0189L235.812 59.5288C234.449 64.2995 225.442 80.6171 225.291 80.8952Z" fill="white"/>
<path opacity="0.1" d="M246.15 121.99C245.98 121.99 237.341 121.082 237.341 121.082C237.341 121.082 232.11 131.371 232.453 133.871C232.796 136.371 233.417 138.589 235.521 138.197C237.625 137.804 246.846 138.506 246.846 138.506L246.15 121.99Z" fill="black"/>
<path d="M246.493 121.307C246.32 121.307 237.681 120.399 237.681 120.399C237.681 120.399 232.453 130.704 232.793 133.176C233.133 135.648 233.76 137.894 235.861 137.501C237.962 137.109 247.188 137.81 247.188 137.81L246.493 121.307Z" fill="white"/>
<path d="M239.983 116.49C239.983 116.49 232.054 120.754 231.884 122.052C231.714 123.35 235.92 121.484 236.828 121.255C237.426 121.113 238.035 121.018 238.648 120.971L244.707 121.134L239.983 116.49Z" fill="#FFB8B8"/>
<path opacity="0.1" d="M227.849 82.1064C227.388 82.1064 227.015 81.7329 227.015 81.2721C227.015 80.8114 227.388 80.4379 227.849 80.4379C228.31 80.4379 228.683 80.8114 228.683 81.2721C228.683 81.7329 228.31 82.1064 227.849 82.1064Z" fill="black"/>
<path d="M227.849 81.7665C227.388 81.7665 227.015 81.3929 227.015 80.9322C227.015 80.4714 227.388 80.0979 227.849 80.0979C228.31 80.0979 228.683 80.4714 228.683 80.9322C228.683 81.3929 228.31 81.7665 227.849 81.7665Z" fill="#3F3D56"/>
<path opacity="0.1" d="M226.313 118.221C225.853 118.221 225.479 117.847 225.479 117.387C225.479 116.926 225.853 116.552 226.313 116.552C226.774 116.552 227.148 116.926 227.148 117.387C227.148 117.847 226.774 118.221 226.313 118.221Z" fill="black"/>
<path d="M226.313 117.878C225.853 117.878 225.479 117.504 225.479 117.043C225.479 116.583 225.853 116.209 226.313 116.209C226.774 116.209 227.148 116.583 227.148 117.043C227.148 117.504 226.774 117.878 226.313 117.878Z" fill="#3F3D56"/>
<path opacity="0.1" d="M227.015 100.164C226.554 100.164 226.181 99.79 226.181 99.3293C226.181 98.8685 226.554 98.495 227.015 98.495C227.476 98.495 227.849 98.8685 227.849 99.3293C227.849 99.79 227.476 100.164 227.015 100.164Z" fill="black"/>
<path d="M227.015 99.8236C226.554 99.8236 226.181 99.4501 226.181 98.9893C226.181 98.5286 226.554 98.1551 227.015 98.1551C227.476 98.1551 227.849 98.5286 227.849 98.9893C227.849 99.4501 227.476 99.8236 227.015 99.8236Z" fill="#3F3D56"/>
<path d="M207.784 120.798C207.784 120.798 207.215 121.65 207.784 122.034C208.352 122.417 207.728 123.399 207.728 123.399C207.728 123.399 209.146 124.227 208.522 124.978C207.898 125.729 208.293 129.1 208.293 129.1L209.999 131.94C209.999 131.94 209.897 133.76 209.891 136.219C209.891 140.057 210.117 145.452 211.365 147.911L211.198 168.091C211.198 168.091 217.171 170.276 222.17 169.608L222.912 137.226C222.912 137.226 221.83 118.863 221.432 115.341C221.198 113.512 221.103 111.669 221.147 109.826C221.147 109.826 221.317 104.313 221.889 101.758C221.889 101.758 222.507 90.6715 222.569 87.6033C222.596 86.1356 222.519 81.853 222.433 77.7806C222.337 73.3281 222.229 69.129 222.229 69.129L223.357 60.2024C223.357 60.2024 222.229 60.0911 221.889 60.5423C221.737 60.6845 221.571 60.8118 221.395 60.9223C219.445 62.2386 212.567 66.2863 212.567 66.2863C212.567 66.2863 208.76 67.8004 207.849 69.9694C206.937 72.1385 206.304 73.6773 205.862 74.2952C205.42 74.9132 205.179 77.8177 205.179 77.8177C205.179 77.8177 203.869 83.1632 202.846 84.0685C201.823 84.9738 201.088 90.721 201.088 90.721L210.126 97.8276C210.126 97.8276 210.92 109.649 211.09 110.107C211.26 110.564 207.784 120.798 207.784 120.798Z" fill="white"/>
<path d="M207.44 120.798C207.44 120.798 206.875 121.65 207.44 122.034C208.006 122.417 207.388 123.399 207.388 123.399C207.388 123.399 208.806 124.227 208.182 124.978C207.558 125.729 207.953 129.1 207.953 129.1L209.653 131.94C209.653 131.94 209.551 133.76 209.541 136.219C209.541 140.057 209.767 145.452 211.015 147.911L210.845 168.091C210.845 168.091 216.818 170.276 221.817 169.608L222.556 137.226C222.556 137.226 221.478 118.863 221.076 115.341C220.842 113.512 220.748 111.669 220.795 109.826C220.795 109.826 220.965 104.313 221.533 101.758C221.533 101.758 222.151 90.6715 222.216 87.6033C222.244 86.1356 222.167 81.8531 222.08 77.7806C221.984 73.3281 221.876 69.129 221.876 69.129L223.365 60.0819C223.365 60.0819 221.876 60.0819 221.533 60.5423C221.382 60.6862 221.217 60.8136 221.039 60.9223C219.092 62.2386 212.214 66.2863 212.214 66.2863C212.214 66.2863 208.417 67.8004 207.49 69.9695C206.563 72.1385 205.945 73.6773 205.503 74.2953C205.061 74.9132 204.82 77.8177 204.82 77.8177C204.82 77.8177 203.51 83.1632 202.487 84.0685C201.465 84.9738 200.726 90.721 200.726 90.721L209.764 97.8276C209.764 97.8276 210.558 109.649 210.731 110.107C210.904 110.564 207.44 120.798 207.44 120.798Z" fill="white"/>
<path opacity="0.1" d="M218.264 71.7522L217.446 74.1314L221.744 78.4572C221.648 74.0047 221.54 69.8056 221.54 69.8056L223.029 60.7616C223.029 60.7616 221.54 60.7616 221.197 61.222C221.046 61.3659 220.88 61.4933 220.702 61.602L217.05 72.1354L218.264 71.7522Z" fill="black"/>
<path d="M218.613 71.0694L217.794 73.4455L222.089 77.7713C221.997 73.3188 221.885 69.1197 221.885 69.1197L223.378 60.0726C223.378 60.0726 221.885 60.0726 221.546 60.533C221.394 60.676 221.228 60.8034 221.051 60.913L217.377 71.4557L218.613 71.0694Z" fill="white"/>
<path opacity="0.1" d="M218.613 47.5278C218.612 48.6411 218.787 49.7477 219.132 50.8062C219.191 50.8159 219.25 50.8138 219.307 50.8C219.365 50.7862 219.419 50.7609 219.466 50.7258C219.55 47.9449 220.915 45.3309 222.599 43.1093C223.073 42.4392 223.646 41.8453 224.299 41.3481C224.959 40.8522 225.781 40.6198 226.604 40.6961C227.531 40.8228 228.349 41.4531 229.286 41.5335C230.522 41.6354 231.628 40.7795 232.855 40.7394C233.353 40.7435 233.845 40.8543 234.298 41.0643C234.75 41.2742 235.153 41.5785 235.478 41.9568C236.123 42.7176 236.602 43.6048 236.884 44.5615C237.369 46.0133 237.634 47.5299 237.668 49.0604C237.684 49.9255 237.767 51.0101 238.571 51.3252C238.51 50.6894 238.582 50.0479 238.783 49.4415C238.983 48.8351 239.308 48.277 239.736 47.8028L239.754 47.7812C239.754 47.6947 239.754 47.6143 239.754 47.5278C239.754 44.7235 238.64 42.0341 236.657 40.0512C234.674 38.0683 231.985 36.9543 229.181 36.9543C226.376 36.9543 223.687 38.0683 221.704 40.0512C219.721 42.0341 218.607 44.7235 218.607 47.5278H218.613Z" fill="black"/>
<path d="M224.793 30.7405C226.398 29.9852 228.225 29.8424 229.928 30.3388C230.784 30.5922 231.591 31.0031 232.459 31.2102C234.313 31.6582 236.476 31.1731 238.067 32.2576C238.951 32.8756 239.482 33.852 239.976 34.8037L241.212 37.1551C241.886 38.4435 242.566 39.7536 242.847 41.1719C243.128 42.5901 242.958 44.1783 242.059 45.3216C241.407 46.1496 240.437 46.6718 239.726 47.4536C239.299 47.9302 238.976 48.49 238.776 49.0978C238.576 49.7056 238.504 50.3483 238.564 50.9853C237.761 50.6763 237.681 49.5856 237.662 48.7204C237.627 47.1899 237.363 45.6734 236.877 44.2216C236.595 43.2648 236.116 42.3776 235.471 41.6168C235.146 41.2382 234.744 40.9334 234.292 40.7229C233.839 40.5124 233.347 40.401 232.848 40.3963C231.612 40.4396 230.503 41.2955 229.279 41.1904C228.352 41.1132 227.53 40.4828 226.597 40.3562C225.775 40.2783 224.952 40.5108 224.292 41.0081C223.639 41.5038 223.067 42.0979 222.596 42.7693C220.909 44.994 219.54 47.5957 219.46 50.3858C219.111 50.6392 218.607 50.3055 218.434 49.91C218.261 49.5145 218.255 49.051 218.035 48.6741C217.782 48.2384 217.297 48.0036 216.917 47.676C215.953 46.8449 215.712 45.4452 215.749 44.1752C215.786 42.9053 216.033 41.6168 215.792 40.3685C215.647 39.6053 215.319 38.8854 215.14 38.1284C214.961 37.3714 214.939 36.5216 215.363 35.8697C215.981 34.9149 217.281 34.7233 218.415 34.6337C219.704 34.5225 220.856 34.6646 221.678 33.5801C222.065 33.0149 222.499 32.4835 222.976 31.9919C223.146 31.8281 224.793 30.8085 224.793 30.7405Z" fill="#512E4E"/>
<path opacity="0.1" d="M258.386 95.8995L261.612 89.933L262.635 99.1408C262.635 99.1408 262.066 103.232 262.18 103.859C262.295 104.486 259.851 110.11 259.851 110.11C259.851 110.11 251.777 124.493 248.48 125.232L237.356 117.272L240.31 113.521C240.31 113.521 241.333 113.122 241.589 113.521C241.589 113.521 247.077 104.085 247.643 103.405C248.208 102.725 248.1 101.356 248.1 101.356C248.1 101.356 248.953 100.448 248.668 99.595C248.384 98.7422 250.3 95.7883 250.3 95.7883L248.539 94.1414L258.386 95.8995Z" fill="black"/>
<path d="M261.442 89.2501L262.295 89.933L263.318 99.1408C263.318 99.1408 262.749 103.232 262.863 103.859C262.978 104.486 260.531 110.11 260.531 110.11C260.531 110.11 252.46 124.493 249.163 125.232L238.021 117.272L240.978 113.521C240.978 113.521 242.001 113.122 242.257 113.521C242.257 113.521 247.742 104.085 248.31 103.405C248.879 102.725 248.764 101.356 248.764 101.356C248.764 101.356 249.617 100.448 249.333 99.595C249.049 98.7422 250.983 95.7883 250.983 95.7883L249.222 94.1414L261.442 89.2501Z" fill="white"/>
<path opacity="0.1" d="M208.522 125.334C207.904 126.084 208.293 129.458 208.293 129.458L209.999 132.28C209.999 132.28 209.897 134.103 209.891 136.562L212.758 137.458C213.018 137.539 213.293 137.557 213.561 137.51C213.828 137.463 214.081 137.352 214.297 137.188C214.514 137.023 214.688 136.81 214.805 136.564C214.922 136.319 214.979 136.049 214.97 135.777L214.473 119.834L207.783 122.389C208.352 122.784 207.728 123.755 207.728 123.755C207.728 123.755 209.146 124.583 208.522 125.334Z" fill="black"/>
<path d="M208.182 124.994C207.564 125.741 207.953 129.116 207.953 129.116L209.653 131.94C209.653 131.94 209.551 133.76 209.542 136.219L212.462 137.131C212.715 137.21 212.984 137.228 213.246 137.182C213.508 137.137 213.755 137.029 213.966 136.868C214.178 136.708 214.348 136.499 214.463 136.259C214.577 136.019 214.633 135.756 214.624 135.49L214.127 119.491L207.441 122.052C208.012 122.448 207.388 123.418 207.388 123.418C207.388 123.418 208.806 124.243 208.182 124.994Z" fill="white"/>
<path d="M205.963 117.386C205.963 117.386 206.418 120.288 207.555 120.458C208.692 120.628 209.202 125.151 210.336 124.994C211.47 124.836 210.719 120.785 210.679 120C210.638 119.216 211.915 115.965 210.963 115.227C210.011 114.488 206.983 115.227 206.983 115.227L205.963 117.386Z" fill="#FFB8B8"/>
<path opacity="0.1" d="M203.56 95.0467L201.418 90.7209C201.418 90.7209 200.562 94.0178 200.562 95.779C200.562 97.5403 199.37 97.7133 199.37 97.7133C199.37 97.7133 198.063 99.2582 198.752 100.386C199.441 101.514 199.716 104.307 199.716 104.307C199.716 104.307 199.49 109.649 200.513 110.388C201.536 111.126 201.764 112.891 201.764 112.891C201.764 112.891 203.64 116.243 203.581 117.04C203.523 117.838 206.195 123.236 206.195 123.236C206.195 123.236 204.888 116.527 212.505 113.629C212.505 113.629 212.563 111.355 211.995 110.731C211.426 110.107 210.54 109.804 211.096 106.665C211.652 103.525 211.256 99.7402 211.256 98.9832C211.256 98.2262 209.551 93.508 209.551 93.508L203.56 95.0467Z" fill="black"/>
<path d="M202.608 90.103L200.735 90.7209C200.735 90.7209 199.88 94.0178 199.88 95.779C199.88 97.5403 198.687 97.7133 198.687 97.7133C198.687 97.7133 197.38 99.2582 198.069 100.386C198.758 101.514 199.036 104.307 199.036 104.307C199.036 104.307 198.807 109.649 199.83 110.388C200.853 111.126 201.066 112.891 201.066 112.891C201.066 112.891 202.942 116.243 202.883 117.04C202.824 117.838 205.5 123.236 205.5 123.236C205.5 123.236 204.193 116.527 211.81 113.629C211.81 113.629 211.865 111.355 211.297 110.731C210.728 110.107 209.841 109.804 210.397 106.665C210.954 103.525 210.558 99.7402 210.558 98.9832C210.558 98.2262 208.853 93.508 208.853 93.508L202.608 90.103Z" fill="white"/>
<path opacity="0.1" d="M243.975 202.225C243.975 202.225 240.99 200.349 239.031 201.712C237.072 203.075 243.975 202.225 243.975 202.225Z" fill="black"/>
<path opacity="0.1" d="M220.777 196.425C220.777 196.425 218.135 196.085 215.916 198.474C213.698 200.862 220.777 196.425 220.777 196.425Z" fill="black"/>
<g opacity="0.1">
<path d="M216.917 46.9962C217.297 47.3268 217.786 47.5585 218.039 47.9942C218.255 48.3681 218.261 48.8316 218.434 49.2302C218.607 49.6287 219.111 49.9594 219.463 49.706C219.544 46.9251 220.913 44.3142 222.596 42.0895C223.067 41.419 223.64 40.8259 224.293 40.3313C224.954 39.833 225.777 39.5994 226.601 39.6763C227.528 39.803 228.344 40.4333 229.28 40.5136C230.516 40.6156 231.625 39.7597 232.852 39.7196C233.35 39.7233 233.842 39.834 234.294 40.044C234.746 40.254 235.148 40.5585 235.472 40.937C236.117 41.6978 236.596 42.585 236.878 43.5417C237.363 44.9935 237.628 46.5101 237.663 48.0406C237.681 48.9026 237.762 49.9779 238.559 50.2992C238.54 50.5286 238.54 50.759 238.559 50.9883C237.752 50.6793 237.672 49.5886 237.653 48.7234C237.619 47.1929 237.354 45.6764 236.869 44.2246C236.587 43.2678 236.108 42.3806 235.463 41.6198C235.138 41.2414 234.736 40.9367 234.285 40.7262C233.833 40.5157 233.341 40.4043 232.842 40.3993C231.607 40.4426 230.494 41.2985 229.271 41.1934C228.344 41.1162 227.522 40.4858 226.592 40.3592C225.768 40.2814 224.945 40.5139 224.284 41.0111C223.63 41.5068 223.058 42.101 222.587 42.7723C220.903 44.997 219.534 47.5987 219.454 50.3889C219.102 50.6422 218.598 50.3085 218.425 49.913C218.252 49.5175 218.246 49.054 218.03 48.6771C217.776 48.2414 217.288 48.0066 216.908 47.679C215.944 46.8479 215.703 45.4482 215.74 44.1782C215.74 44.1381 215.74 44.101 215.74 44.0608C215.802 45.167 216.095 46.2886 216.917 46.9962Z" fill="black"/>
<path d="M239.73 46.7799C240.437 45.9982 241.408 45.4729 242.06 44.6448C242.61 43.9139 242.924 43.0319 242.959 42.1173C243.056 43.2608 242.736 44.4009 242.06 45.3277C241.408 46.1558 240.437 46.678 239.73 47.4597C239.046 48.2239 238.636 49.1932 238.562 50.2159C238.515 49.594 238.595 48.9692 238.796 48.3788C238.996 47.7884 239.314 47.2446 239.73 46.7799Z" fill="black"/>
<path d="M215.141 37.4485C215.323 38.2056 215.647 38.9255 215.796 39.6887C215.885 40.2048 215.917 40.7291 215.891 41.2522C215.881 40.9567 215.849 40.6623 215.796 40.3716C215.647 39.6084 215.323 38.8884 215.141 38.1314C215.036 37.7136 215.001 37.2813 215.039 36.8522C215.058 37.0531 215.093 37.2524 215.141 37.4485Z" fill="black"/>
</g>
</svg>
