<svg width="259" height="266" viewBox="0 0 259 266" fill="none" xmlns="http://www.w3.org/2000/svg">
<path fill-rule="evenodd" clip-rule="evenodd" d="M179.547 46.3724L180.682 47.383L181.852 48.3095L183.062 49.1531L184.314 49.9159L185.613 50.6009L186.96 51.2121L188.357 51.7541L189.805 52.2324L191.304 52.653L192.854 53.0226L194.454 53.3484L196.103 53.6377L197.798 53.8983L199.535 54.1379L201.313 54.3643L203.126 54.5852L204.972 54.8075L206.845 55.038L208.743 55.2831L210.66 55.5486L212.591 55.8404L214.533 56.1638L216.479 56.5238L218.425 56.9246L220.365 57.3706L222.296 57.8656L224.209 58.4137L226.1 59.0182L227.963 59.6826L229.79 60.4098L231.577 61.2024L233.316 62.0624L235.001 62.9916L236.626 63.9913L238.185 65.0622L239.672 66.2046L241.082 67.4184L242.41 68.7029L243.65 70.0569L244.798 71.4789L245.851 72.9668L246.804 74.5182L247.655 76.1301L248.401 77.7994L249.04 79.5224L249.571 81.2953L249.993 83.1137L250.307 84.9733L250.512 86.8694L250.611 88.7972L250.605 90.7516L250.496 92.7277L250.289 94.7204L249.986 96.7246L249.592 98.7352L249.114 100.747L248.555 102.756L247.923 104.757L247.225 106.745L246.467 108.717L245.658 110.668L244.806 112.595L243.92 114.495L243.008 116.365L242.079 118.202L241.142 120.005L240.208 121.772L238.382 125.194L237.509 126.849L236.675 128.467L235.888 130.049L235.158 131.596L234.49 133.11L233.894 134.594L233.375 136.05L232.94 137.481L232.594 138.891L232.341 140.283L232.186 141.662L232.129 143.032L232.175 144.397L232.322 145.762L232.571 147.13L232.92 148.507L233.367 149.897L233.907 151.304L234.538 152.731L235.252 154.184L236.044 155.664L236.907 157.175L237.832 158.719L238.81 160.298L239.834 161.915L241.977 165.262L243.078 166.993L244.186 168.763L245.292 170.57L246.388 172.414L247.467 174.293L248.522 176.205L249.546 178.15L250.536 180.126L251.485 182.13L252.39 184.161L253.246 186.217L254.047 188.294L254.791 190.39L255.473 192.502L256.089 194.628L256.636 196.764L257.111 198.907L257.512 201.055L257.837 203.203L258.084 205.35L258.253 207.492L258.342 209.626L258.351 211.75L258.28 213.861L258.129 215.957L257.899 218.034L257.59 220.09L257.204 222.124L256.741 224.133L256.202 226.115L255.59 228.068L254.905 229.99L254.149 231.879L253.324 233.734L252.431 235.553L251.472 237.334L250.448 239.075L249.361 240.775L248.212 242.432L247.004 244.045L245.738 245.612L244.415 247.132L243.037 248.602L241.605 250.022L240.122 251.389L238.588 252.703L237.006 253.962L235.376 255.164L233.7 256.307L231.981 257.391L230.219 258.413L228.417 259.373L226.576 260.269L224.698 261.099L222.785 261.863L220.839 262.56L218.861 263.188L216.854 263.746L214.82 264.233L212.762 264.65L210.68 264.995L208.579 265.267L206.459 265.466L204.323 265.593L202.174 265.646L200.014 265.626L197.846 265.533L195.672 265.367L193.494 265.13L191.316 264.82L189.139 264.44L186.966 263.99L184.8 263.471L182.643 262.884L180.498 262.232L178.367 261.516L176.253 260.738L174.157 259.899L172.084 259.004L170.034 258.054L168.011 257.052L166.016 256.003L164.052 254.91L162.121 253.777L160.225 252.609L158.365 251.409L156.544 250.184L154.762 248.939L153.022 247.68L151.324 246.412L149.669 245.143L148.057 243.878L146.49 242.624L144.966 241.387L143.486 240.174L140.652 237.84L139.296 236.729L137.978 235.663L136.697 234.646L135.451 233.681L134.237 232.771L133.053 231.921L131.895 231.132L130.762 230.405L129.651 229.744L128.558 229.148L127.48 228.618L126.415 228.155L125.36 227.757L124.311 227.425L123.266 227.158L122.222 226.953L121.177 226.809L120.127 226.724L119.07 226.696L118.005 226.721L116.929 226.797L115.84 226.921L114.735 227.089L113.615 227.297L112.477 227.542L111.32 227.82L110.144 228.126L108.947 228.457L107.729 228.809L106.49 229.176L103.948 229.943L102.646 230.333L101.323 230.722L99.9806 231.107L98.6197 231.482L97.2412 231.844L95.8464 232.19L94.4367 232.515L93.0137 232.817L91.5789 233.091L90.1342 233.335L88.6813 233.547L87.2222 233.722L85.7587 233.861L84.2928 233.959L82.8265 234.015L81.3617 234.029L79.9005 233.998L78.4444 233.922L76.9956 233.8L75.5555 233.631L74.1258 233.416L72.7081 233.155L71.3035 232.847L69.9136 232.494L68.5391 232.096L67.1812 231.655L65.8404 231.171L64.5176 230.646L63.213 230.081L61.9269 229.478L60.6595 228.839L59.4107 228.165L58.1804 227.458L56.9682 226.72L55.7744 225.952L54.5992 225.155L53.4435 224.329L52.3084 223.475L51.1957 222.592L50.1072 221.679L49.0445 220.737L48.0092 219.765L47.0024 218.763L46.0256 217.733L45.0797 216.675L44.1658 215.589L43.2849 214.476L42.4378 213.336L41.6254 212.172L40.8483 210.983L40.1072 209.771L39.4026 208.537L38.735 207.282L38.1048 206.007L37.5123 204.714L36.9576 203.402L36.4407 202.075L35.9616 200.733L35.52 199.378L35.1156 198.011L34.7477 196.633L34.4156 195.246L34.1185 193.852L33.8553 192.452L33.6246 191.048L33.4249 189.64L33.2547 188.231L33.1119 186.822L32.9946 185.415L32.9004 184.01L32.8268 182.61L32.7712 181.215L32.7307 179.826L32.7023 178.445L32.6828 177.072L32.6689 175.709L32.6571 174.355L32.6439 173.012L32.6255 171.68L32.5983 170.358L32.5585 169.047L32.5024 167.747L32.4261 166.457L32.326 165.177L32.1985 163.906L32.04 162.642L31.8471 161.385L31.6167 160.133L31.3458 158.885L31.0315 157.639L30.6716 156.393L30.2639 155.146L29.8065 153.893L29.2981 152.635L28.7379 151.368L28.1251 150.089L27.4598 148.797L26.7424 147.488L25.9738 146.161L25.1555 144.812L24.2895 143.44L23.3781 142.042L22.4245 140.617L21.4321 139.161L20.4048 137.674L18.2632 134.599L17.1587 133.009L16.0387 131.383L14.9085 129.72L13.7736 128.019L12.6394 126.283L11.5112 124.509L10.3942 122.699L9.2944 120.854L8.21825 118.975L7.17277 117.064L6.16552 115.123L5.2045 113.155L4.29805 111.163L3.45487 109.151L2.68381 107.124L1.99366 105.087L1.39302 103.045L0.890098 101.003L0.492617 98.9687L0.20766 96.9475L0.041603 94.9461L0 92.9714L0.087539 91.0299L0.307976 89.1283L0.664105 87.2734L1.15772 85.4714L1.78962 83.7284L2.55958 82.0504L3.46642 80.4427L4.50793 78.9103L5.68102 77.4577L6.98164 76.0887L8.40493 74.8068L9.94518 73.6145L11.596 72.5138L13.3502 71.5061L15.2002 70.5919L17.1377 69.771L19.1541 69.0424L21.2402 68.4047L23.3866 67.8552L25.584 67.3909L27.8225 67.008L30.0924 66.702L32.3841 66.4677L34.688 66.2994L36.9947 66.1907L39.2951 66.1348L41.5805 66.1245L43.8424 66.1521L46.0729 66.2095L48.2648 66.2885L50.4111 66.3806L54.543 66.5695L56.5182 66.6491L58.4272 66.7071L60.2664 66.7354L62.0333 66.7255L63.7259 66.6698L65.3429 66.5605L66.8841 66.3906L68.3495 66.1535L69.7403 65.843L71.058 65.4538L72.3049 64.9808L73.4839 64.4198L74.5985 63.7675L75.6527 63.0211L76.6508 62.1784L77.5978 61.2384L78.4988 60.2006L79.3594 59.0652L80.1854 57.8335L80.9827 56.5072L81.7575 55.089L82.5158 53.5824L83.2641 51.9914L84.0082 50.3209L84.7545 48.5762L85.5089 46.7636L86.277 44.8898L87.0646 42.9621L87.877 40.9884L88.7191 38.9773L89.5957 36.9377L90.5111 34.8789L91.4691 32.8103L92.4727 30.741L93.5248 28.6799L94.6273 26.6358L95.7818 24.6166L96.9891 22.6304L98.25 20.6846L99.5646 18.7868L100.933 16.9441L102.353 15.1636L103.826 13.4521L105.349 11.8163L106.92 10.2627L108.539 8.79771L110.201 7.42731L111.906 6.15736L113.649 4.99339L115.427 3.94062L117.238 3.00387L119.077 2.18752L120.941 1.49551L122.824 0.931279L124.724 0.497656L126.635 0.19693L128.553 0.0307229L130.472 0L132.39 0.105052L134.3 0.345408L136.199 0.7199L138.081 1.22661L139.943 1.86284L141.779 2.62519L143.587 3.50946L145.363 4.51081L147.103 5.62364L148.804 6.84167L150.464 8.15804L152.081 9.56528L153.652 11.0554L155.177 12.6199L156.655 14.2498L158.085 15.936L159.468 17.6688L160.805 19.4385L162.098 21.2353L163.347 23.0493L164.556 24.8705L165.728 26.6892L166.865 28.4957L167.973 30.281L169.054 32.036L170.114 33.7523L171.157 35.4219L172.188 37.0375L173.214 38.5924L174.239 40.0808L175.269 41.4973L176.309 42.8378L177.366 44.0987L178.443 45.2774L179.547 46.3724Z" fill="#F3EBFF"/>
<path d="M149.867 65.3199C149.858 65.2843 149.84 65.252 149.813 65.2268C149.28 64.7002 142.474 55.0759 142.474 55.0759C142.474 55.0759 142.116 54.0014 141.536 52.6045C141.722 52.3637 141.861 52.0904 141.948 51.7986C141.979 51.6749 142.002 51.5493 142.016 51.4225C142.016 51.3831 142.044 51.3508 142.055 51.3115C142.179 50.8257 142.167 50.3149 142.019 49.8357C141.979 49.9587 141.93 50.0784 141.872 50.1939C141.738 49.7767 141.557 49.3755 141.335 48.9976C140.432 47.4431 139.143 46.1322 138.194 44.6171C136.757 42.263 136.185 39.4814 136.578 36.7514C136.578 36.8911 136.578 37.0344 136.578 37.1741C136.614 36.6326 136.686 36.0942 136.793 35.5622C136.943 34.9568 137.143 34.3649 137.392 33.7928C138.244 31.8408 139.623 30.1394 140.461 28.1801C140.742 27.5193 140.956 26.8317 141.099 26.1278C141.394 24.9522 141.502 23.7373 141.417 22.5281C141.417 22.8146 141.371 23.1011 141.328 23.3841C141.237 20.4768 140.063 17.7084 138.036 15.6223C135.11 12.6817 130.908 11.5391 126.89 10.9373C125.201 10.7403 123.588 10.1247 122.197 9.14643C120.654 8.14711 118.659 7.90712 116.853 8.12561C114.779 8.34994 112.851 9.30312 111.413 10.8156C109.504 12.9145 108.676 15.8874 106.448 17.6568C105.098 18.7313 103.386 19.2328 101.813 19.9635C100.241 20.6942 98.7546 21.7544 98.2495 23.3232C98.2495 23.3232 98.2495 23.3017 98.2495 23.291V23.3805L98.228 23.4378C97.7051 25.2932 98.7152 27.1808 99.2417 29.0326C99.7897 30.9489 99.8255 32.9726 99.8542 34.9533C99.8936 37.3746 99.9294 39.7995 99.89 42.2244C99.8721 43.1772 99.8399 44.1407 99.7682 45.0898C98.9204 45.3461 98.097 45.677 97.3075 46.0784C96.5052 46.6014 93.5036 49.8429 93.5036 49.8429L87.6331 72.2722L87.7119 72.3617L87.6331 72.6662L87.9303 72.5981C88.7613 73.4936 91.2435 76.0438 93.9227 77.6341L94.1734 82.0326C94.1734 82.0326 94.4743 86.4454 98.5325 88.2685C98.6256 89.798 98.9157 96.0088 97.5726 98.4695C96.6425 100.267 96.205 102.279 96.3046 104.301C96.3046 104.301 96.7738 108.033 96.2401 109.996C95.9283 111.308 95.9051 112.671 96.1721 113.993C96.1721 113.993 96.1721 114.426 96.1721 115.171C96.1721 119.144 96.2186 131.873 96.1721 133.313C96.104 135.015 96.1721 160.177 96.1721 160.177C96.1721 160.177 95.839 172.753 94.7716 176.159C93.7042 179.565 93.9728 190.844 93.9728 190.844C93.9728 190.844 93.3031 204.28 95.6706 206.93C95.6706 207.048 95.6491 207.17 95.6456 207.288C95.6456 207.342 95.6456 207.403 95.6456 207.457C95.6169 208.478 95.8139 209.563 96.6914 209.896C98.4823 210.584 100.85 212.647 101.298 213.238C101.745 213.829 104.349 215.301 107.745 214.907C109.872 214.668 112.013 214.57 114.153 214.613C114.153 214.613 115.492 214.37 115.059 212.704C114.78 211.665 113.734 210.068 112.989 209.018C113.125 209.054 113.257 209.083 113.383 209.108L113.512 209.133H113.612C113.667 209.136 113.722 209.136 113.777 209.133H113.848C113.915 209.138 113.982 209.138 114.049 209.133C114.948 209.047 118.3 210.609 118.899 211.64C119.497 212.672 121.606 213.456 123.197 213.653C124.142 213.768 126.528 213.574 128.53 213.317C129.538 213.212 130.537 213.03 131.517 212.772C131.99 212.593 132.09 212.02 131.954 211.375C131.794 210.556 131.356 209.818 130.715 209.283C130.135 208.872 129.368 207.786 128.802 206.898L128.652 206.658C129.651 205.705 131.456 202.589 132.004 201.944C132.671 201.16 130.93 172.473 130.93 172.473V158.092L133.598 144.481L135.464 137.278L137.066 126.404C137.066 126.404 139.867 113.703 139.003 112.456C139.003 112.431 138.287 99.3542 137.535 96.213C137.209 94.8125 137.291 91.6605 137.485 88.5945C137.687 88.3937 137.828 88.1397 137.891 87.862C137.955 87.5842 137.938 87.2942 137.843 87.0256C137.789 86.842 137.72 86.6634 137.635 86.492C137.635 86.4382 137.635 86.3809 137.635 86.3272C139.182 85.6152 140.799 85.0655 142.46 84.6867C145.128 84.1638 144.462 82.7884 144.462 82.7884C144.462 82.7884 145.064 81.6099 145.461 80.89C145.859 80.1701 145.529 73.8159 145.461 73.293C145.436 73.0817 145.271 71.914 145.082 70.5887C145.938 69.9798 147.052 69.2241 148.266 68.5077C150.576 67.1394 150.057 65.696 149.867 65.3199ZM115.052 156.129C115.052 156.129 113.05 161.237 113.852 162.544C114.654 163.852 113.719 168.705 113.719 168.705L113.05 175.908C113.05 175.908 111.183 189.268 111.85 192.41C112.373 194.874 112.566 202.234 112.627 205.304C112.581 205.322 112.537 205.343 112.494 205.368L112.405 205.415C112.713 204.208 112.584 201.765 111.054 196.851L110.926 176.553C110.926 176.553 110.689 153.106 112.541 150.484C114.393 147.863 115.048 143.41 115.048 143.41C115.048 143.41 114.647 149.833 114.386 151.534C114.124 153.235 115.052 156.129 115.052 156.129ZM111.323 206.583C111.305 206.626 111.284 206.669 111.269 206.708L111.169 206.579C111.22 206.584 111.272 206.585 111.323 206.583Z" fill="url(#paint0_linear_96_1216)"/>
<path d="M131.743 214.628C130.708 215.025 125.095 215.702 123.527 215.512C121.958 215.322 119.88 214.527 119.289 213.489C118.698 212.45 115.385 210.881 114.497 210.981C114.133 210.992 113.769 210.941 113.422 210.831C112.81 210.645 112.211 210.415 111.631 210.143C111.551 209.692 111.564 209.228 111.671 208.782C111.692 208.692 111.718 208.604 111.75 208.517C111.959 207.929 112.391 207.448 112.953 207.177L113.082 207.116C113.33 207.009 113.59 206.93 113.856 206.88C116.671 206.339 128.287 207.425 128.287 207.425C128.287 207.425 128.613 208.008 129.061 208.732C129.619 209.627 130.379 210.72 130.952 211.132C131.587 211.674 132.017 212.417 132.173 213.238C132.309 213.872 132.209 214.452 131.743 214.628Z" fill="#383838"/>
<path opacity="0.1" d="M131.743 214.628C130.708 215.025 125.099 215.702 123.53 215.512C121.961 215.322 119.884 214.524 119.289 213.489C118.695 212.453 115.389 210.881 114.5 210.981C113.612 211.082 111.635 210.143 111.635 210.143C111.635 210.143 111.327 208.71 112.222 207.733L114.013 209.004C114.013 209.004 118.806 210.491 119.694 211.87C120.582 213.249 122.201 214.019 124.54 214.158C126.288 214.273 130.303 213.592 132.184 213.252C132.309 213.872 132.212 214.452 131.743 214.628Z" fill="white"/>
<path d="M114.597 216.454C112.484 216.413 110.371 216.512 108.271 216.752C104.908 217.146 102.34 215.677 101.892 215.072C101.444 214.466 99.127 212.421 97.3469 211.705C96.4765 211.368 96.2723 210.272 96.3117 209.248C96.3117 209.194 96.3117 209.133 96.3117 209.079C96.3447 208.43 96.4407 207.786 96.5983 207.156L110.535 206.859L111.742 208.495L111.928 208.746L112.663 209.745C112.663 209.745 112.996 210.182 113.433 210.82C114.171 211.895 115.202 213.481 115.478 214.531C115.919 216.211 114.597 216.454 114.597 216.454Z" fill="#383838"/>
<path opacity="0.1" d="M114.597 216.454C112.484 216.413 110.371 216.512 108.271 216.752C104.912 217.146 102.34 215.677 101.896 215.072C101.452 214.466 99.127 212.403 97.3469 211.712C96.4765 211.375 96.2723 210.279 96.3117 209.255C97.3074 209.488 99.3992 210.082 100.219 211.117C101.294 212.5 103.217 214.825 105.95 214.971C108.157 215.09 113.529 214.696 115.499 214.538C115.922 216.211 114.597 216.454 114.597 216.454Z" fill="white"/>
<path opacity="0.1" d="M112.939 207.163C112.777 208.359 112.28 208.682 111.921 208.753C111.834 208.77 111.744 208.77 111.656 208.753C111.609 208.75 111.563 208.743 111.517 208.732C111.517 208.732 99.0018 211.497 96.473 209.258C96.4088 209.201 96.349 209.139 96.2939 209.072C96.3269 208.423 96.4229 207.779 96.5805 207.149L110.517 206.851L111.724 208.488C111.933 207.901 112.366 207.419 112.928 207.149L112.939 207.163Z" fill="black"/>
<path opacity="0.1" d="M129.057 208.718C128.778 209.026 128.545 209.201 128.398 209.14C127.739 208.875 122.338 207.955 120.622 208.746C118.906 209.538 113.1 208.875 113.1 208.875C113.1 208.875 113.1 208.187 113.068 207.084C113.316 206.977 113.576 206.898 113.842 206.848C116.657 206.307 128.273 207.392 128.273 207.392C128.273 207.392 128.613 207.994 129.057 208.718Z" fill="black"/>
<path d="M137.23 127.697L135.647 138.636L133.806 145.885L131.17 159.589V174.096C131.17 174.096 132.882 202.958 132.223 203.746C131.564 204.534 129.06 209.022 128.401 208.761C127.742 208.499 122.341 207.575 120.625 208.363C118.909 209.151 113.103 208.495 113.103 208.495C113.103 208.495 112.971 197.295 112.312 194.132C111.653 190.97 113.497 177.527 113.497 177.527L114.156 170.281C114.156 170.281 115.08 165.403 114.289 164.085C113.497 162.767 115.474 157.637 115.474 157.637C115.474 157.637 114.554 154.733 114.819 153.02C115.084 151.308 115.474 144.85 115.474 144.85C115.474 144.85 114.819 149.335 112.989 151.967C111.158 154.6 111.391 178.193 111.391 178.193L111.52 198.61C114.819 209.42 111.52 208.363 111.52 208.363C111.52 208.363 99.0053 211.132 96.4765 208.889C93.9478 206.647 94.6713 192.535 94.6713 192.535C94.6713 192.535 94.4098 181.202 95.4629 177.778C96.5159 174.354 96.849 161.699 96.849 161.699C96.849 161.699 96.781 136.394 96.849 134.685C96.8992 133.252 96.849 120.426 96.849 116.418C96.849 115.673 96.849 115.232 96.849 115.232L98.3605 111.479L116.27 109.236H124.837C124.837 109.236 137.732 112.267 139.064 113.574C139.093 113.596 139.117 113.622 139.136 113.653C139.999 114.917 137.23 127.697 137.23 127.697Z" fill="#7950B7"/>
<path opacity="0.1" d="M115.486 185.156C115.486 185.156 119.426 194.645 121.285 195.304C123.143 195.963 115.486 185.156 115.486 185.156Z" fill="black"/>
<path opacity="0.1" d="M116.943 199.125C116.943 199.125 130.246 199.785 130.113 201.235C129.981 202.686 116.943 199.125 116.943 199.125Z" fill="black"/>
<path opacity="0.1" d="M99.145 195.332C99.6715 195.83 109.292 196.765 108.501 197.675C107.709 198.585 99.9366 200.354 99.9366 200.354L99.145 195.332Z" fill="black"/>
<path opacity="0.1" d="M97.5659 178.963C97.5659 179.357 99.5431 191.614 100.073 192.141C100.603 192.667 104.948 193.194 104.948 193.194L97.5659 178.963Z" fill="black"/>
<path d="M111.911 11.4281C110.023 13.5378 109.206 16.5286 107.007 18.3123C105.671 19.3869 103.981 19.8991 102.426 20.6298C100.872 21.3604 99.3313 22.4744 98.8693 24.1292C98.3535 25.9917 99.3492 27.8937 99.8722 29.7562C100.413 31.6832 100.445 33.6962 100.478 35.7127C100.513 38.1519 100.553 40.5912 100.51 43.0304C100.445 46.8307 100.13 50.8065 98.1135 54.0265C105.395 56.3439 113.139 56.6591 120.776 56.9564C122.243 57.0611 123.717 57.0239 125.178 56.8454C126.443 56.5932 127.695 56.2764 128.928 55.8962C131.366 55.2512 133.878 54.9296 136.399 54.9399C137.499 54.9399 138.62 55.0079 139.68 54.7214C140.741 54.4348 141.761 53.7006 142.048 52.6404C142.302 51.6876 141.93 50.6739 141.443 49.8179C140.554 48.2562 139.294 46.9524 138.341 45.4123C137.368 43.7854 136.791 41.9529 136.656 40.0623C136.521 38.1716 136.832 36.2757 137.564 34.5272C138.409 32.5607 139.77 30.8486 140.601 28.8787C141.452 26.7635 141.678 24.4486 141.253 22.2086C140.828 19.9687 139.768 17.8979 138.201 16.242C135.311 13.2835 131.163 12.1373 127.194 11.5284C125.523 11.331 123.929 10.715 122.559 9.73748C121.037 8.73458 119.064 8.49101 117.28 8.71308C115.222 8.94366 113.316 9.90745 111.911 11.4281Z" fill="#3F3D56"/>
<g opacity="0.1">
<path d="M137.674 32.4605C136.944 34.1864 136.631 36.0603 136.761 37.9299C136.841 36.5929 137.15 35.2797 137.674 34.0472C138.516 32.0808 139.877 30.3687 140.708 28.3987C141.387 26.7537 141.673 24.9728 141.543 23.1979C141.469 24.442 141.187 25.6648 140.708 26.8155C139.877 28.7855 138.516 30.4941 137.674 32.4605Z" fill="black"/>
<path d="M100.585 35.2256C100.606 36.6297 100.628 38.0373 100.631 39.4414C100.631 37.5072 100.614 35.5766 100.585 33.646C100.556 31.6438 100.52 29.6165 99.9796 27.6859C99.6214 26.4609 99.0913 25.2181 98.905 23.9823C98.5863 25.7374 99.4925 27.5176 99.9796 29.2691C100.52 31.1818 100.556 33.2234 100.585 35.2256Z" fill="black"/>
<path d="M139.802 52.6726C138.727 52.9627 137.624 52.8983 136.525 52.8911C134.005 52.8751 131.494 53.1906 129.057 53.8295C127.823 54.2081 126.572 54.5237 125.306 54.7751C123.845 54.9566 122.37 54.995 120.901 54.8897C113.522 54.5996 106.04 54.288 98.973 52.1783C98.7631 52.6467 98.5239 53.1013 98.2566 53.5394C105.538 55.8533 113.282 56.172 120.915 56.4693C122.384 56.5746 123.859 56.5362 125.321 56.3547C126.581 56.1057 127.828 55.7913 129.057 55.4127C131.489 54.7714 133.995 54.4523 136.51 54.4635C137.61 54.4635 138.727 54.5316 139.788 54.2414C140.848 53.9513 141.869 53.2242 142.155 52.164C142.276 51.673 142.264 51.1586 142.119 50.674C141.801 51.6769 140.816 52.3753 139.802 52.6726Z" fill="black"/>
</g>
<path d="M129.193 48.4281C128.928 49.0227 127.81 54.159 127.545 54.6855C127.28 55.2121 125.833 63.64 125.701 64.1128C125.568 64.5856 116.162 62.1357 116.162 62.1357L110.499 57.3898L104.679 51.598C104.679 51.598 104.507 46.3722 108.794 44.6959C109.086 44.5814 109.385 44.4881 109.69 44.4165C114.891 43.1664 114.368 27.3528 114.368 27.3528L125.041 31.9626C125.041 31.9626 123.064 41.1893 123.132 42.9694C123.15 43.5676 123.62 43.9401 124.232 44.1658C125.179 44.4352 126.165 44.5418 127.148 44.481C127.148 44.481 129.458 47.8371 129.193 48.4281Z" fill="#FBBEBE"/>
<path d="M148.302 65.7569L149.817 66.1545C149.817 66.1545 150.938 67.8594 148.302 69.4461C146.628 70.4629 145.022 71.5864 143.492 72.8095L135.701 75.1806L134.201 70.4705L141.45 64.9689L148.302 65.7569Z" fill="#7950B7"/>
<path opacity="0.1" d="M148.302 65.7569L149.817 66.1545C149.817 66.1545 150.938 67.8594 148.302 69.4461C146.628 70.4629 145.022 71.5864 143.492 72.8095L135.701 75.1806L134.201 70.4705L141.45 64.9689L148.302 65.7569Z" fill="black"/>
<path d="M91.4477 70.3058L88.4175 73.2715C88.4175 73.2715 93.8833 79.597 98.0884 79.991C102.293 80.385 105.005 75.1806 105.005 75.1806L101.366 69.4498L91.4477 70.3058Z" fill="#7950B7"/>
<path opacity="0.1" d="M91.4477 70.3058L88.4175 73.2715C88.4175 73.2715 93.8833 79.597 98.0884 79.991C102.293 80.385 105.005 75.1806 105.005 75.1806L101.366 69.4498L91.4477 70.3058Z" fill="black"/>
<path opacity="0.1" d="M120.231 37.6863C126.053 37.6863 130.773 32.9668 130.773 27.1451C130.773 21.3233 126.053 16.6038 120.231 16.6038C114.41 16.6038 109.69 21.3233 109.69 27.1451C109.69 32.9668 114.41 37.6863 120.231 37.6863Z" fill="black"/>
<path d="M120.231 36.8947C126.053 36.8947 130.773 32.1752 130.773 26.3535C130.773 20.5317 126.053 15.8122 120.231 15.8122C114.41 15.8122 109.69 20.5317 109.69 26.3535C109.69 32.1752 114.41 36.8947 120.231 36.8947Z" fill="#FBBEBE"/>
<path opacity="0.1" d="M139.143 114.849C136.743 115.124 134.379 115.653 132.091 116.429C128.151 117.74 97.2758 116.45 96.8459 116.429C96.8459 115.684 96.8459 115.243 96.8459 115.243L98.3575 111.489L116.266 109.247H124.834C124.834 109.247 137.729 112.277 139.061 113.585C139.115 114.373 139.143 114.849 139.143 114.849Z" fill="black"/>
<path opacity="0.1" d="M129.193 48.4282C128.928 49.0227 127.81 54.1591 127.545 54.6856C127.28 55.2121 125.833 63.6401 125.701 64.1129C125.568 64.5857 116.162 62.1357 116.162 62.1357L110.499 57.3898L104.679 51.5981C104.679 51.5981 104.507 46.3722 108.794 44.6959L119.44 56.935L124.232 44.1658C125.179 44.4352 126.165 44.5418 127.148 44.481C127.148 44.481 129.458 47.8372 129.193 48.4282Z" fill="black"/>
<path d="M119.44 57.3289L108.544 44.7926C107.906 44.3855 107.177 44.1432 106.423 44.0876C105.668 44.0319 104.911 44.1646 104.221 44.4738C101.781 45.5304 98.7513 46.3865 97.9597 46.913C97.1681 47.4396 94.2024 50.699 94.2024 50.699L103.035 73.8052L99.1453 89.0243C99.1453 89.0243 99.7399 96.8004 98.2248 99.6336C97.3022 101.445 96.87 103.467 96.9711 105.497C96.9711 105.497 97.4332 109.254 96.9067 111.228C96.599 112.548 96.5758 113.917 96.8386 115.247C96.8386 115.247 128.14 116.565 132.091 115.247C134.378 114.469 136.743 113.94 139.143 113.667C139.143 113.667 138.427 100.486 137.711 97.3234C136.994 94.1606 138.305 82.1043 138.305 82.1043L137.449 69.1883L142.585 55.9356C142.585 55.9356 139.802 47.4396 136.901 46.5835C136.901 46.5835 131.632 45.3299 130.511 44.7389C129.39 44.1479 126.095 43.6178 126.095 43.6178L124.365 44.198L119.44 57.3289Z" fill="#7950B7"/>
<path opacity="0.1" d="M134.642 68.7521L111.714 67.1931C111.133 67.1536 110.631 67.592 110.592 68.1723L108.13 104.372C108.091 104.953 108.529 105.455 109.109 105.494L132.037 107.053C132.617 107.093 133.12 106.655 133.159 106.074L135.621 69.8742C135.66 69.294 135.222 68.7916 134.642 68.7521Z" fill="black"/>
<path d="M135.431 67.966L112.503 66.4069C111.923 66.3674 111.421 66.8058 111.381 67.3861L108.92 103.586C108.88 104.166 109.319 104.669 109.899 104.708L132.827 106.267C133.407 106.307 133.909 105.868 133.949 105.288L136.41 69.088C136.45 68.5078 136.011 68.0054 135.431 67.966Z" fill="#3F3D56"/>
<path d="M134.674 70.8036L112.869 69.3208L110.628 102.276L132.434 103.759L134.674 70.8036Z" fill="white"/>
<path opacity="0.1" d="M132.719 79.2152L114.907 77.9684L114.559 82.9327L132.372 84.1796L132.719 79.2152Z" fill="black"/>
<path opacity="0.1" d="M132.074 98.9434L129.248 98.7512L129.072 101.338L131.899 101.531L132.074 98.9434Z" fill="black"/>
<path opacity="0.1" d="M129.286 92.6992L114.817 91.7153L114.641 94.3026L129.11 95.2865L129.286 92.6992Z" fill="black"/>
<path d="M131.975 69.5714L116.909 68.5469L116.638 72.5243L131.705 73.5487L131.975 69.5714Z" fill="#3F3D56"/>
<path opacity="0.1" d="M131.975 69.5714L116.909 68.5469L116.638 72.5243L131.705 73.5487L131.975 69.5714Z" fill="black"/>
<path opacity="0.1" d="M120.758 114.122C120.758 114.122 120.625 133.629 115.486 144.829C115.486 144.829 121.682 130.068 121.682 129.477C121.682 128.886 125.106 122.69 124.189 120.845C123.272 119 120.758 114.122 120.758 114.122Z" fill="black"/>
<path opacity="0.1" d="M121.037 23.7172C120.84 21.9907 121.263 20.2504 122.23 18.8066C122.115 20.2537 122.524 21.694 123.383 22.8645C124.242 24.0349 125.493 24.8576 126.908 25.1822C126.787 25.0774 126.701 24.9385 126.661 24.7838C126.62 24.6291 126.628 24.4658 126.682 24.3154C127.416 25.1464 127.979 26.1314 128.81 26.8621C129.641 27.5928 130.887 28.0297 131.865 27.5104C133.194 26.794 133.208 24.9064 132.864 23.4379C132.126 20.3104 130.613 17.4193 128.462 15.0314C127.926 14.3096 127.23 13.7218 126.428 13.3141C125.626 12.9065 124.741 12.69 123.842 12.6817C121.807 12.5241 119.694 12.7032 117.871 13.6165C116.845 14.1764 115.884 14.8479 115.005 15.6188L109.991 19.7092C109.508 20.0568 109.095 20.4917 108.773 20.9915C108.558 21.4093 108.429 21.866 108.393 22.3347C108.265 23.6743 108.513 25.0231 109.109 26.2297C109.705 27.4363 110.626 28.4528 111.768 29.1652C111.743 28.1064 112.035 27.0643 112.604 26.1714C113.174 25.2785 113.996 24.5751 114.966 24.1506C115.118 24.2777 115.241 24.4358 115.327 24.6144C115.413 24.7929 115.46 24.9877 115.464 25.1858L116.521 23.3017C116.678 22.9589 116.925 22.6654 117.237 22.4529C117.889 22.0947 118.702 22.5173 119.257 23.0224C119.812 23.5274 120.353 24.1578 121.098 24.2366L121.127 21.432" fill="black"/>
<path d="M121.037 23.3232C120.839 21.5955 121.262 19.8539 122.23 18.409C121.907 21.2744 124.067 24.233 126.911 24.7846C126.79 24.6807 126.704 24.5424 126.664 24.3882C126.623 24.234 126.631 24.0711 126.685 23.9214C127.42 24.7523 127.982 25.7338 128.813 26.468C129.644 27.2023 130.89 27.6357 131.868 27.1128C133.197 26.3964 133.212 24.5088 132.868 23.0438C132.13 19.9164 130.616 17.0252 128.466 14.6373C127.798 13.8241 126.958 13.1705 126.005 12.7246C125.315 12.4695 124.59 12.3222 123.856 12.2877C121.821 12.1301 119.708 12.3056 117.885 13.2189C116.86 13.7813 115.899 14.4539 115.02 15.2247L110.005 19.3152C109.522 19.6619 109.109 20.097 108.787 20.5975C108.572 21.0151 108.442 21.4719 108.408 21.9406C108.28 23.2797 108.528 24.628 109.124 25.8339C109.72 27.0398 110.64 28.0558 111.782 28.7676C111.758 27.709 112.05 26.6673 112.619 25.7746C113.189 24.8819 114.01 24.1783 114.98 23.753C115.132 23.8806 115.254 24.0388 115.34 24.2172C115.426 24.3956 115.473 24.5902 115.478 24.7882L116.531 22.9113C116.687 22.5679 116.935 22.2742 117.247 22.0624C117.899 21.7042 118.712 22.1269 119.268 22.6319C119.823 23.137 120.364 23.7638 121.109 23.8461L121.137 21.038" fill="#3F3D56"/>
<path d="M126.03 89.8123C125.11 89.3467 109.887 91.7214 109.887 91.7214C109.887 91.7214 107.38 91.005 101.319 90.0093C95.2589 89.0136 94.8721 83.0893 94.8721 83.0893L94.2095 71.2299L96.2547 69.439L105.016 75.1699C105.016 75.1699 105.152 78.0676 105.016 78.5905C104.93 78.9487 104.701 79.3749 104.722 79.665C104.729 79.7436 104.761 79.8178 104.814 79.8761C104.867 79.9344 104.938 79.9735 105.016 79.9874C105.61 80.1379 113.712 81.4488 113.712 81.4488C113.712 81.4488 132.492 80.1629 137.173 86.4884C137.544 86.9527 137.825 87.4824 138.001 88.0501C139.161 92.3733 126.865 90.2242 126.03 89.8123Z" fill="#FBBEBE"/>
<path opacity="0.1" d="M138.011 88.0752C137.295 88.3939 136.851 88.6232 136.851 88.6232C136.851 88.6232 130.131 88.4262 126.356 87.0579C122.581 85.6897 117.992 85.9332 117.992 85.9332C117.992 85.9332 102.261 83.2254 104.7 79.6902C104.707 79.7687 104.739 79.8429 104.792 79.9012C104.846 79.9595 104.916 79.9986 104.994 80.0125C105.589 80.163 113.691 81.4739 113.691 81.4739C113.691 81.4739 132.47 80.188 137.151 86.5135C137.534 86.9752 137.826 87.5051 138.011 88.0752Z" fill="black"/>
<path d="M144.544 67.2075C144.544 67.2075 145.468 73.73 145.533 74.2601C145.597 74.7902 145.93 81.1766 145.533 81.9037C145.135 82.6308 144.544 83.8128 144.544 83.8128C144.544 83.8128 145.203 85.1954 142.567 85.7255C139.931 86.2556 136.836 87.8316 136.836 87.8316C136.836 87.8316 130.113 87.6346 126.359 86.252C122.606 84.8694 117.992 85.1309 117.992 85.1309C117.992 85.1309 98.0238 81.7031 106.591 77.5196C115.159 73.336 121.22 79.0024 121.22 79.0024L130.772 78.4114C130.772 78.4114 134.333 76.2337 135.321 76.4343C136.019 76.5231 136.728 76.4087 137.363 76.1047L137.431 69.1847L144.544 67.2075Z" fill="#FBBEBE"/>
<path opacity="0.1" d="M96.1038 51.1969L94.1911 51.0966L88.3958 73.662C88.3958 73.662 94.6532 72.0788 97.3503 73.662C100.047 75.2451 104.994 75.5711 104.994 75.5711L103.149 57.5832L96.1038 51.1969Z" fill="black"/>
<path d="M96.1038 50.7993L94.1911 50.699L88.3958 73.2644C88.3958 73.2644 94.6532 71.6812 97.3503 73.2644C100.047 74.8475 104.994 75.1735 104.994 75.1735L103.149 57.1856L96.1038 50.7993Z" fill="#7950B7"/>
<path opacity="0.1" d="M139.935 55.7422L142.567 56.3367C142.567 56.3367 149.29 66.0076 149.817 66.5485C150.343 67.0893 147.31 69.0557 146.059 69.0557C144.809 69.0557 138.681 69.7721 136.901 71.4269C135.121 73.0817 135.862 64.754 135.862 64.5641C135.862 64.3743 138.072 59.1198 138.072 59.1198L139.935 55.7422Z" fill="black"/>
<path d="M139.935 55.3482L142.567 55.9392C142.567 55.9392 149.29 65.628 149.817 66.1545C150.343 66.681 147.31 68.6618 146.059 68.6618C144.809 68.6618 138.681 69.3781 136.901 71.0329C135.121 72.6877 135.862 64.36 135.862 64.1702C135.862 63.9803 138.086 58.7079 138.086 58.7079L139.935 55.3482Z" fill="#7950B7"/>
<g opacity="0.1">
<path d="M122.212 18.4413C122.196 18.1666 122.202 17.8912 122.23 17.6175C121.684 18.4358 121.309 19.3554 121.126 20.3217V21.1527C121.126 21.1527 121.126 21.1348 121.126 21.1241V21.321C121.126 21.9013 121.126 22.4851 121.108 23.0654H121.058V23.334C121.058 23.2409 121.058 23.1514 121.04 23.0582C120.324 22.9436 119.812 22.3419 119.278 21.8619C118.744 21.3819 117.91 20.9235 117.258 21.2924C116.946 21.5041 116.698 21.7979 116.542 22.1413L115.478 24.0181C115.473 23.8207 115.426 23.6264 115.34 23.4485C115.255 23.2706 115.132 23.1131 114.98 22.9866C114.01 23.4111 113.187 24.1145 112.618 25.0074C112.048 25.9003 111.757 26.9423 111.781 28.0011C110.803 27.3879 109.984 26.5507 109.393 25.5585C108.802 24.5664 108.456 23.4478 108.382 22.2953C108.32 23.5822 108.602 24.8625 109.2 26.004C109.797 27.1455 110.688 28.1069 111.781 28.7891C111.758 27.7305 112.05 26.6889 112.619 25.7961C113.189 24.9034 114.01 24.1999 114.98 23.7746C115.131 23.9021 115.254 24.0603 115.34 24.2388C115.426 24.4172 115.473 24.6118 115.478 24.8097L116.531 22.9329C116.687 22.5894 116.935 22.2957 117.247 22.084C117.899 21.7258 118.712 22.1484 119.267 22.6535C119.823 23.1585 120.363 23.7853 121.108 23.8677C121.108 22.9508 121.118 22.0362 121.137 21.1241C121.313 20.1671 121.678 19.2549 122.212 18.4413Z" fill="black"/>
<path d="M121.001 22.0482C121.019 21.8046 121.047 21.561 121.083 21.3318L121.123 20.3432C121.015 20.9047 120.974 21.477 121.001 22.0482Z" fill="black"/>
<path d="M131.868 26.3213C130.89 26.8442 129.644 26.4072 128.813 25.6766C127.982 24.9459 127.42 23.9609 126.685 23.1299C126.631 23.2803 126.623 23.4435 126.664 23.5983C126.704 23.753 126.79 23.8919 126.911 23.9967C126.839 23.9967 126.771 23.9609 126.703 23.943C127.42 24.7668 127.989 25.7339 128.813 26.4502C129.637 27.1666 130.89 27.6179 131.868 27.0949C132.846 26.572 133.125 25.347 133.039 24.1543C132.975 25.0927 132.638 25.9058 131.868 26.3213Z" fill="black"/>
<path d="M126.682 23.9358C125.484 23.6094 124.414 22.9246 123.617 21.9733C122.819 21.022 122.331 19.8496 122.219 18.6132C122.015 21.425 124.135 24.2438 126.911 24.7847C126.793 24.682 126.708 24.5464 126.667 24.3952C126.626 24.244 126.631 24.0841 126.682 23.9358Z" fill="black"/>
</g>
<path opacity="0.1" d="M198.464 64.6495H188.277V74.8362H198.464V64.6495Z" fill="#7950B7"/>
<path opacity="0.1" d="M198.464 89.7759H188.277V99.9626H198.464V89.7759Z" fill="#7950B7"/>
<path opacity="0.1" d="M198.464 114.899H188.277V125.085H198.464V114.899Z" fill="#7950B7"/>
<path opacity="0.1" d="M198.464 140.025H188.277V150.212H198.464V140.025Z" fill="#7950B7"/>
<path opacity="0.1" d="M198.464 165.151H188.277V175.338H198.464V165.151Z" fill="#7950B7"/>
<path opacity="0.1" d="M188.277 196.843V190.274H198.46V195.908L188.277 196.843Z" fill="#7950B7"/>
<path d="M226.681 132.521L225.907 135.816C225.907 135.816 219.71 132.647 218.596 128.635C217.483 124.623 220.463 123.094 220.463 123.094L226.24 125.537L226.681 132.521Z" fill="white"/>
<path opacity="0.1" d="M226.681 132.521L225.907 135.816C225.907 135.816 219.71 132.647 218.596 128.635C217.483 124.623 220.463 123.094 220.463 123.094L226.24 125.537L226.681 132.521Z" fill="black"/>
<path d="M191.905 244.671C191.905 244.671 186.174 246.777 182.234 247.042C180.142 247.182 179.043 245.9 178.477 244.664C178.169 243.982 177.969 243.258 177.882 242.515L178.402 236.838L178.674 233.818L187.045 231.641L188.23 235.269L188.341 235.541C188.814 236.755 190.727 241.677 190.669 242.705C190.665 242.971 190.714 243.235 190.814 243.481C190.915 243.727 191.064 243.951 191.253 244.138C191.447 244.342 191.666 244.522 191.905 244.671Z" fill="#383838"/>
<path d="M231.033 241.784C231.047 241.958 231.031 242.133 230.983 242.3C230.983 242.3 218.726 244.342 216.218 242.3C215.514 241.704 214.692 241.261 213.806 241C212.921 240.739 211.99 240.666 211.075 240.785C211.075 240.785 206.333 240.914 205.541 239.352C205.211 238.697 205.297 237.425 205.502 236.175C205.71 234.999 205.988 233.837 206.333 232.694L206.522 232.543L207.651 231.637L220.86 231.247H220.961C220.896 233.947 225.442 237.045 225.442 237.045C230.281 238.836 230.993 240.86 231.033 241.784Z" fill="#383838"/>
<path opacity="0.1" d="M231.037 241.784C231.049 241.958 231.031 242.132 230.983 242.3C230.983 242.3 218.726 244.342 216.222 242.3C215.517 241.703 214.695 241.26 213.809 240.999C212.922 240.738 211.991 240.665 211.075 240.785C211.075 240.785 206.329 240.914 205.538 239.352C205.212 238.697 205.294 237.425 205.498 236.171C207.325 236.354 210.208 236.809 211.34 237.898C213.052 239.545 215.954 241.193 217.73 241.326C219.134 241.412 227.483 241.677 231.037 241.784Z" fill="white"/>
<path opacity="0.1" d="M191.905 244.671C191.905 244.671 186.174 246.777 182.234 247.042C180.142 247.182 179.043 245.9 178.477 244.664C179.938 245.155 181.962 245.667 183.026 245.198C184.286 244.635 188.757 244.277 191.264 244.123C191.453 244.333 191.668 244.517 191.905 244.671Z" fill="white"/>
<path d="M200.408 74.9329C195.68 73.0955 189.598 67.0243 191.117 64.1875C191.452 63.4711 191.653 62.6988 191.708 61.9095C191.806 60.8377 191.82 59.7599 191.751 58.6859C191.644 56.9257 191.432 55.1735 191.117 53.4385C191.117 53.4385 205.877 53.7716 205.018 55.9458C204.767 56.5869 204.724 57.6937 204.796 58.9294C204.867 60.1652 205.043 61.5728 205.229 62.7584C205.483 64.3809 205.745 65.6238 205.745 65.6238C205.745 65.6238 204.839 66.8882 204.312 66.9563C203.786 67.0243 207.192 77.5656 200.408 74.9329Z" fill="#FFB8B8"/>
<path opacity="0.1" d="M188.327 235.523L188.216 235.645C183.803 230.308 178.466 236.963 178.466 236.963L178.387 236.82L178.659 233.8L187.03 231.623L188.216 235.251L188.327 235.523Z" fill="black"/>
<path opacity="0.1" d="M220.968 231.623C220.968 231.623 217.744 231.558 216.025 233.077C214.305 234.596 205.996 233.403 206.354 233.077C206.458 232.911 206.522 232.724 206.54 232.529L207.668 231.623L220.878 231.232C220.928 231.483 220.968 231.623 220.968 231.623Z" fill="black"/>
<path d="M193.818 189.712C193.578 190.306 193.396 190.921 193.273 191.549C192.974 193.271 192.891 195.023 193.026 196.764C193.158 199.272 193.026 216.074 193.026 216.074C193.026 216.074 190.193 220.555 188.61 222.134C187.026 223.714 191.833 226.551 191.833 226.551C192.55 230.638 188.208 235.251 188.208 235.251C183.796 229.914 178.459 236.565 178.459 236.565C178.459 236.565 175.557 231.551 174.834 229.76C174.11 227.969 177.667 226.733 178.917 226.003C180.167 225.272 178.853 220.988 178.853 220.988C178.853 220.988 177.8 217.231 176.546 213.803C175.292 210.375 177.929 193.315 177.929 193.315C177.929 193.315 178.065 190.281 178.391 189.225C178.553 188.462 178.586 187.677 178.487 186.904C178.466 186.642 178.441 186.427 178.423 186.277C178.405 186.126 178.391 186.062 178.391 186.062L178.441 185.976L180.232 182.638C180.232 182.638 194.677 187.609 193.818 189.712Z" fill="#7950B7"/>
<path d="M220.968 231.229C220.968 231.229 217.744 231.161 216.025 232.661C214.306 234.162 205.996 232.991 206.354 232.661C206.712 232.332 206.68 229.896 206.68 229.896C201.805 223.238 205.964 220.537 205.964 220.537C205.964 220.537 203.79 210.06 203.396 206.174C203.12 203.462 202.779 196.145 202.597 192.001C202.518 190.21 202.471 188.974 202.471 188.974L206.419 188.19L206.931 188.089L216.537 186.159C216.537 186.159 216.802 187.95 216.981 189.415C217.072 190.04 217.121 190.67 217.128 191.302C217.067 192.019 217.128 194.264 217.128 194.264L217.458 200.984C217.245 201.689 217.134 202.421 217.128 203.158C217.196 204.018 218.446 216.271 218.446 216.271C218.446 216.271 220.62 223.585 219.879 224.112C219.138 224.638 220.968 231.229 220.968 231.229Z" fill="#7950B7"/>
<path opacity="0.1" d="M205.018 55.9565C204.767 56.5977 204.724 57.7045 204.796 58.9402C202.819 60.1308 200.546 60.7395 198.239 60.6964C195.931 60.6533 193.682 59.9602 191.751 58.6966C191.645 56.9364 191.433 55.1842 191.117 53.4493C191.117 53.4493 205.878 53.7824 205.018 55.9565Z" fill="black"/>
<path d="M210.717 48.0479C210.756 51.2977 209.502 54.4299 207.232 56.7553C204.961 59.0808 201.86 60.4092 198.61 60.4481C195.36 60.4871 192.228 59.2334 189.903 56.963C187.577 54.6926 186.249 51.5914 186.21 48.3416C186.21 48.2413 186.21 48.1482 186.21 48.0479C186.21 44.7972 187.501 41.6795 189.8 39.3809C192.099 37.0823 195.216 35.791 198.467 35.791C201.718 35.791 204.835 37.0823 207.134 39.3809C209.432 41.6795 210.724 44.7972 210.724 48.0479H210.717Z" fill="#FFB8B8"/>
<path opacity="0.1" d="M200.408 74.9329C195.68 73.0954 189.598 67.0243 191.117 64.1875C191.452 63.471 191.653 62.6987 191.708 61.9095L198.18 67.232L202.185 70.5165L205.229 62.7691C205.483 64.3917 205.745 65.6345 205.745 65.6345C205.745 65.6345 204.839 66.8989 204.312 66.967C203.786 67.035 207.192 77.5655 200.408 74.9329Z" fill="black"/>
<path d="M217.146 98.4546L211.741 189.253L204.692 189.715L186.436 137.067L189.43 74.5604L190.064 61.3543L198.18 68.02L202.185 71.3045L205.319 63.3279L211.146 68.4069L217.146 98.4546Z" fill="#7950B7"/>
<path opacity="0.1" d="M193.818 189.712C193.578 190.306 193.396 190.921 193.274 191.549C188.14 190.759 183.153 189.202 178.481 186.932L178.384 186.882L178.416 186.306V186.005L180.207 182.666C180.207 182.666 194.678 187.609 193.818 189.712Z" fill="black"/>
<path opacity="0.1" d="M206.537 191.564C205.225 191.788 203.903 191.94 202.575 192.019C202.496 190.228 202.45 188.992 202.45 188.992L206.418 188.19L206.537 191.564Z" fill="black"/>
<path opacity="0.1" d="M216.996 189.415C214.449 190.077 210.513 190.822 206.995 190.357L206.945 188.089L216.551 186.159C216.551 186.159 216.806 187.935 216.996 189.415Z" fill="black"/>
<path opacity="0.1" d="M206.931 190.772C192.246 193.279 178.796 186.091 178.796 186.091L178.925 183.655C178.925 183.655 179.258 156.043 178.334 153.926C177.41 151.809 176.69 141.089 177.213 139.452C177.736 137.815 175.304 113.101 175.304 113.101L174.91 103.072L160.479 97.2082L166.926 83.7657C167.797 81.8814 168.546 79.9432 169.168 77.9631C170.289 74.4709 175.494 71.0431 175.494 71.0431C175.494 71.0431 180.831 67.6189 182.94 67.7478C185.05 67.8768 187.815 64.7176 187.815 64.7176C189.857 59.5133 191.705 61.8522 191.705 61.8522C191.705 62.1029 191.705 61.8522 191.605 62.6223C190.888 68.3352 203.188 86.3875 203.364 86.7099L204.549 115.243L205.735 151.351L206.931 190.772Z" fill="black"/>
<path d="M206.537 190.772C191.851 193.279 178.398 186.091 178.398 186.091L178.531 183.655C178.531 183.655 178.86 156.043 177.936 153.926C177.012 151.809 176.292 141.078 176.818 139.427C177.345 137.776 174.899 113.086 174.899 113.086L174.501 103.057L160.073 97.1938L166.521 83.7513C167.389 81.8674 168.138 79.9306 168.763 77.9524C169.884 74.4709 175.106 71.0395 175.106 71.0395C175.106 71.0395 180.443 67.6153 182.549 67.7442C184.655 67.8732 187.435 64.7176 187.435 64.7176C189.48 59.5133 191.733 61.8522 191.733 61.8522C191.733 62.1029 191.518 62.2104 191.633 62.6223C193.209 68.1633 202.822 86.3875 202.998 86.7099L204.183 115.243L205.344 151.369L206.537 190.772Z" fill="white"/>
<path opacity="0.1" d="M202.578 87.5158C200.999 86.8567 192.632 77.304 192.632 77.304V75.1299C192.327 74.4135 190.515 74.8505 189.05 75.352L189.68 62.1458L190.397 62.7404C191.962 68.2779 202.406 87.197 202.578 87.5158Z" fill="black"/>
<path d="M202.976 86.7278C201.393 86.0652 193.026 76.5161 193.026 76.5161V74.3384C192.721 73.622 190.913 74.059 189.444 74.5604L190.064 61.3687L190.78 61.9596C192.36 67.49 202.801 86.4055 202.976 86.7278Z" fill="white"/>
<path opacity="0.1" d="M178.796 134.366C178.993 134.366 189.008 133.313 189.008 133.313C189.008 133.313 195.072 145.24 194.674 148.138C194.276 151.036 193.557 153.607 191.117 153.152C188.678 152.698 177.99 153.511 177.99 153.511L178.796 134.366Z" fill="black"/>
<path d="M178.398 133.574C178.599 133.574 188.613 132.521 188.613 132.521C188.613 132.521 194.674 144.466 194.28 147.332C193.886 150.197 193.159 152.801 190.723 152.346C188.287 151.892 177.592 152.705 177.592 152.705L178.398 133.574Z" fill="white"/>
<path d="M185.945 127.99C185.945 127.99 195.136 132.933 195.333 134.437C195.53 135.942 190.655 133.778 189.602 133.513C188.908 133.349 188.203 133.238 187.492 133.184L180.468 133.374L185.945 127.99Z" fill="#FFB8B8"/>
<path opacity="0.1" d="M200.011 88.1319C200.545 88.1319 200.978 87.6989 200.978 87.1648C200.978 86.6307 200.545 86.1977 200.011 86.1977C199.476 86.1977 199.043 86.6307 199.043 87.1648C199.043 87.6989 199.476 88.1319 200.011 88.1319Z" fill="black"/>
<path d="M200.011 87.7379C200.545 87.7379 200.978 87.3049 200.978 86.7708C200.978 86.2367 200.545 85.8037 200.011 85.8037C199.476 85.8037 199.043 86.2367 199.043 86.7708C199.043 87.3049 199.476 87.7379 200.011 87.7379Z" fill="#3F3D56"/>
<path opacity="0.1" d="M201.791 129.996C202.325 129.996 202.758 129.563 202.758 129.029C202.758 128.495 202.325 128.062 201.791 128.062C201.257 128.062 200.824 128.495 200.824 129.029C200.824 129.563 201.257 129.996 201.791 129.996Z" fill="black"/>
<path d="M201.791 129.598C202.325 129.598 202.758 129.165 202.758 128.631C202.758 128.097 202.325 127.664 201.791 127.664C201.257 127.664 200.824 128.097 200.824 128.631C200.824 129.165 201.257 129.598 201.791 129.598Z" fill="#3F3D56"/>
<path opacity="0.1" d="M200.978 109.064C201.512 109.064 201.945 108.631 201.945 108.097C201.945 107.563 201.512 107.13 200.978 107.13C200.443 107.13 200.01 107.563 200.01 108.097C200.01 108.631 200.443 109.064 200.978 109.064Z" fill="black"/>
<path d="M200.978 108.67C201.512 108.67 201.945 108.237 201.945 107.703C201.945 107.169 201.512 106.736 200.978 106.736C200.443 106.736 200.01 107.169 200.01 107.703C200.01 108.237 200.443 108.67 200.978 108.67Z" fill="#3F3D56"/>
<path d="M223.271 132.983C223.271 132.983 223.93 133.972 223.271 134.416C222.612 134.86 223.336 135.999 223.336 135.999C223.336 135.999 221.691 136.959 222.415 137.829C223.139 138.7 222.68 142.608 222.68 142.608L220.703 145.899C220.703 145.899 220.821 148.009 220.828 150.86C220.828 155.309 220.567 161.562 219.12 164.414L219.313 187.806C219.313 187.806 212.39 190.339 206.594 189.565L205.735 152.028C205.735 152.028 206.988 130.741 207.45 126.658C207.721 124.538 207.831 122.401 207.78 120.264C207.78 120.264 207.583 113.874 206.92 110.912C206.92 110.912 206.204 98.0606 206.132 94.5039C206.1 92.8025 206.189 87.8382 206.29 83.1173C206.401 77.956 206.526 73.0883 206.526 73.0883L205.219 62.7404C205.219 62.7404 206.526 62.6115 206.92 63.1344C207.097 63.2993 207.288 63.4468 207.493 63.575C209.753 65.1009 217.726 69.793 217.726 69.793C217.726 69.793 222.139 71.5481 223.196 74.0625C224.252 76.577 224.987 78.3607 225.499 79.0771C226.011 79.7934 226.29 83.1603 226.29 83.1603C226.29 83.1603 227.809 89.3569 228.995 90.4063C230.18 91.4558 231.033 98.1179 231.033 98.1179L220.556 106.356C220.556 106.356 219.636 120.06 219.439 120.59C219.242 121.12 223.271 132.983 223.271 132.983Z" fill="white"/>
<path d="M223.668 132.983C223.668 132.983 224.324 133.972 223.668 134.416C223.013 134.86 223.729 135.999 223.729 135.999C223.729 135.999 222.085 136.959 222.809 137.829C223.532 138.7 223.074 142.608 223.074 142.608L221.104 145.899C221.104 145.899 221.222 148.009 221.233 150.86C221.233 155.309 220.971 161.562 219.524 164.414L219.721 187.806C219.721 187.806 212.798 190.339 207.002 189.565L206.146 152.028C206.146 152.028 207.396 130.741 207.862 126.658C208.133 124.538 208.242 122.401 208.188 120.264C208.188 120.264 207.991 113.874 207.332 110.912C207.332 110.912 206.615 98.0606 206.54 94.5039C206.508 92.8025 206.598 87.8381 206.698 83.1173C206.809 77.9559 206.934 73.0883 206.934 73.0883L205.208 62.6007C205.208 62.6007 206.934 62.6007 207.332 63.1344C207.507 63.3012 207.699 63.4489 207.905 63.575C210.161 65.1008 218.135 69.793 218.135 69.793C218.135 69.793 222.537 71.5481 223.611 74.0625C224.686 76.5769 225.402 78.3607 225.914 79.077C226.426 79.7934 226.706 83.1603 226.706 83.1603C226.706 83.1603 228.224 89.3568 229.41 90.4063C230.596 91.4558 231.452 98.1179 231.452 98.1179L220.975 106.356C220.975 106.356 220.054 120.06 219.854 120.59C219.653 121.12 223.668 132.983 223.668 132.983Z" fill="white"/>
<path opacity="0.1" d="M211.121 76.1292L212.07 78.8872L207.088 83.9018C207.199 78.7404 207.324 73.8727 207.324 73.8727L205.598 63.3888C205.598 63.3888 207.324 63.3888 207.722 63.9224C207.897 64.0893 208.089 64.2369 208.295 64.363L212.529 76.5734L211.121 76.1292Z" fill="black"/>
<path d="M210.717 75.3376L211.666 78.092L206.687 83.1066C206.795 77.9452 206.924 73.0775 206.924 73.0775L205.194 62.59C205.194 62.59 206.924 62.59 207.318 63.1237C207.493 63.2895 207.685 63.4371 207.891 63.5642L212.149 75.7854L210.717 75.3376Z" fill="white"/>
<path opacity="0.1" d="M210.717 48.0479C210.718 49.3385 210.515 50.6212 210.115 51.8482C210.048 51.8595 209.978 51.857 209.912 51.841C209.846 51.825 209.783 51.7958 209.728 51.7551C209.631 48.5314 208.048 45.5012 206.096 42.9259C205.547 42.1491 204.883 41.4607 204.126 40.8843C203.36 40.3094 202.408 40.04 201.454 40.1285C200.38 40.2754 199.43 41.0061 198.345 41.0992C196.912 41.2174 195.63 40.2252 194.208 40.1787C193.63 40.1835 193.059 40.3119 192.535 40.5553C192.01 40.7987 191.544 41.1514 191.167 41.5899C190.419 42.4718 189.864 43.5003 189.537 44.6094C188.974 46.2922 188.668 48.0503 188.628 49.8245C188.61 50.8274 188.513 52.0846 187.582 52.4499C187.652 51.7129 187.569 50.9692 187.336 50.2663C187.104 49.5633 186.727 48.9164 186.231 48.3667L186.21 48.3416C186.21 48.2413 186.21 48.1482 186.21 48.0479C186.21 44.7972 187.501 41.6795 189.8 39.3809C192.099 37.0823 195.216 35.791 198.467 35.791C201.718 35.791 204.835 37.0823 207.134 39.3809C209.432 41.6795 210.724 44.7972 210.724 48.0479H210.717Z" fill="black"/>
<path d="M203.553 28.5879C201.692 27.7124 199.575 27.5468 197.601 28.1223C196.608 28.416 195.674 28.8924 194.667 29.1323C192.518 29.6517 190.011 29.0894 188.166 30.3466C187.142 31.0629 186.526 32.1948 185.952 33.298L184.52 36.0237C183.739 37.5174 182.951 39.036 182.625 40.6801C182.299 42.3241 182.496 44.1652 183.538 45.4905C184.294 46.4504 185.419 47.0557 186.243 47.9619C186.738 48.5144 187.113 49.1633 187.345 49.8679C187.576 50.5725 187.66 51.3175 187.589 52.0559C188.521 51.6977 188.614 50.4334 188.635 49.4304C188.675 47.6563 188.982 45.8983 189.545 44.2153C189.872 43.1063 190.427 42.0778 191.175 41.1959C191.552 40.7569 192.018 40.4036 192.542 40.1596C193.067 39.9156 193.637 39.7865 194.216 39.7811C195.648 39.8312 196.934 40.8234 198.353 40.7016C199.427 40.612 200.38 39.8813 201.462 39.7345C202.415 39.6442 203.369 39.9138 204.134 40.4902C204.891 41.0648 205.554 41.7536 206.1 42.5319C208.056 45.1108 209.643 48.1267 209.736 51.361C210.14 51.6547 210.724 51.2679 210.925 50.8094C211.125 50.351 211.133 49.8137 211.387 49.3767C211.681 48.8717 212.243 48.5995 212.684 48.2198C213.801 47.2563 214.08 45.6337 214.037 44.1616C213.994 42.6895 213.708 41.1959 213.987 39.7488C214.156 38.8641 214.535 38.0296 214.743 37.152C214.951 36.2745 214.976 35.2895 214.485 34.5337C213.769 33.4269 212.261 33.2049 210.946 33.101C209.453 32.972 208.117 33.1368 207.164 31.8796C206.716 31.2244 206.212 30.6085 205.66 30.0385C205.463 29.8487 203.553 28.6667 203.553 28.5879Z" fill="#512E4E"/>
<path opacity="0.1" d="M164.612 104.121L160.872 97.2046L159.687 107.878C159.687 107.878 160.346 112.621 160.213 113.348C160.081 114.075 162.914 120.594 162.914 120.594C162.914 120.594 172.273 137.267 176.095 138.123L188.99 128.896L185.565 124.548C185.565 124.548 184.38 124.086 184.082 124.548C184.082 124.548 177.721 113.609 177.066 112.821C176.41 112.033 176.536 110.446 176.536 110.446C176.536 110.446 175.547 109.393 175.877 108.405C176.206 107.416 173.985 103.992 173.985 103.992L176.027 102.083L164.612 104.121Z" fill="black"/>
<path d="M161.069 96.413L160.081 97.2046L158.895 107.878C158.895 107.878 159.554 112.621 159.422 113.348C159.289 114.075 162.126 120.594 162.126 120.594C162.126 120.594 171.481 137.267 175.303 138.123L188.219 128.896L184.791 124.548C184.791 124.548 183.606 124.086 183.309 124.548C183.309 124.548 176.951 113.609 176.292 112.821C175.633 112.033 175.765 110.447 175.765 110.447C175.765 110.447 174.777 109.393 175.106 108.405C175.436 107.416 173.194 103.992 173.194 103.992L175.235 102.083L161.069 96.413Z" fill="white"/>
<path opacity="0.1" d="M222.414 138.241C223.131 139.112 222.679 143.023 222.679 143.023L220.702 146.293C220.702 146.293 220.82 148.406 220.828 151.258L217.504 152.296C217.203 152.39 216.884 152.411 216.574 152.356C216.263 152.302 215.97 152.174 215.719 151.983C215.468 151.792 215.267 151.544 215.131 151.26C214.995 150.976 214.929 150.663 214.939 150.348L215.516 131.866L223.27 134.828C222.611 135.286 223.335 136.411 223.335 136.411C223.335 136.411 221.691 137.371 222.414 138.241Z" fill="black"/>
<path d="M222.809 137.847C223.525 138.714 223.074 142.626 223.074 142.626L221.104 145.899C221.104 145.899 221.222 148.009 221.233 150.86L217.848 151.917C217.554 152.009 217.242 152.029 216.939 151.976C216.635 151.924 216.349 151.799 216.103 151.613C215.858 151.427 215.661 151.184 215.528 150.906C215.395 150.628 215.331 150.323 215.341 150.015L215.917 131.468L223.668 134.438C223.006 134.896 223.729 136.021 223.729 136.021C223.729 136.021 222.085 136.977 222.809 137.847Z" fill="white"/>
<path d="M225.381 129.029C225.381 129.029 224.854 132.392 223.536 132.589C222.218 132.786 221.627 138.03 220.312 137.847C218.998 137.665 219.868 132.969 219.915 132.059C219.961 131.149 218.482 127.381 219.585 126.525C220.688 125.669 224.199 126.525 224.199 126.525L225.381 129.029Z" fill="#FFB8B8"/>
<path opacity="0.1" d="M228.167 103.132L230.65 98.1179C230.65 98.1179 231.642 101.94 231.642 103.981C231.642 106.023 233.024 106.224 233.024 106.224C233.024 106.224 234.54 108.014 233.741 109.322C232.942 110.629 232.623 113.867 232.623 113.867C232.623 113.867 232.885 120.06 231.699 120.916C230.514 121.772 230.248 123.817 230.248 123.817C230.248 123.817 228.074 127.704 228.142 128.628C228.21 129.552 225.112 135.809 225.112 135.809C225.112 135.809 226.627 128.033 217.798 124.673C217.798 124.673 217.73 122.037 218.389 121.314C219.048 120.59 220.076 120.239 219.431 116.6C218.787 112.961 219.245 108.573 219.245 107.696C219.245 106.818 221.222 101.349 221.222 101.349L228.167 103.132Z" fill="black"/>
<path d="M229.271 97.4016L231.441 98.1179C231.441 98.1179 232.433 101.94 232.433 103.981C232.433 106.023 233.816 106.224 233.816 106.224C233.816 106.224 235.331 108.014 234.532 109.322C233.734 110.629 233.411 113.867 233.411 113.867C233.411 113.867 233.676 120.06 232.491 120.916C231.305 121.772 231.058 123.817 231.058 123.817C231.058 123.817 228.884 127.704 228.952 128.628C229.02 129.552 225.918 135.809 225.918 135.809C225.918 135.809 227.433 128.033 218.604 124.673C218.604 124.673 218.54 122.037 219.199 121.314C219.858 120.59 220.886 120.239 220.241 116.6C219.596 112.961 220.055 108.573 220.055 107.696C220.055 106.818 222.032 101.349 222.032 101.349L229.271 97.4016Z" fill="white"/>
<path opacity="0.1" d="M181.317 227.375C181.317 227.375 184.777 225.201 187.048 226.78C189.319 228.36 181.317 227.375 181.317 227.375Z" fill="black"/>
<path opacity="0.1" d="M208.209 220.651C208.209 220.651 211.271 220.257 213.843 223.026C216.415 225.795 208.209 220.651 208.209 220.651Z" fill="black"/>
<g opacity="0.1">
<path d="M212.683 47.4318C212.242 47.8151 211.676 48.0837 211.382 48.5887C211.132 49.0221 211.125 49.5594 210.924 50.0215C210.723 50.4835 210.14 50.8668 209.731 50.5731C209.638 47.3494 208.051 44.3228 206.099 41.7439C205.553 40.9667 204.89 40.2791 204.133 39.7059C203.367 39.1282 202.413 38.8574 201.457 38.9465C200.383 39.0934 199.437 39.8241 198.352 39.9172C196.919 40.0354 195.633 39.0432 194.211 38.9967C193.634 39.001 193.063 39.1293 192.539 39.3727C192.016 39.6162 191.55 39.9692 191.174 40.4079C190.426 41.2898 189.871 42.3183 189.544 43.4274C188.981 45.1103 188.675 46.8683 188.634 48.6425C188.613 49.6418 188.52 50.8883 187.596 51.2608C187.617 51.5266 187.617 51.7937 187.596 52.0595C188.531 51.7013 188.624 50.4369 188.645 49.434C188.685 47.6599 188.992 45.9019 189.555 44.2189C189.882 43.1099 190.437 42.0814 191.185 41.1995C191.561 40.7608 192.027 40.4076 192.55 40.1636C193.074 39.9196 193.644 39.7904 194.222 39.7847C195.655 39.8348 196.944 40.827 198.363 40.7052C199.437 40.6156 200.39 39.8849 201.468 39.7381C202.423 39.648 203.377 39.9175 204.144 40.4939C204.901 41.0684 205.564 41.7572 206.11 42.5355C208.062 45.1144 209.649 48.1303 209.742 51.3646C210.15 51.6583 210.734 51.2715 210.935 50.813C211.135 50.3546 211.142 49.8173 211.393 49.3803C211.687 48.8753 212.253 48.6031 212.693 48.2234C213.811 47.2599 214.09 45.6373 214.047 44.1652C214.047 44.1186 214.047 44.0757 214.047 44.0291C213.976 45.3114 213.635 46.6116 212.683 47.4318Z" fill="black"/>
<path d="M186.238 47.1811C185.418 46.2749 184.293 45.666 183.537 44.706C182.899 43.8587 182.535 42.8363 182.495 41.7761C182.383 43.1017 182.753 44.4233 183.537 45.4976C184.293 46.4575 185.418 47.0629 186.238 47.9691C187.03 48.855 187.506 49.9786 187.592 51.164C187.646 50.4432 187.554 49.7189 187.321 49.0345C187.088 48.3502 186.72 47.7198 186.238 47.1811Z" fill="black"/>
<path d="M214.742 36.364C214.531 37.2416 214.155 38.0761 213.983 38.9609C213.88 39.5591 213.842 40.1669 213.872 40.7732C213.884 40.4307 213.921 40.0895 213.983 39.7524C214.155 38.8677 214.531 38.0332 214.742 37.1556C214.864 36.6713 214.904 36.1702 214.86 35.6728C214.837 35.9057 214.798 36.1367 214.742 36.364Z" fill="black"/>
</g>
<path opacity="0.1" d="M63.2717 127.557C63.5152 127.695 63.7614 127.822 64.0075 127.957V127.825H66.1249V129.018C66.2784 129.084 66.424 129.156 66.5748 129.225V127.825H68.6922V130.117C68.7325 130.135 68.7741 130.15 68.8166 130.162V127.557H63.2717Z" fill="#7950B7"/>
<path d="M57.6842 111.92H56.0247V149.284H57.6842V111.92Z" fill="#535461"/>
<path d="M68.1152 149.173L68.0093 150.856L67.8637 153.238L67.8029 154.228L67.6546 156.61L67.5911 157.6L67.4455 159.982L65.7702 186.997C65.6987 188.16 65.1866 189.251 64.3382 190.049C63.4898 190.847 62.3691 191.291 61.2046 191.29H52.5048C51.337 191.291 50.2134 190.845 49.3644 190.043C48.5154 189.241 48.0054 188.145 47.9392 186.979L46.2638 159.964L46.1182 157.582L46.0573 156.592L45.9065 154.21L45.8456 153.22L45.7 150.838L45.5942 149.155C45.5758 148.832 45.6234 148.509 45.7339 148.205C45.8443 147.902 46.0155 147.623 46.2368 147.388C46.4582 147.153 46.7251 146.965 47.0214 146.836C47.3177 146.707 47.6372 146.639 47.9603 146.638H65.7516C66.0762 146.639 66.397 146.708 66.6943 146.838C66.9916 146.968 67.2592 147.158 67.4805 147.395C67.7018 147.633 67.8723 147.913 67.9814 148.219C68.0906 148.524 68.1361 148.849 68.1152 149.173Z" fill="#3F3D56"/>
<path d="M68.0092 150.854L67.861 153.231H45.8455L45.6973 150.854H68.0092Z" fill="#9D9CB5"/>
<path d="M67.8 154.22L67.6544 156.597H46.0545L45.9062 154.22H67.8Z" fill="#9D9CB5"/>
<path d="M67.5913 157.59L67.4457 159.964H46.2639L46.1157 157.59H67.5913Z" fill="#9D9CB5"/>
<path d="M43.1748 125.927C52.8407 132.92 56.8663 143.856 56.8663 143.856C56.8663 143.856 45.2207 143.456 35.5522 136.463C25.8837 129.471 21.8528 118.542 21.8528 118.542C21.8528 118.542 33.4984 118.934 43.1748 125.927Z" fill="#7950B7"/>
<path d="M21.8528 118.542C21.8528 118.542 33.9404 125.252 37.8178 130.807C41.6953 136.363 56.8558 143.861 56.8558 143.861" stroke="#535461" stroke-width="0.764665" stroke-miterlimit="10"/>
<path d="M49.4026 111.841C54.6643 115.644 56.8558 121.597 56.8558 121.597C56.8558 121.597 50.5036 121.38 45.2552 117.576C40.0067 113.773 37.802 107.818 37.802 107.818C37.802 107.818 44.1436 108.035 49.4026 111.841Z" fill="#7950B7"/>
<path d="M37.802 107.818C37.802 107.818 44.3818 111.47 46.4939 114.493C48.6059 117.516 56.8558 121.597 56.8558 121.597" stroke="#535461" stroke-width="0.764665" stroke-miterlimit="10"/>
<path d="M64.4996 121.295C58.4571 127.936 57.1787 136.614 57.1787 136.614C57.1787 136.614 65.6985 134.523 71.7357 127.88C77.7729 121.237 79.0566 112.561 79.0566 112.561C79.0566 112.561 70.542 114.654 64.4996 121.295Z" fill="#7950B7"/>
<path d="M79.0619 112.564C79.0619 112.564 71.1905 119.371 69.1896 124.061C67.1886 128.751 57.1787 136.614 57.1787 136.614" stroke="#535461" stroke-width="0.764665" stroke-miterlimit="10"/>
<defs>
<linearGradient id="paint0_linear_96_1216" x1="118.841" y1="214.971" x2="118.841" y2="8.0683" gradientUnits="userSpaceOnUse">
<stop stop-color="#808080" stop-opacity="0.25"/>
<stop offset="0.54" stop-color="#808080" stop-opacity="0.12"/>
<stop offset="1" stop-color="#808080" stop-opacity="0.1"/>
</linearGradient>
</defs>
</svg>
