<svg width="271" height="249" viewBox="0 0 271 249" fill="none" xmlns="http://www.w3.org/2000/svg">
<path fill-rule="evenodd" clip-rule="evenodd" d="M226.457 122.308L226.873 123.627L227.404 124.931L228.048 126.224L228.803 127.513L229.668 128.803L230.638 130.101L231.709 131.411L232.876 132.74L234.131 134.092L235.466 135.472L236.874 136.885L238.344 138.336L239.866 139.826L241.428 141.36L243.019 142.939L244.63 144.566L246.248 146.241L247.865 147.964L249.471 149.737L251.058 151.559L252.618 153.428L254.143 155.345L255.627 157.307L257.065 159.312L258.453 161.361L259.786 163.449L261.059 165.576L262.27 167.739L263.415 169.936L264.49 172.164L265.493 174.42L266.42 176.702L267.268 179.007L268.036 181.331L268.719 183.672L269.316 186.026L269.825 188.389L270.241 190.758L270.565 193.129L270.792 195.498L270.923 197.861L270.953 200.213L270.884 202.552L270.712 204.872L270.438 207.169L270.061 209.438L269.58 211.677L268.996 213.88L268.308 216.043L267.518 218.163L266.627 220.235L265.635 222.255L264.545 224.221L263.358 226.128L262.077 227.973L260.704 229.753L259.242 231.466L257.693 233.108L256.062 234.677L254.351 236.171L252.565 237.587L250.705 238.925L248.778 240.181L246.785 241.356L244.732 242.447L242.622 243.454L240.46 244.376L238.25 245.213L235.995 245.963L233.7 246.628L231.369 247.206L229.006 247.698L226.615 248.105L224.201 248.427L221.767 248.665L219.318 248.82L216.857 248.893L214.388 248.886L211.915 248.8L209.443 248.637L206.974 248.399L204.513 248.089L202.063 247.71L199.628 247.264L197.211 246.754L194.816 246.185L192.446 245.56L190.105 244.882L187.794 244.156L185.518 243.387L183.278 242.579L181.077 241.737L178.917 240.867L176.802 239.975L174.732 239.068L172.711 238.153L170.74 237.239L168.82 236.332L166.953 235.44L165.137 234.57L163.374 233.73L161.663 232.925L160.002 232.163L158.39 231.449L156.825 230.789L155.305 230.187L153.828 229.648L152.39 229.177L150.989 228.776L149.62 228.448L148.28 228.195L146.966 228.018L145.673 227.917L144.398 227.894L143.135 227.945L141.882 228.071L140.634 228.267L139.387 228.531L138.138 228.859L136.884 229.246L135.62 229.686L134.344 230.174L133.054 230.704L131.747 231.268L130.422 231.86L129.077 232.47L127.711 233.093L126.324 233.719L124.916 234.341L123.488 234.951L122.039 235.54L120.572 236.1L119.088 236.625L117.589 237.107L116.079 237.54L114.558 237.916L113.031 238.23L111.501 238.476L109.972 238.651L108.446 238.749L106.927 238.768L105.42 238.705L103.928 238.558L102.455 238.325L101.004 238.007L99.5779 237.602L98.1811 237.113L96.816 236.54L95.4854 235.885L94.1917 235.151L92.9369 234.342L91.7227 233.46L90.5503 232.511L89.4207 231.499L88.3341 230.429L87.2904 229.306L86.289 228.137L85.3289 226.927L84.4083 225.684L83.5248 224.413L82.6749 223.123L81.8547 221.821L81.0595 220.515L80.2841 219.214L79.5228 217.924L78.7697 216.653L78.0188 215.407L77.2638 214.191L76.4986 213.011L75.7167 211.871L74.9117 210.774L74.077 209.725L73.2065 208.725L72.2938 207.777L71.3332 206.882L70.3191 206.04L69.2463 205.251L68.1102 204.513L66.9067 203.825L65.6322 203.185L64.2839 202.589L62.8596 202.033L61.3579 201.514L59.7781 201.026L58.1204 200.564L56.3858 200.123L54.576 199.696L52.6936 199.277L50.7423 198.86L46.6506 198.004L44.5214 197.551L42.3451 197.074L40.1293 196.566L37.8821 196.019L35.612 195.43L33.3284 194.791L31.041 194.098L28.76 193.346L26.4959 192.53L24.2595 191.648L22.0616 190.696L19.9134 189.671L17.8257 188.573L15.8095 187.399L13.8754 186.15L12.0337 184.826L10.2943 183.427L8.66649 181.956L7.1591 180.415L5.78009 178.806L4.53663 177.134L3.43502 175.403L2.48053 173.618L1.6774 171.783L1.02876 169.904L0.536547 167.987L0.201533 166.038L0.0232476 164.064L0 162.07L0.128894 160.064L0.405857 158.052L0.825701 156.04L1.3822 154.033L2.06821 152.038L2.87576 150.06L3.79627 148.103L4.82065 146.173L5.93934 144.272L7.14236 142.404L8.41949 140.573L9.76056 138.78L11.1556 137.026L12.5948 135.314L14.0689 133.643L15.5691 132.014L17.0874 130.426L18.6166 128.879L20.1502 127.373L21.683 125.905L23.2104 124.475L24.7282 123.082L26.2328 121.723L27.7208 120.398L29.1896 119.104L30.6369 117.839L32.0608 116.603L36.1772 113.042L37.4938 111.899L38.7812 110.774L40.0388 109.665L41.2662 108.572L42.4629 107.492L43.6287 106.422L44.7633 105.362L45.8668 104.308L46.9389 103.261L47.9797 102.216L48.9893 101.173L49.9679 100.129L50.9157 99.0834L51.833 98.0333L52.7203 96.9769L53.5779 95.9126L54.4064 94.8384L55.2064 93.7525L55.9788 92.6531L56.7243 91.5386L57.4438 90.4071L58.1384 89.2572L58.8091 88.0871L59.4571 86.8955L60.0839 85.6808L60.6906 84.4418L61.2789 83.1772L61.8502 81.8857L62.4062 80.5663L62.9486 79.218L63.4791 77.8398L63.9996 76.431L64.5118 74.9908L65.0177 73.5185L65.5193 72.0136L66.0184 70.4757L66.5172 68.9043L67.0174 67.2991L67.5213 65.66L68.0308 63.9869L69.6141 58.7641L70.1673 56.9564L70.7369 55.1163L71.3253 53.2448L71.9351 51.3431L72.5686 49.413L73.2288 47.4567L73.9184 45.4769L74.6406 43.4769L75.3983 41.4603L76.1942 39.4311L77.0312 37.3935L77.9117 35.352L78.8383 33.3113L79.8131 31.2766L80.8382 29.2532L81.9156 27.247L83.047 25.264L84.2339 23.3106L85.4774 21.3935L86.7786 19.5196L88.138 17.6958L89.5557 15.929L91.0314 14.2258L92.5646 12.5928L94.1542 11.0363L95.7986 9.56254L97.4962 8.1773L99.2447 6.88614L101.042 5.69424L102.884 4.60633L104.769 3.62666L106.692 2.75898L108.651 2.00641L110.64 1.37147L112.657 0.855996L114.696 0.461102L116.753 0.187184L118.824 0.0338661L120.903 0L122.988 0.0836708L125.072 0.282176L127.152 0.592072L129.224 1.00917L131.284 1.52859L133.327 2.14479L135.352 2.85162L137.355 3.64239L139.333 4.50989L141.284 5.44654L143.207 6.44439L145.1 7.49526L146.963 8.59077L148.796 9.72247L150.597 10.8819L152.369 12.0607L154.112 13.2506L155.828 14.4437L157.519 15.6324L159.186 16.8094L160.833 17.9681L162.462 19.1021L164.077 20.206L165.68 21.2746L167.275 22.3038L168.866 23.29L170.456 24.2302L172.049 25.1224L173.648 25.9654L175.256 26.7584L176.876 27.5018L178.512 28.1964L180.165 28.8439L181.838 29.4466L183.533 30.0076L185.251 30.5304L186.994 31.0194L188.76 31.4792L190.551 31.9154L192.366 32.3337L194.204 32.7402L196.062 33.1414L197.939 33.5441L199.832 33.9555L201.736 34.3832L203.646 34.8351L205.559 35.3188L207.468 35.8417L209.368 36.411L211.252 37.033L213.113 37.7136L214.947 38.4575L216.747 39.269L218.506 40.1518L220.219 41.1094L221.877 42.1447L223.476 43.2601L225.008 44.4575L226.466 45.7381L227.846 47.1025L229.14 48.5505L230.343 50.0813L231.451 51.6933L232.458 53.3843L233.362 55.1512L234.158 56.9905L234.845 58.8977L235.422 60.8681L235.886 62.8961L236.24 64.9759L236.484 67.1011L236.62 69.2649L236.651 71.4605L236.581 73.6806L236.415 75.9179L236.159 78.1652L235.819 80.4152L235.403 82.6608L234.919 84.8949L234.375 87.1112L233.781 89.3032L233.148 91.4653L232.484 93.592L231.8 95.6786L231.108 97.721L230.418 99.7157L229.741 101.66L229.088 103.551L228.469 105.388L227.895 107.171L227.375 108.898L226.919 110.572L226.535 112.193L226.232 113.763L226.017 115.285L225.896 116.762L225.876 118.199L225.96 119.599L226.153 120.967L226.457 122.308Z" fill="#F3EBFF"/>
<path d="M136 78.7751H134.825V46.5839C134.825 41.6426 132.862 36.9036 129.368 33.4096C125.874 29.9155 121.135 27.9526 116.194 27.9526H47.9927C45.546 27.9526 43.1233 28.4345 40.8628 29.3708C38.6024 30.3071 36.5484 31.6795 34.8184 33.4095C33.0883 35.1396 31.7159 37.1935 30.7796 39.454C29.8433 41.7144 29.3613 44.1372 29.3613 46.5839V223.187C29.3613 225.634 29.8432 228.057 30.7796 230.317C31.7159 232.577 33.0882 234.631 34.8183 236.361C36.5484 238.092 38.6023 239.464 40.8628 240.4C43.1232 241.337 45.546 241.818 47.9927 241.818H116.194C121.135 241.818 125.874 239.856 129.368 236.361C132.862 232.867 134.825 228.128 134.825 223.187V101.689H136L136 78.7751Z" fill="#DCC5FF"/>
<path d="M116.946 32.7998H108.043C108.453 33.8035 108.609 34.8925 108.498 35.9709C108.388 37.0492 108.013 38.0838 107.409 38.9835C106.804 39.8833 105.988 40.6205 105.031 41.1302C104.074 41.64 103.007 41.9066 101.923 41.9067H62.8512C61.7672 41.9066 60.6998 41.64 59.7432 41.1302C58.7865 40.6205 57.9698 39.8833 57.3652 38.9836C56.7605 38.0838 56.3864 37.0492 56.2758 35.9709C56.1652 34.8925 56.3215 33.8035 56.7309 32.7998H48.4159C44.7258 32.7998 41.1868 34.2657 38.5774 36.875C35.9681 39.4843 34.5022 43.0233 34.5022 46.7135V223.058C34.5022 224.885 34.8621 226.694 35.5613 228.382C36.2605 230.07 37.2854 231.604 38.5774 232.896C39.8694 234.188 41.4033 235.213 43.0914 235.912C44.7794 236.611 46.5887 236.971 48.4159 236.971H116.946C118.773 236.971 120.582 236.611 122.27 235.912C123.958 235.213 125.492 234.188 126.784 232.896C128.076 231.604 129.101 230.07 129.8 228.382C130.499 226.694 130.859 224.885 130.859 223.058V46.7135C130.859 44.8863 130.499 43.077 129.8 41.3889C129.101 39.7009 128.076 38.167 126.784 36.875C125.492 35.583 123.958 34.5581 122.27 33.8589C120.582 33.1597 118.773 32.7998 116.946 32.7998V32.7998Z" fill="white"/>
<path d="M124.227 81.5834H41.1014C40.6933 81.5829 40.302 81.4206 40.0134 81.132C39.7248 80.8434 39.5625 80.4522 39.562 80.044V59.4241C39.5625 59.016 39.7248 58.6247 40.0134 58.3361C40.302 58.0475 40.6933 57.8852 41.1014 57.8847H124.227C124.635 57.8852 125.026 58.0475 125.315 58.3361C125.604 58.6247 125.766 59.016 125.766 59.4241V80.044C125.766 80.4522 125.604 80.8434 125.315 81.132C125.026 81.4206 124.635 81.5829 124.227 81.5834ZM41.1014 58.5005C40.8565 58.5007 40.6217 58.5981 40.4486 58.7713C40.2754 58.9444 40.178 59.1792 40.1778 59.4241V80.044C40.178 80.2889 40.2754 80.5237 40.4486 80.6969C40.6217 80.87 40.8565 80.9674 41.1014 80.9677H124.227C124.472 80.9674 124.707 80.87 124.88 80.6969C125.053 80.5237 125.15 80.2889 125.151 80.044V59.4241C125.15 59.1792 125.053 58.9444 124.88 58.7713C124.707 58.5981 124.472 58.5007 124.227 58.5005H41.1014Z" fill="#7950B7"/>
<path d="M124.227 163.17H41.1014C40.6933 163.169 40.302 163.007 40.0134 162.718C39.7248 162.43 39.5625 162.038 39.562 161.63V123.462C39.5625 123.053 39.7248 122.662 40.0134 122.374C40.302 122.085 40.6933 121.923 41.1014 121.922H124.227C124.635 121.923 125.026 122.085 125.315 122.374C125.604 122.662 125.766 123.053 125.766 123.462V161.63C125.766 162.038 125.604 162.43 125.315 162.718C125.026 163.007 124.635 163.169 124.227 163.17ZM41.1014 122.538C40.8565 122.538 40.6217 122.636 40.4486 122.809C40.2754 122.982 40.178 123.217 40.1778 123.462V161.63C40.178 161.875 40.2754 162.11 40.4486 162.283C40.6217 162.456 40.8565 162.554 41.1014 162.554H124.227C124.472 162.554 124.707 162.456 124.88 162.283C125.053 162.11 125.15 161.875 125.151 161.63V123.462C125.15 123.217 125.053 122.982 124.88 122.809C124.707 122.636 124.472 122.538 124.227 122.538L41.1014 122.538Z" fill="#7950B7"/>
<path d="M123.611 113.602H86.6666C86.2584 113.602 85.8672 113.439 85.5786 113.151C85.29 112.862 85.1277 112.471 85.1272 112.063V91.4428C85.1277 91.0347 85.29 90.6434 85.5786 90.3548C85.8672 90.0663 86.2584 89.9039 86.6666 89.9034H123.611C124.02 89.9039 124.411 90.0663 124.699 90.3548C124.988 90.6434 125.15 91.0347 125.151 91.4428V112.063C125.15 112.471 124.988 112.862 124.699 113.151C124.411 113.439 124.02 113.602 123.611 113.602ZM86.6665 90.5192C86.4217 90.5194 86.1869 90.6168 86.0137 90.79C85.8406 90.9632 85.7432 91.1979 85.7429 91.4428V112.063C85.7432 112.308 85.8406 112.542 86.0137 112.716C86.1869 112.889 86.4217 112.986 86.6665 112.986H123.611C123.856 112.986 124.091 112.889 124.264 112.716C124.437 112.542 124.535 112.308 124.535 112.063V91.4428C124.535 91.1979 124.437 90.9631 124.264 90.79C124.091 90.6168 123.856 90.5194 123.611 90.5192L86.6665 90.5192Z" fill="#7950B7"/>
<path d="M78.0462 213.045H41.1014C40.6933 213.044 40.302 212.882 40.0134 212.594C39.7248 212.305 39.5625 211.914 39.562 211.506V173.029C39.5625 172.621 39.7248 172.23 40.0134 171.941C40.302 171.653 40.6933 171.49 41.1014 171.49H78.0462C78.4543 171.49 78.8456 171.653 79.1342 171.941C79.4228 172.23 79.5851 172.621 79.5856 173.029V211.506C79.5851 211.914 79.4228 212.305 79.1342 212.594C78.8456 212.882 78.4543 213.044 78.0462 213.045ZM41.1014 172.105C40.8565 172.106 40.6217 172.203 40.4486 172.376C40.2754 172.549 40.178 172.784 40.1778 173.029V211.506C40.178 211.75 40.2754 211.985 40.4486 212.158C40.6217 212.332 40.8565 212.429 41.1014 212.429H78.0462C78.2911 212.429 78.5259 212.332 78.699 212.158C78.8722 211.985 78.9696 211.75 78.9699 211.506V173.029C78.9696 172.784 78.8722 172.549 78.699 172.376C78.5259 172.203 78.2911 172.106 78.0462 172.105H41.1014Z" fill="#7950B7"/>
<path d="M123.611 213.045H86.6666C86.2584 213.044 85.8672 212.882 85.5786 212.594C85.29 212.305 85.1277 211.914 85.1272 211.506V173.029C85.1277 172.621 85.29 172.23 85.5786 171.941C85.8672 171.653 86.2584 171.49 86.6666 171.49H123.611C124.02 171.49 124.411 171.653 124.699 171.941C124.988 172.23 125.15 172.621 125.151 173.029V211.506C125.15 211.914 124.988 212.305 124.699 212.594C124.411 212.882 124.02 213.044 123.611 213.045ZM86.6666 172.105C86.4217 172.106 86.1869 172.203 86.0137 172.376C85.8406 172.549 85.7432 172.784 85.7429 173.029V211.506C85.7432 211.75 85.8406 211.985 86.0137 212.158C86.1869 212.332 86.4217 212.429 86.6666 212.429H123.611C123.856 212.429 124.091 212.332 124.264 212.158C124.437 211.985 124.535 211.75 124.535 211.506V173.029C124.535 172.784 124.437 172.549 124.264 172.376C124.091 172.203 123.856 172.106 123.611 172.105H86.6666Z" fill="#7950B7"/>
<path d="M53.4019 141.714C56.865 141.714 59.6725 138.906 59.6725 135.443C59.6725 131.98 56.865 129.173 53.4019 129.173C49.9388 129.173 47.1313 131.98 47.1313 135.443C47.1313 138.906 49.9388 141.714 53.4019 141.714Z" fill="#7950B7"/>
<path d="M67.8837 131.263C67.6065 131.263 67.3407 131.373 67.1447 131.569C66.9487 131.765 66.8386 132.031 66.8386 132.308C66.8386 132.585 66.9487 132.851 67.1447 133.047C67.3407 133.243 67.6065 133.353 67.8837 133.353H117.152C117.429 133.352 117.694 133.242 117.89 133.046C118.085 132.85 118.195 132.585 118.195 132.308C118.195 132.031 118.085 131.766 117.89 131.57C117.694 131.374 117.429 131.264 117.152 131.263H67.8837Z" fill="#7950B7"/>
<path d="M67.8837 137.533C67.7465 137.533 67.6105 137.56 67.4836 137.612C67.3567 137.664 67.2413 137.741 67.1441 137.838C67.0468 137.935 66.9696 138.05 66.9168 138.177C66.864 138.303 66.8367 138.439 66.8364 138.576C66.8361 138.714 66.8629 138.85 66.9151 138.976C66.9674 139.103 67.0441 139.219 67.141 139.316C67.2378 139.413 67.3529 139.49 67.4795 139.543C67.6062 139.596 67.7421 139.623 67.8793 139.624H89.0842C89.2215 139.624 89.3576 139.597 89.4846 139.545C89.6116 139.492 89.7271 139.415 89.8243 139.318C89.9215 139.221 89.9986 139.106 90.0513 138.979C90.1039 138.852 90.131 138.716 90.131 138.579C90.131 138.441 90.1039 138.305 90.0513 138.178C89.9986 138.051 89.9215 137.936 89.8243 137.839C89.7271 137.742 89.6116 137.665 89.4846 137.613C89.3576 137.56 89.2215 137.533 89.0842 137.533H67.8837Z" fill="#7950B7"/>
<path d="M48.592 147.558C47.7971 147.558 47.1501 148.027 47.1501 148.603C47.1501 149.18 47.7971 149.649 48.592 149.649H116.568C117.363 149.649 118.009 149.18 118.009 148.603C118.009 148.027 117.363 147.558 116.568 147.558H48.592Z" fill="#F3EBFF"/>
<path d="M48.592 153.829C47.7971 153.829 47.1501 154.298 47.1501 154.874C47.1501 155.45 47.7971 155.919 48.592 155.919H116.568C117.363 155.919 118.009 155.45 118.009 154.874C118.009 154.298 117.363 153.829 116.568 153.829H48.592Z" fill="#F3EBFF"/>
<path d="M54.0176 75.2134C57.4808 75.2134 60.2882 72.406 60.2882 68.9429C60.2882 65.4797 57.4808 62.6723 54.0176 62.6723C50.5545 62.6723 47.7471 65.4797 47.7471 68.9429C47.7471 72.406 50.5545 75.2134 54.0176 75.2134Z" fill="#7950B7"/>
<path d="M68.4994 64.7625C68.2227 64.7631 67.9575 64.8735 67.762 65.0694C67.5666 65.2654 67.4568 65.5308 67.4568 65.8076C67.4568 66.0843 67.5666 66.3498 67.762 66.5457C67.9575 66.7416 68.2227 66.852 68.4994 66.8527H117.768C117.905 66.8531 118.041 66.8265 118.168 66.7743C118.296 66.7221 118.411 66.6454 118.508 66.5485C118.606 66.4517 118.683 66.3366 118.736 66.2098C118.789 66.083 118.816 65.9471 118.816 65.8098C118.817 65.6724 118.79 65.5364 118.738 65.4094C118.685 65.2824 118.608 65.167 118.512 65.0697C118.415 64.9725 118.299 64.8953 118.173 64.8425C118.046 64.7898 117.91 64.7626 117.772 64.7625C117.771 64.7625 117.77 64.7625 117.768 64.7625H68.4994Z" fill="#7950B7"/>
<path d="M68.4994 71.0331C68.2227 71.0337 67.9575 71.1441 67.762 71.34C67.5666 71.5359 67.4568 71.8014 67.4568 72.0781C67.4568 72.3549 67.5666 72.6203 67.762 72.8163C67.9575 73.0122 68.2227 73.1226 68.4994 73.1232H89.6998C89.8372 73.1237 89.9733 73.097 90.1003 73.0449C90.2273 72.9927 90.3428 72.916 90.4402 72.8191C90.5376 72.7222 90.6149 72.6071 90.6678 72.4804C90.7206 72.3536 90.748 72.2177 90.7483 72.0803C90.7486 71.943 90.7218 71.807 90.6695 71.68C90.6171 71.553 90.5403 71.4376 90.4433 71.3403C90.3464 71.243 90.2312 71.1658 90.1044 71.1131C89.9775 71.0604 89.8416 71.0332 89.7043 71.0331C89.7028 71.0331 89.7013 71.0331 89.6998 71.0331H68.4994Z" fill="#7950B7"/>
<path d="M78.0137 113.606H43.3562L51.5123 99.4789C51.6584 99.2257 51.8687 99.0154 52.1219 98.8692C52.3751 98.723 52.6623 98.6461 52.9547 98.6461C53.247 98.6461 53.5342 98.723 53.7874 98.8692C54.0406 99.0154 54.2509 99.2257 54.3971 99.4789L57.8812 105.514L63.8055 95.2526C63.9885 94.9356 64.2517 94.6723 64.5687 94.4893C64.8857 94.3063 65.2453 94.2099 65.6114 94.2099C65.9774 94.2099 66.337 94.3063 66.654 94.4893C66.971 94.6723 67.2343 94.9356 67.4173 95.2526L78.0137 113.606ZM44.4226 112.99H76.9473L66.884 95.5604C66.755 95.337 66.5695 95.1515 66.3462 95.0225C66.1228 94.8935 65.8694 94.8256 65.6114 94.8256C65.3535 94.8256 65.1001 94.8935 64.8767 95.0225C64.6533 95.1515 64.4678 95.337 64.3389 95.5604L57.8812 106.745L53.8637 99.7868C53.7716 99.6272 53.6391 99.4946 53.4796 99.4025C53.32 99.3103 53.139 99.2618 52.9547 99.2618C52.7704 99.2618 52.5894 99.3103 52.4298 99.4025C52.2703 99.4946 52.1378 99.6272 52.0456 99.7868L44.4226 112.99Z" fill="#7950B7"/>
<path d="M122.347 113.606H87.6897L95.8458 99.4789C95.9919 99.2257 96.2022 99.0154 96.4554 98.8692C96.7086 98.723 96.9958 98.6461 97.2882 98.6461C97.5805 98.6461 97.8677 98.723 98.1209 98.8692C98.3741 99.0154 98.5844 99.2257 98.7306 99.4789L102.215 105.514L108.139 95.2526C108.322 94.9355 108.585 94.6723 108.902 94.4893C109.219 94.3063 109.579 94.2099 109.945 94.2099C110.311 94.2099 110.671 94.3063 110.988 94.4893C111.305 94.6723 111.568 94.9355 111.751 95.2526L122.347 113.606ZM88.7561 112.99H121.281L111.217 95.5604C111.088 95.337 110.903 95.1515 110.68 95.0225C110.456 94.8935 110.203 94.8256 109.945 94.8256C109.687 94.8256 109.434 94.8935 109.21 95.0225C108.987 95.1515 108.801 95.337 108.672 95.5604L102.215 106.745L98.1972 99.7868C98.1051 99.6272 97.9726 99.4946 97.813 99.4025C97.6534 99.3103 97.4724 99.2618 97.2882 99.2618C97.1039 99.2618 96.9229 99.3103 96.7633 99.4025C96.6037 99.4946 96.4712 99.6272 96.3791 99.7868L88.7561 112.99Z" fill="#7950B7"/>
<path d="M78.0462 113.602H41.1014C40.6933 113.602 40.302 113.439 40.0134 113.151C39.7248 112.862 39.5625 112.471 39.562 112.063V91.4428C39.5625 91.0347 39.7248 90.6434 40.0134 90.3548C40.302 90.0663 40.6933 89.9039 41.1014 89.9034H78.0462C78.4543 89.9039 78.8456 90.0663 79.1342 90.3548C79.4228 90.6434 79.5851 91.0347 79.5856 91.4428V112.063C79.5851 112.471 79.4228 112.862 79.1342 113.151C78.8456 113.439 78.4543 113.602 78.0462 113.602ZM41.1014 90.5192C40.8565 90.5194 40.6217 90.6168 40.4486 90.79C40.2754 90.9632 40.178 91.1979 40.1777 91.4428V112.063C40.178 112.308 40.2754 112.542 40.4486 112.716C40.6217 112.889 40.8565 112.986 41.1014 112.986H78.0462C78.2911 112.986 78.5259 112.889 78.699 112.716C78.8722 112.542 78.9696 112.308 78.9698 112.063V91.4428C78.9696 91.1979 78.8722 90.9631 78.699 90.79C78.5259 90.6168 78.2911 90.5194 78.0462 90.5192L41.1014 90.5192Z" fill="#7950B7"/>
<path d="M48.9736 179.424C48.8362 179.424 48.7001 179.451 48.5731 179.503C48.4461 179.556 48.3307 179.633 48.2335 179.73C48.1362 179.827 48.0591 179.942 48.0065 180.069C47.9539 180.196 47.9268 180.332 47.9268 180.469C47.9268 180.607 47.9539 180.743 48.0065 180.87C48.0591 180.997 48.1362 181.112 48.2335 181.209C48.3307 181.306 48.4461 181.383 48.5731 181.435C48.7001 181.488 48.8362 181.515 48.9736 181.514H70.174C70.4512 181.514 70.717 181.404 70.913 181.208C71.109 181.012 71.2191 180.747 71.2191 180.469C71.2191 180.192 71.109 179.926 70.913 179.73C70.717 179.534 70.4512 179.424 70.174 179.424H48.9736Z" fill="#7950B7"/>
<path d="M48.9736 185.582C48.8362 185.581 48.7001 185.608 48.5731 185.661C48.4461 185.713 48.3307 185.79 48.2335 185.887C48.1362 185.984 48.0591 186.1 48.0065 186.226C47.9539 186.353 47.9268 186.489 47.9268 186.627C47.9268 186.764 47.9539 186.9 48.0065 187.027C48.0591 187.154 48.1362 187.269 48.2335 187.366C48.3307 187.463 48.4461 187.54 48.5731 187.593C48.7001 187.645 48.8362 187.672 48.9736 187.672H70.174C70.4509 187.671 70.7163 187.561 70.9119 187.365C71.1075 187.169 71.2174 186.904 71.2174 186.627C71.2174 186.35 71.1075 186.084 70.9119 185.888C70.7163 185.692 70.4509 185.582 70.174 185.582H48.9736Z" fill="#7950B7"/>
<path d="M59.5737 205.11C58.2727 205.11 57.0008 204.725 55.919 204.002C54.8372 203.279 53.994 202.252 53.4961 201.049C52.9982 199.847 52.8679 198.525 53.1218 197.249C53.3756 195.973 54.0021 194.8 54.9221 193.88C55.8421 192.96 57.0143 192.334 58.2904 192.08C59.5665 191.826 60.8892 191.956 62.0912 192.454C63.2932 192.952 64.3206 193.795 65.0435 194.877C65.7663 195.959 66.1521 197.231 66.1521 198.532C66.1502 200.276 65.4564 201.948 64.2232 203.181C62.9899 204.415 61.3178 205.108 59.5737 205.11ZM59.5737 192.569C58.3945 192.569 57.2416 192.919 56.2611 193.574C55.2805 194.229 54.5163 195.161 54.065 196.25C53.6137 197.34 53.4956 198.539 53.7257 199.695C53.9558 200.852 54.5236 201.914 55.3575 202.748C56.1914 203.582 57.2539 204.15 58.4105 204.38C59.5671 204.61 60.766 204.492 61.8556 204.041C62.9451 203.589 63.8763 202.825 64.5315 201.845C65.1867 200.864 65.5364 199.711 65.5364 198.532C65.5345 196.951 64.9057 195.436 63.7879 194.318C62.6701 193.2 61.1546 192.571 59.5737 192.569V192.569Z" fill="#7950B7"/>
<path d="M115.739 205.11C115.877 205.111 116.013 205.084 116.14 205.031C116.267 204.979 116.382 204.902 116.479 204.805C116.577 204.708 116.654 204.593 116.706 204.466C116.759 204.339 116.786 204.203 116.786 204.065C116.786 203.928 116.759 203.792 116.706 203.665C116.654 203.538 116.577 203.423 116.479 203.326C116.382 203.229 116.267 203.152 116.14 203.099C116.013 203.047 115.877 203.02 115.739 203.02H94.5388C94.2616 203.02 93.9958 203.13 93.7998 203.326C93.6038 203.522 93.4937 203.788 93.4937 204.065C93.4937 204.343 93.6038 204.608 93.7998 204.804C93.9958 205 94.2616 205.11 94.5388 205.11H115.739Z" fill="#7950B7"/>
<path d="M115.739 198.953C115.877 198.953 116.013 198.926 116.14 198.874C116.267 198.821 116.382 198.745 116.479 198.647C116.577 198.55 116.654 198.435 116.706 198.308C116.759 198.181 116.786 198.045 116.786 197.908C116.786 197.77 116.759 197.634 116.706 197.508C116.654 197.381 116.577 197.265 116.479 197.168C116.382 197.071 116.267 196.994 116.14 196.942C116.013 196.889 115.877 196.863 115.739 196.863H94.5388C94.2616 196.863 93.9958 196.973 93.7998 197.169C93.6038 197.365 93.4937 197.631 93.4937 197.908C93.4937 198.185 93.6038 198.451 93.7998 198.647C93.9958 198.843 94.2616 198.953 94.5388 198.953H115.739Z" fill="#7950B7"/>
<path d="M105.139 179.424C106.44 179.424 107.712 179.81 108.794 180.533C109.875 181.256 110.719 182.283 111.217 183.485C111.714 184.687 111.845 186.01 111.591 187.286C111.337 188.562 110.711 189.734 109.791 190.654C108.871 191.574 107.698 192.201 106.422 192.455C105.146 192.708 103.824 192.578 102.621 192.08C101.419 191.582 100.392 190.739 99.6692 189.657C98.9464 188.576 98.5605 187.304 98.5605 186.003V186.003C98.5625 184.259 99.2562 182.586 100.489 181.353C101.723 180.12 103.395 179.426 105.139 179.424ZM105.139 191.965C106.318 191.965 107.471 191.616 108.452 190.96C109.432 190.305 110.196 189.374 110.648 188.284C111.099 187.195 111.217 185.996 110.987 184.839C110.757 183.683 110.189 182.62 109.355 181.786C108.521 180.953 107.459 180.385 106.302 180.155C105.146 179.925 103.947 180.043 102.857 180.494C101.768 180.945 100.836 181.709 100.181 182.69C99.526 183.671 99.1763 184.823 99.1763 186.003V186.003C99.1781 187.583 99.8069 189.099 100.925 190.217C102.043 191.335 103.558 191.963 105.139 191.965V191.965Z" fill="#7950B7"/>
<path d="M172.843 235.681H166.313L163.207 209.983L172.844 209.983L172.843 235.681Z" fill="#FFB8B8"/>
<path d="M159.837 233.54H174.985V242.106H153.57V240.028C153.57 238.307 154.23 236.657 155.406 235.44C156.581 234.223 158.175 233.54 159.837 233.54Z" fill="#383838"/>
<path d="M200.682 235.681H193.428L189.976 209.983L200.684 209.983L200.682 235.681Z" fill="#FFB8B8"/>
<path d="M186.606 233.54H201.754V242.106H180.339V240.028C180.339 238.307 180.999 236.657 182.175 235.44C183.35 234.223 184.944 233.54 186.606 233.54Z" fill="#383838"/>
<path d="M161.707 160.347C162.286 159.822 162.738 159.18 163.033 158.468C163.327 157.755 163.457 156.989 163.412 156.223C163.367 155.457 163.15 154.709 162.775 154.033C162.399 153.357 161.876 152.769 161.24 152.31L164.278 140.681L157.427 137.171L153.375 153.652C152.65 154.736 152.36 156.041 152.562 157.318C152.763 158.595 153.442 159.756 154.469 160.581C155.496 161.407 156.8 161.839 158.134 161.795C159.468 161.752 160.74 161.237 161.707 160.347Z" fill="#FFB8B8"/>
<path d="M202.825 140.383L202.276 179.248L201.725 230.327L189.629 229.217L183.581 158.705L175.883 229.217H163.394L162.136 158.15L166.535 142.604L202.825 140.383Z" fill="#383838"/>
<path d="M164.458 142.977L164.278 142.896L171.29 95.2982L167.725 80.9115C167.539 80.163 167.637 79.3731 168 78.6914C168.362 78.0096 168.964 77.4836 169.691 77.2128L176.105 74.826L178.371 68.6417L196.249 70.5535L196.688 75.3868C198.626 76.0034 214.579 81.2762 213.478 87.2843C212.392 93.2144 205.977 111.871 205.651 112.817L204.528 139.574L204.39 139.642C204.223 139.725 191.901 145.738 178.514 145.737C173.799 145.737 168.95 144.99 164.458 142.977Z" fill="#7950B7"/>
<path d="M153.57 148.193L159.095 112.111C159.128 111.899 162.396 90.7763 163.48 84.1393C164.599 77.2871 169.797 77.2078 169.85 77.2078H172.71L176.056 92.5729L169.465 123.402L163.384 148.949L153.57 148.193Z" fill="#7950B7"/>
<path d="M188.913 144.422C188.949 143.651 189.153 142.897 189.511 142.213C189.868 141.53 190.37 140.933 190.982 140.466C191.593 139.999 192.299 139.672 193.049 139.509C193.8 139.345 194.577 139.35 195.326 139.521L202.272 129.675L209.25 132.462L199.247 146.227C198.877 147.473 198.065 148.54 196.966 149.224C195.867 149.909 194.556 150.164 193.283 149.942C192.009 149.719 190.861 149.034 190.055 148.017C189.25 147 188.843 145.721 188.913 144.422Z" fill="#FFB8B8"/>
<path d="M196.401 135.927L208.674 115.223L203.674 101.848L210.484 83.6324L210.735 83.7405C210.9 83.8112 214.77 85.5432 215.343 91.7458L223.17 116.417L202.282 143.595L196.401 135.927Z" fill="#7950B7"/>
<path d="M199.422 67.196C202.794 61.0275 200.527 53.2934 194.358 49.9214C188.19 46.5494 180.456 48.8164 177.084 54.9849C173.712 61.1534 175.979 68.8874 182.147 72.2594C188.316 75.6314 196.05 73.3645 199.422 67.196Z" fill="#FFB8B8"/>
<path d="M179.489 55.0409C180.794 56.6199 183.004 57.0655 185.042 57.2482C189.182 57.6192 195.202 57.0174 199.247 56.0629C199.536 58.9227 198.749 62.0062 200.397 64.3586C201.17 61.5106 201.619 58.5812 201.736 55.6282C201.786 54.3617 201.766 53.0516 201.263 51.889C200.759 50.7264 199.661 49.7395 198.396 49.7291C199.336 49.0007 200.436 48.5198 201.601 48.3289L197.596 46.2723L198.624 45.1933L191.374 44.7399L193.474 43.3765C190.313 42.9327 187.115 42.8295 183.933 43.0687C182.456 43.18 180.911 43.3925 179.714 44.2673C178.516 45.1422 177.825 46.8809 178.568 48.1653C177.637 48.3215 176.761 48.7178 176.023 49.3167C175.284 49.9156 174.707 50.6973 174.347 51.5878C173.813 52.9705 173.862 54.5063 174.027 55.9796C174.3 58.3361 174.836 60.653 175.624 62.8851" fill="#383838"/>
</svg>
