<svg width="30" height="36" viewBox="0 0 30 36" fill="none" xmlns="http://www.w3.org/2000/svg">
<path d="M25.5 12.636V10.5C25.5 7.71523 24.3937 5.04451 22.4246 3.07538C20.4555 1.10625 17.7848 0 15 0C12.2152 0 9.54451 1.10625 7.57537 3.07538C5.60624 5.04451 4.5 7.71523 4.5 10.5V12.636C3.16404 13.2191 2.02694 14.1788 1.22775 15.3978C0.428558 16.6168 0.00191756 18.0424 0 19.5V28.5C0.00238179 30.4884 0.793323 32.3947 2.19933 33.8007C3.60533 35.2067 5.5116 35.9976 7.5 36H22.5C24.4884 35.9976 26.3946 35.2067 27.8007 33.8007C29.2067 32.3947 29.9976 30.4884 30 28.5V19.5C29.9981 18.0424 29.5714 16.6168 28.7722 15.3978C27.973 14.1788 26.8359 13.2191 25.5 12.636ZM7.5 10.5C7.5 8.51088 8.29017 6.60322 9.69669 5.1967C11.1032 3.79018 13.0109 3 15 3C16.9891 3 18.8968 3.79018 20.3033 5.1967C21.7098 6.60322 22.5 8.51088 22.5 10.5V12H7.5V10.5ZM27 28.5C27 29.6935 26.5259 30.8381 25.682 31.682C24.8381 32.5259 23.6935 33 22.5 33H7.5C6.30652 33 5.16193 32.5259 4.31802 31.682C3.4741 30.8381 3 29.6935 3 28.5V19.5C3 18.3065 3.4741 17.1619 4.31802 16.318C5.16193 15.4741 6.30652 15 7.5 15H22.5C23.6935 15 24.8381 15.4741 25.682 16.318C26.5259 17.1619 27 18.3065 27 19.5V28.5Z" fill="white"/>
<path d="M15 21C14.6022 21 14.2206 21.158 13.9393 21.4393C13.658 21.7206 13.5 22.1021 13.5 22.5V25.5C13.5 25.8978 13.658 26.2793 13.9393 26.5606C14.2206 26.8419 14.6022 27 15 27C15.3978 27 15.7794 26.8419 16.0607 26.5606C16.342 26.2793 16.5 25.8978 16.5 25.5V22.5C16.5 22.1021 16.342 21.7206 16.0607 21.4393C15.7794 21.158 15.3978 21 15 21Z" fill="white"/>
</svg>
