<svg width="40" height="40" viewBox="0 0 40 40" fill="none" xmlns="http://www.w3.org/2000/svg">
<path d="M20 10C18.0222 10 16.0888 10.5865 14.4443 11.6853C12.7998 12.7841 11.5181 14.3459 10.7612 16.1732C10.0043 18.0004 9.8063 20.0111 10.1922 21.9509C10.578 23.8907 11.5304 25.6725 12.9289 27.0711C14.3275 28.4696 16.1093 29.422 18.0491 29.8078C19.9889 30.1937 21.9996 29.9957 23.8268 29.2388C25.6541 28.4819 27.2159 27.2002 28.3147 25.5557C29.4135 23.9112 30 21.9778 30 20C29.9971 17.3487 28.9426 14.8068 27.0679 12.9321C25.1932 11.0574 22.6513 10.0029 20 10V10ZM20 28.3333C18.3518 28.3333 16.7407 27.8446 15.3703 26.9289C13.9998 26.0132 12.9317 24.7117 12.301 23.189C11.6703 21.6663 11.5053 19.9908 11.8268 18.3742C12.1483 16.7577 12.942 15.2729 14.1074 14.1074C15.2729 12.942 16.7577 12.1483 18.3743 11.8268C19.9908 11.5052 21.6663 11.6703 23.189 12.301C24.7117 12.9317 26.0132 13.9998 26.9289 15.3702C27.8446 16.7407 28.3333 18.3518 28.3333 20C28.3309 22.2094 27.4522 24.3276 25.8899 25.8899C24.3276 27.4522 22.2094 28.3309 20 28.3333Z" fill="black"/>
<path d="M19.9999 18.3333H19.1666C18.9456 18.3333 18.7336 18.4211 18.5773 18.5774C18.421 18.7337 18.3333 18.9457 18.3333 19.1667C18.3333 19.3877 18.421 19.5996 18.5773 19.7559C18.7336 19.9122 18.9456 20 19.1666 20H19.9999V25C19.9999 25.221 20.0877 25.433 20.244 25.5893C20.4003 25.7455 20.6122 25.8333 20.8333 25.8333C21.0543 25.8333 21.2662 25.7455 21.4225 25.5893C21.5788 25.433 21.6666 25.221 21.6666 25V20C21.6666 19.558 21.491 19.1341 21.1784 18.8215C20.8659 18.5089 20.4419 18.3333 19.9999 18.3333Z" fill="black"/>
<path d="M20 16.6667C20.6904 16.6667 21.25 16.107 21.25 15.4167C21.25 14.7263 20.6904 14.1667 20 14.1667C19.3096 14.1667 18.75 14.7263 18.75 15.4167C18.75 16.107 19.3096 16.6667 20 16.6667Z" fill="black"/>
</svg>
