<svg width="40" height="40" viewBox="0 0 40 40" fill="none" xmlns="http://www.w3.org/2000/svg">
<path d="M18.8333 18.3333C18.1703 18.3333 17.5344 18.5967 17.0656 19.0656C16.5967 19.5344 16.3333 20.1703 16.3333 20.8333C16.3333 21.4964 16.5967 22.1323 17.0656 22.6011C17.5344 23.0699 18.1703 23.3333 18.8333 23.3333H22.1667C22.8297 23.3333 23.4656 23.0699 23.9344 22.6011C24.4033 22.1323 24.6667 21.4964 24.6667 20.8333C24.6667 20.1703 24.4033 19.5344 23.9344 19.0656C23.4656 18.5967 22.8297 18.3333 22.1667 18.3333H18.8333ZM23 20.8333C23 21.0544 22.9122 21.2663 22.7559 21.4226C22.5996 21.5789 22.3877 21.6667 22.1667 21.6667H18.8333C18.6123 21.6667 18.4004 21.5789 18.2441 21.4226C18.0878 21.2663 18 21.0544 18 20.8333C18 20.6123 18.0878 20.4004 18.2441 20.2441C18.4004 20.0878 18.6123 20 18.8333 20H22.1667C22.3877 20 22.5996 20.0878 22.7559 20.2441C22.9122 20.4004 23 20.6123 23 20.8333ZM24.6667 25.8333C24.6667 26.0543 24.5789 26.2663 24.4226 26.4226C24.2663 26.5789 24.0543 26.6667 23.8333 26.6667H17.1667C16.9457 26.6667 16.7337 26.5789 16.5774 26.4226C16.4211 26.2663 16.3333 26.0543 16.3333 25.8333C16.3333 25.6123 16.4211 25.4004 16.5774 25.2441C16.7337 25.0878 16.9457 25 17.1667 25H23.8333C24.0543 25 24.2663 25.0878 24.4226 25.2441C24.5789 25.4004 24.6667 25.6123 24.6667 25.8333ZM26.78 12.6008L25.3983 11.2208C25.0124 10.8327 24.5533 10.525 24.0477 10.3154C23.542 10.1059 22.9998 9.99867 22.4525 10H17.1667C16.062 10.0013 15.003 10.4407 14.2218 11.2219C13.4407 12.003 13.0013 13.062 13 14.1667V25.8333C13.0013 26.938 13.4407 27.997 14.2218 28.7782C15.003 29.5593 16.062 29.9987 17.1667 30H23.8333C24.938 29.9987 25.997 29.5593 26.7781 28.7782C27.5593 27.997 27.9987 26.938 28 25.8333V15.5475C28.0016 15.0001 27.8945 14.4578 27.6851 13.952C27.4757 13.4462 27.1681 12.987 26.78 12.6008ZM25.6017 13.7792C25.7189 13.8979 25.8244 14.0276 25.9167 14.1667H23.8333V12.0833C23.9726 12.1746 24.1021 12.2799 24.22 12.3975L25.6017 13.7792ZM26.3333 25.8333C26.3333 26.4964 26.0699 27.1323 25.6011 27.6011C25.1323 28.0699 24.4964 28.3333 23.8333 28.3333H17.1667C16.5036 28.3333 15.8677 28.0699 15.3989 27.6011C14.9301 27.1323 14.6667 26.4964 14.6667 25.8333V14.1667C14.6667 13.5036 14.9301 12.8678 15.3989 12.3989C15.8677 11.9301 16.5036 11.6667 17.1667 11.6667H22.1667V14.1667C22.1667 14.6087 22.3423 15.0326 22.6548 15.3452C22.9674 15.6577 23.3913 15.8333 23.8333 15.8333H26.3333V25.8333Z" fill="black"/>
</svg>
