<svg width="280" height="156" viewBox="0 0 280 156" fill="none" xmlns="http://www.w3.org/2000/svg">
<mask id="mask0_75_1228" style="mask-type:alpha" maskUnits="userSpaceOnUse" x="0" y="0" width="280" height="156">
<rect width="280" height="156" fill="#F3EBFF"/>
</mask>
<g mask="url(#mask0_75_1228)">
<path d="M154.313 143.603C154.118 143.603 153.927 143.545 153.765 143.437C153.603 143.329 153.476 143.175 153.402 142.995C153.327 142.814 153.308 142.616 153.346 142.425C153.384 142.234 153.478 142.058 153.615 141.92C153.753 141.782 153.929 141.688 154.12 141.65C154.311 141.612 154.51 141.632 154.69 141.707C154.87 141.781 155.024 141.908 155.132 142.07C155.241 142.232 155.298 142.422 155.298 142.617C155.298 142.747 155.273 142.875 155.223 142.995C155.174 143.114 155.101 143.223 155.01 143.314C154.918 143.406 154.809 143.479 154.69 143.528C154.57 143.578 154.442 143.603 154.313 143.603Z" fill="#060000"/>
<path d="M154.313 152.07C154.118 152.07 153.927 152.012 153.765 151.904C153.603 151.796 153.476 151.642 153.402 151.462C153.327 151.282 153.308 151.083 153.346 150.892C153.384 150.701 153.478 150.525 153.615 150.387C153.753 150.249 153.929 150.156 154.12 150.117C154.311 150.079 154.51 150.099 154.69 150.174C154.87 150.248 155.024 150.375 155.132 150.537C155.241 150.699 155.298 150.889 155.298 151.084C155.299 151.214 155.274 151.343 155.225 151.462C155.175 151.582 155.103 151.691 155.011 151.783C154.919 151.875 154.81 151.947 154.691 151.996C154.571 152.046 154.442 152.071 154.313 152.07Z" fill="#060000"/>
<path d="M144.407 143.603C144.212 143.603 144.021 143.545 143.859 143.437C143.697 143.329 143.571 143.175 143.496 142.995C143.421 142.814 143.402 142.616 143.44 142.425C143.478 142.234 143.572 142.058 143.71 141.92C143.848 141.782 144.023 141.688 144.214 141.65C144.406 141.612 144.604 141.632 144.784 141.707C144.964 141.781 145.118 141.908 145.226 142.07C145.335 142.232 145.393 142.422 145.393 142.617C145.393 142.879 145.289 143.13 145.104 143.314C144.919 143.499 144.668 143.603 144.407 143.603Z" fill="#060000"/>
<path d="M144.407 152.07C144.212 152.07 144.021 152.012 143.859 151.904C143.697 151.796 143.571 151.642 143.496 151.462C143.421 151.282 143.402 151.083 143.44 150.892C143.478 150.701 143.572 150.525 143.71 150.387C143.848 150.249 144.023 150.156 144.214 150.117C144.406 150.079 144.604 150.099 144.784 150.174C144.964 150.248 145.118 150.375 145.226 150.537C145.335 150.699 145.393 150.889 145.393 151.084C145.393 151.214 145.368 151.343 145.319 151.462C145.27 151.582 145.197 151.691 145.105 151.783C145.014 151.875 144.905 151.947 144.785 151.996C144.665 152.046 144.536 152.071 144.407 152.07Z" fill="#060000"/>
<g style="mix-blend-mode:multiply">
<path d="M65.6085 20.9721C66.4969 20.9721 67.217 20.2519 67.217 19.3636C67.217 18.4752 66.4969 17.7551 65.6085 17.7551C64.7202 17.7551 64 18.4752 64 19.3636C64 20.2519 64.7202 20.9721 65.6085 20.9721Z" fill="#E2CEFF"/>
<path d="M79.4339 20.9721C80.3223 20.9721 81.0425 20.2519 81.0425 19.3636C81.0425 18.4752 80.3223 17.7551 79.4339 17.7551C78.5456 17.7551 77.8254 18.4752 77.8254 19.3636C77.8254 20.2519 78.5456 20.9721 79.4339 20.9721Z" fill="#E2CEFF"/>
<path d="M94.8681 19.3636C94.8681 19.6817 94.7738 19.9927 94.597 20.2572C94.4203 20.5217 94.1691 20.7279 93.8752 20.8496C93.5813 20.9714 93.2578 21.0032 92.9458 20.9412C92.6338 20.8791 92.3472 20.7259 92.1222 20.501C91.8973 20.276 91.7441 19.9894 91.682 19.6774C91.62 19.3654 91.6518 19.0419 91.7736 18.748C91.8953 18.4541 92.1015 18.2029 92.366 18.0261C92.6305 17.8494 92.9415 17.7551 93.2596 17.7551C93.6862 17.7551 94.0954 17.9245 94.397 18.2262C94.6987 18.5278 94.8681 18.937 94.8681 19.3636Z" fill="#E2CEFF"/>
<path d="M107.085 20.9721C107.973 20.9721 108.694 20.2519 108.694 19.3636C108.694 18.4752 107.973 17.7551 107.085 17.7551C106.197 17.7551 105.477 18.4752 105.477 19.3636C105.477 20.2519 106.197 20.9721 107.085 20.9721Z" fill="#E2CEFF"/>
<path d="M65.6085 34.0807C66.4969 34.0807 67.217 33.3605 67.217 32.4722C67.217 31.5838 66.4969 30.8637 65.6085 30.8637C64.7202 30.8637 64 31.5838 64 32.4722C64 33.3605 64.7202 34.0807 65.6085 34.0807Z" fill="#E2CEFF"/>
<path d="M79.4339 34.0807C80.3223 34.0807 81.0425 33.3605 81.0425 32.4722C81.0425 31.5838 80.3223 30.8637 79.4339 30.8637C78.5456 30.8637 77.8254 31.5838 77.8254 32.4722C77.8254 33.3605 78.5456 34.0807 79.4339 34.0807Z" fill="#E2CEFF"/>
<path d="M94.8681 32.4722C94.8681 32.7903 94.7738 33.1013 94.597 33.3658C94.4203 33.6303 94.1691 33.8365 93.8752 33.9582C93.5813 34.08 93.2578 34.1118 92.9458 34.0498C92.6338 33.9877 92.3472 33.8345 92.1222 33.6096C91.8973 33.3846 91.7441 33.098 91.682 32.786C91.62 32.474 91.6518 32.1505 91.7736 31.8566C91.8953 31.5627 92.1015 31.3115 92.366 31.1348C92.6305 30.958 92.9415 30.8637 93.2596 30.8637C93.6858 30.8649 94.0942 31.0348 94.3956 31.3362C94.697 31.6376 94.8669 32.046 94.8681 32.4722Z" fill="#E2CEFF"/>
<path d="M107.085 34.0807C107.973 34.0807 108.694 33.3605 108.694 32.4722C108.694 31.5838 107.973 30.8637 107.085 30.8637C106.197 30.8637 105.477 31.5838 105.477 32.4722C105.477 33.3605 106.197 34.0807 107.085 34.0807Z" fill="#E2CEFF"/>
</g>
<path d="M116.368 9.31628L149.468 9.31628V-23.7831L116.368 -23.7831V9.31628Z" stroke="#B786FF" stroke-width="0.613213" stroke-miterlimit="10"/>
<path d="M149.468 9.32103L136.977 21.8117H103.581V-11.4197L116.151 -24" stroke="#C69FFF" stroke-width="0.613213" stroke-miterlimit="10"/>
<path d="M116.373 9.32104L103.727 21.9627" stroke="#B786FF" stroke-width="0.613213" stroke-miterlimit="10"/>
<path d="M173.492 106.131L178.256 111.792L183.016 106.131L187.78 111.792L192.539 106.131L197.303 111.792L202.068 106.131L206.832 111.792L211.591 106.131L216.36 111.792L221.124 106.131" stroke="#E2CEFF" stroke-width="0.943404" stroke-miterlimit="10"/>
<path d="M173.492 113.65L178.256 119.311L183.016 113.65L187.78 119.311L192.539 113.65L197.303 119.311L202.068 113.65L206.832 119.311L211.591 113.65L216.36 119.311L221.124 113.65" stroke="#E2CEFF" stroke-width="0.943404" stroke-miterlimit="10"/>
<path d="M217.765 -30.9182C222.176 -27.8069 225.566 -23.4572 227.505 -18.4194C229.444 -13.3815 229.846 -7.88177 228.659 -2.61562C227.472 2.65053 224.751 7.44652 220.838 11.1658C216.926 14.8851 211.998 17.3607 206.679 18.2795C201.36 19.1982 195.887 18.5189 190.954 16.3274C186.021 14.1359 181.848 10.5307 178.964 5.96762C176.079 1.40458 174.613 -3.91129 174.75 -9.30774C174.887 -14.7042 176.621 -19.9388 179.733 -24.3496" stroke="#3F3F3F" stroke-width="1.17926" stroke-miterlimit="10"/>
<path d="M60.0004 150.603C60.0004 153.623 59.1049 156.575 57.4271 159.086C55.7493 161.597 53.3646 163.554 50.5746 164.71C47.7846 165.866 44.7145 166.168 41.7526 165.579C38.7907 164.99 36.07 163.536 33.9346 161.4C31.7992 159.265 30.345 156.544 29.7558 153.582C29.1666 150.62 29.469 147.55 30.6247 144.76C31.7804 141.97 33.7374 139.585 36.2484 137.908C38.7594 136.23 41.7115 135.334 44.7314 135.334" stroke="#B786FF" stroke-width="1.17926" stroke-miterlimit="10"/>
<path d="M2 159.353L9.17459 152.179" stroke="#3F3F3F" stroke-width="0.707553" stroke-miterlimit="10"/>
<path d="M8.25488 159.353L15.4295 152.179" stroke="#3F3F3F" stroke-width="0.707553" stroke-miterlimit="10"/>
<path d="M14.5098 159.353L21.6844 152.179" stroke="#3F3F3F" stroke-width="0.707553" stroke-miterlimit="10"/>
<path d="M20.7642 159.353L27.9388 152.179" stroke="#3F3F3F" stroke-width="0.707553" stroke-miterlimit="10"/>
<path d="M27.019 159.353L34.1983 152.179" stroke="#3F3F3F" stroke-width="0.707553" stroke-miterlimit="10"/>
<path d="M33.2739 159.353L40.4532 152.179" stroke="#3F3F3F" stroke-width="0.707553" stroke-miterlimit="10"/>
<path d="M39.5332 159.353L46.7078 152.179" stroke="#3F3F3F" stroke-width="0.707553" stroke-miterlimit="10"/>
<path d="M250.436 227.552C271.673 227.552 288.889 210.336 288.889 189.099C288.889 167.862 271.673 150.646 250.436 150.646C229.199 150.646 211.983 167.862 211.983 189.099C211.983 210.336 229.199 227.552 250.436 227.552Z" stroke="#F24E3D" stroke-width="0.943404" stroke-miterlimit="10"/>
<path d="M270.155 236.913C296.579 226.027 309.175 195.781 298.29 169.358C287.404 142.934 257.158 130.337 230.734 141.223C204.31 152.109 191.714 182.354 202.6 208.778C213.486 235.202 243.731 247.798 270.155 236.913Z" stroke="#B786FF" stroke-width="0.943404" stroke-miterlimit="10"/>
<path d="M250.436 234.198C241.516 234.198 232.797 231.553 225.38 226.598C217.964 221.642 212.183 214.598 208.77 206.358C205.356 198.117 204.463 189.049 206.203 180.3C207.943 171.552 212.239 163.516 218.546 157.209C224.853 150.901 232.889 146.606 241.638 144.866C250.386 143.126 259.454 144.019 267.695 147.432C275.936 150.846 282.979 156.626 287.935 164.043C292.891 171.46 295.536 180.179 295.536 189.099C295.522 201.056 290.766 212.519 282.311 220.974C273.856 229.429 262.393 234.185 250.436 234.198V234.198Z" stroke="#B786FF" stroke-width="0.943404" stroke-miterlimit="10"/>
<path d="M250.436 227.552C271.673 227.552 288.889 210.336 288.889 189.099C288.889 167.862 271.673 150.646 250.436 150.646C229.199 150.646 211.983 167.862 211.983 189.099C211.983 210.336 229.199 227.552 250.436 227.552Z" stroke="#B786FF" stroke-width="0.943404" stroke-miterlimit="10"/>
<path d="M204.86 171.504C212.264 171.504 218.266 165.502 218.266 158.099C218.266 150.695 212.264 144.693 204.86 144.693C197.456 144.693 191.454 150.695 191.454 158.099C191.454 165.502 197.456 171.504 204.86 171.504Z" fill="#E2CEFF"/>
<path d="M300.029 -11H260V3.18886C260 7.60714 263.582 11.1889 268 11.1889H300.029V-11Z" fill="#E2CEFF"/>
</g>
</svg>
