<svg width="40" height="40" viewBox="0 0 40 40" fill="none" xmlns="http://www.w3.org/2000/svg">
<path d="M20 10C14.4773 10 10 14.4773 10 20C10 25.5227 14.4773 30 20 30C25.5227 30 30 25.5227 30 20C30 14.4773 25.5203 10.0059 20 10ZM20 28.3332C15.3977 28.3332 11.6668 24.6023 11.6668 20C11.6668 15.3977 15.3977 11.6668 20 11.6668C24.6023 11.6668 28.3332 15.3977 28.3332 20C28.3332 24.6023 24.6004 28.3281 20 28.3332Z" fill="black"/>
<path d="M20.5976 14.2187C20.117 14.1312 19.623 14.1503 19.1506 14.2747C18.6782 14.3992 18.239 14.626 17.864 14.9391C17.4889 15.2521 17.1873 15.6438 16.9804 16.0863C16.7735 16.5289 16.6664 17.0115 16.6667 17.5C16.6667 17.721 16.7545 17.9329 16.9108 18.0892C17.067 18.2454 17.279 18.3332 17.5 18.3332C17.7209 18.3332 17.9329 18.2454 18.0891 18.0892C18.2454 17.9329 18.3332 17.721 18.3332 17.5C18.333 17.281 18.376 17.0641 18.4597 16.8618C18.5434 16.6594 18.6661 16.4755 18.8209 16.3206C18.9757 16.1657 19.1595 16.0429 19.3618 15.959C19.5641 15.8752 19.781 15.832 20 15.832C20.1048 15.8316 20.2095 15.8412 20.3125 15.8609C20.6416 15.9247 20.9442 16.0851 21.1817 16.3217C21.4192 16.5583 21.5809 16.8602 21.646 17.1891C21.7116 17.5345 21.6663 17.8917 21.5165 18.2098C21.3668 18.5279 21.1204 18.7905 20.8125 18.9602C20.3029 19.2557 19.8819 19.6825 19.5934 20.196C19.3048 20.7096 19.1592 21.2911 19.1718 21.8801V22.5C19.1718 22.721 19.2596 22.9329 19.4159 23.0892C19.5721 23.2454 19.7841 23.3332 20.005 23.3332C20.226 23.3332 20.4379 23.2454 20.5942 23.0892C20.7504 22.9329 20.8382 22.721 20.8382 22.5V21.8809C20.8279 21.5909 20.894 21.3032 21.0301 21.0469C21.1661 20.7906 21.3672 20.5746 21.6132 20.4207C22.2172 20.0888 22.7035 19.578 23.0051 18.9583C23.3067 18.3387 23.4089 17.6408 23.2975 16.9607C23.1862 16.2807 22.8667 15.6518 22.3832 15.1608C21.8997 14.6697 21.2759 14.3406 20.5976 14.2187Z" fill="black"/>
<path d="M20 24.1668C20.2209 24.1668 20.4329 24.2546 20.5891 24.4108C20.7454 24.5671 20.8332 24.779 20.8332 25C20.8332 25.221 20.7454 25.4329 20.5891 25.5892C20.4329 25.7454 20.2209 25.8332 20 25.8332C19.779 25.8332 19.567 25.7454 19.4108 25.5892C19.2545 25.4329 19.1667 25.221 19.1667 25C19.1667 24.779 19.2545 24.5671 19.4108 24.4108C19.567 24.2546 19.779 24.1668 20 24.1668Z" fill="black"/>
</svg>
