<svg width="40" height="40" viewBox="0 0 40 40" fill="none" xmlns="http://www.w3.org/2000/svg">
<path d="M29.8964 20.3909C29.7994 22.8868 28.7716 25.2559 27.0153 27.032C25.2591 28.808 22.9017 29.8624 20.407 29.9874C17.9124 30.1125 15.4614 29.2993 13.5363 27.7078C11.6112 26.1163 10.3516 23.8619 10.0054 21.3882C10.0014 21.3533 9.9996 21.3181 10.0001 21.2829C10.0016 21.1715 10.025 21.0614 10.0691 20.959C10.1132 20.8566 10.177 20.7639 10.2569 20.6862C10.3369 20.6085 10.4313 20.5474 10.5349 20.5062C10.6385 20.4651 10.7492 20.4447 10.8607 20.4464C11.0698 20.4486 11.271 20.5261 11.4276 20.6647C11.5842 20.8033 11.6856 20.9936 11.7131 21.2009V21.2091C11.9008 22.4787 12.3808 23.6873 13.1155 24.7396C13.8501 25.792 14.8192 26.6592 15.9463 27.273C17.0735 27.8867 18.3278 28.2302 19.6103 28.2762C20.8929 28.3223 22.1686 28.0698 23.3369 27.5385C24.5052 27.0072 25.534 26.2118 26.3423 25.2149C27.1505 24.218 27.7161 23.0469 27.9944 21.794C28.2727 20.5412 28.256 19.2408 27.9458 17.9955C27.6355 16.7502 27.0402 15.5939 26.2067 14.618C23.2401 11.1454 18.0006 10.7333 14.5279 13.7003L14.1586 14.0157L15.4914 15.3456C15.5502 15.4047 15.5903 15.4798 15.6065 15.5616C15.6226 15.6433 15.6143 15.728 15.5824 15.805C15.5504 15.882 15.4964 15.9479 15.4272 15.9942C15.3579 16.0406 15.2764 16.0653 15.1931 16.0654H11.201C11.0892 16.0653 10.982 16.0209 10.9029 15.9419C10.8238 15.8629 10.7793 15.7557 10.7791 15.6439V11.6531C10.7789 11.5695 10.8036 11.4877 10.85 11.4182C10.8964 11.3486 10.9625 11.2944 11.0397 11.2625C11.117 11.2305 11.202 11.2222 11.2839 11.2387C11.3659 11.2551 11.4412 11.2955 11.5001 11.3548L12.9585 12.8156L13.2752 12.5345C15.102 10.9085 17.4606 10.007 19.9062 10C20.0286 10 20.1547 10.0024 20.278 10.0073C22.9301 10.1091 25.4333 11.2601 27.2369 13.2073C29.0405 15.1545 29.9969 17.7383 29.8956 20.3905L29.8964 20.3909Z" fill="black"/>
<path d="M21.7595 23.1359C21.6021 23.299 21.3865 23.393 21.1599 23.3974C20.9333 23.4019 20.7141 23.3164 20.5504 23.1596L18.9925 21.6016C18.8721 21.4819 18.7766 21.3396 18.7116 21.1827C18.6466 21.0259 18.6133 20.8577 18.6138 20.688V16.9509C18.6138 16.7237 18.7041 16.5057 18.8648 16.345C19.0255 16.1843 19.2434 16.094 19.4707 16.094C19.698 16.094 19.9159 16.1843 20.0766 16.345C20.2374 16.5057 20.3276 16.7237 20.3276 16.9509V20.5137L21.762 21.9481C21.9159 22.1076 22.0017 22.3208 22.0012 22.5425C22.0008 22.7642 21.9141 22.977 21.7595 23.1359Z" fill="black"/>
</svg>
