<svg width="40" height="40" viewBox="0 0 40 40" fill="none" xmlns="http://www.w3.org/2000/svg">
<path d="M28.1614 14.6536L22.3298 10.7181C21.6418 10.2502 20.8291 10 19.9971 10C19.1652 10 18.3524 10.2502 17.6645 10.7181L11.8328 14.6536C11.2681 15.0353 10.8057 15.5497 10.4861 16.1518C10.1666 16.7539 9.99965 17.4251 10 18.1068V25.8345C10.0013 26.9389 10.4406 27.9976 11.2215 28.7785C12.0024 29.5594 13.0611 29.9987 14.1655 30H25.8288C26.9331 29.9987 27.9919 29.5594 28.7727 28.7785C29.5536 27.9976 29.9929 26.9389 29.9942 25.8345V18.1068C29.9946 17.4251 29.8277 16.7539 29.5081 16.1518C29.1886 15.5497 28.7261 15.0353 28.1614 14.6536ZM28.3281 25.8345C28.3281 26.4974 28.0647 27.1331 27.596 27.6018C27.1273 28.0705 26.4916 28.3338 25.8288 28.3338H14.1655C13.5026 28.3338 12.8669 28.0705 12.3982 27.6018C11.9295 27.1331 11.6662 26.4974 11.6662 25.8345V18.1068C11.6662 17.6976 11.7666 17.2948 11.9586 16.9335C12.1506 16.5723 12.4284 16.2637 12.7675 16.0349L18.5992 12.0993C19.0116 11.8192 19.4986 11.6694 19.9971 11.6694C20.4957 11.6694 20.9827 11.8192 21.3951 12.0993L27.2267 16.0349C27.5658 16.2637 27.8436 16.5723 28.0356 16.9335C28.2277 17.2948 28.3281 17.6976 28.3281 18.1068V25.8345ZM19.9971 15.8424C19.0076 15.8423 18.0403 16.1359 17.2178 16.6859C16.3953 17.236 15.7545 18.0178 15.3767 18.9324C14.9988 19.8469 14.901 20.853 15.0954 21.8232C15.2899 22.7935 15.7679 23.6841 16.469 24.3825L17.9885 25.8687C18.527 26.3901 19.2472 26.6817 19.9967 26.6817C20.7463 26.6817 21.4664 26.3901 22.0049 25.8687L23.5319 24.3758C24.2311 23.6767 24.7073 22.786 24.9002 21.8163C25.0931 20.8466 24.9941 19.8415 24.6158 18.928C24.2374 18.0146 23.5966 17.2339 22.7745 16.6846C21.9524 16.1354 20.9858 15.8423 19.9971 15.8424ZM22.3598 23.1911L20.8394 24.6782C20.6134 24.897 20.3112 25.0193 19.9967 25.0193C19.6822 25.0193 19.38 24.897 19.154 24.6782L17.6403 23.1978C17.1746 22.732 16.8573 22.1387 16.7286 21.4927C16.5999 20.8467 16.6655 20.1771 16.9171 19.5684C17.1688 18.9597 17.5952 18.4392 18.1424 18.0727C18.6897 17.7062 19.3333 17.5101 19.992 17.5091C20.6507 17.5082 21.2949 17.7025 21.8432 18.0675C22.3915 18.4324 22.8193 18.9517 23.0727 19.5597C23.3261 20.1677 23.3936 20.8371 23.2667 21.4835C23.1398 22.1298 22.8242 22.724 22.3598 23.1911ZM20.8302 20.836C20.8302 21.0007 20.7814 21.1618 20.6898 21.2988C20.5983 21.4358 20.4682 21.5426 20.3159 21.6056C20.1637 21.6687 19.9962 21.6852 19.8346 21.6531C19.673 21.6209 19.5245 21.5416 19.408 21.4251C19.2915 21.3085 19.2122 21.1601 19.18 20.9985C19.1479 20.8369 19.1644 20.6694 19.2274 20.5172C19.2905 20.3649 19.3973 20.2348 19.5343 20.1433C19.6713 20.0517 19.8324 20.0029 19.9971 20.0029C20.2181 20.0029 20.43 20.0906 20.5862 20.2469C20.7424 20.4031 20.8302 20.615 20.8302 20.836Z" fill="black"/>
</svg>
