<svg width="159" height="185" viewBox="0 0 159 185" fill="none" xmlns="http://www.w3.org/2000/svg">
<path d="M0 40C0 21.1438 0 11.7157 5.85786 5.85786C11.7157 0 21.1438 0 40 0H119C137.856 0 147.284 0 153.142 5.85786C159 11.7157 159 21.1438 159 40V145C159 163.856 159 173.284 153.142 179.142C147.284 185 137.856 185 119 185H40C21.1438 185 11.7157 185 5.85786 179.142C0 173.284 0 163.856 0 145V40Z" fill="#E6F2FF"/>
<mask id="mask0_85_1201" style="mask-type:alpha" maskUnits="userSpaceOnUse" x="0" y="0" width="159" height="185">
<path d="M0 40C0 21.1438 0 11.7157 5.85786 5.85786C11.7157 0 21.1438 0 40 0H119C137.856 0 147.284 0 153.142 5.85786C159 11.7157 159 21.1438 159 40V145C159 163.856 159 173.284 153.142 179.142C147.284 185 137.856 185 119 185H40C21.1438 185 11.7157 185 5.85786 179.142C0 173.284 0 163.856 0 145V40Z" fill="#E6F2FF"/>
</mask>
<g mask="url(#mask0_85_1201)">
<path d="M168.707 36.3842C170.515 34.3517 172.903 32.9348 175.543 32.3289C178.182 31.7231 180.943 31.9581 183.445 33.0016C185.947 34.0451 188.066 35.8457 189.509 38.1549C190.953 40.4641 191.651 43.1682 191.506 45.8941C191.411 47.7365 191.701 49.5784 192.356 51.3007C193.012 53.0231 194.018 54.5876 195.311 55.8933C196.603 57.1989 198.153 58.2165 199.86 58.8805C201.567 59.5444 203.393 59.8398 205.221 59.7476C207.924 59.6015 210.606 60.3048 212.896 61.7606C215.186 63.2164 216.972 65.3529 218.007 67.8754C219.042 70.3979 219.275 73.1821 218.674 75.8438C218.073 78.5055 216.668 80.9137 214.652 82.736C213.292 83.9715 212.205 85.4812 211.461 87.1674C210.717 88.8536 210.332 90.6786 210.332 92.5242C210.332 94.3698 210.717 96.1948 211.461 97.881C212.205 99.5672 213.292 101.077 214.652 102.312C216.668 104.135 218.073 106.543 218.674 109.205C219.275 111.866 219.042 114.65 218.007 117.173C216.972 119.695 215.186 121.832 212.896 123.288C210.606 124.744 207.924 125.447 205.221 125.301C203.396 125.206 201.571 125.497 199.865 126.157C198.158 126.816 196.608 127.829 195.313 129.13C194.019 130.43 193.009 131.99 192.349 133.708C191.689 135.427 191.394 137.265 191.482 139.106C191.627 141.832 190.929 144.536 189.485 146.845C188.042 149.154 185.923 150.955 183.421 151.998C180.919 153.042 178.158 153.277 175.519 152.671C172.879 152.065 170.491 150.648 168.683 148.616C167.458 147.245 165.961 146.149 164.289 145.398C162.616 144.648 160.806 144.26 158.976 144.26C157.146 144.26 155.336 144.648 153.663 145.398C151.991 146.149 150.494 147.245 149.269 148.616C147.461 150.648 145.073 152.065 142.433 152.671C139.794 153.277 137.033 153.042 134.531 151.998C132.029 150.955 129.91 149.154 128.467 146.845C127.023 144.536 126.325 141.832 126.47 139.106C126.565 137.266 126.275 135.426 125.621 133.705C124.967 131.985 123.963 130.421 122.673 129.116C121.383 127.811 119.836 126.793 118.132 126.127C116.428 125.462 114.605 125.164 112.779 125.252C110.076 125.399 107.394 124.695 105.104 123.239C102.814 121.784 101.028 119.647 99.9933 117.125C98.9584 114.602 98.7253 111.818 99.3262 109.156C99.9271 106.494 101.332 104.086 103.348 102.264C104.708 101.029 105.795 99.5188 106.539 97.8326C107.283 96.1464 107.668 94.3214 107.668 92.4758C107.668 90.6302 107.283 88.8052 106.539 87.119C105.795 85.4328 104.708 83.9231 103.348 82.6876C101.332 80.8653 99.9271 78.4571 99.3262 75.7954C98.7253 73.1337 98.9584 70.3495 99.9933 67.827C101.028 65.3046 102.814 63.168 105.104 61.7122C107.394 60.2564 110.076 59.5531 112.779 59.6992C114.604 59.7944 116.429 59.5028 118.135 58.8433C119.842 58.1838 121.392 57.1711 122.687 55.8704C123.981 54.5697 124.991 53.01 125.651 51.2917C126.311 49.5734 126.606 47.7347 126.518 45.8941C126.373 43.1682 127.071 40.4641 128.515 38.1549C129.958 35.8457 132.077 34.0451 134.579 33.0016C137.081 31.9581 139.842 31.7231 142.481 32.3289C145.121 32.9348 147.509 34.3517 149.317 36.3842C150.542 37.7513 152.038 38.8441 153.708 39.5921C155.378 40.34 157.185 40.7265 159.012 40.7265C160.839 40.7265 162.646 40.34 164.316 39.5921C165.986 38.8441 167.482 37.7513 168.707 36.3842Z" fill="#D7EBFF"/>
</g>
<path d="M18.507 30L21.146 20.3865H22.875L25.4945 30H24.3505L22.004 21.108H22.017L19.651 30H18.507ZM19.872 27.4585V26.4835H24.149V27.4585H19.872ZM29.738 30.13C29.1703 30.13 28.6503 29.9935 28.178 29.7205C27.7057 29.4432 27.3287 29.038 27.047 28.505C26.7653 27.9677 26.6245 27.3133 26.6245 26.542C26.6245 25.7837 26.7675 25.1402 27.0535 24.6115C27.3395 24.0828 27.7187 23.682 28.191 23.409C28.6633 23.1317 29.179 22.993 29.738 22.993C30.271 22.993 30.7693 23.1208 31.233 23.3765C31.701 23.6278 32.078 23.9788 32.364 24.4295C32.65 24.8802 32.793 25.4023 32.793 25.996C32.793 26.009 32.793 26.022 32.793 26.035C32.793 26.048 32.793 26.061 32.793 26.074L32 26.1065C32 26.0935 32 26.0805 32 26.0675C32 26.0502 32 26.035 32 26.022C32 25.645 31.9003 25.3048 31.701 25.0015C31.506 24.6982 31.2482 24.4577 30.9275 24.28C30.6068 24.098 30.2623 24.007 29.894 24.007C29.2787 24.007 28.7695 24.215 28.3665 24.631C27.9635 25.0427 27.762 25.6797 27.762 26.542C27.762 27.4 27.9635 28.0392 28.3665 28.4595C28.7738 28.8755 29.283 29.0835 29.894 29.0835C30.2797 29.0835 30.6307 28.9903 30.947 28.804C31.2677 28.6177 31.5233 28.3685 31.714 28.0565C31.9047 27.7402 32 27.387 32 26.997L32.793 27.0165C32.793 27.6058 32.6565 28.1367 32.3835 28.609C32.1105 29.077 31.7422 29.4475 31.2785 29.7205C30.8192 29.9935 30.3057 30.13 29.738 30.13ZM32 30V19.8405H33.1115V30H32ZM37.9011 30.13C37.3334 30.13 36.8134 29.9935 36.3411 29.7205C35.8687 29.4432 35.4917 29.038 35.2101 28.505C34.9284 27.9677 34.7876 27.3133 34.7876 26.542C34.7876 25.7837 34.9306 25.1402 35.2166 24.6115C35.5026 24.0828 35.8817 23.682 36.3541 23.409C36.8264 23.1317 37.3421 22.993 37.9011 22.993C38.4341 22.993 38.9324 23.1208 39.3961 23.3765C39.8641 23.6278 40.2411 23.9788 40.5271 24.4295C40.8131 24.8802 40.9561 25.4023 40.9561 25.996C40.9561 26.009 40.9561 26.022 40.9561 26.035C40.9561 26.048 40.9561 26.061 40.9561 26.074L40.1631 26.1065C40.1631 26.0935 40.1631 26.0805 40.1631 26.0675C40.1631 26.0502 40.1631 26.035 40.1631 26.022C40.1631 25.645 40.0634 25.3048 39.8641 25.0015C39.6691 24.6982 39.4112 24.4577 39.0906 24.28C38.7699 24.098 38.4254 24.007 38.0571 24.007C37.4417 24.007 36.9326 24.215 36.5296 24.631C36.1266 25.0427 35.9251 25.6797 35.9251 26.542C35.9251 27.4 36.1266 28.0392 36.5296 28.4595C36.9369 28.8755 37.4461 29.0835 38.0571 29.0835C38.4427 29.0835 38.7937 28.9903 39.1101 28.804C39.4307 28.6177 39.6864 28.3685 39.8771 28.0565C40.0677 27.7402 40.1631 27.387 40.1631 26.997L40.9561 27.0165C40.9561 27.6058 40.8196 28.1367 40.5466 28.609C40.2736 29.077 39.9052 29.4475 39.4416 29.7205C38.9822 29.9935 38.4687 30.13 37.9011 30.13ZM40.1631 30V19.8405H41.2746V30H40.1631ZM43.2822 30V23.097H44.3742V30H43.2822ZM43.8347 21.511C43.631 21.511 43.4533 21.4547 43.3017 21.342C43.1543 21.225 43.0807 21.0668 43.0807 20.8675C43.0807 20.6725 43.1543 20.5187 43.3017 20.406C43.4533 20.289 43.631 20.2305 43.8347 20.2305C44.0383 20.2305 44.2138 20.289 44.3612 20.406C44.5085 20.5187 44.5822 20.6725 44.5822 20.8675C44.5822 21.0668 44.5085 21.225 44.3612 21.342C44.2138 21.4547 44.0383 21.511 43.8347 21.511ZM49.7051 30.13C49.0464 30.13 48.4484 29.987 47.9111 29.701C47.3737 29.4107 46.9469 28.9968 46.6306 28.4595C46.3186 27.9222 46.1626 27.283 46.1626 26.542C46.1626 25.801 46.3186 25.1662 46.6306 24.6375C46.9469 24.1045 47.3737 23.6972 47.9111 23.4155C48.4484 23.1338 49.0464 22.993 49.7051 22.993C50.2077 22.993 50.6562 23.071 51.0506 23.227C51.4449 23.3787 51.7786 23.5823 52.0516 23.838C52.3246 24.0937 52.5326 24.3753 52.6756 24.683C52.8229 24.9863 52.8966 25.2897 52.8966 25.593C52.8966 25.5973 52.8966 25.6038 52.8966 25.6125C52.8966 25.6212 52.8966 25.6298 52.8966 25.6385H51.7981C51.7981 25.6168 51.7959 25.593 51.7916 25.567C51.7872 25.5367 51.7829 25.5063 51.7786 25.476C51.7439 25.1857 51.6334 24.9322 51.4471 24.7155C51.2607 24.4945 51.0181 24.3212 50.7191 24.1955C50.4201 24.0698 50.0799 24.007 49.6986 24.007C49.2696 24.007 48.8709 24.1002 48.5026 24.2865C48.1386 24.4685 47.8439 24.748 47.6186 25.125C47.3976 25.4977 47.2871 25.97 47.2871 26.542C47.2871 27.1097 47.3976 27.5842 47.6186 27.9655C47.8396 28.3468 48.1321 28.635 48.4961 28.83C48.8644 29.0207 49.2652 29.116 49.6986 29.116C50.1666 29.116 50.5522 29.0423 50.8556 28.895C51.1589 28.7477 51.3864 28.5527 51.5381 28.31C51.6941 28.063 51.7807 27.7987 51.7981 27.517H52.8966C52.8966 27.829 52.8272 28.141 52.6886 28.453C52.5499 28.7607 52.3462 29.0423 52.0776 29.298C51.8089 29.5493 51.4752 29.7508 51.0766 29.9025C50.6822 30.0542 50.2251 30.13 49.7051 30.13ZM57.2079 30.104C56.9956 30.104 56.7876 30.0802 56.5839 30.0325C56.3802 29.9848 56.1961 29.9003 56.0314 29.779C55.8711 29.6533 55.7432 29.4778 55.6479 29.2525C55.5526 29.0228 55.5049 28.7282 55.5049 28.3685C55.5049 28.2775 55.5049 28.1843 55.5049 28.089C55.5049 27.9893 55.5049 27.8853 55.5049 27.777V24.072H53.8214V23.097H54.9004C55.0477 23.097 55.1626 23.0927 55.2449 23.084C55.3272 23.071 55.3857 23.0428 55.4204 22.9995C55.4594 22.9518 55.4832 22.8803 55.4919 22.785C55.5006 22.6853 55.5049 22.5488 55.5049 22.3755V20.809H56.6164V23.097H58.7744V24.072H56.6164V27.4195C56.6164 27.5148 56.6164 27.608 56.6164 27.699C56.6164 27.79 56.6164 27.8745 56.6164 27.9525C56.6164 28.3208 56.6597 28.609 56.7464 28.817C56.8374 29.025 57.0389 29.129 57.3509 29.129C57.4766 29.129 57.5957 29.1182 57.7084 29.0965C57.8211 29.0748 57.9056 29.0532 57.9619 29.0315V29.9935C57.8882 30.0195 57.7842 30.0433 57.6499 30.065C57.5199 30.091 57.3726 30.104 57.2079 30.104ZM60.2558 30V23.097H61.3478V30H60.2558ZM60.8083 21.511C60.6046 21.511 60.427 21.4547 60.2753 21.342C60.128 21.225 60.0543 21.0668 60.0543 20.8675C60.0543 20.6725 60.128 20.5187 60.2753 20.406C60.427 20.289 60.6046 20.2305 60.8083 20.2305C61.012 20.2305 61.1875 20.289 61.3348 20.406C61.4821 20.5187 61.5558 20.6725 61.5558 20.8675C61.5558 21.0668 61.4821 21.225 61.3348 21.342C61.1875 21.4547 61.012 21.511 60.8083 21.511ZM66.6722 30.1235C65.9789 30.1235 65.3657 29.9697 64.8327 29.662C64.304 29.35 63.888 28.9253 63.5847 28.388C63.2857 27.8463 63.1362 27.231 63.1362 26.542C63.1362 25.853 63.2857 25.242 63.5847 24.709C63.888 24.176 64.304 23.7578 64.8327 23.4545C65.3657 23.1512 65.9789 22.9995 66.6722 22.9995C67.3655 22.9995 67.9765 23.1512 68.5052 23.4545C69.0382 23.7578 69.4542 24.176 69.7532 24.709C70.0565 25.242 70.2082 25.853 70.2082 26.542C70.2082 27.231 70.0565 27.8463 69.7532 28.388C69.4542 28.9253 69.0382 29.35 68.5052 29.662C67.9765 29.9697 67.3655 30.1235 66.6722 30.1235ZM66.6722 29.1095C67.1489 29.1095 67.5692 29.0033 67.9332 28.791C68.2972 28.5787 68.581 28.2797 68.7847 27.894C68.9927 27.5083 69.0967 27.0577 69.0967 26.542C69.0967 26.0263 68.9927 25.58 68.7847 25.203C68.581 24.8217 68.2972 24.5292 67.9332 24.3255C67.5692 24.1175 67.1489 24.0135 66.6722 24.0135C66.1999 24.0135 65.7795 24.1175 65.4112 24.3255C65.0472 24.5292 64.7612 24.8217 64.5532 25.203C64.3495 25.58 64.2477 26.0263 64.2477 26.542C64.2477 27.0577 64.3495 27.5083 64.5532 27.894C64.7612 28.2797 65.0472 28.5787 65.4112 28.791C65.7795 29.0033 66.1999 29.1095 66.6722 29.1095ZM76.874 30V26.6915C76.874 26.4922 76.874 26.3297 76.874 26.204C76.874 26.074 76.874 25.9505 76.874 25.8335C76.874 25.4738 76.8133 25.1597 76.692 24.891C76.5706 24.6223 76.38 24.4143 76.12 24.267C75.86 24.1197 75.5198 24.046 75.0995 24.046C74.7311 24.046 74.3888 24.1413 74.0725 24.332C73.7605 24.5183 73.5091 24.7718 73.3185 25.0925C73.1321 25.4088 73.039 25.7642 73.039 26.1585L72.4085 25.918C72.4085 25.3763 72.5406 24.8845 72.805 24.4425C73.0736 24.0005 73.429 23.6495 73.871 23.3895C74.3173 23.1252 74.8026 22.993 75.327 22.993C75.86 22.993 76.3258 23.0948 76.7245 23.2985C77.1231 23.5022 77.4308 23.7947 77.6475 24.176C77.8685 24.553 77.979 25.008 77.979 25.541C77.979 25.7317 77.979 25.9397 77.979 26.165C77.979 26.3903 77.979 26.6005 77.979 26.7955V30H76.874ZM71.934 30V23.097H73.039V30H71.934Z" fill="black"/>
<path d="M18.4621 51L21.2569 40.1657H24.3084L27.0811 51H25.0932L22.7753 41.3614H22.79L20.45 51H18.4621ZM20.2666 48.3666V46.8189H25.2986V48.3666H20.2666ZM30.5198 39.5349V51H28.6199V39.5349H30.5198ZM36.3438 51.1614C35.5222 51.1614 34.796 50.9927 34.1652 50.6552C33.5344 50.3178 33.0404 49.8435 32.6835 49.2322C32.3265 48.6209 32.148 47.9045 32.148 47.0829C32.148 46.2663 32.3265 45.5572 32.6835 44.9557C33.0404 44.3542 33.5344 43.8921 34.1652 43.5693C34.796 43.2417 35.5222 43.0779 36.3438 43.0779C36.9599 43.0779 37.5052 43.1683 37.9796 43.3493C38.4539 43.5302 38.8525 43.7723 39.1752 44.0755C39.5029 44.3738 39.7523 44.7039 39.9234 45.0657C40.0946 45.4227 40.1802 45.7797 40.1802 46.1367C40.1802 46.1465 40.1802 46.1562 40.1802 46.166C40.1802 46.1758 40.1802 46.1856 40.1802 46.1954H38.2656C38.2656 46.1709 38.2632 46.144 38.2583 46.1147C38.2534 46.0853 38.2485 46.056 38.2436 46.0267C38.2045 45.7773 38.1043 45.5523 37.9429 45.3518C37.7815 45.1464 37.5663 44.9826 37.2974 44.8603C37.0284 44.7381 36.7032 44.677 36.3218 44.677C35.9159 44.677 35.5442 44.7674 35.2068 44.9484C34.8743 45.1244 34.6078 45.3909 34.4073 45.7479C34.2117 46.1049 34.1138 46.5499 34.1138 47.0829C34.1138 47.6111 34.2117 48.061 34.4073 48.4326C34.6029 48.7994 34.8669 49.0806 35.1995 49.2762C35.5369 49.4669 35.911 49.5623 36.3218 49.5623C36.757 49.5623 37.1115 49.4963 37.3854 49.3642C37.6641 49.2273 37.8744 49.0464 38.0162 48.8214C38.158 48.5916 38.2387 48.3422 38.2583 48.0732H40.1802C40.1802 48.4351 40.097 48.7994 39.9307 49.1662C39.7645 49.528 39.52 49.8606 39.1972 50.1638C38.8745 50.467 38.4735 50.709 37.9942 50.89C37.5199 51.0709 36.9697 51.1614 36.3438 51.1614ZM45.6055 51.154C44.784 51.154 44.0602 50.9829 43.4343 50.6406C42.8083 50.2934 42.3169 49.8141 41.9599 49.2028C41.6078 48.5916 41.4317 47.8923 41.4317 47.1049C41.4317 46.3127 41.6078 45.6159 41.9599 45.0144C42.3169 44.408 42.8083 43.9336 43.4343 43.5913C44.0602 43.249 44.784 43.0779 45.6055 43.0779C46.4271 43.0779 47.1508 43.249 47.7768 43.5913C48.4027 43.9336 48.8917 44.408 49.2438 45.0144C49.6008 45.6159 49.7793 46.3127 49.7793 47.1049C49.7793 47.8923 49.6008 48.5916 49.2438 49.2028C48.8917 49.8141 48.4027 50.2934 47.7768 50.6406C47.1508 50.9829 46.4271 51.154 45.6055 51.154ZM45.6055 49.5769C46.0505 49.5769 46.4393 49.4743 46.7718 49.2689C47.1044 49.0635 47.3636 48.7774 47.5494 48.4106C47.7352 48.039 47.8281 47.6038 47.8281 47.1049C47.8281 46.6061 47.7352 46.1758 47.5494 45.8139C47.3636 45.4472 47.1044 45.1635 46.7718 44.963C46.4393 44.7625 46.0505 44.6623 45.6055 44.6623C45.1654 44.6623 44.7766 44.7625 44.4392 44.963C44.1067 45.1635 43.8475 45.4472 43.6617 45.8139C43.4758 46.1758 43.3829 46.6061 43.3829 47.1049C43.3829 47.6038 43.4758 48.039 43.6617 48.4106C43.8475 48.7774 44.1067 49.0635 44.4392 49.2689C44.7766 49.4743 45.1654 49.5769 45.6055 49.5769ZM56.8916 51V48.1906C56.8916 48.0732 56.8916 47.9265 56.8916 47.7505C56.8916 47.5744 56.8916 47.3959 56.8916 47.215C56.8916 47.034 56.8916 46.8849 56.8916 46.7675C56.8916 46.122 56.7645 45.6281 56.5102 45.2858C56.2608 44.9386 55.8329 44.765 55.2265 44.765C54.8206 44.765 54.4734 44.8457 54.1849 45.007C53.9012 45.1635 53.6836 45.3836 53.532 45.6672C53.3804 45.9509 53.3046 46.2785 53.3046 46.6502L52.6004 46.2761C52.6004 45.655 52.7398 45.1049 53.0186 44.6256C53.3022 44.1415 53.6934 43.7625 54.1922 43.4886C54.691 43.2148 55.2632 43.0779 55.9087 43.0779C56.8525 43.0779 57.5738 43.359 58.0726 43.9214C58.5714 44.4789 58.8208 45.2565 58.8208 46.2541C58.8208 46.5083 58.8208 46.8115 58.8208 47.1636C58.8208 47.5108 58.8208 47.9021 58.8208 48.3373V51H56.8916ZM51.3754 51V39.5349H53.3046V51H51.3754ZM64.5169 51.154C63.6953 51.154 62.9716 50.9829 62.3456 50.6406C61.7197 50.2934 61.2282 49.8141 60.8712 49.2028C60.5191 48.5916 60.3431 47.8923 60.3431 47.1049C60.3431 46.3127 60.5191 45.6159 60.8712 45.0144C61.2282 44.408 61.7197 43.9336 62.3456 43.5913C62.9716 43.249 63.6953 43.0779 64.5169 43.0779C65.3384 43.0779 66.0622 43.249 66.6881 43.5913C67.3141 43.9336 67.8031 44.408 68.1552 45.0144C68.5122 45.6159 68.6907 46.3127 68.6907 47.1049C68.6907 47.8923 68.5122 48.5916 68.1552 49.2028C67.8031 49.8141 67.3141 50.2934 66.6881 50.6406C66.0622 50.9829 65.3384 51.154 64.5169 51.154ZM64.5169 49.5769C64.9619 49.5769 65.3507 49.4743 65.6832 49.2689C66.0157 49.0635 66.2749 48.7774 66.4607 48.4106C66.6466 48.039 66.7395 47.6038 66.7395 47.1049C66.7395 46.6061 66.6466 46.1758 66.4607 45.8139C66.2749 45.4472 66.0157 45.1635 65.6832 44.963C65.3507 44.7625 64.9619 44.6623 64.5169 44.6623C64.0768 44.6623 63.688 44.7625 63.3506 44.963C63.018 45.1635 62.7588 45.4472 62.573 45.8139C62.3872 46.1758 62.2943 46.6061 62.2943 47.1049C62.2943 47.6038 62.3872 48.039 62.573 48.4106C62.7588 48.7774 63.018 49.0635 63.3506 49.2689C63.688 49.4743 64.0768 49.5769 64.5169 49.5769ZM72.2967 39.5349V51H70.3968V39.5349H72.2967Z" fill="black"/>
<path d="M19.1585 167C18.2681 166.583 18 165.863 18 164.914C18.0157 145.696 18.0189 126.478 18.0098 107.259C18.0098 103.435 19.4717 100.393 22.7614 98.3326C23.3896 97.9412 24.327 97.8003 24.6773 97.2582C25.0276 96.7162 24.7967 95.7866 24.9435 95.0547C25.7008 91.2424 27.879 88.5965 31.6071 87.4223C35.3038 86.2325 39.3509 87.6239 41.6798 90.7512C41.8187 90.9352 41.9655 91.1132 42.1416 91.3383C43.67 90.5868 45.2611 90.1484 46.9617 90.2835C50.8757 90.5966 53.6155 92.6201 55.1674 96.1936C55.4727 96.8962 55.8406 97.2387 56.5569 97.4344C60.0639 98.3972 62.9759 101.84 63.2107 105.474C63.3536 107.648 63.2381 109.842 63.2381 112.151H64.2166C66.7607 112.151 69.3205 112.151 71.8724 112.151C78.1466 112.175 82.9823 116.312 83.951 122.488C84.0202 122.978 84.0503 123.473 84.0411 123.967C84.0411 129.279 84.1076 134.594 83.9921 139.903C83.8747 145.336 79.3286 150.301 73.9194 150.863C71.3166 151.135 68.6688 151.005 66.0425 151.058C65.1873 151.072 64.3301 151.058 63.3731 151.058V151.933C63.3731 156.281 63.3614 160.632 63.3731 164.98C63.3731 165.959 63.0424 166.64 62.1167 166.998L19.1585 167ZM21.2036 159.209V163.824H60.2008V159.209H39.4566C39.1444 159.22 38.8319 159.21 38.5211 159.178C38.1699 159.131 37.8459 158.963 37.604 158.704C37.3621 158.445 37.2174 158.111 37.1943 157.757C37.1644 157.403 37.263 157.05 37.4721 156.762C37.6813 156.475 37.987 156.272 38.3333 156.191C38.6878 156.113 39.0504 156.076 39.4135 156.084C46.0282 156.084 52.6429 156.084 59.2576 156.084H60.1969V121.842H59.3084C55.1146 121.842 50.9227 121.852 46.7308 121.842C45.6407 121.842 44.6838 121.842 43.7953 122.766C42.6641 123.92 41.0887 123.94 39.4781 123.572C39.4781 123.903 39.4781 124.187 39.4781 124.468C39.4781 125.874 39.527 127.285 39.4449 128.686C39.375 129.856 38.8612 130.955 38.0083 131.759C37.1553 132.562 36.0277 133.01 34.8557 133.011C33.6832 133.033 32.5478 132.599 31.6882 131.802C30.8287 131.004 30.3121 129.904 30.2469 128.733C30.1432 126.733 30.2 124.725 30.1863 122.721C30.1863 122.445 30.1863 122.169 30.1863 121.899H21.2017V156.078C22.1802 156.078 23.0823 156.066 23.9884 156.078C24.793 156.062 25.5977 156.099 26.3975 156.188C26.7499 156.25 27.0667 156.441 27.2868 156.723C27.5069 157.005 27.6146 157.359 27.5893 157.716C27.5697 158.082 27.4215 158.429 27.1708 158.696C26.9202 158.963 26.5832 159.133 26.2194 159.176C25.8824 159.206 25.5438 159.215 25.2057 159.203C23.871 159.209 22.55 159.209 21.2036 159.209ZM59.9699 105.26C59.7253 102.934 57.5471 100.628 55.0774 100.282C53.6057 100.074 52.8914 99.4579 52.4961 97.9921C51.8483 95.5752 50.1477 94.0057 47.6721 93.5145C45.31 93.0468 43.2786 93.7904 41.7854 95.7044C41.0887 96.5987 40.5525 97.6203 39.9674 98.5988C39.6132 99.1859 39.1259 99.5362 38.4331 99.454C37.7951 99.3796 37.2589 99.043 37.1434 98.3855C37.0524 97.9353 37.1044 97.468 37.2921 97.0488C37.983 95.7494 38.7677 94.5047 39.5623 93.1583C38.3685 91.2816 36.5915 90.1113 34.2177 90.1484C31.7558 90.1856 29.9123 91.3931 28.7381 93.5536C28.0168 94.8656 27.7557 96.3813 27.9964 97.859C28.2038 99.3248 27.7733 99.9119 26.3368 100.251C25.9033 100.334 25.4791 100.461 25.0707 100.628C23.0882 101.536 21.869 103.074 21.3269 105.26H22.2858C25.3583 105.26 28.4308 105.26 31.5033 105.26C32.658 105.26 33.2196 105.818 33.3018 106.963C33.3194 107.221 33.3018 107.484 33.3018 107.746C33.3018 114.333 33.3018 120.922 33.3018 127.512C33.2939 127.824 33.3037 128.136 33.3312 128.447C33.4271 129.32 33.9907 129.854 34.8009 129.862C35.6111 129.87 36.2432 129.294 36.3293 128.404C36.345 128.17 36.3489 127.936 36.341 127.701C36.341 122.885 36.341 118.068 36.341 113.251C36.322 112.811 36.394 112.372 36.5524 111.961C36.8518 111.31 37.4331 111.032 38.163 111.163C38.9634 111.306 39.439 111.871 39.4488 112.775C39.4703 114.732 39.4488 116.689 39.4644 118.635C39.4536 118.998 39.5052 119.36 39.6171 119.705C39.8656 120.359 40.3999 120.666 41.0927 120.617C41.4088 120.618 41.7152 120.507 41.9584 120.305C42.2016 120.103 42.3661 119.822 42.4234 119.511C42.4956 119.155 42.5278 118.791 42.5193 118.427C42.5193 114.756 42.5193 111.084 42.5193 107.413C42.5193 105.746 42.9988 105.26 44.6446 105.26H59.9445H59.9699ZM63.4123 141.68C66.3928 141.68 69.2833 141.706 72.1679 141.67C73.6376 141.651 74.6651 140.567 74.6709 139.032C74.6944 134.089 74.6944 129.144 74.6709 124.198C74.6709 122.545 73.6102 121.539 71.9605 121.531C69.3068 121.519 66.6511 121.531 63.9974 121.531C63.8009 121.539 63.605 121.558 63.4103 121.586L63.4123 141.68ZM63.3947 118.392H64.2323C66.8096 118.392 69.387 118.374 71.9644 118.392C75.26 118.419 77.6925 120.613 77.7591 123.883C77.8648 129.008 77.8648 134.137 77.7591 139.269C77.6925 142.535 75.2659 144.749 71.982 144.788C69.4046 144.817 66.8273 144.788 64.2479 144.788H63.4358V147.919C66.3341 147.919 69.1717 147.935 72.0075 147.919C77.0272 147.884 80.8277 144.201 80.9059 139.175C80.9842 134.15 80.9823 129.073 80.9059 124.022C80.8296 118.971 77.0291 115.29 71.9487 115.269C69.344 115.257 66.7411 115.269 64.1383 115.269H63.4025L63.3947 118.392ZM45.7073 118.65H60.1891V108.446H45.7073V118.65ZM21.1997 108.417V118.664H30.1197V108.417H21.1997Z" fill="#49A4FF"/>
<path d="M53.4082 137.97C53.8513 137.993 54.2682 138.188 54.5716 138.511C54.8751 138.835 55.0416 139.264 55.0364 139.708C55.0177 140.149 54.8245 140.564 54.4994 140.863C54.1742 141.162 53.7437 141.319 53.3025 141.301C52.8613 141.282 52.4456 141.089 52.1469 140.764C51.8482 140.438 51.6908 140.008 51.7095 139.567C51.7418 139.136 51.9341 138.734 52.2485 138.438C52.5629 138.143 52.9767 137.975 53.4082 137.97Z" fill="#49A4FF"/>
<path d="M30.6208 159.197C30.4124 159.198 30.2059 159.158 30.0132 159.079C29.8204 158.999 29.6452 158.883 29.4975 158.736C29.3499 158.589 29.2327 158.414 29.1528 158.221C29.0729 158.029 29.0317 157.823 29.0317 157.614C29.0572 157.208 29.2344 156.825 29.5284 156.543C29.8224 156.261 30.2116 156.1 30.6189 156.092C31.0397 156.096 31.4416 156.267 31.7374 156.566C32.0331 156.866 32.1987 157.27 32.1982 157.691C32.1829 158.098 32.0096 158.483 31.7151 158.764C31.4206 159.045 31.0281 159.201 30.6208 159.197Z" fill="#49A4FF"/>
<path d="M37.8478 109.656C37.4413 109.628 37.0608 109.446 36.7842 109.147C36.5076 108.848 36.356 108.455 36.3604 108.047C36.3716 107.74 36.4738 107.442 36.654 107.193C36.8343 106.944 37.0846 106.753 37.3731 106.646C37.6617 106.539 37.9755 106.521 38.2747 106.592C38.574 106.664 38.8453 106.823 39.0542 107.049C39.2631 107.274 39.4002 107.557 39.4482 107.861C39.4961 108.165 39.4527 108.477 39.3235 108.756C39.1943 109.035 38.985 109.27 38.7223 109.43C38.4596 109.59 38.1552 109.669 37.8478 109.656Z" fill="#49A4FF"/>
</svg>
