<svg width="77" height="80" viewBox="0 0 77 80" fill="none" xmlns="http://www.w3.org/2000/svg">
<path d="M48.4789 31.9463C48.4325 32.2267 48.3133 32.49 48.1331 32.7098C47.9529 32.9295 47.718 33.0981 47.4522 33.1985C47.1778 33.3005 46.8814 33.3285 46.5928 33.2798C46.3041 33.2311 46.0334 33.1073 45.8077 32.9209C45.599 32.7519 45.4007 32.5745 45.2087 32.4055C44.9458 32.1759 44.7016 31.9589 44.4428 31.7794C42.4508 30.33 40.0145 29.6232 37.5561 29.7813C35.0977 29.9395 32.772 30.9527 30.9822 32.6455L30.93 32.6956C30.8404 32.7845 30.7456 32.8681 30.6461 32.946C30.3492 33.1827 29.9824 33.3148 29.6027 33.3216C29.3854 33.321 29.1706 33.2763 28.9712 33.1902C28.7717 33.1041 28.5918 32.9784 28.4424 32.8208C28.29 32.6702 28.1695 32.4905 28.088 32.2924C28.0065 32.0943 27.9657 31.8818 27.968 31.6676C27.9703 31.4534 28.0158 31.2419 28.1016 31.0456C28.1874 30.8493 28.3118 30.6723 28.4674 30.5251C28.9639 30.0301 29.4946 29.5705 30.0556 29.1499C32.5286 27.3259 35.3981 26.4744 39.0857 26.4744H39.0982C42.095 26.5036 45.288 27.9123 47.8633 30.3415C48.0344 30.5022 48.6333 31.0698 48.4789 31.9463Z" fill="#D05FFF"/>
<path d="M35.3542 15.8625C35.3539 16.0652 35.3127 16.2658 35.2331 16.4522C35.1535 16.6387 35.0371 16.8072 34.891 16.9477C34.5278 17.292 33.981 17.4673 33.2652 17.4673H33.1045C30.3289 17.2586 28.0625 15.8604 26.5453 13.4458C26.4104 13.2456 26.3168 13.0204 26.2702 12.7835C26.2236 12.5466 26.2249 12.3027 26.274 12.0663C26.3241 11.8593 26.4151 11.6644 26.5416 11.4931C26.6681 11.3218 26.8276 11.1775 27.0107 11.0688C27.8246 10.5679 28.7825 10.8288 29.3376 11.6949C30.3268 13.2517 31.7021 14.0614 33.5428 14.1741C34.6635 14.2451 35.3751 14.9087 35.3542 15.8625Z" fill="#D05FFF"/>
<path d="M49.8166 13.5251C48.2597 15.9835 45.9453 17.3734 43.1259 17.5424H43.0257C41.6316 17.5424 41.0786 16.7514 41.0264 16.0022C41.0095 15.7925 41.035 15.5815 41.1014 15.3818C41.1677 15.1821 41.2735 14.9978 41.4125 14.8398C41.5791 14.6612 41.7798 14.5179 42.0028 14.4182C42.2257 14.3186 42.4664 14.2646 42.7106 14.2597C44.6222 14.1616 46.0371 13.3456 47.0451 11.7553C47.5961 10.8893 48.579 10.6305 49.3825 11.1418C50.1859 11.6531 50.3759 12.6444 49.8166 13.5251Z" fill="#D05FFF"/>
<path d="M33.1692 20.8439V20.869C33.1687 21.5551 32.8979 22.2134 32.4155 22.7013C31.9331 23.1891 31.2779 23.4673 30.5918 23.4756H30.5668C29.875 23.4792 29.21 23.2078 28.7182 22.7211C28.2265 22.2344 27.9482 21.5723 27.9446 20.8805C27.941 20.1886 28.2124 19.5237 28.699 19.0319C29.1857 18.5401 29.8478 18.2618 30.5397 18.2582H30.5626C31.2504 18.2582 31.9102 18.53 32.3984 19.0143C32.8867 19.4986 33.1637 20.1563 33.1692 20.8439V20.8439Z" fill="#D05FFF"/>
<path d="M48.504 20.8732C48.5018 21.563 48.2267 22.224 47.7387 22.7116C47.2506 23.1993 46.5894 23.4739 45.8996 23.4756V23.4756C45.2077 23.4756 44.5442 23.2007 44.0549 22.7115C43.5657 22.2223 43.2909 21.5588 43.2909 20.8669C43.2909 20.175 43.5657 19.5115 44.0549 19.0223C44.5442 18.5331 45.2077 18.2582 45.8996 18.2582V18.2582C46.2424 18.2585 46.5818 18.3264 46.8983 18.458C47.2149 18.5897 47.5023 18.7825 47.7443 19.0254C47.9862 19.2683 48.1779 19.5565 48.3082 19.8736C48.4386 20.1907 48.5051 20.5303 48.504 20.8732V20.8732Z" fill="#D05FFF"/>
<path d="M11.6281 79.9832C10.858 79.5241 10.0023 79.1631 9.33244 78.5829C8.49767 77.8462 8.25764 76.7736 8.26182 75.6612C8.26182 74.359 8.26182 73.0567 8.26182 71.7545C8.26182 69.3232 9.22389 68.0106 11.5466 67.2342C11.8576 64.7716 11.6093 62.4343 9.78528 60.5561C7.96131 58.6778 6.11856 56.9394 4.26329 55.153C2.48105 53.4355 0.903315 51.6052 0.277238 49.1176C-0.206929 47.2018 0.0456276 45.2902 0.264755 43.3765C0.978483 37.1463 1.69705 30.9175 2.42051 24.6901C2.50293 23.68 2.65775 22.6771 2.88381 21.6891C3.56832 19.1285 5.99127 17.365 8.4434 17.5424C11.1564 17.7386 13.3643 19.6773 13.6273 22.4091C13.9153 25.4373 13.9696 28.4883 14.1177 31.529C14.2137 33.5262 14.2972 35.5234 14.3849 37.4788C15.1299 37.4788 15.7977 37.4433 16.4718 37.4788C17.6217 37.5581 18.7048 37.94 19.5083 38.7518C22.1775 41.4523 24.9009 44.1132 27.3885 46.9743C29.7676 49.7145 30.8632 53.0035 30.7464 56.7015C30.6462 59.978 30.7464 63.2607 30.7151 66.5414C30.7151 67.0297 30.834 67.2572 31.3307 67.4262C33.0357 68.0085 34.0688 69.4693 34.1021 71.2808C34.1293 72.7416 34.1168 74.2025 34.1021 75.6633C34.0875 77.7315 33.0587 79.138 31.0886 79.8372C30.9993 79.8788 30.9146 79.9298 30.8361 79.9895L11.6281 79.9832ZM27.6014 67.1486V66.2387C27.6014 63.0624 27.5179 59.8841 27.6243 56.7119C27.7287 53.6838 26.8271 51.0209 24.8654 48.8087C22.5385 46.1834 20.0655 43.6812 17.5612 41.2186C16.2193 39.8997 13.9216 40.6176 13.4186 42.4081C13.1264 43.4516 13.4186 44.349 14.195 45.1211C16.2277 47.1399 18.2526 49.1649 20.27 51.1962C20.9983 51.9329 21.0276 52.8365 20.3973 53.4918C19.7671 54.1471 18.8071 54.1179 18.1017 53.4292C15.9563 51.3026 13.7984 49.1907 11.7052 47.0161C9.94597 45.1879 9.71642 42.4248 10.9874 40.2106C11.1993 39.8366 11.3087 39.4133 11.3046 38.9835C11.1098 33.8608 10.8921 28.7388 10.6514 23.6175C10.6245 23.0469 10.4787 22.4882 10.2236 21.9771C9.36166 20.3076 7.20585 20.2262 6.24587 21.8394C5.94471 22.4114 5.76159 23.038 5.70742 23.6822C5.33178 26.6498 5.00413 29.6236 4.66396 32.5954C4.16171 37.0127 3.66085 41.4322 3.16138 45.8537C3.03218 46.8656 3.13407 47.8937 3.45939 48.8606C3.78471 49.8275 4.32498 50.7081 5.03962 51.4362C5.98082 52.4421 7.01387 53.3624 7.98847 54.337C9.44932 55.7979 10.9853 57.2316 12.3606 58.7863C13.1867 59.6905 13.8242 60.7503 14.2359 61.9038C14.6477 63.0573 14.8253 64.2812 14.7584 65.5042C14.7334 66.0405 14.7584 66.5789 14.7584 67.1424L27.6014 67.1486ZM21.1528 76.857C24.0139 76.857 26.8751 76.857 29.7363 76.857C30.6107 76.857 30.9718 76.5002 30.9885 75.6299C31.001 74.2776 31.001 72.9246 30.9885 71.5708C30.9885 70.6609 30.6212 70.3083 29.6946 70.3083C24.0237 70.3083 18.3528 70.3083 12.682 70.3083C11.7512 70.3083 11.4173 70.6422 11.4068 71.5813C11.3901 72.8814 11.3943 74.1816 11.4068 75.4817C11.4068 76.5732 11.7094 76.857 12.8113 76.8591C15.5883 76.8605 18.3688 76.8598 21.1528 76.857Z" fill="#D05FFF"/>
<path d="M45.5299 79.9832C45.3713 79.9081 45.2169 79.8226 45.0541 79.762C44.2339 79.4825 43.5229 78.951 43.0226 78.2435C42.5223 77.5359 42.2583 76.6884 42.2681 75.8219C42.2472 74.311 42.2431 72.8021 42.2681 71.2912C42.2596 70.4374 42.5238 69.6031 43.0223 68.9099C43.5207 68.2166 44.2274 67.7005 45.0395 67.4367C45.5278 67.2697 45.6656 67.0527 45.6656 66.5581C45.6447 63.2524 45.7324 59.9446 45.6343 56.641C45.5258 52.9993 46.6778 49.8105 48.9254 47.0411C50.4196 45.2109 52.11 43.5413 53.7253 41.8238C54.4745 41.0287 55.303 40.3066 56.0459 39.5052C57.6299 37.796 59.5478 37.1533 61.9207 37.6061C61.9645 37.1053 62.025 36.6232 62.0459 36.1453C62.2253 32.0111 62.384 27.8748 62.5801 23.7406C62.6037 22.9869 62.7201 22.2391 62.9266 21.5138C63.6737 19.045 65.9923 17.3922 68.3818 17.5487C69.6821 17.6172 70.9178 18.1369 71.8762 19.0184C72.8345 19.8998 73.4556 21.0878 73.6325 22.3778C74.102 25.8839 74.4672 29.4045 74.8846 32.9189C75.3271 36.7421 75.6673 40.5821 76.2161 44.397C76.79 48.3621 75.6965 51.7012 72.8165 54.4539C71.124 56.0733 69.3835 57.6448 67.7202 59.2935C66.3846 60.6187 65.1011 62.0378 64.8424 64.0016C64.7067 65.045 64.8194 66.1261 64.8194 67.2363C65.1666 67.3558 65.5066 67.4952 65.8378 67.6537C67.2987 68.43 68.0583 69.6634 68.0917 71.31C68.123 72.8188 68.1272 74.3298 68.0917 75.8386C68.0437 78.0716 66.7749 79.353 64.7401 79.9999L45.5299 79.9832ZM61.5075 67.1507C61.6264 65.669 61.6139 64.2499 61.881 62.8871C62.3464 60.5247 63.8469 58.7258 65.506 57.0813C67.1651 55.4368 68.8451 53.8695 70.5397 52.2939C72.7831 50.207 73.5281 47.7173 73.1191 44.6766C72.3636 39.0586 71.7981 33.4072 71.147 27.783C70.9529 26.1134 70.788 24.4188 70.5209 22.7535C70.4363 22.18 70.1506 21.6552 69.7148 21.2729C69.279 20.8906 68.7215 20.6757 68.1418 20.6666C67.0462 20.6812 66.1133 21.518 65.8462 22.7535C65.782 23.032 65.7415 23.3154 65.7251 23.6008C65.4997 28.7485 65.2827 33.8963 65.074 39.044C65.0594 39.3995 65.1417 39.7522 65.3119 40.0645C66.7456 42.548 66.4389 45.2464 64.4208 47.2936C62.6678 49.0738 60.8897 50.8289 59.1221 52.5944C58.8821 52.8323 58.6442 53.0744 58.4021 53.3103C57.607 54.0824 56.6407 54.145 55.9917 53.4856C55.3426 52.8261 55.4095 51.9099 56.2213 51.0814C56.3131 50.9875 56.407 50.8978 56.4988 50.8059C58.4126 48.8922 60.3388 46.9889 62.2379 45.0606C63.346 43.9337 63.3481 42.3226 62.2901 41.3042C61.232 40.2857 59.6835 40.34 58.5816 41.4252C56.839 43.1448 55.0922 44.8561 53.3976 46.6217C52.5389 47.5284 51.7381 48.4882 50.9998 49.4953C49.4875 51.4762 48.7008 53.9161 48.7709 56.4072C48.844 59.7109 48.7898 63.0186 48.7898 66.3243V67.1591L61.5075 67.1507ZM55.1924 76.857C58.0286 76.857 60.8647 76.857 63.7008 76.857C64.6316 76.857 64.9676 76.5273 64.978 75.5882C64.9926 74.2359 64.9947 72.8752 64.978 71.5291C64.9655 70.6463 64.617 70.3083 63.7258 70.3083C58.0285 70.3083 52.3305 70.3083 46.6319 70.3083C45.7595 70.3083 45.3985 70.6735 45.3901 71.5437C45.3755 72.8439 45.3901 74.1461 45.3901 75.4463C45.3901 76.5544 45.7074 76.8591 46.851 76.8591C49.6266 76.8605 52.4064 76.8598 55.1903 76.857H55.1924Z" fill="#D05FFF"/>
<path d="M58.9177 20.7751C58.9098 25.849 57.0453 30.7447 53.676 34.5385C50.3066 38.3322 45.6654 40.7618 40.6279 41.3688C28.9954 42.765 18.5065 34.1731 17.5298 22.4738C17.2343 19.1687 17.7619 15.8419 19.0657 12.7905C19.3027 12.2616 19.736 11.8455 20.2741 11.6302C20.6915 11.5008 21.3405 11.77 21.7349 12.0705C22.2775 12.4879 22.1878 13.1494 22.0125 13.7964C21.5304 15.5703 20.9002 17.3442 20.6852 19.1431C19.7169 27.2821 25.2263 35.3961 33.14 37.6458C43.2741 40.5257 53.2663 34.5008 55.4534 24.1934C57.5403 14.3661 50.4135 4.43234 40.463 3.25532C37.3755 2.87499 34.2421 3.30658 31.3723 4.50747C30.0868 5.03755 28.9452 4.37391 28.9724 3.14054C28.9891 2.32038 29.5046 1.88838 30.2037 1.60456C34.7532 -0.24237 39.3861 -0.507409 44.1026 0.874135C52.851 3.43062 58.9323 11.6093 58.9177 20.7751Z" fill="#D05FFF"/>
<path d="M26.1697 7.18293C26.1723 7.39005 26.1331 7.59557 26.0545 7.78723C25.9759 7.97888 25.8595 8.15274 25.7123 8.29843C25.5651 8.44412 25.3899 8.55866 25.1974 8.6352C25.005 8.71174 24.799 8.74873 24.592 8.74395C24.1873 8.72869 23.8038 8.55987 23.5192 8.27182C23.2346 7.98377 23.0705 7.59813 23.0602 7.19336C23.0689 6.77504 23.2415 6.37686 23.5409 6.08453C23.8403 5.7922 24.2424 5.62907 24.6608 5.63026C25.0659 5.63902 25.4512 5.80679 25.7335 6.09733C26.0158 6.38786 26.1725 6.77782 26.1697 7.18293V7.18293Z" fill="#D05FFF"/>
</svg>
