<svg width="159" height="185" viewBox="0 0 159 185" fill="none" xmlns="http://www.w3.org/2000/svg">
<path d="M0 40C0 21.1438 0 11.7157 5.85786 5.85786C11.7157 0 21.1438 0 40 0H119C137.856 0 147.284 0 153.142 5.85786C159 11.7157 159 21.1438 159 40V145C159 163.856 159 173.284 153.142 179.142C147.284 185 137.856 185 119 185H40C21.1438 185 11.7157 185 5.85786 179.142C0 173.284 0 163.856 0 145V40Z" fill="#F7E6FE"/>
<mask id="mask0_85_1283" style="mask-type:alpha" maskUnits="userSpaceOnUse" x="0" y="0" width="159" height="185">
<path d="M0 40C0 21.1438 0 11.7157 5.85786 5.85786C11.7157 0 21.1438 0 40 0H119C137.856 0 147.284 0 153.142 5.85786C159 11.7157 159 21.1438 159 40V145C159 163.856 159 173.284 153.142 179.142C147.284 185 137.856 185 119 185H40C21.1438 185 11.7157 185 5.85786 179.142C0 173.284 0 163.856 0 145V40Z" fill="#E6F2FF"/>
</mask>
<g mask="url(#mask0_85_1283)">
<path d="M168.707 37.348C170.515 35.3323 172.903 33.9271 175.543 33.3262C178.182 32.7253 180.943 32.9584 183.445 33.9933C185.947 35.0282 188.066 36.8139 189.509 39.1041C190.953 41.3942 191.651 44.0759 191.506 46.7793C191.411 48.6064 191.701 50.4331 192.356 52.1412C193.012 53.8493 194.018 55.401 195.311 56.6958C196.603 57.9906 198.153 58.9999 199.86 59.6583C201.567 60.3167 203.393 60.6097 205.221 60.5183C207.924 60.3734 210.606 61.0709 212.896 62.5147C215.186 63.9584 216.972 66.0773 218.007 68.5789C219.042 71.0806 219.275 73.8417 218.674 76.4815C218.073 79.1212 216.668 81.5094 214.652 83.3167C213.292 84.542 212.205 86.0392 211.461 87.7115C210.717 89.3837 210.332 91.1937 210.332 93.024C210.332 94.8543 210.717 96.6643 211.461 98.3365C212.205 100.009 213.292 101.506 214.652 102.731C216.668 104.539 218.073 106.927 218.674 109.567C219.275 112.206 219.042 114.967 218.007 117.469C216.972 119.971 215.186 122.09 212.896 123.533C210.606 124.977 207.924 125.675 205.221 125.53C203.396 125.435 201.571 125.725 199.865 126.379C198.158 127.033 196.608 128.037 195.313 129.327C194.019 130.617 193.009 132.164 192.349 133.868C191.689 135.572 191.394 137.395 191.482 139.221C191.627 141.924 190.929 144.606 189.485 146.896C188.042 149.186 185.923 150.972 183.421 152.007C180.919 153.042 178.158 153.275 175.519 152.674C172.879 152.073 170.491 150.668 168.683 148.652C167.458 147.292 165.961 146.205 164.289 145.461C162.616 144.717 160.806 144.332 158.976 144.332C157.146 144.332 155.336 144.717 153.663 145.461C151.991 146.205 150.494 147.292 149.269 148.652C147.461 150.668 145.073 152.073 142.433 152.674C139.794 153.275 137.033 153.042 134.531 152.007C132.029 150.972 129.91 149.186 128.467 146.896C127.023 144.606 126.325 141.924 126.47 139.221C126.565 137.396 126.275 135.571 125.621 133.865C124.967 132.158 123.963 130.608 122.673 129.313C121.383 128.019 119.836 127.009 118.132 126.349C116.428 125.689 114.605 125.394 112.779 125.482C110.076 125.627 107.394 124.929 105.104 123.485C102.814 122.042 101.028 119.923 99.9933 117.421C98.9584 114.919 98.7253 112.158 99.3262 109.519C99.9271 106.879 101.332 104.491 103.348 102.683C104.708 101.458 105.795 99.9608 106.539 98.2885C107.283 96.6163 107.668 94.8063 107.668 92.976C107.668 91.1457 107.283 89.3357 106.539 87.6635C105.795 85.9912 104.708 84.494 103.348 83.2687C101.332 81.4614 99.9271 79.0732 99.3262 76.4335C98.7253 73.7937 98.9584 71.0326 99.9933 68.531C101.028 66.0293 102.814 63.9104 105.104 62.4667C107.394 61.0229 110.076 60.3254 112.779 60.4703C114.604 60.5646 116.429 60.2755 118.135 59.6215C119.842 58.9674 121.392 57.9631 122.687 56.6732C123.981 55.3832 124.991 53.8363 125.651 52.1322C126.311 50.4281 126.606 48.6046 126.518 46.7793C126.373 44.0759 127.071 41.3942 128.515 39.1041C129.958 36.8139 132.077 35.0282 134.579 33.9933C137.081 32.9584 139.842 32.7253 142.481 33.3262C145.121 33.9271 147.509 35.3323 149.317 37.348C150.542 38.7038 152.038 39.7876 153.708 40.5293C155.378 41.2711 157.185 41.6544 159.012 41.6544C160.839 41.6544 162.646 41.2711 164.316 40.5293C165.986 39.7876 167.482 38.7038 168.707 37.348Z" fill="#F4D9FF"/>
</g>
<path d="M18.504 30L21.552 18.184H24.88L27.904 30H25.736L23.208 19.488H23.224L20.672 30H18.504ZM20.472 27.128V25.44H25.96V27.128H20.472ZM35.4703 30V26.232C35.4703 26.0187 35.4703 25.832 35.4703 25.672C35.4703 25.5067 35.4703 25.3573 35.4703 25.224C35.4703 24.84 35.4143 24.496 35.3023 24.192C35.1956 23.8827 35.0089 23.64 34.7423 23.464C34.4809 23.288 34.1183 23.2 33.6543 23.2C33.2489 23.2 32.8889 23.2987 32.5743 23.496C32.2596 23.688 32.0116 23.9547 31.8303 24.296C31.6543 24.632 31.5663 25.0213 31.5663 25.464L30.8543 25.024C30.8543 24.3147 31.0143 23.6853 31.3343 23.136C31.6596 22.5813 32.0943 22.1467 32.6383 21.832C33.1823 21.5173 33.7849 21.36 34.4463 21.36C35.1289 21.36 35.7023 21.4933 36.1663 21.76C36.6356 22.0267 36.9876 22.4053 37.2222 22.896C37.4623 23.3867 37.5823 23.9627 37.5823 24.624C37.5823 24.88 37.5823 25.168 37.5823 25.488C37.5823 25.808 37.5823 26.1227 37.5823 26.432V30H35.4703ZM29.4622 30V21.504H31.5663V30H29.4622ZM45.3149 29.16C45.8162 29.208 46.2562 29.3013 46.6349 29.44C47.0135 29.5787 47.3095 29.784 47.5229 30.056C47.7362 30.3333 47.8429 30.7013 47.8429 31.16C47.8429 31.672 47.6695 32.1147 47.3229 32.488C46.9762 32.8613 46.4669 33.1493 45.7949 33.352C45.1282 33.5547 44.3069 33.656 43.3309 33.656C41.9122 33.656 40.8215 33.4507 40.0589 33.04C39.2962 32.6347 38.9149 32.0827 38.9149 31.384C38.9149 31.1867 38.9389 31.008 38.9869 30.848C39.0349 30.688 39.0935 30.5547 39.1629 30.448L41.0909 30.728C41.0589 30.7707 41.0269 30.8373 40.9949 30.928C40.9629 31.024 40.9469 31.1387 40.9469 31.272C40.9469 31.6027 41.1682 31.84 41.6109 31.984C42.0589 32.1333 42.6535 32.208 43.3949 32.208C43.9389 32.208 44.3922 32.1707 44.7549 32.096C45.1229 32.0213 45.4002 31.9147 45.5869 31.776C45.7789 31.6373 45.8749 31.4747 45.8749 31.288C45.8749 31.0107 45.7495 30.832 45.4989 30.752C45.2482 30.672 44.9495 30.6187 44.6029 30.592L41.3789 30.296C40.8029 30.2373 40.3282 30.0667 39.9549 29.784C39.5869 29.5013 39.4029 29.128 39.4029 28.664C39.4029 28.3813 39.4775 28.12 39.6269 27.88C39.7815 27.64 39.9575 27.44 40.1549 27.28C40.3522 27.1147 40.5202 27.0133 40.6589 26.976L41.8589 27.568C41.7469 27.584 41.6135 27.656 41.4589 27.784C41.3095 27.912 41.2349 28.064 41.2349 28.24C41.2349 28.4053 41.3095 28.544 41.4589 28.656C41.6082 28.7627 41.8962 28.8373 42.3229 28.88L45.3149 29.16ZM46.2669 21.504H48.1549L47.3869 24.8C47.2429 25.4187 47.0109 25.9733 46.6909 26.464C46.3709 26.9547 45.9442 27.3413 45.4109 27.624C44.8775 27.9067 44.2055 28.048 43.3949 28.048C42.5522 28.048 41.8242 27.912 41.2109 27.64C40.6029 27.3627 40.1335 26.976 39.8029 26.48C39.4722 25.9787 39.3069 25.4027 39.3069 24.752C39.3069 24.0853 39.4749 23.4987 39.8109 22.992C40.1522 22.48 40.6189 22.08 41.2109 21.792C41.8082 21.504 42.4829 21.36 43.2349 21.36C43.8429 21.36 44.3895 21.4613 44.8749 21.664C45.3602 21.8613 45.7469 22.12 46.0349 22.44C46.3282 22.76 46.4855 23.1013 46.5069 23.464L46.0349 23.552L46.2669 21.504ZM43.3869 26.424C43.7975 26.424 44.1522 26.3573 44.4509 26.224C44.7495 26.0907 44.9815 25.8987 45.1469 25.648C45.3122 25.392 45.3949 25.0827 45.3949 24.72C45.3949 24.3627 45.3122 24.056 45.1469 23.8C44.9815 23.544 44.7495 23.3493 44.4509 23.216C44.1522 23.0773 43.8002 23.008 43.3949 23.008C43.0002 23.008 42.6509 23.0773 42.3469 23.216C42.0429 23.3547 41.8029 23.5547 41.6269 23.816C41.4562 24.072 41.3709 24.3787 41.3709 24.736C41.3709 25.0933 41.4535 25.4 41.6189 25.656C41.7895 25.9067 42.0242 26.0987 42.3229 26.232C42.6269 26.36 42.9815 26.424 43.3869 26.424ZM50.0119 26.432V24.936H55.9559L55.7159 25.336C55.7159 25.304 55.7159 25.2693 55.7159 25.232C55.7159 25.1893 55.7159 25.1547 55.7159 25.128C55.7159 24.76 55.6332 24.416 55.4679 24.096C55.3025 23.7707 55.0519 23.5093 54.7159 23.312C54.3799 23.1093 53.9532 23.008 53.4359 23.008C52.9239 23.008 52.4785 23.1173 52.0999 23.336C51.7265 23.5493 51.4359 23.8587 51.2279 24.264C51.0252 24.6693 50.9239 25.1547 50.9239 25.72C50.9239 26.3013 51.0225 26.8027 51.2199 27.224C51.4172 27.64 51.7052 27.96 52.0839 28.184C52.4679 28.4027 52.9345 28.512 53.4839 28.512C53.8572 28.512 54.1799 28.4773 54.4519 28.408C54.7239 28.3387 54.9452 28.2453 55.1159 28.128C55.2919 28.0053 55.4225 27.8747 55.5079 27.736C55.5985 27.5973 55.6519 27.4587 55.6679 27.32H57.7639C57.7319 27.6773 57.6119 28.0267 57.4039 28.368C57.2012 28.704 56.9159 29.0107 56.5479 29.288C56.1799 29.56 55.7319 29.7787 55.2039 29.944C54.6812 30.104 54.0839 30.184 53.4119 30.184C52.4999 30.184 51.7025 29.9973 51.0199 29.624C50.3372 29.2507 49.8039 28.7307 49.4199 28.064C49.0412 27.3973 48.8519 26.6347 48.8519 25.776C48.8519 24.896 49.0439 24.1253 49.4279 23.464C49.8172 22.8027 50.3559 22.288 51.0439 21.92C51.7319 21.5467 52.5212 21.36 53.4119 21.36C54.3292 21.36 55.1212 21.5467 55.7879 21.92C56.4599 22.2933 56.9772 22.8133 57.3399 23.48C57.7025 24.1413 57.8839 24.912 57.8839 25.792C57.8839 25.904 57.8812 26.024 57.8759 26.152C57.8705 26.28 57.8625 26.3733 57.8519 26.432H50.0119ZM59.6185 30V21.504H61.7225V24.328L61.2345 24.056C61.2878 23.688 61.3865 23.3413 61.5305 23.016C61.6745 22.6853 61.8665 22.3973 62.1065 22.152C62.3465 21.9013 62.6372 21.7067 62.9785 21.568C63.3198 21.4293 63.7092 21.36 64.1465 21.36C64.4932 21.36 64.7652 21.3867 64.9625 21.44C65.1652 21.488 65.2905 21.528 65.3385 21.56L64.9545 23.488C64.9012 23.4507 64.7918 23.4053 64.6265 23.352C64.4665 23.2933 64.2505 23.264 63.9785 23.264C63.5465 23.264 63.1838 23.3387 62.8905 23.488C62.6025 23.632 62.3732 23.8293 62.2025 24.08C62.0318 24.3253 61.9092 24.5973 61.8345 24.896C61.7598 25.1893 61.7225 25.4827 61.7225 25.776V30H59.6185Z" fill="black"/>
<path d="M66.4789 118.946C66.4325 119.227 66.3133 119.49 66.1331 119.71C65.9529 119.93 65.718 120.098 65.4522 120.199C65.1778 120.3 64.8814 120.328 64.5928 120.28C64.3041 120.231 64.0334 120.107 63.8077 119.921C63.599 119.752 63.4007 119.575 63.2087 119.405C62.9458 119.176 62.7016 118.959 62.4428 118.779C60.4508 117.33 58.0145 116.623 55.5561 116.781C53.0977 116.94 50.772 117.953 48.9822 119.645L48.93 119.696C48.8404 119.785 48.7456 119.868 48.6461 119.946C48.3492 120.183 47.9824 120.315 47.6027 120.322C47.3854 120.321 47.1706 120.276 46.9712 120.19C46.7717 120.104 46.5918 119.978 46.4424 119.821C46.29 119.67 46.1695 119.491 46.088 119.292C46.0065 119.094 45.9657 118.882 45.968 118.668C45.9703 118.453 46.0158 118.242 46.1016 118.046C46.1874 117.849 46.3118 117.672 46.4674 117.525C46.9639 117.03 47.4946 116.571 48.0556 116.15C50.5286 114.326 53.3981 113.474 57.0857 113.474H57.0982C60.095 113.504 63.288 114.912 65.8633 117.341C66.0344 117.502 66.6333 118.07 66.4789 118.946Z" fill="#D05FFF"/>
<path d="M53.3542 102.862C53.3539 103.065 53.3127 103.266 53.2331 103.452C53.1535 103.639 53.0371 103.807 52.891 103.948C52.5278 104.292 51.981 104.467 51.2652 104.467H51.1045C48.3289 104.259 46.0625 102.86 44.5453 100.446C44.4104 100.246 44.3168 100.02 44.2702 99.7835C44.2236 99.5466 44.2249 99.3027 44.274 99.0663C44.3241 98.8593 44.4151 98.6644 44.5416 98.4931C44.6681 98.3218 44.8276 98.1775 45.0107 98.0688C45.8246 97.5679 46.7825 97.8288 47.3376 98.6949C48.3268 100.252 49.7021 101.061 51.5428 101.174C52.6635 101.245 53.3751 101.909 53.3542 102.862Z" fill="#D05FFF"/>
<path d="M67.8166 100.525C66.2597 102.983 63.9453 104.373 61.1259 104.542H61.0257C59.6316 104.542 59.0786 103.751 59.0264 103.002C59.0095 102.793 59.035 102.582 59.1014 102.382C59.1677 102.182 59.2735 101.998 59.4125 101.84C59.5791 101.661 59.7798 101.518 60.0028 101.418C60.2257 101.319 60.4664 101.265 60.7106 101.26C62.6222 101.162 64.0371 100.346 65.0451 98.7553C65.5961 97.8893 66.579 97.6305 67.3825 98.1418C68.1859 98.6531 68.3759 99.6444 67.8166 100.525Z" fill="#D05FFF"/>
<path d="M51.1692 107.844V107.869C51.1687 108.555 50.8979 109.213 50.4155 109.701C49.9331 110.189 49.2779 110.467 48.5918 110.476H48.5668C47.875 110.479 47.21 110.208 46.7182 109.721C46.2265 109.234 45.9482 108.572 45.9446 107.88C45.941 107.189 46.2124 106.524 46.699 106.032C47.1857 105.54 47.8478 105.262 48.5397 105.258H48.5626C49.2504 105.258 49.9102 105.53 50.3984 106.014C50.8867 106.499 51.1637 107.156 51.1692 107.844Z" fill="#D05FFF"/>
<path d="M66.504 107.873C66.5018 108.563 66.2267 109.224 65.7387 109.712C65.2506 110.199 64.5894 110.474 63.8996 110.476C63.2077 110.476 62.5442 110.201 62.0549 109.711C61.5657 109.222 61.2909 108.559 61.2909 107.867C61.2909 107.175 61.5657 106.512 62.0549 106.022C62.5442 105.533 63.2077 105.258 63.8996 105.258C64.2424 105.259 64.5818 105.326 64.8983 105.458C65.2149 105.59 65.5023 105.782 65.7443 106.025C65.9862 106.268 66.1779 106.557 66.3082 106.874C66.4386 107.191 66.5051 107.53 66.504 107.873Z" fill="#D05FFF"/>
<path d="M29.6281 166.983C28.858 166.524 28.0023 166.163 27.3324 165.583C26.4977 164.846 26.2576 163.774 26.2618 162.661C26.2618 161.359 26.2618 160.057 26.2618 158.755C26.2618 156.323 27.2239 155.011 29.5466 154.234C29.8576 151.772 29.6093 149.434 27.7853 147.556C25.9613 145.678 24.1186 143.939 22.2633 142.153C20.4811 140.435 18.9033 138.605 18.2772 136.118C17.7931 134.202 18.0456 132.29 18.2648 130.376C18.9785 124.146 19.697 117.918 20.4205 111.69C20.5029 110.68 20.6578 109.677 20.8838 108.689C21.5683 106.128 23.9913 104.365 26.4434 104.542C29.1564 104.739 31.3643 106.677 31.6273 109.409C31.9153 112.437 31.9696 115.488 32.1177 118.529C32.2137 120.526 32.2972 122.523 32.3849 124.479C33.1299 124.479 33.7977 124.443 34.4718 124.479C35.6217 124.558 36.7048 124.94 37.5083 125.752C40.1775 128.452 42.9009 131.113 45.3885 133.974C47.7676 136.714 48.8632 140.003 48.7464 143.701C48.6462 146.978 48.7464 150.261 48.7151 153.541C48.7151 154.03 48.834 154.257 49.3307 154.426C51.0357 155.008 52.0688 156.469 52.1021 158.281C52.1293 159.742 52.1168 161.202 52.1021 162.663C52.0875 164.731 51.0587 166.138 49.0886 166.837C48.9993 166.879 48.9146 166.93 48.8361 166.99L29.6281 166.983ZM45.6014 154.149V153.239C45.6014 150.062 45.5179 146.884 45.6243 143.712C45.7287 140.684 44.8271 138.021 42.8654 135.809C40.5385 133.183 38.0655 130.681 35.5612 128.219C34.2193 126.9 31.9216 127.618 31.4186 129.408C31.1264 130.452 31.4186 131.349 32.195 132.121C34.2277 134.14 36.2526 136.165 38.27 138.196C38.9983 138.933 39.0276 139.837 38.3973 140.492C37.7671 141.147 36.8071 141.118 36.1017 140.429C33.9563 138.303 31.7984 136.191 29.7052 134.016C27.946 132.188 27.7164 129.425 28.9874 127.211C29.1993 126.837 29.3087 126.413 29.3046 125.983C29.1098 120.861 28.8921 115.739 28.6514 110.617C28.6245 110.047 28.4787 109.488 28.2236 108.977C27.3617 107.308 25.2059 107.226 24.2459 108.839C23.9447 109.411 23.7616 110.038 23.7074 110.682C23.3318 113.65 23.0041 116.624 22.664 119.595C22.1617 124.013 21.6609 128.432 21.1614 132.854C21.0322 133.866 21.1341 134.894 21.4594 135.861C21.7847 136.828 22.325 137.708 23.0396 138.436C23.9808 139.442 25.0139 140.362 25.9885 141.337C27.4493 142.798 28.9853 144.232 30.3606 145.786C31.1867 146.691 31.8242 147.75 32.2359 148.904C32.6477 150.057 32.8253 151.281 32.7584 152.504C32.7334 153.04 32.7584 153.579 32.7584 154.142L45.6014 154.149ZM39.1528 163.857C42.0139 163.857 44.8751 163.857 47.7363 163.857C48.6107 163.857 48.9718 163.5 48.9885 162.63C49.001 161.278 49.001 159.925 48.9885 158.571C48.9885 157.661 48.6212 157.308 47.6946 157.308C42.0237 157.308 36.3528 157.308 30.682 157.308C29.7512 157.308 29.4173 157.642 29.4068 158.581C29.3901 159.881 29.3943 161.182 29.4068 162.482C29.4068 163.573 29.7094 163.857 30.8113 163.859C33.5883 163.861 36.3688 163.86 39.1528 163.857Z" fill="#D05FFF"/>
<path d="M63.5299 166.983C63.3713 166.908 63.2169 166.823 63.0541 166.762C62.2339 166.482 61.5229 165.951 61.0226 165.243C60.5223 164.536 60.2583 163.688 60.2681 162.822C60.2472 161.311 60.2431 159.802 60.2681 158.291C60.2596 157.437 60.5238 156.603 61.0223 155.91C61.5207 155.217 62.2274 154.701 63.0395 154.437C63.5278 154.27 63.6656 154.053 63.6656 153.558C63.6447 150.252 63.7324 146.945 63.6343 143.641C63.5258 139.999 64.6778 136.81 66.9254 134.041C68.4196 132.211 70.11 130.541 71.7253 128.824C72.4745 128.029 73.303 127.307 74.0459 126.505C75.6299 124.796 77.5478 124.153 79.9207 124.606C79.9645 124.105 80.025 123.623 80.0459 123.145C80.2253 119.011 80.384 114.875 80.5801 110.741C80.6037 109.987 80.7201 109.239 80.9266 108.514C81.6737 106.045 83.9923 104.392 86.3818 104.549C87.6821 104.617 88.9178 105.137 89.8762 106.018C90.8345 106.9 91.4556 108.088 91.6325 109.378C92.102 112.884 92.4672 116.405 92.8846 119.919C93.3271 123.742 93.6673 127.582 94.2161 131.397C94.79 135.362 93.6965 138.701 90.8165 141.454C89.124 143.073 87.3835 144.645 85.7202 146.293C84.3846 147.619 83.1011 149.038 82.8424 151.002C82.7067 152.045 82.8194 153.126 82.8194 154.236C83.1666 154.356 83.5066 154.495 83.8378 154.654C85.2987 155.43 86.0583 156.663 86.0917 158.31C86.123 159.819 86.1272 161.33 86.0917 162.839C86.0437 165.072 84.7749 166.353 82.7401 167L63.5299 166.983ZM79.5075 154.151C79.6264 152.669 79.6139 151.25 79.881 149.887C80.3464 147.525 81.8469 145.726 83.506 144.081C85.1651 142.437 86.8451 140.87 88.5397 139.294C90.7831 137.207 91.5281 134.717 91.1191 131.677C90.3636 126.059 89.7981 120.407 89.147 114.783C88.9529 113.113 88.788 111.419 88.5209 109.753C88.4363 109.18 88.1506 108.655 87.7148 108.273C87.279 107.891 86.7215 107.676 86.1418 107.667C85.0462 107.681 84.1133 108.518 83.8462 109.753C83.782 110.032 83.7415 110.315 83.7251 110.601C83.4997 115.749 83.2827 120.896 83.074 126.044C83.0594 126.399 83.1417 126.752 83.3119 127.065C84.7456 129.548 84.4389 132.246 82.4208 134.294C80.6678 136.074 78.8897 137.829 77.1221 139.594C76.8821 139.832 76.6442 140.074 76.4021 140.31C75.607 141.082 74.6407 141.145 73.9917 140.486C73.3426 139.826 73.4095 138.91 74.2213 138.081C74.3131 137.987 74.407 137.898 74.4988 137.806C76.4126 135.892 78.3388 133.989 80.2379 132.061C81.346 130.934 81.3481 129.323 80.2901 128.304C79.232 127.286 77.6835 127.34 76.5816 128.425C74.839 130.145 73.0922 131.856 71.3976 133.622C70.5389 134.528 69.7381 135.488 68.9998 136.495C67.4875 138.476 66.7008 140.916 66.7709 143.407C66.844 146.711 66.7898 150.019 66.7898 153.324V154.159L79.5075 154.151ZM73.1924 163.857C76.0286 163.857 78.8647 163.857 81.7008 163.857C82.6316 163.857 82.9676 163.527 82.978 162.588C82.9926 161.236 82.9947 159.875 82.978 158.529C82.9655 157.646 82.617 157.308 81.7258 157.308C76.0285 157.308 70.3305 157.308 64.6319 157.308C63.7595 157.308 63.3985 157.673 63.3901 158.544C63.3755 159.844 63.3901 161.146 63.3901 162.446C63.3901 163.554 63.7074 163.859 64.851 163.859C67.6266 163.861 70.4064 163.86 73.1903 163.857H73.1924Z" fill="#D05FFF"/>
<path d="M76.9177 107.775C76.9098 112.849 75.0453 117.745 71.676 121.538C68.3066 125.332 63.6654 127.762 58.6279 128.369C46.9954 129.765 36.5065 121.173 35.5298 109.474C35.2343 106.169 35.7619 102.842 37.0657 99.7905C37.3027 99.2616 37.736 98.8455 38.2741 98.6301C38.6915 98.5008 39.3405 98.77 39.7349 99.0705C40.2775 99.4879 40.1878 100.149 40.0125 100.796C39.5304 102.57 38.9002 104.344 38.6852 106.143C37.7169 114.282 43.2263 122.396 51.14 124.646C61.2741 127.526 71.2663 121.501 73.4534 111.193C75.5403 101.366 68.4135 91.4323 58.463 90.2553C55.3755 89.875 52.2421 90.3066 49.3723 91.5075C48.0868 92.0376 46.9452 91.3739 46.9724 90.1405C46.9891 89.3204 47.5046 88.8884 48.2037 88.6046C52.7532 86.7576 57.3861 86.4926 62.1026 87.8741C70.851 90.4306 76.9323 98.6093 76.9177 107.775Z" fill="#D05FFF"/>
<path d="M44.1697 94.1829C44.1723 94.3901 44.1331 94.5956 44.0545 94.7872C43.9759 94.9789 43.8595 95.1527 43.7123 95.2984C43.5651 95.4441 43.3899 95.5587 43.1974 95.6352C43.005 95.7117 42.799 95.7487 42.592 95.7439C42.1873 95.7287 41.8038 95.5599 41.5192 95.2718C41.2346 94.9838 41.0705 94.5981 41.0602 94.1934C41.0689 93.775 41.2415 93.3769 41.5409 93.0845C41.8403 92.7922 42.2424 92.6291 42.6608 92.6303C43.0659 92.639 43.4512 92.8068 43.7335 93.0973C44.0158 93.3879 44.1725 93.7778 44.1697 94.1829Z" fill="#D05FFF"/>
</svg>
