<svg width="81" height="80" viewBox="0 0 81 80" fill="none" xmlns="http://www.w3.org/2000/svg">
<path d="M13.3557 79.9978C12.8569 79.8685 12.3519 79.7537 11.8573 79.6076C8.00927 78.4703 5.29644 75.1857 5.06898 71.1706C4.92499 68.606 4.78098 66.0183 5.36111 63.4724C6.01397 60.5822 7.56974 57.9748 9.80314 56.0277C12.0365 54.0805 14.8317 52.8947 17.7839 52.6419C17.9926 52.6231 18.1825 52.5793 18.5226 52.525C18.2367 52.3163 18.0635 52.187 17.8966 52.0618C15.2296 50.1836 13.8461 47.6022 13.6603 44.351C13.6199 44.0155 13.4508 43.7087 13.1887 43.4954C9.04641 40.4215 8.49133 34.7162 12.0013 30.9474C12.8528 30.0334 13.7689 29.1799 14.6036 28.2513C16.5459 26.1389 17.6636 23.3983 17.7526 20.5301C17.8506 18.1658 17.6858 15.7597 18.5539 13.5101C19.1738 11.972 19.9003 10.479 20.7284 9.04223C21.2417 8.11569 22.2434 7.9404 22.9967 8.46419C23.7501 8.98797 23.9107 9.88113 23.316 10.7367C21.5443 13.2972 20.8619 16.1436 20.9183 19.2217C21.0073 24.0311 19.3205 28.1136 15.8578 31.4691C15.3528 31.9554 14.8603 32.4583 14.372 32.9654C11.8365 35.6094 12.4688 39.6432 15.7159 41.3356C16.6069 41.7968 16.9262 42.4082 16.8406 43.4015C16.4003 48.4599 21.2375 51.9845 25.8932 50.0021C26.8072 49.6139 27.5042 49.7329 28.2304 50.4007C29.5389 51.6006 30.2651 51.5129 31.3773 50.1231C31.4906 49.9805 31.5945 49.8306 31.6883 49.6744C32.3289 48.6185 32.2851 48.4975 31.2709 47.7963C26.4267 44.4825 23.9657 39.8915 23.8878 34.0234C23.8627 32.2788 23.8711 30.5343 23.8878 28.7897C23.9254 24.9228 26.5547 22.258 30.4237 22.2413C36.8531 22.2142 43.2826 22.2413 49.712 22.2413C51.316 22.202 52.8792 22.7488 54.1089 23.7793C54.2818 23.9216 54.5008 23.9958 54.7245 23.9879C56.5255 23.7793 57.9821 24.4324 59.2258 25.6803C59.472 25.9245 59.7287 26.1582 60.0271 26.4399C60.0271 26.2876 60.0584 26.2313 60.0271 26.1958C57.1348 22.3289 55.4361 17.9007 53.9169 13.3703C53.0071 10.6386 51.1102 8.86068 48.3201 8.0823C46.9623 7.68167 45.5161 7.69402 44.1653 8.11778C43.7883 8.25731 43.381 8.29471 42.9849 8.22618C42.5887 8.15765 42.2177 7.98563 41.9094 7.72754C39.7785 6.11214 37.1915 5.21158 34.518 5.15451C33.4016 5.11486 32.6983 4.45334 32.7379 3.51219C32.7776 2.57104 33.4746 2.00343 34.5723 2.03265C37.5531 2.11142 40.4559 3.00252 42.9675 4.60985C43.3266 4.82502 43.7485 4.91115 44.1632 4.85401C49.6202 3.86904 54.8539 6.88656 56.803 12.0973C57.884 14.9896 58.9315 17.9132 60.2817 20.6824C62.0117 24.23 64.5951 27.162 67.5605 29.7642C69.9457 31.851 70.8576 34.5305 70.2942 37.6377C69.8268 40.2108 68.5058 42.2705 66.1644 43.6394C66.2938 43.8856 66.4044 44.1131 66.5296 44.3301C70.3833 51.0538 74.2418 57.7754 78.1051 64.495C78.9962 66.0371 79.7474 67.6126 80.0646 69.3739V71.5609C80.0083 71.7821 79.9498 72.0012 79.8998 72.2245C79.0567 75.9933 76.796 78.4654 73.1177 79.641C72.6794 79.7808 72.2287 79.881 71.7842 79.9999L13.3557 79.9978ZM43.0196 68.9378L33.46 68.1156C28.7939 67.7107 24.1278 67.3142 19.4617 66.8969C18.3327 66.7946 17.7463 66.0997 17.8715 65.1106C17.9842 64.2299 18.748 63.7061 19.7622 63.7938L44.0255 65.8973C45.8326 66.0538 46.0038 66.1999 46.3752 67.9737C46.5985 67.9737 46.8281 67.9737 47.0576 67.9737C48.6436 67.9215 50.2421 67.7212 51.8135 67.8464C54.8831 68.0905 57.9904 68.3576 60.3923 70.6949C60.4009 70.6409 60.4009 70.586 60.3923 70.5321C58.5698 65.553 56.739 60.5773 54.8998 55.6052C54.8226 55.3965 54.4699 55.1878 54.2195 55.1544C52.7838 54.9144 51.3293 54.7767 49.9061 54.4887C49.3677 54.3802 49.0317 54.3885 48.5998 54.7621C44.0088 58.727 37.3915 59.0672 32.5126 55.4862C31.4045 54.6744 30.4946 54.3823 29.0756 54.5972C25.3757 55.1544 21.6299 55.4194 17.9008 55.7596C13.2806 56.1769 9.16746 59.7683 8.39742 64.3468C8.0844 66.1999 8.18874 68.1281 8.15952 70.025C8.0844 74.1151 10.791 76.8635 14.8832 76.8635C23.7605 76.8635 32.6371 76.8635 41.513 76.8635C41.7884 76.8635 42.0639 76.8405 42.3477 76.8259C42.571 74.1798 42.7797 71.6172 43.0092 68.9461L43.0196 68.9378ZM51.5442 25.5948C50.6887 25.5009 50.0563 25.3736 49.422 25.3715C43.1741 25.3576 36.9262 25.3576 30.6783 25.3715C30.3919 25.3666 30.1055 25.3784 29.8206 25.407C28.2784 25.599 27.0743 26.6591 27.0514 28.2054C27.0117 31.0351 26.8949 33.9065 27.2956 36.6924C28.0656 42.0722 32.7066 46.394 38.0927 47.1703C43.7271 47.9841 49.2654 45.121 51.7154 40.1294C51.834 39.872 51.9168 39.5996 51.9616 39.3197C52.4124 36.8281 52.2475 34.4136 51.0225 32.1411C50.985 32.0722 50.9766 31.9908 50.9453 31.9199C49.9687 29.806 49.8748 27.7484 51.5442 25.5948ZM54.9374 46.5421C55.0438 46.8635 55.1273 47.1306 55.2233 47.3936C56.9706 52.1473 58.7187 56.9011 60.4674 61.6548C61.7926 65.265 63.101 68.8793 64.4324 72.4832C65.6845 75.8221 68.9774 77.5625 72.2329 76.6256C76.3752 75.4361 78.1323 70.9015 75.9202 67.0262C71.4684 59.2355 67.0075 51.4545 62.5376 43.6832C62.4374 43.5079 62.3122 43.3452 62.1828 43.1511L54.9374 46.5421ZM55.3548 42.8923C56.7613 42.2392 57.9069 41.7425 59.0129 41.1686C59.1541 41.0791 59.275 40.961 59.3678 40.8219C59.4605 40.6828 59.523 40.5258 59.5513 40.361C59.7767 38.1594 59.9562 35.9558 60.1315 33.75C60.2421 32.3748 59.9416 31.0768 59.0526 30.0209C58.2688 29.1178 57.4207 28.2725 56.515 27.4917C55.8493 26.9011 54.9123 26.9366 54.1945 27.4395C53.8576 27.6676 53.6023 27.9972 53.4657 28.3804C53.3291 28.7636 53.3183 29.1804 53.4349 29.5701C53.6659 30.3692 53.9532 31.151 54.2947 31.9095C55.2463 33.917 55.6469 35.9829 55.2003 38.1845C55.1443 38.4393 55.1191 38.6999 55.1252 38.9608C55.1816 40.2191 55.265 41.4754 55.3485 42.8923H55.3548ZM45.4925 76.7487C45.6115 76.8113 45.6553 76.8551 45.7012 76.8551C49.1882 76.8551 52.6774 76.8885 56.1644 76.8447C57.356 76.8301 58.3159 75.8284 58.4724 74.664C58.5448 74.1031 58.4252 73.5342 58.133 73.0499C57.8409 72.5657 57.3934 72.1946 56.8635 71.997C53.3159 70.6761 49.6849 70.7679 45.9537 71.2583C45.7979 73.1197 45.6441 74.9499 45.4925 76.7487ZM33.6707 52.4165C37.2684 55.8243 43.4266 55.4486 46.4211 52.3998C45.9266 51.5067 45.4424 50.6281 44.9207 49.687C41.758 50.6937 38.3615 50.6981 35.1962 49.6995C34.6578 50.6552 34.1653 51.538 33.6707 52.4165ZM62.3205 29.0839C64.1506 32.4812 62.788 36.0288 62.8276 39.23L64.7475 40.7951C64.9712 40.6712 65.186 40.5317 65.3902 40.3777C67.5605 38.5789 68.0029 35 66.1769 32.8652C65.0125 31.5046 63.6143 30.336 62.3205 29.0839ZM51.3773 45.9871C50.2922 46.7592 49.2383 47.5 48.197 48.2575C48.0968 48.3305 47.9883 48.5622 48.0259 48.631C48.4704 49.3719 48.8606 50.1857 49.4574 50.7742C49.6807 50.9829 50.4508 50.7345 50.937 50.5822C51.3731 50.4445 51.7592 50.1482 52.1724 49.9353C52.5856 49.7224 52.6836 49.4532 52.4979 48.9983C52.0972 48.0071 51.7529 47.0012 51.3773 45.9787V45.9871ZM63.3263 76.8447L61.7091 74.28C61.5296 75.1147 61.3439 75.9696 61.1519 76.8447H63.3263Z" fill="#3CE7FF"/>
<path d="M80.0478 6.40447C79.6075 7.30597 79.2778 8.2826 78.7039 9.09019C78.3289 9.61031 77.8477 10.045 77.2923 10.3655C76.7369 10.686 76.1199 10.885 75.4819 10.9495C74.8058 11.0351 74.476 11.3189 74.3947 11.9929C74.3436 12.3553 74.2359 12.7075 74.0754 13.0363C73.9252 13.342 73.6783 13.5894 73.373 13.7404C73.0678 13.8913 72.7212 13.9372 72.3872 13.8711C71.6756 13.7166 71.0182 13.0593 71.1726 12.3748C71.3986 11.2666 71.7697 10.1931 72.2765 9.18201C72.7169 8.34729 73.6455 8.05722 74.5992 7.94245C76.3103 7.73377 77.2891 6.29596 76.784 4.78928C76.6395 4.3262 76.3555 3.91907 75.9707 3.6236C75.586 3.32812 75.1193 3.15874 74.6346 3.13862C74.1632 3.10551 73.6928 3.21729 73.2867 3.45897C72.8805 3.70066 72.5579 4.06071 72.3621 4.49087C72.2682 4.67451 72.2077 4.87693 72.1221 5.06474C71.7382 5.89947 70.9473 6.26048 70.1417 5.95372C69.3362 5.64696 68.9731 4.87067 69.2152 3.98586C69.5399 2.85848 70.2159 1.86413 71.1448 1.14752C72.0737 0.430899 73.2071 0.0294086 74.38 0.00147194C75.5528 -0.0264648 76.704 0.32061 77.666 0.992188C78.628 1.66377 79.3505 2.6248 79.7285 3.73545C79.8392 4.05055 79.9372 4.36149 80.0478 4.68494V6.40447Z" fill="#3CE7FF"/>
<path d="M0 5.51769C0.0709514 2.98014 1.83639 0.738906 4.27378 0.162948C5.48458 -0.125711 6.75715 -0.00109154 7.88896 0.516974C9.02076 1.03504 9.94677 1.91678 10.5196 3.02187C11.0956 4.11293 11.2797 5.36861 11.0412 6.5791C10.8026 7.78959 10.1559 8.88155 9.20908 9.67253C8.58304 10.1838 8.462 10.6304 8.7625 11.3023C8.82518 11.4737 8.87199 11.6504 8.90233 11.8303C9.12353 12.7902 8.67485 13.6062 7.79631 13.8461C6.98245 14.0694 6.17486 13.5749 5.88896 12.665C5.76375 12.2685 5.68029 11.8637 5.56135 11.463C5.1252 9.85408 5.56133 8.56235 6.90315 7.54607C8.20323 6.55484 8.36393 4.96886 7.33304 3.88372C6.996 3.51844 6.55163 3.26966 6.06404 3.17326C5.57646 3.07687 5.07088 3.13786 4.62019 3.34742C4.16544 3.54986 3.78504 3.88893 3.53185 4.31751C3.27867 4.74609 3.16526 5.2429 3.20742 5.7389C3.2262 5.94758 3.2909 6.14582 3.31385 6.35033C3.35897 6.72852 3.2663 7.11031 3.05282 7.42573C2.83935 7.74115 2.51938 7.96909 2.15151 8.06777C1.78355 8.16961 1.39055 8.12692 1.05303 7.94846C0.715514 7.77001 0.458991 7.46927 0.335973 7.10784C0.189787 6.5856 0.0775632 6.05444 0 5.51769V5.51769Z" fill="#3CE7FF"/>
<path d="M28.9754 5.1754C28.9781 5.37601 28.9414 5.57519 28.8671 5.76158C28.7929 5.94796 28.6827 6.1179 28.5428 6.26169C28.4029 6.40548 28.236 6.5203 28.0517 6.59959C27.8674 6.67888 27.6693 6.72109 27.4687 6.72381C27.2616 6.72768 27.0559 6.69058 26.8632 6.61465C26.6705 6.53872 26.4948 6.42545 26.346 6.28136C26.1973 6.13727 26.0785 5.9652 25.9965 5.77504C25.9144 5.58488 25.8708 5.38039 25.8681 5.17331C25.8785 4.75536 26.0519 4.35805 26.3514 4.06635C26.6509 3.77465 27.0527 3.61171 27.4708 3.61238C27.8758 3.62543 28.2597 3.79611 28.5408 4.08806C28.8218 4.38002 28.9777 4.77017 28.9754 5.1754V5.1754Z" fill="#3CE7FF"/>
<path d="M10.4069 17.7547C10.407 17.9564 10.3667 18.156 10.2885 18.3419C10.2103 18.5279 10.0956 18.6962 9.95135 18.8372C9.80708 18.9782 9.63609 19.0889 9.44842 19.1628C9.26075 19.2367 9.06017 19.2723 8.85852 19.2676C8.65573 19.2639 8.45566 19.2203 8.26972 19.1393C8.08378 19.0582 7.91563 18.9414 7.77485 18.7954C7.63407 18.6494 7.52343 18.4771 7.44924 18.2883C7.37505 18.0995 7.33878 17.898 7.34248 17.6952C7.34618 17.4924 7.38977 17.2923 7.47079 17.1064C7.55182 16.9204 7.66868 16.7523 7.81469 16.6115C7.9607 16.4707 8.133 16.3601 8.32177 16.2859C8.51054 16.2117 8.71208 16.1754 8.91487 16.1791C9.11657 16.1837 9.31536 16.2282 9.49977 16.31C9.68418 16.3919 9.85055 16.5094 9.98928 16.6559C10.128 16.8024 10.2363 16.9749 10.308 17.1635C10.3797 17.3521 10.4133 17.553 10.4069 17.7547V17.7547Z" fill="#3CE7FF"/>
<path d="M69.6993 17.7025C69.6999 17.5007 69.7406 17.301 69.8191 17.1151C69.8977 16.9292 70.0125 16.7608 70.1568 16.6197C70.3011 16.4787 70.4722 16.3678 70.6598 16.2936C70.8475 16.2194 71.0481 16.1833 71.2499 16.1875C71.4567 16.1849 71.662 16.2238 71.8535 16.3021C72.045 16.3804 72.2189 16.4963 72.3647 16.6431C72.5105 16.7899 72.6254 16.9644 72.7024 17.1564C72.7795 17.3484 72.8172 17.5539 72.8132 17.7608C72.8093 17.9677 72.7639 18.1716 72.6796 18.3606C72.5953 18.5495 72.474 18.7196 72.3227 18.8607C72.1714 19.0019 71.9933 19.1111 71.799 19.1821C71.6047 19.2531 71.398 19.2843 71.1914 19.2738C70.9897 19.2706 70.7905 19.2272 70.6058 19.1461C70.421 19.065 70.2542 18.9479 70.1153 18.8016C69.9764 18.6552 69.868 18.4827 69.7966 18.2939C69.7251 18.1052 69.6921 17.9041 69.6993 17.7025V17.7025Z" fill="#3CE7FF"/>
<path d="M40.025 37.1494C41.4161 37.1173 42.7644 37.6312 43.7813 38.5809C44.5388 39.2675 44.6389 40.169 44.0588 40.8597C43.4787 41.5505 42.5751 41.5922 41.7633 40.9683C40.5384 40.0146 39.5597 40.0167 38.3201 40.9683C37.5188 41.5943 36.6068 41.5379 36.0246 40.841C35.4424 40.144 35.553 39.2905 36.2688 38.6206C37.2765 37.6519 38.6275 37.1228 40.025 37.1494V37.1494Z" fill="#3CE7FF"/>
<path d="M45.7721 32.9508C45.5653 32.9427 45.3622 32.8938 45.1744 32.8069C44.9866 32.7199 44.8179 32.5966 44.678 32.4441C44.5382 32.2917 44.4299 32.113 44.3594 31.9184C44.2889 31.7238 44.2577 31.5172 44.2675 31.3105C44.2865 30.9081 44.463 30.5293 44.759 30.256C45.055 29.9826 45.4466 29.8367 45.8493 29.8498C46.2541 29.8616 46.6387 30.0292 46.9229 30.3177C47.2072 30.6062 47.369 30.9933 47.3748 31.3982C47.3617 31.8145 47.1872 32.2094 46.888 32.4992C46.5889 32.789 46.1886 32.951 45.7721 32.9508Z" fill="#3CE7FF"/>
<path d="M35.8515 31.394C35.8511 31.7988 35.6932 32.1877 35.4112 32.4783C35.1293 32.7688 34.7453 32.9383 34.3406 32.9507C33.9224 32.9492 33.5213 32.7842 33.223 32.491C32.9247 32.1978 32.7529 31.7996 32.7442 31.3814C32.748 31.1744 32.7927 30.9701 32.8757 30.7803C32.9587 30.5906 33.0784 30.4191 33.228 30.2758C33.3775 30.1325 33.5539 30.0201 33.747 29.9452C33.9401 29.8703 34.1461 29.8343 34.3531 29.8393C34.5536 29.8428 34.7515 29.8859 34.9353 29.9659C35.1192 30.046 35.2855 30.1615 35.4246 30.3059C35.5638 30.4503 35.6731 30.6208 35.7464 30.8075C35.8196 30.9942 35.8553 31.1935 35.8515 31.394V31.394Z" fill="#3CE7FF"/>
</svg>
