<svg width="159" height="185" viewBox="0 0 159 185" fill="none" xmlns="http://www.w3.org/2000/svg">
<path d="M0 40C0 21.1438 0 11.7157 5.85786 5.85786C11.7157 0 21.1438 0 40 0H119C137.856 0 147.284 0 153.142 5.85786C159 11.7157 159 21.1438 159 40V145C159 163.856 159 173.284 153.142 179.142C147.284 185 137.856 185 119 185H40C21.1438 185 11.7157 185 5.85786 179.142C0 173.284 0 163.856 0 145V40Z" fill="#DFFBFF"/>
<mask id="mask0_85_1266" style="mask-type:alpha" maskUnits="userSpaceOnUse" x="0" y="0" width="159" height="185">
<path d="M0 40C0 21.1438 0 11.7157 5.85786 5.85786C11.7157 0 21.1438 0 40 0H119C137.856 0 147.284 0 153.142 5.85786C159 11.7157 159 21.1438 159 40V145C159 163.856 159 173.284 153.142 179.142C147.284 185 137.856 185 119 185H40C21.1438 185 11.7157 185 5.85786 179.142C0 173.284 0 163.856 0 145V40Z" fill="#E6F2FF"/>
</mask>
<g mask="url(#mask0_85_1266)">
<path d="M168.707 37.348C170.515 35.3323 172.903 33.9271 175.543 33.3262C178.182 32.7253 180.943 32.9584 183.445 33.9933C185.947 35.0282 188.066 36.8139 189.509 39.1041C190.953 41.3942 191.651 44.0759 191.506 46.7793C191.411 48.6064 191.701 50.4331 192.356 52.1412C193.012 53.8493 194.018 55.401 195.311 56.6958C196.603 57.9906 198.153 58.9999 199.86 59.6583C201.567 60.3167 203.393 60.6097 205.221 60.5183C207.924 60.3734 210.606 61.0709 212.896 62.5147C215.186 63.9584 216.972 66.0773 218.007 68.5789C219.042 71.0806 219.275 73.8417 218.674 76.4815C218.073 79.1212 216.668 81.5094 214.652 83.3167C213.292 84.542 212.205 86.0392 211.461 87.7115C210.717 89.3837 210.332 91.1937 210.332 93.024C210.332 94.8543 210.717 96.6643 211.461 98.3365C212.205 100.009 213.292 101.506 214.652 102.731C216.668 104.539 218.073 106.927 218.674 109.567C219.275 112.206 219.042 114.967 218.007 117.469C216.972 119.971 215.186 122.09 212.896 123.533C210.606 124.977 207.924 125.675 205.221 125.53C203.396 125.435 201.571 125.725 199.865 126.379C198.158 127.033 196.608 128.037 195.313 129.327C194.019 130.617 193.009 132.164 192.349 133.868C191.689 135.572 191.394 137.395 191.482 139.221C191.627 141.924 190.929 144.606 189.485 146.896C188.042 149.186 185.923 150.972 183.421 152.007C180.919 153.042 178.158 153.275 175.519 152.674C172.879 152.073 170.491 150.668 168.683 148.652C167.458 147.292 165.961 146.205 164.289 145.461C162.616 144.717 160.806 144.332 158.976 144.332C157.146 144.332 155.336 144.717 153.663 145.461C151.991 146.205 150.494 147.292 149.269 148.652C147.461 150.668 145.073 152.073 142.433 152.674C139.794 153.275 137.033 153.042 134.531 152.007C132.029 150.972 129.91 149.186 128.467 146.896C127.023 144.606 126.325 141.924 126.47 139.221C126.565 137.396 126.275 135.571 125.621 133.865C124.967 132.158 123.963 130.608 122.673 129.313C121.383 128.019 119.836 127.009 118.132 126.349C116.428 125.689 114.605 125.394 112.779 125.482C110.076 125.627 107.394 124.929 105.104 123.485C102.814 122.042 101.028 119.923 99.9933 117.421C98.9584 114.919 98.7253 112.158 99.3262 109.519C99.9271 106.879 101.332 104.491 103.348 102.683C104.708 101.458 105.795 99.9608 106.539 98.2885C107.283 96.6163 107.668 94.8063 107.668 92.976C107.668 91.1457 107.283 89.3357 106.539 87.6635C105.795 85.9912 104.708 84.494 103.348 83.2687C101.332 81.4614 99.9271 79.0732 99.3262 76.4335C98.7253 73.7937 98.9584 71.0326 99.9933 68.531C101.028 66.0293 102.814 63.9104 105.104 62.4667C107.394 61.0229 110.076 60.3254 112.779 60.4703C114.604 60.5646 116.429 60.2755 118.135 59.6215C119.842 58.9674 121.392 57.9631 122.687 56.6732C123.981 55.3832 124.991 53.8363 125.651 52.1322C126.311 50.4281 126.606 48.6046 126.518 46.7793C126.373 44.0759 127.071 41.3942 128.515 39.1041C129.958 36.8139 132.077 35.0282 134.579 33.9933C137.081 32.9584 139.842 32.7253 142.481 33.3262C145.121 33.9271 147.509 35.3323 149.317 37.348C150.542 38.7038 152.038 39.7876 153.708 40.5293C155.378 41.2711 157.185 41.6544 159.012 41.6544C160.839 41.6544 162.646 41.2711 164.316 40.5293C165.986 39.7876 167.482 38.7038 168.707 37.348Z" fill="#CDF9FF"/>
</g>
<path d="M18.504 30L21.552 18.184H24.88L27.904 30H25.736L23.208 19.488H23.224L20.672 30H18.504ZM20.472 27.128V25.44H25.96V27.128H20.472ZM35.4703 30V26.232C35.4703 26.0187 35.4703 25.832 35.4703 25.672C35.4703 25.5067 35.4703 25.3573 35.4703 25.224C35.4703 24.84 35.4143 24.496 35.3023 24.192C35.1956 23.8827 35.0089 23.64 34.7423 23.464C34.4809 23.288 34.1183 23.2 33.6543 23.2C33.2489 23.2 32.8889 23.2987 32.5743 23.496C32.2596 23.688 32.0116 23.9547 31.8303 24.296C31.6543 24.632 31.5663 25.0213 31.5663 25.464L30.8543 25.024C30.8543 24.3147 31.0143 23.6853 31.3343 23.136C31.6596 22.5813 32.0943 22.1467 32.6383 21.832C33.1823 21.5173 33.7849 21.36 34.4463 21.36C35.1289 21.36 35.7023 21.4933 36.1663 21.76C36.6356 22.0267 36.9876 22.4053 37.2222 22.896C37.4623 23.3867 37.5823 23.9627 37.5823 24.624C37.5823 24.88 37.5823 25.168 37.5823 25.488C37.5823 25.808 37.5823 26.1227 37.5823 26.432V30H35.4703ZM29.4622 30V21.504H31.5663V30H29.4622ZM42.4029 25.368L42.3869 26.328L38.9229 21.504H41.2269L43.8349 25.288L42.5709 25.28L45.1309 21.504H47.3869L44.0669 26.056L44.0109 25.176L47.4349 30H45.1309L42.4829 26.224L43.9069 26.096L41.0509 30H38.7949L42.4029 25.368ZM48.7504 30V21.504H50.8304V30H48.7504ZM49.7984 19.936C49.457 19.936 49.1584 19.8453 48.9024 19.664C48.6517 19.4773 48.5264 19.2187 48.5264 18.888C48.5264 18.5627 48.6517 18.3093 48.9024 18.128C49.1584 17.9467 49.457 17.856 49.7984 17.856C50.1344 17.856 50.4277 17.9467 50.6784 18.128C50.929 18.3093 51.0544 18.5627 51.0544 18.888C51.0544 19.2187 50.929 19.4773 50.6784 19.664C50.4277 19.8453 50.1344 19.936 49.7984 19.936ZM53.6994 26.432V24.936H59.6434L59.4034 25.336C59.4034 25.304 59.4034 25.2693 59.4034 25.232C59.4034 25.1893 59.4034 25.1547 59.4034 25.128C59.4034 24.76 59.3207 24.416 59.1554 24.096C58.99 23.7707 58.7394 23.5093 58.4034 23.312C58.0674 23.1093 57.6407 23.008 57.1234 23.008C56.6114 23.008 56.166 23.1173 55.7874 23.336C55.414 23.5493 55.1234 23.8587 54.9154 24.264C54.7127 24.6693 54.6114 25.1547 54.6114 25.72C54.6114 26.3013 54.71 26.8027 54.9074 27.224C55.1047 27.64 55.3927 27.96 55.7714 28.184C56.1554 28.4027 56.622 28.512 57.1714 28.512C57.5447 28.512 57.8674 28.4773 58.1394 28.408C58.4114 28.3387 58.6327 28.2453 58.8034 28.128C58.9794 28.0053 59.11 27.8747 59.1954 27.736C59.286 27.5973 59.3394 27.4587 59.3554 27.32H61.4514C61.4194 27.6773 61.2994 28.0267 61.0914 28.368C60.8887 28.704 60.6034 29.0107 60.2354 29.288C59.8674 29.56 59.4194 29.7787 58.8914 29.944C58.3687 30.104 57.7714 30.184 57.0994 30.184C56.1874 30.184 55.39 29.9973 54.7074 29.624C54.0247 29.2507 53.4914 28.7307 53.1074 28.064C52.7287 27.3973 52.5394 26.6347 52.5394 25.776C52.5394 24.896 52.7314 24.1253 53.1154 23.464C53.5047 22.8027 54.0434 22.288 54.7314 21.92C55.4194 21.5467 56.2087 21.36 57.0994 21.36C58.0167 21.36 58.8087 21.5467 59.4754 21.92C60.1474 22.2933 60.6647 22.8133 61.0274 23.48C61.39 24.1413 61.5714 24.912 61.5714 25.792C61.5714 25.904 61.5687 26.024 61.5634 26.152C61.558 26.28 61.55 26.3733 61.5394 26.432H53.6994ZM67.1163 30.16C66.8123 30.16 66.5029 30.1307 66.1883 30.072C65.8736 30.0133 65.5856 29.904 65.3243 29.744C65.0629 29.584 64.8523 29.3493 64.6923 29.04C64.5323 28.7307 64.4523 28.3227 64.4523 27.816C64.4523 27.6987 64.4523 27.5813 64.4523 27.464C64.4523 27.3413 64.4523 27.216 64.4523 27.088V23.184H62.4443V21.504H63.2603C63.5376 21.504 63.7563 21.4933 63.9163 21.472C64.0763 21.4453 64.1936 21.3867 64.2682 21.296C64.3429 21.2053 64.3909 21.064 64.4123 20.872C64.4389 20.6747 64.4523 20.4027 64.4523 20.056V18.704H66.5642V21.504H69.0923V23.184H66.5642V26.592C66.5642 26.6933 66.5642 26.7947 66.5642 26.896C66.5642 26.992 66.5642 27.0853 66.5642 27.176C66.5642 27.5707 66.6123 27.888 66.7083 28.128C66.8043 28.368 67.0309 28.488 67.3883 28.488C67.5589 28.488 67.7189 28.472 67.8683 28.44C68.0229 28.408 68.1376 28.376 68.2123 28.344V29.992C68.1109 30.0293 67.9643 30.0667 67.7723 30.104C67.5803 30.1413 67.3616 30.16 67.1163 30.16ZM71.233 33.648C70.9823 33.648 70.7583 33.6347 70.561 33.608C70.3637 33.5867 70.241 33.5653 70.193 33.544V31.904C70.2623 31.936 70.3797 31.96 70.545 31.976C70.7157 31.9973 70.8917 32.008 71.073 32.008C71.3663 32.008 71.6197 31.9493 71.833 31.832C72.0517 31.7147 72.2383 31.552 72.393 31.344C72.5477 31.1413 72.6703 30.904 72.761 30.632L72.945 30.096L70.017 21.504H72.217L74.225 28.592H73.969L75.929 21.504H78.089L75.113 30.52C74.905 31.144 74.6517 31.6907 74.353 32.16C74.0597 32.6293 73.6677 32.9947 73.177 33.256C72.6863 33.5173 72.0383 33.648 71.233 33.648Z" fill="black"/>
<path d="M31.3557 166.998C30.8569 166.868 30.3519 166.754 29.8573 166.608C26.0093 165.47 23.2964 162.186 23.069 158.171C22.925 155.606 22.781 153.018 23.3611 150.472C24.014 147.582 25.5697 144.975 27.8031 143.028C30.0365 141.081 32.8317 139.895 35.7839 139.642C35.9926 139.623 36.1825 139.579 36.5226 139.525C36.2367 139.316 36.0635 139.187 35.8966 139.062C33.2296 137.184 31.8461 134.602 31.6603 131.351C31.6199 131.015 31.4508 130.709 31.1887 130.495C27.0464 127.422 26.4913 121.716 30.0013 117.947C30.8528 117.033 31.7689 116.18 32.6036 115.251C34.5459 113.139 35.6636 110.398 35.7526 107.53C35.8506 105.166 35.6858 102.76 36.5539 100.51C37.1738 98.972 37.9003 97.479 38.7284 96.0422C39.2417 95.1157 40.2434 94.9404 40.9967 95.4642C41.7501 95.988 41.9107 96.8811 41.316 97.7367C39.5443 100.297 38.8619 103.144 38.9183 106.222C39.0073 111.031 37.3205 115.114 33.8578 118.469C33.3528 118.955 32.8603 119.458 32.372 119.965C29.8365 122.609 30.4688 126.643 33.7159 128.336C34.6069 128.797 34.9262 129.408 34.8406 130.402C34.4003 135.46 39.2375 138.985 43.8932 137.002C44.8072 136.614 45.5042 136.733 46.2304 137.401C47.5389 138.601 48.2651 138.513 49.3773 137.123C49.4906 136.98 49.5945 136.831 49.6883 136.674C50.3289 135.619 50.2851 135.497 49.2709 134.796C44.4267 131.482 41.9657 126.891 41.8878 121.023C41.8627 119.279 41.8711 117.534 41.8878 115.79C41.9254 111.923 44.5547 109.258 48.4237 109.241C54.8531 109.214 61.2826 109.241 67.712 109.241C69.316 109.202 70.8792 109.749 72.1089 110.779C72.2818 110.922 72.5008 110.996 72.7245 110.988C74.5255 110.779 75.9821 111.432 77.2258 112.68C77.472 112.924 77.7287 113.158 78.0271 113.44C78.0271 113.288 78.0584 113.231 78.0271 113.196C75.1348 109.329 73.4361 104.901 71.9169 100.37C71.0071 97.6386 69.1102 95.8607 66.3201 95.0823C64.9623 94.6817 63.5161 94.694 62.1653 95.1178C61.7883 95.2573 61.381 95.2947 60.9849 95.2262C60.5887 95.1576 60.2177 94.9856 59.9095 94.7275C57.7785 93.1121 55.1915 92.2116 52.518 92.1545C51.4016 92.1149 50.6983 91.4533 50.7379 90.5122C50.7776 89.571 51.4746 89.0034 52.5723 89.0326C55.5531 89.1114 58.4559 90.0025 60.9675 91.6099C61.3266 91.825 61.7485 91.9111 62.1632 91.854C67.6202 90.869 72.8539 93.8866 74.803 99.0973C75.884 101.99 76.9315 104.913 78.2817 107.682C80.0117 111.23 82.5951 114.162 85.5605 116.764C87.9457 118.851 88.8576 121.53 88.2942 124.638C87.8268 127.211 86.5058 129.27 84.1644 130.639C84.2938 130.886 84.4044 131.113 84.5296 131.33C88.3833 138.054 92.2418 144.775 96.1051 151.495C96.9962 153.037 97.7474 154.613 98.0646 156.374V158.561C98.0083 158.782 97.9498 159.001 97.8997 159.224C97.0567 162.993 94.796 165.465 91.1177 166.641C90.6794 166.781 90.2287 166.881 89.7842 167L31.3557 166.998ZM61.0196 155.938L51.46 155.116C46.7939 154.711 42.1278 154.314 37.4617 153.897C36.3327 153.795 35.7463 153.1 35.8715 152.111C35.9842 151.23 36.748 150.706 37.7622 150.794L62.0255 152.897C63.8326 153.054 64.0038 153.2 64.3752 154.974C64.5985 154.974 64.8281 154.974 65.0576 154.974C66.6436 154.921 68.2421 154.721 69.8135 154.846C72.8831 155.091 75.9904 155.358 78.3923 157.695C78.4009 157.641 78.4009 157.586 78.3923 157.532C76.5698 152.553 74.739 147.577 72.8998 142.605C72.8226 142.396 72.4699 142.188 72.2195 142.154C70.7838 141.914 69.3293 141.777 67.9061 141.489C67.3677 141.38 67.0317 141.389 66.5998 141.762C62.0088 145.727 55.3915 146.067 50.5126 142.486C49.4045 141.674 48.4946 141.382 47.0756 141.597C43.3757 142.154 39.6299 142.419 35.9008 142.76C31.2806 143.177 27.1675 146.768 26.3974 151.347C26.0844 153.2 26.1887 155.128 26.1595 157.025C26.0844 161.115 28.791 163.863 32.8832 163.863C41.7605 163.863 50.6371 163.863 59.513 163.863C59.7884 163.863 60.0639 163.84 60.3477 163.826C60.571 161.18 60.7797 158.617 61.0092 155.946L61.0196 155.938ZM69.5442 112.595C68.6887 112.501 68.0563 112.374 67.422 112.371C61.1741 112.358 54.9262 112.358 48.6783 112.371C48.3919 112.367 48.1055 112.378 47.8206 112.407C46.2784 112.599 45.0743 113.659 45.0514 115.205C45.0117 118.035 44.8949 120.907 45.2956 123.692C46.0656 129.072 50.7066 133.394 56.0927 134.17C61.7271 134.984 67.2654 132.121 69.7154 127.129C69.834 126.872 69.9168 126.6 69.9616 126.32C70.4124 123.828 70.2475 121.414 69.0225 119.141C68.985 119.072 68.9766 118.991 68.9453 118.92C67.9687 116.806 67.8748 114.748 69.5442 112.595ZM72.9374 133.542C73.0438 133.864 73.1273 134.131 73.2233 134.394C74.9706 139.147 76.7187 143.901 78.4674 148.655C79.7926 152.265 81.101 155.879 82.4324 159.483C83.6845 162.822 86.9774 164.563 90.2328 163.626C94.3752 162.436 96.1323 157.901 93.9202 154.026C89.4684 146.236 85.0075 138.454 80.5376 130.683C80.4374 130.508 80.3122 130.345 80.1828 130.151L72.9374 133.542ZM73.3548 129.892C74.7613 129.239 75.9069 128.742 77.0129 128.169C77.1541 128.079 77.275 127.961 77.3678 127.822C77.4605 127.683 77.523 127.526 77.5513 127.361C77.7767 125.159 77.9562 122.956 78.1315 120.75C78.2421 119.375 77.9416 118.077 77.0526 117.021C76.2688 116.118 75.4207 115.273 74.515 114.492C73.8493 113.901 72.9123 113.937 72.1945 114.44C71.8576 114.668 71.6023 114.997 71.4657 115.38C71.3291 115.764 71.3183 116.18 71.4349 116.57C71.6659 117.369 71.9532 118.151 72.2947 118.909C73.2463 120.917 73.6469 122.983 73.2003 125.184C73.1443 125.439 73.1191 125.7 73.1252 125.961C73.1816 127.219 73.265 128.475 73.3485 129.892H73.3548ZM63.4925 163.749C63.6115 163.811 63.6553 163.855 63.7012 163.855C67.1882 163.855 70.6774 163.888 74.1644 163.845C75.356 163.83 76.3159 162.828 76.4724 161.664C76.5448 161.103 76.4252 160.534 76.133 160.05C75.8409 159.566 75.3934 159.195 74.8635 158.997C71.3159 157.676 67.6849 157.768 63.9537 158.258C63.7979 160.12 63.6441 161.95 63.4925 163.749ZM51.6707 139.417C55.2684 142.824 61.4266 142.449 64.4211 139.4C63.9266 138.507 63.4424 137.628 62.9207 136.687C59.758 137.694 56.3615 137.698 53.1962 136.699C52.6578 137.655 52.1653 138.538 51.6707 139.417ZM80.3205 116.084C82.1507 119.481 80.7879 123.029 80.8276 126.23L82.7475 127.795C82.9712 127.671 83.186 127.532 83.3902 127.378C85.5605 125.579 86.0029 122 84.1769 119.865C83.0125 118.505 81.6143 117.336 80.3205 116.084ZM69.3773 132.987C68.2922 133.759 67.2383 134.5 66.197 135.258C66.0968 135.331 65.9883 135.562 66.0259 135.631C66.4704 136.372 66.8606 137.186 67.4574 137.774C67.6807 137.983 68.4508 137.735 68.937 137.582C69.3731 137.444 69.7592 137.148 70.1724 136.935C70.5856 136.722 70.6836 136.453 70.4979 135.998C70.0972 135.007 69.7529 134.001 69.3773 132.979V132.987ZM81.3263 163.845L79.7091 161.28C79.5296 162.115 79.3439 162.97 79.1519 163.845H81.3263Z" fill="#3CE7FF"/>
<path d="M98.0478 93.4045C97.6075 94.306 97.2778 95.2826 96.7039 96.0902C96.3289 96.6103 95.8477 97.045 95.2923 97.3655C94.7369 97.686 94.1199 97.885 93.4819 97.9495C92.8058 98.0351 92.476 98.3189 92.3947 98.9929C92.3436 99.3553 92.2359 99.7075 92.0754 100.036C91.9252 100.342 91.6783 100.589 91.373 100.74C91.0678 100.891 90.7212 100.937 90.3872 100.871C89.6756 100.717 89.0182 100.059 89.1726 99.3748C89.3986 98.2666 89.7697 97.1931 90.2765 96.182C90.7169 95.3473 91.6455 95.0572 92.5992 94.9425C94.3103 94.7338 95.2891 93.296 94.784 91.7893C94.6395 91.3262 94.3555 90.9191 93.9707 90.6236C93.586 90.3281 93.1193 90.1587 92.6346 90.1386C92.1632 90.1055 91.6928 90.2173 91.2867 90.459C90.8805 90.7007 90.5579 91.0607 90.3621 91.4909C90.2682 91.6745 90.2077 91.8769 90.1221 92.0647C89.7382 92.8995 88.9473 93.2605 88.1417 92.9537C87.3362 92.647 86.9731 91.8707 87.2152 90.9859C87.5399 89.8585 88.2159 88.8641 89.1448 88.1475C90.0737 87.4309 91.2071 87.0294 92.38 87.0015C93.5528 86.9735 94.704 87.3206 95.666 87.9922C96.628 88.6638 97.3505 89.6248 97.7285 90.7354C97.8392 91.0506 97.9372 91.3615 98.0478 91.6849V93.4045Z" fill="#3CE7FF"/>
<path d="M18 92.5177C18.071 89.9801 19.8364 87.7389 22.2738 87.1629C23.4846 86.8743 24.7572 86.9989 25.889 87.517C27.0208 88.035 27.9468 88.9168 28.5196 90.0219C29.0956 91.1129 29.2797 92.3686 29.0412 93.5791C28.8026 94.7896 28.1559 95.8816 27.2091 96.6725C26.583 97.1838 26.462 97.6304 26.7625 98.3023C26.8252 98.4737 26.872 98.6504 26.9023 98.8303C27.1235 99.7902 26.6749 100.606 25.7963 100.846C24.9825 101.069 24.1749 100.575 23.889 99.665C23.7638 99.2685 23.6803 98.8637 23.5613 98.463C23.1252 96.8541 23.5613 95.5623 24.9031 94.5461C26.2032 93.5548 26.3639 91.9689 25.333 90.8837C24.996 90.5184 24.5516 90.2697 24.064 90.1733C23.5765 90.0769 23.0709 90.1379 22.6202 90.3474C22.1654 90.5499 21.785 90.8889 21.5319 91.3175C21.2787 91.7461 21.1653 92.2429 21.2074 92.7389C21.2262 92.9476 21.2909 93.1458 21.3139 93.3503C21.359 93.7285 21.2663 94.1103 21.0528 94.4257C20.8393 94.7412 20.5194 94.9691 20.1515 95.0678C19.7835 95.1696 19.3906 95.1269 19.053 94.9485C18.7155 94.77 18.459 94.4693 18.336 94.1078C18.1898 93.5856 18.0776 93.0544 18 92.5177Z" fill="#3CE7FF"/>
<path d="M46.9754 92.1754C46.9781 92.376 46.9414 92.5752 46.8671 92.7616C46.7929 92.948 46.6827 93.1179 46.5428 93.2617C46.4029 93.4055 46.236 93.5203 46.0517 93.5996C45.8674 93.6789 45.6693 93.7211 45.4687 93.7238C45.2616 93.7277 45.0559 93.6906 44.8632 93.6147C44.6705 93.5387 44.4948 93.4255 44.346 93.2814C44.1973 93.1373 44.0785 92.9652 43.9965 92.775C43.9144 92.5849 43.8708 92.3804 43.8681 92.1733C43.8785 91.7554 44.0519 91.3581 44.3514 91.0663C44.6509 90.7746 45.0527 90.6117 45.4708 90.6124C45.8758 90.6254 46.2597 90.7961 46.5408 91.0881C46.8218 91.38 46.9777 91.7702 46.9754 92.1754Z" fill="#3CE7FF"/>
<path d="M28.4069 104.755C28.407 104.956 28.3667 105.156 28.2885 105.342C28.2103 105.528 28.0956 105.696 27.9513 105.837C27.8071 105.978 27.6361 106.089 27.4484 106.163C27.2607 106.237 27.0602 106.272 26.8585 106.268C26.6557 106.264 26.4557 106.22 26.2697 106.139C26.0838 106.058 25.9156 105.941 25.7748 105.795C25.6341 105.649 25.5234 105.477 25.4492 105.288C25.3751 105.1 25.3388 104.898 25.3425 104.695C25.3462 104.492 25.3898 104.292 25.4708 104.106C25.5518 103.92 25.6687 103.752 25.8147 103.611C25.9607 103.471 26.133 103.36 26.3218 103.286C26.5105 103.212 26.7121 103.175 26.9149 103.179C27.1166 103.184 27.3154 103.228 27.4998 103.31C27.6842 103.392 27.8506 103.509 27.9893 103.656C28.128 103.802 28.2363 103.975 28.308 104.164C28.3797 104.352 28.4133 104.553 28.4069 104.755Z" fill="#3CE7FF"/>
<path d="M87.6993 104.702C87.6999 104.501 87.7406 104.301 87.8191 104.115C87.8977 103.929 88.0125 103.761 88.1568 103.62C88.3011 103.479 88.4722 103.368 88.6598 103.294C88.8475 103.219 89.0481 103.183 89.2499 103.187C89.4567 103.185 89.662 103.224 89.8535 103.302C90.045 103.38 90.2189 103.496 90.3647 103.643C90.5105 103.79 90.6254 103.964 90.7024 104.156C90.7795 104.348 90.8172 104.554 90.8132 104.761C90.8093 104.968 90.7639 105.172 90.6796 105.361C90.5953 105.55 90.474 105.72 90.3227 105.861C90.1714 106.002 89.9933 106.111 89.799 106.182C89.6047 106.253 89.398 106.284 89.1914 106.274C88.9897 106.271 88.7905 106.227 88.6058 106.146C88.421 106.065 88.2542 105.948 88.1153 105.802C87.9764 105.655 87.868 105.483 87.7966 105.294C87.7251 105.105 87.6921 104.904 87.6993 104.702Z" fill="#3CE7FF"/>
<path d="M58.025 124.149C59.4161 124.117 60.7644 124.631 61.7813 125.581C62.5388 126.268 62.6389 127.169 62.0588 127.86C61.4787 128.55 60.5751 128.592 59.7633 127.968C58.5384 127.015 57.5597 127.017 56.3201 127.968C55.5188 128.594 54.6068 128.538 54.0246 127.841C53.4424 127.144 53.553 126.29 54.2688 125.621C55.2765 124.652 56.6275 124.123 58.025 124.149Z" fill="#3CE7FF"/>
<path d="M63.7721 119.951C63.5653 119.943 63.3622 119.894 63.1744 119.807C62.9866 119.72 62.8179 119.597 62.678 119.444C62.5382 119.292 62.4299 119.113 62.3594 118.918C62.2889 118.724 62.2577 118.517 62.2675 118.311C62.2865 117.908 62.463 117.529 62.759 117.256C63.055 116.983 63.4466 116.837 63.8493 116.85C64.2541 116.862 64.6387 117.029 64.9229 117.318C65.2072 117.606 65.369 117.993 65.3748 118.398C65.3617 118.814 65.1872 119.209 64.888 119.499C64.5889 119.789 64.1886 119.951 63.7721 119.951Z" fill="#3CE7FF"/>
<path d="M53.8515 118.394C53.8511 118.799 53.6932 119.188 53.4112 119.478C53.1293 119.769 52.7453 119.938 52.3406 119.951C51.9224 119.949 51.5213 119.784 51.223 119.491C50.9247 119.198 50.7529 118.8 50.7442 118.381C50.748 118.174 50.7927 117.97 50.8757 117.78C50.9587 117.591 51.0784 117.419 51.228 117.276C51.3775 117.132 51.5539 117.02 51.747 116.945C51.9401 116.87 52.1461 116.834 52.3531 116.839C52.5536 116.843 52.7515 116.886 52.9353 116.966C53.1192 117.046 53.2855 117.162 53.4246 117.306C53.5638 117.45 53.6731 117.621 53.7464 117.807C53.8196 117.994 53.8553 118.193 53.8515 118.394Z" fill="#3CE7FF"/>
</svg>
