<svg width="159" height="185" viewBox="0 0 159 185" fill="none" xmlns="http://www.w3.org/2000/svg">
<path d="M0 40C0 21.1438 0 11.7157 5.85786 5.85786C11.7157 0 21.1438 0 40 0H119C137.856 0 147.284 0 153.142 5.85786C159 11.7157 159 21.1438 159 40V145C159 163.856 159 173.284 153.142 179.142C147.284 185 137.856 185 119 185H40C21.1438 185 11.7157 185 5.85786 179.142C0 173.284 0 163.856 0 145V40Z" fill="#DFFBFF"/>
<mask id="mask0_85_1197" style="mask-type:alpha" maskUnits="userSpaceOnUse" x="0" y="0" width="159" height="185">
<path d="M0 40C0 21.1438 0 11.7157 5.85786 5.85786C11.7157 0 21.1438 0 40 0H119C137.856 0 147.284 0 153.142 5.85786C159 11.7157 159 21.1438 159 40V145C159 163.856 159 173.284 153.142 179.142C147.284 185 137.856 185 119 185H40C21.1438 185 11.7157 185 5.85786 179.142C0 173.284 0 163.856 0 145V40Z" fill="#E6F2FF"/>
</mask>
<g mask="url(#mask0_85_1197)">
<path d="M168.707 37.348C170.515 35.3323 172.903 33.9271 175.543 33.3262C178.182 32.7253 180.943 32.9584 183.445 33.9933C185.947 35.0282 188.066 36.8139 189.509 39.1041C190.953 41.3942 191.651 44.0759 191.506 46.7793C191.411 48.6064 191.701 50.4331 192.356 52.1412C193.012 53.8493 194.018 55.401 195.311 56.6958C196.603 57.9906 198.153 58.9999 199.86 59.6583C201.567 60.3167 203.393 60.6097 205.221 60.5183C207.924 60.3734 210.606 61.0709 212.896 62.5147C215.186 63.9584 216.972 66.0773 218.007 68.5789C219.042 71.0806 219.275 73.8417 218.674 76.4815C218.073 79.1212 216.668 81.5094 214.652 83.3167C213.292 84.542 212.205 86.0392 211.461 87.7115C210.717 89.3837 210.332 91.1937 210.332 93.024C210.332 94.8543 210.717 96.6643 211.461 98.3365C212.205 100.009 213.292 101.506 214.652 102.731C216.668 104.539 218.073 106.927 218.674 109.567C219.275 112.206 219.042 114.967 218.007 117.469C216.972 119.971 215.186 122.09 212.896 123.533C210.606 124.977 207.924 125.675 205.221 125.53C203.396 125.435 201.571 125.725 199.865 126.379C198.158 127.033 196.608 128.037 195.313 129.327C194.019 130.617 193.009 132.164 192.349 133.868C191.689 135.572 191.394 137.395 191.482 139.221C191.627 141.924 190.929 144.606 189.485 146.896C188.042 149.186 185.923 150.972 183.421 152.007C180.919 153.042 178.158 153.275 175.519 152.674C172.879 152.073 170.491 150.668 168.683 148.652C167.458 147.292 165.961 146.205 164.289 145.461C162.616 144.717 160.806 144.332 158.976 144.332C157.146 144.332 155.336 144.717 153.663 145.461C151.991 146.205 150.494 147.292 149.269 148.652C147.461 150.668 145.073 152.073 142.433 152.674C139.794 153.275 137.033 153.042 134.531 152.007C132.029 150.972 129.91 149.186 128.467 146.896C127.023 144.606 126.325 141.924 126.47 139.221C126.565 137.396 126.275 135.571 125.621 133.865C124.967 132.158 123.963 130.608 122.673 129.313C121.383 128.019 119.836 127.009 118.132 126.349C116.428 125.689 114.605 125.394 112.779 125.482C110.076 125.627 107.394 124.929 105.104 123.485C102.814 122.042 101.028 119.923 99.9933 117.421C98.9584 114.919 98.7253 112.158 99.3262 109.519C99.9271 106.879 101.332 104.491 103.348 102.683C104.708 101.458 105.795 99.9608 106.539 98.2885C107.283 96.6163 107.668 94.8063 107.668 92.976C107.668 91.1457 107.283 89.3357 106.539 87.6635C105.795 85.9912 104.708 84.494 103.348 83.2687C101.332 81.4614 99.9271 79.0732 99.3262 76.4335C98.7253 73.7937 98.9584 71.0326 99.9933 68.531C101.028 66.0293 102.814 63.9104 105.104 62.4667C107.394 61.0229 110.076 60.3254 112.779 60.4703C114.604 60.5646 116.429 60.2755 118.135 59.6215C119.842 58.9674 121.392 57.9631 122.687 56.6732C123.981 55.3832 124.991 53.8363 125.651 52.1322C126.311 50.4281 126.606 48.6046 126.518 46.7793C126.373 44.0759 127.071 41.3942 128.515 39.1041C129.958 36.8139 132.077 35.0282 134.579 33.9933C137.081 32.9584 139.842 32.7253 142.481 33.3262C145.121 33.9271 147.509 35.3323 149.317 37.348C150.542 38.7038 152.038 39.7876 153.708 40.5293C155.378 41.2711 157.185 41.6544 159.012 41.6544C160.839 41.6544 162.646 41.2711 164.316 40.5293C165.986 39.7876 167.482 38.7038 168.707 37.348Z" fill="#CDF9FF"/>
</g>
<path d="M18.504 54L21.552 42.184H24.88L27.904 54H25.736L23.208 43.488H23.224L20.672 54H18.504ZM20.472 51.128V49.44H25.96V51.128H20.472ZM35.4703 54V50.232C35.4703 50.0187 35.4703 49.832 35.4703 49.672C35.4703 49.5067 35.4703 49.3573 35.4703 49.224C35.4703 48.84 35.4143 48.496 35.3023 48.192C35.1956 47.8827 35.0089 47.64 34.7423 47.464C34.4809 47.288 34.1183 47.2 33.6543 47.2C33.2489 47.2 32.8889 47.2987 32.5743 47.496C32.2596 47.688 32.0116 47.9547 31.8303 48.296C31.6543 48.632 31.5663 49.0213 31.5663 49.464L30.8543 49.024C30.8543 48.3147 31.0143 47.6853 31.3343 47.136C31.6596 46.5813 32.0943 46.1467 32.6383 45.832C33.1823 45.5173 33.7849 45.36 34.4463 45.36C35.1289 45.36 35.7023 45.4933 36.1663 45.76C36.6356 46.0267 36.9876 46.4053 37.2222 46.896C37.4623 47.3867 37.5823 47.9627 37.5823 48.624C37.5823 48.88 37.5823 49.168 37.5823 49.488C37.5823 49.808 37.5823 50.1227 37.5823 50.432V54H35.4703ZM29.4622 54V45.504H31.5663V54H29.4622ZM42.4029 49.368L42.3869 50.328L38.9229 45.504H41.2269L43.8349 49.288L42.5709 49.28L45.1309 45.504H47.3869L44.0669 50.056L44.0109 49.176L47.4349 54H45.1309L42.4829 50.224L43.9069 50.096L41.0509 54H38.7949L42.4029 49.368ZM48.7504 54V45.504H50.8304V54H48.7504ZM49.7984 43.936C49.457 43.936 49.1584 43.8453 48.9024 43.664C48.6517 43.4773 48.5264 43.2187 48.5264 42.888C48.5264 42.5627 48.6517 42.3093 48.9024 42.128C49.1584 41.9467 49.457 41.856 49.7984 41.856C50.1344 41.856 50.4277 41.9467 50.6784 42.128C50.929 42.3093 51.0544 42.5627 51.0544 42.888C51.0544 43.2187 50.929 43.4773 50.6784 43.664C50.4277 43.8453 50.1344 43.936 49.7984 43.936ZM53.6994 50.432V48.936H59.6434L59.4034 49.336C59.4034 49.304 59.4034 49.2693 59.4034 49.232C59.4034 49.1893 59.4034 49.1547 59.4034 49.128C59.4034 48.76 59.3207 48.416 59.1554 48.096C58.99 47.7707 58.7394 47.5093 58.4034 47.312C58.0674 47.1093 57.6407 47.008 57.1234 47.008C56.6114 47.008 56.166 47.1173 55.7874 47.336C55.414 47.5493 55.1234 47.8587 54.9154 48.264C54.7127 48.6693 54.6114 49.1547 54.6114 49.72C54.6114 50.3013 54.71 50.8027 54.9074 51.224C55.1047 51.64 55.3927 51.96 55.7714 52.184C56.1554 52.4027 56.622 52.512 57.1714 52.512C57.5447 52.512 57.8674 52.4773 58.1394 52.408C58.4114 52.3387 58.6327 52.2453 58.8034 52.128C58.9794 52.0053 59.11 51.8747 59.1954 51.736C59.286 51.5973 59.3394 51.4587 59.3554 51.32H61.4514C61.4194 51.6773 61.2994 52.0267 61.0914 52.368C60.8887 52.704 60.6034 53.0107 60.2354 53.288C59.8674 53.56 59.4194 53.7787 58.8914 53.944C58.3687 54.104 57.7714 54.184 57.0994 54.184C56.1874 54.184 55.39 53.9973 54.7074 53.624C54.0247 53.2507 53.4914 52.7307 53.1074 52.064C52.7287 51.3973 52.5394 50.6347 52.5394 49.776C52.5394 48.896 52.7314 48.1253 53.1154 47.464C53.5047 46.8027 54.0434 46.288 54.7314 45.92C55.4194 45.5467 56.2087 45.36 57.0994 45.36C58.0167 45.36 58.8087 45.5467 59.4754 45.92C60.1474 46.2933 60.6647 46.8133 61.0274 47.48C61.39 48.1413 61.5714 48.912 61.5714 49.792C61.5714 49.904 61.5687 50.024 61.5634 50.152C61.558 50.28 61.55 50.3733 61.5394 50.432H53.6994ZM67.1163 54.16C66.8123 54.16 66.5029 54.1307 66.1883 54.072C65.8736 54.0133 65.5856 53.904 65.3243 53.744C65.0629 53.584 64.8523 53.3493 64.6923 53.04C64.5323 52.7307 64.4523 52.3227 64.4523 51.816C64.4523 51.6987 64.4523 51.5813 64.4523 51.464C64.4523 51.3413 64.4523 51.216 64.4523 51.088V47.184H62.4443V45.504H63.2603C63.5376 45.504 63.7563 45.4933 63.9163 45.472C64.0763 45.4453 64.1936 45.3867 64.2682 45.296C64.3429 45.2053 64.3909 45.064 64.4123 44.872C64.4389 44.6747 64.4523 44.4027 64.4523 44.056V42.704H66.5642V45.504H69.0923V47.184H66.5642V50.592C66.5642 50.6933 66.5642 50.7947 66.5642 50.896C66.5642 50.992 66.5642 51.0853 66.5642 51.176C66.5642 51.5707 66.6123 51.888 66.7083 52.128C66.8043 52.368 67.0309 52.488 67.3883 52.488C67.5589 52.488 67.7189 52.472 67.8683 52.44C68.0229 52.408 68.1376 52.376 68.2123 52.344V53.992C68.1109 54.0293 67.9643 54.0667 67.7723 54.104C67.5803 54.1413 67.3616 54.16 67.1163 54.16ZM71.233 57.648C70.9823 57.648 70.7583 57.6347 70.561 57.608C70.3637 57.5867 70.241 57.5653 70.193 57.544V55.904C70.2623 55.936 70.3797 55.96 70.545 55.976C70.7157 55.9973 70.8917 56.008 71.073 56.008C71.3663 56.008 71.6197 55.9493 71.833 55.832C72.0517 55.7147 72.2383 55.552 72.393 55.344C72.5477 55.1413 72.6703 54.904 72.761 54.632L72.945 54.096L70.017 45.504H72.217L74.225 52.592H73.969L75.929 45.504H78.089L75.113 54.52C74.905 55.144 74.6517 55.6907 74.353 56.16C74.0597 56.6293 73.6677 56.9947 73.177 57.256C72.6863 57.5173 72.0383 57.648 71.233 57.648Z" fill="black"/>
<path d="M18.507 31L21.146 21.3865H22.875L25.4945 31H24.3505L22.004 22.108H22.017L19.651 31H18.507ZM19.872 28.4585V27.4835H24.149V28.4585H19.872ZM26.9925 33.8405V24.097H28.0975V33.8405H26.9925ZM30.366 31.13C29.833 31.13 29.3347 31 28.871 30.74C28.4074 30.4757 28.0304 30.1138 27.74 29.6545C27.454 29.1952 27.311 28.6708 27.311 28.0815C27.311 28.0685 27.311 28.0577 27.311 28.049C27.311 28.0403 27.311 28.0295 27.311 28.0165L28.104 27.997C28.104 28.0057 28.104 28.0165 28.104 28.0295C28.104 28.0382 28.104 28.0468 28.104 28.0555C28.104 28.4282 28.2015 28.7683 28.3965 29.076C28.5959 29.3837 28.8559 29.6285 29.1765 29.8105C29.4972 29.9925 29.8417 30.0835 30.21 30.0835C30.821 30.0835 31.328 29.8755 31.731 29.4595C32.1384 29.0392 32.342 28.4 32.342 27.542C32.342 26.6797 32.1405 26.0427 31.7375 25.631C31.3345 25.215 30.8254 25.007 30.21 25.007C29.8417 25.007 29.4972 25.098 29.1765 25.28C28.8559 25.4577 28.5959 25.6982 28.3965 26.0015C28.2015 26.3048 28.104 26.645 28.104 27.022L27.311 26.996C27.311 26.4023 27.454 25.8802 27.74 25.4295C28.0304 24.9788 28.4074 24.6278 28.871 24.3765C29.3347 24.1208 29.833 23.993 30.366 23.993C30.925 23.993 31.4407 24.1317 31.913 24.409C32.3854 24.682 32.7645 25.0828 33.0505 25.6115C33.3365 26.1402 33.4795 26.7837 33.4795 27.542C33.4795 28.3133 33.3387 28.9677 33.057 29.505C32.7754 30.038 32.3984 30.4432 31.926 30.7205C31.4537 30.9935 30.9337 31.13 30.366 31.13ZM35.2064 33.8405V24.097H36.3114V33.8405H35.2064ZM38.5799 31.13C38.0469 31.13 37.5486 31 37.0849 30.74C36.6212 30.4757 36.2442 30.1138 35.9539 29.6545C35.6679 29.1952 35.5249 28.6708 35.5249 28.0815C35.5249 28.0685 35.5249 28.0577 35.5249 28.049C35.5249 28.0403 35.5249 28.0295 35.5249 28.0165L36.3179 27.997C36.3179 28.0057 36.3179 28.0165 36.3179 28.0295C36.3179 28.0382 36.3179 28.0468 36.3179 28.0555C36.3179 28.4282 36.4154 28.7683 36.6104 29.076C36.8097 29.3837 37.0697 29.6285 37.3904 29.8105C37.7111 29.9925 38.0556 30.0835 38.4239 30.0835C39.0349 30.0835 39.5419 29.8755 39.9449 29.4595C40.3522 29.0392 40.5559 28.4 40.5559 27.542C40.5559 26.6797 40.3544 26.0427 39.9514 25.631C39.5484 25.215 39.0392 25.007 38.4239 25.007C38.0556 25.007 37.7111 25.098 37.3904 25.28C37.0697 25.4577 36.8097 25.6982 36.6104 26.0015C36.4154 26.3048 36.3179 26.645 36.3179 27.022L35.5249 26.996C35.5249 26.4023 35.6679 25.8802 35.9539 25.4295C36.2442 24.9788 36.6212 24.6278 37.0849 24.3765C37.5486 24.1208 38.0469 23.993 38.5799 23.993C39.1389 23.993 39.6546 24.1317 40.1269 24.409C40.5992 24.682 40.9784 25.0828 41.2644 25.6115C41.5504 26.1402 41.6934 26.7837 41.6934 27.542C41.6934 28.3133 41.5526 28.9677 41.2709 29.505C40.9892 30.038 40.6122 30.4432 40.1399 30.7205C39.6676 30.9935 39.1476 31.13 38.5799 31.13ZM43.7778 27.9905V27.0025H49.1143L48.9193 27.3275C48.9193 27.3015 48.9193 27.2777 48.9193 27.256C48.9193 27.23 48.9193 27.2062 48.9193 27.1845C48.9193 26.7858 48.8348 26.4218 48.6658 26.0925C48.5011 25.7588 48.2541 25.4923 47.9248 25.293C47.5954 25.0937 47.1881 24.994 46.7028 24.994C46.2131 24.994 45.7819 25.098 45.4093 25.306C45.0366 25.514 44.7463 25.8087 44.5383 26.19C44.3303 26.567 44.2263 27.0177 44.2263 27.542C44.2263 28.075 44.3259 28.5343 44.5253 28.92C44.7289 29.3057 45.0171 29.6025 45.3898 29.8105C45.7624 30.0185 46.2044 30.1225 46.7158 30.1225C47.0798 30.1225 47.3961 30.0857 47.6648 30.012C47.9334 29.934 48.1544 29.8322 48.3278 29.7065C48.5054 29.5765 48.6398 29.4357 48.7308 29.284C48.8218 29.1323 48.8759 28.9807 48.8933 28.829H49.9983C49.9766 29.1063 49.8899 29.3815 49.7383 29.6545C49.5866 29.9275 49.3721 30.1767 49.0948 30.402C48.8174 30.623 48.4773 30.8007 48.0743 30.935C47.6713 31.0693 47.2076 31.1365 46.6833 31.1365C45.9899 31.1365 45.3789 30.9848 44.8503 30.6815C44.3216 30.3782 43.9056 29.9578 43.6023 29.4205C43.3033 28.8832 43.1538 28.2657 43.1538 27.568C43.1538 26.8617 43.3054 26.242 43.6088 25.709C43.9121 25.1717 44.3303 24.7513 44.8633 24.448C45.3963 24.1447 46.0051 23.993 46.6898 23.993C47.3874 23.993 47.9919 24.1447 48.5033 24.448C49.0146 24.7513 49.4089 25.1673 49.6863 25.696C49.9636 26.2203 50.1023 26.8183 50.1023 27.49C50.1023 27.5593 50.1001 27.6503 50.0958 27.763C50.0914 27.8757 50.0849 27.9515 50.0763 27.9905H43.7778ZM54.2361 31.13C53.7117 31.13 53.2524 31.0477 52.8581 30.883C52.4681 30.7183 52.1647 30.4822 51.9481 30.1745C51.7314 29.8625 51.6231 29.4898 51.6231 29.0565C51.6231 28.6058 51.7401 28.231 51.9741 27.932C52.2081 27.6287 52.5374 27.3925 52.9621 27.2235C53.3867 27.0545 53.8807 26.9418 54.4441 26.8855C55.2934 26.7988 55.8979 26.7143 56.2576 26.632C56.6172 26.5453 56.7971 26.4067 56.7971 26.216C56.7971 26.2117 56.7971 26.2095 56.7971 26.2095C56.7971 26.2052 56.7971 26.2008 56.7971 26.1965C56.7971 25.7978 56.6346 25.501 56.3096 25.306C55.9846 25.1067 55.5144 25.007 54.8991 25.007C54.2577 25.007 53.7594 25.1197 53.4041 25.345C53.0487 25.566 52.8711 25.9257 52.8711 26.424H51.7791C51.7791 25.9083 51.9112 25.4707 52.1756 25.111C52.4399 24.747 52.8061 24.4697 53.2741 24.279C53.7464 24.0883 54.2902 23.993 54.9056 23.993C55.4689 23.993 55.9759 24.0797 56.4266 24.253C56.8816 24.422 57.2412 24.6755 57.5056 25.0135C57.7742 25.3472 57.9086 25.761 57.9086 26.255C57.9086 26.346 57.9086 26.437 57.9086 26.528C57.9086 26.6147 57.9086 26.7035 57.9086 26.7945V29.7C57.9086 29.8517 57.9151 29.999 57.9281 30.142C57.9411 30.285 57.9627 30.4107 57.9931 30.519C58.0321 30.649 58.0754 30.7552 58.1231 30.8375C58.1707 30.9155 58.2097 30.9697 58.2401 31H57.1286C57.1069 30.9783 57.0744 30.9285 57.0311 30.8505C56.9877 30.7682 56.9466 30.6728 56.9076 30.5645C56.8772 30.4778 56.8534 30.3695 56.8361 30.2395C56.8187 30.1052 56.8101 29.9665 56.8101 29.8235L56.9921 29.947C56.8577 30.181 56.6606 30.3868 56.4006 30.5645C56.1449 30.7422 55.8351 30.8808 55.4711 30.9805C55.1071 31.0802 54.6954 31.13 54.2361 31.13ZM54.4116 30.1355C54.8579 30.1355 55.2609 30.0683 55.6206 29.934C55.9802 29.7953 56.2662 29.5917 56.4786 29.323C56.6909 29.0543 56.7971 28.7207 56.7971 28.322V26.9505L57.0441 27.3665C56.7667 27.4748 56.4201 27.5637 56.0041 27.633C55.5924 27.698 55.1612 27.7522 54.7106 27.7955C54.0562 27.8562 53.5622 27.971 53.2286 28.14C52.8992 28.309 52.7346 28.5928 52.7346 28.9915C52.7346 29.3685 52.8711 29.6545 53.1441 29.8495C53.4171 30.0402 53.8396 30.1355 54.4116 30.1355ZM59.7465 31V24.097H60.8515V26.216L60.4875 26.086C60.5135 25.8303 60.5785 25.579 60.6825 25.332C60.7865 25.0807 60.9295 24.8553 61.1115 24.656C61.2978 24.4523 61.5296 24.292 61.807 24.175C62.0843 24.0537 62.4093 23.993 62.782 23.993C63.0593 23.993 63.2846 24.0168 63.458 24.0645C63.6356 24.1078 63.7461 24.1425 63.7895 24.1685L63.5035 25.254C63.4601 25.2237 63.3713 25.1847 63.237 25.137C63.107 25.0893 62.9206 25.0655 62.678 25.0655C62.3183 25.0655 62.0193 25.1305 61.781 25.2605C61.547 25.3905 61.3606 25.5638 61.222 25.7805C61.0876 25.9928 60.9923 26.2247 60.936 26.476C60.8796 26.7273 60.8515 26.9765 60.8515 27.2235V31H59.7465ZM67.2615 31.13C66.7371 31.13 66.2778 31.0477 65.8835 30.883C65.4935 30.7183 65.1901 30.4822 64.9735 30.1745C64.7568 29.8625 64.6485 29.4898 64.6485 29.0565C64.6485 28.6058 64.7655 28.231 64.9995 27.932C65.2335 27.6287 65.5628 27.3925 65.9875 27.2235C66.4121 27.0545 66.9061 26.9418 67.4695 26.8855C68.3188 26.7988 68.9233 26.7143 69.283 26.632C69.6426 26.5453 69.8225 26.4067 69.8225 26.216C69.8225 26.2117 69.8225 26.2095 69.8225 26.2095C69.8225 26.2052 69.8225 26.2008 69.8225 26.1965C69.8225 25.7978 69.66 25.501 69.335 25.306C69.01 25.1067 68.5398 25.007 67.9245 25.007C67.2831 25.007 66.7848 25.1197 66.4295 25.345C66.0741 25.566 65.8965 25.9257 65.8965 26.424H64.8045C64.8045 25.9083 64.9366 25.4707 65.201 25.111C65.4653 24.747 65.8315 24.4697 66.2995 24.279C66.7718 24.0883 67.3156 23.993 67.931 23.993C68.4943 23.993 69.0013 24.0797 69.452 24.253C69.907 24.422 70.2666 24.6755 70.531 25.0135C70.7996 25.3472 70.934 25.761 70.934 26.255C70.934 26.346 70.934 26.437 70.934 26.528C70.934 26.6147 70.934 26.7035 70.934 26.7945V29.7C70.934 29.8517 70.9405 29.999 70.9535 30.142C70.9665 30.285 70.9881 30.4107 71.0185 30.519C71.0575 30.649 71.1008 30.7552 71.1485 30.8375C71.1961 30.9155 71.2351 30.9697 71.2655 31H70.154C70.1323 30.9783 70.0998 30.9285 70.0565 30.8505C70.0131 30.7682 69.972 30.6728 69.933 30.5645C69.9026 30.4778 69.8788 30.3695 69.8615 30.2395C69.8441 30.1052 69.8355 29.9665 69.8355 29.8235L70.0175 29.947C69.8831 30.181 69.686 30.3868 69.426 30.5645C69.1703 30.7422 68.8605 30.8808 68.4965 30.9805C68.1325 31.0802 67.7208 31.13 67.2615 31.13ZM67.437 30.1355C67.8833 30.1355 68.2863 30.0683 68.646 29.934C69.0056 29.7953 69.2916 29.5917 69.504 29.323C69.7163 29.0543 69.8225 28.7207 69.8225 28.322V26.9505L70.0695 27.3665C69.7921 27.4748 69.4455 27.5637 69.0295 27.633C68.6178 27.698 68.1866 27.7522 67.736 27.7955C67.0816 27.8562 66.5876 27.971 66.254 28.14C65.9246 28.309 65.76 28.5928 65.76 28.9915C65.76 29.3685 65.8965 29.6545 66.1695 29.8495C66.4425 30.0402 66.865 30.1355 67.437 30.1355ZM77.7118 31V27.6915C77.7118 27.4922 77.7118 27.3297 77.7118 27.204C77.7118 27.074 77.7118 26.9505 77.7118 26.8335C77.7118 26.4738 77.6512 26.1597 77.5298 25.891C77.4085 25.6223 77.2178 25.4143 76.9578 25.267C76.6978 25.1197 76.3577 25.046 75.9373 25.046C75.569 25.046 75.2267 25.1413 74.9103 25.332C74.5983 25.5183 74.347 25.7718 74.1563 26.0925C73.97 26.4088 73.8768 26.7642 73.8768 27.1585L73.2463 26.918C73.2463 26.3763 73.3785 25.8845 73.6428 25.4425C73.9115 25.0005 74.2668 24.6495 74.7088 24.3895C75.1552 24.1252 75.6405 23.993 76.1648 23.993C76.6978 23.993 77.1637 24.0948 77.5623 24.2985C77.961 24.5022 78.2687 24.7947 78.4853 25.176C78.7063 25.553 78.8168 26.008 78.8168 26.541C78.8168 26.7317 78.8168 26.9397 78.8168 27.165C78.8168 27.3903 78.8168 27.6005 78.8168 27.7955V31H77.7118ZM72.7718 31V24.097H73.8768V31H72.7718ZM84.0205 31.13C83.3618 31.13 82.7638 30.987 82.2265 30.701C81.6892 30.4107 81.2623 29.9968 80.946 29.4595C80.634 28.9222 80.478 28.283 80.478 27.542C80.478 26.801 80.634 26.1662 80.946 25.6375C81.2623 25.1045 81.6892 24.6972 82.2265 24.4155C82.7638 24.1338 83.3618 23.993 84.0205 23.993C84.5232 23.993 84.9717 24.071 85.366 24.227C85.7603 24.3787 86.094 24.5823 86.367 24.838C86.64 25.0937 86.848 25.3753 86.991 25.683C87.1383 25.9863 87.212 26.2897 87.212 26.593C87.212 26.5973 87.212 26.6038 87.212 26.6125C87.212 26.6212 87.212 26.6298 87.212 26.6385H86.1135C86.1135 26.6168 86.1113 26.593 86.107 26.567C86.1027 26.5367 86.0983 26.5063 86.094 26.476C86.0593 26.1857 85.9488 25.9322 85.7625 25.7155C85.5762 25.4945 85.3335 25.3212 85.0345 25.1955C84.7355 25.0698 84.3953 25.007 84.014 25.007C83.585 25.007 83.1863 25.1002 82.818 25.2865C82.454 25.4685 82.1593 25.748 81.934 26.125C81.713 26.4977 81.6025 26.97 81.6025 27.542C81.6025 28.1097 81.713 28.5842 81.934 28.9655C82.155 29.3468 82.4475 29.635 82.8115 29.83C83.1798 30.0207 83.5807 30.116 84.014 30.116C84.482 30.116 84.8677 30.0423 85.171 29.895C85.4743 29.7477 85.7018 29.5527 85.8535 29.31C86.0095 29.063 86.0962 28.7987 86.1135 28.517H87.212C87.212 28.829 87.1427 29.141 87.004 29.453C86.8653 29.7607 86.6617 30.0423 86.393 30.298C86.1243 30.5493 85.7907 30.7508 85.392 30.9025C84.9977 31.0542 84.5405 31.13 84.0205 31.13ZM89.2905 27.9905V27.0025H94.627L94.432 27.3275C94.432 27.3015 94.432 27.2777 94.432 27.256C94.432 27.23 94.432 27.2062 94.432 27.1845C94.432 26.7858 94.3475 26.4218 94.1785 26.0925C94.0138 25.7588 93.7668 25.4923 93.4375 25.293C93.1081 25.0937 92.7008 24.994 92.2155 24.994C91.7258 24.994 91.2946 25.098 90.922 25.306C90.5493 25.514 90.259 25.8087 90.051 26.19C89.843 26.567 89.739 27.0177 89.739 27.542C89.739 28.075 89.8386 28.5343 90.038 28.92C90.2416 29.3057 90.5298 29.6025 90.9025 29.8105C91.2751 30.0185 91.7171 30.1225 92.2285 30.1225C92.5925 30.1225 92.9088 30.0857 93.1775 30.012C93.4461 29.934 93.6671 29.8322 93.8405 29.7065C94.0181 29.5765 94.1525 29.4357 94.2435 29.284C94.3345 29.1323 94.3886 28.9807 94.406 28.829H95.511C95.4893 29.1063 95.4026 29.3815 95.251 29.6545C95.0993 29.9275 94.8848 30.1767 94.6075 30.402C94.3301 30.623 93.99 30.8007 93.587 30.935C93.184 31.0693 92.7203 31.1365 92.196 31.1365C91.5026 31.1365 90.8916 30.9848 90.363 30.6815C89.8343 30.3782 89.4183 29.9578 89.115 29.4205C88.816 28.8832 88.6665 28.2657 88.6665 27.568C88.6665 26.8617 88.8181 26.242 89.1215 25.709C89.4248 25.1717 89.843 24.7513 90.376 24.448C90.909 24.1447 91.5178 23.993 92.2025 23.993C92.9001 23.993 93.5046 24.1447 94.016 24.448C94.5273 24.7513 94.9216 25.1673 95.199 25.696C95.4763 26.2203 95.615 26.8183 95.615 27.49C95.615 27.5593 95.6128 27.6503 95.6085 27.763C95.6041 27.8757 95.5976 27.9515 95.589 27.9905H89.2905Z" fill="black"/>
<path d="M31.3556 166.998C30.8568 166.868 30.3518 166.754 29.8572 166.608C26.0091 165.47 23.2963 162.186 23.0689 158.171C22.9249 155.606 22.7809 153.018 23.361 150.472C24.0138 147.582 25.5696 144.975 27.803 143.028C30.0364 141.081 32.8315 139.895 35.7838 139.642C35.9924 139.623 36.1823 139.579 36.5225 139.525C36.2366 139.316 36.0634 139.187 35.8965 139.062C33.2295 137.184 31.8459 134.602 31.6602 131.351C31.6198 131.015 31.4507 130.709 31.1886 130.495C27.0463 127.422 26.4912 121.716 30.0012 117.947C30.8526 117.033 31.7687 116.18 32.6035 115.251C34.5458 113.139 35.6635 110.398 35.7524 107.53C35.8505 105.166 35.6857 102.76 36.5538 100.51C37.1736 98.972 37.9002 97.479 38.7282 96.0422C39.2416 95.1157 40.2433 94.9404 40.9966 95.4642C41.7499 95.988 41.9106 96.8811 41.3159 97.7367C39.5442 100.297 38.8618 103.144 38.9181 106.222C39.0072 111.031 37.3203 115.114 33.8576 118.469C33.3526 118.955 32.8601 119.458 32.3718 119.965C29.8364 122.609 30.4687 126.643 33.7157 128.336C34.6068 128.797 34.9261 129.408 34.8405 130.402C34.4002 135.46 39.2374 138.985 43.8931 137.002C44.8071 136.614 45.5041 136.733 46.2303 137.401C47.5388 138.601 48.2649 138.513 49.3772 137.123C49.4905 136.98 49.5944 136.831 49.6882 136.674C50.3288 135.619 50.285 135.497 49.2708 134.796C44.4266 131.482 41.9656 126.891 41.8877 121.023C41.8626 119.279 41.871 117.534 41.8877 115.79C41.9252 111.923 44.5546 109.258 48.4236 109.241C54.853 109.214 61.2824 109.241 67.7119 109.241C69.3158 109.202 70.8791 109.749 72.1088 110.779C72.2817 110.922 72.5006 110.996 72.7244 110.988C74.5253 110.779 75.9819 111.432 77.2257 112.68C77.4719 112.924 77.7286 113.158 78.027 113.44C78.027 113.288 78.0583 113.231 78.027 113.196C75.1347 109.329 73.436 104.901 71.9168 100.37C71.007 97.6386 69.1101 95.8607 66.32 95.0823C64.9622 94.6817 63.5159 94.694 62.1652 95.1178C61.7881 95.2573 61.3809 95.2947 60.9848 95.2262C60.5886 95.1576 60.2176 94.9856 59.9093 94.7275C57.7783 93.1121 55.1913 92.2116 52.5179 92.1545C51.4014 92.1149 50.6982 91.4533 50.7378 90.5122C50.7775 89.571 51.4745 89.0034 52.5721 89.0326C55.553 89.1114 58.4557 90.0025 60.9674 91.6099C61.3265 91.825 61.7483 91.9111 62.1631 91.854C67.6201 90.869 72.8538 93.8866 74.8029 99.0973C75.8838 101.99 76.9314 104.913 78.2816 107.682C80.0115 111.23 82.595 114.162 85.5604 116.764C87.9456 118.851 88.8575 121.53 88.2941 124.638C87.8266 127.211 86.5057 129.27 84.1643 130.639C84.2937 130.886 84.4043 131.113 84.5295 131.33C88.3831 138.054 92.2416 144.775 96.105 151.495C96.9961 153.037 97.7473 154.613 98.0645 156.374V158.561C98.0082 158.782 97.9497 159.001 97.8996 159.224C97.0566 162.993 94.7959 165.465 91.1175 166.641C90.6793 166.781 90.2286 166.881 89.7841 167L31.3556 166.998ZM61.0195 155.938L51.4598 155.116C46.7937 154.711 42.1277 154.314 37.4616 153.897C36.3326 153.795 35.7462 153.1 35.8714 152.111C35.9841 151.23 36.7479 150.706 37.762 150.794L62.0254 152.897C63.8325 153.054 64.0036 153.2 64.3751 154.974C64.5984 154.974 64.8279 154.974 65.0575 154.974C66.6435 154.921 68.242 154.721 69.8133 154.846C72.883 155.091 75.9903 155.358 78.3922 157.695C78.4008 157.641 78.4008 157.586 78.3922 157.532C76.5697 152.553 74.7389 147.577 72.8997 142.605C72.8225 142.396 72.4698 142.188 72.2194 142.154C70.7837 141.914 69.3292 141.777 67.906 141.489C67.3676 141.38 67.0316 141.389 66.5996 141.762C62.0087 145.727 55.3914 146.067 50.5125 142.486C49.4044 141.674 48.4945 141.382 47.0755 141.597C43.3756 142.154 39.6298 142.419 35.9006 142.76C31.2804 143.177 27.1673 146.768 26.3973 151.347C26.0843 153.2 26.1886 155.128 26.1594 157.025C26.0843 161.115 28.7909 163.863 32.8831 163.863C41.7604 163.863 50.637 163.863 59.5129 163.863C59.7883 163.863 60.0638 163.84 60.3476 163.826C60.5709 161.18 60.7795 158.617 61.0091 155.946L61.0195 155.938ZM69.5441 112.595C68.6885 112.501 68.0562 112.374 67.4218 112.371C61.1739 112.358 54.926 112.358 48.6781 112.371C48.3918 112.367 48.1054 112.378 47.8205 112.407C46.2783 112.599 45.0742 113.659 45.0513 115.205C45.0116 118.035 44.8948 120.907 45.2954 123.692C46.0655 129.072 50.7065 133.394 56.0926 134.17C61.727 134.984 67.2653 132.121 69.7152 127.129C69.8338 126.872 69.9167 126.6 69.9615 126.32C70.4122 123.828 70.2474 121.414 69.0224 119.141C68.9849 119.072 68.9765 118.991 68.9452 118.92C67.9686 116.806 67.8747 114.748 69.5441 112.595ZM72.9373 133.542C73.0437 133.864 73.1272 134.131 73.2232 134.394C74.9705 139.147 76.7186 143.901 78.4673 148.655C79.7924 152.265 81.1009 155.879 82.4322 159.483C83.6843 162.822 86.9773 164.563 90.2327 163.626C94.375 162.436 96.1321 157.901 93.9201 154.026C89.4683 146.236 85.0074 138.454 80.5374 130.683C80.4373 130.508 80.312 130.345 80.1827 130.151L72.9373 133.542ZM73.3546 129.892C74.7611 129.239 75.9068 128.742 77.0128 128.169C77.154 128.079 77.2749 127.961 77.3676 127.822C77.4604 127.683 77.5229 127.526 77.5512 127.361C77.7766 125.159 77.956 122.956 78.1313 120.75C78.2419 119.375 77.9414 118.077 77.0525 117.021C76.2686 116.118 75.4206 115.273 74.5149 114.492C73.8492 113.901 72.9122 113.937 72.1944 114.44C71.8575 114.668 71.6022 114.997 71.4656 115.38C71.329 115.764 71.3182 116.18 71.4348 116.57C71.6658 117.369 71.9531 118.151 72.2945 118.909C73.2461 120.917 73.6468 122.983 73.2002 125.184C73.1442 125.439 73.1189 125.7 73.1251 125.961C73.1814 127.219 73.2649 128.475 73.3484 129.892H73.3546ZM63.4924 163.749C63.6113 163.811 63.6552 163.855 63.7011 163.855C67.1881 163.855 70.6773 163.888 74.1643 163.845C75.3559 163.83 76.3158 162.828 76.4723 161.664C76.5447 161.103 76.4251 160.534 76.1329 160.05C75.8408 159.566 75.3933 159.195 74.8634 158.997C71.3158 157.676 67.6848 157.768 63.9536 158.258C63.7977 160.12 63.644 161.95 63.4924 163.749ZM51.6706 139.417C55.2683 142.824 61.4264 142.449 64.421 139.4C63.9264 138.507 63.4423 137.628 62.9206 136.687C59.7579 137.694 56.3614 137.698 53.1961 136.699C52.6577 137.655 52.1652 138.538 51.6706 139.417ZM80.3204 116.084C82.1505 119.481 80.7878 123.029 80.8275 126.23L82.7474 127.795C82.9711 127.671 83.1859 127.532 83.3901 127.378C85.5604 125.579 86.0028 122 84.1768 119.865C83.0124 118.505 81.6142 117.336 80.3204 116.084ZM69.3772 132.987C68.292 133.759 67.2382 134.5 66.1969 135.258C66.0967 135.331 65.9882 135.562 66.0258 135.631C66.4703 136.372 66.8605 137.186 67.4573 137.774C67.6806 137.983 68.4506 137.735 68.9369 137.582C69.373 137.444 69.7591 137.148 70.1723 136.935C70.5854 136.722 70.6835 136.453 70.4978 135.998C70.0971 135.007 69.7528 134.001 69.3772 132.979V132.987ZM81.3262 163.845L79.709 161.28C79.5295 162.115 79.3438 162.97 79.1518 163.845H81.3262Z" fill="#3CE7FF"/>
<path d="M98.048 93.4045C97.6076 94.306 97.2779 95.2826 96.704 96.0902C96.329 96.6103 95.8479 97.045 95.2925 97.3655C94.7371 97.686 94.12 97.885 93.482 97.9495C92.8059 98.0351 92.4762 98.3189 92.3948 98.9929C92.3438 99.3553 92.236 99.7075 92.0755 100.036C91.9253 100.342 91.6784 100.589 91.3731 100.74C91.0679 100.891 90.7213 100.937 90.3873 100.871C89.6757 100.717 89.0183 100.059 89.1728 99.3748C89.3987 98.2666 89.7699 97.1931 90.2767 96.182C90.717 95.3473 91.6456 95.0572 92.5993 94.9425C94.3105 94.7338 95.2892 93.296 94.7842 91.7893C94.6397 91.3262 94.3556 90.9191 93.9708 90.6236C93.5861 90.3281 93.1195 90.1587 92.6348 90.1386C92.1633 90.1055 91.693 90.2173 91.2868 90.459C90.8806 90.7007 90.558 91.0607 90.3622 91.4909C90.2683 91.6745 90.2078 91.8769 90.1222 92.0647C89.7383 92.8995 88.9474 93.2605 88.1419 92.9537C87.3364 92.647 86.9733 91.8707 87.2153 90.9859C87.54 89.8585 88.216 88.8641 89.1449 88.1475C90.0738 87.4309 91.2072 87.0294 92.3801 87.0015C93.553 86.9735 94.7041 87.3206 95.6661 87.9922C96.6281 88.6638 97.3507 89.6248 97.7287 90.7354C97.8393 91.0506 97.9374 91.3615 98.048 91.6849V93.4045Z" fill="#3CE7FF"/>
<path d="M18 92.5177C18.071 89.9801 19.8364 87.7389 22.2738 87.1629C23.4846 86.8743 24.7572 86.9989 25.889 87.517C27.0208 88.035 27.9468 88.9168 28.5196 90.0219C29.0956 91.1129 29.2797 92.3686 29.0412 93.5791C28.8026 94.7896 28.1559 95.8816 27.2091 96.6725C26.583 97.1838 26.462 97.6304 26.7625 98.3023C26.8252 98.4737 26.872 98.6504 26.9023 98.8303C27.1235 99.7902 26.6749 100.606 25.7963 100.846C24.9825 101.069 24.1749 100.575 23.889 99.665C23.7638 99.2685 23.6803 98.8637 23.5613 98.463C23.1252 96.8541 23.5613 95.5623 24.9031 94.5461C26.2032 93.5548 26.3639 91.9689 25.333 90.8837C24.996 90.5184 24.5516 90.2697 24.064 90.1733C23.5765 90.0769 23.0709 90.1379 22.6202 90.3474C22.1654 90.5499 21.785 90.8889 21.5319 91.3175C21.2787 91.7461 21.1653 92.2429 21.2074 92.7389C21.2262 92.9476 21.2909 93.1458 21.3139 93.3503C21.359 93.7285 21.2663 94.1103 21.0528 94.4257C20.8393 94.7412 20.5194 94.9691 20.1515 95.0678C19.7835 95.1696 19.3906 95.1269 19.053 94.9485C18.7155 94.77 18.459 94.4693 18.336 94.1078C18.1898 93.5856 18.0776 93.0544 18 92.5177Z" fill="#3CE7FF"/>
<path d="M46.9754 92.1754C46.9782 92.376 46.9414 92.5752 46.8672 92.7616C46.793 92.948 46.6827 93.1179 46.5428 93.2617C46.4029 93.4055 46.236 93.5203 46.0517 93.5996C45.8675 93.6789 45.6694 93.7211 45.4688 93.7238C45.2617 93.7277 45.0559 93.6906 44.8632 93.6147C44.6706 93.5387 44.4948 93.4255 44.3461 93.2814C44.1973 93.1373 44.0785 92.9652 43.9965 92.775C43.9145 92.5849 43.8709 92.3804 43.8682 92.1733C43.8785 91.7554 44.052 91.3581 44.3515 91.0663C44.651 90.7746 45.0528 90.6117 45.4708 90.6124C45.8759 90.6254 46.2598 90.7961 46.5408 91.0881C46.8219 91.38 46.9778 91.7702 46.9754 92.1754Z" fill="#3CE7FF"/>
<path d="M28.407 104.755C28.4071 104.956 28.3668 105.156 28.2886 105.342C28.2103 105.528 28.0957 105.696 27.9514 105.837C27.8071 105.978 27.6362 106.089 27.4485 106.163C27.2608 106.237 27.0602 106.272 26.8586 106.268C26.6558 106.264 26.4557 106.22 26.2698 106.139C26.0838 106.058 25.9157 105.941 25.7749 105.795C25.6341 105.649 25.5235 105.477 25.4493 105.288C25.3751 105.1 25.3388 104.898 25.3425 104.695C25.3462 104.492 25.3898 104.292 25.4709 104.106C25.5519 103.92 25.6687 103.752 25.8147 103.611C25.9608 103.471 26.1331 103.36 26.3218 103.286C26.5106 103.212 26.7121 103.175 26.9149 103.179C27.1166 103.184 27.3154 103.228 27.4998 103.31C27.6842 103.392 27.8506 103.509 27.9893 103.656C28.1281 103.802 28.2364 103.975 28.3081 104.164C28.3798 104.352 28.4134 104.553 28.407 104.755Z" fill="#3CE7FF"/>
<path d="M87.6995 104.702C87.7 104.501 87.7407 104.301 87.8192 104.115C87.8978 103.929 88.0126 103.761 88.1569 103.62C88.3013 103.479 88.4723 103.368 88.66 103.294C88.8476 103.219 89.0482 103.183 89.25 103.187C89.4568 103.185 89.6621 103.224 89.8536 103.302C90.0451 103.38 90.219 103.496 90.3648 103.643C90.5106 103.79 90.6255 103.964 90.7025 104.156C90.7796 104.348 90.8173 104.554 90.8134 104.761C90.8095 104.968 90.764 105.172 90.6797 105.361C90.5955 105.55 90.4741 105.72 90.3228 105.861C90.1715 106.002 89.9934 106.111 89.7991 106.182C89.6048 106.253 89.3982 106.284 89.1915 106.274C88.9898 106.271 88.7907 106.227 88.6059 106.146C88.4211 106.065 88.2544 105.948 88.1154 105.802C87.9765 105.655 87.8681 105.483 87.7967 105.294C87.7253 105.105 87.6922 104.904 87.6995 104.702Z" fill="#3CE7FF"/>
<path d="M58.025 124.149C59.4161 124.117 60.7644 124.631 61.7813 125.581C62.5388 126.268 62.6389 127.169 62.0588 127.86C61.4787 128.55 60.5751 128.592 59.7633 127.968C58.5384 127.015 57.5597 127.017 56.3201 127.968C55.5188 128.594 54.6068 128.538 54.0246 127.841C53.4424 127.144 53.553 126.29 54.2688 125.621C55.2765 124.652 56.6275 124.123 58.025 124.149Z" fill="#3CE7FF"/>
<path d="M63.772 119.951C63.5652 119.943 63.3621 119.894 63.1743 119.807C62.9865 119.72 62.8178 119.597 62.6779 119.444C62.538 119.292 62.4297 119.113 62.3593 118.918C62.2888 118.724 62.2576 118.517 62.2674 118.311C62.2864 117.908 62.4629 117.529 62.7589 117.256C63.0549 116.983 63.4465 116.837 63.8492 116.85C64.254 116.862 64.6386 117.029 64.9228 117.318C65.207 117.606 65.3689 117.993 65.3746 118.398C65.3616 118.814 65.1871 119.209 64.8879 119.499C64.5887 119.789 64.1885 119.951 63.772 119.951Z" fill="#3CE7FF"/>
<path d="M53.8514 118.394C53.851 118.799 53.6932 119.188 53.4112 119.478C53.1292 119.769 52.7452 119.938 52.3406 119.951C51.9223 119.949 51.5212 119.784 51.2229 119.491C50.9247 119.198 50.7529 118.8 50.7441 118.381C50.7479 118.174 50.7926 117.97 50.8756 117.78C50.9587 117.591 51.0784 117.419 51.2279 117.276C51.3774 117.132 51.5538 117.02 51.7469 116.945C51.94 116.87 52.146 116.834 52.3531 116.839C52.5536 116.843 52.7514 116.886 52.9353 116.966C53.1192 117.046 53.2854 117.162 53.4246 117.306C53.5638 117.45 53.6731 117.621 53.7463 117.807C53.8196 117.994 53.8553 118.193 53.8514 118.394Z" fill="#3CE7FF"/>
</svg>
