<svg width="159" height="185" viewBox="0 0 159 185" fill="none" xmlns="http://www.w3.org/2000/svg">
<path d="M0 40C0 21.1438 0 11.7157 5.85786 5.85786C11.7157 0 21.1438 0 40 0H119C137.856 0 147.284 0 153.142 5.85786C159 11.7157 159 21.1438 159 40V145C159 163.856 159 173.284 153.142 179.142C147.284 185 137.856 185 119 185H40C21.1438 185 11.7157 185 5.85786 179.142C0 173.284 0 163.856 0 145V40Z" fill="#FFEBE1"/>
<mask id="mask0_85_1200" style="mask-type:alpha" maskUnits="userSpaceOnUse" x="0" y="0" width="159" height="185">
<path d="M0 40C0 21.1438 0 11.7157 5.85786 5.85786C11.7157 0 21.1438 0 40 0H119C137.856 0 147.284 0 153.142 5.85786C159 11.7157 159 21.1438 159 40V145C159 163.856 159 173.284 153.142 179.142C147.284 185 137.856 185 119 185H40C21.1438 185 11.7157 185 5.85786 179.142C0 173.284 0 163.856 0 145V40Z" fill="#E6F2FF"/>
</mask>
<g mask="url(#mask0_85_1200)">
<path d="M168.707 36.348C170.515 34.3323 172.903 32.9271 175.543 32.3262C178.182 31.7253 180.943 31.9584 183.445 32.9933C185.947 34.0282 188.066 35.8139 189.509 38.1041C190.953 40.3942 191.651 43.0759 191.506 45.7793C191.411 47.6064 191.701 49.4331 192.356 51.1412C193.012 52.8493 194.018 54.401 195.311 55.6958C196.603 56.9906 198.153 57.9999 199.86 58.6583C201.567 59.3167 203.393 59.6097 205.221 59.5183C207.924 59.3734 210.606 60.0709 212.896 61.5147C215.186 62.9584 216.972 65.0773 218.007 67.5789C219.042 70.0806 219.275 72.8417 218.674 75.4815C218.073 78.1212 216.668 80.5094 214.652 82.3167C213.292 83.542 212.205 85.0392 211.461 86.7115C210.717 88.3837 210.332 90.1937 210.332 92.024C210.332 93.8543 210.717 95.6643 211.461 97.3365C212.205 99.0088 213.292 100.506 214.652 101.731C216.668 103.539 218.073 105.927 218.674 108.567C219.275 111.206 219.042 113.967 218.007 116.469C216.972 118.971 215.186 121.09 212.896 122.533C210.606 123.977 207.924 124.675 205.221 124.53C203.396 124.435 201.571 124.725 199.865 125.379C198.158 126.033 196.608 127.037 195.313 128.327C194.019 129.617 193.009 131.164 192.349 132.868C191.689 134.572 191.394 136.395 191.482 138.221C191.627 140.924 190.929 143.606 189.485 145.896C188.042 148.186 185.923 149.972 183.421 151.007C180.919 152.042 178.158 152.275 175.519 151.674C172.879 151.073 170.491 149.668 168.683 147.652C167.458 146.292 165.961 145.205 164.289 144.461C162.616 143.717 160.806 143.332 158.976 143.332C157.146 143.332 155.336 143.717 153.663 144.461C151.991 145.205 150.494 146.292 149.269 147.652C147.461 149.668 145.073 151.073 142.433 151.674C139.794 152.275 137.033 152.042 134.531 151.007C132.029 149.972 129.91 148.186 128.467 145.896C127.023 143.606 126.325 140.924 126.47 138.221C126.565 136.396 126.275 134.571 125.621 132.865C124.967 131.158 123.963 129.608 122.673 128.313C121.383 127.019 119.836 126.009 118.132 125.349C116.428 124.689 114.605 124.394 112.779 124.482C110.076 124.627 107.394 123.929 105.104 122.485C102.814 121.042 101.028 118.923 99.9933 116.421C98.9584 113.919 98.7253 111.158 99.3262 108.519C99.9271 105.879 101.332 103.491 103.348 101.683C104.708 100.458 105.795 98.9608 106.539 97.2885C107.283 95.6163 107.668 93.8063 107.668 91.976C107.668 90.1457 107.283 88.3357 106.539 86.6635C105.795 84.9912 104.708 83.494 103.348 82.2687C101.332 80.4614 99.9271 78.0732 99.3262 75.4335C98.7253 72.7937 98.9584 70.0326 99.9933 67.531C101.028 65.0293 102.814 62.9104 105.104 61.4667C107.394 60.0229 110.076 59.3254 112.779 59.4703C114.604 59.5646 116.429 59.2755 118.135 58.6215C119.842 57.9674 121.392 56.9631 122.687 55.6732C123.981 54.3832 124.991 52.8363 125.651 51.1322C126.311 49.4281 126.606 47.6046 126.518 45.7793C126.373 43.0759 127.071 40.3942 128.515 38.1041C129.958 35.8139 132.077 34.0282 134.579 32.9933C137.081 31.9584 139.842 31.7253 142.481 32.3262C145.121 32.9271 147.509 34.3323 149.317 36.348C150.542 37.7038 152.038 38.7876 153.708 39.5293C155.378 40.2711 157.185 40.6544 159.012 40.6544C160.839 40.6544 162.646 40.2711 164.316 39.5293C165.986 38.7876 167.482 37.7038 168.707 36.348Z" fill="#FFE1D1"/>
</g>
<path d="M18.507 30L21.146 20.3865H22.875L25.4945 30H24.3505L22.004 21.108H22.017L19.651 30H18.507ZM19.872 27.4585V26.4835H24.149V27.4585H19.872ZM29.738 30.13C29.1703 30.13 28.6503 29.9935 28.178 29.7205C27.7057 29.4432 27.3287 29.038 27.047 28.505C26.7653 27.9677 26.6245 27.3133 26.6245 26.542C26.6245 25.7837 26.7675 25.1402 27.0535 24.6115C27.3395 24.0828 27.7187 23.682 28.191 23.409C28.6633 23.1317 29.179 22.993 29.738 22.993C30.271 22.993 30.7693 23.1208 31.233 23.3765C31.701 23.6278 32.078 23.9788 32.364 24.4295C32.65 24.8802 32.793 25.4023 32.793 25.996C32.793 26.009 32.793 26.022 32.793 26.035C32.793 26.048 32.793 26.061 32.793 26.074L32 26.1065C32 26.0935 32 26.0805 32 26.0675C32 26.0502 32 26.035 32 26.022C32 25.645 31.9003 25.3048 31.701 25.0015C31.506 24.6982 31.2482 24.4577 30.9275 24.28C30.6068 24.098 30.2623 24.007 29.894 24.007C29.2787 24.007 28.7695 24.215 28.3665 24.631C27.9635 25.0427 27.762 25.6797 27.762 26.542C27.762 27.4 27.9635 28.0392 28.3665 28.4595C28.7738 28.8755 29.283 29.0835 29.894 29.0835C30.2797 29.0835 30.6307 28.9903 30.947 28.804C31.2677 28.6177 31.5233 28.3685 31.714 28.0565C31.9047 27.7402 32 27.387 32 26.997L32.793 27.0165C32.793 27.6058 32.6565 28.1367 32.3835 28.609C32.1105 29.077 31.7422 29.4475 31.2785 29.7205C30.8192 29.9935 30.3057 30.13 29.738 30.13ZM32 30V19.8405H33.1115V30H32ZM37.9011 30.13C37.3334 30.13 36.8134 29.9935 36.3411 29.7205C35.8687 29.4432 35.4917 29.038 35.2101 28.505C34.9284 27.9677 34.7876 27.3133 34.7876 26.542C34.7876 25.7837 34.9306 25.1402 35.2166 24.6115C35.5026 24.0828 35.8817 23.682 36.3541 23.409C36.8264 23.1317 37.3421 22.993 37.9011 22.993C38.4341 22.993 38.9324 23.1208 39.3961 23.3765C39.8641 23.6278 40.2411 23.9788 40.5271 24.4295C40.8131 24.8802 40.9561 25.4023 40.9561 25.996C40.9561 26.009 40.9561 26.022 40.9561 26.035C40.9561 26.048 40.9561 26.061 40.9561 26.074L40.1631 26.1065C40.1631 26.0935 40.1631 26.0805 40.1631 26.0675C40.1631 26.0502 40.1631 26.035 40.1631 26.022C40.1631 25.645 40.0634 25.3048 39.8641 25.0015C39.6691 24.6982 39.4112 24.4577 39.0906 24.28C38.7699 24.098 38.4254 24.007 38.0571 24.007C37.4417 24.007 36.9326 24.215 36.5296 24.631C36.1266 25.0427 35.9251 25.6797 35.9251 26.542C35.9251 27.4 36.1266 28.0392 36.5296 28.4595C36.9369 28.8755 37.4461 29.0835 38.0571 29.0835C38.4427 29.0835 38.7937 28.9903 39.1101 28.804C39.4307 28.6177 39.6864 28.3685 39.8771 28.0565C40.0677 27.7402 40.1631 27.387 40.1631 26.997L40.9561 27.0165C40.9561 27.6058 40.8196 28.1367 40.5466 28.609C40.2736 29.077 39.9052 29.4475 39.4416 29.7205C38.9822 29.9935 38.4687 30.13 37.9011 30.13ZM40.1631 30V19.8405H41.2746V30H40.1631ZM43.2822 30V23.097H44.3742V30H43.2822ZM43.8347 21.511C43.631 21.511 43.4533 21.4547 43.3017 21.342C43.1543 21.225 43.0807 21.0668 43.0807 20.8675C43.0807 20.6725 43.1543 20.5187 43.3017 20.406C43.4533 20.289 43.631 20.2305 43.8347 20.2305C44.0383 20.2305 44.2138 20.289 44.3612 20.406C44.5085 20.5187 44.5822 20.6725 44.5822 20.8675C44.5822 21.0668 44.5085 21.225 44.3612 21.342C44.2138 21.4547 44.0383 21.511 43.8347 21.511ZM49.7051 30.13C49.0464 30.13 48.4484 29.987 47.9111 29.701C47.3737 29.4107 46.9469 28.9968 46.6306 28.4595C46.3186 27.9222 46.1626 27.283 46.1626 26.542C46.1626 25.801 46.3186 25.1662 46.6306 24.6375C46.9469 24.1045 47.3737 23.6972 47.9111 23.4155C48.4484 23.1338 49.0464 22.993 49.7051 22.993C50.2077 22.993 50.6562 23.071 51.0506 23.227C51.4449 23.3787 51.7786 23.5823 52.0516 23.838C52.3246 24.0937 52.5326 24.3753 52.6756 24.683C52.8229 24.9863 52.8966 25.2897 52.8966 25.593C52.8966 25.5973 52.8966 25.6038 52.8966 25.6125C52.8966 25.6212 52.8966 25.6298 52.8966 25.6385H51.7981C51.7981 25.6168 51.7959 25.593 51.7916 25.567C51.7872 25.5367 51.7829 25.5063 51.7786 25.476C51.7439 25.1857 51.6334 24.9322 51.4471 24.7155C51.2607 24.4945 51.0181 24.3212 50.7191 24.1955C50.4201 24.0698 50.0799 24.007 49.6986 24.007C49.2696 24.007 48.8709 24.1002 48.5026 24.2865C48.1386 24.4685 47.8439 24.748 47.6186 25.125C47.3976 25.4977 47.2871 25.97 47.2871 26.542C47.2871 27.1097 47.3976 27.5842 47.6186 27.9655C47.8396 28.3468 48.1321 28.635 48.4961 28.83C48.8644 29.0207 49.2652 29.116 49.6986 29.116C50.1666 29.116 50.5522 29.0423 50.8556 28.895C51.1589 28.7477 51.3864 28.5527 51.5381 28.31C51.6941 28.063 51.7807 27.7987 51.7981 27.517H52.8966C52.8966 27.829 52.8272 28.141 52.6886 28.453C52.5499 28.7607 52.3462 29.0423 52.0776 29.298C51.8089 29.5493 51.4752 29.7508 51.0766 29.9025C50.6822 30.0542 50.2251 30.13 49.7051 30.13ZM57.2079 30.104C56.9956 30.104 56.7876 30.0802 56.5839 30.0325C56.3802 29.9848 56.1961 29.9003 56.0314 29.779C55.8711 29.6533 55.7432 29.4778 55.6479 29.2525C55.5526 29.0228 55.5049 28.7282 55.5049 28.3685C55.5049 28.2775 55.5049 28.1843 55.5049 28.089C55.5049 27.9893 55.5049 27.8853 55.5049 27.777V24.072H53.8214V23.097H54.9004C55.0477 23.097 55.1626 23.0927 55.2449 23.084C55.3272 23.071 55.3857 23.0428 55.4204 22.9995C55.4594 22.9518 55.4832 22.8803 55.4919 22.785C55.5006 22.6853 55.5049 22.5488 55.5049 22.3755V20.809H56.6164V23.097H58.7744V24.072H56.6164V27.4195C56.6164 27.5148 56.6164 27.608 56.6164 27.699C56.6164 27.79 56.6164 27.8745 56.6164 27.9525C56.6164 28.3208 56.6597 28.609 56.7464 28.817C56.8374 29.025 57.0389 29.129 57.3509 29.129C57.4766 29.129 57.5957 29.1182 57.7084 29.0965C57.8211 29.0748 57.9056 29.0532 57.9619 29.0315V29.9935C57.8882 30.0195 57.7842 30.0433 57.6499 30.065C57.5199 30.091 57.3726 30.104 57.2079 30.104ZM60.2558 30V23.097H61.3478V30H60.2558ZM60.8083 21.511C60.6046 21.511 60.427 21.4547 60.2753 21.342C60.128 21.225 60.0543 21.0668 60.0543 20.8675C60.0543 20.6725 60.128 20.5187 60.2753 20.406C60.427 20.289 60.6046 20.2305 60.8083 20.2305C61.012 20.2305 61.1875 20.289 61.3348 20.406C61.4821 20.5187 61.5558 20.6725 61.5558 20.8675C61.5558 21.0668 61.4821 21.225 61.3348 21.342C61.1875 21.4547 61.012 21.511 60.8083 21.511ZM66.6722 30.1235C65.9789 30.1235 65.3657 29.9697 64.8327 29.662C64.304 29.35 63.888 28.9253 63.5847 28.388C63.2857 27.8463 63.1362 27.231 63.1362 26.542C63.1362 25.853 63.2857 25.242 63.5847 24.709C63.888 24.176 64.304 23.7578 64.8327 23.4545C65.3657 23.1512 65.9789 22.9995 66.6722 22.9995C67.3655 22.9995 67.9765 23.1512 68.5052 23.4545C69.0382 23.7578 69.4542 24.176 69.7532 24.709C70.0565 25.242 70.2082 25.853 70.2082 26.542C70.2082 27.231 70.0565 27.8463 69.7532 28.388C69.4542 28.9253 69.0382 29.35 68.5052 29.662C67.9765 29.9697 67.3655 30.1235 66.6722 30.1235ZM66.6722 29.1095C67.1489 29.1095 67.5692 29.0033 67.9332 28.791C68.2972 28.5787 68.581 28.2797 68.7847 27.894C68.9927 27.5083 69.0967 27.0577 69.0967 26.542C69.0967 26.0263 68.9927 25.58 68.7847 25.203C68.581 24.8217 68.2972 24.5292 67.9332 24.3255C67.5692 24.1175 67.1489 24.0135 66.6722 24.0135C66.1999 24.0135 65.7795 24.1175 65.4112 24.3255C65.0472 24.5292 64.7612 24.8217 64.5532 25.203C64.3495 25.58 64.2477 26.0263 64.2477 26.542C64.2477 27.0577 64.3495 27.5083 64.5532 27.894C64.7612 28.2797 65.0472 28.5787 65.4112 28.791C65.7795 29.0033 66.1999 29.1095 66.6722 29.1095ZM76.874 30V26.6915C76.874 26.4922 76.874 26.3297 76.874 26.204C76.874 26.074 76.874 25.9505 76.874 25.8335C76.874 25.4738 76.8133 25.1597 76.692 24.891C76.5706 24.6223 76.38 24.4143 76.12 24.267C75.86 24.1197 75.5198 24.046 75.0995 24.046C74.7311 24.046 74.3888 24.1413 74.0725 24.332C73.7605 24.5183 73.5091 24.7718 73.3185 25.0925C73.1321 25.4088 73.039 25.7642 73.039 26.1585L72.4085 25.918C72.4085 25.3763 72.5406 24.8845 72.805 24.4425C73.0736 24.0005 73.429 23.6495 73.871 23.3895C74.3173 23.1252 74.8026 22.993 75.327 22.993C75.86 22.993 76.3258 23.0948 76.7245 23.2985C77.1231 23.5022 77.4308 23.7947 77.6475 24.176C77.8685 24.553 77.979 25.008 77.979 25.541C77.979 25.7317 77.979 25.9397 77.979 26.165C77.979 26.3903 77.979 26.6005 77.979 26.7955V30H76.874ZM71.934 30V23.097H73.039V30H71.934Z" fill="black"/>
<path d="M20.8241 53H18.9463V42.1804H21.9757L25.9295 52.2151L25.6434 52.2958V42.1804H27.5286V53H24.4551L20.516 42.9873L20.8241 42.9139V53ZM29.4045 53V45.2099H31.3116V53H29.4045ZM30.3654 43.7722C30.0524 43.7722 29.7786 43.689 29.5438 43.5228C29.314 43.3516 29.1991 43.1144 29.1991 42.8113C29.1991 42.5129 29.314 42.2807 29.5438 42.1144C29.7786 41.9481 30.0524 41.865 30.3654 41.865C30.6735 41.865 30.9424 41.9481 31.1723 42.1144C31.4021 42.2807 31.517 42.5129 31.517 42.8113C31.517 43.1144 31.4021 43.3516 31.1723 43.5228C30.9424 43.689 30.6735 43.7722 30.3654 43.7722ZM37.0744 53.1614C36.2529 53.1614 35.5267 52.9927 34.8959 52.6552C34.265 52.3178 33.7711 51.8435 33.4141 51.2322C33.0571 50.6209 32.8786 49.9045 32.8786 49.0829C32.8786 48.2663 33.0571 47.5572 33.4141 46.9557C33.7711 46.3542 34.265 45.8921 34.8959 45.5693C35.5267 45.2417 36.2529 45.0779 37.0744 45.0779C37.6906 45.0779 38.2359 45.1683 38.7102 45.3493C39.1846 45.5302 39.5831 45.7723 39.9059 46.0755C40.2335 46.3738 40.4829 46.7039 40.6541 47.0657C40.8252 47.4227 40.9108 47.7797 40.9108 48.1367C40.9108 48.1465 40.9108 48.1562 40.9108 48.166C40.9108 48.1758 40.9108 48.1856 40.9108 48.1954H38.9963C38.9963 48.1709 38.9939 48.144 38.989 48.1147C38.9841 48.0853 38.9792 48.056 38.9743 48.0267C38.9352 47.7773 38.8349 47.5523 38.6735 47.3518C38.5122 47.1464 38.297 46.9826 38.028 46.8603C37.7591 46.7381 37.4339 46.677 37.0524 46.677C36.6466 46.677 36.2749 46.7674 35.9375 46.9484C35.6049 47.1244 35.3384 47.3909 35.1379 47.7479C34.9423 48.1049 34.8445 48.5499 34.8445 49.0829C34.8445 49.6111 34.9423 50.061 35.1379 50.4326C35.3335 50.7994 35.5976 51.0806 35.9301 51.2762C36.2676 51.4669 36.6417 51.5623 37.0524 51.5623C37.4877 51.5623 37.8422 51.4963 38.1161 51.3642C38.3948 51.2273 38.6051 51.0464 38.7469 50.8214C38.8887 50.5916 38.9694 50.3422 38.989 50.0732H40.9108C40.9108 50.4351 40.8277 50.7994 40.6614 51.1662C40.4951 51.528 40.2506 51.8606 39.9279 52.1638C39.6051 52.467 39.2041 52.709 38.7249 52.89C38.2505 53.0709 37.7004 53.1614 37.0744 53.1614ZM46.3362 53.154C45.5146 53.154 44.7909 52.9829 44.1649 52.6406C43.539 52.2934 43.0475 51.8141 42.6905 51.2028C42.3384 50.5916 42.1624 49.8923 42.1624 49.1049C42.1624 48.3127 42.3384 47.6159 42.6905 47.0144C43.0475 46.408 43.539 45.9336 44.1649 45.5913C44.7909 45.249 45.5146 45.0779 46.3362 45.0779C47.1577 45.0779 47.8815 45.249 48.5074 45.5913C49.1334 45.9336 49.6224 46.408 49.9745 47.0144C50.3315 47.6159 50.51 48.3127 50.51 49.1049C50.51 49.8923 50.3315 50.5916 49.9745 51.2028C49.6224 51.8141 49.1334 52.2934 48.5074 52.6406C47.8815 52.9829 47.1577 53.154 46.3362 53.154ZM46.3362 51.5769C46.7812 51.5769 47.17 51.4743 47.5025 51.2689C47.835 51.0635 48.0942 50.7774 48.2801 50.4106C48.4659 50.039 48.5588 49.6038 48.5588 49.1049C48.5588 48.6061 48.4659 48.1758 48.2801 47.8139C48.0942 47.4472 47.835 47.1635 47.5025 46.963C47.17 46.7625 46.7812 46.6623 46.3362 46.6623C45.8961 46.6623 45.5073 46.7625 45.1699 46.963C44.8373 47.1635 44.5782 47.4472 44.3923 47.8139C44.2065 48.1758 44.1136 48.6061 44.1136 49.1049C44.1136 49.6038 44.2065 50.039 44.3923 50.4106C44.5782 50.7774 44.8373 51.0635 45.1699 51.2689C45.5073 51.4743 45.8961 51.5769 46.3362 51.5769ZM55.5998 53.1467C55.321 53.1467 55.0374 53.1198 54.7489 53.066C54.4604 53.0122 54.1963 52.912 53.9567 52.7653C53.717 52.6186 53.5239 52.4034 53.3772 52.1198C53.2305 51.8361 53.1571 51.462 53.1571 50.9975C53.1571 50.8899 53.1571 50.7823 53.1571 50.6747C53.1571 50.5622 53.1571 50.4473 53.1571 50.3299V46.7503H51.316V45.2099H52.0642C52.3184 45.2099 52.5189 45.2001 52.6657 45.1806C52.8124 45.1561 52.9199 45.1023 52.9884 45.0192C53.0569 44.936 53.1009 44.8065 53.1204 44.6304C53.1449 44.4495 53.1571 44.2001 53.1571 43.8822V42.6425H55.0936V45.2099H57.4116V46.7503H55.0936V49.8752C55.0936 49.9681 55.0936 50.061 55.0936 50.1539C55.0936 50.2419 55.0936 50.3275 55.0936 50.4106C55.0936 50.7725 55.1377 51.0635 55.2257 51.2835C55.3137 51.5036 55.5215 51.6136 55.8492 51.6136C56.0057 51.6136 56.1524 51.599 56.2893 51.5696C56.4311 51.5403 56.5363 51.5109 56.6047 51.4816V52.9927C56.5118 53.0269 56.3773 53.0611 56.2013 53.0954C56.0252 53.1296 55.8247 53.1467 55.5998 53.1467ZM58.8317 53V45.2099H60.7389V53H58.8317ZM59.7926 43.7722C59.4796 43.7722 59.2058 43.689 58.971 43.5228C58.7412 43.3516 58.6263 43.1144 58.6263 42.8113C58.6263 42.5129 58.7412 42.2807 58.971 42.1144C59.2058 41.9481 59.4796 41.865 59.7926 41.865C60.1007 41.865 60.3696 41.9481 60.5995 42.1144C60.8293 42.2807 60.9442 42.5129 60.9442 42.8113C60.9442 43.1144 60.8293 43.3516 60.5995 43.5228C60.3696 43.689 60.1007 43.7722 59.7926 43.7722ZM68.1594 53V49.5451C68.1594 49.3495 68.1594 49.1783 68.1594 49.0316C68.1594 48.88 68.1594 48.7431 68.1594 48.6208C68.1594 48.2687 68.1081 47.9533 68.0054 47.6746C67.9076 47.3909 67.7364 47.1684 67.4919 47.007C67.2523 46.8457 66.9198 46.765 66.4943 46.765C66.1227 46.765 65.7926 46.8555 65.5041 47.0364C65.2155 47.2124 64.9881 47.4569 64.8219 47.7699C64.6605 48.078 64.5798 48.435 64.5798 48.8409L63.927 48.4374C63.927 47.787 64.0737 47.21 64.3671 46.7063C64.6654 46.1977 65.0639 45.7992 65.5627 45.5106C66.0615 45.2221 66.6141 45.0779 67.2205 45.0779C67.8465 45.0779 68.3722 45.2001 68.7976 45.4446C69.2279 45.6891 69.5507 46.0363 69.7659 46.4862C69.9859 46.9361 70.096 47.4643 70.096 48.0707C70.096 48.3054 70.096 48.5695 70.096 48.8629C70.096 49.1563 70.096 49.4448 70.096 49.7285V53H68.1594ZM62.6506 53V45.2099H64.5798V53H62.6506ZM72.6676 49.7285V48.3567H78.1177L77.8976 48.7235C77.8976 48.6942 77.8976 48.6624 77.8976 48.6282C77.8976 48.589 77.8976 48.5572 77.8976 48.5328C77.8976 48.1954 77.8218 47.88 77.6702 47.5865C77.5186 47.2882 77.2888 47.0486 76.9807 46.8677C76.6726 46.6819 76.2814 46.5889 75.8071 46.5889C75.3376 46.5889 74.9293 46.6892 74.5821 46.8897C74.2398 47.0853 73.9732 47.3689 73.7825 47.7406C73.5967 48.1122 73.5038 48.5572 73.5038 49.0756C73.5038 49.6086 73.5943 50.0683 73.7752 50.4546C73.9561 50.8361 74.2202 51.1295 74.5674 51.3349C74.9195 51.5354 75.3474 51.6356 75.8511 51.6356C76.1934 51.6356 76.4893 51.6038 76.7387 51.5403C76.9881 51.4767 77.191 51.3911 77.3475 51.2835C77.5089 51.1711 77.6287 51.0513 77.7069 50.9241C77.79 50.797 77.839 50.6698 77.8536 50.5427H79.7755C79.7461 50.8703 79.6361 51.1906 79.4454 51.5036C79.2596 51.8117 78.9979 52.0929 78.6605 52.3472C78.3231 52.5966 77.9123 52.7971 77.4282 52.9487C76.9489 53.0954 76.4012 53.1687 75.7851 53.1687C74.9488 53.1687 74.2178 52.9976 73.5918 52.6552C72.9659 52.3129 72.4768 51.8361 72.1247 51.2249C71.7775 50.6136 71.6039 49.9143 71.6039 49.127C71.6039 48.3201 71.78 47.6134 72.1321 47.007C72.4891 46.4007 72.983 45.9288 73.6138 45.5913C74.2446 45.249 74.9684 45.0779 75.7851 45.0779C76.6262 45.0779 77.3524 45.249 77.9637 45.5913C78.5798 45.9336 79.0542 46.4104 79.3867 47.0217C79.7192 47.6281 79.8855 48.3347 79.8855 49.1416C79.8855 49.2443 79.8831 49.3543 79.8782 49.4717C79.8733 49.5891 79.8659 49.6747 79.8562 49.7285H72.6676ZM86.5961 41.5349L82.3342 54.137H80.7571L85.0263 41.5349H86.5961ZM91.415 53.1614C90.6472 53.1614 89.9773 53.0391 89.4051 52.7946C88.833 52.5501 88.388 52.1833 88.0701 51.6943C87.7522 51.2004 87.5933 50.5891 87.5933 49.8605C87.5933 49.7774 87.5933 49.704 87.5933 49.6404C87.5933 49.572 87.5933 49.4962 87.5933 49.413H89.5225C89.5225 49.4864 89.5225 49.5548 89.5225 49.6184C89.5225 49.6771 89.5225 49.7456 89.5225 49.8238C89.5225 50.4106 89.6814 50.8508 89.9993 51.1442C90.322 51.4327 90.7964 51.5769 91.4223 51.5769C92.0532 51.5769 92.5349 51.4718 92.8674 51.2615C93.2048 51.0513 93.3735 50.7138 93.3735 50.2493C93.3735 49.9118 93.2586 49.6258 93.0288 49.391C92.8038 49.1514 92.4933 48.9411 92.0972 48.7602C91.7011 48.5793 91.2512 48.4105 90.7475 48.2541C90.1802 48.078 89.6643 47.8506 89.1997 47.5719C88.7352 47.2931 88.3635 46.941 88.0848 46.5156C87.806 46.0901 87.6667 45.5669 87.6667 44.9458C87.6667 44.3248 87.8256 43.7966 88.1435 43.3614C88.4662 42.9262 88.9063 42.5961 89.4638 42.3711C90.0262 42.1413 90.6644 42.0264 91.3783 42.0264C92.1265 42.0264 92.7843 42.1437 93.3515 42.3785C93.9237 42.6132 94.3711 42.9628 94.6939 43.4274C95.0166 43.892 95.178 44.4715 95.178 45.1659C95.178 45.2588 95.178 45.3395 95.178 45.408C95.178 45.4764 95.178 45.5547 95.178 45.6427H93.2415C93.2415 45.5791 93.2415 45.5155 93.2415 45.452C93.2415 45.3835 93.2415 45.3175 93.2415 45.2539C93.2415 44.6964 93.0899 44.2856 92.7867 44.0216C92.4835 43.7526 92.0238 43.6181 91.4077 43.6181C90.8062 43.6181 90.3441 43.7233 90.0213 43.9336C89.6985 44.1438 89.5372 44.4788 89.5372 44.9385C89.5372 45.2808 89.6472 45.5669 89.8673 45.7967C90.0873 46.0266 90.3881 46.2271 90.7695 46.3982C91.1558 46.5645 91.5935 46.7332 92.0825 46.9044C92.7329 47.1195 93.2953 47.364 93.7696 47.6379C94.244 47.9068 94.6108 48.2443 94.8699 48.6502C95.1291 49.0512 95.2587 49.5622 95.2587 50.1832C95.2587 50.819 95.0973 51.3593 94.7746 51.8043C94.4567 52.2445 94.0093 52.5819 93.4322 52.8166C92.8601 53.0465 92.1877 53.1614 91.415 53.1614ZM101.719 53V49.8385C101.719 49.55 101.719 49.2981 101.719 49.0829C101.719 48.8629 101.719 48.6795 101.719 48.5328C101.719 48.3421 101.706 48.144 101.682 47.9386C101.657 47.7284 101.604 47.5352 101.521 47.3591C101.437 47.1831 101.308 47.0413 101.132 46.9337C100.961 46.8212 100.723 46.765 100.42 46.765C100.127 46.765 99.8774 46.8261 99.672 46.9484C99.4716 47.0657 99.3053 47.2247 99.1732 47.4252C99.0461 47.6208 98.9532 47.8457 98.8945 48.1C98.8358 48.3494 98.8065 48.6061 98.8065 48.8702L98.161 48.4374C98.161 47.7968 98.2808 47.2247 98.5204 46.721C98.76 46.2173 99.0999 45.8187 99.54 45.5253C99.985 45.227 100.511 45.0779 101.117 45.0779C101.743 45.0779 102.239 45.2099 102.606 45.474C102.973 45.7332 103.235 46.0852 103.391 46.5303C103.552 46.9753 103.633 47.4741 103.633 48.0267C103.633 48.232 103.633 48.5059 103.633 48.8482C103.633 49.1856 103.633 49.5842 103.633 50.0439V53H101.719ZM96.8773 53V45.2099H98.8065V53H96.8773ZM106.531 53V49.8458C106.531 49.5377 106.531 49.2761 106.531 49.0609C106.531 48.8458 106.531 48.6648 106.531 48.5181C106.531 48.3127 106.518 48.1073 106.494 47.902C106.469 47.6917 106.416 47.5034 106.333 47.3371C106.249 47.166 106.12 47.0291 105.944 46.9264C105.768 46.8188 105.528 46.765 105.225 46.765C104.927 46.765 104.675 46.8237 104.469 46.941C104.269 47.0584 104.107 47.2149 103.985 47.4105C103.863 47.6061 103.772 47.8262 103.714 48.0707C103.66 48.3152 103.633 48.5597 103.633 48.8042L102.988 48.3788C102.988 47.7577 103.105 47.1978 103.34 46.699C103.574 46.2002 103.912 45.8065 104.352 45.518C104.792 45.2246 105.315 45.0779 105.922 45.0779C106.533 45.0779 107.024 45.2026 107.396 45.452C107.768 45.7014 108.037 46.0437 108.203 46.4789C108.374 46.9092 108.46 47.4007 108.46 47.9533C108.46 48.1685 108.46 48.4423 108.46 48.7749C108.46 49.1074 108.46 49.5011 108.46 49.9558V53H106.531ZM114.145 53.154C113.323 53.154 112.6 52.9829 111.974 52.6406C111.348 52.2934 110.856 51.8141 110.499 51.2028C110.147 50.5916 109.971 49.8923 109.971 49.1049C109.971 48.3127 110.147 47.6159 110.499 47.0144C110.856 46.408 111.348 45.9336 111.974 45.5913C112.6 45.249 113.323 45.0779 114.145 45.0779C114.966 45.0779 115.69 45.249 116.316 45.5913C116.942 45.9336 117.431 46.408 117.783 47.0144C118.14 47.6159 118.319 48.3127 118.319 49.1049C118.319 49.8923 118.14 50.5916 117.783 51.2028C117.431 51.8141 116.942 52.2934 116.316 52.6406C115.69 52.9829 114.966 53.154 114.145 53.154ZM114.145 51.5769C114.59 51.5769 114.979 51.4743 115.311 51.2689C115.644 51.0635 115.903 50.7774 116.089 50.4106C116.275 50.039 116.367 49.6038 116.367 49.1049C116.367 48.6061 116.275 48.1758 116.089 47.8139C115.903 47.4472 115.644 47.1635 115.311 46.963C114.979 46.7625 114.59 46.6623 114.145 46.6623C113.705 46.6623 113.316 46.7625 112.979 46.963C112.646 47.1635 112.387 47.4472 112.201 47.8139C112.015 48.1758 111.922 48.6061 111.922 49.1049C111.922 49.6038 112.015 50.039 112.201 50.4106C112.387 50.7774 112.646 51.0635 112.979 51.2689C113.316 51.4743 113.705 51.5769 114.145 51.5769ZM119.915 53V41.5349H121.749V48.2541L121.33 48.0487L124.551 45.2099H126.949L123.135 48.6061L123.568 47.8139L126.913 53H124.873L122.306 48.8409L122.776 48.9216L121.529 50.0365L121.749 49.1783V53H119.915ZM127.987 53V45.2099H129.894V53H127.987ZM128.948 43.7722C128.635 43.7722 128.361 43.689 128.126 43.5228C127.897 43.3516 127.782 43.1144 127.782 42.8113C127.782 42.5129 127.897 42.2807 128.126 42.1144C128.361 41.9481 128.635 41.865 128.948 41.865C129.256 41.865 129.525 41.9481 129.755 42.1144C129.985 42.2807 130.1 42.5129 130.1 42.8113C130.1 43.1144 129.985 43.3516 129.755 43.5228C129.525 43.689 129.256 43.7722 128.948 43.7722ZM137.315 53V49.5451C137.315 49.3495 137.315 49.1783 137.315 49.0316C137.315 48.88 137.315 48.7431 137.315 48.6208C137.315 48.2687 137.263 47.9533 137.161 47.6746C137.063 47.3909 136.892 47.1684 136.647 47.007C136.408 46.8457 136.075 46.765 135.65 46.765C135.278 46.765 134.948 46.8555 134.659 47.0364C134.371 47.2124 134.144 47.4569 133.977 47.7699C133.816 48.078 133.735 48.435 133.735 48.8409L133.082 48.4374C133.082 47.787 133.229 47.21 133.522 46.7063C133.821 46.1977 134.219 45.7992 134.718 45.5106C135.217 45.2221 135.77 45.0779 136.376 45.0779C137.002 45.0779 137.528 45.2001 137.953 45.4446C138.383 45.6891 138.706 46.0363 138.921 46.4862C139.141 46.9361 139.251 47.4643 139.251 48.0707C139.251 48.3054 139.251 48.5695 139.251 48.8629C139.251 49.1563 139.251 49.4448 139.251 49.7285V53H137.315ZM131.806 53V45.2099H133.735V53H131.806ZM146.341 52.2298C146.801 52.2738 147.205 52.3594 147.552 52.4865C147.899 52.6137 148.17 52.8019 148.366 53.0513C148.562 53.3056 148.659 53.6431 148.659 54.0636C148.659 54.5331 148.501 54.939 148.183 55.2813C147.865 55.6236 147.398 55.8877 146.782 56.0735C146.17 56.2593 145.417 56.3522 144.522 56.3522C143.222 56.3522 142.221 56.164 141.522 55.7874C140.823 55.4158 140.473 54.9096 140.473 54.269C140.473 54.0881 140.495 53.9242 140.539 53.7775C140.583 53.6308 140.637 53.5086 140.701 53.4108L142.468 53.6675C142.439 53.7066 142.41 53.7678 142.38 53.8509C142.351 53.9389 142.336 54.0441 142.336 54.1663C142.336 54.4695 142.539 54.6871 142.945 54.8192C143.356 54.9561 143.901 55.0245 144.581 55.0245C145.08 55.0245 145.495 54.9903 145.828 54.9219C146.165 54.8534 146.42 54.7556 146.591 54.6284C146.767 54.5013 146.855 54.3521 146.855 54.181C146.855 53.9267 146.74 53.7629 146.51 53.6895C146.28 53.6162 146.007 53.5673 145.689 53.5428L142.733 53.2714C142.204 53.2176 141.769 53.0611 141.427 52.8019C141.089 52.5428 140.921 52.2005 140.921 51.775C140.921 51.5158 140.989 51.2762 141.126 51.0561C141.268 50.8361 141.429 50.6527 141.61 50.506C141.791 50.3544 141.945 50.2615 142.072 50.2273L143.173 50.7701C143.07 50.7847 142.948 50.8508 142.806 50.9681C142.669 51.0855 142.6 51.2249 142.6 51.3862C142.6 51.5378 142.669 51.665 142.806 51.7677C142.943 51.8655 143.207 51.9339 143.598 51.9731L146.341 52.2298ZM147.214 45.2099H148.946L148.241 48.232C148.109 48.7993 147.897 49.3079 147.603 49.7578C147.31 50.2077 146.919 50.5622 146.43 50.8214C145.94 51.0806 145.324 51.2102 144.581 51.2102C143.808 51.2102 143.141 51.0855 142.578 50.8361C142.021 50.5818 141.591 50.2273 141.287 49.7725C140.984 49.3128 140.833 48.7846 140.833 48.188C140.833 47.5768 140.987 47.0388 141.295 46.5743C141.608 46.1048 142.036 45.738 142.578 45.474C143.126 45.2099 143.745 45.0779 144.434 45.0779C144.992 45.0779 145.493 45.1708 145.938 45.3566C146.383 45.5375 146.738 45.7747 147.002 46.0681C147.271 46.3615 147.415 46.6745 147.434 47.007L147.002 47.0877L147.214 45.2099ZM144.574 49.7211C144.95 49.7211 145.275 49.66 145.549 49.5377C145.823 49.4155 146.036 49.2394 146.187 49.0096C146.339 48.7749 146.415 48.4912 146.415 48.1587C146.415 47.831 146.339 47.5499 146.187 47.3151C146.036 47.0804 145.823 46.9019 145.549 46.7797C145.275 46.6525 144.953 46.5889 144.581 46.5889C144.219 46.5889 143.899 46.6525 143.62 46.7797C143.341 46.9068 143.121 47.0902 142.96 47.3298C142.803 47.5645 142.725 47.8457 142.725 48.1734C142.725 48.501 142.801 48.7822 142.953 49.0169C143.109 49.2468 143.324 49.4228 143.598 49.5451C143.877 49.6624 144.202 49.7211 144.574 49.7211Z" fill="black"/>
<path d="M18.0037 140.037C18.3382 139.169 18.989 138.86 19.8952 138.86C40.1745 138.869 60.4532 138.869 80.7312 138.86C82.3856 138.86 83.6356 139.572 84.4279 140.958C86.0529 143.803 86.0823 146.737 84.5786 149.64C83.7588 151.219 82.4334 151.996 80.5878 151.989C72.3691 151.958 64.1504 151.976 55.9317 151.976C55.5641 151.976 55.1964 151.987 54.8288 151.976C53.8932 151.93 53.2829 151.379 53.2498 150.57C53.2167 149.761 53.8215 149.164 54.7351 149.064C55.0029 149.044 55.2717 149.039 55.5402 149.048H77.2643C76.4334 145.91 76.3765 145.241 77.2478 141.851H38.2002V149.048C39.5109 149.048 40.7738 149.048 42.044 149.048C42.3851 149.044 42.7259 149.07 43.0623 149.127C43.4033 149.187 43.7105 149.37 43.9264 149.641C44.1423 149.911 44.2521 150.252 44.2351 150.597C44.2141 150.942 44.0713 151.267 43.8321 151.516C43.593 151.764 43.2732 151.92 42.93 151.954C42.6858 151.98 42.4402 151.991 42.1947 151.987C34.8069 151.987 27.4209 151.987 20.0331 152C19.114 152 18.4062 151.781 18 150.91L18.0037 140.037ZM35.158 149.002V141.849H20.9798V149.002H35.158ZM82.7422 146.04C82.6816 144.373 82.5253 143.268 81.8231 142.322C81.3433 141.667 80.9279 141.673 80.4334 142.303C79.279 143.774 79.2717 147.068 80.4187 148.531C80.9353 149.188 81.4536 149.228 81.836 148.471C82.3047 147.557 82.5621 146.544 82.7422 146.04Z" fill="#FF9562"/>
<path d="M72.0215 112.78C71.1373 111.561 70.5913 110.302 70.5343 108.861C70.4902 107.747 70.9535 107.076 71.8413 107.008C72.7292 106.94 73.3523 107.524 73.4461 108.618C73.5784 110.164 74.2806 111.34 75.6795 111.976C76.3518 112.261 77.0745 112.407 77.8045 112.406C80.5435 112.456 83.2843 112.406 86.0232 112.432C89.4497 112.458 91.9533 114.361 92.9037 117.616C94.0066 121.397 91.1758 125.704 87.2787 126.105C86.0912 126.226 84.889 126.219 83.6924 126.232C80.8835 126.258 79.1666 127.932 79.1299 130.745C79.106 132.458 79.1483 134.169 79.1152 135.881C79.0913 137.12 78.1244 137.868 77.1446 137.388C76.777 137.204 76.3137 136.746 76.3027 136.401C76.2126 133.677 75.8247 130.921 76.5839 128.239C77.3744 125.449 80.1335 123.39 83.0287 123.311C84.0545 123.283 85.082 123.311 86.1096 123.296C88.4589 123.254 90.2254 121.522 90.2088 119.298C90.1923 117.074 88.4589 115.392 86.1317 115.37C83.5398 115.344 80.946 115.37 78.3541 115.37C78.2465 115.374 78.1391 115.384 78.0325 115.399C78.4001 116.215 78.8541 116.974 79.1023 117.798C80.0968 121.107 78.6005 124.456 75.492 125.96C75.1392 126.12 74.7609 126.218 74.3744 126.248C72.5362 126.423 71.0803 127.612 70.606 129.349C70.1318 131.087 70.8082 132.842 72.3376 133.901C72.4994 134.011 72.6648 134.118 72.8137 134.243C73.1014 134.472 73.294 134.8 73.3544 135.163C73.4148 135.525 73.3388 135.898 73.1409 136.208C72.9421 136.507 72.6374 136.72 72.288 136.805C71.9385 136.889 71.5702 136.838 71.2568 136.662C68.8193 135.278 67.5086 133.151 67.538 130.364C67.5711 127.096 69.5325 124.616 72.6465 123.605C72.8513 123.525 73.0669 123.475 73.2862 123.458C75.345 123.432 76.5325 121.232 76.481 119.728C76.413 117.673 74.8836 115.91 72.9204 115.838C70.674 115.756 68.4222 115.809 66.1722 115.794C64.3175 115.781 62.6263 115.274 61.1925 114.031C59.073 112.193 58.3212 109.114 59.3653 106.339C60.312 103.818 63.0031 101.973 65.687 102C66.5233 102 67.1263 102.528 67.1925 103.287C67.2586 104.105 66.8285 104.708 65.9719 104.84C64.8414 105.008 63.7476 105.226 62.9333 106.109C61.8506 107.285 61.5032 108.658 62.0362 110.177C62.5565 111.662 63.6281 112.666 65.1998 112.75C67.4296 112.873 69.674 112.78 72.0215 112.78Z" fill="#FF9562"/>
<path d="M69.7627 104.289C69.7628 104.082 69.8045 103.877 69.8853 103.687C69.9661 103.496 70.0843 103.324 70.2329 103.18C70.3816 103.036 70.5576 102.923 70.7506 102.848C70.9436 102.774 71.1496 102.738 71.3564 102.745C71.5632 102.746 71.7676 102.789 71.9576 102.87C72.1477 102.951 72.3196 103.07 72.4634 103.218C72.6071 103.367 72.7197 103.543 72.7946 103.735C72.8695 103.928 72.9052 104.134 72.8995 104.34C72.8939 104.547 72.8471 104.75 72.7618 104.939C72.6765 105.127 72.5545 105.297 72.4029 105.437C72.2513 105.578 72.0732 105.687 71.879 105.757C71.6848 105.828 71.4784 105.86 71.2719 105.85C70.8676 105.834 70.4848 105.664 70.2035 105.373C69.9223 105.082 69.7643 104.694 69.7627 104.289Z" fill="#FF9562"/>
<path d="M47.0475 151.958C46.6648 151.957 46.2978 151.805 46.0263 151.535C45.7547 151.265 45.6006 150.899 45.5972 150.517C45.6012 150.321 45.6439 150.128 45.7228 149.949C45.8016 149.769 45.9151 149.607 46.0567 149.472C46.1983 149.337 46.3652 149.231 46.5479 149.16C46.7305 149.09 46.9253 149.056 47.1211 149.061C47.3167 149.063 47.51 149.104 47.6891 149.183C47.8683 149.262 48.0296 149.376 48.1635 149.519C48.2973 149.661 48.4008 149.83 48.4678 150.014C48.5347 150.197 48.5637 150.393 48.553 150.588C48.5455 150.778 48.5004 150.963 48.4204 151.135C48.3404 151.307 48.2271 151.461 48.087 151.588C47.9469 151.716 47.7828 151.814 47.6044 151.877C47.4259 151.941 47.2366 151.968 47.0475 151.958Z" fill="#FF9562"/>
</svg>
