<svg width="64" height="74" viewBox="0 0 64 74" fill="none" xmlns="http://www.w3.org/2000/svg">
<path d="M14.1304 74C13.076 73.7702 12.0061 73.6138 10.971 73.3009C2.8043 70.7905 -1.75703 62.2935 0.635641 54.0457C1.55293 50.8805 2.53974 47.7367 3.50337 44.5831C3.83166 43.5114 4.54811 43.0576 5.41711 43.3356C6.28612 43.6137 6.57579 44.3765 6.2533 45.4599C5.64821 47.4631 5.04119 49.465 4.43224 51.4657C4.37045 51.6684 4.32216 51.8731 4.25457 52.13L6.90022 53.335C8.52043 54.0746 10.131 54.8316 11.7589 55.55C13.9121 56.5001 16.1271 55.7431 17.2607 53.6923C17.7821 52.7479 18.2649 51.7862 18.7766 50.811C16.3975 49.3047 14.7425 47.2751 14.0859 44.5831C13.3135 41.4528 12.6936 38.2877 12.0312 35.1341C11.9915 34.9506 11.9892 34.761 12.0246 34.5766C12.0599 34.3921 12.1321 34.2168 12.2369 34.061C12.3417 33.9051 12.4768 33.7721 12.6343 33.6698C12.7918 33.5675 12.9683 33.4981 13.1532 33.4656C13.9469 33.2938 14.6634 33.7515 14.8565 34.6243C15.4532 37.3279 16.0518 40.0315 16.5945 42.7351C17.2588 46.0662 19.1049 48.2948 22.4381 49.1734C23.8009 49.5267 25.238 49.4669 26.5668 49.0016C32.4735 47.0382 38.3802 45.0698 44.2868 43.0962C44.3988 43.0595 44.507 43.0112 44.7078 42.932L43.0277 38.9867L39.2389 39.9523L25.6901 43.467C24.2224 43.8532 23.6315 43.4882 23.3206 42.0147C22.9556 40.2767 22.6061 38.5271 22.2527 36.7833C22.2119 36.5924 22.1848 36.3988 22.1716 36.204C22.152 35.8566 22.2598 35.514 22.4748 35.2404C22.6898 34.9669 22.9973 34.7812 23.3395 34.7182C23.6816 34.6551 24.0351 34.7191 24.3334 34.8981C24.6318 35.0771 24.8546 35.3587 24.9601 35.6903C25.0547 35.9877 25.0914 36.3025 25.1532 36.6076C25.215 36.8818 25.2846 37.1541 25.3637 37.4727C27.1462 34.3559 27.8317 31.2468 26.0358 28.0759C24.3499 30.4454 22.102 31.4476 19.3174 30.4473C16.6659 29.5107 15.5652 27.3865 15.6907 24.5245C15.4513 24.6249 15.2543 24.6887 15.0747 24.7833C14.1318 25.275 13.2959 25.949 12.6153 26.7661C11.9348 27.5832 11.4231 28.5273 11.1101 29.5435C10.7895 30.5265 10.5153 31.5249 10.2044 32.5097C9.90506 33.4502 9.15965 33.8905 8.33312 33.6414C7.5066 33.3923 7.16479 32.6082 7.4506 31.6485C7.80979 30.4512 8.11683 29.2307 8.57644 28.072C10.0286 24.4029 12.6994 22.1087 16.5462 21.2165C16.7768 21.1782 16.9952 21.0864 17.1839 20.9486C17.3727 20.8108 17.5267 20.6307 17.6334 20.4228C19.0496 17.9085 20.4921 15.4064 21.9611 12.9165C22.0821 12.7436 22.1564 12.5423 22.1767 12.3321C22.197 12.122 22.1627 11.9102 22.077 11.7173C21.2684 9.68093 21.2716 7.41202 22.0858 5.37793C22.9001 3.34384 24.4635 1.6995 26.4539 0.78363C28.4443 -0.132243 30.7102 -0.249893 32.7847 0.454915C34.8593 1.15972 36.5846 2.63331 37.6051 4.57213C37.9218 5.17271 38.2328 5.44886 38.9569 5.55314C42.2398 6.01661 44.6209 9.09676 44.395 12.484C44.2173 15.1238 42.9717 17.0762 40.5965 18.2928C40.3934 18.4039 40.2249 18.5689 40.1098 18.7698C39.1906 20.3784 38.3525 22.0353 37.3695 23.5976C35.7783 26.139 33.4358 27.5622 30.4522 27.9117L29.3824 28.043C29.3612 28.043 29.3438 28.0701 29.4384 28.0006C29.6721 29.7173 29.8961 31.3665 30.122 33.0311C31.4819 32.2684 32.9811 31.7863 34.5308 31.6137C38.1999 31.2275 41.311 32.3997 43.8523 35.055C44.2057 35.4219 44.4587 35.4817 44.8874 35.2655C46.1291 34.6436 47.4211 34.3713 48.8018 34.7537C49.7792 35.0164 50.6543 35.5683 51.3125 36.3371C51.9707 37.1059 52.3812 38.0557 52.4902 39.0618C52.5992 40.068 52.4016 41.0836 51.9233 41.9755C51.445 42.8674 50.7083 43.5939 49.8099 44.0598C49.4507 44.2529 49.0741 44.4055 48.6261 44.6121C48.7149 44.8612 48.7902 45.1026 48.8868 45.3363C51.293 51.1078 53.6972 56.8799 56.0995 62.6527C56.1738 62.8618 56.3005 63.0483 56.4676 63.1944C56.6346 63.3405 56.8364 63.4412 57.0535 63.4869C59.3426 64.1355 61.3631 65.5014 62.8179 67.384C64.7838 69.8828 63.8743 72.8799 60.852 73.8783C60.7905 73.9097 60.7344 73.9508 60.686 74H46.9441C46.8379 73.948 46.7282 73.9035 46.6158 73.8668C43.9566 73.1773 42.4426 70.748 43.0451 68.0734C43.2807 67.0209 43.638 65.9935 43.8697 64.9372C43.9522 64.5546 43.9137 64.1558 43.7596 63.7959C42.4832 61.1541 41.1661 58.5336 39.8588 55.9073C38.7368 53.6498 37.6206 51.4 36.4368 49.0363C36.29 49.3511 36.1858 49.5577 36.095 49.7721C34.0268 54.6656 31.9836 59.5687 29.8845 64.4486C28.0248 68.7744 24.8404 71.7193 20.3698 73.214C19.2884 73.5771 18.1394 73.7432 17.0213 74H14.1304ZM3.38943 54.9378C2.75406 57.0355 2.69535 59.2655 3.21949 61.3936C3.84644 64.0008 5.28318 66.3423 7.32354 68.0822C9.3639 69.8221 11.903 70.8709 14.5764 71.0782C19.9836 71.5378 25.0412 68.4229 27.2698 63.2262C29.0715 59.028 30.8308 54.8123 32.6055 50.6025C32.6718 50.4123 32.7285 50.219 32.7754 50.0231C31.0605 50.5928 29.4403 51.1239 27.8259 51.6704C25.916 52.3154 23.9772 52.5297 21.9997 52.0566C21.5536 51.9504 21.3586 52.1107 21.1713 52.4892C20.7136 53.4161 20.2347 54.3353 19.7229 55.2333C19.2398 56.1261 18.565 56.9008 17.747 57.5018C16.929 58.1028 15.988 58.5152 14.9916 58.7093C13.4458 59.0263 11.8386 58.8226 10.4207 58.13C8.10911 57.0679 5.78789 56.027 3.38943 54.9378ZM30.0602 2.88046C28.9141 2.875 27.7932 3.2163 26.8446 3.85954C25.896 4.50278 25.1641 5.41788 24.7451 6.48465C24.3261 7.55142 24.2395 8.71998 24.4967 9.83686C24.7539 10.9537 25.3429 11.9667 26.1864 12.7427C27.0281 13.5272 28.0889 14.0366 29.2275 14.2029C30.366 14.3692 31.5282 14.1845 32.5591 13.6735C34.0364 12.9474 34.3724 13.0401 35.2801 14.3707C35.8594 15.2242 36.6434 15.7958 37.6978 15.904C39.1153 16.0469 40.1967 15.4598 40.9151 14.2683C41.7551 12.874 41.7571 11.4199 40.9151 10.0198C40.1832 8.80129 39.0709 8.22968 37.6322 8.37451C36.2282 8.51549 35.8942 8.30113 35.5079 6.96286C35.1538 5.79045 34.4342 4.76195 33.4541 4.02751C32.4741 3.29307 31.2849 2.89116 30.0602 2.88046ZM53.1217 63.0119L45.8742 45.6453L39.1153 47.9047C41.5891 52.8773 44.0261 57.7805 46.4787 62.6759C46.5288 62.7616 46.5975 62.8351 46.6797 62.8909C46.7619 62.9467 46.8555 62.9834 46.9537 62.9984C48.9621 63.0196 50.9821 63.0119 53.1217 63.0119ZM36.9003 18.735C35.6099 18.4323 34.4324 17.7685 33.5054 16.8213C33.3644 16.6764 32.984 16.659 32.758 16.7266C31.2356 17.2118 29.6108 17.2785 28.0538 16.9198C26.6256 16.5645 25.3057 15.8658 24.2089 14.8843C22.1484 17.8757 22.8262 21.8364 25.7152 23.8911C27.0891 24.8834 28.8003 25.2908 30.474 25.0241C32.1476 24.7573 33.6474 23.8382 34.6447 22.4679C35.4674 21.315 36.1143 20.0482 36.9003 18.735ZM53.7513 71.1072C55.7249 71.1072 57.7024 71.1381 59.6741 71.0821C60.1077 71.0371 60.5098 70.8343 60.8038 70.5124C61.1572 70.1262 60.9119 69.655 60.6107 69.2707C59.2589 67.5327 57.5209 66.26 55.3116 66.0824C52.5347 65.8564 49.7346 65.9433 46.9421 65.924C46.7954 65.924 46.5694 66.1751 46.5115 66.3527C46.2855 67.0383 46.1079 67.7374 45.9322 68.4345C45.515 70.0238 46.3377 71.1014 47.9753 71.1072C49.8968 71.113 51.824 71.1072 53.7513 71.1072ZM41.1951 36.4628C39.0535 34.7363 36.7999 34.0797 34.2759 34.5645C31.215 35.1438 29.141 36.988 27.8356 39.9214L41.1951 36.4628ZM20.476 21.2551C19.8716 22.3115 19.2594 23.1669 18.8829 24.1151C18.6504 24.7593 18.603 25.4557 18.7458 26.1254C18.9717 27.176 19.9759 27.8634 21.0264 27.9079C22.2913 27.9716 23.1507 27.3923 23.7686 26.052C22.2237 24.847 21.1481 23.2886 20.476 21.2551ZM47.4249 41.9298C48.5508 41.5435 49.4777 41.0724 49.5955 39.8055C49.653 39.3965 49.582 38.9797 49.3924 38.6127C49.2029 38.2457 48.9041 37.9465 48.5373 37.7566C47.5562 37.1985 46.6621 37.5326 45.7777 38.081C46.33 39.3749 46.8668 40.6282 47.4249 41.9298Z" fill="#7950B7"/>
<path d="M8.32541 38.4479C8.32318 38.8222 8.17653 39.1811 7.91603 39.4499C7.65553 39.7187 7.30132 39.8765 6.92728 39.8904C6.73603 39.8993 6.54498 39.8693 6.36569 39.8021C6.18641 39.7349 6.02263 39.632 5.8843 39.4997C5.74598 39.3673 5.63599 39.2082 5.56099 39.0321C5.486 38.8559 5.44757 38.6664 5.44804 38.4749C5.44512 38.1004 5.58722 37.7392 5.84459 37.4671C6.10197 37.1949 6.45465 37.0329 6.82879 37.015C7.21592 37.0112 7.58918 37.159 7.86882 37.4267C8.14847 37.6945 8.31233 38.0609 8.32541 38.4479Z" fill="#7950B7"/>
</svg>
