<svg width="159" height="185" viewBox="0 0 159 185" fill="none" xmlns="http://www.w3.org/2000/svg">
<path d="M0 41C0 22.1438 0 12.7157 5.85786 6.85786C11.7157 1 21.1438 1 40 1H119C137.856 1 147.284 1 153.142 6.85786C159 12.7157 159 22.1438 159 41V145C159 163.856 159 173.284 153.142 179.142C147.284 185 137.856 185 119 185H40C21.1438 185 11.7157 185 5.85786 179.142C0 173.284 0 163.856 0 145V41Z" fill="#E6FFE9"/>
<mask id="mask0_85_1256" style="mask-type:alpha" maskUnits="userSpaceOnUse" x="0" y="0" width="159" height="185">
<path d="M0 40C0 21.1438 0 11.7157 5.85786 5.85786C11.7157 0 21.1438 0 40 0H119C137.856 0 147.284 0 153.142 5.85786C159 11.7157 159 21.1438 159 40V145C159 163.856 159 173.284 153.142 179.142C147.284 185 137.856 185 119 185H40C21.1438 185 11.7157 185 5.85786 179.142C0 173.284 0 163.856 0 145V40Z" fill="#E6F2FF"/>
</mask>
<g mask="url(#mask0_85_1256)">
<path d="M168.707 37.348C170.515 35.3323 172.903 33.9271 175.543 33.3262C178.182 32.7253 180.943 32.9584 183.445 33.9933C185.947 35.0282 188.066 36.8139 189.509 39.1041C190.953 41.3942 191.651 44.0759 191.506 46.7793C191.411 48.6064 191.701 50.4331 192.356 52.1412C193.012 53.8493 194.018 55.401 195.311 56.6958C196.603 57.9906 198.153 58.9999 199.86 59.6583C201.567 60.3167 203.393 60.6097 205.221 60.5183C207.924 60.3734 210.606 61.0709 212.896 62.5147C215.186 63.9584 216.972 66.0773 218.007 68.5789C219.042 71.0806 219.275 73.8417 218.674 76.4815C218.073 79.1212 216.668 81.5094 214.652 83.3167C213.292 84.542 212.205 86.0392 211.461 87.7115C210.717 89.3837 210.332 91.1937 210.332 93.024C210.332 94.8543 210.717 96.6643 211.461 98.3365C212.205 100.009 213.292 101.506 214.652 102.731C216.668 104.539 218.073 106.927 218.674 109.567C219.275 112.206 219.042 114.967 218.007 117.469C216.972 119.971 215.186 122.09 212.896 123.533C210.606 124.977 207.924 125.675 205.221 125.53C203.396 125.435 201.571 125.725 199.865 126.379C198.158 127.033 196.608 128.037 195.313 129.327C194.019 130.617 193.009 132.164 192.349 133.868C191.689 135.572 191.394 137.395 191.482 139.221C191.627 141.924 190.929 144.606 189.485 146.896C188.042 149.186 185.923 150.972 183.421 152.007C180.919 153.042 178.158 153.275 175.519 152.674C172.879 152.073 170.491 150.668 168.683 148.652C167.458 147.292 165.961 146.205 164.289 145.461C162.616 144.717 160.806 144.332 158.976 144.332C157.146 144.332 155.336 144.717 153.663 145.461C151.991 146.205 150.494 147.292 149.269 148.652C147.461 150.668 145.073 152.073 142.433 152.674C139.794 153.275 137.033 153.042 134.531 152.007C132.029 150.972 129.91 149.186 128.467 146.896C127.023 144.606 126.325 141.924 126.47 139.221C126.565 137.396 126.275 135.571 125.621 133.865C124.967 132.158 123.963 130.608 122.673 129.313C121.383 128.019 119.836 127.009 118.132 126.349C116.428 125.689 114.605 125.394 112.779 125.482C110.076 125.627 107.394 124.929 105.104 123.485C102.814 122.042 101.028 119.923 99.9933 117.421C98.9584 114.919 98.7253 112.158 99.3262 109.519C99.9271 106.879 101.332 104.491 103.348 102.683C104.708 101.458 105.795 99.9608 106.539 98.2885C107.283 96.6163 107.668 94.8063 107.668 92.976C107.668 91.1457 107.283 89.3357 106.539 87.6635C105.795 85.9912 104.708 84.494 103.348 83.2687C101.332 81.4614 99.9271 79.0732 99.3262 76.4335C98.7253 73.7937 98.9584 71.0326 99.9933 68.531C101.028 66.0293 102.814 63.9104 105.104 62.4667C107.394 61.0229 110.076 60.3254 112.779 60.4703C114.604 60.5646 116.429 60.2755 118.135 59.6215C119.842 58.9674 121.392 57.9631 122.687 56.6732C123.981 55.3832 124.991 53.8363 125.651 52.1322C126.311 50.4281 126.606 48.6046 126.518 46.7793C126.373 44.0759 127.071 41.3942 128.515 39.1041C129.958 36.8139 132.077 35.0282 134.579 33.9933C137.081 32.9584 139.842 32.7253 142.481 33.3262C145.121 33.9271 147.509 35.3323 149.317 37.348C150.542 38.7038 152.038 39.7876 153.708 40.5293C155.378 41.2711 157.185 41.6544 159.012 41.6544C160.839 41.6544 162.646 41.2711 164.316 40.5293C165.986 39.7876 167.482 38.7038 168.707 37.348Z" fill="#D1FFD8"/>
</g>
<path d="M19.032 30V18.2H22.56C23.344 18.2 24.056 18.3413 24.696 18.624C25.336 18.9013 25.8853 19.2987 26.344 19.816C26.8027 20.3333 27.1573 20.9547 27.408 21.68C27.6587 22.4 27.784 23.2027 27.784 24.088C27.784 24.9733 27.6587 25.7787 27.408 26.504C27.1573 27.224 26.8027 27.8453 26.344 28.368C25.8853 28.8907 25.336 29.2933 24.696 29.576C24.056 29.8587 23.344 30 22.56 30H19.032ZM21.144 29.368L20.192 28.32H22.288C22.928 28.32 23.4987 28.1493 24 27.808C24.5067 27.4613 24.9067 26.9733 25.2 26.344C25.4933 25.7093 25.64 24.9573 25.64 24.088C25.64 23.2133 25.4933 22.4613 25.2 21.832C24.9067 21.2027 24.5067 20.72 24 20.384C23.4987 20.048 22.928 19.88 22.288 19.88H20.192L21.144 18.832V29.368ZM30.3244 26.432V24.936H36.2684L36.0284 25.336C36.0284 25.304 36.0284 25.2693 36.0284 25.232C36.0284 25.1893 36.0284 25.1547 36.0284 25.128C36.0284 24.76 35.9457 24.416 35.7804 24.096C35.615 23.7707 35.3644 23.5093 35.0284 23.312C34.6924 23.1093 34.2657 23.008 33.7484 23.008C33.2364 23.008 32.791 23.1173 32.4124 23.336C32.039 23.5493 31.7484 23.8587 31.5404 24.264C31.3377 24.6693 31.2364 25.1547 31.2364 25.72C31.2364 26.3013 31.335 26.8027 31.5324 27.224C31.7297 27.64 32.0177 27.96 32.3964 28.184C32.7804 28.4027 33.247 28.512 33.7964 28.512C34.1697 28.512 34.4924 28.4773 34.7644 28.408C35.0364 28.3387 35.2577 28.2453 35.4284 28.128C35.6044 28.0053 35.735 27.8747 35.8204 27.736C35.911 27.5973 35.9644 27.4587 35.9804 27.32H38.0764C38.0444 27.6773 37.9244 28.0267 37.7164 28.368C37.5137 28.704 37.2284 29.0107 36.8604 29.288C36.4924 29.56 36.0444 29.7787 35.5164 29.944C34.9937 30.104 34.3964 30.184 33.7244 30.184C32.8124 30.184 32.015 29.9973 31.3324 29.624C30.6497 29.2507 30.1164 28.7307 29.7324 28.064C29.3537 27.3973 29.1644 26.6347 29.1644 25.776C29.1644 24.896 29.3564 24.1253 29.7404 23.464C30.1297 22.8027 30.6684 22.288 31.3564 21.92C32.0444 21.5467 32.8337 21.36 33.7244 21.36C34.6417 21.36 35.4337 21.5467 36.1004 21.92C36.7724 22.2933 37.2897 22.8133 37.6524 23.48C38.015 24.1413 38.1964 24.912 38.1964 25.792C38.1964 25.904 38.1937 26.024 38.1884 26.152C38.183 26.28 38.175 26.3733 38.1644 26.432H30.3244ZM39.931 33.496V21.504H42.035V33.496H39.931ZM44.715 30.176C44.0537 30.176 43.4403 30.0053 42.875 29.664C42.315 29.3173 41.8617 28.8453 41.515 28.248C41.1737 27.6507 41.003 26.9787 41.003 26.232C41.003 26.2107 41.003 26.192 41.003 26.176C41.003 26.1547 41.003 26.136 41.003 26.12L42.043 26.096C42.043 26.1067 42.043 26.12 42.043 26.136C42.043 26.152 42.043 26.1653 42.043 26.176C42.043 26.592 42.147 26.9627 42.355 27.288C42.563 27.608 42.8323 27.8613 43.163 28.048C43.499 28.2293 43.8563 28.32 44.235 28.32C44.8483 28.32 45.371 28.1093 45.803 27.688C46.235 27.2667 46.451 26.6133 46.451 25.728C46.451 24.8373 46.235 24.1867 45.803 23.776C45.3763 23.36 44.8537 23.152 44.235 23.152C43.8617 23.152 43.507 23.2427 43.171 23.424C42.8403 23.6 42.5683 23.8453 42.355 24.16C42.147 24.4747 42.043 24.8427 42.043 25.264L41.003 25.216C41.003 24.464 41.1737 23.7973 41.515 23.216C41.8617 22.6347 42.315 22.1813 42.875 21.856C43.4403 21.5253 44.0537 21.36 44.715 21.36C45.403 21.36 46.043 21.528 46.635 21.864C47.2323 22.2 47.7123 22.6933 48.075 23.344C48.443 23.9947 48.627 24.7893 48.627 25.728C48.627 26.6933 48.4483 27.5067 48.091 28.168C47.7337 28.8293 47.259 29.3307 46.667 29.672C46.075 30.008 45.4243 30.176 44.715 30.176ZM50.3685 30V21.504H52.4725V24.328L51.9845 24.056C52.0378 23.688 52.1365 23.3413 52.2805 23.016C52.4245 22.6853 52.6165 22.3973 52.8565 22.152C53.0965 21.9013 53.3872 21.7067 53.7285 21.568C54.0698 21.4293 54.4592 21.36 54.8965 21.36C55.2432 21.36 55.5152 21.3867 55.7125 21.44C55.9152 21.488 56.0405 21.528 56.0885 21.56L55.7045 23.488C55.6512 23.4507 55.5418 23.4053 55.3765 23.352C55.2165 23.2933 55.0005 23.264 54.7285 23.264C54.2965 23.264 53.9338 23.3387 53.6405 23.488C53.3525 23.632 53.1232 23.8293 52.9525 24.08C52.7818 24.3253 52.6592 24.5973 52.5845 24.896C52.5098 25.1893 52.4725 25.4827 52.4725 25.776V30H50.3685ZM58.0431 26.432V24.936H63.9871L63.7471 25.336C63.7471 25.304 63.7471 25.2693 63.7471 25.232C63.7471 25.1893 63.7471 25.1547 63.7471 25.128C63.7471 24.76 63.6645 24.416 63.4991 24.096C63.3338 23.7707 63.0831 23.5093 62.7471 23.312C62.4111 23.1093 61.9845 23.008 61.4671 23.008C60.9551 23.008 60.5098 23.1173 60.1311 23.336C59.7578 23.5493 59.4671 23.8587 59.2591 24.264C59.0565 24.6693 58.9551 25.1547 58.9551 25.72C58.9551 26.3013 59.0538 26.8027 59.2511 27.224C59.4485 27.64 59.7365 27.96 60.1151 28.184C60.4991 28.4027 60.9658 28.512 61.5151 28.512C61.8885 28.512 62.2111 28.4773 62.4831 28.408C62.7551 28.3387 62.9765 28.2453 63.1471 28.128C63.3231 28.0053 63.4538 27.8747 63.5391 27.736C63.6298 27.5973 63.6831 27.4587 63.6991 27.32H65.7951C65.7631 27.6773 65.6431 28.0267 65.4351 28.368C65.2325 28.704 64.9471 29.0107 64.5791 29.288C64.2111 29.56 63.7631 29.7787 63.2351 29.944C62.7125 30.104 62.1151 30.184 61.4431 30.184C60.5311 30.184 59.7338 29.9973 59.0511 29.624C58.3685 29.2507 57.8351 28.7307 57.4511 28.064C57.0725 27.3973 56.8831 26.6347 56.8831 25.776C56.8831 24.896 57.0751 24.1253 57.4591 23.464C57.8485 22.8027 58.3871 22.288 59.0751 21.92C59.7631 21.5467 60.5525 21.36 61.4431 21.36C62.3605 21.36 63.1525 21.5467 63.8191 21.92C64.4911 22.2933 65.0085 22.8133 65.3711 23.48C65.7338 24.1413 65.9151 24.912 65.9151 25.792C65.9151 25.904 65.9125 26.024 65.9071 26.152C65.9018 26.28 65.8938 26.3733 65.8831 26.432H58.0431ZM71.0818 30.176C70.5751 30.176 70.0924 30.12 69.6338 30.008C69.1804 29.896 68.7751 29.728 68.4178 29.504C68.0658 29.28 67.7858 29.0027 67.5778 28.672C67.3751 28.336 67.2738 27.9493 67.2738 27.512C67.2738 27.48 67.2738 27.448 67.2738 27.416C67.2738 27.384 67.2738 27.3547 67.2738 27.328H69.3698C69.3698 27.3547 69.3698 27.3787 69.3698 27.4C69.3698 27.416 69.3698 27.44 69.3698 27.472C69.3698 27.8187 69.5271 28.08 69.8418 28.256C70.1618 28.4267 70.5964 28.512 71.1458 28.512C71.4444 28.512 71.7244 28.48 71.9858 28.416C72.2524 28.352 72.4658 28.2533 72.6258 28.12C72.7911 27.9867 72.8738 27.816 72.8738 27.608C72.8738 27.272 72.7004 27.032 72.3538 26.888C72.0124 26.744 71.4738 26.6133 70.7378 26.496C70.3324 26.4267 69.9324 26.3333 69.5378 26.216C69.1431 26.0987 68.7831 25.9413 68.4578 25.744C68.1378 25.5467 67.8791 25.3013 67.6818 25.008C67.4898 24.7147 67.3938 24.3573 67.3938 23.936C67.3938 23.376 67.5591 22.9067 67.8898 22.528C68.2258 22.144 68.6738 21.8533 69.2338 21.656C69.7991 21.4587 70.4204 21.36 71.0978 21.36C71.7484 21.36 72.3538 21.4667 72.9138 21.68C73.4738 21.8933 73.9244 22.2 74.2658 22.6C74.6124 23 74.7858 23.4827 74.7858 24.048C74.7858 24.0693 74.7858 24.0933 74.7858 24.12C74.7858 24.1413 74.7858 24.16 74.7858 24.176H72.7058C72.7058 24.16 72.7058 24.144 72.7058 24.128C72.7058 24.112 72.7058 24.0933 72.7058 24.072C72.7058 23.8267 72.6284 23.6267 72.4738 23.472C72.3191 23.3173 72.1191 23.2027 71.8738 23.128C71.6284 23.0533 71.3698 23.016 71.0978 23.016C70.8578 23.016 70.6098 23.0427 70.3538 23.096C70.0978 23.144 69.8844 23.232 69.7138 23.36C69.5431 23.4827 69.4578 23.656 69.4578 23.88C69.4578 24.0933 69.5458 24.2667 69.7218 24.4C69.8978 24.5333 70.1431 24.6453 70.4578 24.736C70.7724 24.8213 71.1351 24.8987 71.5458 24.968C71.9351 25.032 72.3271 25.12 72.7218 25.232C73.1218 25.344 73.4871 25.4933 73.8178 25.68C74.1484 25.8667 74.4151 26.112 74.6178 26.416C74.8258 26.7147 74.9298 27.0853 74.9298 27.528C74.9298 27.9973 74.8231 28.3973 74.6098 28.728C74.3964 29.0587 74.1058 29.3333 73.7378 29.552C73.3751 29.7653 72.9644 29.9227 72.5058 30.024C72.0471 30.1253 71.5724 30.176 71.0818 30.176ZM80.0974 30.176C79.5907 30.176 79.108 30.12 78.6494 30.008C78.196 29.896 77.7907 29.728 77.4334 29.504C77.0814 29.28 76.8014 29.0027 76.5934 28.672C76.3907 28.336 76.2894 27.9493 76.2894 27.512C76.2894 27.48 76.2894 27.448 76.2894 27.416C76.2894 27.384 76.2894 27.3547 76.2894 27.328H78.3854C78.3854 27.3547 78.3854 27.3787 78.3854 27.4C78.3854 27.416 78.3854 27.44 78.3854 27.472C78.3854 27.8187 78.5427 28.08 78.8574 28.256C79.1774 28.4267 79.612 28.512 80.1614 28.512C80.46 28.512 80.74 28.48 81.0014 28.416C81.268 28.352 81.4814 28.2533 81.6414 28.12C81.8067 27.9867 81.8894 27.816 81.8894 27.608C81.8894 27.272 81.716 27.032 81.3694 26.888C81.028 26.744 80.4894 26.6133 79.7534 26.496C79.348 26.4267 78.948 26.3333 78.5534 26.216C78.1587 26.0987 77.7987 25.9413 77.4734 25.744C77.1534 25.5467 76.8947 25.3013 76.6974 25.008C76.5054 24.7147 76.4094 24.3573 76.4094 23.936C76.4094 23.376 76.5747 22.9067 76.9054 22.528C77.2414 22.144 77.6894 21.8533 78.2494 21.656C78.8147 21.4587 79.436 21.36 80.1134 21.36C80.764 21.36 81.3694 21.4667 81.9294 21.68C82.4894 21.8933 82.94 22.2 83.2814 22.6C83.628 23 83.8014 23.4827 83.8014 24.048C83.8014 24.0693 83.8014 24.0933 83.8014 24.12C83.8014 24.1413 83.8014 24.16 83.8014 24.176H81.7214C81.7214 24.16 81.7214 24.144 81.7214 24.128C81.7214 24.112 81.7214 24.0933 81.7214 24.072C81.7214 23.8267 81.644 23.6267 81.4894 23.472C81.3347 23.3173 81.1347 23.2027 80.8894 23.128C80.644 23.0533 80.3854 23.016 80.1134 23.016C79.8734 23.016 79.6254 23.0427 79.3694 23.096C79.1134 23.144 78.9 23.232 78.7294 23.36C78.5587 23.4827 78.4734 23.656 78.4734 23.88C78.4734 24.0933 78.5614 24.2667 78.7374 24.4C78.9134 24.5333 79.1587 24.6453 79.4734 24.736C79.788 24.8213 80.1507 24.8987 80.5614 24.968C80.9507 25.032 81.3427 25.12 81.7374 25.232C82.1374 25.344 82.5027 25.4933 82.8334 25.68C83.164 25.8667 83.4307 26.112 83.6334 26.416C83.8414 26.7147 83.9454 27.0853 83.9454 27.528C83.9454 27.9973 83.8387 28.3973 83.6254 28.728C83.412 29.0587 83.1214 29.3333 82.7534 29.552C82.3907 29.7653 81.98 29.9227 81.5214 30.024C81.0627 30.1253 80.588 30.176 80.0974 30.176ZM85.641 30V21.504H87.721V30H85.641ZM86.689 19.936C86.3477 19.936 86.049 19.8453 85.793 19.664C85.5423 19.4773 85.417 19.2187 85.417 18.888C85.417 18.5627 85.5423 18.3093 85.793 18.128C86.049 17.9467 86.3477 17.856 86.689 17.856C87.025 17.856 87.3183 17.9467 87.569 18.128C87.8197 18.3093 87.945 18.5627 87.945 18.888C87.945 19.2187 87.8197 19.4773 87.569 19.664C87.3183 19.8453 87.025 19.936 86.689 19.936ZM93.982 30.168C93.086 30.168 92.2967 29.9813 91.614 29.608C90.9313 29.2293 90.3953 28.7067 90.006 28.04C89.622 27.3733 89.43 26.6107 89.43 25.752C89.43 24.888 89.622 24.128 90.006 23.472C90.3953 22.8107 90.9313 22.2933 91.614 21.92C92.2967 21.5467 93.086 21.36 93.982 21.36C94.878 21.36 95.6673 21.5467 96.35 21.92C97.0327 22.2933 97.566 22.8107 97.95 23.472C98.3393 24.128 98.534 24.888 98.534 25.752C98.534 26.6107 98.3393 27.3733 97.95 28.04C97.566 28.7067 97.0327 29.2293 96.35 29.608C95.6673 29.9813 94.878 30.168 93.982 30.168ZM93.982 28.448C94.4673 28.448 94.8913 28.336 95.254 28.112C95.6167 27.888 95.8993 27.576 96.102 27.176C96.3047 26.7707 96.406 26.296 96.406 25.752C96.406 25.208 96.3047 24.7387 96.102 24.344C95.8993 23.944 95.6167 23.6347 95.254 23.416C94.8913 23.1973 94.4673 23.088 93.982 23.088C93.502 23.088 93.078 23.1973 92.71 23.416C92.3473 23.6347 92.0647 23.944 91.862 24.344C91.6593 24.7387 91.558 25.208 91.558 25.752C91.558 26.296 91.6593 26.7707 91.862 27.176C92.0647 27.576 92.3473 27.888 92.71 28.112C93.078 28.336 93.502 28.448 93.982 28.448ZM106.283 30V26.232C106.283 26.0187 106.283 25.832 106.283 25.672C106.283 25.5067 106.283 25.3573 106.283 25.224C106.283 24.84 106.227 24.496 106.115 24.192C106.008 23.8827 105.821 23.64 105.555 23.464C105.293 23.288 104.931 23.2 104.467 23.2C104.061 23.2 103.701 23.2987 103.387 23.496C103.072 23.688 102.824 23.9547 102.643 24.296C102.467 24.632 102.379 25.0213 102.379 25.464L101.667 25.024C101.667 24.3147 101.827 23.6853 102.147 23.136C102.472 22.5813 102.907 22.1467 103.451 21.832C103.995 21.5173 104.597 21.36 105.259 21.36C105.941 21.36 106.515 21.4933 106.979 21.76C107.448 22.0267 107.8 22.4053 108.035 22.896C108.275 23.3867 108.395 23.9627 108.395 24.624C108.395 24.88 108.395 25.168 108.395 25.488C108.395 25.808 108.395 26.1227 108.395 26.432V30H106.283ZM100.275 30V21.504H102.379V30H100.275Z" fill="black"/>
<path d="M33.2761 167C32.1362 166.752 30.9796 166.582 29.8606 166.244C21.0317 163.53 16.1005 154.344 18.6872 145.428C19.6788 142.006 20.7457 138.607 21.7874 135.198C22.1423 134.039 22.9169 133.549 23.8563 133.849C24.7958 134.15 25.109 134.975 24.7603 136.146C24.1062 138.311 23.4499 140.476 22.7916 142.639C22.7248 142.858 22.6726 143.079 22.5995 143.357L25.4597 144.659C27.2113 145.459 28.9524 146.277 30.7124 147.054C33.0402 148.081 35.4348 147.263 36.6602 145.046C37.2239 144.025 37.7458 142.985 38.2991 141.931C35.727 140.302 33.9379 138.108 33.228 135.198C32.393 131.814 31.7228 128.392 31.0067 124.983C30.9638 124.784 30.9613 124.579 30.9995 124.38C31.0377 124.181 31.1158 123.991 31.2291 123.823C31.3423 123.654 31.4885 123.51 31.6587 123.4C31.8289 123.289 32.0197 123.214 32.2197 123.179C33.0777 122.993 33.8523 123.488 34.061 124.432C34.7061 127.354 35.3533 130.277 35.94 133.2C36.6581 136.801 38.654 139.211 42.2574 140.16C43.7307 140.542 45.2844 140.478 46.7209 139.975C53.1065 137.852 59.4921 135.724 65.8777 133.59C65.9988 133.551 66.1157 133.499 66.3328 133.413L64.5165 129.148L60.4204 130.192L45.7731 133.991C44.1864 134.409 43.5476 134.014 43.2115 132.421C42.8169 130.542 42.439 128.651 42.0569 126.766C42.0128 126.559 41.9835 126.35 41.9693 126.139C41.9481 125.764 42.0647 125.394 42.2971 125.098C42.5296 124.802 42.8619 124.601 43.2318 124.533C43.6018 124.465 43.9838 124.534 44.3064 124.728C44.629 124.921 44.8699 125.226 44.9839 125.584C45.0862 125.906 45.1259 126.246 45.1927 126.576C45.2595 126.872 45.3347 127.167 45.4202 127.511C47.3472 124.142 48.0883 120.78 46.1468 117.352C44.3242 119.914 41.8941 120.997 38.8836 119.916C36.0172 118.903 34.8272 116.607 34.9629 113.513C34.7041 113.622 34.4911 113.69 34.297 113.793C33.2776 114.324 32.3739 115.053 31.6382 115.936C30.9025 116.82 30.3493 117.84 30.0109 118.939C29.6643 120.002 29.3679 121.081 29.0318 122.146C28.7082 123.162 27.9023 123.638 27.0088 123.369C26.1152 123.1 25.7457 122.252 26.0547 121.215C26.443 119.92 26.7749 118.601 27.2718 117.348C28.8418 113.381 31.7291 110.901 35.8878 109.937C36.137 109.895 36.3731 109.796 36.5772 109.647C36.7813 109.498 36.9477 109.303 37.0632 109.079C38.5941 106.361 40.1537 103.656 41.7417 100.964C41.8726 100.777 41.9529 100.559 41.9748 100.332C41.9968 100.105 41.9596 99.8759 41.867 99.6673C40.9928 97.4659 40.9963 95.013 41.8766 92.814C42.7569 90.615 44.447 88.8373 46.5988 87.8472C48.7506 86.857 51.2002 86.7298 53.443 87.4918C55.6857 88.2538 57.5509 89.8468 58.6542 91.9428C58.9966 92.5921 59.3327 92.8907 60.1156 93.0034C63.6647 93.5044 66.2388 96.8343 65.9946 100.496C65.8025 103.35 64.4559 105.461 61.8881 106.776C61.6685 106.896 61.4864 107.075 61.362 107.292C60.3682 109.031 59.4621 110.822 58.3995 112.511C56.6792 115.258 54.1469 116.797 50.9213 117.175L49.7648 117.317C49.7418 117.317 49.723 117.346 49.8253 117.271C50.0779 119.127 50.3201 120.91 50.5643 122.709C52.0345 121.885 53.6553 121.364 55.3306 121.177C59.2972 120.759 62.6605 122.027 65.4079 124.897C65.79 125.294 66.0635 125.359 66.5269 125.125C67.8693 124.453 69.266 124.158 70.7587 124.572C71.8153 124.856 72.7614 125.452 73.473 126.283C74.1846 127.114 74.6284 128.141 74.7462 129.229C74.864 130.317 74.6504 131.415 74.1333 132.379C73.6162 133.343 72.8198 134.129 71.8485 134.632C71.4602 134.841 71.0531 135.006 70.5687 135.229C70.6648 135.499 70.7462 135.76 70.8506 136.012C73.4519 142.252 76.0511 148.492 78.6482 154.733C78.7285 154.959 78.8655 155.16 79.046 155.318C79.2266 155.476 79.4447 155.585 79.6795 155.635C82.1542 156.336 84.3385 157.812 85.9113 159.848C88.0366 162.549 87.0533 165.789 83.786 166.868C83.7195 166.902 83.6589 166.947 83.6065 167H68.7504C68.6355 166.944 68.517 166.896 68.3954 166.856C65.5207 166.111 63.8839 163.484 64.5353 160.593C64.79 159.455 65.1762 158.344 65.4267 157.202C65.5159 156.789 65.4743 156.358 65.3077 155.969C63.9277 153.113 62.5039 150.28 61.0906 147.44C59.8776 145 58.6709 142.568 57.3911 140.012C57.2325 140.353 57.1197 140.576 57.0216 140.808C54.7857 146.098 52.5769 151.399 50.3076 156.674C48.2971 161.351 44.8545 164.534 40.0214 166.15C38.8523 166.543 37.6101 166.722 36.4014 167H33.2761ZM21.6642 146.392C20.9774 148.66 20.9139 151.071 21.4805 153.371C22.1583 156.19 23.7115 158.721 25.9173 160.602C28.1231 162.483 30.8681 163.617 33.7583 163.841C39.6039 164.338 45.0716 160.971 47.4808 155.353C49.4286 150.814 51.3305 146.257 53.2491 141.705C53.3209 141.5 53.3822 141.291 53.4328 141.079C51.579 141.695 49.8274 142.269 48.0821 142.86C46.0173 143.557 43.9213 143.789 41.7835 143.277C41.3012 143.163 41.0903 143.336 40.8878 143.745C40.3931 144.747 39.8753 145.741 39.3221 146.712C38.7998 147.677 38.0703 148.514 37.1859 149.164C36.3016 149.814 35.2843 150.26 34.2072 150.47C32.536 150.812 30.7984 150.592 29.2656 149.843C26.7666 148.695 24.2572 147.57 21.6642 146.392ZM50.4975 90.114C49.2585 90.1081 48.0467 90.4771 47.0212 91.1725C45.9957 91.8679 45.2045 92.8572 44.7515 94.0104C44.2985 95.1637 44.2049 96.427 44.4829 97.6344C44.761 98.8419 45.3978 99.937 46.3096 100.776C47.2196 101.624 48.3664 102.175 49.5973 102.354C50.8281 102.534 52.0845 102.335 53.199 101.782C54.7961 100.997 55.1594 101.097 56.1406 102.536C56.7669 103.459 57.6145 104.077 58.7544 104.193C60.2868 104.348 61.4559 103.713 62.2325 102.425C63.1407 100.918 63.1428 99.3458 62.2325 97.8323C61.4413 96.5149 60.2388 95.897 58.6834 96.0535C57.1657 96.2059 56.8045 95.9742 56.387 94.5274C56.0041 93.26 55.2262 92.148 54.1666 91.3541C53.1071 90.5601 51.8215 90.1256 50.4975 90.114ZM75.4289 155.121L67.5938 136.346L60.2868 138.789C62.9611 144.165 65.5958 149.465 68.2472 154.758C68.3014 154.85 68.3757 154.93 68.4645 154.99C68.5534 155.051 68.6546 155.09 68.7608 155.106C70.932 155.129 73.1157 155.121 75.4289 155.121ZM57.8922 107.254C56.4972 106.927 55.2242 106.209 54.222 105.185C54.0696 105.029 53.6583 105.01 53.4141 105.083C51.7683 105.607 50.0117 105.679 48.3284 105.292C46.7844 104.908 45.3575 104.152 44.1718 103.091C41.9442 106.325 42.677 110.607 45.8002 112.828C47.2855 113.901 49.1354 114.341 50.9448 114.053C52.7542 113.765 54.3755 112.771 55.4538 111.29C56.3431 110.043 57.0425 108.674 57.8922 107.254ZM76.1095 163.873C78.2431 163.873 80.381 163.906 82.5125 163.845C82.9813 163.797 83.4159 163.578 83.7338 163.23C84.1159 162.812 83.8507 162.303 83.525 161.887C82.0636 160.008 80.1847 158.632 77.7964 158.44C74.7943 158.196 71.7671 158.29 68.7483 158.269C68.5896 158.269 68.3453 158.541 68.2827 158.733C68.0384 159.474 67.8464 160.23 67.6564 160.983C67.2054 162.701 68.0948 163.866 69.8652 163.873C71.9424 163.879 74.026 163.873 76.1095 163.873ZM62.5352 126.419C60.22 124.553 57.7836 123.843 55.055 124.367C51.746 124.993 49.5038 126.987 48.0925 130.158L62.5352 126.419ZM40.1363 109.979C39.4828 111.12 38.821 112.045 38.4139 113.07C38.1626 113.767 38.1113 114.52 38.2657 115.244C38.5099 116.379 39.5955 117.123 40.7313 117.171C42.0987 117.24 43.0277 116.613 43.6958 115.164C42.0256 113.862 40.8628 112.177 40.1363 109.979ZM69.2702 132.329C70.4873 131.912 71.4894 131.403 71.6168 130.033C71.6789 129.591 71.6022 129.14 71.3972 128.743C71.1923 128.347 70.8693 128.023 70.4727 127.818C69.4122 127.215 68.4455 127.576 67.4894 128.169C68.0865 129.567 68.6668 130.922 69.2702 132.329Z" fill="#52C964"/>
<path d="M27.0005 128.565C26.9981 128.97 26.8395 129.358 26.5579 129.649C26.2763 129.939 25.8934 130.11 25.489 130.125C25.2822 130.134 25.0757 130.102 24.8819 130.029C24.6881 129.957 24.511 129.845 24.3615 129.702C24.2119 129.559 24.093 129.387 24.0119 129.197C23.9309 129.006 23.8893 128.801 23.8898 128.594C23.8867 128.19 24.0403 127.799 24.3185 127.505C24.5968 127.211 24.978 127.036 25.3825 127.016C25.801 127.012 26.2046 127.172 26.5069 127.461C26.8092 127.751 26.9863 128.147 27.0005 128.565Z" fill="#52C964"/>
</svg>
