<svg width="159" height="185" viewBox="0 0 159 185" fill="none" xmlns="http://www.w3.org/2000/svg">
<path d="M0 41C0 22.1438 0 12.7157 5.85786 6.85786C11.7157 1 21.1438 1 40 1H119C137.856 1 147.284 1 153.142 6.85786C159 12.7157 159 22.1438 159 41V145C159 163.856 159 173.284 153.142 179.142C147.284 185 137.856 185 119 185H40C21.1438 185 11.7157 185 5.85786 179.142C0 173.284 0 163.856 0 145V41Z" fill="#FFE6EE"/>
<mask id="mask0_85_1199" style="mask-type:alpha" maskUnits="userSpaceOnUse" x="0" y="0" width="159" height="185">
<path d="M0 40C0 21.1438 0 11.7157 5.85786 5.85786C11.7157 0 21.1438 0 40 0H119C137.856 0 147.284 0 153.142 5.85786C159 11.7157 159 21.1438 159 40V145C159 163.856 159 173.284 153.142 179.142C147.284 185 137.856 185 119 185H40C21.1438 185 11.7157 185 5.85786 179.142C0 173.284 0 163.856 0 145V40Z" fill="#E6F2FF"/>
</mask>
<g mask="url(#mask0_85_1199)">
<path d="M168.707 37.348C170.515 35.3323 172.903 33.9271 175.543 33.3262C178.182 32.7253 180.943 32.9584 183.445 33.9933C185.947 35.0282 188.066 36.8139 189.509 39.1041C190.953 41.3942 191.651 44.0759 191.506 46.7793C191.411 48.6064 191.701 50.4331 192.356 52.1412C193.012 53.8493 194.018 55.401 195.311 56.6958C196.603 57.9906 198.153 58.9999 199.86 59.6583C201.567 60.3167 203.393 60.6097 205.221 60.5183C207.924 60.3734 210.606 61.0709 212.896 62.5147C215.186 63.9584 216.972 66.0773 218.007 68.5789C219.042 71.0806 219.275 73.8417 218.674 76.4815C218.073 79.1212 216.668 81.5094 214.652 83.3167C213.292 84.542 212.205 86.0392 211.461 87.7115C210.717 89.3837 210.332 91.1937 210.332 93.024C210.332 94.8543 210.717 96.6643 211.461 98.3365C212.205 100.009 213.292 101.506 214.652 102.731C216.668 104.539 218.073 106.927 218.674 109.567C219.275 112.206 219.042 114.967 218.007 117.469C216.972 119.971 215.186 122.09 212.896 123.533C210.606 124.977 207.924 125.675 205.221 125.53C203.396 125.435 201.571 125.725 199.865 126.379C198.158 127.033 196.608 128.037 195.313 129.327C194.019 130.617 193.009 132.164 192.349 133.868C191.689 135.572 191.394 137.395 191.482 139.221C191.627 141.924 190.929 144.606 189.485 146.896C188.042 149.186 185.923 150.972 183.421 152.007C180.919 153.042 178.158 153.275 175.519 152.674C172.879 152.073 170.491 150.668 168.683 148.652C167.458 147.292 165.961 146.205 164.289 145.461C162.616 144.717 160.806 144.332 158.976 144.332C157.146 144.332 155.336 144.717 153.663 145.461C151.991 146.205 150.494 147.292 149.269 148.652C147.461 150.668 145.073 152.073 142.433 152.674C139.794 153.275 137.033 153.042 134.531 152.007C132.029 150.972 129.91 149.186 128.467 146.896C127.023 144.606 126.325 141.924 126.47 139.221C126.565 137.396 126.275 135.571 125.621 133.865C124.967 132.158 123.963 130.608 122.673 129.313C121.383 128.019 119.836 127.009 118.132 126.349C116.428 125.689 114.605 125.394 112.779 125.482C110.076 125.627 107.394 124.929 105.104 123.485C102.814 122.042 101.028 119.923 99.9933 117.421C98.9584 114.919 98.7253 112.158 99.3262 109.519C99.9271 106.879 101.332 104.491 103.348 102.683C104.708 101.458 105.795 99.9608 106.539 98.2885C107.283 96.6163 107.668 94.8063 107.668 92.976C107.668 91.1457 107.283 89.3357 106.539 87.6635C105.795 85.9912 104.708 84.494 103.348 83.2687C101.332 81.4614 99.9271 79.0732 99.3262 76.4335C98.7253 73.7937 98.9584 71.0326 99.9933 68.531C101.028 66.0293 102.814 63.9104 105.104 62.4667C107.394 61.0229 110.076 60.3254 112.779 60.4703C114.604 60.5646 116.429 60.2755 118.135 59.6215C119.842 58.9674 121.392 57.9631 122.687 56.6732C123.981 55.3832 124.991 53.8363 125.651 52.1322C126.311 50.4281 126.606 48.6046 126.518 46.7793C126.373 44.0759 127.071 41.3942 128.515 39.1041C129.958 36.8139 132.077 35.0282 134.579 33.9933C137.081 32.9584 139.842 32.7253 142.481 33.3262C145.121 33.9271 147.509 35.3323 149.317 37.348C150.542 38.7038 152.038 39.7876 153.708 40.5293C155.378 41.2711 157.185 41.6544 159.012 41.6544C160.839 41.6544 162.646 41.2711 164.316 40.5293C165.986 39.7876 167.482 38.7038 168.707 37.348Z" fill="#FFD9E6"/>
</g>
<path d="M18.504 53L21.552 41.184H24.88L27.904 53H25.736L23.208 42.488H23.224L20.672 53H18.504ZM20.472 50.128V48.44H25.96V50.128H20.472ZM35.4703 53V49.232C35.4703 49.0187 35.4703 48.832 35.4703 48.672C35.4703 48.5067 35.4703 48.3573 35.4703 48.224C35.4703 47.84 35.4143 47.496 35.3023 47.192C35.1956 46.8827 35.0089 46.64 34.7423 46.464C34.4809 46.288 34.1183 46.2 33.6543 46.2C33.2489 46.2 32.8889 46.2987 32.5743 46.496C32.2596 46.688 32.0116 46.9547 31.8303 47.296C31.6543 47.632 31.5663 48.0213 31.5663 48.464L30.8543 48.024C30.8543 47.3147 31.0143 46.6853 31.3343 46.136C31.6596 45.5813 32.0943 45.1467 32.6383 44.832C33.1823 44.5173 33.7849 44.36 34.4463 44.36C35.1289 44.36 35.7023 44.4933 36.1663 44.76C36.6356 45.0267 36.9876 45.4053 37.2222 45.896C37.4623 46.3867 37.5823 46.9627 37.5823 47.624C37.5823 47.88 37.5823 48.168 37.5823 48.488C37.5823 48.808 37.5823 49.1227 37.5823 49.432V53H35.4703ZM29.4622 53V44.504H31.5663V53H29.4622ZM42.4029 48.368L42.3869 49.328L38.9229 44.504H41.2269L43.8349 48.288L42.5709 48.28L45.1309 44.504H47.3869L44.0669 49.056L44.0109 48.176L47.4349 53H45.1309L42.4829 49.224L43.9069 49.096L41.0509 53H38.7949L42.4029 48.368ZM48.7504 53V44.504H50.8304V53H48.7504ZM49.7984 42.936C49.457 42.936 49.1584 42.8453 48.9024 42.664C48.6517 42.4773 48.5264 42.2187 48.5264 41.888C48.5264 41.5627 48.6517 41.3093 48.9024 41.128C49.1584 40.9467 49.457 40.856 49.7984 40.856C50.1344 40.856 50.4277 40.9467 50.6784 41.128C50.929 41.3093 51.0544 41.5627 51.0544 41.888C51.0544 42.2187 50.929 42.4773 50.6784 42.664C50.4277 42.8453 50.1344 42.936 49.7984 42.936ZM53.6994 49.432V47.936H59.6434L59.4034 48.336C59.4034 48.304 59.4034 48.2693 59.4034 48.232C59.4034 48.1893 59.4034 48.1547 59.4034 48.128C59.4034 47.76 59.3207 47.416 59.1554 47.096C58.99 46.7707 58.7394 46.5093 58.4034 46.312C58.0674 46.1093 57.6407 46.008 57.1234 46.008C56.6114 46.008 56.166 46.1173 55.7874 46.336C55.414 46.5493 55.1234 46.8587 54.9154 47.264C54.7127 47.6693 54.6114 48.1547 54.6114 48.72C54.6114 49.3013 54.71 49.8027 54.9074 50.224C55.1047 50.64 55.3927 50.96 55.7714 51.184C56.1554 51.4027 56.622 51.512 57.1714 51.512C57.5447 51.512 57.8674 51.4773 58.1394 51.408C58.4114 51.3387 58.6327 51.2453 58.8034 51.128C58.9794 51.0053 59.11 50.8747 59.1954 50.736C59.286 50.5973 59.3394 50.4587 59.3554 50.32H61.4514C61.4194 50.6773 61.2994 51.0267 61.0914 51.368C60.8887 51.704 60.6034 52.0107 60.2354 52.288C59.8674 52.56 59.4194 52.7787 58.8914 52.944C58.3687 53.104 57.7714 53.184 57.0994 53.184C56.1874 53.184 55.39 52.9973 54.7074 52.624C54.0247 52.2507 53.4914 51.7307 53.1074 51.064C52.7287 50.3973 52.5394 49.6347 52.5394 48.776C52.5394 47.896 52.7314 47.1253 53.1154 46.464C53.5047 45.8027 54.0434 45.288 54.7314 44.92C55.4194 44.5467 56.2087 44.36 57.0994 44.36C58.0167 44.36 58.8087 44.5467 59.4754 44.92C60.1474 45.2933 60.6647 45.8133 61.0274 46.48C61.39 47.1413 61.5714 47.912 61.5714 48.792C61.5714 48.904 61.5687 49.024 61.5634 49.152C61.558 49.28 61.55 49.3733 61.5394 49.432H53.6994ZM67.1163 53.16C66.8123 53.16 66.5029 53.1307 66.1883 53.072C65.8736 53.0133 65.5856 52.904 65.3243 52.744C65.0629 52.584 64.8523 52.3493 64.6923 52.04C64.5323 51.7307 64.4523 51.3227 64.4523 50.816C64.4523 50.6987 64.4523 50.5813 64.4523 50.464C64.4523 50.3413 64.4523 50.216 64.4523 50.088V46.184H62.4443V44.504H63.2603C63.5376 44.504 63.7563 44.4933 63.9163 44.472C64.0763 44.4453 64.1936 44.3867 64.2682 44.296C64.3429 44.2053 64.3909 44.064 64.4123 43.872C64.4389 43.6747 64.4523 43.4027 64.4523 43.056V41.704H66.5642V44.504H69.0923V46.184H66.5642V49.592C66.5642 49.6933 66.5642 49.7947 66.5642 49.896C66.5642 49.992 66.5642 50.0853 66.5642 50.176C66.5642 50.5707 66.6123 50.888 66.7083 51.128C66.8043 51.368 67.0309 51.488 67.3883 51.488C67.5589 51.488 67.7189 51.472 67.8683 51.44C68.0229 51.408 68.1376 51.376 68.2123 51.344V52.992C68.1109 53.0293 67.9643 53.0667 67.7723 53.104C67.5803 53.1413 67.3616 53.16 67.1163 53.16ZM71.233 56.648C70.9823 56.648 70.7583 56.6347 70.561 56.608C70.3637 56.5867 70.241 56.5653 70.193 56.544V54.904C70.2623 54.936 70.3797 54.96 70.545 54.976C70.7157 54.9973 70.8917 55.008 71.073 55.008C71.3663 55.008 71.6197 54.9493 71.833 54.832C72.0517 54.7147 72.2383 54.552 72.393 54.344C72.5477 54.1413 72.6703 53.904 72.761 53.632L72.945 53.096L70.017 44.504H72.217L74.225 51.592H73.969L75.929 44.504H78.089L75.113 53.52C74.905 54.144 74.6517 54.6907 74.353 55.16C74.0597 55.6293 73.6677 55.9947 73.177 56.256C72.6863 56.5173 72.0383 56.648 71.233 56.648Z" fill="black"/>
<path d="M22.524 30.13C21.809 30.13 21.159 29.935 20.574 29.545C19.989 29.155 19.5232 28.5938 19.1765 27.8615C18.8298 27.1292 18.6565 26.2473 18.6565 25.216C18.6565 24.1847 18.832 23.3028 19.183 22.5705C19.534 21.8382 20.0085 21.277 20.6065 20.887C21.2088 20.4927 21.8827 20.2955 22.628 20.2955C23.2347 20.2955 23.7482 20.4017 24.1685 20.614C24.5932 20.822 24.9377 21.0928 25.202 21.4265C25.4707 21.7558 25.6657 22.1068 25.787 22.4795C25.9083 22.8478 25.969 23.1945 25.969 23.5195C25.969 23.5325 25.969 23.5455 25.969 23.5585C25.969 23.5715 25.969 23.5845 25.969 23.5975H24.89C24.89 23.5845 24.89 23.5715 24.89 23.5585C24.89 23.5455 24.89 23.5325 24.89 23.5195C24.89 23.2595 24.8445 22.9995 24.7535 22.7395C24.6668 22.4752 24.5303 22.2368 24.344 22.0245C24.1577 21.8078 23.9215 21.6345 23.6355 21.5045C23.3538 21.3745 23.018 21.3095 22.628 21.3095C22.1037 21.3095 21.6248 21.4525 21.1915 21.7385C20.7625 22.0245 20.418 22.4578 20.158 23.0385C19.9023 23.6148 19.7745 24.3407 19.7745 25.216C19.7745 25.8877 19.846 26.4705 19.989 26.9645C20.132 27.4542 20.3292 27.8593 20.5805 28.18C20.8318 28.5007 21.1243 28.739 21.458 28.895C21.796 29.051 22.16 29.129 22.55 29.129C23.0657 29.129 23.4882 29.0402 23.8175 28.8625C24.1512 28.6848 24.409 28.4638 24.591 28.1995C24.773 27.9308 24.89 27.6665 24.942 27.4065V26.399H22.5955V25.4695H25.943V30H25.1175L25.059 28.934C25.0243 28.999 24.9528 29.0965 24.8445 29.2265C24.7362 29.3565 24.5823 29.4908 24.383 29.6295C24.188 29.7682 23.9367 29.8873 23.629 29.987C23.3213 30.0823 22.953 30.13 22.524 30.13ZM28.2387 26.9905V26.0025H33.5752L33.3802 26.3275C33.3802 26.3015 33.3802 26.2777 33.3802 26.256C33.3802 26.23 33.3802 26.2062 33.3802 26.1845C33.3802 25.7858 33.2957 25.4218 33.1267 25.0925C32.9621 24.7588 32.7151 24.4923 32.3857 24.293C32.0564 24.0937 31.6491 23.994 31.1637 23.994C30.6741 23.994 30.2429 24.098 29.8702 24.306C29.4976 24.514 29.2072 24.8087 28.9992 25.19C28.7912 25.567 28.6872 26.0177 28.6872 26.542C28.6872 27.075 28.7869 27.5343 28.9862 27.92C29.1899 28.3057 29.4781 28.6025 29.8507 28.8105C30.2234 29.0185 30.6654 29.1225 31.1767 29.1225C31.5407 29.1225 31.8571 29.0857 32.1257 29.012C32.3944 28.934 32.6154 28.8322 32.7887 28.7065C32.9664 28.5765 33.1007 28.4357 33.1917 28.284C33.2827 28.1323 33.3369 27.9807 33.3542 27.829H34.4592C34.4376 28.1063 34.3509 28.3815 34.1992 28.6545C34.0476 28.9275 33.8331 29.1767 33.5557 29.402C33.2784 29.623 32.9382 29.8007 32.5352 29.935C32.1322 30.0693 31.6686 30.1365 31.1442 30.1365C30.4509 30.1365 29.8399 29.9848 29.3112 29.6815C28.7826 29.3782 28.3666 28.9578 28.0632 28.4205C27.7642 27.8832 27.6147 27.2657 27.6147 26.568C27.6147 25.8617 27.7664 25.242 28.0697 24.709C28.3731 24.1717 28.7912 23.7513 29.3242 23.448C29.8572 23.1447 30.4661 22.993 31.1507 22.993C31.8484 22.993 32.4529 23.1447 32.9642 23.448C33.4756 23.7513 33.8699 24.1673 34.1472 24.696C34.4246 25.2203 34.5632 25.8183 34.5632 26.49C34.5632 26.5593 34.5611 26.6503 34.5567 26.763C34.5524 26.8757 34.5459 26.9515 34.5372 26.9905H28.2387ZM41.2255 30V26.6915C41.2255 26.4922 41.2255 26.3297 41.2255 26.204C41.2255 26.074 41.2255 25.9505 41.2255 25.8335C41.2255 25.4738 41.1648 25.1597 41.0435 24.891C40.9222 24.6223 40.7315 24.4143 40.4715 24.267C40.2115 24.1197 39.8713 24.046 39.451 24.046C39.0827 24.046 38.7403 24.1413 38.424 24.332C38.112 24.5183 37.8607 24.7718 37.67 25.0925C37.4837 25.4088 37.3905 25.7642 37.3905 26.1585L36.76 25.918C36.76 25.3763 36.8922 24.8845 37.1565 24.4425C37.4252 24.0005 37.7805 23.6495 38.2225 23.3895C38.6688 23.1252 39.1542 22.993 39.6785 22.993C40.2115 22.993 40.6773 23.0948 41.076 23.2985C41.4747 23.5022 41.7823 23.7947 41.999 24.176C42.22 24.553 42.3305 25.008 42.3305 25.541C42.3305 25.7317 42.3305 25.9397 42.3305 26.165C42.3305 26.3903 42.3305 26.6005 42.3305 26.7955V30H41.2255ZM36.2855 30V23.097H37.3905V30H36.2855ZM44.6157 26.9905V26.0025H49.9522L49.7572 26.3275C49.7572 26.3015 49.7572 26.2777 49.7572 26.256C49.7572 26.23 49.7572 26.2062 49.7572 26.1845C49.7572 25.7858 49.6727 25.4218 49.5037 25.0925C49.339 24.7588 49.092 24.4923 48.7627 24.293C48.4333 24.0937 48.026 23.994 47.5407 23.994C47.051 23.994 46.6198 24.098 46.2472 24.306C45.8745 24.514 45.5842 24.8087 45.3762 25.19C45.1682 25.567 45.0642 26.0177 45.0642 26.542C45.0642 27.075 45.1638 27.5343 45.3632 27.92C45.5668 28.3057 45.855 28.6025 46.2277 28.8105C46.6003 29.0185 47.0423 29.1225 47.5537 29.1225C47.9177 29.1225 48.234 29.0857 48.5027 29.012C48.7713 28.934 48.9923 28.8322 49.1657 28.7065C49.3433 28.5765 49.4777 28.4357 49.5687 28.284C49.6597 28.1323 49.7138 27.9807 49.7312 27.829H50.8362C50.8145 28.1063 50.7278 28.3815 50.5762 28.6545C50.4245 28.9275 50.21 29.1767 49.9327 29.402C49.6553 29.623 49.3152 29.8007 48.9122 29.935C48.5092 30.0693 48.0455 30.1365 47.5212 30.1365C46.8278 30.1365 46.2168 29.9848 45.6882 29.6815C45.1595 29.3782 44.7435 28.9578 44.4402 28.4205C44.1412 27.8832 43.9917 27.2657 43.9917 26.568C43.9917 25.8617 44.1433 25.242 44.4467 24.709C44.75 24.1717 45.1682 23.7513 45.7012 23.448C46.2342 23.1447 46.843 22.993 47.5277 22.993C48.2253 22.993 48.8298 23.1447 49.3412 23.448C49.8525 23.7513 50.2468 24.1673 50.5242 24.696C50.8015 25.2203 50.9402 25.8183 50.9402 26.49C50.9402 26.5593 50.938 26.6503 50.9337 26.763C50.9293 26.8757 50.9228 26.9515 50.9142 26.9905H44.6157ZM52.6625 30V23.097H53.7675V25.216L53.4035 25.086C53.4295 24.8303 53.4945 24.579 53.5985 24.332C53.7025 24.0807 53.8455 23.8553 54.0275 23.656C54.2138 23.4523 54.4456 23.292 54.723 23.175C55.0003 23.0537 55.3253 22.993 55.698 22.993C55.9753 22.993 56.2006 23.0168 56.374 23.0645C56.5516 23.1078 56.6621 23.1425 56.7055 23.1685L56.4195 24.254C56.3761 24.2237 56.2873 24.1847 56.153 24.137C56.023 24.0893 55.8366 24.0655 55.594 24.0655C55.2343 24.0655 54.9353 24.1305 54.697 24.2605C54.463 24.3905 54.2766 24.5638 54.138 24.7805C54.0036 24.9928 53.9083 25.2247 53.852 25.476C53.7956 25.7273 53.7675 25.9765 53.7675 26.2235V30H52.6625ZM60.1775 30.13C59.6532 30.13 59.1938 30.0477 58.7995 29.883C58.4095 29.7183 58.1062 29.4822 57.8895 29.1745C57.6728 28.8625 57.5645 28.4898 57.5645 28.0565C57.5645 27.6058 57.6815 27.231 57.9155 26.932C58.1495 26.6287 58.4788 26.3925 58.9035 26.2235C59.3282 26.0545 59.8222 25.9418 60.3855 25.8855C61.2348 25.7988 61.8393 25.7143 62.199 25.632C62.5587 25.5453 62.7385 25.4067 62.7385 25.216C62.7385 25.2117 62.7385 25.2095 62.7385 25.2095C62.7385 25.2052 62.7385 25.2008 62.7385 25.1965C62.7385 24.7978 62.576 24.501 62.251 24.306C61.926 24.1067 61.4558 24.007 60.8405 24.007C60.1992 24.007 59.7008 24.1197 59.3455 24.345C58.9902 24.566 58.8125 24.9257 58.8125 25.424H57.7205C57.7205 24.9083 57.8527 24.4707 58.117 24.111C58.3813 23.747 58.7475 23.4697 59.2155 23.279C59.6878 23.0883 60.2317 22.993 60.847 22.993C61.4103 22.993 61.9173 23.0797 62.368 23.253C62.823 23.422 63.1827 23.6755 63.447 24.0135C63.7157 24.3472 63.85 24.761 63.85 25.255C63.85 25.346 63.85 25.437 63.85 25.528C63.85 25.6147 63.85 25.7035 63.85 25.7945V28.7C63.85 28.8517 63.8565 28.999 63.8695 29.142C63.8825 29.285 63.9042 29.4107 63.9345 29.519C63.9735 29.649 64.0168 29.7552 64.0645 29.8375C64.1122 29.9155 64.1512 29.9697 64.1815 30H63.07C63.0483 29.9783 63.0158 29.9285 62.9725 29.8505C62.9292 29.7682 62.888 29.6728 62.849 29.5645C62.8187 29.4778 62.7948 29.3695 62.7775 29.2395C62.7602 29.1052 62.7515 28.9665 62.7515 28.8235L62.9335 28.947C62.7992 29.181 62.602 29.3868 62.342 29.5645C62.0863 29.7422 61.7765 29.8808 61.4125 29.9805C61.0485 30.0802 60.6368 30.13 60.1775 30.13ZM60.353 29.1355C60.7993 29.1355 61.2023 29.0683 61.562 28.934C61.9217 28.7953 62.2077 28.5917 62.42 28.323C62.6323 28.0543 62.7385 27.7207 62.7385 27.322V25.9505L62.9855 26.3665C62.7082 26.4748 62.3615 26.5637 61.9455 26.633C61.5338 26.698 61.1027 26.7522 60.652 26.7955C59.9977 26.8562 59.5037 26.971 59.17 27.14C58.8407 27.309 58.676 27.5928 58.676 27.9915C58.676 28.3685 58.8125 28.6545 59.0855 28.8495C59.3585 29.0402 59.781 29.1355 60.353 29.1355ZM66.8774 19.8405V30H65.7854V19.8405H66.8774Z" fill="black"/>
<path d="M31.3556 166.998C30.8568 166.868 30.3518 166.754 29.8572 166.608C26.0091 165.47 23.2963 162.186 23.0689 158.171C22.9249 155.606 22.7809 153.018 23.361 150.472C24.0138 147.582 25.5696 144.975 27.803 143.028C30.0364 141.081 32.8315 139.895 35.7838 139.642C35.9924 139.623 36.1823 139.579 36.5225 139.525C36.2366 139.316 36.0634 139.187 35.8965 139.062C33.2295 137.184 31.8459 134.602 31.6602 131.351C31.6198 131.015 31.4507 130.709 31.1886 130.495C27.0463 127.422 26.4912 121.716 30.0012 117.947C30.8526 117.033 31.7687 116.18 32.6035 115.251C34.5458 113.139 35.6635 110.398 35.7524 107.53C35.8505 105.166 35.6857 102.76 36.5538 100.51C37.1736 98.972 37.9002 97.479 38.7282 96.0422C39.2416 95.1157 40.2433 94.9404 40.9966 95.4642C41.7499 95.988 41.9106 96.8811 41.3159 97.7367C39.5442 100.297 38.8618 103.144 38.9181 106.222C39.0072 111.031 37.3203 115.114 33.8576 118.469C33.3526 118.955 32.8601 119.458 32.3718 119.965C29.8364 122.609 30.4687 126.643 33.7157 128.336C34.6068 128.797 34.9261 129.408 34.8405 130.402C34.4002 135.46 39.2374 138.985 43.8931 137.002C44.8071 136.614 45.5041 136.733 46.2303 137.401C47.5388 138.601 48.2649 138.513 49.3772 137.123C49.4905 136.98 49.5944 136.831 49.6882 136.674C50.3288 135.619 50.285 135.497 49.2708 134.796C44.4266 131.482 41.9656 126.892 41.8877 121.023C41.8626 119.279 41.871 117.534 41.8877 115.79C41.9252 111.923 44.5546 109.258 48.4236 109.241C54.853 109.214 61.2824 109.241 67.7119 109.241C69.3158 109.202 70.8791 109.749 72.1088 110.779C72.2817 110.922 72.5006 110.996 72.7244 110.988C74.5253 110.779 75.9819 111.432 77.2257 112.68C77.4719 112.925 77.7286 113.158 78.027 113.44C78.027 113.288 78.0583 113.231 78.027 113.196C75.1347 109.329 73.436 104.901 71.9168 100.37C71.007 97.6386 69.1101 95.8607 66.32 95.0823C64.9622 94.6817 63.5159 94.694 62.1652 95.1178C61.7881 95.2573 61.3809 95.2947 60.9848 95.2262C60.5886 95.1577 60.2176 94.9856 59.9093 94.7275C57.7783 93.1121 55.1913 92.2116 52.5179 92.1545C51.4014 92.1149 50.6982 91.4533 50.7378 90.5122C50.7775 89.571 51.4745 89.0034 52.5721 89.0327C55.553 89.1114 58.4557 90.0025 60.9674 91.6099C61.3265 91.825 61.7483 91.9112 62.1631 91.854C67.6201 90.869 72.8538 93.8866 74.8029 99.0973C75.8838 101.99 76.9314 104.913 78.2816 107.682C80.0115 111.23 82.595 114.162 85.5604 116.764C87.9456 118.851 88.8575 121.53 88.2941 124.638C87.8266 127.211 86.5057 129.27 84.1643 130.639C84.2937 130.886 84.4043 131.113 84.5295 131.33C88.3831 138.054 92.2416 144.775 96.105 151.495C96.9961 153.037 97.7473 154.613 98.0645 156.374V158.561C98.0082 158.782 97.9497 159.001 97.8996 159.224C97.0566 162.993 94.7959 165.465 91.1175 166.641C90.6793 166.781 90.2286 166.881 89.7841 167L31.3556 166.998ZM61.0195 155.938L51.4598 155.116C46.7937 154.711 42.1277 154.314 37.4616 153.897C36.3326 153.795 35.7462 153.1 35.8714 152.111C35.9841 151.23 36.7479 150.706 37.762 150.794L62.0254 152.897C63.8325 153.054 64.0036 153.2 64.3751 154.974C64.5984 154.974 64.8279 154.974 65.0575 154.974C66.6435 154.921 68.242 154.721 69.8133 154.846C72.883 155.091 75.9903 155.358 78.3922 157.695C78.4008 157.641 78.4008 157.586 78.3922 157.532C76.5697 152.553 74.7389 147.577 72.8997 142.605C72.8225 142.396 72.4698 142.188 72.2194 142.154C70.7837 141.914 69.3292 141.777 67.906 141.489C67.3676 141.38 67.0316 141.389 66.5996 141.762C62.0087 145.727 55.3914 146.067 50.5125 142.486C49.4044 141.674 48.4945 141.382 47.0755 141.597C43.3756 142.154 39.6298 142.419 35.9006 142.76C31.2804 143.177 27.1673 146.768 26.3973 151.347C26.0843 153.2 26.1886 155.128 26.1594 157.025C26.0843 161.115 28.7909 163.863 32.8831 163.863C41.7604 163.863 50.637 163.863 59.5129 163.863C59.7883 163.863 60.0638 163.841 60.3476 163.826C60.5709 161.18 60.7795 158.617 61.0091 155.946L61.0195 155.938ZM69.5441 112.595C68.6885 112.501 68.0562 112.374 67.4218 112.371C61.1739 112.358 54.926 112.358 48.6781 112.371C48.3918 112.367 48.1054 112.378 47.8205 112.407C46.2783 112.599 45.0742 113.659 45.0513 115.205C45.0116 118.035 44.8948 120.907 45.2954 123.692C46.0655 129.072 50.7065 133.394 56.0926 134.17C61.727 134.984 67.2653 132.121 69.7152 127.129C69.8338 126.872 69.9167 126.6 69.9615 126.32C70.4122 123.828 70.2474 121.414 69.0224 119.141C68.9849 119.072 68.9765 118.991 68.9452 118.92C67.9686 116.806 67.8747 114.748 69.5441 112.595ZM72.9373 133.542C73.0437 133.864 73.1272 134.131 73.2232 134.394C74.9705 139.147 76.7186 143.901 78.4673 148.655C79.7924 152.265 81.1009 155.879 82.4322 159.483C83.6843 162.822 86.9773 164.563 90.2327 163.626C94.375 162.436 96.1321 157.901 93.9201 154.026C89.4683 146.236 85.0074 138.454 80.5374 130.683C80.4373 130.508 80.312 130.345 80.1827 130.151L72.9373 133.542ZM73.3546 129.892C74.7611 129.239 75.9068 128.742 77.0128 128.169C77.154 128.079 77.2749 127.961 77.3676 127.822C77.4604 127.683 77.5229 127.526 77.5512 127.361C77.7766 125.159 77.956 122.956 78.1313 120.75C78.2419 119.375 77.9414 118.077 77.0525 117.021C76.2686 116.118 75.4206 115.273 74.5149 114.492C73.8492 113.901 72.9122 113.937 72.1944 114.44C71.8575 114.668 71.6022 114.997 71.4656 115.38C71.329 115.764 71.3182 116.18 71.4348 116.57C71.6658 117.369 71.9531 118.151 72.2945 118.909C73.2461 120.917 73.6468 122.983 73.2002 125.184C73.1442 125.439 73.1189 125.7 73.1251 125.961C73.1814 127.219 73.2649 128.475 73.3484 129.892H73.3546ZM63.4924 163.749C63.6113 163.811 63.6552 163.855 63.7011 163.855C67.1881 163.855 70.6773 163.889 74.1643 163.845C75.3559 163.83 76.3158 162.828 76.4723 161.664C76.5447 161.103 76.4251 160.534 76.1329 160.05C75.8408 159.566 75.3933 159.195 74.8634 158.997C71.3158 157.676 67.6848 157.768 63.9536 158.258C63.7977 160.12 63.644 161.95 63.4924 163.749ZM51.6706 139.417C55.2683 142.824 61.4264 142.449 64.421 139.4C63.9264 138.507 63.4423 137.628 62.9206 136.687C59.7579 137.694 56.3614 137.698 53.1961 136.699C52.6577 137.655 52.1652 138.538 51.6706 139.417ZM80.3204 116.084C82.1505 119.481 80.7878 123.029 80.8275 126.23L82.7474 127.795C82.9711 127.671 83.1859 127.532 83.3901 127.378C85.5604 125.579 86.0028 122 84.1768 119.865C83.0124 118.505 81.6142 117.336 80.3204 116.084ZM69.3772 132.987C68.292 133.759 67.2382 134.5 66.1969 135.258C66.0967 135.331 65.9882 135.562 66.0258 135.631C66.4703 136.372 66.8605 137.186 67.4573 137.774C67.6806 137.983 68.4506 137.735 68.9369 137.582C69.373 137.444 69.7591 137.148 70.1723 136.935C70.5854 136.722 70.6835 136.453 70.4978 135.998C70.0971 135.007 69.7528 134.001 69.3772 132.979V132.987ZM81.3262 163.845L79.709 161.28C79.5295 162.115 79.3438 162.97 79.1518 163.845H81.3262Z" fill="#FF4384"/>
<path d="M98.048 93.4045C97.6076 94.306 97.2779 95.2826 96.704 96.0902C96.329 96.6103 95.8479 97.045 95.2925 97.3655C94.7371 97.686 94.12 97.885 93.482 97.9495C92.8059 98.0351 92.4762 98.3189 92.3948 98.9929C92.3438 99.3553 92.236 99.7075 92.0755 100.036C91.9253 100.342 91.6784 100.589 91.3731 100.74C91.0679 100.891 90.7213 100.937 90.3873 100.871C89.6757 100.717 89.0183 100.059 89.1728 99.3748C89.3987 98.2666 89.7699 97.1931 90.2767 96.182C90.717 95.3473 91.6456 95.0572 92.5993 94.9425C94.3105 94.7338 95.2892 93.296 94.7842 91.7893C94.6397 91.3262 94.3556 90.9191 93.9708 90.6236C93.5861 90.3281 93.1195 90.1587 92.6348 90.1386C92.1633 90.1055 91.693 90.2173 91.2868 90.459C90.8806 90.7007 90.558 91.0607 90.3622 91.4909C90.2683 91.6745 90.2078 91.8769 90.1222 92.0647C89.7383 92.8995 88.9474 93.2605 88.1419 92.9537C87.3364 92.647 86.9733 91.8707 87.2153 90.9859C87.54 89.8585 88.216 88.8641 89.1449 88.1475C90.0738 87.4309 91.2072 87.0294 92.3801 87.0015C93.553 86.9735 94.7041 87.3206 95.6661 87.9922C96.6281 88.6638 97.3507 89.6248 97.7287 90.7354C97.8393 91.0506 97.9374 91.3615 98.048 91.6849V93.4045Z" fill="#FF4384"/>
<path d="M18 92.5177C18.071 89.9801 19.8364 87.7389 22.2738 87.163C23.4846 86.8743 24.7572 86.9989 25.889 87.517C27.0208 88.035 27.9468 88.9168 28.5196 90.0219C29.0956 91.1129 29.2797 92.3686 29.0412 93.5791C28.8026 94.7896 28.1559 95.8816 27.2091 96.6725C26.583 97.1838 26.462 97.6304 26.7625 98.3023C26.8252 98.4737 26.872 98.6504 26.9023 98.8303C27.1235 99.7902 26.6749 100.606 25.7963 100.846C24.9825 101.069 24.1749 100.575 23.889 99.665C23.7638 99.2685 23.6803 98.8637 23.5613 98.463C23.1252 96.8541 23.5613 95.5624 24.9031 94.5461C26.2032 93.5548 26.3639 91.9689 25.333 90.8837C24.996 90.5184 24.5516 90.2697 24.064 90.1733C23.5765 90.0769 23.0709 90.1379 22.6202 90.3474C22.1654 90.5499 21.785 90.8889 21.5319 91.3175C21.2787 91.7461 21.1653 92.2429 21.2074 92.7389C21.2262 92.9476 21.2909 93.1458 21.3139 93.3503C21.359 93.7285 21.2663 94.1103 21.0528 94.4257C20.8393 94.7412 20.5194 94.9691 20.1515 95.0678C19.7835 95.1696 19.3906 95.1269 19.053 94.9485C18.7155 94.77 18.459 94.4693 18.336 94.1078C18.1898 93.5856 18.0776 93.0544 18 92.5177Z" fill="#FF4384"/>
<path d="M46.9754 92.1754C46.9782 92.376 46.9414 92.5752 46.8672 92.7616C46.793 92.948 46.6827 93.1179 46.5428 93.2617C46.4029 93.4055 46.236 93.5203 46.0517 93.5996C45.8675 93.6789 45.6694 93.7211 45.4688 93.7238C45.2617 93.7277 45.0559 93.6906 44.8632 93.6146C44.6706 93.5387 44.4948 93.4254 44.3461 93.2814C44.1973 93.1373 44.0785 92.9652 43.9965 92.775C43.9145 92.5849 43.8709 92.3804 43.8682 92.1733C43.8785 91.7554 44.052 91.358 44.3515 91.0663C44.651 90.7746 45.0528 90.6117 45.4708 90.6124C45.8759 90.6254 46.2598 90.7961 46.5408 91.0881C46.8219 91.38 46.9778 91.7702 46.9754 92.1754Z" fill="#FF4384"/>
<path d="M28.407 104.755C28.4071 104.956 28.3668 105.156 28.2886 105.342C28.2103 105.528 28.0957 105.696 27.9514 105.837C27.8071 105.978 27.6362 106.089 27.4485 106.163C27.2608 106.237 27.0602 106.272 26.8586 106.268C26.6558 106.264 26.4557 106.22 26.2698 106.139C26.0838 106.058 25.9157 105.941 25.7749 105.795C25.6341 105.649 25.5235 105.477 25.4493 105.288C25.3751 105.1 25.3388 104.898 25.3425 104.695C25.3462 104.492 25.3898 104.292 25.4709 104.106C25.5519 103.92 25.6687 103.752 25.8147 103.611C25.9608 103.471 26.1331 103.36 26.3218 103.286C26.5106 103.212 26.7121 103.175 26.9149 103.179C27.1166 103.184 27.3154 103.228 27.4998 103.31C27.6842 103.392 27.8506 103.509 27.9893 103.656C28.1281 103.802 28.2364 103.975 28.3081 104.163C28.3798 104.352 28.4134 104.553 28.407 104.755Z" fill="#FF4384"/>
<path d="M87.6995 104.702C87.7 104.501 87.7407 104.301 87.8192 104.115C87.8978 103.929 88.0126 103.761 88.1569 103.62C88.3013 103.479 88.4723 103.368 88.66 103.294C88.8476 103.219 89.0482 103.183 89.25 103.187C89.4568 103.185 89.6621 103.224 89.8536 103.302C90.0451 103.38 90.219 103.496 90.3648 103.643C90.5106 103.79 90.6255 103.964 90.7025 104.156C90.7796 104.348 90.8173 104.554 90.8134 104.761C90.8095 104.968 90.764 105.172 90.6797 105.361C90.5955 105.549 90.4741 105.72 90.3228 105.861C90.1715 106.002 89.9934 106.111 89.7991 106.182C89.6048 106.253 89.3982 106.284 89.1915 106.274C88.9898 106.271 88.7907 106.227 88.6059 106.146C88.4211 106.065 88.2544 105.948 88.1154 105.802C87.9765 105.655 87.8681 105.483 87.7967 105.294C87.7253 105.105 87.6922 104.904 87.6995 104.702Z" fill="#FF4384"/>
<path d="M58.025 124.149C59.4161 124.117 60.7644 124.631 61.7813 125.581C62.5388 126.268 62.6389 127.169 62.0588 127.86C61.4787 128.55 60.5751 128.592 59.7633 127.968C58.5384 127.015 57.5597 127.017 56.3201 127.968C55.5188 128.594 54.6068 128.538 54.0246 127.841C53.4424 127.144 53.553 126.29 54.2688 125.621C55.2765 124.652 56.6275 124.123 58.025 124.149Z" fill="#FF4384"/>
<path d="M63.772 119.951C63.5652 119.943 63.3621 119.894 63.1743 119.807C62.9865 119.72 62.8178 119.597 62.6779 119.444C62.538 119.292 62.4297 119.113 62.3593 118.918C62.2888 118.724 62.2576 118.517 62.2674 118.311C62.2864 117.908 62.4629 117.529 62.7589 117.256C63.0549 116.983 63.4465 116.837 63.8492 116.85C64.254 116.862 64.6386 117.029 64.9228 117.318C65.207 117.606 65.3689 117.993 65.3746 118.398C65.3616 118.814 65.1871 119.209 64.8879 119.499C64.5887 119.789 64.1885 119.951 63.772 119.951Z" fill="#FF4384"/>
<path d="M53.8514 118.394C53.851 118.799 53.6932 119.188 53.4112 119.478C53.1292 119.769 52.7452 119.938 52.3406 119.951C51.9223 119.949 51.5212 119.784 51.2229 119.491C50.9247 119.198 50.7529 118.8 50.7441 118.381C50.7479 118.174 50.7926 117.97 50.8756 117.78C50.9587 117.591 51.0784 117.419 51.2279 117.276C51.3774 117.132 51.5538 117.02 51.7469 116.945C51.94 116.87 52.146 116.834 52.3531 116.839C52.5536 116.843 52.7514 116.886 52.9353 116.966C53.1192 117.046 53.2854 117.162 53.4246 117.306C53.5638 117.45 53.6731 117.621 53.7463 117.807C53.8196 117.994 53.8553 118.193 53.8514 118.394Z" fill="#FF4384"/>
</svg>
