<svg width="77" height="80" viewBox="0 0 77 80" fill="none" xmlns="http://www.w3.org/2000/svg">
<path d="M11.6259 79.9832C10.8559 79.5241 10.0002 79.1631 9.33032 78.5829C8.49555 77.8462 8.25557 76.7736 8.25975 75.6612C8.25975 74.359 8.25975 73.0567 8.25975 71.7545C8.25975 69.3232 9.22391 68.0106 11.5467 67.2342C11.8555 64.7716 11.6092 62.4343 9.78525 60.5561C7.96128 58.6778 6.11853 56.9394 4.26325 55.153C2.48102 53.4355 0.901248 51.6052 0.277257 49.1176C-0.20691 47.2018 0.0455962 45.2902 0.264723 43.3765C0.978452 37.1463 1.69637 30.9175 2.41845 24.6901C2.50258 23.6801 2.65809 22.6772 2.88383 21.6891C3.56834 19.1285 5.99124 17.365 8.44337 17.5424C11.1564 17.7386 13.3644 19.6773 13.6273 22.4091C13.9153 25.4373 13.9695 28.4883 14.1177 31.529C14.2137 33.5262 14.2972 35.5234 14.3848 37.4788C15.1299 37.4788 15.7977 37.4433 16.4592 37.4788C17.6091 37.5581 18.6943 37.94 19.4978 38.7518C22.167 41.4523 24.8904 44.1132 27.378 46.9743C29.7571 49.7145 30.8507 53.0035 30.7359 56.7015C30.6337 59.978 30.7359 63.2607 30.7046 66.5414C30.7046 67.0297 30.8235 67.2572 31.3307 67.4262C33.0357 68.0085 34.0687 69.4693 34.1021 71.2808C34.1292 72.7416 34.1167 74.2025 34.1021 75.6633C34.0896 77.7315 33.0587 79.138 31.0907 79.8372C31.0013 79.8788 30.9167 79.9298 30.8382 79.9895L11.6259 79.9832ZM27.5993 67.1486V66.2387C27.5993 63.0624 27.5137 59.8841 27.6223 56.7119C27.7266 53.6838 26.825 51.0209 24.8633 48.8087C22.5364 46.1834 20.0634 43.6812 17.5591 41.2186C16.2172 39.8997 13.9195 40.6176 13.4165 42.4081C13.1244 43.4516 13.4165 44.349 14.1929 45.1211C16.2255 47.1399 18.2499 49.1649 20.2658 51.1962C20.9963 51.9329 21.0255 52.8365 20.3952 53.4918C19.765 54.1471 18.805 54.1179 18.0996 53.4292C15.9542 51.3026 13.7964 49.1907 11.7032 47.0161C9.9439 45.1879 9.7143 42.4248 10.9831 40.2106C11.1966 39.8372 11.3068 39.4136 11.3025 38.9835C11.1091 33.8608 10.8914 28.7388 10.6493 23.6175C10.6223 23.0469 10.4766 22.4882 10.2214 21.9771C9.35954 20.3076 7.20373 20.2262 6.24375 21.8394C5.94259 22.4114 5.75952 23.038 5.70535 23.6822C5.32971 26.6498 5.00206 29.6236 4.66189 32.5954C4.15685 37.0127 3.65595 41.4322 3.15926 45.8537C3.03006 46.8656 3.13195 47.8937 3.45727 48.8606C3.78259 49.8275 4.32286 50.7081 5.0375 51.4362C5.9787 52.4421 7.01175 53.3624 7.98635 54.337C9.4472 55.7979 10.9811 57.2316 12.3584 58.7863C13.1846 59.6905 13.8221 60.7503 14.2338 61.9038C14.6456 63.0573 14.8232 64.2812 14.7563 65.5042C14.7292 66.0405 14.7563 66.5789 14.7563 67.1424L27.5993 67.1486ZM21.1507 76.857C24.0119 76.857 26.873 76.857 29.7342 76.857C30.6086 76.857 30.9697 76.5002 30.9863 75.6299C30.9989 74.2776 30.9989 72.9246 30.9863 71.5708C30.9863 70.6609 30.6191 70.3083 29.6925 70.3083C24.0216 70.3083 18.3507 70.3083 12.6798 70.3083C11.7491 70.3083 11.4151 70.6422 11.4047 71.5813C11.388 72.8814 11.3922 74.1816 11.4047 75.4817C11.4047 76.5732 11.7073 76.857 12.8092 76.8591C15.5848 76.8605 18.3653 76.8598 21.1507 76.857V76.857Z" fill="#49A4FF"/>
<path d="M45.5239 79.9832C45.3674 79.9081 45.213 79.8225 45.0502 79.762C44.2299 79.4823 43.5189 78.9508 43.0182 78.2433C42.5176 77.5359 42.253 76.6885 42.2621 75.8219C42.2433 74.311 42.2391 72.8021 42.2621 71.2912C42.2536 70.4374 42.5178 69.6031 43.0163 68.9099C43.5148 68.2166 44.2215 67.7005 45.0335 67.4366C45.5219 67.2697 45.6596 67.0526 45.6596 66.558C45.6387 63.2523 45.7264 59.9446 45.6283 56.641C45.5198 52.9993 46.6717 49.8105 48.9194 47.0411C50.4136 45.2109 52.104 43.5413 53.7193 41.8238C54.4685 41.0287 55.297 40.3066 56.0379 39.5052C57.624 37.796 59.5418 37.1533 61.9147 37.6061C61.9585 37.1053 62.019 36.6232 62.0399 36.1453C62.2194 32.0111 62.378 27.8748 62.5742 23.7406C62.5978 22.9869 62.7141 22.239 62.9206 21.5138C63.6656 19.045 65.9862 17.3922 68.3758 17.5487C69.6759 17.6176 70.9114 18.1375 71.8697 19.0188C72.828 19.9002 73.4493 21.088 73.6265 22.3778C74.0961 25.8839 74.4613 29.4045 74.8787 32.9189C75.3211 36.7421 75.6591 40.5821 76.2101 44.397C76.784 48.3621 75.6904 51.7012 72.8105 54.4539C71.118 56.0733 69.3775 57.6448 67.7142 59.2934C66.3786 60.6186 65.0951 62.0378 64.8364 64.0016C64.7007 65.045 64.8134 66.126 64.8134 67.2363C65.1605 67.3562 65.5005 67.4955 65.8318 67.6537C67.2927 68.43 68.0523 69.6634 68.0857 71.31C68.117 72.8188 68.1212 74.3297 68.0857 75.8386C68.0356 78.0716 66.7688 79.353 64.732 79.9999L45.5239 79.9832ZM61.5035 67.1507C61.6225 65.669 61.61 64.2499 61.8771 62.8871C62.3425 60.5247 63.843 58.7258 65.5021 57.0813C67.1612 55.4368 68.8412 53.8695 70.5358 52.2939C72.7792 50.207 73.5243 47.7173 73.1152 44.6766C72.3577 39.0586 71.7942 33.4072 71.143 27.783C70.9489 26.1134 70.7841 24.4188 70.517 22.7535C70.4324 22.1799 70.1467 21.6552 69.7109 21.2729C69.2751 20.8906 68.7175 20.6757 68.1379 20.6665C67.0422 20.6811 66.1094 21.518 65.8423 22.7535C65.7763 23.0317 65.7351 23.3153 65.7191 23.6008C65.4965 28.7485 65.2802 33.8963 65.0701 39.044C65.0555 39.3994 65.1377 39.7522 65.308 40.0645C66.7417 42.548 66.4349 45.2464 64.4169 47.2936C62.6639 49.0738 60.8837 50.8289 59.1161 52.5944C58.8782 52.8323 58.6403 53.0744 58.3982 53.3102C57.6031 54.0824 56.6368 54.145 55.9878 53.4855C55.3388 52.8261 55.4055 51.9099 56.2173 51.0814C56.3071 50.9875 56.401 50.8977 56.4949 50.8059C58.4086 48.8922 60.3349 46.9889 62.2319 45.0606C63.3421 43.9337 63.3421 42.3226 62.284 41.3041C61.226 40.2857 59.6796 40.34 58.5777 41.4252C56.8351 43.1448 55.0884 44.8561 53.3938 46.6216C52.5351 47.5283 51.7342 48.4881 50.9959 49.4953C49.4836 51.4762 48.6968 53.9161 48.767 56.4072C48.8401 59.7108 48.7858 63.0186 48.7858 66.3243V67.1591L61.5035 67.1507ZM55.1885 76.857C58.0246 76.857 60.8608 76.857 63.6969 76.857C64.6277 76.857 64.9637 76.5273 64.9741 75.5882C64.9887 74.2358 64.9908 72.8752 64.9741 71.5291C64.9616 70.6463 64.6131 70.3082 63.722 70.3082C58.0177 70.3082 52.3197 70.3082 46.6279 70.3082C45.7556 70.3082 45.3945 70.6735 45.3758 71.5437C45.3612 72.8439 45.3758 74.1461 45.3758 75.4463C45.3758 76.5544 45.693 76.8591 46.8366 76.8591C49.6206 76.8605 52.4045 76.8598 55.1885 76.857Z" fill="#49A4FF"/>
<path d="M58.9157 20.7751C58.9078 25.849 57.0433 30.7447 53.674 34.5385C50.3046 38.3322 45.6634 40.7618 40.6259 41.3688C28.9933 42.765 18.5045 34.1731 17.5278 22.4738C17.2322 19.1687 17.76 15.8419 19.0638 12.7905C19.3007 12.2616 19.734 11.8455 20.2721 11.6302C20.6895 11.5008 21.3385 11.77 21.7329 12.0705C22.2755 12.4879 22.1858 13.1494 22.0084 13.7964C21.5284 15.5703 20.8982 17.3442 20.6832 19.1431C19.7128 27.2821 25.2244 35.3961 33.138 37.6458C43.2721 40.5257 53.2643 34.5008 55.4514 24.1934C57.5383 14.3661 50.4114 4.43234 40.461 3.25532C37.3734 2.87499 34.2401 3.30658 31.3704 4.50747C30.0827 5.03755 28.9412 4.37391 28.9683 3.14054C28.9871 2.32038 29.5026 1.88838 30.1996 1.60456C34.7491 -0.24237 39.3821 -0.507409 44.1006 0.874135C52.849 3.43062 58.9282 11.6093 58.9157 20.7751Z" fill="#49A4FF"/>
<path d="M38.1634 35.394C32.8709 35.3272 28.5969 31.7168 27.7997 26.585C27.7461 26.2251 27.7196 25.8617 27.7204 25.4978C27.7204 24.0244 28.6971 22.9392 30.1726 22.9308C35.504 22.9044 40.8367 22.9044 46.1709 22.9308C47.6923 22.9308 48.6544 24.0202 48.6481 25.552C48.6314 30.0932 45.0043 34.2837 40.3275 35.1519C39.6159 35.2708 38.8854 35.3105 38.1634 35.394ZM45.4175 26.0842H30.9614C31.0574 29.3419 34.3464 32.1592 38.057 32.2156C41.8781 32.2719 45.2422 29.488 45.4175 26.0842V26.0842Z" fill="#49A4FF"/>
<path d="M45.4863 13.2308C47.0655 13.1934 48.5953 13.7823 49.7416 14.869C50.4929 15.564 50.5764 16.4718 50.0046 17.1521C49.4327 17.8325 48.4915 17.8638 47.7089 17.2356C46.2022 16.0252 44.8519 16.0252 43.3451 17.2356C42.5625 17.8617 41.6297 17.8325 41.0495 17.1542C40.4694 16.476 40.5591 15.5723 41.3125 14.8753C42.4372 13.8056 43.9342 13.2158 45.4863 13.2308V13.2308Z" fill="#49A4FF"/>
<path d="M30.8779 13.1077C32.4491 13.1003 33.9616 13.7042 35.0956 14.7918C35.8281 15.4805 35.8928 16.4113 35.2834 17.077C34.674 17.7427 33.8226 17.7448 33.0462 17.1354C31.479 15.8833 30.2038 15.8958 28.6198 17.1501C27.8623 17.7511 26.9733 17.7156 26.3847 17.0582C25.7962 16.4009 25.8547 15.4951 26.5496 14.8315C27.1225 14.274 27.7996 13.8348 28.5423 13.539C29.2849 13.2432 30.0786 13.0966 30.8779 13.1077Z" fill="#49A4FF"/>
<path d="M26.1677 7.18292C26.1702 7.39005 26.1311 7.59557 26.0525 7.78722C25.9739 7.97888 25.8575 8.15274 25.7103 8.29843C25.563 8.44412 25.388 8.55865 25.1955 8.6352C25.003 8.71174 24.7971 8.74873 24.59 8.74394C24.1854 8.72869 23.8017 8.55986 23.5172 8.27181C23.2326 7.98376 23.0685 7.59813 23.0582 7.19336C23.0669 6.77539 23.2393 6.37753 23.5382 6.08526C23.8371 5.79298 24.2387 5.62961 24.6567 5.63025C25.0619 5.63901 25.4475 5.80672 25.7302 6.09719C26.0128 6.38766 26.17 6.77762 26.1677 7.18292V7.18292Z" fill="#49A4FF"/>
</svg>
