<svg width="159" height="185" viewBox="0 0 159 185" fill="none" xmlns="http://www.w3.org/2000/svg">
<path d="M0 40C0 21.1438 0 11.7157 5.85786 5.85786C11.7157 0 21.1438 0 40 0H119C137.856 0 147.284 0 153.142 5.85786C159 11.7157 159 21.1438 159 40V145C159 163.856 159 173.284 153.142 179.142C147.284 185 137.856 185 119 185H40C21.1438 185 11.7157 185 5.85786 179.142C0 173.284 0 163.856 0 145V40Z" fill="#E6F2FF"/>
<mask id="mask0_85_1226" style="mask-type:alpha" maskUnits="userSpaceOnUse" x="0" y="0" width="159" height="185">
<path d="M0 40C0 21.1438 0 11.7157 5.85786 5.85786C11.7157 0 21.1438 0 40 0H119C137.856 0 147.284 0 153.142 5.85786C159 11.7157 159 21.1438 159 40V145C159 163.856 159 173.284 153.142 179.142C147.284 185 137.856 185 119 185H40C21.1438 185 11.7157 185 5.85786 179.142C0 173.284 0 163.856 0 145V40Z" fill="#E6F2FF"/>
</mask>
<g mask="url(#mask0_85_1226)">
<path d="M168.707 36.3842C170.515 34.3517 172.903 32.9348 175.543 32.3289C178.182 31.7231 180.943 31.9581 183.445 33.0016C185.947 34.0451 188.066 35.8457 189.509 38.1549C190.953 40.4641 191.651 43.1682 191.506 45.8941C191.411 47.7365 191.701 49.5784 192.356 51.3007C193.012 53.0231 194.018 54.5876 195.311 55.8933C196.603 57.1989 198.153 58.2165 199.86 58.8805C201.567 59.5444 203.393 59.8398 205.221 59.7476C207.924 59.6015 210.606 60.3048 212.896 61.7606C215.186 63.2164 216.972 65.3529 218.007 67.8754C219.042 70.3979 219.275 73.1821 218.674 75.8438C218.073 78.5055 216.668 80.9137 214.652 82.736C213.292 83.9715 212.205 85.4812 211.461 87.1674C210.717 88.8536 210.332 90.6786 210.332 92.5242C210.332 94.3698 210.717 96.1948 211.461 97.881C212.205 99.5672 213.292 101.077 214.652 102.312C216.668 104.135 218.073 106.543 218.674 109.205C219.275 111.866 219.042 114.65 218.007 117.173C216.972 119.695 215.186 121.832 212.896 123.288C210.606 124.744 207.924 125.447 205.221 125.301C203.396 125.206 201.571 125.497 199.865 126.157C198.158 126.816 196.608 127.829 195.313 129.13C194.019 130.43 193.009 131.99 192.349 133.708C191.689 135.427 191.394 137.265 191.482 139.106C191.627 141.832 190.929 144.536 189.485 146.845C188.042 149.154 185.923 150.955 183.421 151.998C180.919 153.042 178.158 153.277 175.519 152.671C172.879 152.065 170.491 150.648 168.683 148.616C167.458 147.245 165.961 146.149 164.289 145.398C162.616 144.648 160.806 144.26 158.976 144.26C157.146 144.26 155.336 144.648 153.663 145.398C151.991 146.149 150.494 147.245 149.269 148.616C147.461 150.648 145.073 152.065 142.433 152.671C139.794 153.277 137.033 153.042 134.531 151.998C132.029 150.955 129.91 149.154 128.467 146.845C127.023 144.536 126.325 141.832 126.47 139.106C126.565 137.266 126.275 135.426 125.621 133.705C124.967 131.985 123.963 130.421 122.673 129.116C121.383 127.811 119.836 126.793 118.132 126.127C116.428 125.462 114.605 125.164 112.779 125.252C110.076 125.399 107.394 124.695 105.104 123.239C102.814 121.784 101.028 119.647 99.9933 117.125C98.9584 114.602 98.7253 111.818 99.3262 109.156C99.9271 106.494 101.332 104.086 103.348 102.264C104.708 101.029 105.795 99.5188 106.539 97.8326C107.283 96.1464 107.668 94.3214 107.668 92.4758C107.668 90.6302 107.283 88.8052 106.539 87.119C105.795 85.4328 104.708 83.9231 103.348 82.6876C101.332 80.8653 99.9271 78.4571 99.3262 75.7954C98.7253 73.1337 98.9584 70.3495 99.9933 67.827C101.028 65.3046 102.814 63.168 105.104 61.7122C107.394 60.2564 110.076 59.5531 112.779 59.6992C114.604 59.7944 116.429 59.5028 118.135 58.8433C119.842 58.1838 121.392 57.1711 122.687 55.8704C123.981 54.5697 124.991 53.01 125.651 51.2917C126.311 49.5734 126.606 47.7347 126.518 45.8941C126.373 43.1682 127.071 40.4641 128.515 38.1549C129.958 35.8457 132.077 34.0451 134.579 33.0016C137.081 31.9581 139.842 31.7231 142.481 32.3289C145.121 32.9348 147.509 34.3517 149.317 36.3842C150.542 37.7513 152.038 38.8441 153.708 39.5921C155.378 40.34 157.185 40.7265 159.012 40.7265C160.839 40.7265 162.646 40.34 164.316 39.5921C165.986 38.8441 167.482 37.7513 168.707 36.3842Z" fill="#D7EBFF"/>
</g>
<path d="M27.864 18.2V30H25.752V24.24L26.704 24.96H20.192L21.144 24.256V30H19.032V18.2H21.144V24.016L20.192 23.28H26.704L25.752 24.008V18.2H27.864ZM32.8586 30.176C32.224 30.176 31.6666 30.0773 31.1866 29.88C30.7066 29.6773 30.3306 29.3867 30.0586 29.008C29.7866 28.6293 29.6506 28.1733 29.6506 27.64C29.6506 27.0587 29.808 26.5813 30.1226 26.208C30.4426 25.8293 30.872 25.5387 31.4106 25.336C31.9493 25.128 32.5466 24.9947 33.2026 24.936C34.1733 24.84 34.8506 24.7493 35.2346 24.664C35.624 24.5733 35.8186 24.4293 35.8186 24.232C35.8186 24.2267 35.8186 24.224 35.8186 24.224C35.8186 24.2187 35.8186 24.216 35.8186 24.216C35.8186 23.8427 35.6506 23.5547 35.3146 23.352C34.9786 23.1493 34.504 23.048 33.8906 23.048C33.2453 23.048 32.7493 23.1627 32.4026 23.392C32.0613 23.616 31.8906 23.9733 31.8906 24.464H29.8106C29.8106 23.7973 29.9866 23.2347 30.3386 22.776C30.696 22.312 31.184 21.96 31.8026 21.72C32.4213 21.48 33.1226 21.36 33.9066 21.36C34.6373 21.36 35.3066 21.4693 35.9146 21.688C36.5226 21.9067 37.0106 22.2373 37.3786 22.68C37.7466 23.1227 37.9306 23.6747 37.9306 24.336C37.9306 24.448 37.9306 24.56 37.9306 24.672C37.9306 24.784 37.9306 24.896 37.9306 25.008V28.208C37.9306 28.4107 37.936 28.6107 37.9466 28.808C37.9626 29 37.992 29.1733 38.0346 29.328C38.088 29.4987 38.152 29.6427 38.2266 29.76C38.3013 29.8773 38.36 29.9573 38.4026 30H36.3226C36.2853 29.9627 36.232 29.8907 36.1626 29.784C36.0986 29.672 36.04 29.544 35.9866 29.4C35.9333 29.24 35.8933 29.0693 35.8666 28.888C35.84 28.7013 35.8266 28.496 35.8266 28.272L36.2426 28.56C36.0826 28.8853 35.8373 29.1707 35.5066 29.416C35.1813 29.656 34.792 29.8427 34.3386 29.976C33.8853 30.1093 33.392 30.176 32.8586 30.176ZM33.3706 28.52C33.808 28.52 34.2133 28.4453 34.5866 28.296C34.96 28.1467 35.2613 27.9173 35.4906 27.608C35.72 27.2933 35.8346 26.8907 35.8346 26.4V25.264L36.3466 25.84C36.0053 25.968 35.5946 26.0747 35.1146 26.16C34.6346 26.24 34.1493 26.304 33.6586 26.352C33.0293 26.4107 32.5546 26.52 32.2346 26.68C31.92 26.84 31.7626 27.1013 31.7626 27.464C31.7626 27.816 31.896 28.08 32.1626 28.256C32.4293 28.432 32.832 28.52 33.3706 28.52ZM39.8841 33.496V21.504H41.9881V33.496H39.8841ZM44.6681 30.176C44.0068 30.176 43.3935 30.0053 42.8281 29.664C42.2681 29.3173 41.8148 28.8453 41.4681 28.248C41.1268 27.6507 40.9561 26.9787 40.9561 26.232C40.9561 26.2107 40.9561 26.192 40.9561 26.176C40.9561 26.1547 40.9561 26.136 40.9561 26.12L41.9961 26.096C41.9961 26.1067 41.9961 26.12 41.9961 26.136C41.9961 26.152 41.9961 26.1653 41.9961 26.176C41.9961 26.592 42.1001 26.9627 42.3081 27.288C42.5161 27.608 42.7855 27.8613 43.1161 28.048C43.4521 28.2293 43.8095 28.32 44.1881 28.32C44.8015 28.32 45.3241 28.1093 45.7561 27.688C46.1881 27.2667 46.4041 26.6133 46.4041 25.728C46.4041 24.8373 46.1881 24.1867 45.7561 23.776C45.3295 23.36 44.8068 23.152 44.1881 23.152C43.8148 23.152 43.4601 23.2427 43.1241 23.424C42.7935 23.6 42.5215 23.8453 42.3081 24.16C42.1001 24.4747 41.9961 24.8427 41.9961 25.264L40.9561 25.216C40.9561 24.464 41.1268 23.7973 41.4681 23.216C41.8148 22.6347 42.2681 22.1813 42.8281 21.856C43.3935 21.5253 44.0068 21.36 44.6681 21.36C45.3561 21.36 45.9961 21.528 46.5881 21.864C47.1855 22.2 47.6655 22.6933 48.0281 23.344C48.3961 23.9947 48.5801 24.7893 48.5801 25.728C48.5801 26.6933 48.4015 27.5067 48.0441 28.168C47.6868 28.8293 47.2121 29.3307 46.6201 29.672C46.0281 30.008 45.3775 30.176 44.6681 30.176ZM50.3216 33.496V21.504H52.4256V33.496H50.3216ZM55.1056 30.176C54.4443 30.176 53.831 30.0053 53.2656 29.664C52.7056 29.3173 52.2523 28.8453 51.9056 28.248C51.5643 27.6507 51.3936 26.9787 51.3936 26.232C51.3936 26.2107 51.3936 26.192 51.3936 26.176C51.3936 26.1547 51.3936 26.136 51.3936 26.12L52.4336 26.096C52.4336 26.1067 52.4336 26.12 52.4336 26.136C52.4336 26.152 52.4336 26.1653 52.4336 26.176C52.4336 26.592 52.5376 26.9627 52.7456 27.288C52.9536 27.608 53.223 27.8613 53.5536 28.048C53.8896 28.2293 54.247 28.32 54.6256 28.32C55.239 28.32 55.7616 28.1093 56.1936 27.688C56.6256 27.2667 56.8416 26.6133 56.8416 25.728C56.8416 24.8373 56.6256 24.1867 56.1936 23.776C55.767 23.36 55.2443 23.152 54.6256 23.152C54.2523 23.152 53.8976 23.2427 53.5616 23.424C53.231 23.6 52.959 23.8453 52.7456 24.16C52.5376 24.4747 52.4336 24.8427 52.4336 25.264L51.3936 25.216C51.3936 24.464 51.5643 23.7973 51.9056 23.216C52.2523 22.6347 52.7056 22.1813 53.2656 21.856C53.831 21.5253 54.4443 21.36 55.1056 21.36C55.7936 21.36 56.4336 21.528 57.0256 21.864C57.623 22.2 58.103 22.6933 58.4656 23.344C58.8336 23.9947 59.0176 24.7893 59.0176 25.728C59.0176 26.6933 58.839 27.5067 58.4816 28.168C58.1243 28.8293 57.6496 29.3307 57.0576 29.672C56.4656 30.008 55.815 30.176 55.1056 30.176ZM60.8736 33.648C60.623 33.648 60.399 33.6347 60.2016 33.608C60.0043 33.5867 59.8816 33.5653 59.8336 33.544V31.904C59.903 31.936 60.0203 31.96 60.1856 31.976C60.3563 31.9973 60.5323 32.008 60.7136 32.008C61.007 32.008 61.2603 31.9493 61.4736 31.832C61.6923 31.7147 61.879 31.552 62.0336 31.344C62.1883 31.1413 62.311 30.904 62.4016 30.632L62.5856 30.096L59.6576 21.504H61.8576L63.8656 28.592H63.6096L65.5696 21.504H67.7296L64.7536 30.52C64.5456 31.144 64.2923 31.6907 63.9936 32.16C63.7003 32.6293 63.3083 32.9947 62.8176 33.256C62.327 33.5173 61.679 33.648 60.8736 33.648Z" fill="black"/>
<path d="M29.6259 166.983C28.8559 166.524 28.0002 166.163 27.3303 165.583C26.4955 164.846 26.2556 163.774 26.2597 162.661C26.2597 161.359 26.2597 160.057 26.2597 158.755C26.2597 156.323 27.2239 155.011 29.5467 154.234C29.8555 151.772 29.6092 149.434 27.7853 147.556C25.9613 145.678 24.1185 143.939 22.2633 142.153C20.481 140.435 18.9012 138.605 18.2773 136.118C17.7931 134.202 18.0456 132.29 18.2647 130.376C18.9785 124.146 19.6964 117.918 20.4184 111.69C20.5026 110.68 20.6581 109.677 20.8838 108.689C21.5683 106.128 23.9912 104.365 26.4434 104.542C29.1564 104.739 31.3644 106.677 31.6273 109.409C31.9153 112.437 31.9695 115.488 32.1177 118.529C32.2137 120.526 32.2972 122.523 32.3848 124.479C33.1299 124.479 33.7977 124.443 34.4592 124.479C35.6091 124.558 36.6943 124.94 37.4978 125.752C40.167 128.452 42.8904 131.113 45.378 133.974C47.7571 136.714 48.8507 140.003 48.7359 143.701C48.6337 146.978 48.7359 150.261 48.7046 153.541C48.7046 154.03 48.8235 154.257 49.3307 154.426C51.0357 155.008 52.0687 156.469 52.1021 158.281C52.1292 159.742 52.1167 161.202 52.1021 162.663C52.0896 164.731 51.0587 166.138 49.0907 166.837C49.0013 166.879 48.9167 166.93 48.8382 166.99L29.6259 166.983ZM45.5993 154.149V153.239C45.5993 150.062 45.5137 146.884 45.6223 143.712C45.7266 140.684 44.825 138.021 42.8633 135.809C40.5364 133.183 38.0634 130.681 35.5591 128.219C34.2172 126.9 31.9195 127.618 31.4165 129.408C31.1244 130.452 31.4165 131.349 32.1929 132.121C34.2255 134.14 36.2499 136.165 38.2658 138.196C38.9963 138.933 39.0255 139.837 38.3952 140.492C37.7649 141.147 36.805 141.118 36.0996 140.429C33.9542 138.303 31.7964 136.191 29.7032 134.016C27.9439 132.188 27.7143 129.425 28.9831 127.211C29.1966 126.837 29.3068 126.414 29.3025 125.983C29.1091 120.861 28.8914 115.739 28.6493 110.617C28.6223 110.047 28.4766 109.488 28.2214 108.977C27.3595 107.308 25.2037 107.226 24.2437 108.839C23.9426 109.411 23.7595 110.038 23.7054 110.682C23.3297 113.65 23.0021 116.624 22.6619 119.595C22.1569 124.013 21.656 128.432 21.1593 132.854C21.0301 133.866 21.132 134.894 21.4573 135.861C21.7826 136.828 22.3229 137.708 23.0375 138.436C23.9787 139.442 25.0118 140.362 25.9863 141.337C27.4472 142.798 28.9811 144.232 30.3584 145.786C31.1846 146.691 31.8221 147.75 32.2338 148.904C32.6456 150.057 32.8232 151.281 32.7563 152.504C32.7292 153.04 32.7563 153.579 32.7563 154.142L45.5993 154.149ZM39.1507 163.857C42.0119 163.857 44.873 163.857 47.7342 163.857C48.6086 163.857 48.9697 163.5 48.9863 162.63C48.9989 161.278 48.9989 159.925 48.9863 158.571C48.9863 157.661 48.6191 157.308 47.6925 157.308C42.0216 157.308 36.3507 157.308 30.6798 157.308C29.7491 157.308 29.4151 157.642 29.4047 158.581C29.388 159.881 29.3922 161.182 29.4047 162.482C29.4047 163.573 29.7073 163.857 30.8092 163.859C33.5848 163.861 36.3653 163.86 39.1507 163.857Z" fill="#49A4FF"/>
<path d="M63.5239 166.983C63.3674 166.908 63.213 166.823 63.0502 166.762C62.2299 166.482 61.5189 165.951 61.0182 165.243C60.5176 164.536 60.253 163.689 60.2621 162.822C60.2433 161.311 60.2391 159.802 60.2621 158.291C60.2536 157.437 60.5178 156.603 61.0163 155.91C61.5148 155.217 62.2215 154.7 63.0335 154.437C63.5219 154.27 63.6596 154.053 63.6596 153.558C63.6387 150.252 63.7264 146.945 63.6283 143.641C63.5198 139.999 64.6717 136.81 66.9194 134.041C68.4136 132.211 70.104 130.541 71.7193 128.824C72.4685 128.029 73.297 127.307 74.0379 126.505C75.624 124.796 77.5418 124.153 79.9147 124.606C79.9585 124.105 80.019 123.623 80.0399 123.145C80.2194 119.011 80.378 114.875 80.5742 110.741C80.5978 109.987 80.7141 109.239 80.9206 108.514C81.6656 106.045 83.9862 104.392 86.3758 104.549C87.6759 104.618 88.9114 105.137 89.8697 106.019C90.828 106.9 91.4493 108.088 91.6265 109.378C92.0961 112.884 92.4613 116.404 92.8787 119.919C93.3211 123.742 93.6591 127.582 94.2101 131.397C94.784 135.362 93.6904 138.701 90.8105 141.454C89.118 143.073 87.3775 144.645 85.7142 146.293C84.3786 147.619 83.0951 149.038 82.8363 151.002C82.7007 152.045 82.8134 153.126 82.8134 154.236C83.1605 154.356 83.5005 154.496 83.8318 154.654C85.2927 155.43 86.0523 156.663 86.0857 158.31C86.117 159.819 86.1212 161.33 86.0857 162.839C86.0356 165.072 84.7688 166.353 82.732 167L63.5239 166.983ZM79.5035 154.151C79.6225 152.669 79.61 151.25 79.8771 149.887C80.3425 147.525 81.843 145.726 83.5021 144.081C85.1612 142.437 86.8412 140.87 88.5358 139.294C90.7792 137.207 91.5243 134.717 91.1152 131.677C90.3577 126.059 89.7942 120.407 89.143 114.783C88.9489 113.113 88.7841 111.419 88.517 109.753C88.4324 109.18 88.1467 108.655 87.7109 108.273C87.2751 107.891 86.7175 107.676 86.1379 107.667C85.0422 107.681 84.1094 108.518 83.8423 109.753C83.7763 110.032 83.7351 110.315 83.7191 110.601C83.4965 115.749 83.2802 120.896 83.0701 126.044C83.0555 126.399 83.1377 126.752 83.308 127.065C84.7417 129.548 84.4349 132.246 82.4169 134.294C80.6639 136.074 78.8837 137.829 77.1161 139.594C76.8782 139.832 76.6403 140.074 76.3982 140.31C75.6031 141.082 74.6368 141.145 73.9878 140.486C73.3388 139.826 73.4055 138.91 74.2173 138.081C74.3071 137.987 74.401 137.898 74.4949 137.806C76.4086 135.892 78.3349 133.989 80.2319 132.061C81.3421 130.934 81.3421 129.323 80.284 128.304C79.226 127.286 77.6796 127.34 76.5777 128.425C74.8351 130.145 73.0884 131.856 71.3938 133.622C70.5351 134.528 69.7342 135.488 68.9959 136.495C67.4836 138.476 66.6968 140.916 66.767 143.407C66.8401 146.711 66.7858 150.019 66.7858 153.324V154.159L79.5035 154.151ZM73.1885 163.857C76.0246 163.857 78.8608 163.857 81.6969 163.857C82.6277 163.857 82.9637 163.527 82.9741 162.588C82.9887 161.236 82.9908 159.875 82.9741 158.529C82.9616 157.646 82.6131 157.308 81.722 157.308C76.0177 157.308 70.3197 157.308 64.6279 157.308C63.7556 157.308 63.3945 157.673 63.3758 158.544C63.3612 159.844 63.3758 161.146 63.3758 162.446C63.3758 163.554 63.693 163.859 64.8366 163.859C67.6206 163.86 70.4045 163.86 73.1885 163.857Z" fill="#49A4FF"/>
<path d="M76.9157 107.775C76.9078 112.849 75.0433 117.745 71.674 121.538C68.3046 125.332 63.6634 127.762 58.6259 128.369C46.9933 129.765 36.5045 121.173 35.5278 109.474C35.2322 106.169 35.76 102.842 37.0638 99.7905C37.3007 99.2616 37.734 98.8455 38.2721 98.6301C38.6895 98.5008 39.3385 98.77 39.7329 99.0705C40.2755 99.4879 40.1858 100.149 40.0084 100.796C39.5284 102.57 38.8982 104.344 38.6832 106.143C37.7128 114.282 43.2244 122.396 51.138 124.646C61.2721 127.526 71.2643 121.501 73.4514 111.193C75.5383 101.366 68.4114 91.4323 58.461 90.2553C55.3734 89.875 52.2401 90.3066 49.3704 91.5075C48.0827 92.0376 46.9412 91.3739 46.9683 90.1405C46.9871 89.3204 47.5026 88.8884 48.1996 88.6046C52.7491 86.7576 57.3821 86.4926 62.1006 87.8741C70.849 90.4306 76.9282 98.6093 76.9157 107.775Z" fill="#49A4FF"/>
<path d="M56.1634 122.394C50.8709 122.327 46.5969 118.717 45.7997 113.585C45.7461 113.225 45.7196 112.862 45.7204 112.498C45.7204 111.024 46.6971 109.939 48.1726 109.931C53.504 109.904 58.8367 109.904 64.1709 109.931C65.6923 109.931 66.6544 111.02 66.6481 112.552C66.6314 117.093 63.0043 121.284 58.3275 122.152C57.6159 122.271 56.8854 122.31 56.1634 122.394ZM63.4175 113.084H48.9614C49.0574 116.342 52.3464 119.159 56.057 119.216C59.8781 119.272 63.2422 116.488 63.4175 113.084Z" fill="#49A4FF"/>
<path d="M63.4863 100.231C65.0655 100.193 66.5953 100.782 67.7416 101.869C68.4929 102.564 68.5764 103.472 68.0046 104.152C67.4327 104.832 66.4915 104.864 65.7089 104.236C64.2022 103.025 62.8519 103.025 61.3451 104.236C60.5625 104.862 59.6297 104.832 59.0495 104.154C58.4694 103.476 58.5591 102.572 59.3125 101.875C60.4372 100.806 61.9342 100.216 63.4863 100.231Z" fill="#49A4FF"/>
<path d="M48.8779 100.108C50.4491 100.1 51.9616 100.704 53.0956 101.792C53.8281 102.481 53.8928 103.411 53.2834 104.077C52.674 104.743 51.8226 104.745 51.0462 104.135C49.479 102.883 48.2038 102.896 46.6198 104.15C45.8623 104.751 44.9733 104.716 44.3847 104.058C43.7962 103.401 43.8547 102.495 44.5496 101.831C45.1225 101.274 45.7996 100.835 46.5423 100.539C47.2849 100.243 48.0786 100.097 48.8779 100.108Z" fill="#49A4FF"/>
<path d="M44.1677 94.1829C44.1702 94.39 44.1311 94.5956 44.0525 94.7872C43.9739 94.9789 43.8575 95.1527 43.7103 95.2984C43.563 95.4441 43.388 95.5587 43.1955 95.6352C43.003 95.7117 42.7971 95.7487 42.59 95.7439C42.1854 95.7287 41.8017 95.5599 41.5172 95.2718C41.2326 94.9838 41.0685 94.5981 41.0582 94.1934C41.0669 93.7754 41.2393 93.3775 41.5382 93.0853C41.8371 92.793 42.2387 92.6296 42.6567 92.6303C43.0619 92.639 43.4475 92.8067 43.7302 93.0972C44.0128 93.3877 44.17 93.7776 44.1677 94.1829Z" fill="#49A4FF"/>
</svg>
