<svg width="159" height="185" viewBox="0 0 159 185" fill="none" xmlns="http://www.w3.org/2000/svg">
<path d="M0 41C0 22.1438 0 12.7157 5.85786 6.85786C11.7157 1 21.1438 1 40 1H119C137.856 1 147.284 1 153.142 6.85786C159 12.7157 159 22.1438 159 41V145C159 163.856 159 173.284 153.142 179.142C147.284 185 137.856 185 119 185H40C21.1438 185 11.7157 185 5.85786 179.142C0 173.284 0 163.856 0 145V41Z" fill="#E6FFE9"/>
<mask id="mask0_85_1198" style="mask-type:alpha" maskUnits="userSpaceOnUse" x="0" y="0" width="159" height="185">
<path d="M0 40C0 21.1438 0 11.7157 5.85786 5.85786C11.7157 0 21.1438 0 40 0H119C137.856 0 147.284 0 153.142 5.85786C159 11.7157 159 21.1438 159 40V145C159 163.856 159 173.284 153.142 179.142C147.284 185 137.856 185 119 185H40C21.1438 185 11.7157 185 5.85786 179.142C0 173.284 0 163.856 0 145V40Z" fill="#E6F2FF"/>
</mask>
<g mask="url(#mask0_85_1198)">
<path d="M168.707 37.348C170.515 35.3323 172.903 33.9271 175.543 33.3262C178.182 32.7253 180.943 32.9584 183.445 33.9933C185.947 35.0282 188.066 36.8139 189.509 39.1041C190.953 41.3942 191.651 44.0759 191.506 46.7793C191.411 48.6064 191.701 50.4331 192.356 52.1412C193.012 53.8493 194.018 55.401 195.311 56.6958C196.603 57.9906 198.153 58.9999 199.86 59.6583C201.567 60.3167 203.393 60.6097 205.221 60.5183C207.924 60.3734 210.606 61.0709 212.896 62.5147C215.186 63.9584 216.972 66.0773 218.007 68.5789C219.042 71.0806 219.275 73.8417 218.674 76.4815C218.073 79.1212 216.668 81.5094 214.652 83.3167C213.292 84.542 212.205 86.0392 211.461 87.7115C210.717 89.3837 210.332 91.1937 210.332 93.024C210.332 94.8543 210.717 96.6643 211.461 98.3365C212.205 100.009 213.292 101.506 214.652 102.731C216.668 104.539 218.073 106.927 218.674 109.567C219.275 112.206 219.042 114.967 218.007 117.469C216.972 119.971 215.186 122.09 212.896 123.533C210.606 124.977 207.924 125.675 205.221 125.53C203.396 125.435 201.571 125.725 199.865 126.379C198.158 127.033 196.608 128.037 195.313 129.327C194.019 130.617 193.009 132.164 192.349 133.868C191.689 135.572 191.394 137.395 191.482 139.221C191.627 141.924 190.929 144.606 189.485 146.896C188.042 149.186 185.923 150.972 183.421 152.007C180.919 153.042 178.158 153.275 175.519 152.674C172.879 152.073 170.491 150.668 168.683 148.652C167.458 147.292 165.961 146.205 164.289 145.461C162.616 144.717 160.806 144.332 158.976 144.332C157.146 144.332 155.336 144.717 153.663 145.461C151.991 146.205 150.494 147.292 149.269 148.652C147.461 150.668 145.073 152.073 142.433 152.674C139.794 153.275 137.033 153.042 134.531 152.007C132.029 150.972 129.91 149.186 128.467 146.896C127.023 144.606 126.325 141.924 126.47 139.221C126.565 137.396 126.275 135.571 125.621 133.865C124.967 132.158 123.963 130.608 122.673 129.313C121.383 128.019 119.836 127.009 118.132 126.349C116.428 125.689 114.605 125.394 112.779 125.482C110.076 125.627 107.394 124.929 105.104 123.485C102.814 122.042 101.028 119.923 99.9933 117.421C98.9584 114.919 98.7253 112.158 99.3262 109.519C99.9271 106.879 101.332 104.491 103.348 102.683C104.708 101.458 105.795 99.9608 106.539 98.2885C107.283 96.6163 107.668 94.8063 107.668 92.976C107.668 91.1457 107.283 89.3357 106.539 87.6635C105.795 85.9912 104.708 84.494 103.348 83.2687C101.332 81.4614 99.9271 79.0732 99.3262 76.4335C98.7253 73.7937 98.9584 71.0326 99.9933 68.531C101.028 66.0293 102.814 63.9104 105.104 62.4667C107.394 61.0229 110.076 60.3254 112.779 60.4703C114.604 60.5646 116.429 60.2755 118.135 59.6215C119.842 58.9674 121.392 57.9631 122.687 56.6732C123.981 55.3832 124.991 53.8363 125.651 52.1322C126.311 50.4281 126.606 48.6046 126.518 46.7793C126.373 44.0759 127.071 41.3942 128.515 39.1041C129.958 36.8139 132.077 35.0282 134.579 33.9933C137.081 32.9584 139.842 32.7253 142.481 33.3262C145.121 33.9271 147.509 35.3323 149.317 37.348C150.542 38.7038 152.038 39.7876 153.708 40.5293C155.378 41.2711 157.185 41.6544 159.012 41.6544C160.839 41.6544 162.646 41.2711 164.316 40.5293C165.986 39.7876 167.482 38.7038 168.707 37.348Z" fill="#D1FFD8"/>
</g>
<path d="M19.032 51V39.2H22.56C23.344 39.2 24.056 39.3413 24.696 39.624C25.336 39.9013 25.8853 40.2987 26.344 40.816C26.8027 41.3333 27.1573 41.9547 27.408 42.68C27.6587 43.4 27.784 44.2027 27.784 45.088C27.784 45.9733 27.6587 46.7787 27.408 47.504C27.1573 48.224 26.8027 48.8453 26.344 49.368C25.8853 49.8907 25.336 50.2933 24.696 50.576C24.056 50.8587 23.344 51 22.56 51H19.032ZM21.144 50.368L20.192 49.32H22.288C22.928 49.32 23.4987 49.1493 24 48.808C24.5067 48.4613 24.9067 47.9733 25.2 47.344C25.4933 46.7093 25.64 45.9573 25.64 45.088C25.64 44.2133 25.4933 43.4613 25.2 42.832C24.9067 42.2027 24.5067 41.72 24 41.384C23.4987 41.048 22.928 40.88 22.288 40.88H20.192L21.144 39.832V50.368ZM30.3244 47.432V45.936H36.2684L36.0284 46.336C36.0284 46.304 36.0284 46.2693 36.0284 46.232C36.0284 46.1893 36.0284 46.1547 36.0284 46.128C36.0284 45.76 35.9457 45.416 35.7804 45.096C35.615 44.7707 35.3644 44.5093 35.0284 44.312C34.6924 44.1093 34.2657 44.008 33.7484 44.008C33.2364 44.008 32.791 44.1173 32.4124 44.336C32.039 44.5493 31.7484 44.8587 31.5404 45.264C31.3377 45.6693 31.2364 46.1547 31.2364 46.72C31.2364 47.3013 31.335 47.8027 31.5324 48.224C31.7297 48.64 32.0177 48.96 32.3964 49.184C32.7804 49.4027 33.247 49.512 33.7964 49.512C34.1697 49.512 34.4924 49.4773 34.7644 49.408C35.0364 49.3387 35.2577 49.2453 35.4284 49.128C35.6044 49.0053 35.735 48.8747 35.8204 48.736C35.911 48.5973 35.9644 48.4587 35.9804 48.32H38.0764C38.0444 48.6773 37.9244 49.0267 37.7164 49.368C37.5137 49.704 37.2284 50.0107 36.8604 50.288C36.4924 50.56 36.0444 50.7787 35.5164 50.944C34.9937 51.104 34.3964 51.184 33.7244 51.184C32.8124 51.184 32.015 50.9973 31.3324 50.624C30.6497 50.2507 30.1164 49.7307 29.7324 49.064C29.3537 48.3973 29.1644 47.6347 29.1644 46.776C29.1644 45.896 29.3564 45.1253 29.7404 44.464C30.1297 43.8027 30.6684 43.288 31.3564 42.92C32.0444 42.5467 32.8337 42.36 33.7244 42.36C34.6417 42.36 35.4337 42.5467 36.1004 42.92C36.7724 43.2933 37.2897 43.8133 37.6524 44.48C38.015 45.1413 38.1964 45.912 38.1964 46.792C38.1964 46.904 38.1937 47.024 38.1884 47.152C38.183 47.28 38.175 47.3733 38.1644 47.432H30.3244ZM39.931 54.496V42.504H42.035V54.496H39.931ZM44.715 51.176C44.0537 51.176 43.4403 51.0053 42.875 50.664C42.315 50.3173 41.8617 49.8453 41.515 49.248C41.1737 48.6507 41.003 47.9787 41.003 47.232C41.003 47.2107 41.003 47.192 41.003 47.176C41.003 47.1547 41.003 47.136 41.003 47.12L42.043 47.096C42.043 47.1067 42.043 47.12 42.043 47.136C42.043 47.152 42.043 47.1653 42.043 47.176C42.043 47.592 42.147 47.9627 42.355 48.288C42.563 48.608 42.8323 48.8613 43.163 49.048C43.499 49.2293 43.8563 49.32 44.235 49.32C44.8483 49.32 45.371 49.1093 45.803 48.688C46.235 48.2667 46.451 47.6133 46.451 46.728C46.451 45.8373 46.235 45.1867 45.803 44.776C45.3763 44.36 44.8537 44.152 44.235 44.152C43.8617 44.152 43.507 44.2427 43.171 44.424C42.8403 44.6 42.5683 44.8453 42.355 45.16C42.147 45.4747 42.043 45.8427 42.043 46.264L41.003 46.216C41.003 45.464 41.1737 44.7973 41.515 44.216C41.8617 43.6347 42.315 43.1813 42.875 42.856C43.4403 42.5253 44.0537 42.36 44.715 42.36C45.403 42.36 46.043 42.528 46.635 42.864C47.2323 43.2 47.7123 43.6933 48.075 44.344C48.443 44.9947 48.627 45.7893 48.627 46.728C48.627 47.6933 48.4483 48.5067 48.091 49.168C47.7337 49.8293 47.259 50.3307 46.667 50.672C46.075 51.008 45.4243 51.176 44.715 51.176ZM50.3685 51V42.504H52.4725V45.328L51.9845 45.056C52.0378 44.688 52.1365 44.3413 52.2805 44.016C52.4245 43.6853 52.6165 43.3973 52.8565 43.152C53.0965 42.9013 53.3872 42.7067 53.7285 42.568C54.0698 42.4293 54.4592 42.36 54.8965 42.36C55.2432 42.36 55.5152 42.3867 55.7125 42.44C55.9152 42.488 56.0405 42.528 56.0885 42.56L55.7045 44.488C55.6512 44.4507 55.5418 44.4053 55.3765 44.352C55.2165 44.2933 55.0005 44.264 54.7285 44.264C54.2965 44.264 53.9338 44.3387 53.6405 44.488C53.3525 44.632 53.1232 44.8293 52.9525 45.08C52.7818 45.3253 52.6592 45.5973 52.5845 45.896C52.5098 46.1893 52.4725 46.4827 52.4725 46.776V51H50.3685ZM58.0431 47.432V45.936H63.9871L63.7471 46.336C63.7471 46.304 63.7471 46.2693 63.7471 46.232C63.7471 46.1893 63.7471 46.1547 63.7471 46.128C63.7471 45.76 63.6645 45.416 63.4991 45.096C63.3338 44.7707 63.0831 44.5093 62.7471 44.312C62.4111 44.1093 61.9845 44.008 61.4671 44.008C60.9551 44.008 60.5098 44.1173 60.1311 44.336C59.7578 44.5493 59.4671 44.8587 59.2591 45.264C59.0565 45.6693 58.9551 46.1547 58.9551 46.72C58.9551 47.3013 59.0538 47.8027 59.2511 48.224C59.4485 48.64 59.7365 48.96 60.1151 49.184C60.4991 49.4027 60.9658 49.512 61.5151 49.512C61.8885 49.512 62.2111 49.4773 62.4831 49.408C62.7551 49.3387 62.9765 49.2453 63.1471 49.128C63.3231 49.0053 63.4538 48.8747 63.5391 48.736C63.6298 48.5973 63.6831 48.4587 63.6991 48.32H65.7951C65.7631 48.6773 65.6431 49.0267 65.4351 49.368C65.2325 49.704 64.9471 50.0107 64.5791 50.288C64.2111 50.56 63.7631 50.7787 63.2351 50.944C62.7125 51.104 62.1151 51.184 61.4431 51.184C60.5311 51.184 59.7338 50.9973 59.0511 50.624C58.3685 50.2507 57.8351 49.7307 57.4511 49.064C57.0725 48.3973 56.8831 47.6347 56.8831 46.776C56.8831 45.896 57.0751 45.1253 57.4591 44.464C57.8485 43.8027 58.3871 43.288 59.0751 42.92C59.7631 42.5467 60.5525 42.36 61.4431 42.36C62.3605 42.36 63.1525 42.5467 63.8191 42.92C64.4911 43.2933 65.0085 43.8133 65.3711 44.48C65.7338 45.1413 65.9151 45.912 65.9151 46.792C65.9151 46.904 65.9125 47.024 65.9071 47.152C65.9018 47.28 65.8938 47.3733 65.8831 47.432H58.0431ZM71.0818 51.176C70.5751 51.176 70.0924 51.12 69.6338 51.008C69.1804 50.896 68.7751 50.728 68.4178 50.504C68.0658 50.28 67.7858 50.0027 67.5778 49.672C67.3751 49.336 67.2738 48.9493 67.2738 48.512C67.2738 48.48 67.2738 48.448 67.2738 48.416C67.2738 48.384 67.2738 48.3547 67.2738 48.328H69.3698C69.3698 48.3547 69.3698 48.3787 69.3698 48.4C69.3698 48.416 69.3698 48.44 69.3698 48.472C69.3698 48.8187 69.5271 49.08 69.8418 49.256C70.1618 49.4267 70.5964 49.512 71.1458 49.512C71.4444 49.512 71.7244 49.48 71.9858 49.416C72.2524 49.352 72.4658 49.2533 72.6258 49.12C72.7911 48.9867 72.8738 48.816 72.8738 48.608C72.8738 48.272 72.7004 48.032 72.3538 47.888C72.0124 47.744 71.4738 47.6133 70.7378 47.496C70.3324 47.4267 69.9324 47.3333 69.5378 47.216C69.1431 47.0987 68.7831 46.9413 68.4578 46.744C68.1378 46.5467 67.8791 46.3013 67.6818 46.008C67.4898 45.7147 67.3938 45.3573 67.3938 44.936C67.3938 44.376 67.5591 43.9067 67.8898 43.528C68.2258 43.144 68.6738 42.8533 69.2338 42.656C69.7991 42.4587 70.4204 42.36 71.0978 42.36C71.7484 42.36 72.3538 42.4667 72.9138 42.68C73.4738 42.8933 73.9244 43.2 74.2658 43.6C74.6124 44 74.7858 44.4827 74.7858 45.048C74.7858 45.0693 74.7858 45.0933 74.7858 45.12C74.7858 45.1413 74.7858 45.16 74.7858 45.176H72.7058C72.7058 45.16 72.7058 45.144 72.7058 45.128C72.7058 45.112 72.7058 45.0933 72.7058 45.072C72.7058 44.8267 72.6284 44.6267 72.4738 44.472C72.3191 44.3173 72.1191 44.2027 71.8738 44.128C71.6284 44.0533 71.3698 44.016 71.0978 44.016C70.8578 44.016 70.6098 44.0427 70.3538 44.096C70.0978 44.144 69.8844 44.232 69.7138 44.36C69.5431 44.4827 69.4578 44.656 69.4578 44.88C69.4578 45.0933 69.5458 45.2667 69.7218 45.4C69.8978 45.5333 70.1431 45.6453 70.4578 45.736C70.7724 45.8213 71.1351 45.8987 71.5458 45.968C71.9351 46.032 72.3271 46.12 72.7218 46.232C73.1218 46.344 73.4871 46.4933 73.8178 46.68C74.1484 46.8667 74.4151 47.112 74.6178 47.416C74.8258 47.7147 74.9298 48.0853 74.9298 48.528C74.9298 48.9973 74.8231 49.3973 74.6098 49.728C74.3964 50.0587 74.1058 50.3333 73.7378 50.552C73.3751 50.7653 72.9644 50.9227 72.5058 51.024C72.0471 51.1253 71.5724 51.176 71.0818 51.176ZM80.0974 51.176C79.5907 51.176 79.108 51.12 78.6494 51.008C78.196 50.896 77.7907 50.728 77.4334 50.504C77.0814 50.28 76.8014 50.0027 76.5934 49.672C76.3907 49.336 76.2894 48.9493 76.2894 48.512C76.2894 48.48 76.2894 48.448 76.2894 48.416C76.2894 48.384 76.2894 48.3547 76.2894 48.328H78.3854C78.3854 48.3547 78.3854 48.3787 78.3854 48.4C78.3854 48.416 78.3854 48.44 78.3854 48.472C78.3854 48.8187 78.5427 49.08 78.8574 49.256C79.1774 49.4267 79.612 49.512 80.1614 49.512C80.46 49.512 80.74 49.48 81.0014 49.416C81.268 49.352 81.4814 49.2533 81.6414 49.12C81.8067 48.9867 81.8894 48.816 81.8894 48.608C81.8894 48.272 81.716 48.032 81.3694 47.888C81.028 47.744 80.4894 47.6133 79.7534 47.496C79.348 47.4267 78.948 47.3333 78.5534 47.216C78.1587 47.0987 77.7987 46.9413 77.4734 46.744C77.1534 46.5467 76.8947 46.3013 76.6974 46.008C76.5054 45.7147 76.4094 45.3573 76.4094 44.936C76.4094 44.376 76.5747 43.9067 76.9054 43.528C77.2414 43.144 77.6894 42.8533 78.2494 42.656C78.8147 42.4587 79.436 42.36 80.1134 42.36C80.764 42.36 81.3694 42.4667 81.9294 42.68C82.4894 42.8933 82.94 43.2 83.2814 43.6C83.628 44 83.8014 44.4827 83.8014 45.048C83.8014 45.0693 83.8014 45.0933 83.8014 45.12C83.8014 45.1413 83.8014 45.16 83.8014 45.176H81.7214C81.7214 45.16 81.7214 45.144 81.7214 45.128C81.7214 45.112 81.7214 45.0933 81.7214 45.072C81.7214 44.8267 81.644 44.6267 81.4894 44.472C81.3347 44.3173 81.1347 44.2027 80.8894 44.128C80.644 44.0533 80.3854 44.016 80.1134 44.016C79.8734 44.016 79.6254 44.0427 79.3694 44.096C79.1134 44.144 78.9 44.232 78.7294 44.36C78.5587 44.4827 78.4734 44.656 78.4734 44.88C78.4734 45.0933 78.5614 45.2667 78.7374 45.4C78.9134 45.5333 79.1587 45.6453 79.4734 45.736C79.788 45.8213 80.1507 45.8987 80.5614 45.968C80.9507 46.032 81.3427 46.12 81.7374 46.232C82.1374 46.344 82.5027 46.4933 82.8334 46.68C83.164 46.8667 83.4307 47.112 83.6334 47.416C83.8414 47.7147 83.9454 48.0853 83.9454 48.528C83.9454 48.9973 83.8387 49.3973 83.6254 49.728C83.412 50.0587 83.1214 50.3333 82.7534 50.552C82.3907 50.7653 81.98 50.9227 81.5214 51.024C81.0627 51.1253 80.588 51.176 80.0974 51.176ZM85.641 51V42.504H87.721V51H85.641ZM86.689 40.936C86.3477 40.936 86.049 40.8453 85.793 40.664C85.5423 40.4773 85.417 40.2187 85.417 39.888C85.417 39.5627 85.5423 39.3093 85.793 39.128C86.049 38.9467 86.3477 38.856 86.689 38.856C87.025 38.856 87.3183 38.9467 87.569 39.128C87.8197 39.3093 87.945 39.5627 87.945 39.888C87.945 40.2187 87.8197 40.4773 87.569 40.664C87.3183 40.8453 87.025 40.936 86.689 40.936ZM93.982 51.168C93.086 51.168 92.2967 50.9813 91.614 50.608C90.9313 50.2293 90.3953 49.7067 90.006 49.04C89.622 48.3733 89.43 47.6107 89.43 46.752C89.43 45.888 89.622 45.128 90.006 44.472C90.3953 43.8107 90.9313 43.2933 91.614 42.92C92.2967 42.5467 93.086 42.36 93.982 42.36C94.878 42.36 95.6673 42.5467 96.35 42.92C97.0327 43.2933 97.566 43.8107 97.95 44.472C98.3393 45.128 98.534 45.888 98.534 46.752C98.534 47.6107 98.3393 48.3733 97.95 49.04C97.566 49.7067 97.0327 50.2293 96.35 50.608C95.6673 50.9813 94.878 51.168 93.982 51.168ZM93.982 49.448C94.4673 49.448 94.8913 49.336 95.254 49.112C95.6167 48.888 95.8993 48.576 96.102 48.176C96.3047 47.7707 96.406 47.296 96.406 46.752C96.406 46.208 96.3047 45.7387 96.102 45.344C95.8993 44.944 95.6167 44.6347 95.254 44.416C94.8913 44.1973 94.4673 44.088 93.982 44.088C93.502 44.088 93.078 44.1973 92.71 44.416C92.3473 44.6347 92.0647 44.944 91.862 45.344C91.6593 45.7387 91.558 46.208 91.558 46.752C91.558 47.296 91.6593 47.7707 91.862 48.176C92.0647 48.576 92.3473 48.888 92.71 49.112C93.078 49.336 93.502 49.448 93.982 49.448ZM106.283 51V47.232C106.283 47.0187 106.283 46.832 106.283 46.672C106.283 46.5067 106.283 46.3573 106.283 46.224C106.283 45.84 106.227 45.496 106.115 45.192C106.008 44.8827 105.821 44.64 105.555 44.464C105.293 44.288 104.931 44.2 104.467 44.2C104.061 44.2 103.701 44.2987 103.387 44.496C103.072 44.688 102.824 44.9547 102.643 45.296C102.467 45.632 102.379 46.0213 102.379 46.464L101.667 46.024C101.667 45.3147 101.827 44.6853 102.147 44.136C102.472 43.5813 102.907 43.1467 103.451 42.832C103.995 42.5173 104.597 42.36 105.259 42.36C105.941 42.36 106.515 42.4933 106.979 42.76C107.448 43.0267 107.8 43.4053 108.035 43.896C108.275 44.3867 108.395 44.9627 108.395 45.624C108.395 45.88 108.395 46.168 108.395 46.488C108.395 46.808 108.395 47.1227 108.395 47.432V51H106.283ZM100.275 51V42.504H102.379V51H100.275Z" fill="black"/>
<path d="M22.4915 30.13C21.9325 30.13 21.419 30.0195 20.951 29.7985C20.4873 29.5775 20.0822 29.2568 19.7355 28.8365C19.3932 28.4118 19.1267 27.894 18.936 27.283C18.7497 26.672 18.6565 25.9765 18.6565 25.1965C18.6565 24.4165 18.7497 23.7232 18.936 23.1165C19.1267 22.5055 19.3932 21.992 19.7355 21.576C20.0822 21.1557 20.4895 20.8372 20.9575 20.6205C21.4255 20.4038 21.9368 20.2955 22.4915 20.2955C23.0505 20.2955 23.564 20.4038 24.032 20.6205C24.5 20.8372 24.9052 21.1557 25.2475 21.576C25.5942 21.992 25.8607 22.5055 26.047 23.1165C26.2377 23.7232 26.333 24.4165 26.333 25.1965C26.333 25.9765 26.2377 26.672 26.047 27.283C25.8607 27.894 25.5942 28.4118 25.2475 28.8365C24.9052 29.2568 24.5 29.5775 24.032 29.7985C23.564 30.0195 23.0505 30.13 22.4915 30.13ZM22.4915 29.129C23.0245 29.129 23.4947 28.9838 23.902 28.6935C24.3093 28.4032 24.6278 27.9677 24.8575 27.387C25.0872 26.802 25.202 26.0718 25.202 25.1965C25.202 24.3168 25.085 23.5888 24.851 23.0125C24.6213 22.4362 24.3028 22.0072 23.8955 21.7255C23.4882 21.4438 23.0202 21.303 22.4915 21.303C21.9672 21.303 21.4992 21.4438 21.0875 21.7255C20.6802 22.0072 20.3595 22.4362 20.1255 23.0125C19.8958 23.5888 19.781 24.3168 19.781 25.1965C19.781 26.0762 19.8958 26.8085 20.1255 27.3935C20.3595 27.9742 20.6802 28.4097 21.0875 28.7C21.4992 28.986 21.9672 29.129 22.4915 29.129ZM33.5013 23.097L31.1873 30H29.7378L27.3718 23.097H28.5158L30.5503 29.415H30.3748L32.3573 23.097H33.5013ZM34.853 26.9905V26.0025H40.1895L39.9945 26.3275C39.9945 26.3015 39.9945 26.2777 39.9945 26.256C39.9945 26.23 39.9945 26.2062 39.9945 26.1845C39.9945 25.7858 39.91 25.4218 39.741 25.0925C39.5763 24.7588 39.3293 24.4923 39 24.293C38.6706 24.0937 38.2633 23.994 37.778 23.994C37.2883 23.994 36.8571 24.098 36.4845 24.306C36.1118 24.514 35.8215 24.8087 35.6135 25.19C35.4055 25.567 35.3015 26.0177 35.3015 26.542C35.3015 27.075 35.4011 27.5343 35.6005 27.92C35.8041 28.3057 36.0923 28.6025 36.465 28.8105C36.8376 29.0185 37.2796 29.1225 37.791 29.1225C38.155 29.1225 38.4713 29.0857 38.74 29.012C39.0086 28.934 39.2296 28.8322 39.403 28.7065C39.5806 28.5765 39.715 28.4357 39.806 28.284C39.897 28.1323 39.9511 27.9807 39.9685 27.829H41.0735C41.0518 28.1063 40.9651 28.3815 40.8135 28.6545C40.6618 28.9275 40.4473 29.1767 40.17 29.402C39.8926 29.623 39.5525 29.8007 39.1495 29.935C38.7465 30.0693 38.2828 30.1365 37.7585 30.1365C37.0651 30.1365 36.4541 29.9848 35.9255 29.6815C35.3968 29.3782 34.9808 28.9578 34.6775 28.4205C34.3785 27.8832 34.229 27.2657 34.229 26.568C34.229 25.8617 34.3806 25.242 34.684 24.709C34.9873 24.1717 35.4055 23.7513 35.9385 23.448C36.4715 23.1447 37.0803 22.993 37.765 22.993C38.4626 22.993 39.0671 23.1447 39.5785 23.448C40.0898 23.7513 40.4841 24.1673 40.7615 24.696C41.0388 25.2203 41.1775 25.8183 41.1775 26.49C41.1775 26.5593 41.1753 26.6503 41.171 26.763C41.1666 26.8757 41.1601 26.9515 41.1515 26.9905H34.853ZM42.8998 30V23.097H44.0048V25.216L43.6408 25.086C43.6668 24.8303 43.7318 24.579 43.8358 24.332C43.9398 24.0807 44.0828 23.8553 44.2648 23.656C44.4511 23.4523 44.6829 23.292 44.9603 23.175C45.2376 23.0537 45.5626 22.993 45.9353 22.993C46.2126 22.993 46.4379 23.0168 46.6113 23.0645C46.7889 23.1078 46.8994 23.1425 46.9428 23.1685L46.6568 24.254C46.6134 24.2237 46.5246 24.1847 46.3903 24.137C46.2603 24.0893 46.0739 24.0655 45.8313 24.0655C45.4716 24.0655 45.1726 24.1305 44.9343 24.2605C44.7003 24.3905 44.5139 24.5638 44.3753 24.7805C44.2409 24.9928 44.1456 25.2247 44.0893 25.476C44.0329 25.7273 44.0048 25.9765 44.0048 26.2235V30H42.8998ZM51.2793 30.13C50.6206 30.13 50.0226 29.987 49.4853 29.701C48.948 29.4107 48.5211 28.9968 48.2048 28.4595C47.8928 27.9222 47.7368 27.283 47.7368 26.542C47.7368 25.801 47.8928 25.1662 48.2048 24.6375C48.5211 24.1045 48.948 23.6972 49.4853 23.4155C50.0226 23.1338 50.6206 22.993 51.2793 22.993C51.782 22.993 52.2305 23.071 52.6248 23.227C53.0191 23.3787 53.3528 23.5823 53.6258 23.838C53.8988 24.0937 54.1068 24.3753 54.2498 24.683C54.3971 24.9863 54.4708 25.2897 54.4708 25.593C54.4708 25.5973 54.4708 25.6038 54.4708 25.6125C54.4708 25.6212 54.4708 25.6298 54.4708 25.6385H53.3723C53.3723 25.6168 53.3701 25.593 53.3658 25.567C53.3615 25.5367 53.3571 25.5063 53.3528 25.476C53.3181 25.1857 53.2076 24.9322 53.0213 24.7155C52.835 24.4945 52.5923 24.3212 52.2933 24.1955C51.9943 24.0698 51.6541 24.007 51.2728 24.007C50.8438 24.007 50.4451 24.1002 50.0768 24.2865C49.7128 24.4685 49.4181 24.748 49.1928 25.125C48.9718 25.4977 48.8613 25.97 48.8613 26.542C48.8613 27.1097 48.9718 27.5842 49.1928 27.9655C49.4138 28.3468 49.7063 28.635 50.0703 28.83C50.4386 29.0207 50.8395 29.116 51.2728 29.116C51.7408 29.116 52.1265 29.0423 52.4298 28.895C52.7331 28.7477 52.9606 28.5527 53.1123 28.31C53.2683 28.063 53.355 27.7987 53.3723 27.517H54.4708C54.4708 27.829 54.4015 28.141 54.2628 28.453C54.1241 28.7607 53.9205 29.0423 53.6518 29.298C53.3831 29.5493 53.0495 29.7508 52.6508 29.9025C52.2565 30.0542 51.7993 30.13 51.2793 30.13ZM59.4613 30.1235C58.7679 30.1235 58.1548 29.9697 57.6218 29.662C57.0931 29.35 56.6771 28.9253 56.3738 28.388C56.0748 27.8463 55.9253 27.231 55.9253 26.542C55.9253 25.853 56.0748 25.242 56.3738 24.709C56.6771 24.176 57.0931 23.7578 57.6218 23.4545C58.1548 23.1512 58.7679 22.9995 59.4613 22.9995C60.1546 22.9995 60.7656 23.1512 61.2943 23.4545C61.8273 23.7578 62.2433 24.176 62.5423 24.709C62.8456 25.242 62.9973 25.853 62.9973 26.542C62.9973 27.231 62.8456 27.8463 62.5423 28.388C62.2433 28.9253 61.8273 29.35 61.2943 29.662C60.7656 29.9697 60.1546 30.1235 59.4613 30.1235ZM59.4613 29.1095C59.9379 29.1095 60.3583 29.0033 60.7223 28.791C61.0863 28.5787 61.3701 28.2797 61.5738 27.894C61.7818 27.5083 61.8858 27.0577 61.8858 26.542C61.8858 26.0263 61.7818 25.58 61.5738 25.203C61.3701 24.8217 61.0863 24.5292 60.7223 24.3255C60.3583 24.1175 59.9379 24.0135 59.4613 24.0135C58.9889 24.0135 58.5686 24.1175 58.2003 24.3255C57.8363 24.5292 57.5503 24.8217 57.3423 25.203C57.1386 25.58 57.0368 26.0263 57.0368 26.542C57.0368 27.0577 57.1386 27.5083 57.3423 27.894C57.5503 28.2797 57.8363 28.5787 58.2003 28.791C58.5686 29.0033 58.9889 29.1095 59.4613 29.1095ZM68.9675 30V26.9515C68.9675 26.6828 68.9675 26.451 68.9675 26.256C68.9675 26.0567 68.9675 25.8898 68.9675 25.7555C68.9675 25.5865 68.9545 25.4045 68.9285 25.2095C68.9068 25.0102 68.8527 24.8238 68.766 24.6505C68.6793 24.4728 68.5428 24.3277 68.3565 24.215C68.1745 24.1023 67.921 24.046 67.596 24.046C67.2667 24.046 66.9893 24.111 66.764 24.241C66.5387 24.3667 66.3567 24.5335 66.218 24.7415C66.0793 24.9495 65.9797 25.1792 65.919 25.4305C65.8583 25.6775 65.828 25.9223 65.828 26.165L65.204 25.9115C65.204 25.3915 65.3123 24.9105 65.529 24.4685C65.7457 24.0265 66.049 23.6712 66.439 23.4025C66.8333 23.1295 67.2948 22.993 67.8235 22.993C68.3478 22.993 68.7747 23.0992 69.104 23.3115C69.4333 23.5238 69.676 23.8163 69.832 24.189C69.988 24.5617 70.066 24.9907 70.066 25.476C70.066 25.6493 70.066 25.8725 70.066 26.1455C70.066 26.4142 70.066 26.7218 70.066 27.0685V30H68.9675ZM64.723 30V23.097H65.828V30H64.723ZM73.199 30V26.9515C73.199 26.6568 73.199 26.4142 73.199 26.2235C73.199 26.0285 73.199 25.8638 73.199 25.7295C73.199 25.5605 73.1882 25.3785 73.1665 25.1835C73.1448 24.9885 73.0907 24.8065 73.004 24.6375C72.9173 24.4642 72.7787 24.3233 72.588 24.215C72.4017 24.1023 72.1395 24.046 71.8015 24.046C71.4678 24.046 71.1883 24.1088 70.963 24.2345C70.742 24.3602 70.5643 24.5248 70.43 24.7285C70.3 24.9322 70.2068 25.1532 70.1505 25.3915C70.0942 25.6255 70.066 25.8508 70.066 26.0675L69.442 25.827C69.442 25.333 69.546 24.8715 69.754 24.4425C69.9663 24.0092 70.2653 23.6603 70.651 23.396C71.041 23.1273 71.5025 22.993 72.0355 22.993C72.5338 22.993 72.9498 23.0905 73.2835 23.2855C73.6215 23.4805 73.875 23.7557 74.044 24.111C74.2173 24.462 74.304 24.8802 74.304 25.3655C74.304 25.5475 74.304 25.7728 74.304 26.0415C74.304 26.3102 74.304 26.6135 74.304 26.9515V30H73.199ZM76.29 30V23.097H77.382V30H76.29ZM76.8425 21.511C76.6388 21.511 76.4611 21.4547 76.3095 21.342C76.1621 21.225 76.0885 21.0668 76.0885 20.8675C76.0885 20.6725 76.1621 20.5187 76.3095 20.406C76.4611 20.289 76.6388 20.2305 76.8425 20.2305C77.0461 20.2305 77.2216 20.289 77.369 20.406C77.5163 20.5187 77.59 20.6725 77.59 20.8675C77.59 21.0668 77.5163 21.225 77.369 21.342C77.2216 21.4547 77.0461 21.511 76.8425 21.511ZM84.3769 30V26.6915C84.3769 26.4922 84.3769 26.3297 84.3769 26.204C84.3769 26.074 84.3769 25.9505 84.3769 25.8335C84.3769 25.4738 84.3162 25.1597 84.1949 24.891C84.0735 24.6223 83.8829 24.4143 83.6229 24.267C83.3629 24.1197 83.0227 24.046 82.6024 24.046C82.234 24.046 81.8917 24.1413 81.5754 24.332C81.2634 24.5183 81.012 24.7718 80.8214 25.0925C80.635 25.4088 80.5419 25.7642 80.5419 26.1585L79.9114 25.918C79.9114 25.3763 80.0435 24.8845 80.3079 24.4425C80.5765 24.0005 80.9319 23.6495 81.3739 23.3895C81.8202 23.1252 82.3055 22.993 82.8299 22.993C83.3629 22.993 83.8287 23.0948 84.2274 23.2985C84.626 23.5022 84.9337 23.7947 85.1504 24.176C85.3714 24.553 85.4819 25.008 85.4819 25.541C85.4819 25.7317 85.4819 25.9397 85.4819 26.165C85.4819 26.3903 85.4819 26.6005 85.4819 26.7955V30H84.3769ZM79.4369 30V23.097H80.5419V30H79.4369ZM91.8165 29.5775C92.1892 29.6078 92.5164 29.6772 92.798 29.7855C93.084 29.8895 93.3072 30.0433 93.4675 30.247C93.6279 30.455 93.708 30.7258 93.708 31.0595C93.708 31.4278 93.5824 31.7528 93.331 32.0345C93.0797 32.3205 92.6984 32.5437 92.187 32.704C91.6757 32.8643 91.0322 32.9445 90.2565 32.9445C89.1602 32.9445 88.3325 32.7842 87.7735 32.4635C87.2145 32.1472 86.935 31.7138 86.935 31.1635C86.935 30.9902 86.9545 30.8363 86.9935 30.702C87.0369 30.572 87.0845 30.4658 87.1365 30.3835L88.1895 30.5395C88.1549 30.5872 88.1202 30.6587 88.0855 30.754C88.0552 30.8537 88.04 30.9685 88.04 31.0985C88.04 31.4452 88.2372 31.6878 88.6315 31.8265C89.0259 31.9695 89.5849 32.041 90.3085 32.041C90.8502 32.041 91.2944 32.0042 91.641 31.9305C91.9877 31.8568 92.2455 31.7507 92.4145 31.612C92.5835 31.4733 92.668 31.3108 92.668 31.1245C92.668 30.8428 92.5489 30.6673 92.3105 30.598C92.0765 30.533 91.7862 30.4875 91.4395 30.4615L88.8135 30.2665C88.3759 30.2318 88.0184 30.0975 87.741 29.8635C87.468 29.6252 87.3315 29.337 87.3315 28.999C87.3315 28.791 87.3814 28.5938 87.481 28.4075C87.585 28.2212 87.7042 28.0652 87.8385 27.9395C87.9772 27.8095 88.1007 27.7315 88.209 27.7055L89.08 28.102C88.9717 28.1193 88.8374 28.1952 88.677 28.3295C88.521 28.4595 88.443 28.6133 88.443 28.791C88.443 28.9513 88.5059 29.0835 88.6315 29.1875C88.7572 29.2872 89.0064 29.3522 89.379 29.3825L91.8165 29.5775ZM92.772 23.097H93.812L93.383 25.814C93.305 26.321 93.1425 26.7803 92.8955 27.192C92.6485 27.5993 92.3105 27.9243 91.8815 28.167C91.4569 28.4053 90.9304 28.5245 90.302 28.5245C89.6477 28.5245 89.0887 28.4053 88.625 28.167C88.1614 27.9287 87.806 27.6037 87.559 27.192C87.312 26.776 87.1885 26.308 87.1885 25.788C87.1885 25.2593 87.3164 24.7848 87.572 24.3645C87.832 23.9398 88.1917 23.6062 88.651 23.3635C89.1104 23.1165 89.6369 22.993 90.2305 22.993C90.7635 22.993 91.2294 23.0862 91.628 23.2725C92.0267 23.4545 92.3409 23.6842 92.5705 23.9615C92.8045 24.2388 92.9345 24.5183 92.9605 24.8L92.5445 24.826L92.772 23.097ZM90.2955 27.5365C90.7159 27.5365 91.0755 27.4672 91.3745 27.3285C91.6779 27.1898 91.9097 26.9883 92.07 26.724C92.2347 26.4597 92.317 26.139 92.317 25.762C92.317 25.398 92.2347 25.0838 92.07 24.8195C91.9097 24.5508 91.6779 24.345 91.3745 24.202C91.0755 24.0547 90.718 23.981 90.302 23.981C89.9034 23.981 89.5502 24.0568 89.2425 24.2085C88.9392 24.3558 88.7009 24.5638 88.5275 24.8325C88.3585 25.1012 88.274 25.4175 88.274 25.7815C88.274 26.1498 88.3542 26.4662 88.5145 26.7305C88.6792 26.9905 88.911 27.1898 89.21 27.3285C89.5134 27.4672 89.8752 27.5365 90.2955 27.5365Z" fill="black"/>
<path d="M33.2761 167C32.1362 166.752 30.9796 166.582 29.8606 166.244C21.0317 163.53 16.1005 154.344 18.6872 145.428C19.6788 142.006 20.7457 138.607 21.7874 135.198C22.1423 134.039 22.9169 133.549 23.8563 133.849C24.7958 134.15 25.109 134.975 24.7603 136.146C24.1062 138.311 23.4499 140.476 22.7916 142.639C22.7248 142.858 22.6726 143.079 22.5995 143.357L25.4597 144.659C27.2113 145.459 28.9524 146.277 30.7124 147.054C33.0402 148.081 35.4348 147.263 36.6602 145.046C37.2239 144.025 37.7458 142.985 38.2991 141.931C35.727 140.302 33.9379 138.108 33.228 135.198C32.393 131.814 31.7228 128.392 31.0067 124.983C30.9638 124.784 30.9613 124.579 30.9995 124.38C31.0377 124.181 31.1158 123.991 31.2291 123.823C31.3423 123.654 31.4885 123.51 31.6587 123.4C31.8289 123.289 32.0197 123.214 32.2197 123.179C33.0777 122.993 33.8523 123.488 34.061 124.432C34.7061 127.354 35.3533 130.277 35.94 133.2C36.6581 136.801 38.654 139.211 42.2574 140.16C43.7307 140.542 45.2844 140.478 46.7209 139.975C53.1065 137.852 59.4921 135.724 65.8777 133.59C65.9988 133.551 66.1157 133.499 66.3328 133.413L64.5165 129.148L60.4204 130.192L45.7731 133.991C44.1864 134.409 43.5476 134.014 43.2115 132.421C42.8169 130.542 42.439 128.651 42.0569 126.766C42.0128 126.559 41.9835 126.35 41.9693 126.139C41.9481 125.764 42.0647 125.394 42.2971 125.098C42.5296 124.802 42.8619 124.601 43.2318 124.533C43.6018 124.465 43.9838 124.534 44.3064 124.728C44.629 124.921 44.8699 125.226 44.9839 125.584C45.0862 125.906 45.1259 126.246 45.1927 126.576C45.2595 126.872 45.3347 127.167 45.4202 127.511C47.3472 124.142 48.0883 120.78 46.1468 117.352C44.3242 119.914 41.8941 120.997 38.8836 119.916C36.0172 118.903 34.8272 116.607 34.9629 113.513C34.7041 113.622 34.4911 113.69 34.297 113.793C33.2776 114.324 32.3739 115.053 31.6382 115.936C30.9025 116.82 30.3493 117.84 30.0109 118.939C29.6643 120.002 29.3679 121.081 29.0318 122.146C28.7082 123.162 27.9023 123.638 27.0088 123.369C26.1152 123.1 25.7457 122.252 26.0547 121.215C26.443 119.92 26.7749 118.601 27.2718 117.348C28.8418 113.381 31.7291 110.901 35.8878 109.937C36.137 109.895 36.3731 109.796 36.5772 109.647C36.7813 109.498 36.9477 109.303 37.0632 109.079C38.5941 106.361 40.1537 103.656 41.7417 100.964C41.8726 100.777 41.9529 100.559 41.9748 100.332C41.9968 100.105 41.9596 99.8759 41.867 99.6673C40.9928 97.4659 40.9963 95.013 41.8766 92.814C42.7569 90.615 44.447 88.8373 46.5988 87.8472C48.7506 86.857 51.2002 86.7298 53.443 87.4918C55.6857 88.2538 57.5509 89.8468 58.6542 91.9428C58.9966 92.5921 59.3327 92.8907 60.1156 93.0034C63.6647 93.5044 66.2388 96.8343 65.9946 100.496C65.8025 103.35 64.4559 105.461 61.8881 106.776C61.6685 106.896 61.4864 107.075 61.362 107.292C60.3682 109.031 59.4621 110.822 58.3995 112.511C56.6792 115.258 54.1469 116.797 50.9213 117.175L49.7648 117.317C49.7418 117.317 49.723 117.346 49.8253 117.271C50.0779 119.127 50.3201 120.91 50.5643 122.709C52.0345 121.885 53.6553 121.364 55.3306 121.177C59.2972 120.759 62.6605 122.027 65.4079 124.897C65.79 125.294 66.0635 125.359 66.5269 125.125C67.8693 124.453 69.266 124.158 70.7587 124.572C71.8153 124.856 72.7614 125.452 73.473 126.283C74.1846 127.114 74.6284 128.141 74.7462 129.229C74.864 130.317 74.6504 131.415 74.1333 132.379C73.6162 133.343 72.8198 134.129 71.8485 134.632C71.4602 134.841 71.0531 135.006 70.5687 135.229C70.6648 135.499 70.7462 135.76 70.8506 136.012C73.4519 142.252 76.0511 148.492 78.6482 154.733C78.7285 154.959 78.8655 155.16 79.046 155.318C79.2266 155.476 79.4447 155.585 79.6795 155.635C82.1542 156.336 84.3385 157.812 85.9113 159.848C88.0366 162.549 87.0533 165.789 83.786 166.868C83.7195 166.902 83.6589 166.947 83.6065 167H68.7504C68.6355 166.944 68.517 166.896 68.3954 166.856C65.5207 166.111 63.8839 163.484 64.5353 160.593C64.79 159.455 65.1762 158.344 65.4267 157.202C65.5159 156.789 65.4743 156.358 65.3077 155.969C63.9277 153.113 62.5039 150.28 61.0906 147.44C59.8776 145 58.6709 142.568 57.3911 140.012C57.2325 140.353 57.1197 140.576 57.0216 140.808C54.7857 146.098 52.5769 151.399 50.3076 156.674C48.2971 161.351 44.8545 164.534 40.0214 166.15C38.8523 166.543 37.6101 166.722 36.4014 167H33.2761ZM21.6642 146.392C20.9774 148.66 20.9139 151.071 21.4805 153.371C22.1583 156.19 23.7115 158.721 25.9173 160.602C28.1231 162.483 30.8681 163.617 33.7583 163.841C39.6039 164.338 45.0716 160.971 47.4808 155.353C49.4286 150.814 51.3305 146.257 53.2491 141.705C53.3209 141.5 53.3822 141.291 53.4328 141.079C51.579 141.695 49.8274 142.269 48.0821 142.86C46.0173 143.557 43.9213 143.789 41.7835 143.277C41.3012 143.163 41.0903 143.336 40.8878 143.745C40.3931 144.747 39.8753 145.741 39.3221 146.712C38.7998 147.677 38.0703 148.514 37.1859 149.164C36.3016 149.814 35.2843 150.26 34.2072 150.47C32.536 150.812 30.7984 150.592 29.2656 149.843C26.7666 148.695 24.2572 147.57 21.6642 146.392ZM50.4975 90.114C49.2585 90.1081 48.0467 90.4771 47.0212 91.1725C45.9957 91.8679 45.2045 92.8572 44.7515 94.0104C44.2985 95.1637 44.2049 96.427 44.4829 97.6344C44.761 98.8419 45.3978 99.937 46.3096 100.776C47.2196 101.624 48.3664 102.175 49.5973 102.354C50.8281 102.534 52.0845 102.335 53.199 101.782C54.7961 100.997 55.1594 101.097 56.1406 102.536C56.7669 103.459 57.6145 104.077 58.7544 104.193C60.2868 104.348 61.4559 103.713 62.2325 102.425C63.1407 100.918 63.1428 99.3458 62.2325 97.8323C61.4413 96.5149 60.2388 95.897 58.6834 96.0535C57.1657 96.2059 56.8045 95.9742 56.387 94.5274C56.0041 93.26 55.2262 92.148 54.1666 91.3541C53.1071 90.5601 51.8215 90.1256 50.4975 90.114ZM75.4289 155.121L67.5938 136.346L60.2868 138.789C62.9611 144.165 65.5958 149.465 68.2472 154.758C68.3014 154.85 68.3757 154.93 68.4645 154.99C68.5534 155.051 68.6546 155.09 68.7608 155.106C70.932 155.129 73.1157 155.121 75.4289 155.121ZM57.8922 107.254C56.4972 106.927 55.2242 106.209 54.222 105.185C54.0696 105.029 53.6583 105.01 53.4141 105.083C51.7683 105.607 50.0117 105.679 48.3284 105.292C46.7844 104.908 45.3575 104.152 44.1718 103.091C41.9442 106.325 42.677 110.607 45.8002 112.828C47.2855 113.901 49.1354 114.341 50.9448 114.053C52.7542 113.765 54.3755 112.771 55.4538 111.29C56.3431 110.043 57.0425 108.674 57.8922 107.254ZM76.1095 163.873C78.2431 163.873 80.381 163.906 82.5125 163.845C82.9813 163.797 83.4159 163.578 83.7338 163.23C84.1159 162.812 83.8507 162.303 83.525 161.887C82.0636 160.008 80.1847 158.632 77.7964 158.44C74.7943 158.196 71.7671 158.29 68.7483 158.269C68.5896 158.269 68.3453 158.541 68.2827 158.733C68.0384 159.474 67.8464 160.23 67.6564 160.983C67.2054 162.701 68.0948 163.866 69.8652 163.873C71.9424 163.879 74.026 163.873 76.1095 163.873ZM62.5352 126.419C60.22 124.553 57.7836 123.843 55.055 124.367C51.746 124.993 49.5038 126.987 48.0925 130.158L62.5352 126.419ZM40.1363 109.979C39.4828 111.12 38.821 112.045 38.4139 113.07C38.1626 113.767 38.1113 114.52 38.2657 115.244C38.5099 116.379 39.5955 117.123 40.7313 117.171C42.0987 117.24 43.0277 116.613 43.6958 115.164C42.0256 113.862 40.8628 112.177 40.1363 109.979ZM69.2702 132.329C70.4873 131.912 71.4894 131.403 71.6168 130.033C71.6789 129.591 71.6022 129.14 71.3972 128.743C71.1923 128.347 70.8693 128.023 70.4727 127.818C69.4122 127.215 68.4455 127.576 67.4894 128.169C68.0865 129.567 68.6668 130.922 69.2702 132.329Z" fill="#52C964"/>
<path d="M27.0004 128.565C26.998 128.97 26.8394 129.358 26.5578 129.649C26.2762 129.939 25.8932 130.11 25.4889 130.125C25.2821 130.134 25.0756 130.102 24.8818 130.029C24.6879 129.957 24.5109 129.845 24.3613 129.702C24.2118 129.559 24.0929 129.387 24.0118 129.197C23.9307 129.006 23.8892 128.801 23.8897 128.594C23.8865 128.19 24.0402 127.799 24.3184 127.505C24.5966 127.211 24.9779 127.036 25.3824 127.016C25.8009 127.012 26.2044 127.172 26.5068 127.461C26.8091 127.751 26.9862 128.147 27.0004 128.565Z" fill="#52C964"/>
</svg>
