<svg width="159" height="185" viewBox="0 0 159 185" fill="none" xmlns="http://www.w3.org/2000/svg">
<path d="M0 41C0 22.1438 0 12.7157 5.85786 6.85786C11.7157 1 21.1438 1 40 1H119C137.856 1 147.284 1 153.142 6.85786C159 12.7157 159 22.1438 159 41V145C159 163.856 159 173.284 153.142 179.142C147.284 185 137.856 185 119 185H40C21.1438 185 11.7157 185 5.85786 179.142C0 173.284 0 163.856 0 145V41Z" fill="#FFE6EE"/>
<mask id="mask0_85_1241" style="mask-type:alpha" maskUnits="userSpaceOnUse" x="0" y="0" width="159" height="185">
<path d="M0 40C0 21.1438 0 11.7157 5.85786 5.85786C11.7157 0 21.1438 0 40 0H119C137.856 0 147.284 0 153.142 5.85786C159 11.7157 159 21.1438 159 40V145C159 163.856 159 173.284 153.142 179.142C147.284 185 137.856 185 119 185H40C21.1438 185 11.7157 185 5.85786 179.142C0 173.284 0 163.856 0 145V40Z" fill="#E6F2FF"/>
</mask>
<g mask="url(#mask0_85_1241)">
<path d="M168.707 37.348C170.515 35.3323 172.903 33.9271 175.543 33.3262C178.182 32.7253 180.943 32.9584 183.445 33.9933C185.947 35.0282 188.066 36.8139 189.509 39.1041C190.953 41.3942 191.651 44.0759 191.506 46.7793C191.411 48.6064 191.701 50.4331 192.356 52.1412C193.012 53.8493 194.018 55.401 195.311 56.6958C196.603 57.9906 198.153 58.9999 199.86 59.6583C201.567 60.3167 203.393 60.6097 205.221 60.5183C207.924 60.3734 210.606 61.0709 212.896 62.5147C215.186 63.9584 216.972 66.0773 218.007 68.5789C219.042 71.0806 219.275 73.8417 218.674 76.4815C218.073 79.1212 216.668 81.5094 214.652 83.3167C213.292 84.542 212.205 86.0392 211.461 87.7115C210.717 89.3837 210.332 91.1937 210.332 93.024C210.332 94.8543 210.717 96.6643 211.461 98.3365C212.205 100.009 213.292 101.506 214.652 102.731C216.668 104.539 218.073 106.927 218.674 109.567C219.275 112.206 219.042 114.967 218.007 117.469C216.972 119.971 215.186 122.09 212.896 123.533C210.606 124.977 207.924 125.675 205.221 125.53C203.396 125.435 201.571 125.725 199.865 126.379C198.158 127.033 196.608 128.037 195.313 129.327C194.019 130.617 193.009 132.164 192.349 133.868C191.689 135.572 191.394 137.395 191.482 139.221C191.627 141.924 190.929 144.606 189.485 146.896C188.042 149.186 185.923 150.972 183.421 152.007C180.919 153.042 178.158 153.275 175.519 152.674C172.879 152.073 170.491 150.668 168.683 148.652C167.458 147.292 165.961 146.205 164.289 145.461C162.616 144.717 160.806 144.332 158.976 144.332C157.146 144.332 155.336 144.717 153.663 145.461C151.991 146.205 150.494 147.292 149.269 148.652C147.461 150.668 145.073 152.073 142.433 152.674C139.794 153.275 137.033 153.042 134.531 152.007C132.029 150.972 129.91 149.186 128.467 146.896C127.023 144.606 126.325 141.924 126.47 139.221C126.565 137.396 126.275 135.571 125.621 133.865C124.967 132.158 123.963 130.608 122.673 129.313C121.383 128.019 119.836 127.009 118.132 126.349C116.428 125.689 114.605 125.394 112.779 125.482C110.076 125.627 107.394 124.929 105.104 123.485C102.814 122.042 101.028 119.923 99.9933 117.421C98.9584 114.919 98.7253 112.158 99.3262 109.519C99.9271 106.879 101.332 104.491 103.348 102.683C104.708 101.458 105.795 99.9608 106.539 98.2885C107.283 96.6163 107.668 94.8063 107.668 92.976C107.668 91.1457 107.283 89.3357 106.539 87.6635C105.795 85.9912 104.708 84.494 103.348 83.2687C101.332 81.4614 99.9271 79.0732 99.3262 76.4335C98.7253 73.7937 98.9584 71.0326 99.9933 68.531C101.028 66.0293 102.814 63.9104 105.104 62.4667C107.394 61.0229 110.076 60.3254 112.779 60.4703C114.604 60.5646 116.429 60.2755 118.135 59.6215C119.842 58.9674 121.392 57.9631 122.687 56.6732C123.981 55.3832 124.991 53.8363 125.651 52.1322C126.311 50.4281 126.606 48.6046 126.518 46.7793C126.373 44.0759 127.071 41.3942 128.515 39.1041C129.958 36.8139 132.077 35.0282 134.579 33.9933C137.081 32.9584 139.842 32.7253 142.481 33.3262C145.121 33.9271 147.509 35.3323 149.317 37.348C150.542 38.7038 152.038 39.7876 153.708 40.5293C155.378 41.2711 157.185 41.6544 159.012 41.6544C160.839 41.6544 162.646 41.2711 164.316 40.5293C165.986 39.7876 167.482 38.7038 168.707 37.348Z" fill="#FFD9E6"/>
</g>
<path d="M22.88 30.176C22.0427 30.176 21.312 30.0427 20.688 29.776C20.064 29.5093 19.5787 29.1093 19.232 28.576C18.8853 28.0373 18.712 27.3707 18.712 26.576C18.712 26.4853 18.712 26.4053 18.712 26.336C18.712 26.2613 18.712 26.1787 18.712 26.088H20.816C20.816 26.168 20.816 26.2427 20.816 26.312C20.816 26.376 20.816 26.4507 20.816 26.536C20.816 27.176 20.9893 27.656 21.336 27.976C21.688 28.2907 22.2053 28.448 22.888 28.448C23.576 28.448 24.1013 28.3333 24.464 28.104C24.832 27.8747 25.016 27.5067 25.016 27C25.016 26.632 24.8907 26.32 24.64 26.064C24.3947 25.8027 24.056 25.5733 23.624 25.376C23.192 25.1787 22.7013 24.9947 22.152 24.824C21.5333 24.632 20.9707 24.384 20.464 24.08C19.9573 23.776 19.552 23.392 19.248 22.928C18.944 22.464 18.792 21.8933 18.792 21.216C18.792 20.5387 18.9653 19.9627 19.312 19.488C19.664 19.0133 20.144 18.6533 20.752 18.408C21.3653 18.1573 22.0613 18.032 22.84 18.032C23.656 18.032 24.3733 18.16 24.992 18.416C25.616 18.672 26.104 19.0533 26.456 19.56C26.808 20.0667 26.984 20.6987 26.984 21.456C26.984 21.5573 26.984 21.6453 26.984 21.72C26.984 21.7947 26.984 21.88 26.984 21.976H24.872C24.872 21.9067 24.872 21.8373 24.872 21.768C24.872 21.6933 24.872 21.6213 24.872 21.552C24.872 20.944 24.7067 20.496 24.376 20.208C24.0453 19.9147 23.544 19.768 22.872 19.768C22.216 19.768 21.712 19.8827 21.36 20.112C21.008 20.3413 20.832 20.7067 20.832 21.208C20.832 21.5813 20.952 21.8933 21.192 22.144C21.432 22.3947 21.76 22.6133 22.176 22.8C22.5973 22.9813 23.0747 23.1653 23.608 23.352C24.3173 23.5867 24.9307 23.8533 25.448 24.152C25.9653 24.4453 26.3653 24.8133 26.648 25.256C26.9307 25.6933 27.072 26.2507 27.072 26.928C27.072 27.6213 26.896 28.2107 26.544 28.696C26.1973 29.176 25.7093 29.544 25.08 29.8C24.456 30.0507 23.7227 30.176 22.88 30.176ZM31.0293 17.496V30H28.9572V17.496H31.0293ZM33.965 26.432V24.936H39.909L39.669 25.336C39.669 25.304 39.669 25.2693 39.669 25.232C39.669 25.1893 39.669 25.1547 39.669 25.128C39.669 24.76 39.5863 24.416 39.421 24.096C39.2557 23.7707 39.005 23.5093 38.669 23.312C38.333 23.1093 37.9063 23.008 37.389 23.008C36.877 23.008 36.4317 23.1173 36.053 23.336C35.6797 23.5493 35.389 23.8587 35.181 24.264C34.9783 24.6693 34.877 25.1547 34.877 25.72C34.877 26.3013 34.9757 26.8027 35.173 27.224C35.3703 27.64 35.6583 27.96 36.037 28.184C36.421 28.4027 36.8877 28.512 37.437 28.512C37.8103 28.512 38.133 28.4773 38.405 28.408C38.677 28.3387 38.8983 28.2453 39.069 28.128C39.245 28.0053 39.3757 27.8747 39.461 27.736C39.5517 27.5973 39.605 27.4587 39.621 27.32H41.717C41.685 27.6773 41.565 28.0267 41.357 28.368C41.1543 28.704 40.869 29.0107 40.501 29.288C40.133 29.56 39.685 29.7787 39.157 29.944C38.6343 30.104 38.037 30.184 37.365 30.184C36.453 30.184 35.6557 29.9973 34.973 29.624C34.2903 29.2507 33.757 28.7307 33.373 28.064C32.9943 27.3973 32.805 26.6347 32.805 25.776C32.805 24.896 32.997 24.1253 33.381 23.464C33.7703 22.8027 34.309 22.288 34.997 21.92C35.685 21.5467 36.4743 21.36 37.365 21.36C38.2823 21.36 39.0743 21.5467 39.741 21.92C40.413 22.2933 40.9303 22.8133 41.293 23.48C41.6557 24.1413 41.837 24.912 41.837 25.792C41.837 25.904 41.8343 26.024 41.829 26.152C41.8237 26.28 41.8157 26.3733 41.805 26.432H33.965ZM44.3556 26.432V24.936H50.2996L50.0596 25.336C50.0596 25.304 50.0596 25.2693 50.0596 25.232C50.0596 25.1893 50.0596 25.1547 50.0596 25.128C50.0596 24.76 49.977 24.416 49.8116 24.096C49.6463 23.7707 49.3956 23.5093 49.0596 23.312C48.7236 23.1093 48.297 23.008 47.7796 23.008C47.2676 23.008 46.8223 23.1173 46.4436 23.336C46.0703 23.5493 45.7796 23.8587 45.5716 24.264C45.369 24.6693 45.2676 25.1547 45.2676 25.72C45.2676 26.3013 45.3663 26.8027 45.5636 27.224C45.761 27.64 46.049 27.96 46.4276 28.184C46.8116 28.4027 47.2783 28.512 47.8276 28.512C48.201 28.512 48.5236 28.4773 48.7956 28.408C49.0676 28.3387 49.289 28.2453 49.4596 28.128C49.6356 28.0053 49.7663 27.8747 49.8516 27.736C49.9423 27.5973 49.9956 27.4587 50.0116 27.32H52.1076C52.0756 27.6773 51.9556 28.0267 51.7476 28.368C51.545 28.704 51.2596 29.0107 50.8916 29.288C50.5236 29.56 50.0756 29.7787 49.5476 29.944C49.025 30.104 48.4276 30.184 47.7556 30.184C46.8436 30.184 46.0463 29.9973 45.3636 29.624C44.681 29.2507 44.1476 28.7307 43.7636 28.064C43.385 27.3973 43.1956 26.6347 43.1956 25.776C43.1956 24.896 43.3876 24.1253 43.7716 23.464C44.161 22.8027 44.6996 22.288 45.3876 21.92C46.0756 21.5467 46.865 21.36 47.7556 21.36C48.673 21.36 49.465 21.5467 50.1316 21.92C50.8036 22.2933 51.321 22.8133 51.6836 23.48C52.0463 24.1413 52.2276 24.912 52.2276 25.792C52.2276 25.904 52.225 26.024 52.2196 26.152C52.2143 26.28 52.2063 26.3733 52.1956 26.432H44.3556ZM53.9622 33.496V21.504H56.0663V33.496H53.9622ZM58.7463 30.176C58.0849 30.176 57.4716 30.0053 56.9062 29.664C56.3463 29.3173 55.8929 28.8453 55.5463 28.248C55.2049 27.6507 55.0343 26.9787 55.0343 26.232C55.0343 26.2107 55.0343 26.192 55.0343 26.176C55.0343 26.1547 55.0343 26.136 55.0343 26.12L56.0743 26.096C56.0743 26.1067 56.0743 26.12 56.0743 26.136C56.0743 26.152 56.0743 26.1653 56.0743 26.176C56.0743 26.592 56.1783 26.9627 56.3863 27.288C56.5943 27.608 56.8636 27.8613 57.1943 28.048C57.5303 28.2293 57.8876 28.32 58.2663 28.32C58.8796 28.32 59.4023 28.1093 59.8343 27.688C60.2663 27.2667 60.4823 26.6133 60.4823 25.728C60.4823 24.8373 60.2663 24.1867 59.8343 23.776C59.4076 23.36 58.8849 23.152 58.2663 23.152C57.8929 23.152 57.5383 23.2427 57.2023 23.424C56.8716 23.6 56.5996 23.8453 56.3863 24.16C56.1783 24.4747 56.0743 24.8427 56.0743 25.264L55.0343 25.216C55.0343 24.464 55.2049 23.7973 55.5463 23.216C55.8929 22.6347 56.3463 22.1813 56.9062 21.856C57.4716 21.5253 58.0849 21.36 58.7463 21.36C59.4343 21.36 60.0743 21.528 60.6663 21.864C61.2636 22.2 61.7436 22.6933 62.1063 23.344C62.4743 23.9947 62.6583 24.7893 62.6583 25.728C62.6583 26.6933 62.4796 27.5067 62.1223 28.168C61.7649 28.8293 61.2903 29.3307 60.6983 29.672C60.1063 30.008 59.4556 30.176 58.7463 30.176Z" fill="black"/>
<path d="M28.1251 167C27.0149 166.307 26.8083 165.879 27.1631 164.608C28.8931 158.398 32.95 154.681 39.267 153.406C39.6217 153.335 39.9828 153.279 40.2186 153.237L29.8051 148.834C29.6193 149.107 29.346 149.543 29.0413 149.956C27.4928 152.043 25.3892 152.891 22.8746 152.39C20.3599 151.889 18.7008 150.261 18.1645 147.742C17.6177 145.192 18.4817 143.078 20.5852 141.507C21.0571 141.138 21.5622 140.815 22.0941 140.54C22.7201 140.234 22.837 139.871 22.6533 139.192C21.5332 135.013 21.0291 130.692 21.157 126.366C21.2273 122.72 21.7424 119.096 22.6909 115.575C22.8266 115.081 22.7452 114.824 22.3048 114.578C21.7126 114.25 21.1424 113.884 20.5978 113.482C18.4692 111.896 17.5927 109.755 18.177 107.18C18.7425 104.675 20.3933 103.064 22.9351 102.589C25.4769 102.113 27.5408 102.989 29.0768 105.076C29.3668 105.471 29.6235 105.89 29.8447 106.218C32.2071 105.174 34.4692 104.047 36.8149 103.135C41.526 101.3 46.4994 100.226 51.5482 99.9549C51.8041 99.9634 52.0566 99.8953 52.2734 99.7592C52.4902 99.6231 52.6614 99.4252 52.7649 99.1911C53.2803 98.2124 53.8688 97.2712 54.5158 96.1589H52.6584C51.9573 96.1589 51.3687 95.9356 51.0536 95.2636C50.7573 94.6375 50.9076 94.0595 51.2936 93.5044C52.5854 91.645 53.8584 89.773 55.1502 87.9136C55.8096 86.9662 56.6882 86.7492 57.4833 87.3084C58.2784 87.8677 58.3514 88.7505 57.692 89.7146C56.9783 90.758 56.2541 91.814 55.4152 93.0369C56.06 93.0369 56.5588 93.0265 57.0555 93.0369C58.5622 93.0787 59.2279 94.2515 58.4787 95.5662C57.6941 96.9415 56.8865 98.3042 56.0037 99.8172C64.5015 100.086 72.3961 102.217 79.7711 106.33C80.0862 105.863 80.3575 105.42 80.6664 105.009C82.2044 102.966 84.2621 102.111 86.7622 102.586C89.3081 103.073 90.9505 104.673 91.5182 107.178C92.092 109.717 91.249 111.85 89.1516 113.438C88.5527 113.891 87.8703 114.237 87.2735 114.69C87.176 114.784 87.1008 114.898 87.0535 115.024C87.0062 115.151 86.9879 115.286 87.0001 115.421C87.2714 116.85 87.6115 118.267 87.8974 119.695C87.9916 120.073 88.0051 120.467 87.9371 120.851C87.8717 121.175 87.6963 121.466 87.4408 121.676C87.1852 121.885 86.8652 122 86.5347 122.001C86.1799 122.035 85.8248 121.939 85.5361 121.73C85.2475 121.521 85.0452 121.213 84.9674 120.865C84.4457 118.745 83.9504 116.62 83.4816 114.49C83.3251 113.774 83.6903 113.238 84.2997 112.854C85.2221 112.267 86.1507 111.691 87.0648 111.093C88.248 110.318 88.7572 109.194 88.5047 107.975C88.2522 106.756 87.3486 105.813 86.1799 105.627C84.836 105.418 83.7821 105.898 83.0496 107.052L81.9164 108.83C81.0817 110.143 80.4097 110.316 79.0783 109.536C74.8238 107.003 70.1894 105.171 65.3529 104.11C53.249 101.505 41.7907 103.245 30.9779 109.327C30.7525 109.454 30.5313 109.592 30.3017 109.715C29.3668 110.216 28.5884 110.039 28.0062 109.166C27.545 108.476 27.1192 107.758 26.6622 107.061C25.8838 105.877 24.7089 105.356 23.461 105.623C22.8865 105.755 22.3636 106.053 21.9575 106.48C21.5515 106.907 21.2803 107.444 21.1779 108.025C20.9526 109.198 21.4784 110.333 22.6137 111.076C23.4485 111.616 24.2832 112.132 25.118 112.668C26.2616 113.405 26.441 113.854 26.055 115.145C23.6842 123.182 23.6784 131.731 26.0382 139.77C26.4431 141.116 26.272 141.551 25.0887 142.308C24.254 142.84 23.4192 143.351 22.5845 143.9C21.4576 144.643 20.94 145.779 21.1842 146.968C21.4429 148.208 22.1922 149.015 23.4171 149.312C24.7068 149.625 25.863 149.103 26.6372 147.932C27.0546 147.306 27.4427 146.657 27.8518 146.023C28.6135 144.837 29.3126 144.664 30.5292 145.382C35.1519 148.113 40.1997 150.05 45.4629 151.113C46.089 151.242 46.2976 151.029 46.4855 150.524C46.9216 149.374 46.8653 149.174 45.9199 148.464C41.8004 145.376 39.6155 141.265 39.557 136.108C39.5591 134.745 39.253 133.4 38.6618 132.172C33.5072 121.32 40.6777 108.407 52.6042 106.967C62.6212 105.759 71.5948 112.868 72.6382 122.852C72.9679 126.072 72.5276 129.215 71.0689 132.122C70.4355 133.362 70.1206 134.741 70.1527 136.133C70.1903 139.407 69.2428 142.435 67.2144 145.002C66.1313 146.371 64.7373 147.506 63.4393 148.692C62.9092 149.176 62.8487 149.547 63.2556 150.624C63.4873 151.229 63.8295 151.188 64.3491 151.083C69.4835 150.048 74.4111 148.17 78.9322 145.526C80.5162 144.606 81.0441 144.741 82.0396 146.309C82.4173 146.901 82.7762 147.504 83.1748 148.082C83.9198 149.161 84.9737 149.543 86.2425 149.324C86.8085 149.213 87.3277 148.933 87.732 148.521C88.1364 148.11 88.4072 147.586 88.5089 147.018C88.7551 145.766 88.319 144.748 87.2922 144.026C86.3552 143.37 85.364 142.79 84.404 142.166C83.515 141.588 83.3606 141.077 83.5964 140.048C84.0402 138.178 84.468 136.303 84.8798 134.424C85.0989 133.424 85.7855 132.827 86.6578 132.94C87.5781 133.059 88.1562 133.837 87.9705 134.889C87.6992 136.425 87.3632 137.951 87.0001 139.466C86.8936 139.902 86.9479 140.125 87.3402 140.34C87.8849 140.643 88.4045 140.993 88.92 141.344C91.0987 142.826 92.0753 145.182 91.5703 147.713C91.1091 150.036 89.1642 152.008 86.7705 152.4C84.1348 152.836 82.0145 151.924 80.4869 149.706C80.2782 149.408 80.0862 149.099 79.8838 148.796C79.8567 148.757 79.8003 148.738 79.9109 148.813L69.5976 153.177C70.6118 153.437 71.8932 153.644 73.066 154.091C78.0098 155.969 81.1881 159.466 82.5342 164.596C82.8702 165.873 82.6761 166.305 81.5721 166.987L28.1251 167ZM67.0767 129.28C66.9795 129.248 66.8805 129.221 66.7803 129.2C60.9747 128.819 55.4284 126.654 50.8992 123.002C50.7458 122.911 50.5749 122.853 50.3977 122.832C50.2204 122.811 50.0408 122.828 49.8704 122.881C47.4012 123.744 45.2044 125.246 43.5033 127.232C43.2025 127.548 42.9698 127.923 42.8198 128.332C42.6697 128.742 42.6054 129.178 42.631 129.614C42.7333 132.341 42.5246 135.096 42.8397 137.796C43.4866 143.475 48.3177 147.83 54.0796 148.231C59.7142 148.615 65.019 144.892 66.557 139.466C67.4961 136.114 66.8325 132.696 67.0767 129.28ZM69.4766 126.308C70.1861 120.525 67.2499 114.788 62.0974 111.858C59.5652 110.431 56.668 109.783 53.769 109.995C50.87 110.208 48.0982 111.271 45.801 113.052C41.3998 116.458 39.5299 122.072 40.277 126.199C40.3 126.199 40.3334 126.199 40.3459 126.174C40.5295 125.966 40.7132 125.738 40.8947 125.519C43.2195 122.683 46.1453 120.763 49.6367 119.636C50.7844 119.267 51.6233 119.451 52.5437 120.244C55.9016 123.164 60.0164 125.076 64.4138 125.759C66.0729 126.018 67.7591 126.124 69.4766 126.308ZM30.6607 163.826H78.9447C78.9471 163.756 78.9429 163.686 78.9322 163.617C78.9035 163.518 78.8673 163.421 78.8237 163.327C77.0624 159.619 74.1846 157.321 70.1506 156.526C68.237 156.15 66.3129 155.837 64.3888 155.524C64.1474 155.509 63.9087 155.583 63.7189 155.733C58.2221 160.17 51.4773 160.168 45.9637 155.733C45.7746 155.582 45.5354 155.507 45.2939 155.524C43.9583 155.733 42.6352 156.015 41.2996 156.215C39.3358 156.513 37.4055 156.891 35.665 157.945C33.3929 159.298 31.6331 161.366 30.6607 163.826ZM48.3991 153.629C52.3517 157.014 58.4161 156.365 61.2772 153.592L59.7872 150.551C56.5842 151.64 53.1116 151.645 49.9058 150.564L48.3991 153.629Z" fill="#FF4384"/>
<path d="M32.2259 95.3408C33.1838 96.547 34.0874 97.676 34.9785 98.8134C35.1976 99.0588 35.332 99.3681 35.3621 99.6957C35.3921 100.023 35.3162 100.352 35.1455 100.633C34.8032 101.236 34.2356 101.524 33.5657 101.359C33.169 101.258 32.812 101.04 32.541 100.733C31.0413 98.9052 29.5666 97.0562 28.1169 95.1864C27.2821 94.1158 27.8164 92.8595 29.1603 92.6174C29.5443 92.5486 29.9283 92.4922 30.4124 92.4087C30.3059 92.2385 30.1902 92.0741 30.066 91.9162C29.369 91.1462 28.6427 90.3991 27.9666 89.6207C27.3593 88.9132 27.4136 88.0472 28.0417 87.4524C28.1835 87.3065 28.3538 87.1913 28.5421 87.1141C28.7303 87.0368 28.9324 86.9992 29.1358 87.0035C29.3393 87.0078 29.5396 87.054 29.7244 87.1391C29.9092 87.2242 30.0745 87.3465 30.21 87.4983C31.7856 89.1553 33.3403 90.8373 34.8554 92.5465C35.6776 93.4856 35.1768 94.792 33.9455 95.0758C33.4175 95.1864 32.8812 95.2385 32.2259 95.3408Z" fill="#FF4384"/>
<path d="M77.4799 95.3241C76.8539 95.2365 76.3593 95.1843 75.8772 95.0966C74.5124 94.8483 73.9844 93.4856 74.8985 92.4546C76.3593 90.8018 77.8723 89.1866 79.3853 87.5755C80.0572 86.8618 80.9525 86.8201 81.6141 87.4044C82.2756 87.9887 82.3424 88.9237 81.6683 89.7C80.8983 90.5765 80.0948 91.4237 79.2121 92.3858C79.763 92.4818 80.2054 92.5486 80.6437 92.6362C81.8311 92.8762 82.382 94.1283 81.6475 95.0904C80.1658 97.0312 78.6319 98.9344 77.0876 100.825C76.9657 100.988 76.8123 101.124 76.6366 101.225C76.4608 101.327 76.2663 101.392 76.0647 101.416C75.8632 101.441 75.6588 101.425 75.4637 101.368C75.2687 101.312 75.0871 101.216 74.9298 101.088C74.7637 100.961 74.6251 100.802 74.5225 100.619C74.4199 100.437 74.3554 100.236 74.3329 100.028C74.3105 99.8204 74.3306 99.6101 74.3919 99.4102C74.4533 99.2104 74.5546 99.025 74.6898 98.8655C75.5684 97.7031 76.4845 96.5783 77.4799 95.3241Z" fill="#FF4384"/>
<path d="M85.4518 127.523C85.4394 127.114 85.5887 126.718 85.8674 126.419C86.1461 126.12 86.5315 125.944 86.9397 125.928C87.3611 125.923 87.7674 126.085 88.0697 126.379C88.372 126.673 88.5457 127.074 88.5529 127.495C88.5453 127.903 88.3796 128.292 88.0906 128.58C87.8017 128.868 87.4122 129.032 87.0044 129.038C86.8024 129.042 86.6016 129.006 86.4137 128.932C86.2258 128.858 86.0546 128.747 85.91 128.606C85.7654 128.465 85.6504 128.296 85.5717 128.11C85.493 127.924 85.4523 127.725 85.4518 127.523Z" fill="#FF4384"/>
<path d="M50.7699 141.043C50.9354 140.707 51.146 140.396 51.396 140.117C53.2867 138.33 56.3481 138.33 58.2827 140.079C59.0256 140.751 59.1508 141.678 58.5915 142.364C58.0322 143.051 57.1307 143.12 56.296 142.498C55.2087 141.678 54.4866 141.676 53.3514 142.529C52.8025 142.947 52.2349 143.08 51.6088 142.765C51.037 142.471 50.7449 141.976 50.7699 141.043Z" fill="#FF4384"/>
<path d="M60.8454 136.035C59.2301 136.052 57.761 135.039 57.2789 133.664C56.9867 132.829 57.2789 132.032 58.001 131.663C58.1797 131.567 58.376 131.508 58.5781 131.489C58.7802 131.47 58.984 131.492 59.1774 131.554C59.3707 131.616 59.5497 131.716 59.7036 131.848C59.8575 131.981 59.9832 132.142 60.0732 132.324C60.307 132.742 60.5282 132.932 61.0499 132.84C61.2538 132.793 61.4654 132.788 61.6712 132.826C61.877 132.865 62.0726 132.945 62.2458 133.063C62.4191 133.18 62.5661 133.333 62.6778 133.51C62.7894 133.687 62.8633 133.885 62.8947 134.092C63.047 134.9 62.5316 135.659 61.6426 135.893C61.3483 135.964 61.0332 135.995 60.8454 136.035Z" fill="#FF4384"/>
<path d="M48.7582 136.035C48.3973 135.973 48.0425 135.879 47.6981 135.755C47.3569 135.617 47.0795 135.356 46.9201 135.025C46.7608 134.693 46.7308 134.313 46.8362 133.961C47.0449 133.211 47.7043 132.696 48.4702 132.819C49.0378 132.911 49.3717 132.832 49.6576 132.278C49.7474 132.104 49.8711 131.948 50.0216 131.822C50.1721 131.695 50.3463 131.6 50.534 131.542C50.7218 131.484 50.9193 131.463 51.1149 131.482C51.3106 131.501 51.5005 131.559 51.6736 131.652C52.4019 132.011 52.717 132.823 52.4228 133.645C51.9511 135.006 50.4986 136.014 48.7582 136.035Z" fill="#FF4384"/>
</svg>
