<svg width="74" height="80" viewBox="0 0 74 80" fill="none" xmlns="http://www.w3.org/2000/svg">
<path d="M10.1251 80C9.01491 79.3071 8.80831 78.8793 9.16308 77.6084C10.8931 71.3979 14.95 67.6811 21.267 66.4061C21.6217 66.3351 21.9828 66.2788 22.2186 66.237L11.8051 61.8337C11.6193 62.1071 11.346 62.5433 11.0413 62.9565C9.4928 65.0433 7.38925 65.8906 4.87456 65.3898C2.35988 64.8889 0.700798 63.2611 0.164471 60.7423C-0.38229 58.1921 0.481671 56.0781 2.58524 54.5067C3.0571 54.1385 3.56224 53.815 4.09407 53.5405C4.72014 53.2337 4.83699 52.8706 4.65334 52.1924C3.53323 48.0126 3.02914 43.6918 3.15704 39.3664C3.22726 35.7203 3.74238 32.0964 4.69092 28.5752C4.82656 28.0806 4.74516 27.8239 4.30483 27.5776C3.71263 27.2499 3.14242 26.8839 2.59778 26.482C0.469162 24.896 -0.407321 22.7549 0.177004 20.1797C0.742548 17.6754 2.39325 16.0644 4.93507 15.5885C7.47688 15.1127 9.54081 15.9892 11.0768 18.0761C11.3668 18.4705 11.6235 18.89 11.8447 19.2176C14.2071 18.1742 16.4692 17.0473 18.8149 16.1353C23.526 14.2996 28.4994 13.2261 33.5482 12.9549C33.8041 12.9634 34.0566 12.8953 34.2734 12.7592C34.4902 12.6231 34.6614 12.4252 34.7649 12.1911C35.2803 11.2124 35.8688 10.2712 36.5158 9.15888H34.6584C33.9573 9.15888 33.3687 8.93559 33.0536 8.26361C32.7573 7.63755 32.9076 7.05948 33.2936 6.50438C34.5854 4.64497 35.8584 2.77304 37.1502 0.913635C37.8096 -0.0338071 38.6882 -0.250842 39.4833 0.30844C40.2784 0.867723 40.3514 1.75047 39.692 2.71461C38.9783 3.75805 38.2541 4.81401 37.4152 6.03691C38.06 6.03691 38.5588 6.02648 39.0555 6.03691C40.5622 6.07865 41.2279 7.25148 40.4787 8.56621C39.6941 9.94146 38.8865 11.3042 38.0037 12.8172C46.5015 13.0864 54.3961 15.2171 61.7711 19.3303C62.0862 18.8629 62.3575 18.4204 62.6664 18.0093C64.2044 15.9663 66.2621 15.1107 68.7622 15.5865C71.3081 16.0727 72.9505 17.6733 73.5182 20.1776C74.092 22.7173 73.249 24.8501 71.1516 26.4382C70.5527 26.8911 69.8703 27.2375 69.2735 27.6903C69.176 27.7838 69.1008 27.8979 69.0535 28.0244C69.0062 28.1508 68.9879 28.2863 69.0001 28.4207C69.2714 29.8503 69.6115 31.2672 69.8974 32.6947C69.9916 33.073 70.0051 33.4669 69.9371 33.8508C69.8716 34.1747 69.6963 34.4661 69.4408 34.6756C69.1852 34.8852 68.8652 35 68.5347 35.0007C68.1799 35.0352 67.8248 34.9389 67.5361 34.7298C67.2475 34.5207 67.0452 34.2133 66.9674 33.8654C66.4457 31.7451 65.9504 29.62 65.4816 27.49C65.3251 26.7742 65.6903 26.2379 66.2997 25.8539C67.2221 25.2675 68.1507 24.6915 69.0648 24.0926C70.248 23.3183 70.7572 22.1935 70.5047 20.9748C70.2522 19.756 69.3486 18.8128 68.1799 18.627C66.836 18.4183 65.7821 18.8983 65.0496 20.0524L63.9164 21.8304C63.0817 23.143 62.4097 23.3162 61.0783 22.5358C56.8238 20.0027 52.1894 18.1706 47.3529 17.1099C35.249 14.5055 23.7907 16.2445 12.9779 22.3271C12.7525 22.4544 12.5313 22.5921 12.3017 22.7152C11.3668 23.2161 10.5884 23.0387 10.0062 22.1664C9.54498 21.4756 9.11925 20.7577 8.66222 20.0607C7.88382 18.8775 6.70891 18.3557 5.46096 18.6229C4.88649 18.7546 4.36357 19.0527 3.95753 19.4799C3.55149 19.9071 3.28033 20.4444 3.17793 21.0249C2.95255 22.1977 3.47844 23.3329 4.6137 24.0759C5.44845 24.6164 6.2832 25.1318 7.11796 25.6682C8.26156 26.4048 8.44103 26.8535 8.05496 28.1453C5.68421 36.1817 5.6784 44.7308 8.03825 52.7704C8.4431 54.1164 8.27199 54.5505 7.08874 55.3081C6.25399 55.8402 5.41924 56.3515 4.58448 56.9003C3.45757 57.6433 2.94001 58.7785 3.18417 59.9681C3.44295 61.2077 4.19215 62.0153 5.41715 62.3116C6.70684 62.6246 7.86295 62.1029 8.63718 60.9322C9.05456 60.3061 9.44273 59.6571 9.85176 59.0227C10.6135 57.8373 11.3126 57.6641 12.5292 58.382C17.1519 61.1133 22.1997 63.0504 27.4629 64.1126C28.089 64.242 28.2976 64.0291 28.4855 63.5241C28.9216 62.3742 28.8653 62.1739 27.9199 61.4643C23.8004 58.3758 21.6155 54.2646 21.557 49.1079C21.5591 47.7453 21.253 46.3998 20.6618 45.1721C15.5072 34.3203 22.6777 21.4068 34.6042 19.9668C44.6212 18.7585 53.5948 25.8685 54.6382 35.8521C54.9679 39.0722 54.5276 42.215 53.0689 45.122C52.4355 46.3623 52.1206 47.7407 52.1527 49.133C52.1903 52.4073 51.2428 55.4354 49.2144 58.0022C48.1313 59.3712 46.7373 60.5065 45.4393 61.6918C44.9092 62.176 44.8487 62.5474 45.2556 63.6243C45.4873 64.2294 45.8295 64.1877 46.3491 64.0834C51.4835 63.0482 56.4111 61.1703 60.9322 58.526C62.5162 57.6057 63.0441 57.7414 64.0396 59.3086C64.4173 59.9013 64.7762 60.5044 65.1748 61.0824C65.9198 62.1614 66.9737 62.5433 68.2425 62.3241C68.8085 62.2126 69.3277 61.9328 69.732 61.5213C70.1364 61.1099 70.4072 60.586 70.5089 60.0181C70.7551 58.766 70.319 57.7476 69.2922 57.0256C68.3552 56.3703 67.364 55.7901 66.404 55.1661C65.515 54.5881 65.3606 54.0768 65.5964 53.048C66.0402 51.1781 66.468 49.3034 66.8798 47.4238C67.0989 46.4242 67.7855 45.8274 68.6578 45.9401C69.5781 46.059 70.1562 46.8374 69.9705 47.8892C69.6992 49.4252 69.3632 50.9507 69.0001 52.4657C68.8936 52.9019 68.9479 53.1252 69.3402 53.3401C69.8849 53.6427 70.4045 53.9933 70.92 54.3439C73.0987 55.8256 74.0753 58.1817 73.5703 60.7131C73.1091 63.0358 71.1642 65.0079 68.7705 65.4002C66.1348 65.8363 64.0145 64.9244 62.4869 62.706C62.2782 62.4076 62.0862 62.0987 61.8838 61.7962C61.8567 61.7565 61.8003 61.7377 61.911 61.8128L51.5976 66.1765C52.6118 66.4374 53.8932 66.644 55.066 67.0906C60.0098 68.9687 63.1881 72.4663 64.5342 77.5959C64.8702 78.8731 64.6761 79.305 63.5721 79.9875L10.1251 80ZM49.0767 42.2797C48.9795 42.2476 48.8805 42.2211 48.7803 42.2004C42.9747 41.8191 37.4284 39.6545 32.8992 36.0024C32.7458 35.9111 32.5749 35.8531 32.3977 35.8323C32.2204 35.8114 32.0408 35.8281 31.8704 35.8813C29.4012 36.7443 27.2044 38.2455 25.5033 40.2325C25.2025 40.5484 24.9698 40.9228 24.8198 41.3324C24.6697 41.742 24.6054 42.1781 24.631 42.6136C24.7333 45.3411 24.5246 48.0958 24.8397 50.7962C25.4866 56.4746 30.3177 60.8299 36.0796 61.2306C41.7142 61.6146 47.019 57.8916 48.557 52.4657C49.4961 49.1142 48.8325 45.6959 49.0767 42.2797V42.2797ZM51.4766 39.308C52.1861 33.5252 49.2499 27.7884 44.0974 24.8584C41.5652 23.4312 38.668 22.7831 35.769 22.9954C32.87 23.2078 30.0982 24.2711 27.801 26.0521C23.3998 29.4579 21.5299 35.0716 22.277 39.1995C22.3 39.1995 22.3334 39.1995 22.3459 39.1744C22.5295 38.9657 22.7132 38.7383 22.8947 38.5191C25.2195 35.6831 28.1453 33.7631 31.6367 32.6362C32.7844 32.2669 33.6233 32.4505 34.5437 33.2435C37.9016 36.1638 42.0164 38.0758 46.4138 38.7591C48.0729 39.0179 49.7591 39.1243 51.4766 39.308V39.308ZM12.6607 76.8258H60.9447C60.9471 76.756 60.9429 76.6862 60.9322 76.6171C60.9035 76.5178 60.8673 76.4208 60.8237 76.3271C59.0624 72.6187 56.1846 70.321 52.1506 69.5259C50.237 69.1503 48.3129 68.8373 46.3888 68.5242C46.1474 68.5086 45.9087 68.583 45.7189 68.7329C40.2221 73.1696 33.4773 73.1675 27.9637 68.7329C27.7746 68.5817 27.5354 68.5072 27.2939 68.5242C25.9583 68.7329 24.6352 69.0147 23.2996 69.215C21.3358 69.5134 19.4055 69.8911 17.665 70.945C15.3929 72.2984 13.6331 74.3664 12.6607 76.8258V76.8258ZM30.3991 66.6294C34.3517 70.0143 40.4161 69.3653 43.2772 66.5918L41.7872 63.5512C38.5842 64.6404 35.1116 64.6448 31.9058 63.5637L30.3991 66.6294Z" fill="#FF4384"/>
<path d="M14.2259 8.3408C15.1838 9.54702 16.0874 10.676 16.9785 11.8134C17.1976 12.0588 17.332 12.3681 17.3621 12.6957C17.3921 13.0233 17.3162 13.3519 17.1455 13.6331C16.8032 14.2362 16.2356 14.5242 15.5657 14.3594C15.169 14.2583 14.812 14.0401 14.541 13.7333C13.0413 11.9052 11.5666 10.0562 10.1169 8.18637C9.28212 7.11581 9.81636 5.85951 11.1603 5.61743C11.5443 5.54856 11.9283 5.49222 12.4124 5.40874C12.3059 5.23849 12.1902 5.07409 12.066 4.91624C11.369 4.14618 10.6427 3.39908 9.96659 2.62068C9.35931 1.91323 9.41359 1.04717 10.0417 0.452414C10.1835 0.306473 10.3538 0.191298 10.5421 0.114064C10.7303 0.0368306 10.9324 -0.000805224 11.1358 0.00350208C11.3393 0.00780939 11.5396 0.0539675 11.7244 0.1391C11.9092 0.224232 12.0745 0.346514 12.21 0.498325C13.7856 2.1553 15.3403 3.83733 16.8554 5.54648C17.6776 6.48557 17.1768 7.79196 15.9455 8.07577C15.4175 8.18638 14.8812 8.23855 14.2259 8.3408Z" fill="#FF4384"/>
<path d="M59.4799 8.3241C58.8539 8.23645 58.3593 8.18428 57.8772 8.09663C56.5124 7.8483 55.9844 6.48557 56.8985 5.45465C58.3593 3.80184 59.8723 2.1866 61.3853 0.575533C62.0572 -0.138179 62.9525 -0.179916 63.6141 0.404409C64.2756 0.988734 64.3424 1.92365 63.6683 2.69997C62.8983 3.57646 62.0948 4.42373 61.2121 5.38578C61.763 5.48178 62.2054 5.54856 62.6437 5.63621C63.8311 5.8762 64.382 7.12832 63.6475 8.09037C62.1658 10.0312 60.6319 11.9344 59.0876 13.8251C58.9657 13.9875 58.8123 14.1236 58.6366 14.2252C58.4608 14.3268 58.2663 14.3919 58.0647 14.4164C57.8632 14.441 57.6588 14.4245 57.4637 14.3681C57.2687 14.3117 57.0871 14.2164 56.9298 14.0881C56.7637 13.9611 56.6251 13.8017 56.5225 13.6195C56.4199 13.4373 56.3554 13.2362 56.3329 13.0283C56.3105 12.8204 56.3306 12.6101 56.3919 12.4102C56.4533 12.2104 56.5546 12.025 56.6898 11.8655C57.5684 10.7031 58.4845 9.57832 59.4799 8.3241Z" fill="#FF4384"/>
<path d="M67.4518 40.5225C67.4394 40.1142 67.5887 39.7176 67.8674 39.419C68.1461 39.1203 68.5315 38.9439 68.9397 38.9281C69.3611 38.9231 69.7674 39.0852 70.0697 39.3788C70.372 39.6725 70.5457 40.074 70.5529 40.4954C70.5453 40.9031 70.3796 41.292 70.0906 41.5797C69.8017 41.8675 69.4122 42.0317 69.0044 42.0376C68.8024 42.042 68.6016 42.0061 68.4137 41.932C68.2258 41.8579 68.0546 41.7471 67.91 41.606C67.7654 41.465 67.6504 41.2965 67.5717 41.1104C67.493 40.9244 67.4523 40.7245 67.4518 40.5225V40.5225Z" fill="#FF4384"/>
<path d="M32.7699 54.0434C32.9354 53.7074 33.146 53.3957 33.396 53.1168C35.2867 51.3304 38.3481 51.3304 40.2827 53.0792C41.0256 53.7512 41.1508 54.6778 40.5915 55.3644C40.0322 56.0509 39.1307 56.1198 38.296 55.4979C37.2087 54.6778 36.4866 54.6757 35.3514 55.5292C34.8025 55.9466 34.2349 56.0802 33.6088 55.765C33.037 55.4708 32.7449 54.9762 32.7699 54.0434Z" fill="#FF4384"/>
<path d="M42.8454 49.0349C41.2301 49.0516 39.761 48.0394 39.2789 46.6642C38.9867 45.8294 39.2789 45.0322 40.001 44.6629C40.1797 44.5668 40.376 44.5076 40.5781 44.489C40.7802 44.4703 40.984 44.4925 41.1774 44.5542C41.3707 44.6159 41.5497 44.7159 41.7036 44.8483C41.8575 44.9806 41.9832 45.1425 42.0732 45.3244C42.307 45.7418 42.5282 45.9317 43.0499 45.8399C43.2538 45.7926 43.4654 45.7881 43.6712 45.8264C43.877 45.8648 44.0726 45.9453 44.2458 46.0629C44.4191 46.1805 44.5661 46.3326 44.6778 46.5097C44.7894 46.6867 44.8633 46.885 44.8947 47.092C45.047 47.8996 44.5316 48.6592 43.6426 48.893C43.3483 48.9639 43.0332 48.9952 42.8454 49.0349Z" fill="#FF4384"/>
<path d="M30.7582 49.0349C30.3973 48.973 30.0425 48.8794 29.6981 48.7552C29.3569 48.6169 29.0795 48.3564 28.9201 48.0245C28.7608 47.6926 28.7308 47.3133 28.8362 46.9605C29.0449 46.2113 29.7043 45.6959 30.4702 45.819C31.0378 45.9108 31.3717 45.8315 31.6576 45.2785C31.7474 45.1036 31.8711 44.9483 32.0216 44.8218C32.1721 44.6953 32.3463 44.6002 32.534 44.5419C32.7218 44.4835 32.9193 44.4633 33.1149 44.4823C33.3106 44.5013 33.5005 44.5591 33.6736 44.6524C34.4019 45.0114 34.717 45.8232 34.4228 46.6454C33.9511 48.006 32.4986 49.014 30.7582 49.0349Z" fill="#FF4384"/>
</svg>
