<svg width="159" height="185" viewBox="0 0 159 185" fill="none" xmlns="http://www.w3.org/2000/svg">
<path d="M0 40C0 21.1438 0 11.7157 5.85786 5.85786C11.7157 0 21.1438 0 40 0H119C137.856 0 147.284 0 153.142 5.85786C159 11.7157 159 21.1438 159 40V145C159 163.856 159 173.284 153.142 179.142C147.284 185 137.856 185 119 185H40C21.1438 185 11.7157 185 5.85786 179.142C0 173.284 0 163.856 0 145V40Z" fill="#FFEBE1"/>
<mask id="mask0_85_1211" style="mask-type:alpha" maskUnits="userSpaceOnUse" x="0" y="0" width="159" height="185">
<path d="M0 40C0 21.1438 0 11.7157 5.85786 5.85786C11.7157 0 21.1438 0 40 0H119C137.856 0 147.284 0 153.142 5.85786C159 11.7157 159 21.1438 159 40V145C159 163.856 159 173.284 153.142 179.142C147.284 185 137.856 185 119 185H40C21.1438 185 11.7157 185 5.85786 179.142C0 173.284 0 163.856 0 145V40Z" fill="#E6F2FF"/>
</mask>
<g mask="url(#mask0_85_1211)">
<path d="M168.707 36.348C170.515 34.3323 172.903 32.9271 175.543 32.3262C178.182 31.7253 180.943 31.9584 183.445 32.9933C185.947 34.0282 188.066 35.8139 189.509 38.1041C190.953 40.3942 191.651 43.0759 191.506 45.7793C191.411 47.6064 191.701 49.4331 192.356 51.1412C193.012 52.8493 194.018 54.401 195.311 55.6958C196.603 56.9906 198.153 57.9999 199.86 58.6583C201.567 59.3167 203.393 59.6097 205.221 59.5183C207.924 59.3734 210.606 60.0709 212.896 61.5147C215.186 62.9584 216.972 65.0773 218.007 67.5789C219.042 70.0806 219.275 72.8417 218.674 75.4815C218.073 78.1212 216.668 80.5094 214.652 82.3167C213.292 83.542 212.205 85.0392 211.461 86.7115C210.717 88.3837 210.332 90.1937 210.332 92.024C210.332 93.8543 210.717 95.6643 211.461 97.3365C212.205 99.0088 213.292 100.506 214.652 101.731C216.668 103.539 218.073 105.927 218.674 108.567C219.275 111.206 219.042 113.967 218.007 116.469C216.972 118.971 215.186 121.09 212.896 122.533C210.606 123.977 207.924 124.675 205.221 124.53C203.396 124.435 201.571 124.725 199.865 125.379C198.158 126.033 196.608 127.037 195.313 128.327C194.019 129.617 193.009 131.164 192.349 132.868C191.689 134.572 191.394 136.395 191.482 138.221C191.627 140.924 190.929 143.606 189.485 145.896C188.042 148.186 185.923 149.972 183.421 151.007C180.919 152.042 178.158 152.275 175.519 151.674C172.879 151.073 170.491 149.668 168.683 147.652C167.458 146.292 165.961 145.205 164.289 144.461C162.616 143.717 160.806 143.332 158.976 143.332C157.146 143.332 155.336 143.717 153.663 144.461C151.991 145.205 150.494 146.292 149.269 147.652C147.461 149.668 145.073 151.073 142.433 151.674C139.794 152.275 137.033 152.042 134.531 151.007C132.029 149.972 129.91 148.186 128.467 145.896C127.023 143.606 126.325 140.924 126.47 138.221C126.565 136.396 126.275 134.571 125.621 132.865C124.967 131.158 123.963 129.608 122.673 128.313C121.383 127.019 119.836 126.009 118.132 125.349C116.428 124.689 114.605 124.394 112.779 124.482C110.076 124.627 107.394 123.929 105.104 122.485C102.814 121.042 101.028 118.923 99.9933 116.421C98.9584 113.919 98.7253 111.158 99.3262 108.519C99.9271 105.879 101.332 103.491 103.348 101.683C104.708 100.458 105.795 98.9608 106.539 97.2885C107.283 95.6163 107.668 93.8063 107.668 91.976C107.668 90.1457 107.283 88.3357 106.539 86.6635C105.795 84.9912 104.708 83.494 103.348 82.2687C101.332 80.4614 99.9271 78.0732 99.3262 75.4335C98.7253 72.7937 98.9584 70.0326 99.9933 67.531C101.028 65.0293 102.814 62.9104 105.104 61.4667C107.394 60.0229 110.076 59.3254 112.779 59.4703C114.604 59.5646 116.429 59.2755 118.135 58.6215C119.842 57.9674 121.392 56.9631 122.687 55.6732C123.981 54.3832 124.991 52.8363 125.651 51.1322C126.311 49.4281 126.606 47.6046 126.518 45.7793C126.373 43.0759 127.071 40.3942 128.515 38.1041C129.958 35.8139 132.077 34.0282 134.579 32.9933C137.081 31.9584 139.842 31.7253 142.481 32.3262C145.121 32.9271 147.509 34.3323 149.317 36.348C150.542 37.7038 152.038 38.7876 153.708 39.5293C155.378 40.2711 157.185 40.6544 159.012 40.6544C160.839 40.6544 162.646 40.2711 164.316 39.5293C165.986 38.7876 167.482 37.7038 168.707 36.348Z" fill="#FFE1D1"/>
</g>
<path d="M22.88 30.176C22.0427 30.176 21.312 30.0427 20.688 29.776C20.064 29.5093 19.5787 29.1093 19.232 28.576C18.8853 28.0373 18.712 27.3707 18.712 26.576C18.712 26.4853 18.712 26.4053 18.712 26.336C18.712 26.2613 18.712 26.1787 18.712 26.088H20.816C20.816 26.168 20.816 26.2427 20.816 26.312C20.816 26.376 20.816 26.4507 20.816 26.536C20.816 27.176 20.9893 27.656 21.336 27.976C21.688 28.2907 22.2053 28.448 22.888 28.448C23.576 28.448 24.1013 28.3333 24.464 28.104C24.832 27.8747 25.016 27.5067 25.016 27C25.016 26.632 24.8907 26.32 24.64 26.064C24.3947 25.8027 24.056 25.5733 23.624 25.376C23.192 25.1787 22.7013 24.9947 22.152 24.824C21.5333 24.632 20.9707 24.384 20.464 24.08C19.9573 23.776 19.552 23.392 19.248 22.928C18.944 22.464 18.792 21.8933 18.792 21.216C18.792 20.5387 18.9653 19.9627 19.312 19.488C19.664 19.0133 20.144 18.6533 20.752 18.408C21.3653 18.1573 22.0613 18.032 22.84 18.032C23.656 18.032 24.3733 18.16 24.992 18.416C25.616 18.672 26.104 19.0533 26.456 19.56C26.808 20.0667 26.984 20.6987 26.984 21.456C26.984 21.5573 26.984 21.6453 26.984 21.72C26.984 21.7947 26.984 21.88 26.984 21.976H24.872C24.872 21.9067 24.872 21.8373 24.872 21.768C24.872 21.6933 24.872 21.6213 24.872 21.552C24.872 20.944 24.7067 20.496 24.376 20.208C24.0453 19.9147 23.544 19.768 22.872 19.768C22.216 19.768 21.712 19.8827 21.36 20.112C21.008 20.3413 20.832 20.7067 20.832 21.208C20.832 21.5813 20.952 21.8933 21.192 22.144C21.432 22.3947 21.76 22.6133 22.176 22.8C22.5973 22.9813 23.0747 23.1653 23.608 23.352C24.3173 23.5867 24.9307 23.8533 25.448 24.152C25.9653 24.4453 26.3653 24.8133 26.648 25.256C26.9307 25.6933 27.072 26.2507 27.072 26.928C27.072 27.6213 26.896 28.2107 26.544 28.696C26.1973 29.176 25.7093 29.544 25.08 29.8C24.456 30.0507 23.7227 30.176 22.88 30.176ZM32.7413 30.16C32.4373 30.16 32.1279 30.1307 31.8133 30.072C31.4986 30.0133 31.2106 29.904 30.9493 29.744C30.6879 29.584 30.4773 29.3493 30.3173 29.04C30.1573 28.7307 30.0773 28.3227 30.0773 27.816C30.0773 27.6987 30.0773 27.5813 30.0773 27.464C30.0773 27.3413 30.0773 27.216 30.0773 27.088V23.184H28.0693V21.504H28.8853C29.1626 21.504 29.3813 21.4933 29.5413 21.472C29.7013 21.4453 29.8186 21.3867 29.8932 21.296C29.9679 21.2053 30.0159 21.064 30.0373 20.872C30.0639 20.6747 30.0773 20.4027 30.0773 20.056V18.704H32.1892V21.504H34.7173V23.184H32.1892V26.592C32.1892 26.6933 32.1892 26.7947 32.1892 26.896C32.1892 26.992 32.1892 27.0853 32.1892 27.176C32.1892 27.5707 32.2373 27.888 32.3333 28.128C32.4293 28.368 32.6559 28.488 33.0133 28.488C33.1839 28.488 33.3439 28.472 33.4933 28.44C33.6479 28.408 33.7626 28.376 33.8373 28.344V29.992C33.7359 30.0293 33.5893 30.0667 33.3973 30.104C33.2053 30.1413 32.9866 30.16 32.7413 30.16ZM36.306 30V21.504H38.41V24.328L37.922 24.056C37.9753 23.688 38.074 23.3413 38.218 23.016C38.362 22.6853 38.554 22.3973 38.794 22.152C39.034 21.9013 39.3247 21.7067 39.666 21.568C40.0073 21.4293 40.3967 21.36 40.834 21.36C41.1807 21.36 41.4527 21.3867 41.65 21.44C41.8527 21.488 41.978 21.528 42.026 21.56L41.642 23.488C41.5887 23.4507 41.4793 23.4053 41.314 23.352C41.154 23.2933 40.938 23.264 40.666 23.264C40.234 23.264 39.8713 23.3387 39.578 23.488C39.29 23.632 39.0607 23.8293 38.89 24.08C38.7193 24.3253 38.5967 24.5973 38.522 24.896C38.4473 25.1893 38.41 25.4827 38.41 25.776V30H36.306ZM43.9806 26.432V24.936H49.9246L49.6846 25.336C49.6846 25.304 49.6846 25.2693 49.6846 25.232C49.6846 25.1893 49.6846 25.1547 49.6846 25.128C49.6846 24.76 49.602 24.416 49.4366 24.096C49.2713 23.7707 49.0206 23.5093 48.6846 23.312C48.3486 23.1093 47.922 23.008 47.4046 23.008C46.8926 23.008 46.4473 23.1173 46.0686 23.336C45.6953 23.5493 45.4046 23.8587 45.1966 24.264C44.994 24.6693 44.8926 25.1547 44.8926 25.72C44.8926 26.3013 44.9913 26.8027 45.1886 27.224C45.386 27.64 45.674 27.96 46.0526 28.184C46.4366 28.4027 46.9033 28.512 47.4526 28.512C47.826 28.512 48.1486 28.4773 48.4206 28.408C48.6926 28.3387 48.914 28.2453 49.0846 28.128C49.2606 28.0053 49.3913 27.8747 49.4766 27.736C49.5673 27.5973 49.6206 27.4587 49.6366 27.32H51.7326C51.7006 27.6773 51.5806 28.0267 51.3726 28.368C51.17 28.704 50.8846 29.0107 50.5166 29.288C50.1486 29.56 49.7006 29.7787 49.1726 29.944C48.65 30.104 48.0526 30.184 47.3806 30.184C46.4686 30.184 45.6713 29.9973 44.9886 29.624C44.306 29.2507 43.7726 28.7307 43.3886 28.064C43.01 27.3973 42.8206 26.6347 42.8206 25.776C42.8206 24.896 43.0126 24.1253 43.3966 23.464C43.786 22.8027 44.3246 22.288 45.0126 21.92C45.7006 21.5467 46.49 21.36 47.3806 21.36C48.298 21.36 49.09 21.5467 49.7566 21.92C50.4286 22.2933 50.946 22.8133 51.3086 23.48C51.6713 24.1413 51.8526 24.912 51.8526 25.792C51.8526 25.904 51.85 26.024 51.8446 26.152C51.8393 26.28 51.8313 26.3733 51.8206 26.432H43.9806ZM57.0193 30.176C56.5126 30.176 56.0299 30.12 55.5713 30.008C55.1179 29.896 54.7126 29.728 54.3553 29.504C54.0033 29.28 53.7233 29.0027 53.5153 28.672C53.3126 28.336 53.2113 27.9493 53.2113 27.512C53.2113 27.48 53.2113 27.448 53.2113 27.416C53.2113 27.384 53.2113 27.3547 53.2113 27.328H55.3073C55.3073 27.3547 55.3073 27.3787 55.3073 27.4C55.3073 27.416 55.3073 27.44 55.3073 27.472C55.3073 27.8187 55.4646 28.08 55.7793 28.256C56.0993 28.4267 56.5339 28.512 57.0833 28.512C57.3819 28.512 57.6619 28.48 57.9233 28.416C58.1899 28.352 58.4033 28.2533 58.5633 28.12C58.7286 27.9867 58.8113 27.816 58.8113 27.608C58.8113 27.272 58.6379 27.032 58.2913 26.888C57.9499 26.744 57.4113 26.6133 56.6753 26.496C56.2699 26.4267 55.8699 26.3333 55.4753 26.216C55.0806 26.0987 54.7206 25.9413 54.3953 25.744C54.0753 25.5467 53.8166 25.3013 53.6193 25.008C53.4273 24.7147 53.3313 24.3573 53.3313 23.936C53.3313 23.376 53.4966 22.9067 53.8273 22.528C54.1633 22.144 54.6113 21.8533 55.1713 21.656C55.7366 21.4587 56.3579 21.36 57.0353 21.36C57.6859 21.36 58.2913 21.4667 58.8513 21.68C59.4113 21.8933 59.8619 22.2 60.2033 22.6C60.5499 23 60.7233 23.4827 60.7233 24.048C60.7233 24.0693 60.7233 24.0933 60.7233 24.12C60.7233 24.1413 60.7233 24.16 60.7233 24.176H58.6433C58.6433 24.16 58.6433 24.144 58.6433 24.128C58.6433 24.112 58.6433 24.0933 58.6433 24.072C58.6433 23.8267 58.5659 23.6267 58.4113 23.472C58.2566 23.3173 58.0566 23.2027 57.8113 23.128C57.5659 23.0533 57.3073 23.016 57.0353 23.016C56.7953 23.016 56.5473 23.0427 56.2913 23.096C56.0353 23.144 55.8219 23.232 55.6513 23.36C55.4806 23.4827 55.3953 23.656 55.3953 23.88C55.3953 24.0933 55.4833 24.2667 55.6593 24.4C55.8353 24.5333 56.0806 24.6453 56.3953 24.736C56.7099 24.8213 57.0726 24.8987 57.4833 24.968C57.8726 25.032 58.2646 25.12 58.6593 25.232C59.0593 25.344 59.4246 25.4933 59.7553 25.68C60.0859 25.8667 60.3526 26.112 60.5553 26.416C60.7633 26.7147 60.8673 27.0853 60.8673 27.528C60.8673 27.9973 60.7606 28.3973 60.5473 28.728C60.3339 29.0587 60.0433 29.3333 59.6753 29.552C59.3126 29.7653 58.9019 29.9227 58.4433 30.024C57.9846 30.1253 57.5099 30.176 57.0193 30.176ZM66.0349 30.176C65.5282 30.176 65.0455 30.12 64.5869 30.008C64.1335 29.896 63.7282 29.728 63.3709 29.504C63.0189 29.28 62.7389 29.0027 62.5309 28.672C62.3282 28.336 62.2269 27.9493 62.2269 27.512C62.2269 27.48 62.2269 27.448 62.2269 27.416C62.2269 27.384 62.2269 27.3547 62.2269 27.328H64.3229C64.3229 27.3547 64.3229 27.3787 64.3229 27.4C64.3229 27.416 64.3229 27.44 64.3229 27.472C64.3229 27.8187 64.4802 28.08 64.7949 28.256C65.1149 28.4267 65.5495 28.512 66.0989 28.512C66.3975 28.512 66.6775 28.48 66.9389 28.416C67.2055 28.352 67.4189 28.2533 67.5789 28.12C67.7442 27.9867 67.8269 27.816 67.8269 27.608C67.8269 27.272 67.6535 27.032 67.3069 26.888C66.9655 26.744 66.4269 26.6133 65.6909 26.496C65.2855 26.4267 64.8855 26.3333 64.4909 26.216C64.0962 26.0987 63.7362 25.9413 63.4109 25.744C63.0909 25.5467 62.8322 25.3013 62.6349 25.008C62.4429 24.7147 62.3469 24.3573 62.3469 23.936C62.3469 23.376 62.5122 22.9067 62.8429 22.528C63.1789 22.144 63.6269 21.8533 64.1869 21.656C64.7522 21.4587 65.3735 21.36 66.0509 21.36C66.7015 21.36 67.3069 21.4667 67.8669 21.68C68.4269 21.8933 68.8775 22.2 69.2189 22.6C69.5655 23 69.7389 23.4827 69.7389 24.048C69.7389 24.0693 69.7389 24.0933 69.7389 24.12C69.7389 24.1413 69.7389 24.16 69.7389 24.176H67.6589C67.6589 24.16 67.6589 24.144 67.6589 24.128C67.6589 24.112 67.6589 24.0933 67.6589 24.072C67.6589 23.8267 67.5815 23.6267 67.4269 23.472C67.2722 23.3173 67.0722 23.2027 66.8269 23.128C66.5815 23.0533 66.3229 23.016 66.0509 23.016C65.8109 23.016 65.5629 23.0427 65.3069 23.096C65.0509 23.144 64.8375 23.232 64.6669 23.36C64.4962 23.4827 64.4109 23.656 64.4109 23.88C64.4109 24.0933 64.4989 24.2667 64.6749 24.4C64.8509 24.5333 65.0962 24.6453 65.4109 24.736C65.7255 24.8213 66.0882 24.8987 66.4989 24.968C66.8882 25.032 67.2802 25.12 67.6749 25.232C68.0749 25.344 68.4402 25.4933 68.7709 25.68C69.1015 25.8667 69.3682 26.112 69.5709 26.416C69.7789 26.7147 69.8829 27.0853 69.8829 27.528C69.8829 27.9973 69.7762 28.3973 69.5629 28.728C69.3495 29.0587 69.0589 29.3333 68.6909 29.552C68.3282 29.7653 67.9175 29.9227 67.4589 30.024C67.0002 30.1253 66.5255 30.176 66.0349 30.176Z" fill="black"/>
<g opacity="0.8">
<path d="M100.058 158.402C99.9445 158.867 99.8439 159.333 99.7154 159.794C99.191 161.712 98.0917 163.424 96.5653 164.7C95.0389 165.975 93.1587 166.752 91.1773 166.927C90.6721 166.972 90.1647 167 89.6573 167C69.2284 167 48.7995 167 28.3706 167C23.4807 167 19.7104 164.343 18.4259 159.986C17.5995 157.233 17.9977 154.61 19.43 152.125C23.4707 145.094 27.5049 138.059 31.5327 131.021C31.7169 130.698 31.8946 130.379 31.8432 130.238C31.2009 129.484 30.5736 128.739 29.9484 127.977C26.767 124.123 27.3022 119.006 31.1495 115.81C33.8557 113.558 35.3393 110.61 35.7954 107.135C36.1294 104.544 36.337 101.935 36.7888 99.3654C37.1185 97.4899 38.0434 95.8029 39.1438 94.2271C39.7968 93.2937 40.6682 93.0625 41.4753 93.5849C42.2824 94.1072 42.4494 95.045 41.82 95.9699C40.2635 98.2521 39.5377 100.753 39.3707 103.495C39.1567 106.822 38.9019 110.16 37.3904 113.297C37.7222 112.95 38.0455 112.596 38.3838 112.256C38.722 111.916 39.1224 111.558 39.4778 111.198C40.0291 110.613 40.7038 110.158 41.453 109.866C42.2022 109.574 43.007 109.453 43.8089 109.511C44.167 109.512 44.5155 109.396 44.8023 109.182C45.9679 108.269 47.4045 107.77 48.8851 107.764H69.1534C70.6623 107.759 72.1268 108.274 73.3004 109.222C73.5149 109.407 73.786 109.514 74.069 109.524C76.0409 109.34 77.6123 110.089 78.9054 111.52C79.1474 111.787 79.3336 112.102 79.6698 112.284C77.9741 109.715 76.4262 107.124 75.3001 104.296C74.5893 102.513 73.9663 100.697 73.3261 98.888C71.6819 94.2357 67.7147 92.1055 62.934 93.3386C62.6291 93.4342 62.3054 93.4538 61.9912 93.3956C61.677 93.3373 61.3818 93.2031 61.1313 93.0047C58.9465 91.2987 56.2796 90.3249 53.5095 90.2214C53.349 90.2214 53.1884 90.1957 53.03 90.1765C52.073 90.0502 51.4778 89.41 51.5056 88.5408C51.5078 88.3245 51.555 88.1111 51.6443 87.9141C51.7335 87.7171 51.8629 87.5409 52.024 87.3967C52.1852 87.2524 52.3746 87.1434 52.5802 87.0764C52.7859 87.0095 53.0032 86.9861 53.2184 87.0079C54.4901 87.0978 55.8132 87.147 57.0057 87.5431C58.7591 88.1254 60.4141 89.0097 62.1226 89.7376C62.4423 89.8959 62.7987 89.9654 63.1545 89.9388C69.1256 88.9347 74.2874 91.992 76.3384 97.7019C77.2548 100.256 78.1604 102.84 79.3144 105.285C81.0369 109.044 83.5912 112.361 86.7841 114.988C92.1879 119.37 90.6121 126.977 85.8186 129.707C85.9534 129.957 86.0819 130.212 86.2232 130.46C90.2439 137.472 94.2496 144.492 98.2981 151.489C99.1115 152.889 99.707 154.405 100.064 155.985L100.058 158.402ZM82.757 163.754C82.1318 162.498 81.3975 161.292 80.9094 159.995C78.7085 154.131 76.5511 148.252 74.4373 142.356C74.2039 141.713 73.8592 141.518 73.2448 141.435C71.7161 141.232 70.1961 140.949 68.6696 140.735C68.4244 140.724 68.1838 140.805 67.9952 140.962C62.4287 145.578 55.6055 145.561 50.0112 140.919C49.8205 140.754 49.5762 140.664 49.324 140.666C47.8253 140.848 46.3267 141.11 44.8152 141.268C44.1922 141.332 43.9224 141.585 43.6976 142.159C40.8844 149.352 38.7734 156.822 35.3715 163.754H82.757ZM47.3864 111.224C48.9087 114.024 48.9558 114.765 47.851 117.698C47.5128 118.598 47.1253 119.482 46.8619 120.4C46.6802 121.058 46.5894 121.737 46.5922 122.419C46.6015 123.247 46.6731 124.073 46.8062 124.89C46.8659 125.409 47.0106 125.916 47.2344 126.388C50.8997 133.299 59.9217 135.609 66.3938 131.212C69.2476 129.272 71.5641 126.866 71.41 123.019C71.41 122.886 71.4678 122.751 71.455 122.622C71.3715 121.841 71.3822 121.032 71.1595 120.291C70.7955 119.069 70.2753 117.891 69.8257 116.694C69.5451 115.998 69.4189 115.25 69.4558 114.501C69.4928 113.752 69.692 113.019 70.0398 112.355C70.2153 112.008 70.4337 111.68 70.7099 111.209C70.1297 111.115 69.6394 110.965 69.1534 110.963C62.3995 110.947 55.6441 110.947 48.8872 110.963C48.3991 110.974 47.9153 111.132 47.3864 111.224ZM36.3113 129.187C36.1315 129.476 35.9709 129.715 35.8275 129.966C34.089 133 32.3563 136.033 30.6293 139.063C27.8289 143.944 25.0278 148.824 22.2261 153.703C20.9072 156.002 20.813 158.336 22.1918 160.611C23.5706 162.887 25.643 163.943 28.2571 163.741C31.1131 163.527 33.0443 161.95 34.0377 159.267C37.2262 150.615 40.4048 141.96 43.5734 133.302C43.6441 133.109 43.6912 132.905 43.764 132.659L36.3113 129.187ZM74.3046 132.674C74.433 133.051 74.5186 133.355 74.6364 133.655C76.4376 138.558 78.2389 143.46 80.0401 148.361C81.4211 152.112 82.7634 155.878 84.2 159.607C84.765 161.096 85.8583 162.324 87.2712 163.058C88.6841 163.791 90.3178 163.979 91.8603 163.585C96.2578 162.446 98.1525 157.734 95.8232 153.66C91.2844 145.721 86.7349 137.787 82.1747 129.857C82.0462 129.643 81.9028 129.429 81.7615 129.193L74.3046 132.674ZM43.1495 128.833C43.2287 128.581 43.2844 128.435 43.3229 128.285C43.7768 126.487 43.6227 124.676 43.3979 122.875C43.2394 121.591 43.3187 120.404 43.841 119.206C44.3934 117.938 44.8494 116.636 45.2947 115.315C45.4233 114.906 45.4174 114.465 45.2778 114.059C45.1382 113.653 44.8722 113.302 44.5189 113.058C44.1655 112.813 43.7433 112.689 43.3139 112.702C42.8845 112.714 42.4706 112.864 42.1326 113.13C41.2261 113.916 40.3749 114.763 39.5848 115.667C39.1596 116.168 38.8386 116.75 38.6409 117.377C38.4431 118.004 38.3724 118.664 38.433 119.319C38.5957 121.687 38.812 124.053 39.0389 126.416C39.0557 126.552 39.1012 126.683 39.1725 126.8C39.2437 126.917 39.339 127.018 39.4521 127.095C40.6403 127.688 41.8564 128.234 43.1495 128.833ZM74.7691 128.904C76.1244 128.262 77.2655 127.716 78.4323 127.213C78.6197 127.152 78.7821 127.031 78.8953 126.87C79.0084 126.709 79.0661 126.515 79.0596 126.318C79.1302 125.174 79.2566 124.033 79.3508 122.892C79.4578 121.608 79.6376 120.338 79.6376 119.062C79.6376 116.11 77.6059 114.436 75.4863 112.9C74.8441 112.44 74.0262 112.65 73.4053 113.183C72.7845 113.716 72.4997 114.444 72.7631 115.266C72.9941 116.032 73.27 116.783 73.5895 117.516C74.5037 119.572 75.0881 121.663 74.5893 123.939C74.4806 124.436 74.441 124.945 74.4715 125.453C74.5186 126.555 74.6535 127.656 74.7691 128.904ZM52.5033 138.671C55.7618 142.039 62.388 141.968 65.5631 138.671L64.0323 135.888C60.7759 136.887 57.2952 136.892 54.0362 135.901L52.5033 138.671ZM84.367 126.793C84.6393 126.629 84.9003 126.448 85.1484 126.249C87.4071 124.256 87.6405 120.514 85.5766 118.328C84.3927 117.075 83.0931 115.932 81.8471 114.74C83.7868 118.212 82.3417 121.88 82.3973 125.145L84.367 126.793ZM35.6626 125.457C35.7183 122.119 34.4873 118.807 35.6626 116.142C35.0525 116.673 34.0334 117.572 33.0014 118.454C30.1668 120.875 30.4987 125.065 33.6887 127.089C34.8405 125.656 34.8405 125.656 35.6626 125.457ZM47.4164 132.094L45.8492 136.404C46.5964 136.776 47.2751 137.145 47.9795 137.446C48.2198 137.534 48.4842 137.528 48.7203 137.429C49.2114 137.215 49.6497 136.896 50.0044 136.494C50.3591 136.093 50.6216 135.618 50.7734 135.104C50.7941 134.966 50.7816 134.825 50.7369 134.692C50.6922 134.56 50.6167 134.44 50.5165 134.342C49.5274 133.571 48.4955 132.863 47.4164 132.088V132.094ZM70.6478 132.094C69.5581 132.865 68.4555 133.642 67.3636 134.43C67.2715 134.496 67.1666 134.693 67.2009 134.751C67.6505 135.517 68.0401 136.346 68.6375 136.98C68.8516 137.194 69.6073 137.003 70.0676 136.851C70.59 136.68 71.0525 136.335 71.5513 136.083C71.9431 135.884 71.9666 135.62 71.8168 135.237C71.41 134.201 71.0353 133.145 70.6478 132.098V132.094Z" fill="#FF8042"/>
<path d="M21.0335 117.491C21.1472 116.254 21.5355 115.058 22.1699 113.99C22.8044 112.922 23.669 112.01 24.7009 111.318C26.5207 110.072 27.4007 108.419 27.6319 106.259C27.9038 103.647 29.2354 101.605 31.3764 100.1C32.2328 99.5003 33.1791 99.6416 33.7143 100.391C34.2495 101.14 34.1061 102.069 33.2369 102.69C31.644 103.827 30.8818 105.381 30.6977 107.291C30.5888 108.561 30.1949 109.789 29.5455 110.885C28.8961 111.981 28.0078 112.917 26.9468 113.622C25.3924 114.707 24.4205 116.097 24.2064 118.011C24.0908 119.056 23.32 119.689 22.4379 119.585C21.5559 119.48 20.9949 118.78 21.0335 117.491Z" fill="#FF8042"/>
<path d="M97.0178 116.367C97.0307 117.296 96.5233 117.945 95.7504 118.122C95.381 118.196 94.9974 118.136 94.668 117.954C94.3385 117.771 94.0848 117.477 93.952 117.125C93.894 116.976 93.8475 116.822 93.8128 116.666C93.6442 115.894 93.3056 115.169 92.8215 114.545C92.3375 113.92 91.7202 113.411 91.0146 113.055C88.4969 111.732 86.9361 109.704 86.3495 106.908C86.1961 106.12 85.8708 105.375 85.3968 104.727C84.9227 104.079 84.3116 103.544 83.607 103.159C82.6178 102.588 82.3224 101.733 82.7784 100.894C83.2344 100.055 84.1893 99.8236 85.1998 100.389C87.4435 101.641 88.8908 103.536 89.4303 106.034C89.8585 108.006 90.9119 109.377 92.6803 110.316C94.9111 111.509 96.307 113.401 96.9151 115.864C96.9664 116.076 96.9986 116.285 97.0178 116.367Z" fill="#FF8042"/>
<path d="M46.1704 88.6628C46.3783 88.669 46.5827 88.717 46.7716 88.8039C46.9605 88.8909 47.13 89.015 47.2698 89.1688C47.4097 89.3227 47.5172 89.5032 47.5857 89.6995C47.6543 89.8958 47.6827 90.1039 47.6691 90.3114C47.6491 90.729 47.4666 91.1222 47.1605 91.407C46.8545 91.6918 46.4492 91.8457 46.0312 91.8357C45.6134 91.8122 45.2202 91.6301 44.9321 91.3265C44.644 91.0229 44.4827 90.6207 44.4812 90.2022C44.4868 89.9888 44.5354 89.7788 44.6242 89.5846C44.713 89.3905 44.8401 89.2164 44.9978 89.0726C45.1556 88.9288 45.3408 88.8184 45.5423 88.748C45.7438 88.6776 45.9574 88.6486 46.1704 88.6628Z" fill="#FF8042"/>
<path d="M56.494 123.661C58.1126 124.603 59.8275 124.123 61.5766 123.839C62.1997 123.736 62.9426 124.038 63.5613 124.314C63.7434 124.401 63.9064 124.523 64.0408 124.674C64.1752 124.825 64.2782 125.001 64.344 125.191C64.4097 125.382 64.4369 125.584 64.4238 125.786C64.4107 125.987 64.3577 126.184 64.2678 126.365C63.9424 127.089 63.146 127.378 62.3195 127.221C61.765 127.116 61.1937 127.14 60.6496 127.29C59.5552 127.655 58.372 127.655 57.2776 127.29C56.7607 127.132 56.2129 127.104 55.6826 127.208C54.7727 127.393 53.9378 127.078 53.6359 126.279C53.5568 126.086 53.5174 125.88 53.5199 125.671C53.5224 125.463 53.5669 125.257 53.6506 125.067C53.7343 124.876 53.8555 124.704 54.0071 124.561C54.1587 124.418 54.3375 124.307 54.5329 124.235C55.1153 123.993 55.749 123.875 56.494 123.661Z" fill="#FF8042"/>
<path d="M51.4093 118.469C50.5807 117.184 50.9468 115.956 52.2143 115.686C53.1049 115.493 55.9181 117.184 56.1215 118.052C56.2949 118.794 56.0851 119.428 55.4171 119.85C54.8562 120.205 54.2803 120.539 53.7044 120.875C52.7302 121.451 51.9595 121.439 51.375 120.843C50.7905 120.248 50.7798 119.488 51.4093 118.469Z" fill="#FF8042"/>
<path d="M66.7126 118.386C66.8754 118.874 67.1151 119.289 67.1408 119.715C67.1483 119.984 67.0858 120.251 66.9595 120.489C66.8331 120.727 66.6472 120.928 66.4199 121.073C66.1925 121.218 65.9316 121.301 65.6624 121.315C65.3933 121.329 65.1252 121.272 64.8843 121.152C64.047 120.745 63.2463 120.267 62.4907 119.724C61.5958 119.081 61.6707 117.78 62.6042 117.155C63.2465 116.726 63.9166 116.345 64.5867 115.966C65.411 115.497 66.1389 115.575 66.6977 116.159C67.2564 116.743 67.2757 117.459 66.7747 118.27C66.7521 118.307 66.7314 118.346 66.7126 118.386Z" fill="#FF8042"/>
</g>
</svg>
