<svg width="66" height="64" viewBox="0 0 66 64" fill="none" xmlns="http://www.w3.org/2000/svg">
<g opacity="0.8">
<path d="M65.6464 57.1216C65.5556 57.4932 65.4751 57.8666 65.3724 58.2349C64.9528 59.7698 64.0734 61.1395 62.8523 62.1597C61.6312 63.1799 60.1269 63.8018 58.5419 63.9418C58.1377 63.9777 57.7317 64 57.3258 64C40.9827 64 24.6396 64 8.29646 64C4.38452 64 1.36836 61.8745 0.340706 58.389C-0.320418 56.1864 -0.00184494 54.0883 1.14399 52.0998C4.37653 46.4751 7.60394 40.8475 10.8262 35.2171C10.9735 34.9585 11.1157 34.7033 11.0746 34.5903C10.5607 33.9874 10.0589 33.3913 9.55876 32.7816C7.01361 29.6986 7.44179 25.6052 10.5196 23.048C12.6845 21.2462 13.8715 18.8877 14.2363 16.1079C14.5035 14.0355 14.6696 11.9476 15.031 9.89233C15.2948 8.39195 16.0347 7.0423 16.9151 5.78171C17.4374 5.03495 18.1345 4.84997 18.7802 5.26789C19.426 5.6858 19.5595 6.43599 19.056 7.1759C17.8108 9.00169 17.2302 11.0022 17.0966 13.1962C16.9253 15.8579 16.7215 18.528 15.5123 21.0372C15.7778 20.7598 16.0364 20.4772 16.307 20.2048C16.5776 19.9325 16.8979 19.6465 17.1822 19.3587C17.6233 18.8905 18.1631 18.5265 18.7624 18.293C19.3618 18.0596 20.0056 17.9626 20.6471 18.0091C20.9336 18.0093 21.2124 17.9168 21.4419 17.7453C22.3743 17.0148 23.5236 16.6159 24.7081 16.6115H40.9228C42.1298 16.6073 43.3015 17.0192 44.2404 17.7779C44.4119 17.9259 44.6288 18.0111 44.8552 18.0194C46.4327 17.8721 47.6899 18.4715 48.7244 19.6156C48.9179 19.8297 49.0669 20.0815 49.3358 20.2271C47.9793 18.1718 46.741 16.0994 45.8401 13.8368C45.2714 12.4101 44.773 10.9577 44.2609 9.51038C42.9455 5.78856 39.7718 4.08437 35.9472 5.07092C35.7033 5.14739 35.4443 5.16302 35.1929 5.11644C34.9416 5.06987 34.7054 4.96251 34.5051 4.80373C32.7572 3.439 30.6236 2.65989 28.4076 2.57715C28.2792 2.57715 28.1507 2.55659 28.024 2.54118C27.2584 2.44013 26.7822 1.92801 26.8045 1.23263C26.8062 1.05963 26.844 0.888888 26.9154 0.731297C26.9868 0.573705 27.0903 0.432723 27.2192 0.31734C27.3481 0.201958 27.4997 0.114708 27.6642 0.0611539C27.8287 0.00760024 28.0026 -0.0110816 28.1747 0.00629974C29.1921 0.0782355 30.2506 0.117629 31.2046 0.434489C32.6073 0.900358 33.9313 1.60773 35.2981 2.19006C35.5539 2.31673 35.839 2.37233 36.1236 2.35106C40.9005 1.54778 45.0299 3.9936 46.6708 8.56152C47.4038 10.6048 48.1283 12.6721 49.0515 14.6281C50.4296 17.6349 52.4729 20.2891 55.0273 22.3903C59.3503 25.8963 58.0897 31.9817 54.2549 34.1655C54.3628 34.3659 54.4655 34.5697 54.5786 34.7684C57.7951 40.3777 60.9997 45.9938 64.2385 51.5911C64.8892 52.7114 65.3656 53.9242 65.6515 55.1879L65.6464 57.1216ZM51.8056 61.4035C51.3055 60.3981 50.718 59.4338 50.3275 58.3959C48.5668 53.7052 46.8409 49.0014 45.1498 44.2845C44.9632 43.7706 44.6874 43.6148 44.1958 43.548C42.9729 43.3853 41.7569 43.1592 40.5357 42.9879C40.3395 42.9791 40.1471 43.0438 39.9962 43.1695C35.543 46.8622 30.0844 46.8485 25.609 43.1352C25.4564 43.0032 25.261 42.9313 25.0592 42.9331C23.8603 43.0787 22.6613 43.2876 21.4521 43.4144C20.9537 43.4658 20.7379 43.6679 20.5581 44.1269C18.3075 49.8818 16.6187 55.8576 13.8972 61.4035H51.8056ZM23.5092 19.3793C24.7269 21.6196 24.7646 22.2122 23.8808 24.5587C23.6102 25.278 23.3002 25.9854 23.0895 26.7202C22.9441 27.2461 22.8715 27.7896 22.8737 28.3353C22.8812 28.9975 22.9385 29.6582 23.045 30.3118C23.0927 30.7275 23.2085 31.1326 23.3876 31.5107C26.3198 37.0395 33.5374 38.8876 38.715 35.3696C40.9981 33.8178 42.8513 31.8927 42.728 28.8149C42.728 28.7087 42.7742 28.6008 42.764 28.498C42.6972 27.8728 42.7057 27.2254 42.5276 26.6328C42.2364 25.6548 41.8202 24.7128 41.4606 23.7554C41.2361 23.1988 41.1351 22.6001 41.1647 22.0007C41.1943 21.4013 41.3536 20.8154 41.6318 20.2836C41.7723 20.0062 41.947 19.7441 42.1679 19.3673C41.7038 19.2919 41.3116 19.172 40.9228 19.1703C35.5196 19.1578 30.1153 19.1578 24.7098 19.1703C24.3193 19.1789 23.9322 19.3056 23.5092 19.3793ZM14.6491 33.7493C14.5052 33.9805 14.3767 34.1724 14.262 34.3727C12.8712 36.8003 11.485 39.2261 10.1034 41.6502C7.86313 45.5553 5.62228 49.4593 3.38085 53.3621C2.32579 55.2016 2.25043 57.0685 3.35345 58.8891C4.45646 60.7098 6.11441 61.5542 8.20568 61.3932C10.4905 61.2219 12.0354 59.9596 12.8301 57.8135C15.381 50.8917 17.9239 43.9676 20.4587 37.0412C20.5153 36.8871 20.5529 36.7244 20.6112 36.5274L14.6491 33.7493ZM45.0436 36.5394C45.1464 36.8408 45.2149 37.084 45.3091 37.3238C46.7501 41.246 48.1911 45.1677 49.6321 49.0887C50.7369 52.0895 51.8107 55.1022 52.96 58.0859C53.412 59.2766 54.2866 60.2593 55.417 60.8462C56.5473 61.4332 57.8542 61.5834 59.0883 61.2682C62.6063 60.357 64.122 56.5872 62.2586 53.3278C58.6275 46.9769 54.9879 40.6294 51.3397 34.2854C51.237 34.1141 51.1222 33.9428 51.0092 33.7544L45.0436 36.5394ZM20.1196 33.4667C20.183 33.2646 20.2275 33.1481 20.2584 33.0282C20.6215 31.5895 20.4981 30.1405 20.3183 28.7001C20.1916 27.6724 20.2549 26.7236 20.6728 25.7644C21.1147 24.7505 21.4795 23.7091 21.8358 22.6524C21.9387 22.3245 21.9339 21.9723 21.8222 21.6473C21.7105 21.3223 21.4978 21.0415 21.2151 20.8461C20.9324 20.6507 20.5946 20.5509 20.2511 20.5612C19.9076 20.5716 19.5765 20.6916 19.3061 20.9036C18.5809 21.5326 17.8999 22.2107 17.2679 22.9333C16.9277 23.3345 16.6709 23.7996 16.5127 24.3014C16.3545 24.8031 16.2979 25.3314 16.3464 25.8552C16.4766 27.7495 16.6496 29.6421 16.8311 31.533C16.8446 31.6418 16.881 31.7464 16.938 31.84C16.995 31.9337 17.0712 32.0141 17.1617 32.0759C18.1123 32.5504 19.0851 32.9871 20.1196 33.4667ZM45.4153 33.5232C46.4995 33.0094 47.4124 32.5726 48.3458 32.1701C48.4957 32.1213 48.6257 32.025 48.7162 31.8959C48.8067 31.7668 48.8529 31.6118 48.8477 31.4542C48.9042 30.5396 49.0053 29.6267 49.0806 28.7138C49.1663 27.6862 49.3101 26.6705 49.3101 25.6497C49.3101 23.2878 47.6847 21.9484 45.9891 20.7204C45.4753 20.3521 44.821 20.52 44.3243 20.9465C43.8276 21.3729 43.5998 21.9553 43.8105 22.613C43.9953 23.2255 44.216 23.8266 44.4716 24.4131C45.2029 26.0573 45.6705 27.7307 45.2714 29.5513C45.1845 29.9487 45.1528 30.3562 45.1772 30.7623C45.2149 31.6443 45.3228 32.5247 45.4153 33.5232ZM27.6026 41.3368C30.2095 44.031 35.5104 43.9745 38.0505 41.3368L36.8258 39.1102C34.2207 39.91 31.4361 39.9136 28.829 39.1205L27.6026 41.3368ZM53.0936 31.8344C53.3114 31.7035 53.5203 31.5582 53.7188 31.3994C55.5257 29.8048 55.7124 26.8109 54.0613 25.0622C53.1142 24.0602 52.0745 23.1456 51.0777 22.1916C52.6295 24.9697 51.4733 27.9037 51.5179 30.5156L53.0936 31.8344ZM14.1301 30.7657C14.1746 28.0955 13.1898 25.4459 14.1301 23.3135C13.642 23.7382 12.8267 24.4576 12.0012 25.1633C9.73346 27.1004 9.99894 30.4522 12.5509 32.0708C13.4724 30.925 13.4724 30.925 14.1301 30.7657ZM23.5331 36.0752L22.2794 39.523C22.8772 39.821 23.4201 40.1156 23.9836 40.3571C24.1759 40.4271 24.3874 40.4222 24.5762 40.3434C24.9691 40.172 25.3198 39.9167 25.6035 39.5954C25.8873 39.274 26.0973 38.8945 26.2187 38.4834C26.2353 38.3727 26.2253 38.2597 26.1895 38.1537C26.1538 38.0477 26.0934 37.9517 26.0132 37.8736C25.2219 37.257 24.3964 36.6901 23.5331 36.0701V36.0752ZM42.1183 36.0752C41.2465 36.6918 40.3644 37.3136 39.4909 37.9438C39.4172 37.9969 39.3333 38.1545 39.3607 38.2008C39.7204 38.8139 40.0321 39.4768 40.51 39.9837C40.6813 40.155 41.2859 40.0026 41.6541 39.881C42.072 39.744 42.442 39.4682 42.841 39.2661C43.1545 39.1068 43.1733 38.8961 43.0534 38.5896C42.728 37.7606 42.4283 36.9162 42.1183 36.0787V36.0752Z" fill="#FF8042"/>
<path d="M2.42728 24.3925C2.51826 23.403 2.82885 22.4463 3.33641 21.5921C3.84397 20.7379 4.53571 20.0077 5.36123 19.4546C6.81707 18.4578 7.52101 17.1356 7.70599 15.4074C7.92351 13.3178 8.98884 11.6839 10.7016 10.4798C11.3867 10.0002 12.1437 10.1133 12.5719 10.7127C13.0001 11.3122 12.8854 12.0555 12.19 12.5522C10.9157 13.4617 10.306 14.7052 10.1587 16.2329C10.0715 17.2484 9.75642 18.2312 9.23688 19.1081C8.71734 19.9849 8.00672 20.7333 7.15791 21.2976C5.91445 22.1659 5.13686 23.2775 4.96558 24.8087C4.87309 25.6445 4.2565 26.1515 3.55084 26.0676C2.84519 25.9837 2.39645 25.4236 2.42728 24.3925Z" fill="#FF8042"/>
<path d="M63.2142 23.4934C63.2244 24.2367 62.8185 24.7557 62.2002 24.8978C61.9047 24.957 61.5978 24.9092 61.3343 24.763C61.0707 24.6168 60.8677 24.3817 60.7615 24.0997C60.7151 23.9805 60.6779 23.858 60.6502 23.7332C60.5153 23.1154 60.2444 22.5355 59.8571 22.0357C59.4699 21.5358 58.9761 21.1287 58.4116 20.8437C56.3974 19.7853 55.1488 18.1633 54.6795 15.9264C54.5568 15.2959 54.2966 14.7003 53.9173 14.1819C53.5381 13.6635 53.0492 13.2352 52.4855 12.9274C51.6942 12.4701 51.4578 11.7867 51.8226 11.1153C52.1874 10.4439 52.9513 10.2589 53.7598 10.7111C55.5547 11.713 56.7125 13.2288 57.1442 15.2276C57.4867 16.8051 58.3294 17.9012 59.7441 18.6531C61.5288 19.6071 62.6455 21.1212 63.132 23.0909C63.1731 23.2604 63.1988 23.4283 63.2142 23.4934Z" fill="#FF8042"/>
<path d="M22.5362 1.33021C22.7025 1.33515 22.866 1.37353 23.0172 1.44308C23.1683 1.51263 23.3038 1.61191 23.4157 1.735C23.5276 1.85809 23.6136 2.00247 23.6685 2.15951C23.7233 2.31655 23.746 2.48304 23.7351 2.64903C23.7191 2.98311 23.5731 3.29768 23.3283 3.52555C23.0834 3.75341 22.7592 3.8765 22.4249 3.86852C22.0905 3.84975 21.776 3.70403 21.5455 3.46114C21.3151 3.21825 21.186 2.89652 21.1848 2.56168C21.1893 2.39098 21.2282 2.22295 21.2992 2.06766C21.3702 1.91238 21.4719 1.77305 21.5981 1.65803C21.7243 1.54302 21.8725 1.45469 22.0337 1.39836C22.1949 1.34203 22.3658 1.31885 22.5362 1.33021Z" fill="#FF8042"/>
<path d="M30.7947 29.3287C32.0895 30.0823 33.4615 29.6987 34.8608 29.4709C35.3592 29.3887 35.9535 29.6302 36.4485 29.8511C36.5942 29.9208 36.7246 30.0187 36.8321 30.1393C36.9396 30.2598 37.022 30.4005 37.0746 30.5532C37.1272 30.7059 37.1489 30.8675 37.1385 31.0287C37.128 31.1898 37.0856 31.3473 37.0137 31.4919C36.7534 32.0709 36.1162 32.3021 35.4551 32.177C35.0114 32.093 34.5544 32.1117 34.1192 32.2318C33.2437 32.5238 32.2971 32.5238 31.4216 32.2318C31.008 32.1059 30.5698 32.0836 30.1456 32.1668C29.4176 32.3141 28.7497 32.0623 28.5082 31.4234C28.4449 31.2692 28.4134 31.1038 28.4154 30.9372C28.4174 30.7705 28.4529 30.6059 28.5199 30.4533C28.5869 30.3007 28.6839 30.1631 28.8052 30.0487C28.9264 29.9344 29.0695 29.8456 29.2258 29.7877C29.6917 29.5942 30.1987 29.5 30.7947 29.3287Z" fill="#FF8042"/>
<path d="M26.728 25.1752C26.0652 24.1476 26.3581 23.1645 27.372 22.9487C28.0845 22.7945 30.3351 24.1476 30.4978 24.8412C30.6365 25.4356 30.4687 25.9426 29.9343 26.28C29.4855 26.5643 29.0248 26.8315 28.5641 27.1004C27.7848 27.5611 27.1682 27.5508 26.7006 27.0747C26.233 26.5985 26.2245 25.9905 26.728 25.1752Z" fill="#FF8042"/>
<path d="M38.9698 25.1085C39.0999 25.499 39.2918 25.8313 39.3123 26.1721C39.3183 26.3876 39.2683 26.601 39.1672 26.7914C39.0661 26.9818 38.9174 27.1428 38.7355 27.2586C38.5537 27.3743 38.3449 27.441 38.1296 27.452C37.9143 27.463 37.6998 27.418 37.5071 27.3214C36.8373 26.996 36.1967 26.6138 35.5922 26.179C34.8763 25.6651 34.9362 24.6238 35.683 24.1237C36.1968 23.7811 36.7329 23.4762 37.269 23.1731C37.9284 22.798 38.5108 22.8596 38.9578 23.3272C39.4048 23.7948 39.4202 24.3669 39.0194 25.016C39.0013 25.046 38.9847 25.0768 38.9698 25.1085Z" fill="#FF8042"/>
</g>
</svg>
